M48
; DRILL file {KiCad 6.0.11-2627ca5db0~126~ubuntu20.04.1} date Wed May 10 15:16:16 2023
; FORMAT={-:-/ absolute / inch / decimal}
; #@! TF.CreationDate,2023-05-10T15:16:16+05:30
; #@! TF.GenerationSoftware,Kicad,Pcbnew,6.0.11-2627ca5db0~126~ubuntu20.04.1
; #@! TF.FileFunction,NonPlated,1,4,NPTH
FMAT,2
INCH
; #@! TA.AperFunction,NonPlated,NPTH,ComponentDrill
T1C0.0197
; #@! TA.AperFunction,NonPlated,NPTH,ComponentDrill
T2C0.1260
; #@! TA.AperFunction,NonPlated,NPTH,ComponentDrill
T3C0.2559
%
G90
G05
T1
X2.0421Y-3.0392
X2.0421Y-3.1573
X2.0726Y-3.0392
X2.0726Y-3.1573
X2.1021Y-3.0392
X2.1021Y-3.1573
X2.1316Y-3.1573
X2.1321Y-3.0392
X2.1616Y-3.0392
X2.1616Y-3.1573
X3.8433Y-3.0392
X3.8433Y-3.1573
X3.8737Y-3.0392
X3.8737Y-3.1573
X3.9033Y-3.0392
X3.9033Y-3.1573
X3.9328Y-3.1573
X3.9333Y-3.0392
X3.9628Y-3.0392
X3.9628Y-3.1573
X5.6366Y-3.0392
X5.6366Y-3.1573
X5.667Y-3.0392
X5.667Y-3.1573
X5.6966Y-3.0392
X5.6966Y-3.1573
X5.7261Y-3.1573
X5.7266Y-3.0392
X5.7561Y-3.0392
X5.7561Y-3.1573
X6.5384Y-6.9621
X6.5384Y-6.9917
X6.5384Y-7.0217
X6.5384Y-7.0512
X6.5384Y-7.0817
X6.5394Y-2.5478
X6.5394Y-2.5773
X6.5394Y-2.6073
X6.5394Y-2.6368
X6.5394Y-2.6673
X6.5433Y-4.8509
X6.5433Y-4.8804
X6.5433Y-4.9104
X6.5433Y-4.94
X6.5433Y-4.9704
X6.5492Y-0.473
X6.5492Y-0.5025
X6.5492Y-0.5325
X6.5492Y-0.562
X6.5492Y-0.5925
X6.6565Y-6.9621
X6.6565Y-6.9921
X6.6565Y-7.0217
X6.6565Y-7.0512
X6.6565Y-7.0817
X6.6575Y-2.5478
X6.6575Y-2.5778
X6.6575Y-2.6073
X6.6575Y-2.6368
X6.6575Y-2.6673
X6.6614Y-4.8509
X6.6614Y-4.8809
X6.6614Y-4.9104
X6.6614Y-4.94
X6.6614Y-4.9704
X6.6673Y-0.473
X6.6673Y-0.503
X6.6673Y-0.5325
X6.6673Y-0.562
X6.6673Y-0.5925
X7.3504Y-1.2313
X7.3504Y-1.3494
X7.3809Y-1.2313
X7.3809Y-1.3494
X7.4104Y-1.2313
X7.4104Y-1.3494
X7.44Y-1.3494
X7.4404Y-1.2313
X7.47Y-1.2313
X7.47Y-1.3494
T2
X6.8091Y-1.5014
X6.8091Y-6.9764
X11.2341Y-7.2764
X11.2591Y-1.5014
T3
X7.841Y-1.7402
X7.841Y-5.4409
X9.652Y-1.7402
X9.652Y-5.4409
T0
M30
