%TF.GenerationSoftware,KiCad,Pcbnew,6.0.11-2627ca5db0~126~ubuntu20.04.1*%
%TF.CreationDate,2023-05-10T15:16:23+05:30*%
%TF.ProjectId,MVCU_COPY,4d564355-5f43-44f5-9059-2e6b69636164,rev?*%
%TF.SameCoordinates,Original*%
%TF.FileFunction,Soldermask,Bot*%
%TF.FilePolarity,Negative*%
%FSLAX46Y46*%
G04 Gerber Fmt 4.6, Leading zero omitted, Abs format (unit mm)*
G04 Created by KiCad (PCBNEW 6.0.11-2627ca5db0~126~ubuntu20.04.1) date 2023-05-10 15:16:23*
%MOMM*%
%LPD*%
G01*
G04 APERTURE LIST*
G04 Aperture macros list*
%AMRoundRect*
0 Rectangle with rounded corners*
0 $1 Rounding radius*
0 $2 $3 $4 $5 $6 $7 $8 $9 X,Y pos of 4 corners*
0 Add a 4 corners polygon primitive as box body*
4,1,4,$2,$3,$4,$5,$6,$7,$8,$9,$2,$3,0*
0 Add four circle primitives for the rounded corners*
1,1,$1+$1,$2,$3*
1,1,$1+$1,$4,$5*
1,1,$1+$1,$6,$7*
1,1,$1+$1,$8,$9*
0 Add four rect primitives between the rounded corners*
20,1,$1+$1,$2,$3,$4,$5,0*
20,1,$1+$1,$4,$5,$6,$7,0*
20,1,$1+$1,$6,$7,$8,$9,0*
20,1,$1+$1,$8,$9,$2,$3,0*%
%AMHorizOval*
0 Thick line with rounded ends*
0 $1 width*
0 $2 $3 position (X,Y) of the first rounded end (center of the circle)*
0 $4 $5 position (X,Y) of the second rounded end (center of the circle)*
0 Add line between two ends*
20,1,$1,$2,$3,$4,$5,0*
0 Add two circle primitives to create the rounded ends*
1,1,$1,$2,$3*
1,1,$1,$4,$5*%
%AMRotRect*
0 Rectangle, with rotation*
0 The origin of the aperture is its center*
0 $1 length*
0 $2 width*
0 $3 Rotation angle, in degrees counterclockwise*
0 Add horizontal line*
21,1,$1,$2,0,0,$3*%
G04 Aperture macros list end*
%ADD10C,0.500000*%
%ADD11O,1.700000X1.700000*%
%ADD12R,1.700000X1.700000*%
%ADD13R,1.200000X0.900000*%
%ADD14RoundRect,0.237500X0.237500X-0.250000X0.237500X0.250000X-0.237500X0.250000X-0.237500X-0.250000X0*%
%ADD15RoundRect,0.237500X0.300000X0.237500X-0.300000X0.237500X-0.300000X-0.237500X0.300000X-0.237500X0*%
%ADD16R,1.800000X3.500000*%
%ADD17R,1.000000X1.000000*%
%ADD18O,1.000000X1.000000*%
%ADD19RoundRect,0.150000X-0.150000X0.587500X-0.150000X-0.587500X0.150000X-0.587500X0.150000X0.587500X0*%
%ADD20R,3.500000X1.800000*%
%ADD21RoundRect,0.237500X-0.300000X-0.237500X0.300000X-0.237500X0.300000X0.237500X-0.300000X0.237500X0*%
%ADD22R,2.000000X1.500000*%
%ADD23R,2.000000X3.800000*%
%ADD24R,1.600000X1.600000*%
%ADD25C,1.600000*%
%ADD26RoundRect,0.237500X0.250000X0.237500X-0.250000X0.237500X-0.250000X-0.237500X0.250000X-0.237500X0*%
%ADD27RoundRect,0.250000X0.625000X-0.400000X0.625000X0.400000X-0.625000X0.400000X-0.625000X-0.400000X0*%
%ADD28R,1.670000X0.450000*%
%ADD29RoundRect,0.250000X-0.600000X-0.725000X0.600000X-0.725000X0.600000X0.725000X-0.600000X0.725000X0*%
%ADD30O,1.700000X1.950000*%
%ADD31C,3.200000*%
%ADD32R,1.800000X1.800000*%
%ADD33C,1.800000*%
%ADD34C,4.000000*%
%ADD35R,18.000000X14.000000*%
%ADD36C,2.400000*%
%ADD37R,2.600000X2.600000*%
%ADD38O,2.600000X2.600000*%
%ADD39C,2.800000*%
%ADD40O,1.600000X1.600000*%
%ADD41C,5.600000*%
%ADD42C,1.727200*%
%ADD43RotRect,1.700000X1.700000X225.000000*%
%ADD44HorizOval,1.700000X0.000000X0.000000X0.000000X0.000000X0*%
%ADD45RoundRect,0.250000X-0.750000X-1.550000X0.750000X-1.550000X0.750000X1.550000X-0.750000X1.550000X0*%
%ADD46O,2.000000X3.600000*%
%ADD47C,1.524000*%
%ADD48C,2.000000*%
G04 APERTURE END LIST*
D10*
%TO.C,mouse-bite-3mm-slot*%
X187475000Y-34275000D03*
X188987000Y-31275000D03*
X186701000Y-31275000D03*
X188225000Y-31275000D03*
X188225000Y-34275000D03*
X188975000Y-34275000D03*
X187475000Y-31275000D03*
X189737000Y-31275000D03*
X186701000Y-34275000D03*
X189737000Y-34275000D03*
%TD*%
%TO.C,mouse-bite-3mm-slot*%
X169350000Y-14275000D03*
X166350000Y-12763000D03*
X166350000Y-15049000D03*
X166350000Y-13525000D03*
X169350000Y-13525000D03*
X169350000Y-12775000D03*
X166350000Y-14275000D03*
X166350000Y-12013000D03*
X169350000Y-15049000D03*
X169350000Y-12013000D03*
%TD*%
%TO.C,mouse-bite-3mm-slot*%
X169100000Y-66975000D03*
X166100000Y-65463000D03*
X166100000Y-67749000D03*
X166100000Y-66225000D03*
X169100000Y-66225000D03*
X169100000Y-65475000D03*
X166100000Y-66975000D03*
X166100000Y-64713000D03*
X169100000Y-67749000D03*
X169100000Y-64713000D03*
%TD*%
%TO.C,mouse-bite-3mm-slot*%
X169200000Y-125475000D03*
X166200000Y-123963000D03*
X166200000Y-126249000D03*
X166200000Y-124725000D03*
X169200000Y-124725000D03*
X169200000Y-123975000D03*
X166200000Y-125475000D03*
X166200000Y-123213000D03*
X169200000Y-126249000D03*
X169200000Y-123213000D03*
%TD*%
%TO.C,mouse-bite-3mm-slot*%
X169075000Y-179100000D03*
X166075000Y-177588000D03*
X166075000Y-179874000D03*
X166075000Y-178350000D03*
X169075000Y-178350000D03*
X169075000Y-177600000D03*
X166075000Y-179100000D03*
X166075000Y-176838000D03*
X169075000Y-179874000D03*
X169075000Y-176838000D03*
%TD*%
D11*
%TO.C,J2*%
X206202500Y-155000D03*
X206202500Y2385000D03*
X206202500Y4925000D03*
X206202500Y7465000D03*
X206202500Y10005000D03*
X206202500Y12545000D03*
D12*
X206202500Y15085000D03*
%TD*%
D11*
%TO.C,J3*%
X206177500Y-28095000D03*
X206177500Y-25555000D03*
X206177500Y-23015000D03*
X206177500Y-20475000D03*
X206177500Y-17935000D03*
X206177500Y-15395000D03*
D12*
X206177500Y-12855000D03*
%TD*%
D11*
%TO.C,J1*%
X172547500Y-28090000D03*
X172547500Y-25550000D03*
X172547500Y-23010000D03*
X172547500Y-20470000D03*
X172547500Y-17930000D03*
X172547500Y-15390000D03*
X172547500Y-12850000D03*
X172547500Y-10310000D03*
X172547500Y-7770000D03*
X172547500Y-5230000D03*
X172547500Y-2690000D03*
X172547500Y-150000D03*
X172547500Y2390000D03*
X172547500Y4930000D03*
X172547500Y7470000D03*
X172547500Y10010000D03*
X172547500Y12550000D03*
D12*
X172547500Y15090000D03*
%TD*%
D13*
%TO.C,D8*%
X226290000Y-141385000D03*
X226290000Y-138085000D03*
%TD*%
D14*
%TO.C,R10*%
X183110000Y-178747500D03*
X183110000Y-176922500D03*
%TD*%
D15*
%TO.C,C9*%
X251282500Y-163230000D03*
X249557500Y-163230000D03*
%TD*%
D16*
%TO.C,D5*%
X272010000Y-162000000D03*
X272010000Y-167000000D03*
%TD*%
D17*
%TO.C,J5*%
X242165000Y-179740000D03*
D18*
X240895000Y-179740000D03*
%TD*%
D19*
%TO.C,Q3*%
X192320000Y-173087500D03*
X194220000Y-173087500D03*
X193270000Y-174962500D03*
%TD*%
D15*
%TO.C,C8*%
X250647500Y-171485000D03*
X248922500Y-171485000D03*
%TD*%
D20*
%TO.C,D2*%
X259270000Y-170850000D03*
X254270000Y-170850000D03*
%TD*%
D14*
%TO.C,R9*%
X188825000Y-169857500D03*
X188825000Y-168032500D03*
%TD*%
D21*
%TO.C,C17*%
X247652500Y-161325000D03*
X249377500Y-161325000D03*
%TD*%
D17*
%TO.C,J6*%
X253595000Y-178470000D03*
D18*
X253595000Y-177200000D03*
%TD*%
D19*
%TO.C,Q4*%
X196765000Y-173087500D03*
X198665000Y-173087500D03*
X197715000Y-174962500D03*
%TD*%
D22*
%TO.C,U1*%
X223725000Y-148230000D03*
X223725000Y-150530000D03*
D23*
X217425000Y-150530000D03*
D22*
X223725000Y-152830000D03*
%TD*%
D17*
%TO.C,J4*%
X240895000Y-159420000D03*
D18*
X242165000Y-159420000D03*
%TD*%
D24*
%TO.C,C1*%
X247742651Y-112430000D03*
D25*
X247742651Y-107430000D03*
%TD*%
D26*
%TO.C,R16*%
X253872500Y-156880000D03*
X252047500Y-156880000D03*
%TD*%
%TO.C,R2*%
X185927500Y-158785000D03*
X184102500Y-158785000D03*
%TD*%
D14*
%TO.C,R7*%
X192635000Y-169857500D03*
X192635000Y-168032500D03*
%TD*%
D26*
%TO.C,R12*%
X189102500Y-178470000D03*
X187277500Y-178470000D03*
%TD*%
D17*
%TO.C,J3*%
X247880000Y-167040000D03*
D18*
X246610000Y-167040000D03*
%TD*%
D26*
%TO.C,R5*%
X185927500Y-160690000D03*
X184102500Y-160690000D03*
%TD*%
D13*
%TO.C,D7*%
X219305000Y-141385000D03*
X219305000Y-138085000D03*
%TD*%
D17*
%TO.C,J7*%
X251055000Y-166405000D03*
D18*
X251055000Y-167675000D03*
%TD*%
D27*
%TO.C,R3*%
X242165000Y-111440000D03*
X242165000Y-108340000D03*
%TD*%
D20*
%TO.C,D6*%
X259905000Y-153705000D03*
X254905000Y-153705000D03*
%TD*%
D19*
%TO.C,Q1*%
X182795000Y-173087500D03*
X184695000Y-173087500D03*
X183745000Y-174962500D03*
%TD*%
D14*
%TO.C,R6*%
X194540000Y-169857500D03*
X194540000Y-168032500D03*
%TD*%
D20*
%TO.C,D1*%
X258000000Y-160690000D03*
X253000000Y-160690000D03*
%TD*%
D14*
%TO.C,R11*%
X185650000Y-178747500D03*
X185650000Y-176922500D03*
%TD*%
D19*
%TO.C,Q2*%
X186605000Y-173087500D03*
X188505000Y-173087500D03*
X187555000Y-174962500D03*
%TD*%
D14*
%TO.C,R8*%
X190730000Y-169857500D03*
X190730000Y-168032500D03*
%TD*%
D26*
%TO.C,R4*%
X194540000Y-162595000D03*
X192715000Y-162595000D03*
%TD*%
D28*
%TO.C,U2*%
X234125000Y-173835000D03*
X234125000Y-173185000D03*
X234125000Y-172535000D03*
X234125000Y-171885000D03*
X234125000Y-171235000D03*
X234125000Y-170585000D03*
X234125000Y-169935000D03*
X234125000Y-169285000D03*
X234125000Y-168635000D03*
X234125000Y-167985000D03*
X234125000Y-167335000D03*
X234125000Y-166685000D03*
X234125000Y-166035000D03*
X234125000Y-165385000D03*
X234125000Y-164735000D03*
X234125000Y-164085000D03*
X234125000Y-163435000D03*
X234125000Y-162785000D03*
X243855000Y-162785000D03*
X243855000Y-163435000D03*
X243855000Y-164085000D03*
X243855000Y-164735000D03*
X243855000Y-165385000D03*
X243855000Y-166035000D03*
X243855000Y-166685000D03*
X243855000Y-169935000D03*
X243855000Y-170585000D03*
X243855000Y-171235000D03*
X243855000Y-171885000D03*
X243855000Y-172535000D03*
X243855000Y-173185000D03*
X243855000Y-173835000D03*
%TD*%
D17*
%TO.C,J1*%
X250420000Y-177200000D03*
D18*
X249150000Y-177200000D03*
%TD*%
D26*
%TO.C,R1*%
X194540000Y-160690000D03*
X192715000Y-160690000D03*
%TD*%
D29*
%TO.C,J2*%
X175490000Y-183550000D03*
D30*
X177990000Y-183550000D03*
X180490000Y-183550000D03*
X182990000Y-183550000D03*
X185490000Y-183550000D03*
X187990000Y-183550000D03*
%TD*%
D31*
%TO.C,H3*%
X172950000Y-177200000D03*
%TD*%
%TO.C,H2*%
X172950000Y-38135000D03*
%TD*%
D32*
%TO.C,PS2*%
X276510000Y-97725000D03*
D33*
X267510000Y-97725000D03*
X285510000Y-148725000D03*
X258510000Y-148725000D03*
%TD*%
D32*
%TO.C,PS1*%
X176025000Y-157460000D03*
D33*
X176025000Y-166460000D03*
X227025000Y-148460000D03*
X227025000Y-175460000D03*
%TD*%
D34*
%TO.C,U3*%
X245160302Y-44200000D03*
X199160302Y-44200000D03*
X199160302Y-138200000D03*
X245160302Y-138200000D03*
D35*
X222160302Y-63200000D03*
X222160302Y-91200000D03*
X222160302Y-119200000D03*
D34*
X209333302Y-137353000D03*
X209333302Y-141163000D03*
X215429302Y-141163000D03*
X215429302Y-137353000D03*
X236511302Y-137353000D03*
X236511302Y-141163000D03*
X230415302Y-137353000D03*
X230415302Y-141163000D03*
%TD*%
D32*
%TO.C,PS3*%
X276510000Y-39305000D03*
D33*
X267510000Y-39305000D03*
X285510000Y-90305000D03*
X258510000Y-90305000D03*
%TD*%
D36*
%TO.C,C15*%
X185015000Y-64170000D03*
X185015000Y-86670000D03*
%TD*%
%TO.C,C13*%
X177395000Y-114790000D03*
X177395000Y-92290000D03*
%TD*%
D37*
%TO.C,D10*%
X186285000Y-57185000D03*
D38*
X186285000Y-41945000D03*
%TD*%
D37*
%TO.C,D9*%
X176125000Y-121955000D03*
D38*
X176125000Y-137195000D03*
%TD*%
D39*
%TO.C,R18*%
X176760000Y-62740000D03*
X176760000Y-42740000D03*
%TD*%
D31*
%TO.C,H1*%
X285980000Y-38135000D03*
%TD*%
D39*
%TO.C,R17*%
X186285000Y-117670000D03*
X186285000Y-137670000D03*
%TD*%
D31*
%TO.C,H4*%
X285345000Y-184820000D03*
%TD*%
D24*
%TO.C,U1*%
X135264000Y-84289000D03*
D40*
X135264000Y-86829000D03*
X135264000Y-89369000D03*
X135264000Y-91909000D03*
X135264000Y-94449000D03*
X135264000Y-96989000D03*
X135264000Y-99529000D03*
X142884000Y-99529000D03*
X142884000Y-96989000D03*
X142884000Y-94449000D03*
X142884000Y-91909000D03*
X142884000Y-89369000D03*
X142884000Y-86829000D03*
X142884000Y-84289000D03*
%TD*%
D34*
%TO.C,J33*%
X156384669Y-73831893D03*
X156384669Y-48831893D03*
D24*
X154964669Y-66871893D03*
D25*
X154964669Y-64101893D03*
X154964669Y-61331893D03*
X154964669Y-58561893D03*
X154964669Y-55791893D03*
X157804669Y-65486893D03*
X157804669Y-62716893D03*
X157804669Y-59946893D03*
X157804669Y-57176893D03*
%TD*%
D39*
%TO.C,+Vin*%
X102947000Y-97118000D03*
%TD*%
D41*
%TO.C,H6*%
X39864107Y-53267893D03*
%TD*%
D39*
%TO.C,-Vin*%
X98248000Y-97245000D03*
%TD*%
D24*
%TO.C,U19*%
X119037000Y3197500D03*
D40*
X119037000Y657500D03*
X119037000Y-1882500D03*
X119037000Y-4422500D03*
X119037000Y-6962500D03*
X119037000Y-9502500D03*
X119037000Y-12042500D03*
X119037000Y-14582500D03*
X126657000Y-14582500D03*
X126657000Y-12042500D03*
X126657000Y-9502500D03*
X126657000Y-6962500D03*
X126657000Y-4422500D03*
X126657000Y-1882500D03*
X126657000Y657500D03*
X126657000Y3197500D03*
%TD*%
D34*
%TO.C,J6*%
X156499107Y-122551893D03*
X156499107Y-147551893D03*
D24*
X155079107Y-140591893D03*
D25*
X155079107Y-137821893D03*
X155079107Y-135051893D03*
X155079107Y-132281893D03*
X155079107Y-129511893D03*
X157919107Y-139206893D03*
X157919107Y-136436893D03*
X157919107Y-133666893D03*
X157919107Y-130896893D03*
%TD*%
D12*
%TO.C,J38*%
X61207000Y-2225000D03*
D11*
X61207000Y-4765000D03*
X58667000Y-2225000D03*
X58667000Y-4765000D03*
X56127000Y-2225000D03*
X56127000Y-4765000D03*
%TD*%
D24*
%TO.C,C54*%
X70404349Y21325000D03*
D25*
X72904349Y21325000D03*
%TD*%
D12*
%TO.C,J35*%
X95857000Y-47175000D03*
D11*
X98397000Y-47175000D03*
X100937000Y-47175000D03*
X103477000Y-47175000D03*
%TD*%
D12*
%TO.C,J31*%
X77557000Y-39975000D03*
D11*
X77557000Y-42515000D03*
X77557000Y-45055000D03*
X77557000Y-47595000D03*
%TD*%
D42*
%TO.C,U9*%
X47993660Y-152543200D03*
X49995180Y-152543200D03*
X51994160Y-152543200D03*
X53995680Y-152543200D03*
X55994660Y-152543200D03*
X57993640Y-152543200D03*
X59995160Y-152543200D03*
X61994140Y-152543200D03*
X63995660Y-152543200D03*
X65994640Y-152543200D03*
X65994640Y-130546800D03*
X63995660Y-130546800D03*
X61994140Y-130546800D03*
X59995160Y-130546800D03*
X57993640Y-130546800D03*
X55994660Y-130546800D03*
X53995680Y-130546800D03*
X51994160Y-130546800D03*
X49995180Y-130546800D03*
X47993660Y-130546800D03*
%TD*%
D12*
%TO.C,J39*%
X56907000Y-10775000D03*
D11*
X54367000Y-10775000D03*
X51827000Y-10775000D03*
%TD*%
D12*
%TO.C,J41*%
X134609000Y-55040000D03*
%TD*%
D24*
%TO.C,U10*%
X131888000Y-125195000D03*
D25*
X134428000Y-125195000D03*
X136968000Y-125195000D03*
X139508000Y-125195000D03*
X142048000Y-125195000D03*
X142048000Y-109955000D03*
X139508000Y-109955000D03*
X136968000Y-109955000D03*
X134428000Y-109955000D03*
X131888000Y-109955000D03*
%TD*%
D41*
%TO.C,H5*%
X147357000Y-68575000D03*
%TD*%
D43*
%TO.C,J36*%
X111758562Y-10326562D03*
D44*
X109962511Y-8530511D03*
%TD*%
D34*
%TO.C,J26*%
X65904107Y-66607562D03*
X40904107Y-66607562D03*
D24*
X47864107Y-65187562D03*
D25*
X50634107Y-65187562D03*
X53404107Y-65187562D03*
X56174107Y-65187562D03*
X58944107Y-65187562D03*
X49249107Y-68027562D03*
X52019107Y-68027562D03*
X54789107Y-68027562D03*
X57559107Y-68027562D03*
%TD*%
D12*
%TO.C,J34*%
X128332000Y-24675000D03*
D11*
X130872000Y-24675000D03*
X133412000Y-24675000D03*
X135952000Y-24675000D03*
X138492000Y-24675000D03*
%TD*%
D41*
%TO.C,H4*%
X149048000Y-87339000D03*
%TD*%
%TO.C,H2*%
X39825107Y-164687893D03*
%TD*%
D34*
%TO.C,J29*%
X77154107Y-67107562D03*
X102154107Y-67107562D03*
D24*
X84114107Y-65687562D03*
D25*
X86884107Y-65687562D03*
X89654107Y-65687562D03*
X92424107Y-65687562D03*
X95194107Y-65687562D03*
X85499107Y-68527562D03*
X88269107Y-68527562D03*
X91039107Y-68527562D03*
X93809107Y-68527562D03*
%TD*%
D12*
%TO.C,J2*%
X87318000Y-149420000D03*
D11*
X87318000Y-151960000D03*
X87318000Y-154500000D03*
X87318000Y-157040000D03*
X87318000Y-159580000D03*
%TD*%
D34*
%TO.C,J7*%
X77115107Y-178527562D03*
X102115107Y-178527562D03*
D24*
X84075107Y-177107562D03*
D25*
X86845107Y-177107562D03*
X89615107Y-177107562D03*
X92385107Y-177107562D03*
X95155107Y-177107562D03*
X85460107Y-179947562D03*
X88230107Y-179947562D03*
X91000107Y-179947562D03*
X93770107Y-179947562D03*
%TD*%
D39*
%TO.C,3V1*%
X89016000Y14175000D03*
%TD*%
D10*
%TO.C,mouse-bite-3mm-slot*%
X97619000Y-80195000D03*
X97619000Y-77195000D03*
X99893000Y-80195000D03*
X100655000Y-77195000D03*
X99905000Y-77195000D03*
X98393000Y-77195000D03*
X99143000Y-80195000D03*
X100655000Y-80195000D03*
X99143000Y-77195000D03*
X98393000Y-80195000D03*
%TD*%
D34*
%TO.C,J11*%
X157018776Y-85051893D03*
X157018776Y-110051893D03*
D24*
X155598776Y-103091893D03*
D25*
X155598776Y-100321893D03*
X155598776Y-97551893D03*
X155598776Y-94781893D03*
X155598776Y-92011893D03*
X158438776Y-101706893D03*
X158438776Y-98936893D03*
X158438776Y-96166893D03*
X158438776Y-93396893D03*
%TD*%
D12*
%TO.C,J20*%
X134570000Y-166460000D03*
%TD*%
%TO.C,J13*%
X128293000Y-136095000D03*
D11*
X130833000Y-136095000D03*
X133373000Y-136095000D03*
X135913000Y-136095000D03*
X138453000Y-136095000D03*
%TD*%
D12*
%TO.C,J16*%
X100661000Y-87354000D03*
D11*
X100661000Y-89894000D03*
X100661000Y-92434000D03*
%TD*%
D12*
%TO.C,J10*%
X77518000Y-151395000D03*
D11*
X77518000Y-153935000D03*
X77518000Y-156475000D03*
X77518000Y-159015000D03*
%TD*%
D34*
%TO.C,J12*%
X156345669Y-185251893D03*
X156345669Y-160251893D03*
D24*
X154925669Y-178291893D03*
D25*
X154925669Y-175521893D03*
X154925669Y-172751893D03*
X154925669Y-169981893D03*
X154925669Y-167211893D03*
X157765669Y-176906893D03*
X157765669Y-174136893D03*
X157765669Y-171366893D03*
X157765669Y-168596893D03*
%TD*%
D12*
%TO.C,J21*%
X139550000Y-153350000D03*
%TD*%
D24*
%TO.C,U8*%
X118998000Y-108222500D03*
D40*
X118998000Y-110762500D03*
X118998000Y-113302500D03*
X118998000Y-115842500D03*
X118998000Y-118382500D03*
X118998000Y-120922500D03*
X118998000Y-123462500D03*
X118998000Y-126002500D03*
X126618000Y-126002500D03*
X126618000Y-123462500D03*
X126618000Y-120922500D03*
X126618000Y-118382500D03*
X126618000Y-115842500D03*
X126618000Y-113302500D03*
X126618000Y-110762500D03*
X126618000Y-108222500D03*
%TD*%
D41*
%TO.C,H3*%
X39368000Y-130895000D03*
%TD*%
D39*
%TO.C,+5V*%
X84151000Y-97245000D03*
%TD*%
D12*
%TO.C,J42*%
X139589000Y-41930000D03*
%TD*%
D45*
%TO.C,J5*%
X87045107Y-89966500D03*
D46*
X92045107Y-89966500D03*
%TD*%
D34*
%TO.C,J32*%
X157057776Y1368107D03*
X157057776Y26368107D03*
D24*
X155637776Y8328107D03*
D25*
X155637776Y11098107D03*
X155637776Y13868107D03*
X155637776Y16638107D03*
X155637776Y19408107D03*
X158477776Y9713107D03*
X158477776Y12483107D03*
X158477776Y15253107D03*
X158477776Y18023107D03*
%TD*%
D45*
%TO.C,J27*%
X87084107Y21453500D03*
D46*
X92084107Y21453500D03*
%TD*%
D12*
%TO.C,J17*%
X61168000Y-113645000D03*
D11*
X61168000Y-116185000D03*
X58628000Y-113645000D03*
X58628000Y-116185000D03*
X56088000Y-113645000D03*
X56088000Y-116185000D03*
%TD*%
D12*
%TO.C,J22*%
X139396000Y-166460000D03*
%TD*%
D24*
%TO.C,U21*%
X131927000Y-13775000D03*
D25*
X134467000Y-13775000D03*
X137007000Y-13775000D03*
X139547000Y-13775000D03*
X142087000Y-13775000D03*
X142087000Y1465000D03*
X139547000Y1465000D03*
X137007000Y1465000D03*
X134467000Y1465000D03*
X131927000Y1465000D03*
%TD*%
D34*
%TO.C,J4*%
X40865107Y-178027562D03*
X65865107Y-178027562D03*
D24*
X47825107Y-176607562D03*
D25*
X50595107Y-176607562D03*
X53365107Y-176607562D03*
X56135107Y-176607562D03*
X58905107Y-176607562D03*
X49210107Y-179447562D03*
X51980107Y-179447562D03*
X54750107Y-179447562D03*
X57520107Y-179447562D03*
%TD*%
D12*
%TO.C,J14*%
X95818000Y-158595000D03*
D11*
X98358000Y-158595000D03*
X100898000Y-158595000D03*
X103438000Y-158595000D03*
%TD*%
D41*
%TO.C,H1*%
X147318000Y-179995000D03*
%TD*%
D12*
%TO.C,J18*%
X56868000Y-122195000D03*
D11*
X54328000Y-122195000D03*
X51788000Y-122195000D03*
%TD*%
D10*
%TO.C,mouse-bite-3mm-slot*%
X143169000Y-80195000D03*
X143169000Y-77195000D03*
X145443000Y-80195000D03*
X146205000Y-77195000D03*
X145455000Y-77195000D03*
X143943000Y-77195000D03*
X144693000Y-80195000D03*
X146205000Y-80195000D03*
X144693000Y-77195000D03*
X143943000Y-80195000D03*
%TD*%
D39*
%TO.C,GND1*%
X93588000Y14175000D03*
%TD*%
%TO.C,3V3*%
X88977000Y-97245000D03*
%TD*%
D42*
%TO.C,U20*%
X48032660Y-41123200D03*
X50034180Y-41123200D03*
X52033160Y-41123200D03*
X54034680Y-41123200D03*
X56033660Y-41123200D03*
X58032640Y-41123200D03*
X60034160Y-41123200D03*
X62033140Y-41123200D03*
X64034660Y-41123200D03*
X66033640Y-41123200D03*
X66033640Y-19126800D03*
X64034660Y-19126800D03*
X62033140Y-19126800D03*
X60034160Y-19126800D03*
X58032640Y-19126800D03*
X56033660Y-19126800D03*
X54034680Y-19126800D03*
X52033160Y-19126800D03*
X50034180Y-19126800D03*
X48032660Y-19126800D03*
%TD*%
D41*
%TO.C,H7*%
X39407000Y-19475000D03*
%TD*%
D10*
%TO.C,mouse-bite-3mm-slot*%
X51869000Y-80195000D03*
X51869000Y-77195000D03*
X54143000Y-80195000D03*
X54905000Y-77195000D03*
X54155000Y-77195000D03*
X52643000Y-77195000D03*
X53393000Y-80195000D03*
X54905000Y-80195000D03*
X53393000Y-77195000D03*
X52643000Y-80195000D03*
%TD*%
D24*
%TO.C,U12*%
X135303000Y27131000D03*
D40*
X135303000Y24591000D03*
X135303000Y22051000D03*
X135303000Y19511000D03*
X135303000Y16971000D03*
X135303000Y14431000D03*
X135303000Y11891000D03*
X142923000Y11891000D03*
X142923000Y14431000D03*
X142923000Y16971000D03*
X142923000Y19511000D03*
X142923000Y22051000D03*
X142923000Y24591000D03*
X142923000Y27131000D03*
%TD*%
D47*
%TO.C,U18*%
X52804107Y22611107D03*
X47724107Y22611107D03*
X40104107Y4831107D03*
X60424107Y4831107D03*
%TD*%
D34*
%TO.C,J8*%
X139215107Y-178577562D03*
X114215107Y-178577562D03*
D24*
X121175107Y-177157562D03*
D25*
X123945107Y-177157562D03*
X126715107Y-177157562D03*
X129485107Y-177157562D03*
X132255107Y-177157562D03*
X122560107Y-179997562D03*
X125330107Y-179997562D03*
X128100107Y-179997562D03*
X130870107Y-179997562D03*
%TD*%
D39*
%TO.C,+5V1*%
X84190000Y14175000D03*
%TD*%
%TO.C,-Vin1*%
X98287000Y14175000D03*
%TD*%
D12*
%TO.C,J40*%
X134439000Y-42005000D03*
%TD*%
%TO.C,J9*%
X109082000Y18250000D03*
D11*
X109082000Y15710000D03*
X109082000Y13170000D03*
%TD*%
D48*
%TO.C,SW1*%
X78375107Y-118137893D03*
X71875107Y-118137893D03*
X78375107Y-122637893D03*
X71875107Y-122637893D03*
%TD*%
D12*
%TO.C,J19*%
X134400000Y-153425000D03*
%TD*%
D24*
%TO.C,C27*%
X40065349Y-117795000D03*
D25*
X42565349Y-117795000D03*
%TD*%
D43*
%TO.C,J15*%
X111719562Y-121746562D03*
D44*
X109923511Y-119950511D03*
%TD*%
D24*
%TO.C,C57*%
X40104349Y-6375000D03*
D25*
X42604349Y-6375000D03*
%TD*%
D47*
%TO.C,U7*%
X52765107Y-88808893D03*
X47685107Y-88808893D03*
X40065107Y-106588893D03*
X60385107Y-106588893D03*
%TD*%
D12*
%TO.C,J44*%
X82757000Y-42540000D03*
D11*
X82757000Y-45080000D03*
%TD*%
D39*
%TO.C,GND*%
X93549000Y-97245000D03*
%TD*%
D12*
%TO.C,J1*%
X109043000Y-93170000D03*
D11*
X109043000Y-95710000D03*
X109043000Y-98250000D03*
%TD*%
D34*
%TO.C,J30*%
X139254107Y-67157562D03*
X114254107Y-67157562D03*
D24*
X121214107Y-65737562D03*
D25*
X123984107Y-65737562D03*
X126754107Y-65737562D03*
X129524107Y-65737562D03*
X132294107Y-65737562D03*
X122599107Y-68577562D03*
X125369107Y-68577562D03*
X128139107Y-68577562D03*
X130909107Y-68577562D03*
%TD*%
D34*
%TO.C,J28*%
X156538107Y-11131893D03*
X156538107Y-36131893D03*
D24*
X155118107Y-29171893D03*
D25*
X155118107Y-26401893D03*
X155118107Y-23631893D03*
X155118107Y-20861893D03*
X155118107Y-18091893D03*
X157958107Y-27786893D03*
X157958107Y-25016893D03*
X157958107Y-22246893D03*
X157958107Y-19476893D03*
%TD*%
D24*
%TO.C,C24*%
X70365349Y-90095000D03*
D25*
X72865349Y-90095000D03*
%TD*%
D12*
%TO.C,J37*%
X100700000Y24066000D03*
D11*
X100700000Y21526000D03*
X100700000Y18986000D03*
%TD*%
D41*
%TO.C,H8*%
X149087000Y24081000D03*
%TD*%
D48*
%TO.C,SW2*%
X71914107Y-6717893D03*
X78414107Y-6717893D03*
X71914107Y-11217893D03*
X78414107Y-11217893D03*
%TD*%
D12*
%TO.C,J24*%
X87357000Y-38000000D03*
D11*
X87357000Y-40540000D03*
X87357000Y-43080000D03*
X87357000Y-45620000D03*
X87357000Y-48160000D03*
%TD*%
D12*
%TO.C,J43*%
X139435000Y-55040000D03*
%TD*%
%TO.C,J23*%
X82718000Y-153960000D03*
D11*
X82718000Y-156500000D03*
%TD*%
D39*
%TO.C,+Vin1*%
X102986000Y14302000D03*
%TD*%
M02*
