%TF.GenerationSoftware,KiCad,Pcbnew,6.0.11-2627ca5db0~126~ubuntu20.04.1*%
%TF.CreationDate,2023-05-10T15:16:14+05:30*%
%TF.ProjectId,MVCU_COPY,4d564355-5f43-44f5-9059-2e6b69636164,rev?*%
%TF.SameCoordinates,Original*%
%TF.FileFunction,Drillmap*%
%TF.FilePolarity,Positive*%
%FSLAX45Y45*%
G04 Gerber Fmt 4.5, Leading zero omitted, Abs format (unit mm)*
G04 Created by KiCad (PCBNEW 6.0.11-2627ca5db0~126~ubuntu20.04.1) date 2023-05-10 15:16:14*
%MOMM*%
%LPD*%
G01*
G04 APERTURE LIST*
%ADD10C,0.050000*%
%ADD11C,0.120000*%
%ADD12C,0.200000*%
%ADD13C,0.320000*%
%ADD14C,0.650000*%
G04 APERTURE END LIST*
D10*
X16607500Y-18135000D02*
X16601800Y-18209500D01*
X16620000Y-12772500D02*
X16607500Y-17535000D01*
X16644700Y-8632300D02*
X16620000Y-12172500D01*
X16605700Y-7067500D02*
X16610000Y-6922500D01*
X16635000Y-1652500D02*
X16610000Y-6322500D01*
X16648600Y2509700D02*
X16635000Y-1052500D01*
X19122500Y-3427500D02*
X28979000Y-3432500D01*
X16914000Y-3432500D02*
X18522500Y-3427500D01*
X16907500Y-18135000D02*
X16914000Y-18863000D01*
X16920000Y-12772500D02*
X16907500Y-17535000D01*
X16910000Y-6922500D02*
X16920000Y-12172500D01*
X16914000Y-3432500D02*
X16910000Y-6322500D01*
X16935000Y-1052500D02*
X16934750Y1828000D01*
X19122500Y-3127500D02*
X20935750Y-3122500D01*
X16935250Y-3122500D02*
X16935000Y-1652500D01*
X18522500Y-3127500D02*
X16935250Y-3122500D01*
D11*
X19122500Y-3127500D02*
G75*
G03*
X19122500Y-3427500I0J-150000D01*
G01*
X18522500Y-3427500D02*
G75*
G03*
X18522500Y-3127500I0J150000D01*
G01*
X16635000Y-1052500D02*
G75*
G03*
X16935000Y-1052500I150000J0D01*
G01*
X16935000Y-1652500D02*
G75*
G03*
X16635000Y-1652500I-150000J0D01*
G01*
X16610000Y-6322500D02*
G75*
G03*
X16910000Y-6322500I150000J0D01*
G01*
X16910000Y-6922500D02*
G75*
G03*
X16610000Y-6922500I-150000J0D01*
G01*
X16620000Y-12172500D02*
G75*
G03*
X16920000Y-12172500I150000J0D01*
G01*
X16920000Y-12772500D02*
G75*
G03*
X16620000Y-12772500I-150000J0D01*
G01*
X16607500Y-17535000D02*
G75*
G03*
X16907500Y-17535000I150000J0D01*
G01*
X16907500Y-18135000D02*
G75*
G03*
X16607500Y-18135000I-150000J0D01*
G01*
D10*
X28979000Y-18863000D02*
X16914000Y-18863000D01*
X28979000Y-3432500D02*
X28979000Y-18863000D01*
X20935250Y1828000D02*
X20935750Y-3122500D01*
X16934750Y1828000D02*
X20935250Y1828000D01*
X16039000Y3119300D02*
X3974000Y3119300D01*
X14169300Y-7719500D02*
X10214300Y-7719500D01*
X14769300Y-7719500D02*
X15995700Y-7717500D01*
X5639300Y-8019500D02*
X9614300Y-8019500D01*
X9614300Y-7719500D02*
X5639300Y-7719500D01*
D11*
X14169300Y-8019500D02*
G75*
G03*
X14169300Y-7719500I0J150000D01*
G01*
D10*
X10214300Y-8019500D02*
X14169300Y-8019500D01*
D11*
X10214300Y-7719500D02*
G75*
G03*
X10214300Y-8019500I0J-150000D01*
G01*
D10*
X3970100Y-8022700D02*
G75*
G03*
X3360500Y-8632300I0J-609600D01*
G01*
X3365702Y-7067500D02*
G75*
G03*
X3965700Y-7707500I590368J-47780D01*
G01*
X15995700Y-7717499D02*
G75*
G03*
X16605700Y-7067500I-41310J649999D01*
G01*
X3970100Y-8022700D02*
X5039300Y-8015500D01*
X3361802Y-18209500D02*
G75*
G03*
X3961800Y-18849500I590368J-47780D01*
G01*
X3361800Y-18209500D02*
X3360500Y-8632300D01*
D11*
X5639300Y-7719500D02*
G75*
G03*
X5639300Y-8019500I0J-150000D01*
G01*
D10*
X16644700Y-8632300D02*
G75*
G03*
X16035100Y-8022700I-609600J0D01*
G01*
X14769300Y-8019500D02*
X16035100Y-8022700D01*
X16648600Y2509700D02*
G75*
G03*
X16039000Y3119300I-609600J0D01*
G01*
X5039300Y-7719500D02*
X3965700Y-7707500D01*
X3974000Y3119300D02*
G75*
G03*
X3364400Y2509700I0J-609600D01*
G01*
X15991800Y-18859500D02*
X3961800Y-18849500D01*
D11*
X14769300Y-7719500D02*
G75*
G03*
X14769300Y-8019500I0J-150000D01*
G01*
D10*
X15991800Y-18859499D02*
G75*
G03*
X16601800Y-18209500I-41310J649999D01*
G01*
X3365700Y-7067500D02*
X3364400Y2509700D01*
D11*
X5039300Y-8015500D02*
G75*
G03*
X5039300Y-7719500I0J148000D01*
G01*
X9614300Y-8019500D02*
G75*
G03*
X9614300Y-7719500I0J150000D01*
G01*
D12*
D10*
X5161900Y-7694500D02*
X5211900Y-7744500D01*
X5211900Y-7694500D02*
X5161900Y-7744500D01*
X5161900Y-7994500D02*
X5211900Y-8044500D01*
X5211900Y-7994500D02*
X5161900Y-8044500D01*
X5239300Y-7694500D02*
X5289300Y-7744500D01*
X5289300Y-7694500D02*
X5239300Y-7744500D01*
X5239300Y-7994500D02*
X5289300Y-8044500D01*
X5289300Y-7994500D02*
X5239300Y-8044500D01*
X5314300Y-7694500D02*
X5364300Y-7744500D01*
X5364300Y-7694500D02*
X5314300Y-7744500D01*
X5314300Y-7994500D02*
X5364300Y-8044500D01*
X5364300Y-7994500D02*
X5314300Y-8044500D01*
X5389300Y-7994500D02*
X5439300Y-8044500D01*
X5439300Y-7994500D02*
X5389300Y-8044500D01*
X5390500Y-7694500D02*
X5440500Y-7744500D01*
X5440500Y-7694500D02*
X5390500Y-7744500D01*
X5465500Y-7694500D02*
X5515500Y-7744500D01*
X5515500Y-7694500D02*
X5465500Y-7744500D01*
X5465500Y-7994500D02*
X5515500Y-8044500D01*
X5515500Y-7994500D02*
X5465500Y-8044500D01*
X9736900Y-7694500D02*
X9786900Y-7744500D01*
X9786900Y-7694500D02*
X9736900Y-7744500D01*
X9736900Y-7994500D02*
X9786900Y-8044500D01*
X9786900Y-7994500D02*
X9736900Y-8044500D01*
X9814300Y-7694500D02*
X9864300Y-7744500D01*
X9864300Y-7694500D02*
X9814300Y-7744500D01*
X9814300Y-7994500D02*
X9864300Y-8044500D01*
X9864300Y-7994500D02*
X9814300Y-8044500D01*
X9889300Y-7694500D02*
X9939300Y-7744500D01*
X9939300Y-7694500D02*
X9889300Y-7744500D01*
X9889300Y-7994500D02*
X9939300Y-8044500D01*
X9939300Y-7994500D02*
X9889300Y-8044500D01*
X9964300Y-7994500D02*
X10014300Y-8044500D01*
X10014300Y-7994500D02*
X9964300Y-8044500D01*
X9965500Y-7694500D02*
X10015500Y-7744500D01*
X10015500Y-7694500D02*
X9965500Y-7744500D01*
X10040500Y-7694500D02*
X10090500Y-7744500D01*
X10090500Y-7694500D02*
X10040500Y-7744500D01*
X10040500Y-7994500D02*
X10090500Y-8044500D01*
X10090500Y-7994500D02*
X10040500Y-8044500D01*
X14291900Y-7694500D02*
X14341900Y-7744500D01*
X14341900Y-7694500D02*
X14291900Y-7744500D01*
X14291900Y-7994500D02*
X14341900Y-8044500D01*
X14341900Y-7994500D02*
X14291900Y-8044500D01*
X14369300Y-7694500D02*
X14419300Y-7744500D01*
X14419300Y-7694500D02*
X14369300Y-7744500D01*
X14369300Y-7994500D02*
X14419300Y-8044500D01*
X14419300Y-7994500D02*
X14369300Y-8044500D01*
X14444300Y-7694500D02*
X14494300Y-7744500D01*
X14494300Y-7694500D02*
X14444300Y-7744500D01*
X14444300Y-7994500D02*
X14494300Y-8044500D01*
X14494300Y-7994500D02*
X14444300Y-8044500D01*
X14519300Y-7994500D02*
X14569300Y-8044500D01*
X14569300Y-7994500D02*
X14519300Y-8044500D01*
X14520500Y-7694500D02*
X14570500Y-7744500D01*
X14570500Y-7694500D02*
X14520500Y-7744500D01*
X14595500Y-7694500D02*
X14645500Y-7744500D01*
X14645500Y-7694500D02*
X14595500Y-7744500D01*
X14595500Y-7994500D02*
X14645500Y-8044500D01*
X14645500Y-7994500D02*
X14595500Y-8044500D01*
X16582500Y-17658800D02*
X16632500Y-17708800D01*
X16632500Y-17658800D02*
X16582500Y-17708800D01*
X16582500Y-17733800D02*
X16632500Y-17783800D01*
X16632500Y-17733800D02*
X16582500Y-17783800D01*
X16582500Y-17810000D02*
X16632500Y-17860000D01*
X16632500Y-17810000D02*
X16582500Y-17860000D01*
X16582500Y-17885000D02*
X16632500Y-17935000D01*
X16632500Y-17885000D02*
X16582500Y-17935000D01*
X16582500Y-17962400D02*
X16632500Y-18012400D01*
X16632500Y-17962400D02*
X16582500Y-18012400D01*
X16585000Y-6446300D02*
X16635000Y-6496300D01*
X16635000Y-6446300D02*
X16585000Y-6496300D01*
X16585000Y-6521300D02*
X16635000Y-6571300D01*
X16635000Y-6521300D02*
X16585000Y-6571300D01*
X16585000Y-6597500D02*
X16635000Y-6647500D01*
X16635000Y-6597500D02*
X16585000Y-6647500D01*
X16585000Y-6672500D02*
X16635000Y-6722500D01*
X16635000Y-6672500D02*
X16585000Y-6722500D01*
X16585000Y-6749900D02*
X16635000Y-6799900D01*
X16635000Y-6749900D02*
X16585000Y-6799900D01*
X16595000Y-12296300D02*
X16645000Y-12346300D01*
X16645000Y-12296300D02*
X16595000Y-12346300D01*
X16595000Y-12371300D02*
X16645000Y-12421300D01*
X16645000Y-12371300D02*
X16595000Y-12421300D01*
X16595000Y-12447500D02*
X16645000Y-12497500D01*
X16645000Y-12447500D02*
X16595000Y-12497500D01*
X16595000Y-12522500D02*
X16645000Y-12572500D01*
X16645000Y-12522500D02*
X16595000Y-12572500D01*
X16595000Y-12599900D02*
X16645000Y-12649900D01*
X16645000Y-12599900D02*
X16595000Y-12649900D01*
X16610000Y-1176300D02*
X16660000Y-1226300D01*
X16660000Y-1176300D02*
X16610000Y-1226300D01*
X16610000Y-1251300D02*
X16660000Y-1301300D01*
X16660000Y-1251300D02*
X16610000Y-1301300D01*
X16610000Y-1327500D02*
X16660000Y-1377500D01*
X16660000Y-1327500D02*
X16610000Y-1377500D01*
X16610000Y-1402500D02*
X16660000Y-1452500D01*
X16660000Y-1402500D02*
X16610000Y-1452500D01*
X16610000Y-1479900D02*
X16660000Y-1529900D01*
X16660000Y-1479900D02*
X16610000Y-1529900D01*
X16882500Y-17658800D02*
X16932500Y-17708800D01*
X16932500Y-17658800D02*
X16882500Y-17708800D01*
X16882500Y-17735000D02*
X16932500Y-17785000D01*
X16932500Y-17735000D02*
X16882500Y-17785000D01*
X16882500Y-17810000D02*
X16932500Y-17860000D01*
X16932500Y-17810000D02*
X16882500Y-17860000D01*
X16882500Y-17885000D02*
X16932500Y-17935000D01*
X16932500Y-17885000D02*
X16882500Y-17935000D01*
X16882500Y-17962400D02*
X16932500Y-18012400D01*
X16932500Y-17962400D02*
X16882500Y-18012400D01*
X16885000Y-6446300D02*
X16935000Y-6496300D01*
X16935000Y-6446300D02*
X16885000Y-6496300D01*
X16885000Y-6522500D02*
X16935000Y-6572500D01*
X16935000Y-6522500D02*
X16885000Y-6572500D01*
X16885000Y-6597500D02*
X16935000Y-6647500D01*
X16935000Y-6597500D02*
X16885000Y-6647500D01*
X16885000Y-6672500D02*
X16935000Y-6722500D01*
X16935000Y-6672500D02*
X16885000Y-6722500D01*
X16885000Y-6749900D02*
X16935000Y-6799900D01*
X16935000Y-6749900D02*
X16885000Y-6799900D01*
X16895000Y-12296300D02*
X16945000Y-12346300D01*
X16945000Y-12296300D02*
X16895000Y-12346300D01*
X16895000Y-12372500D02*
X16945000Y-12422500D01*
X16945000Y-12372500D02*
X16895000Y-12422500D01*
X16895000Y-12447500D02*
X16945000Y-12497500D01*
X16945000Y-12447500D02*
X16895000Y-12497500D01*
X16895000Y-12522500D02*
X16945000Y-12572500D01*
X16945000Y-12522500D02*
X16895000Y-12572500D01*
X16895000Y-12599900D02*
X16945000Y-12649900D01*
X16945000Y-12599900D02*
X16895000Y-12649900D01*
X16910000Y-1176300D02*
X16960000Y-1226300D01*
X16960000Y-1176300D02*
X16910000Y-1226300D01*
X16910000Y-1252500D02*
X16960000Y-1302500D01*
X16960000Y-1252500D02*
X16910000Y-1302500D01*
X16910000Y-1327500D02*
X16960000Y-1377500D01*
X16960000Y-1327500D02*
X16910000Y-1377500D01*
X16910000Y-1402500D02*
X16960000Y-1452500D01*
X16960000Y-1402500D02*
X16910000Y-1452500D01*
X16910000Y-1479900D02*
X16960000Y-1529900D01*
X16960000Y-1479900D02*
X16910000Y-1529900D01*
X18645100Y-3102500D02*
X18695100Y-3152500D01*
X18695100Y-3102500D02*
X18645100Y-3152500D01*
X18645100Y-3402500D02*
X18695100Y-3452500D01*
X18695100Y-3402500D02*
X18645100Y-3452500D01*
X18722500Y-3102500D02*
X18772500Y-3152500D01*
X18772500Y-3102500D02*
X18722500Y-3152500D01*
X18722500Y-3402500D02*
X18772500Y-3452500D01*
X18772500Y-3402500D02*
X18722500Y-3452500D01*
X18797500Y-3102500D02*
X18847500Y-3152500D01*
X18847500Y-3102500D02*
X18797500Y-3152500D01*
X18797500Y-3402500D02*
X18847500Y-3452500D01*
X18847500Y-3402500D02*
X18797500Y-3452500D01*
X18872500Y-3402500D02*
X18922500Y-3452500D01*
X18922500Y-3402500D02*
X18872500Y-3452500D01*
X18873700Y-3102500D02*
X18923700Y-3152500D01*
X18923700Y-3102500D02*
X18873700Y-3152500D01*
X18948700Y-3102500D02*
X18998700Y-3152500D01*
X18998700Y-3102500D02*
X18948700Y-3152500D01*
X18948700Y-3402500D02*
X18998700Y-3452500D01*
X18998700Y-3402500D02*
X18948700Y-3452500D01*
D13*
X17455000Y-3813500D02*
G75*
G03*
X17455000Y-3813500I-160000J0D01*
G01*
X17455000Y-17720000D02*
G75*
G03*
X17455000Y-17720000I-160000J0D01*
G01*
X28694500Y-18482000D02*
G75*
G03*
X28694500Y-18482000I-160000J0D01*
G01*
X28758000Y-3813500D02*
G75*
G03*
X28758000Y-3813500I-160000J0D01*
G01*
D14*
X19916030Y-4095000D02*
X19916030Y-4745000D01*
X19591030Y-4420000D02*
X20241030Y-4420000D01*
X19916030Y-13495000D02*
X19916030Y-14145000D01*
X19591030Y-13820000D02*
X20241030Y-13820000D01*
X24516030Y-4095000D02*
X24516030Y-4745000D01*
X24191030Y-4420000D02*
X24841030Y-4420000D01*
X24516030Y-13495000D02*
X24516030Y-14145000D01*
X24191030Y-13820000D02*
X24841030Y-13820000D01*
D12*
X3614991Y-19175976D02*
X3614991Y-18975976D01*
X3662610Y-18975976D01*
X3691181Y-18985500D01*
X3710229Y-19004548D01*
X3719753Y-19023595D01*
X3729276Y-19061690D01*
X3729276Y-19090262D01*
X3719753Y-19128357D01*
X3710229Y-19147405D01*
X3691181Y-19166452D01*
X3662610Y-19175976D01*
X3614991Y-19175976D01*
X3814991Y-19175976D02*
X3814991Y-19042643D01*
X3814991Y-19080738D02*
X3824514Y-19061690D01*
X3834038Y-19052167D01*
X3853086Y-19042643D01*
X3872134Y-19042643D01*
X3938800Y-19175976D02*
X3938800Y-19042643D01*
X3938800Y-18975976D02*
X3929276Y-18985500D01*
X3938800Y-18995024D01*
X3948324Y-18985500D01*
X3938800Y-18975976D01*
X3938800Y-18995024D01*
X4062610Y-19175976D02*
X4043562Y-19166452D01*
X4034038Y-19147405D01*
X4034038Y-18975976D01*
X4167372Y-19175976D02*
X4148324Y-19166452D01*
X4138800Y-19147405D01*
X4138800Y-18975976D01*
X4395943Y-19175976D02*
X4395943Y-18975976D01*
X4462610Y-19118833D01*
X4529276Y-18975976D01*
X4529276Y-19175976D01*
X4710229Y-19175976D02*
X4710229Y-19071214D01*
X4700705Y-19052167D01*
X4681657Y-19042643D01*
X4643562Y-19042643D01*
X4624515Y-19052167D01*
X4710229Y-19166452D02*
X4691181Y-19175976D01*
X4643562Y-19175976D01*
X4624515Y-19166452D01*
X4614991Y-19147405D01*
X4614991Y-19128357D01*
X4624515Y-19109310D01*
X4643562Y-19099786D01*
X4691181Y-19099786D01*
X4710229Y-19090262D01*
X4805467Y-19042643D02*
X4805467Y-19242643D01*
X4805467Y-19052167D02*
X4824515Y-19042643D01*
X4862610Y-19042643D01*
X4881657Y-19052167D01*
X4891181Y-19061690D01*
X4900705Y-19080738D01*
X4900705Y-19137881D01*
X4891181Y-19156929D01*
X4881657Y-19166452D01*
X4862610Y-19175976D01*
X4824515Y-19175976D01*
X4805467Y-19166452D01*
X4986419Y-19156929D02*
X4995943Y-19166452D01*
X4986419Y-19175976D01*
X4976896Y-19166452D01*
X4986419Y-19156929D01*
X4986419Y-19175976D01*
X4986419Y-19052167D02*
X4995943Y-19061690D01*
X4986419Y-19071214D01*
X4976896Y-19061690D01*
X4986419Y-19052167D01*
X4986419Y-19071214D01*
D10*
X3307372Y-19480500D02*
X3357372Y-19530500D01*
X3357372Y-19480500D02*
X3307372Y-19530500D01*
D12*
X3653086Y-19395976D02*
X3672134Y-19395976D01*
X3691181Y-19405500D01*
X3700705Y-19415024D01*
X3710229Y-19434071D01*
X3719753Y-19472167D01*
X3719753Y-19519786D01*
X3710229Y-19557881D01*
X3700705Y-19576929D01*
X3691181Y-19586452D01*
X3672134Y-19595976D01*
X3653086Y-19595976D01*
X3634038Y-19586452D01*
X3624514Y-19576929D01*
X3614991Y-19557881D01*
X3605467Y-19519786D01*
X3605467Y-19472167D01*
X3614991Y-19434071D01*
X3624514Y-19415024D01*
X3634038Y-19405500D01*
X3653086Y-19395976D01*
X3805467Y-19576929D02*
X3814991Y-19586452D01*
X3805467Y-19595976D01*
X3795943Y-19586452D01*
X3805467Y-19576929D01*
X3805467Y-19595976D01*
X3995943Y-19395976D02*
X3900705Y-19395976D01*
X3891181Y-19491214D01*
X3900705Y-19481690D01*
X3919753Y-19472167D01*
X3967372Y-19472167D01*
X3986419Y-19481690D01*
X3995943Y-19491214D01*
X4005467Y-19510262D01*
X4005467Y-19557881D01*
X3995943Y-19576929D01*
X3986419Y-19586452D01*
X3967372Y-19595976D01*
X3919753Y-19595976D01*
X3900705Y-19586452D01*
X3891181Y-19576929D01*
X4129276Y-19395976D02*
X4148324Y-19395976D01*
X4167372Y-19405500D01*
X4176895Y-19415024D01*
X4186419Y-19434071D01*
X4195943Y-19472167D01*
X4195943Y-19519786D01*
X4186419Y-19557881D01*
X4176895Y-19576929D01*
X4167372Y-19586452D01*
X4148324Y-19595976D01*
X4129276Y-19595976D01*
X4110229Y-19586452D01*
X4100705Y-19576929D01*
X4091181Y-19557881D01*
X4081657Y-19519786D01*
X4081657Y-19472167D01*
X4091181Y-19434071D01*
X4100705Y-19415024D01*
X4110229Y-19405500D01*
X4129276Y-19395976D01*
X4319753Y-19395976D02*
X4338800Y-19395976D01*
X4357848Y-19405500D01*
X4367372Y-19415024D01*
X4376896Y-19434071D01*
X4386419Y-19472167D01*
X4386419Y-19519786D01*
X4376896Y-19557881D01*
X4367372Y-19576929D01*
X4357848Y-19586452D01*
X4338800Y-19595976D01*
X4319753Y-19595976D01*
X4300705Y-19586452D01*
X4291181Y-19576929D01*
X4281657Y-19557881D01*
X4272134Y-19519786D01*
X4272134Y-19472167D01*
X4281657Y-19434071D01*
X4291181Y-19415024D01*
X4300705Y-19405500D01*
X4319753Y-19395976D01*
X4472134Y-19595976D02*
X4472134Y-19462643D01*
X4472134Y-19481690D02*
X4481657Y-19472167D01*
X4500705Y-19462643D01*
X4529276Y-19462643D01*
X4548324Y-19472167D01*
X4557848Y-19491214D01*
X4557848Y-19595976D01*
X4557848Y-19491214D02*
X4567372Y-19472167D01*
X4586419Y-19462643D01*
X4614991Y-19462643D01*
X4634038Y-19472167D01*
X4643562Y-19491214D01*
X4643562Y-19595976D01*
X4738800Y-19595976D02*
X4738800Y-19462643D01*
X4738800Y-19481690D02*
X4748324Y-19472167D01*
X4767372Y-19462643D01*
X4795943Y-19462643D01*
X4814991Y-19472167D01*
X4824515Y-19491214D01*
X4824515Y-19595976D01*
X4824515Y-19491214D02*
X4834038Y-19472167D01*
X4853086Y-19462643D01*
X4881657Y-19462643D01*
X4900705Y-19472167D01*
X4910229Y-19491214D01*
X4910229Y-19595976D01*
X5300705Y-19386452D02*
X5129276Y-19643595D01*
X5557848Y-19395976D02*
X5576896Y-19395976D01*
X5595943Y-19405500D01*
X5605467Y-19415024D01*
X5614991Y-19434071D01*
X5624514Y-19472167D01*
X5624514Y-19519786D01*
X5614991Y-19557881D01*
X5605467Y-19576929D01*
X5595943Y-19586452D01*
X5576896Y-19595976D01*
X5557848Y-19595976D01*
X5538800Y-19586452D01*
X5529276Y-19576929D01*
X5519753Y-19557881D01*
X5510229Y-19519786D01*
X5510229Y-19472167D01*
X5519753Y-19434071D01*
X5529276Y-19415024D01*
X5538800Y-19405500D01*
X5557848Y-19395976D01*
X5710229Y-19576929D02*
X5719753Y-19586452D01*
X5710229Y-19595976D01*
X5700705Y-19586452D01*
X5710229Y-19576929D01*
X5710229Y-19595976D01*
X5843562Y-19395976D02*
X5862610Y-19395976D01*
X5881657Y-19405500D01*
X5891181Y-19415024D01*
X5900705Y-19434071D01*
X5910229Y-19472167D01*
X5910229Y-19519786D01*
X5900705Y-19557881D01*
X5891181Y-19576929D01*
X5881657Y-19586452D01*
X5862610Y-19595976D01*
X5843562Y-19595976D01*
X5824514Y-19586452D01*
X5814991Y-19576929D01*
X5805467Y-19557881D01*
X5795943Y-19519786D01*
X5795943Y-19472167D01*
X5805467Y-19434071D01*
X5814991Y-19415024D01*
X5824514Y-19405500D01*
X5843562Y-19395976D01*
X6100705Y-19595976D02*
X5986419Y-19595976D01*
X6043562Y-19595976D02*
X6043562Y-19395976D01*
X6024514Y-19424548D01*
X6005467Y-19443595D01*
X5986419Y-19453119D01*
X6195943Y-19595976D02*
X6234038Y-19595976D01*
X6253086Y-19586452D01*
X6262610Y-19576929D01*
X6281657Y-19548357D01*
X6291181Y-19510262D01*
X6291181Y-19434071D01*
X6281657Y-19415024D01*
X6272134Y-19405500D01*
X6253086Y-19395976D01*
X6214991Y-19395976D01*
X6195943Y-19405500D01*
X6186419Y-19415024D01*
X6176895Y-19434071D01*
X6176895Y-19481690D01*
X6186419Y-19500738D01*
X6195943Y-19510262D01*
X6214991Y-19519786D01*
X6253086Y-19519786D01*
X6272134Y-19510262D01*
X6281657Y-19500738D01*
X6291181Y-19481690D01*
X6357848Y-19395976D02*
X6491181Y-19395976D01*
X6405467Y-19595976D01*
X6557848Y-19395976D02*
X6557848Y-19434071D01*
X6634038Y-19395976D02*
X6634038Y-19434071D01*
X6929276Y-19672167D02*
X6919753Y-19662643D01*
X6900705Y-19634071D01*
X6891181Y-19615024D01*
X6881657Y-19586452D01*
X6872134Y-19538833D01*
X6872134Y-19500738D01*
X6881657Y-19453119D01*
X6891181Y-19424548D01*
X6900705Y-19405500D01*
X6919753Y-19376929D01*
X6929276Y-19367405D01*
X7034038Y-19481690D02*
X7014991Y-19472167D01*
X7005467Y-19462643D01*
X6995943Y-19443595D01*
X6995943Y-19434071D01*
X7005467Y-19415024D01*
X7014991Y-19405500D01*
X7034038Y-19395976D01*
X7072134Y-19395976D01*
X7091181Y-19405500D01*
X7100705Y-19415024D01*
X7110229Y-19434071D01*
X7110229Y-19443595D01*
X7100705Y-19462643D01*
X7091181Y-19472167D01*
X7072134Y-19481690D01*
X7034038Y-19481690D01*
X7014991Y-19491214D01*
X7005467Y-19500738D01*
X6995943Y-19519786D01*
X6995943Y-19557881D01*
X7005467Y-19576929D01*
X7014991Y-19586452D01*
X7034038Y-19595976D01*
X7072134Y-19595976D01*
X7091181Y-19586452D01*
X7100705Y-19576929D01*
X7110229Y-19557881D01*
X7110229Y-19519786D01*
X7100705Y-19500738D01*
X7091181Y-19491214D01*
X7072134Y-19481690D01*
X7234038Y-19395976D02*
X7253086Y-19395976D01*
X7272134Y-19405500D01*
X7281657Y-19415024D01*
X7291181Y-19434071D01*
X7300705Y-19472167D01*
X7300705Y-19519786D01*
X7291181Y-19557881D01*
X7281657Y-19576929D01*
X7272134Y-19586452D01*
X7253086Y-19595976D01*
X7234038Y-19595976D01*
X7214991Y-19586452D01*
X7205467Y-19576929D01*
X7195943Y-19557881D01*
X7186419Y-19519786D01*
X7186419Y-19472167D01*
X7195943Y-19434071D01*
X7205467Y-19415024D01*
X7214991Y-19405500D01*
X7234038Y-19395976D01*
X7538800Y-19595976D02*
X7538800Y-19395976D01*
X7624514Y-19595976D02*
X7624514Y-19491214D01*
X7614991Y-19472167D01*
X7595943Y-19462643D01*
X7567372Y-19462643D01*
X7548324Y-19472167D01*
X7538800Y-19481690D01*
X7748324Y-19595976D02*
X7729276Y-19586452D01*
X7719753Y-19576929D01*
X7710229Y-19557881D01*
X7710229Y-19500738D01*
X7719753Y-19481690D01*
X7729276Y-19472167D01*
X7748324Y-19462643D01*
X7776895Y-19462643D01*
X7795943Y-19472167D01*
X7805467Y-19481690D01*
X7814991Y-19500738D01*
X7814991Y-19557881D01*
X7805467Y-19576929D01*
X7795943Y-19586452D01*
X7776895Y-19595976D01*
X7748324Y-19595976D01*
X7929276Y-19595976D02*
X7910229Y-19586452D01*
X7900705Y-19567405D01*
X7900705Y-19395976D01*
X8081657Y-19586452D02*
X8062610Y-19595976D01*
X8024514Y-19595976D01*
X8005467Y-19586452D01*
X7995943Y-19567405D01*
X7995943Y-19491214D01*
X8005467Y-19472167D01*
X8024514Y-19462643D01*
X8062610Y-19462643D01*
X8081657Y-19472167D01*
X8091181Y-19491214D01*
X8091181Y-19510262D01*
X7995943Y-19529310D01*
X8167372Y-19586452D02*
X8186419Y-19595976D01*
X8224514Y-19595976D01*
X8243562Y-19586452D01*
X8253086Y-19567405D01*
X8253086Y-19557881D01*
X8243562Y-19538833D01*
X8224514Y-19529310D01*
X8195943Y-19529310D01*
X8176895Y-19519786D01*
X8167372Y-19500738D01*
X8167372Y-19491214D01*
X8176895Y-19472167D01*
X8195943Y-19462643D01*
X8224514Y-19462643D01*
X8243562Y-19472167D01*
X8319753Y-19672167D02*
X8329276Y-19662643D01*
X8348324Y-19634071D01*
X8357848Y-19615024D01*
X8367372Y-19586452D01*
X8376895Y-19538833D01*
X8376895Y-19500738D01*
X8367372Y-19453119D01*
X8357848Y-19424548D01*
X8348324Y-19405500D01*
X8329276Y-19376929D01*
X8319753Y-19367405D01*
X8681657Y-19672167D02*
X8672134Y-19662643D01*
X8653086Y-19634071D01*
X8643562Y-19615024D01*
X8634038Y-19586452D01*
X8624515Y-19538833D01*
X8624515Y-19500738D01*
X8634038Y-19453119D01*
X8643562Y-19424548D01*
X8653086Y-19405500D01*
X8672134Y-19376929D01*
X8681657Y-19367405D01*
X8757848Y-19462643D02*
X8757848Y-19595976D01*
X8757848Y-19481690D02*
X8767372Y-19472167D01*
X8786419Y-19462643D01*
X8814991Y-19462643D01*
X8834038Y-19472167D01*
X8843562Y-19491214D01*
X8843562Y-19595976D01*
X8967372Y-19595976D02*
X8948324Y-19586452D01*
X8938800Y-19576929D01*
X8929276Y-19557881D01*
X8929276Y-19500738D01*
X8938800Y-19481690D01*
X8948324Y-19472167D01*
X8967372Y-19462643D01*
X8995943Y-19462643D01*
X9014991Y-19472167D01*
X9024515Y-19481690D01*
X9034038Y-19500738D01*
X9034038Y-19557881D01*
X9024515Y-19576929D01*
X9014991Y-19586452D01*
X8995943Y-19595976D01*
X8967372Y-19595976D01*
X9091181Y-19462643D02*
X9167372Y-19462643D01*
X9119753Y-19395976D02*
X9119753Y-19567405D01*
X9129276Y-19586452D01*
X9148324Y-19595976D01*
X9167372Y-19595976D01*
X9386419Y-19462643D02*
X9386419Y-19662643D01*
X9386419Y-19472167D02*
X9405467Y-19462643D01*
X9443562Y-19462643D01*
X9462610Y-19472167D01*
X9472134Y-19481690D01*
X9481657Y-19500738D01*
X9481657Y-19557881D01*
X9472134Y-19576929D01*
X9462610Y-19586452D01*
X9443562Y-19595976D01*
X9405467Y-19595976D01*
X9386419Y-19586452D01*
X9595943Y-19595976D02*
X9576896Y-19586452D01*
X9567372Y-19567405D01*
X9567372Y-19395976D01*
X9757848Y-19595976D02*
X9757848Y-19491214D01*
X9748324Y-19472167D01*
X9729276Y-19462643D01*
X9691181Y-19462643D01*
X9672134Y-19472167D01*
X9757848Y-19586452D02*
X9738800Y-19595976D01*
X9691181Y-19595976D01*
X9672134Y-19586452D01*
X9662610Y-19567405D01*
X9662610Y-19548357D01*
X9672134Y-19529310D01*
X9691181Y-19519786D01*
X9738800Y-19519786D01*
X9757848Y-19510262D01*
X9824515Y-19462643D02*
X9900705Y-19462643D01*
X9853086Y-19395976D02*
X9853086Y-19567405D01*
X9862610Y-19586452D01*
X9881657Y-19595976D01*
X9900705Y-19595976D01*
X10043562Y-19586452D02*
X10024515Y-19595976D01*
X9986419Y-19595976D01*
X9967372Y-19586452D01*
X9957848Y-19567405D01*
X9957848Y-19491214D01*
X9967372Y-19472167D01*
X9986419Y-19462643D01*
X10024515Y-19462643D01*
X10043562Y-19472167D01*
X10053086Y-19491214D01*
X10053086Y-19510262D01*
X9957848Y-19529310D01*
X10224515Y-19595976D02*
X10224515Y-19395976D01*
X10224515Y-19586452D02*
X10205467Y-19595976D01*
X10167372Y-19595976D01*
X10148324Y-19586452D01*
X10138800Y-19576929D01*
X10129276Y-19557881D01*
X10129276Y-19500738D01*
X10138800Y-19481690D01*
X10148324Y-19472167D01*
X10167372Y-19462643D01*
X10205467Y-19462643D01*
X10224515Y-19472167D01*
X10300705Y-19672167D02*
X10310229Y-19662643D01*
X10329276Y-19634071D01*
X10338800Y-19615024D01*
X10348324Y-19586452D01*
X10357848Y-19538833D01*
X10357848Y-19500738D01*
X10348324Y-19453119D01*
X10338800Y-19424548D01*
X10329276Y-19405500D01*
X10310229Y-19376929D01*
X10300705Y-19367405D01*
X3357372Y-19769500D02*
G75*
G03*
X3357372Y-19769500I-100000J0D01*
G01*
X3595943Y-19659976D02*
X3719753Y-19659976D01*
X3653086Y-19736167D01*
X3681657Y-19736167D01*
X3700705Y-19745690D01*
X3710229Y-19755214D01*
X3719753Y-19774262D01*
X3719753Y-19821881D01*
X3710229Y-19840929D01*
X3700705Y-19850452D01*
X3681657Y-19859976D01*
X3624514Y-19859976D01*
X3605467Y-19850452D01*
X3595943Y-19840929D01*
X3805467Y-19840929D02*
X3814991Y-19850452D01*
X3805467Y-19859976D01*
X3795943Y-19850452D01*
X3805467Y-19840929D01*
X3805467Y-19859976D01*
X3891181Y-19679024D02*
X3900705Y-19669500D01*
X3919753Y-19659976D01*
X3967372Y-19659976D01*
X3986419Y-19669500D01*
X3995943Y-19679024D01*
X4005467Y-19698071D01*
X4005467Y-19717119D01*
X3995943Y-19745690D01*
X3881657Y-19859976D01*
X4005467Y-19859976D01*
X4129276Y-19659976D02*
X4148324Y-19659976D01*
X4167372Y-19669500D01*
X4176895Y-19679024D01*
X4186419Y-19698071D01*
X4195943Y-19736167D01*
X4195943Y-19783786D01*
X4186419Y-19821881D01*
X4176895Y-19840929D01*
X4167372Y-19850452D01*
X4148324Y-19859976D01*
X4129276Y-19859976D01*
X4110229Y-19850452D01*
X4100705Y-19840929D01*
X4091181Y-19821881D01*
X4081657Y-19783786D01*
X4081657Y-19736167D01*
X4091181Y-19698071D01*
X4100705Y-19679024D01*
X4110229Y-19669500D01*
X4129276Y-19659976D01*
X4319753Y-19659976D02*
X4338800Y-19659976D01*
X4357848Y-19669500D01*
X4367372Y-19679024D01*
X4376896Y-19698071D01*
X4386419Y-19736167D01*
X4386419Y-19783786D01*
X4376896Y-19821881D01*
X4367372Y-19840929D01*
X4357848Y-19850452D01*
X4338800Y-19859976D01*
X4319753Y-19859976D01*
X4300705Y-19850452D01*
X4291181Y-19840929D01*
X4281657Y-19821881D01*
X4272134Y-19783786D01*
X4272134Y-19736167D01*
X4281657Y-19698071D01*
X4291181Y-19679024D01*
X4300705Y-19669500D01*
X4319753Y-19659976D01*
X4472134Y-19859976D02*
X4472134Y-19726643D01*
X4472134Y-19745690D02*
X4481657Y-19736167D01*
X4500705Y-19726643D01*
X4529276Y-19726643D01*
X4548324Y-19736167D01*
X4557848Y-19755214D01*
X4557848Y-19859976D01*
X4557848Y-19755214D02*
X4567372Y-19736167D01*
X4586419Y-19726643D01*
X4614991Y-19726643D01*
X4634038Y-19736167D01*
X4643562Y-19755214D01*
X4643562Y-19859976D01*
X4738800Y-19859976D02*
X4738800Y-19726643D01*
X4738800Y-19745690D02*
X4748324Y-19736167D01*
X4767372Y-19726643D01*
X4795943Y-19726643D01*
X4814991Y-19736167D01*
X4824515Y-19755214D01*
X4824515Y-19859976D01*
X4824515Y-19755214D02*
X4834038Y-19736167D01*
X4853086Y-19726643D01*
X4881657Y-19726643D01*
X4900705Y-19736167D01*
X4910229Y-19755214D01*
X4910229Y-19859976D01*
X5300705Y-19650452D02*
X5129276Y-19907595D01*
X5557848Y-19659976D02*
X5576896Y-19659976D01*
X5595943Y-19669500D01*
X5605467Y-19679024D01*
X5614991Y-19698071D01*
X5624514Y-19736167D01*
X5624514Y-19783786D01*
X5614991Y-19821881D01*
X5605467Y-19840929D01*
X5595943Y-19850452D01*
X5576896Y-19859976D01*
X5557848Y-19859976D01*
X5538800Y-19850452D01*
X5529276Y-19840929D01*
X5519753Y-19821881D01*
X5510229Y-19783786D01*
X5510229Y-19736167D01*
X5519753Y-19698071D01*
X5529276Y-19679024D01*
X5538800Y-19669500D01*
X5557848Y-19659976D01*
X5710229Y-19840929D02*
X5719753Y-19850452D01*
X5710229Y-19859976D01*
X5700705Y-19850452D01*
X5710229Y-19840929D01*
X5710229Y-19859976D01*
X5910229Y-19859976D02*
X5795943Y-19859976D01*
X5853086Y-19859976D02*
X5853086Y-19659976D01*
X5834038Y-19688548D01*
X5814991Y-19707595D01*
X5795943Y-19717119D01*
X5986419Y-19679024D02*
X5995943Y-19669500D01*
X6014991Y-19659976D01*
X6062610Y-19659976D01*
X6081657Y-19669500D01*
X6091181Y-19679024D01*
X6100705Y-19698071D01*
X6100705Y-19717119D01*
X6091181Y-19745690D01*
X5976895Y-19859976D01*
X6100705Y-19859976D01*
X6272134Y-19659976D02*
X6234038Y-19659976D01*
X6214991Y-19669500D01*
X6205467Y-19679024D01*
X6186419Y-19707595D01*
X6176895Y-19745690D01*
X6176895Y-19821881D01*
X6186419Y-19840929D01*
X6195943Y-19850452D01*
X6214991Y-19859976D01*
X6253086Y-19859976D01*
X6272134Y-19850452D01*
X6281657Y-19840929D01*
X6291181Y-19821881D01*
X6291181Y-19774262D01*
X6281657Y-19755214D01*
X6272134Y-19745690D01*
X6253086Y-19736167D01*
X6214991Y-19736167D01*
X6195943Y-19745690D01*
X6186419Y-19755214D01*
X6176895Y-19774262D01*
X6414991Y-19659976D02*
X6434038Y-19659976D01*
X6453086Y-19669500D01*
X6462610Y-19679024D01*
X6472134Y-19698071D01*
X6481657Y-19736167D01*
X6481657Y-19783786D01*
X6472134Y-19821881D01*
X6462610Y-19840929D01*
X6453086Y-19850452D01*
X6434038Y-19859976D01*
X6414991Y-19859976D01*
X6395943Y-19850452D01*
X6386419Y-19840929D01*
X6376895Y-19821881D01*
X6367372Y-19783786D01*
X6367372Y-19736167D01*
X6376895Y-19698071D01*
X6386419Y-19679024D01*
X6395943Y-19669500D01*
X6414991Y-19659976D01*
X6557848Y-19659976D02*
X6557848Y-19698071D01*
X6634038Y-19659976D02*
X6634038Y-19698071D01*
X6929276Y-19936167D02*
X6919753Y-19926643D01*
X6900705Y-19898071D01*
X6891181Y-19879024D01*
X6881657Y-19850452D01*
X6872134Y-19802833D01*
X6872134Y-19764738D01*
X6881657Y-19717119D01*
X6891181Y-19688548D01*
X6900705Y-19669500D01*
X6919753Y-19640929D01*
X6929276Y-19631405D01*
X7091181Y-19726643D02*
X7091181Y-19859976D01*
X7043562Y-19650452D02*
X6995943Y-19793310D01*
X7119753Y-19793310D01*
X7348324Y-19859976D02*
X7348324Y-19659976D01*
X7434038Y-19859976D02*
X7434038Y-19755214D01*
X7424514Y-19736167D01*
X7405467Y-19726643D01*
X7376895Y-19726643D01*
X7357848Y-19736167D01*
X7348324Y-19745690D01*
X7557848Y-19859976D02*
X7538800Y-19850452D01*
X7529276Y-19840929D01*
X7519753Y-19821881D01*
X7519753Y-19764738D01*
X7529276Y-19745690D01*
X7538800Y-19736167D01*
X7557848Y-19726643D01*
X7586419Y-19726643D01*
X7605467Y-19736167D01*
X7614991Y-19745690D01*
X7624514Y-19764738D01*
X7624514Y-19821881D01*
X7614991Y-19840929D01*
X7605467Y-19850452D01*
X7586419Y-19859976D01*
X7557848Y-19859976D01*
X7738800Y-19859976D02*
X7719753Y-19850452D01*
X7710229Y-19831405D01*
X7710229Y-19659976D01*
X7891181Y-19850452D02*
X7872134Y-19859976D01*
X7834038Y-19859976D01*
X7814991Y-19850452D01*
X7805467Y-19831405D01*
X7805467Y-19755214D01*
X7814991Y-19736167D01*
X7834038Y-19726643D01*
X7872134Y-19726643D01*
X7891181Y-19736167D01*
X7900705Y-19755214D01*
X7900705Y-19774262D01*
X7805467Y-19793310D01*
X7976895Y-19850452D02*
X7995943Y-19859976D01*
X8034038Y-19859976D01*
X8053086Y-19850452D01*
X8062610Y-19831405D01*
X8062610Y-19821881D01*
X8053086Y-19802833D01*
X8034038Y-19793310D01*
X8005467Y-19793310D01*
X7986419Y-19783786D01*
X7976895Y-19764738D01*
X7976895Y-19755214D01*
X7986419Y-19736167D01*
X8005467Y-19726643D01*
X8034038Y-19726643D01*
X8053086Y-19736167D01*
X8129276Y-19936167D02*
X8138800Y-19926643D01*
X8157848Y-19898071D01*
X8167372Y-19879024D01*
X8176895Y-19850452D01*
X8186419Y-19802833D01*
X8186419Y-19764738D01*
X8176895Y-19717119D01*
X8167372Y-19688548D01*
X8157848Y-19669500D01*
X8138800Y-19640929D01*
X8129276Y-19631405D01*
X8491181Y-19936167D02*
X8481657Y-19926643D01*
X8462610Y-19898071D01*
X8453086Y-19879024D01*
X8443562Y-19850452D01*
X8434038Y-19802833D01*
X8434038Y-19764738D01*
X8443562Y-19717119D01*
X8453086Y-19688548D01*
X8462610Y-19669500D01*
X8481657Y-19640929D01*
X8491181Y-19631405D01*
X8567372Y-19726643D02*
X8567372Y-19859976D01*
X8567372Y-19745690D02*
X8576896Y-19736167D01*
X8595943Y-19726643D01*
X8624515Y-19726643D01*
X8643562Y-19736167D01*
X8653086Y-19755214D01*
X8653086Y-19859976D01*
X8776896Y-19859976D02*
X8757848Y-19850452D01*
X8748324Y-19840929D01*
X8738800Y-19821881D01*
X8738800Y-19764738D01*
X8748324Y-19745690D01*
X8757848Y-19736167D01*
X8776896Y-19726643D01*
X8805467Y-19726643D01*
X8824515Y-19736167D01*
X8834038Y-19745690D01*
X8843562Y-19764738D01*
X8843562Y-19821881D01*
X8834038Y-19840929D01*
X8824515Y-19850452D01*
X8805467Y-19859976D01*
X8776896Y-19859976D01*
X8900705Y-19726643D02*
X8976896Y-19726643D01*
X8929276Y-19659976D02*
X8929276Y-19831405D01*
X8938800Y-19850452D01*
X8957848Y-19859976D01*
X8976896Y-19859976D01*
X9195943Y-19726643D02*
X9195943Y-19926643D01*
X9195943Y-19736167D02*
X9214991Y-19726643D01*
X9253086Y-19726643D01*
X9272134Y-19736167D01*
X9281657Y-19745690D01*
X9291181Y-19764738D01*
X9291181Y-19821881D01*
X9281657Y-19840929D01*
X9272134Y-19850452D01*
X9253086Y-19859976D01*
X9214991Y-19859976D01*
X9195943Y-19850452D01*
X9405467Y-19859976D02*
X9386419Y-19850452D01*
X9376896Y-19831405D01*
X9376896Y-19659976D01*
X9567372Y-19859976D02*
X9567372Y-19755214D01*
X9557848Y-19736167D01*
X9538800Y-19726643D01*
X9500705Y-19726643D01*
X9481657Y-19736167D01*
X9567372Y-19850452D02*
X9548324Y-19859976D01*
X9500705Y-19859976D01*
X9481657Y-19850452D01*
X9472134Y-19831405D01*
X9472134Y-19812357D01*
X9481657Y-19793310D01*
X9500705Y-19783786D01*
X9548324Y-19783786D01*
X9567372Y-19774262D01*
X9634038Y-19726643D02*
X9710229Y-19726643D01*
X9662610Y-19659976D02*
X9662610Y-19831405D01*
X9672134Y-19850452D01*
X9691181Y-19859976D01*
X9710229Y-19859976D01*
X9853086Y-19850452D02*
X9834038Y-19859976D01*
X9795943Y-19859976D01*
X9776896Y-19850452D01*
X9767372Y-19831405D01*
X9767372Y-19755214D01*
X9776896Y-19736167D01*
X9795943Y-19726643D01*
X9834038Y-19726643D01*
X9853086Y-19736167D01*
X9862610Y-19755214D01*
X9862610Y-19774262D01*
X9767372Y-19793310D01*
X10034038Y-19859976D02*
X10034038Y-19659976D01*
X10034038Y-19850452D02*
X10014991Y-19859976D01*
X9976896Y-19859976D01*
X9957848Y-19850452D01*
X9948324Y-19840929D01*
X9938800Y-19821881D01*
X9938800Y-19764738D01*
X9948324Y-19745690D01*
X9957848Y-19736167D01*
X9976896Y-19726643D01*
X10014991Y-19726643D01*
X10034038Y-19736167D01*
X10110229Y-19936167D02*
X10119753Y-19926643D01*
X10138800Y-19898071D01*
X10148324Y-19879024D01*
X10157848Y-19850452D01*
X10167372Y-19802833D01*
X10167372Y-19764738D01*
X10157848Y-19717119D01*
X10148324Y-19688548D01*
X10138800Y-19669500D01*
X10119753Y-19640929D01*
X10110229Y-19631405D01*
X3257372Y-19989500D02*
X3257372Y-20189500D01*
X3157372Y-20089500D02*
X3357372Y-20089500D01*
X3700705Y-19979976D02*
X3662610Y-19979976D01*
X3643562Y-19989500D01*
X3634038Y-19999024D01*
X3614991Y-20027595D01*
X3605467Y-20065690D01*
X3605467Y-20141881D01*
X3614991Y-20160929D01*
X3624514Y-20170452D01*
X3643562Y-20179976D01*
X3681657Y-20179976D01*
X3700705Y-20170452D01*
X3710229Y-20160929D01*
X3719753Y-20141881D01*
X3719753Y-20094262D01*
X3710229Y-20075214D01*
X3700705Y-20065690D01*
X3681657Y-20056167D01*
X3643562Y-20056167D01*
X3624514Y-20065690D01*
X3614991Y-20075214D01*
X3605467Y-20094262D01*
X3805467Y-20160929D02*
X3814991Y-20170452D01*
X3805467Y-20179976D01*
X3795943Y-20170452D01*
X3805467Y-20160929D01*
X3805467Y-20179976D01*
X3995943Y-19979976D02*
X3900705Y-19979976D01*
X3891181Y-20075214D01*
X3900705Y-20065690D01*
X3919753Y-20056167D01*
X3967372Y-20056167D01*
X3986419Y-20065690D01*
X3995943Y-20075214D01*
X4005467Y-20094262D01*
X4005467Y-20141881D01*
X3995943Y-20160929D01*
X3986419Y-20170452D01*
X3967372Y-20179976D01*
X3919753Y-20179976D01*
X3900705Y-20170452D01*
X3891181Y-20160929D01*
X4129276Y-19979976D02*
X4148324Y-19979976D01*
X4167372Y-19989500D01*
X4176895Y-19999024D01*
X4186419Y-20018071D01*
X4195943Y-20056167D01*
X4195943Y-20103786D01*
X4186419Y-20141881D01*
X4176895Y-20160929D01*
X4167372Y-20170452D01*
X4148324Y-20179976D01*
X4129276Y-20179976D01*
X4110229Y-20170452D01*
X4100705Y-20160929D01*
X4091181Y-20141881D01*
X4081657Y-20103786D01*
X4081657Y-20056167D01*
X4091181Y-20018071D01*
X4100705Y-19999024D01*
X4110229Y-19989500D01*
X4129276Y-19979976D01*
X4319753Y-19979976D02*
X4338800Y-19979976D01*
X4357848Y-19989500D01*
X4367372Y-19999024D01*
X4376896Y-20018071D01*
X4386419Y-20056167D01*
X4386419Y-20103786D01*
X4376896Y-20141881D01*
X4367372Y-20160929D01*
X4357848Y-20170452D01*
X4338800Y-20179976D01*
X4319753Y-20179976D01*
X4300705Y-20170452D01*
X4291181Y-20160929D01*
X4281657Y-20141881D01*
X4272134Y-20103786D01*
X4272134Y-20056167D01*
X4281657Y-20018071D01*
X4291181Y-19999024D01*
X4300705Y-19989500D01*
X4319753Y-19979976D01*
X4472134Y-20179976D02*
X4472134Y-20046643D01*
X4472134Y-20065690D02*
X4481657Y-20056167D01*
X4500705Y-20046643D01*
X4529276Y-20046643D01*
X4548324Y-20056167D01*
X4557848Y-20075214D01*
X4557848Y-20179976D01*
X4557848Y-20075214D02*
X4567372Y-20056167D01*
X4586419Y-20046643D01*
X4614991Y-20046643D01*
X4634038Y-20056167D01*
X4643562Y-20075214D01*
X4643562Y-20179976D01*
X4738800Y-20179976D02*
X4738800Y-20046643D01*
X4738800Y-20065690D02*
X4748324Y-20056167D01*
X4767372Y-20046643D01*
X4795943Y-20046643D01*
X4814991Y-20056167D01*
X4824515Y-20075214D01*
X4824515Y-20179976D01*
X4824515Y-20075214D02*
X4834038Y-20056167D01*
X4853086Y-20046643D01*
X4881657Y-20046643D01*
X4900705Y-20056167D01*
X4910229Y-20075214D01*
X4910229Y-20179976D01*
X5300705Y-19970452D02*
X5129276Y-20227595D01*
X5557848Y-19979976D02*
X5576896Y-19979976D01*
X5595943Y-19989500D01*
X5605467Y-19999024D01*
X5614991Y-20018071D01*
X5624514Y-20056167D01*
X5624514Y-20103786D01*
X5614991Y-20141881D01*
X5605467Y-20160929D01*
X5595943Y-20170452D01*
X5576896Y-20179976D01*
X5557848Y-20179976D01*
X5538800Y-20170452D01*
X5529276Y-20160929D01*
X5519753Y-20141881D01*
X5510229Y-20103786D01*
X5510229Y-20056167D01*
X5519753Y-20018071D01*
X5529276Y-19999024D01*
X5538800Y-19989500D01*
X5557848Y-19979976D01*
X5710229Y-20160929D02*
X5719753Y-20170452D01*
X5710229Y-20179976D01*
X5700705Y-20170452D01*
X5710229Y-20160929D01*
X5710229Y-20179976D01*
X5795943Y-19999024D02*
X5805467Y-19989500D01*
X5824514Y-19979976D01*
X5872134Y-19979976D01*
X5891181Y-19989500D01*
X5900705Y-19999024D01*
X5910229Y-20018071D01*
X5910229Y-20037119D01*
X5900705Y-20065690D01*
X5786419Y-20179976D01*
X5910229Y-20179976D01*
X6091181Y-19979976D02*
X5995943Y-19979976D01*
X5986419Y-20075214D01*
X5995943Y-20065690D01*
X6014991Y-20056167D01*
X6062610Y-20056167D01*
X6081657Y-20065690D01*
X6091181Y-20075214D01*
X6100705Y-20094262D01*
X6100705Y-20141881D01*
X6091181Y-20160929D01*
X6081657Y-20170452D01*
X6062610Y-20179976D01*
X6014991Y-20179976D01*
X5995943Y-20170452D01*
X5986419Y-20160929D01*
X6281657Y-19979976D02*
X6186419Y-19979976D01*
X6176895Y-20075214D01*
X6186419Y-20065690D01*
X6205467Y-20056167D01*
X6253086Y-20056167D01*
X6272134Y-20065690D01*
X6281657Y-20075214D01*
X6291181Y-20094262D01*
X6291181Y-20141881D01*
X6281657Y-20160929D01*
X6272134Y-20170452D01*
X6253086Y-20179976D01*
X6205467Y-20179976D01*
X6186419Y-20170452D01*
X6176895Y-20160929D01*
X6386419Y-20179976D02*
X6424514Y-20179976D01*
X6443562Y-20170452D01*
X6453086Y-20160929D01*
X6472134Y-20132357D01*
X6481657Y-20094262D01*
X6481657Y-20018071D01*
X6472134Y-19999024D01*
X6462610Y-19989500D01*
X6443562Y-19979976D01*
X6405467Y-19979976D01*
X6386419Y-19989500D01*
X6376895Y-19999024D01*
X6367372Y-20018071D01*
X6367372Y-20065690D01*
X6376895Y-20084738D01*
X6386419Y-20094262D01*
X6405467Y-20103786D01*
X6443562Y-20103786D01*
X6462610Y-20094262D01*
X6472134Y-20084738D01*
X6481657Y-20065690D01*
X6557848Y-19979976D02*
X6557848Y-20018071D01*
X6634038Y-19979976D02*
X6634038Y-20018071D01*
X6929276Y-20256167D02*
X6919753Y-20246643D01*
X6900705Y-20218071D01*
X6891181Y-20199024D01*
X6881657Y-20170452D01*
X6872134Y-20122833D01*
X6872134Y-20084738D01*
X6881657Y-20037119D01*
X6891181Y-20008548D01*
X6900705Y-19989500D01*
X6919753Y-19960929D01*
X6929276Y-19951405D01*
X7091181Y-20046643D02*
X7091181Y-20179976D01*
X7043562Y-19970452D02*
X6995943Y-20113310D01*
X7119753Y-20113310D01*
X7348324Y-20179976D02*
X7348324Y-19979976D01*
X7434038Y-20179976D02*
X7434038Y-20075214D01*
X7424514Y-20056167D01*
X7405467Y-20046643D01*
X7376895Y-20046643D01*
X7357848Y-20056167D01*
X7348324Y-20065690D01*
X7557848Y-20179976D02*
X7538800Y-20170452D01*
X7529276Y-20160929D01*
X7519753Y-20141881D01*
X7519753Y-20084738D01*
X7529276Y-20065690D01*
X7538800Y-20056167D01*
X7557848Y-20046643D01*
X7586419Y-20046643D01*
X7605467Y-20056167D01*
X7614991Y-20065690D01*
X7624514Y-20084738D01*
X7624514Y-20141881D01*
X7614991Y-20160929D01*
X7605467Y-20170452D01*
X7586419Y-20179976D01*
X7557848Y-20179976D01*
X7738800Y-20179976D02*
X7719753Y-20170452D01*
X7710229Y-20151405D01*
X7710229Y-19979976D01*
X7891181Y-20170452D02*
X7872134Y-20179976D01*
X7834038Y-20179976D01*
X7814991Y-20170452D01*
X7805467Y-20151405D01*
X7805467Y-20075214D01*
X7814991Y-20056167D01*
X7834038Y-20046643D01*
X7872134Y-20046643D01*
X7891181Y-20056167D01*
X7900705Y-20075214D01*
X7900705Y-20094262D01*
X7805467Y-20113310D01*
X7976895Y-20170452D02*
X7995943Y-20179976D01*
X8034038Y-20179976D01*
X8053086Y-20170452D01*
X8062610Y-20151405D01*
X8062610Y-20141881D01*
X8053086Y-20122833D01*
X8034038Y-20113310D01*
X8005467Y-20113310D01*
X7986419Y-20103786D01*
X7976895Y-20084738D01*
X7976895Y-20075214D01*
X7986419Y-20056167D01*
X8005467Y-20046643D01*
X8034038Y-20046643D01*
X8053086Y-20056167D01*
X8129276Y-20256167D02*
X8138800Y-20246643D01*
X8157848Y-20218071D01*
X8167372Y-20199024D01*
X8176895Y-20170452D01*
X8186419Y-20122833D01*
X8186419Y-20084738D01*
X8176895Y-20037119D01*
X8167372Y-20008548D01*
X8157848Y-19989500D01*
X8138800Y-19960929D01*
X8129276Y-19951405D01*
X8491181Y-20256167D02*
X8481657Y-20246643D01*
X8462610Y-20218071D01*
X8453086Y-20199024D01*
X8443562Y-20170452D01*
X8434038Y-20122833D01*
X8434038Y-20084738D01*
X8443562Y-20037119D01*
X8453086Y-20008548D01*
X8462610Y-19989500D01*
X8481657Y-19960929D01*
X8491181Y-19951405D01*
X8567372Y-20046643D02*
X8567372Y-20179976D01*
X8567372Y-20065690D02*
X8576896Y-20056167D01*
X8595943Y-20046643D01*
X8624515Y-20046643D01*
X8643562Y-20056167D01*
X8653086Y-20075214D01*
X8653086Y-20179976D01*
X8776896Y-20179976D02*
X8757848Y-20170452D01*
X8748324Y-20160929D01*
X8738800Y-20141881D01*
X8738800Y-20084738D01*
X8748324Y-20065690D01*
X8757848Y-20056167D01*
X8776896Y-20046643D01*
X8805467Y-20046643D01*
X8824515Y-20056167D01*
X8834038Y-20065690D01*
X8843562Y-20084738D01*
X8843562Y-20141881D01*
X8834038Y-20160929D01*
X8824515Y-20170452D01*
X8805467Y-20179976D01*
X8776896Y-20179976D01*
X8900705Y-20046643D02*
X8976896Y-20046643D01*
X8929276Y-19979976D02*
X8929276Y-20151405D01*
X8938800Y-20170452D01*
X8957848Y-20179976D01*
X8976896Y-20179976D01*
X9195943Y-20046643D02*
X9195943Y-20246643D01*
X9195943Y-20056167D02*
X9214991Y-20046643D01*
X9253086Y-20046643D01*
X9272134Y-20056167D01*
X9281657Y-20065690D01*
X9291181Y-20084738D01*
X9291181Y-20141881D01*
X9281657Y-20160929D01*
X9272134Y-20170452D01*
X9253086Y-20179976D01*
X9214991Y-20179976D01*
X9195943Y-20170452D01*
X9405467Y-20179976D02*
X9386419Y-20170452D01*
X9376896Y-20151405D01*
X9376896Y-19979976D01*
X9567372Y-20179976D02*
X9567372Y-20075214D01*
X9557848Y-20056167D01*
X9538800Y-20046643D01*
X9500705Y-20046643D01*
X9481657Y-20056167D01*
X9567372Y-20170452D02*
X9548324Y-20179976D01*
X9500705Y-20179976D01*
X9481657Y-20170452D01*
X9472134Y-20151405D01*
X9472134Y-20132357D01*
X9481657Y-20113310D01*
X9500705Y-20103786D01*
X9548324Y-20103786D01*
X9567372Y-20094262D01*
X9634038Y-20046643D02*
X9710229Y-20046643D01*
X9662610Y-19979976D02*
X9662610Y-20151405D01*
X9672134Y-20170452D01*
X9691181Y-20179976D01*
X9710229Y-20179976D01*
X9853086Y-20170452D02*
X9834038Y-20179976D01*
X9795943Y-20179976D01*
X9776896Y-20170452D01*
X9767372Y-20151405D01*
X9767372Y-20075214D01*
X9776896Y-20056167D01*
X9795943Y-20046643D01*
X9834038Y-20046643D01*
X9853086Y-20056167D01*
X9862610Y-20075214D01*
X9862610Y-20094262D01*
X9767372Y-20113310D01*
X10034038Y-20179976D02*
X10034038Y-19979976D01*
X10034038Y-20170452D02*
X10014991Y-20179976D01*
X9976896Y-20179976D01*
X9957848Y-20170452D01*
X9948324Y-20160929D01*
X9938800Y-20141881D01*
X9938800Y-20084738D01*
X9948324Y-20065690D01*
X9957848Y-20056167D01*
X9976896Y-20046643D01*
X10014991Y-20046643D01*
X10034038Y-20056167D01*
X10110229Y-20256167D02*
X10119753Y-20246643D01*
X10138800Y-20218071D01*
X10148324Y-20199024D01*
X10157848Y-20170452D01*
X10167372Y-20122833D01*
X10167372Y-20084738D01*
X10157848Y-20037119D01*
X10148324Y-20008548D01*
X10138800Y-19989500D01*
X10119753Y-19960929D01*
X10110229Y-19951405D01*
M02*
