M48
; DRILL file {KiCad 6.0.9-8da3e8f707~117~ubuntu18.04.1} date Sun Jan 22 23:16:25 2023
; FORMAT={3:3/ absolute / metric / suppress leading zeros}
; #@! TF.CreationDate,2023-01-22T23:16:25+05:30
; #@! TF.GenerationSoftware,Kicad,Pcbnew,6.0.9-8da3e8f707~117~ubuntu18.04.1
; #@! TF.FileFunction,MixedPlating,1,2
FMAT,2
METRIC,TZ
; #@! TA.AperFunction,Plated,PTH,ViaDrill
T1C0.400
; #@! TA.AperFunction,Plated,PTH,ComponentDrill
T2C0.550
; #@! TA.AperFunction,Plated,PTH,ComponentDrill
T3C0.740
; #@! TA.AperFunction,Plated,PTH,ComponentDrill
T4C0.800
; #@! TA.AperFunction,Plated,PTH,ComponentDrill
T5C0.850
; #@! TA.AperFunction,Plated,PTH,ComponentDrill
T6C0.890
; #@! TA.AperFunction,Plated,PTH,ComponentDrill
T7C1.000
; #@! TA.AperFunction,Plated,PTH,ComponentDrill
T8C1.100
; #@! TA.AperFunction,Plated,PTH,ComponentDrill
T9C3.200
; #@! TA.AperFunction,NonPlated,NPTH,ComponentDrill
T10C0.800
%
G90
G05
T1
X118500Y-114750
X120250Y-114750
X123250Y-96750
X131500Y-79500
X133750Y-90000
X134000Y-96000
X138000Y-97500
X139250Y-102250
X140000Y-80750
X141800Y-98750
X142000Y-104000
X143250Y-83750
X143750Y-106000
X144000Y-77000
X144500Y-87750
X145500Y-84500
X145750Y-95750
X147750Y-79750
X147750Y-84000
X149000Y-115500
X151250Y-95500
X152500Y-104000
X153530Y-89030
X154250Y-110500
X156000Y-98250
X156000Y-111750
X157000Y-109000
X157250Y-90250
X159000Y-81750
X161500Y-102000
X162000Y-97500
X162500Y-79500
X162500Y-99500
X163250Y-102000
X166350Y-113890
X169750Y-102000
X169750Y-111000
X180750Y-99750
T3
X124110Y-113530
X124110Y-121470
X126650Y-113530
X126650Y-121470
X129190Y-113530
X129190Y-121470
X131730Y-113530
X131730Y-121470
X134270Y-113530
X134270Y-121470
X136810Y-113530
X136810Y-121470
X139350Y-113530
X139350Y-121470
X141890Y-113530
X141890Y-121470
T4
X130250Y-88120
X130250Y-93000
T6
X113010Y-58210
X113010Y-63290
X118090Y-58210
X118090Y-60750
X118090Y-63290
T7
X108818Y-94048
X108818Y-96587
X108818Y-99128
X108818Y-101668
X108818Y-104208
X109500Y-83500
X109500Y-86040
X109750Y-71975
X109750Y-74515
X109750Y-77055
X112040Y-83500
X112040Y-86040
X116438Y-94048
X116438Y-96587
X116438Y-99128
X116438Y-101668
X116438Y-104208
X123000Y-100735
X123000Y-103275
X142420Y-66500
X143805Y-63660
X145190Y-66500
X146575Y-63660
X147960Y-66500
X149345Y-63660
X150170Y-120750
X150730Y-66500
X152115Y-63660
X152710Y-120750
X153500Y-66500
X155250Y-120750
X157450Y-84500
X159250Y-120750
X159990Y-84500
X161790Y-120750
X162530Y-84500
X164330Y-120750
X165070Y-84500
X166870Y-120750
X170670Y-118210
X170670Y-120750
X173210Y-118210
X173210Y-120750
X175750Y-118210
X175750Y-120750
X176500Y-68150
X176500Y-70690
X176500Y-73230
X176500Y-75770
X176500Y-78310
X176500Y-80850
X178290Y-118210
X178290Y-120750
X180830Y-118210
X180830Y-120750
T8
X128000Y-99250
X128000Y-103750
X134500Y-99250
X134500Y-103750
X175750Y-108000
X175750Y-112500
X182250Y-108000
X182250Y-112500
T9
X135460Y-66200
X160460Y-66200
T10
X181195Y-89005
X181195Y-94005
T2
G00X183620Y-87630
M15
G01X184270Y-87630
M16
G05
G00X183620Y-95380
M15
G01X184270Y-95380
M16
G05
T5
G00X179870Y-87780
M15
G01X180420Y-87780
M16
G05
G00X179870Y-95230
M15
G01X180420Y-95230
M16
G05
T0
M30
