%TF.GenerationSoftware,KiCad,Pcbnew,6.0.9-8da3e8f707~117~ubuntu18.04.1*%
%TF.CreationDate,2023-01-22T23:16:31+05:30*%
%TF.ProjectId,f103_V2,66313033-5f56-4322-9e6b-696361645f70,rev?*%
%TF.SameCoordinates,Original*%
%TF.FileFunction,Paste,Top*%
%TF.FilePolarity,Positive*%
%FSLAX46Y46*%
G04 Gerber Fmt 4.6, Leading zero omitted, Abs format (unit mm)*
G04 Created by KiCad (PCBNEW 6.0.9-8da3e8f707~117~ubuntu18.04.1) date 2023-01-22 23:16:31*
%MOMM*%
%LPD*%
G01*
G04 APERTURE LIST*
G04 Aperture macros list*
%AMRoundRect*
0 Rectangle with rounded corners*
0 $1 Rounding radius*
0 $2 $3 $4 $5 $6 $7 $8 $9 X,Y pos of 4 corners*
0 Add a 4 corners polygon primitive as box body*
4,1,4,$2,$3,$4,$5,$6,$7,$8,$9,$2,$3,0*
0 Add four circle primitives for the rounded corners*
1,1,$1+$1,$2,$3*
1,1,$1+$1,$4,$5*
1,1,$1+$1,$6,$7*
1,1,$1+$1,$8,$9*
0 Add four rect primitives between the rounded corners*
20,1,$1+$1,$2,$3,$4,$5,0*
20,1,$1+$1,$4,$5,$6,$7,0*
20,1,$1+$1,$6,$7,$8,$9,0*
20,1,$1+$1,$8,$9,$2,$3,0*%
G04 Aperture macros list end*
%ADD10RoundRect,0.075000X-0.662500X-0.075000X0.662500X-0.075000X0.662500X0.075000X-0.662500X0.075000X0*%
%ADD11RoundRect,0.075000X-0.075000X-0.662500X0.075000X-0.662500X0.075000X0.662500X-0.075000X0.662500X0*%
%ADD12RoundRect,0.250000X0.350000X0.450000X-0.350000X0.450000X-0.350000X-0.450000X0.350000X-0.450000X0*%
%ADD13RoundRect,0.250000X-0.337500X-0.475000X0.337500X-0.475000X0.337500X0.475000X-0.337500X0.475000X0*%
%ADD14RoundRect,0.250000X0.450000X-0.350000X0.450000X0.350000X-0.450000X0.350000X-0.450000X-0.350000X0*%
%ADD15RoundRect,0.250000X0.450000X-0.325000X0.450000X0.325000X-0.450000X0.325000X-0.450000X-0.325000X0*%
%ADD16R,1.300000X0.450000*%
%ADD17RoundRect,0.250000X0.337500X0.475000X-0.337500X0.475000X-0.337500X-0.475000X0.337500X-0.475000X0*%
%ADD18RoundRect,0.250000X-0.450000X0.350000X-0.450000X-0.350000X0.450000X-0.350000X0.450000X0.350000X0*%
%ADD19RoundRect,0.150000X0.150000X-0.825000X0.150000X0.825000X-0.150000X0.825000X-0.150000X-0.825000X0*%
%ADD20RoundRect,0.250000X-0.350000X-0.450000X0.350000X-0.450000X0.350000X0.450000X-0.350000X0.450000X0*%
%ADD21RoundRect,0.250000X-0.475000X0.337500X-0.475000X-0.337500X0.475000X-0.337500X0.475000X0.337500X0*%
%ADD22R,2.000000X1.500000*%
%ADD23R,2.000000X3.800000*%
%ADD24RoundRect,0.250000X0.475000X-0.337500X0.475000X0.337500X-0.475000X0.337500X-0.475000X-0.337500X0*%
%ADD25RoundRect,0.250000X0.325000X0.450000X-0.325000X0.450000X-0.325000X-0.450000X0.325000X-0.450000X0*%
%ADD26RoundRect,0.250000X-0.450000X0.325000X-0.450000X-0.325000X0.450000X-0.325000X0.450000X0.325000X0*%
G04 APERTURE END LIST*
D10*
%TO.C,U4*%
X144337500Y-90250000D03*
X144337500Y-90750000D03*
X144337500Y-91250000D03*
X144337500Y-91750000D03*
X144337500Y-92250000D03*
X144337500Y-92750000D03*
X144337500Y-93250000D03*
X144337500Y-93750000D03*
X144337500Y-94250000D03*
X144337500Y-94750000D03*
X144337500Y-95250000D03*
X144337500Y-95750000D03*
D11*
X145750000Y-97162500D03*
X146250000Y-97162500D03*
X146750000Y-97162500D03*
X147250000Y-97162500D03*
X147750000Y-97162500D03*
X148250000Y-97162500D03*
X148750000Y-97162500D03*
X149250000Y-97162500D03*
X149750000Y-97162500D03*
X150250000Y-97162500D03*
X150750000Y-97162500D03*
X151250000Y-97162500D03*
D10*
X152662500Y-95750000D03*
X152662500Y-95250000D03*
X152662500Y-94750000D03*
X152662500Y-94250000D03*
X152662500Y-93750000D03*
X152662500Y-93250000D03*
X152662500Y-92750000D03*
X152662500Y-92250000D03*
X152662500Y-91750000D03*
X152662500Y-91250000D03*
X152662500Y-90750000D03*
X152662500Y-90250000D03*
D11*
X151250000Y-88837500D03*
X150750000Y-88837500D03*
X150250000Y-88837500D03*
X149750000Y-88837500D03*
X149250000Y-88837500D03*
X148750000Y-88837500D03*
X148250000Y-88837500D03*
X147750000Y-88837500D03*
X147250000Y-88837500D03*
X146750000Y-88837500D03*
X146250000Y-88837500D03*
X145750000Y-88837500D03*
%TD*%
D12*
%TO.C,R3*%
X145250000Y-120250000D03*
X147250000Y-120250000D03*
%TD*%
D13*
%TO.C,C2*%
X176212500Y-99750000D03*
X178287500Y-99750000D03*
%TD*%
D14*
%TO.C,R17*%
X144000000Y-100250000D03*
X144000000Y-98250000D03*
%TD*%
D12*
%TO.C,R1*%
X145250000Y-115750000D03*
X147250000Y-115750000D03*
%TD*%
D13*
%TO.C,C7*%
X143212500Y-86250000D03*
X145287500Y-86250000D03*
%TD*%
D15*
%TO.C,D2*%
X144000000Y-104275000D03*
X144000000Y-102225000D03*
%TD*%
D16*
%TO.C,J9*%
X180095000Y-92805000D03*
X180095000Y-92155000D03*
X180095000Y-91505000D03*
X180095000Y-90855000D03*
X180095000Y-90205000D03*
%TD*%
D14*
%TO.C,R13*%
X106100000Y-119220000D03*
X106100000Y-117220000D03*
%TD*%
D17*
%TO.C,C11*%
X153750000Y-102250000D03*
X151675000Y-102250000D03*
%TD*%
D18*
%TO.C,R7*%
X141250000Y-84500000D03*
X141250000Y-86500000D03*
%TD*%
D14*
%TO.C,R8*%
X111100000Y-119220000D03*
X111100000Y-117220000D03*
%TD*%
%TO.C,R15*%
X161500000Y-90250000D03*
X161500000Y-88250000D03*
%TD*%
D19*
%TO.C,U5*%
X146345000Y-81975000D03*
X147615000Y-81975000D03*
X148885000Y-81975000D03*
X150155000Y-81975000D03*
X150155000Y-77025000D03*
X148885000Y-77025000D03*
X147615000Y-77025000D03*
X146345000Y-77025000D03*
%TD*%
D17*
%TO.C,C12*%
X153750000Y-100000000D03*
X151675000Y-100000000D03*
%TD*%
D14*
%TO.C,R11*%
X118600000Y-119220000D03*
X118600000Y-117220000D03*
%TD*%
D20*
%TO.C,R18*%
X138250000Y-103750000D03*
X140250000Y-103750000D03*
%TD*%
D14*
%TO.C,R12*%
X121350000Y-119220000D03*
X121350000Y-117220000D03*
%TD*%
D12*
%TO.C,R2*%
X147250000Y-118000000D03*
X145250000Y-118000000D03*
%TD*%
D13*
%TO.C,C5*%
X135462500Y-90000000D03*
X137537500Y-90000000D03*
%TD*%
D21*
%TO.C,C6*%
X156000000Y-88175000D03*
X156000000Y-90250000D03*
%TD*%
D22*
%TO.C,U1*%
X172650000Y-106300000D03*
X172650000Y-104000000D03*
D23*
X166350000Y-104000000D03*
D22*
X172650000Y-101700000D03*
%TD*%
D24*
%TO.C,C1*%
X138000000Y-100787500D03*
X138000000Y-98712500D03*
%TD*%
%TO.C,C9*%
X140500000Y-96287500D03*
X140500000Y-94212500D03*
%TD*%
D18*
%TO.C,R4*%
X140500000Y-98750000D03*
X140500000Y-100750000D03*
%TD*%
D13*
%TO.C,C4*%
X176212500Y-102500000D03*
X178287500Y-102500000D03*
%TD*%
D12*
%TO.C,R16*%
X149250000Y-73500000D03*
X147250000Y-73500000D03*
%TD*%
D25*
%TO.C,D3*%
X140275000Y-106000000D03*
X138225000Y-106000000D03*
%TD*%
D14*
%TO.C,R9*%
X113350000Y-119220000D03*
X113350000Y-117220000D03*
%TD*%
D21*
%TO.C,C3*%
X135750000Y-94175000D03*
X135750000Y-96250000D03*
%TD*%
D14*
%TO.C,R14*%
X108600000Y-119220000D03*
X108600000Y-117220000D03*
%TD*%
D24*
%TO.C,C8*%
X138250000Y-96287500D03*
X138250000Y-94212500D03*
%TD*%
D12*
%TO.C,R5*%
X137500000Y-92250000D03*
X135500000Y-92250000D03*
%TD*%
D26*
%TO.C,D1*%
X181250000Y-101725000D03*
X181250000Y-103775000D03*
%TD*%
D12*
%TO.C,R6*%
X178250000Y-105250000D03*
X176250000Y-105250000D03*
%TD*%
D14*
%TO.C,R10*%
X116100000Y-119220000D03*
X116100000Y-117220000D03*
%TD*%
D21*
%TO.C,C10*%
X158500000Y-88175000D03*
X158500000Y-90250000D03*
%TD*%
M02*
