%TF.GenerationSoftware,KiCad,Pcbnew,6.0.9-8da3e8f707~117~ubuntu18.04.1*%
%TF.CreationDate,2023-01-22T23:16:31+05:30*%
%TF.ProjectId,f103_V2,66313033-5f56-4322-9e6b-696361645f70,rev?*%
%TF.SameCoordinates,Original*%
%TF.FileFunction,Copper,L1,Top*%
%TF.FilePolarity,Positive*%
%FSLAX46Y46*%
G04 Gerber Fmt 4.6, Leading zero omitted, Abs format (unit mm)*
G04 Created by KiCad (PCBNEW 6.0.9-8da3e8f707~117~ubuntu18.04.1) date 2023-01-22 23:16:31*
%MOMM*%
%LPD*%
G01*
G04 APERTURE LIST*
G04 Aperture macros list*
%AMRoundRect*
0 Rectangle with rounded corners*
0 $1 Rounding radius*
0 $2 $3 $4 $5 $6 $7 $8 $9 X,Y pos of 4 corners*
0 Add a 4 corners polygon primitive as box body*
4,1,4,$2,$3,$4,$5,$6,$7,$8,$9,$2,$3,0*
0 Add four circle primitives for the rounded corners*
1,1,$1+$1,$2,$3*
1,1,$1+$1,$4,$5*
1,1,$1+$1,$6,$7*
1,1,$1+$1,$8,$9*
0 Add four rect primitives between the rounded corners*
20,1,$1+$1,$2,$3,$4,$5,0*
20,1,$1+$1,$4,$5,$6,$7,0*
20,1,$1+$1,$6,$7,$8,$9,0*
20,1,$1+$1,$8,$9,$2,$3,0*%
G04 Aperture macros list end*
%TA.AperFunction,ComponentPad*%
%ADD10R,1.700000X1.700000*%
%TD*%
%TA.AperFunction,ComponentPad*%
%ADD11O,1.700000X1.700000*%
%TD*%
%TA.AperFunction,SMDPad,CuDef*%
%ADD12RoundRect,0.075000X-0.662500X-0.075000X0.662500X-0.075000X0.662500X0.075000X-0.662500X0.075000X0*%
%TD*%
%TA.AperFunction,SMDPad,CuDef*%
%ADD13RoundRect,0.075000X-0.075000X-0.662500X0.075000X-0.662500X0.075000X0.662500X-0.075000X0.662500X0*%
%TD*%
%TA.AperFunction,SMDPad,CuDef*%
%ADD14RoundRect,0.250000X0.350000X0.450000X-0.350000X0.450000X-0.350000X-0.450000X0.350000X-0.450000X0*%
%TD*%
%TA.AperFunction,ComponentPad*%
%ADD15C,4.000000*%
%TD*%
%TA.AperFunction,ComponentPad*%
%ADD16R,1.600000X1.600000*%
%TD*%
%TA.AperFunction,ComponentPad*%
%ADD17C,1.600000*%
%TD*%
%TA.AperFunction,SMDPad,CuDef*%
%ADD18RoundRect,0.250000X-0.337500X-0.475000X0.337500X-0.475000X0.337500X0.475000X-0.337500X0.475000X0*%
%TD*%
%TA.AperFunction,SMDPad,CuDef*%
%ADD19RoundRect,0.250000X0.450000X-0.350000X0.450000X0.350000X-0.450000X0.350000X-0.450000X-0.350000X0*%
%TD*%
%TA.AperFunction,ComponentPad*%
%ADD20C,2.000000*%
%TD*%
%TA.AperFunction,ComponentPad*%
%ADD21C,1.500000*%
%TD*%
%TA.AperFunction,SMDPad,CuDef*%
%ADD22RoundRect,0.250000X0.450000X-0.325000X0.450000X0.325000X-0.450000X0.325000X-0.450000X-0.325000X0*%
%TD*%
%TA.AperFunction,ComponentPad*%
%ADD23RoundRect,0.400000X-0.400000X-0.400000X0.400000X-0.400000X0.400000X0.400000X-0.400000X0.400000X0*%
%TD*%
%TA.AperFunction,SMDPad,CuDef*%
%ADD24R,1.300000X0.450000*%
%TD*%
%TA.AperFunction,ComponentPad*%
%ADD25O,1.800000X1.150000*%
%TD*%
%TA.AperFunction,ComponentPad*%
%ADD26O,2.000000X1.450000*%
%TD*%
%TA.AperFunction,SMDPad,CuDef*%
%ADD27RoundRect,0.250000X0.337500X0.475000X-0.337500X0.475000X-0.337500X-0.475000X0.337500X-0.475000X0*%
%TD*%
%TA.AperFunction,SMDPad,CuDef*%
%ADD28RoundRect,0.250000X-0.450000X0.350000X-0.450000X-0.350000X0.450000X-0.350000X0.450000X0.350000X0*%
%TD*%
%TA.AperFunction,SMDPad,CuDef*%
%ADD29RoundRect,0.150000X0.150000X-0.825000X0.150000X0.825000X-0.150000X0.825000X-0.150000X-0.825000X0*%
%TD*%
%TA.AperFunction,SMDPad,CuDef*%
%ADD30RoundRect,0.250000X-0.350000X-0.450000X0.350000X-0.450000X0.350000X0.450000X-0.350000X0.450000X0*%
%TD*%
%TA.AperFunction,SMDPad,CuDef*%
%ADD31RoundRect,0.250000X-0.475000X0.337500X-0.475000X-0.337500X0.475000X-0.337500X0.475000X0.337500X0*%
%TD*%
%TA.AperFunction,SMDPad,CuDef*%
%ADD32R,2.000000X1.500000*%
%TD*%
%TA.AperFunction,SMDPad,CuDef*%
%ADD33R,2.000000X3.800000*%
%TD*%
%TA.AperFunction,SMDPad,CuDef*%
%ADD34RoundRect,0.250000X0.475000X-0.337500X0.475000X0.337500X-0.475000X0.337500X-0.475000X-0.337500X0*%
%TD*%
%TA.AperFunction,SMDPad,CuDef*%
%ADD35RoundRect,0.250000X0.325000X0.450000X-0.325000X0.450000X-0.325000X-0.450000X0.325000X-0.450000X0*%
%TD*%
%TA.AperFunction,ComponentPad*%
%ADD36C,1.700000*%
%TD*%
%TA.AperFunction,SMDPad,CuDef*%
%ADD37RoundRect,0.250000X-0.450000X0.325000X-0.450000X-0.325000X0.450000X-0.325000X0.450000X0.325000X0*%
%TD*%
%TA.AperFunction,ComponentPad*%
%ADD38R,1.140000X1.140000*%
%TD*%
%TA.AperFunction,ComponentPad*%
%ADD39C,1.140000*%
%TD*%
%TA.AperFunction,ViaPad*%
%ADD40C,0.800000*%
%TD*%
%TA.AperFunction,Conductor*%
%ADD41C,0.250000*%
%TD*%
%TA.AperFunction,Conductor*%
%ADD42C,0.200000*%
%TD*%
%TA.AperFunction,Conductor*%
%ADD43C,0.300000*%
%TD*%
G04 APERTURE END LIST*
D10*
%TO.P,J5,1,Pin_1*%
%TO.N,/SPI_1_MOSI*%
X155250000Y-120750000D03*
D11*
%TO.P,J5,2,Pin_2*%
%TO.N,/SPI_1_MISO*%
X152710000Y-120750000D03*
%TO.P,J5,3,Pin_3*%
%TO.N,/SPI_1_SCK*%
X150170000Y-120750000D03*
%TD*%
D12*
%TO.P,U4,1,VBAT*%
%TO.N,+3.3V*%
X144337500Y-90250000D03*
%TO.P,U4,2,PC13*%
%TO.N,/PC13*%
X144337500Y-90750000D03*
%TO.P,U4,3,PC14*%
%TO.N,/PC14*%
X144337500Y-91250000D03*
%TO.P,U4,4,PC15*%
%TO.N,/PC15*%
X144337500Y-91750000D03*
%TO.P,U4,5,PD0*%
%TO.N,/OSC_IN*%
X144337500Y-92250000D03*
%TO.P,U4,6,PD1*%
%TO.N,/OSC_OUT*%
X144337500Y-92750000D03*
%TO.P,U4,7,NRST*%
%TO.N,/RESET*%
X144337500Y-93250000D03*
%TO.P,U4,8,VSSA*%
%TO.N,GND*%
X144337500Y-93750000D03*
%TO.P,U4,9,VDDA*%
%TO.N,+3.3V*%
X144337500Y-94250000D03*
%TO.P,U4,10,PA0*%
%TO.N,/LED1*%
X144337500Y-94750000D03*
%TO.P,U4,11,PA1*%
%TO.N,/LED2*%
X144337500Y-95250000D03*
%TO.P,U4,12,PA2*%
%TO.N,/UART_2_Tx*%
X144337500Y-95750000D03*
D13*
%TO.P,U4,13,PA3*%
%TO.N,/UART_2_Rx*%
X145750000Y-97162500D03*
%TO.P,U4,14,PA4*%
%TO.N,/Display_D*%
X146250000Y-97162500D03*
%TO.P,U4,15,PA5*%
%TO.N,/SPI_1_SCK*%
X146750000Y-97162500D03*
%TO.P,U4,16,PA6*%
%TO.N,/SPI_1_MISO*%
X147250000Y-97162500D03*
%TO.P,U4,17,PA7*%
%TO.N,/SPI_1_MOSI*%
X147750000Y-97162500D03*
%TO.P,U4,18,PB0*%
%TO.N,/Display_C*%
X148250000Y-97162500D03*
%TO.P,U4,19,PB1*%
%TO.N,/Display_B*%
X148750000Y-97162500D03*
%TO.P,U4,20,PB2*%
%TO.N,/Display_A*%
X149250000Y-97162500D03*
%TO.P,U4,21,PB10*%
%TO.N,/UART_3_Tx*%
X149750000Y-97162500D03*
%TO.P,U4,22,PB11*%
%TO.N,/UART_3_Rx*%
X150250000Y-97162500D03*
%TO.P,U4,23,VSS*%
%TO.N,GND*%
X150750000Y-97162500D03*
%TO.P,U4,24,VDD*%
%TO.N,+3.3V*%
X151250000Y-97162500D03*
D12*
%TO.P,U4,25,PB12*%
%TO.N,/Usr_Push_btn*%
X152662500Y-95750000D03*
%TO.P,U4,26,PB13*%
%TO.N,/SPI_2_SCK*%
X152662500Y-95250000D03*
%TO.P,U4,27,PB14*%
%TO.N,/SPI_2_MISO*%
X152662500Y-94750000D03*
%TO.P,U4,28,PB15*%
%TO.N,/SPI_2_MOSI*%
X152662500Y-94250000D03*
%TO.P,U4,29,PA8*%
%TO.N,/CS*%
X152662500Y-93750000D03*
%TO.P,U4,30,PA9*%
%TO.N,/A9*%
X152662500Y-93250000D03*
%TO.P,U4,31,PA10*%
%TO.N,/A10*%
X152662500Y-92750000D03*
%TO.P,U4,32,PA11*%
%TO.N,/USB_D-*%
X152662500Y-92250000D03*
%TO.P,U4,33,PA12*%
%TO.N,/USB_D+*%
X152662500Y-91750000D03*
%TO.P,U4,34,PA13*%
%TO.N,/SW_DIO*%
X152662500Y-91250000D03*
%TO.P,U4,35,VSS*%
%TO.N,GND*%
X152662500Y-90750000D03*
%TO.P,U4,36,VDD*%
%TO.N,+3.3V*%
X152662500Y-90250000D03*
D13*
%TO.P,U4,37,PA14*%
%TO.N,/SW_SCK*%
X151250000Y-88837500D03*
%TO.P,U4,38,PA15*%
%TO.N,/PA15*%
X150750000Y-88837500D03*
%TO.P,U4,39,PB3*%
%TO.N,/SW_Trace*%
X150250000Y-88837500D03*
%TO.P,U4,40,PB4*%
%TO.N,/PB4*%
X149750000Y-88837500D03*
%TO.P,U4,41,PB5*%
%TO.N,/PB5*%
X149250000Y-88837500D03*
%TO.P,U4,42,PB6*%
%TO.N,/I2C_1_SCL*%
X148750000Y-88837500D03*
%TO.P,U4,43,PB7*%
%TO.N,/I2C_1_SDA*%
X148250000Y-88837500D03*
%TO.P,U4,44,BOOT0*%
%TO.N,/BOOT0*%
X147750000Y-88837500D03*
%TO.P,U4,45,PB8*%
%TO.N,/CAN_Rx*%
X147250000Y-88837500D03*
%TO.P,U4,46,PB9*%
%TO.N,/CAN_Tx*%
X146750000Y-88837500D03*
%TO.P,U4,47,VSS*%
%TO.N,GND*%
X146250000Y-88837500D03*
%TO.P,U4,48,VDD*%
%TO.N,+3.3V*%
X145750000Y-88837500D03*
%TD*%
D14*
%TO.P,R3,2*%
%TO.N,Net-(R3-Pad2)*%
X145250000Y-120250000D03*
%TO.P,R3,1*%
%TO.N,VBUS*%
X147250000Y-120250000D03*
%TD*%
D15*
%TO.P,J10,0,PAD*%
%TO.N,unconnected-(J10-Pad0)*%
X160460000Y-66200000D03*
X135460000Y-66200000D03*
D16*
%TO.P,J10,1,1*%
%TO.N,/PA15*%
X153500000Y-66500000D03*
D17*
%TO.P,J10,2,2*%
%TO.N,Net-(J10-Pad2)*%
X150730000Y-66500000D03*
%TO.P,J10,3,3*%
%TO.N,GND*%
X147960000Y-66500000D03*
%TO.P,J10,4,4*%
%TO.N,unconnected-(J10-Pad4)*%
X145190000Y-66500000D03*
%TO.P,J10,5,5*%
%TO.N,unconnected-(J10-Pad5)*%
X142420000Y-66500000D03*
%TO.P,J10,6,6*%
%TO.N,GND*%
X152115000Y-63660000D03*
%TO.P,J10,7,7*%
%TO.N,Net-(J10-Pad7)*%
X149345000Y-63660000D03*
%TO.P,J10,8,8*%
%TO.N,unconnected-(J10-Pad8)*%
X146575000Y-63660000D03*
%TO.P,J10,9,9*%
%TO.N,VBUS*%
X143805000Y-63660000D03*
%TD*%
D18*
%TO.P,C2,1*%
%TO.N,VBUS*%
X176212500Y-99750000D03*
%TO.P,C2,2*%
%TO.N,GND*%
X178287500Y-99750000D03*
%TD*%
D19*
%TO.P,R17,1*%
%TO.N,Net-(D2-Pad2)*%
X144000000Y-100250000D03*
%TO.P,R17,2*%
%TO.N,/LED1*%
X144000000Y-98250000D03*
%TD*%
D14*
%TO.P,R1,2*%
%TO.N,Net-(R1-Pad2)*%
X145250000Y-115750000D03*
%TO.P,R1,1*%
%TO.N,VBUS*%
X147250000Y-115750000D03*
%TD*%
D18*
%TO.P,C7,1*%
%TO.N,+3.3V*%
X143212500Y-86250000D03*
%TO.P,C7,2*%
%TO.N,GND*%
X145287500Y-86250000D03*
%TD*%
D20*
%TO.P,SW3,1,1*%
%TO.N,GND*%
X175750000Y-108000000D03*
X182250000Y-108000000D03*
%TO.P,SW3,2,2*%
%TO.N,/Usr_Push_btn*%
X175750000Y-112500000D03*
X182250000Y-112500000D03*
%TD*%
D21*
%TO.P,Y1,1,1*%
%TO.N,Net-(C3-Pad1)*%
X130250000Y-93000000D03*
%TO.P,Y1,2,2*%
%TO.N,/OSC_IN*%
X130250000Y-88120000D03*
%TD*%
D10*
%TO.P,J3,1,Pin_1*%
%TO.N,/PA15*%
X176500000Y-80850000D03*
D11*
%TO.P,J3,2,Pin_2*%
%TO.N,/SW_Trace*%
X176500000Y-78310000D03*
%TO.P,J3,3,Pin_3*%
%TO.N,/PB4*%
X176500000Y-75770000D03*
%TO.P,J3,4,Pin_4*%
%TO.N,/PB5*%
X176500000Y-73230000D03*
%TO.P,J3,5,Pin_5*%
%TO.N,/I2C_1_SCL*%
X176500000Y-70690000D03*
%TO.P,J3,6,Pin_6*%
%TO.N,/I2C_1_SDA*%
X176500000Y-68150000D03*
%TD*%
D10*
%TO.P,J6,1,Pin_1*%
%TO.N,/UART_2_Rx*%
X123000000Y-103275000D03*
D11*
%TO.P,J6,2,Pin_2*%
%TO.N,/UART_2_Tx*%
X123000000Y-100735000D03*
%TD*%
D22*
%TO.P,D2,1,K*%
%TO.N,GND*%
X144000000Y-104275000D03*
%TO.P,D2,2,A*%
%TO.N,Net-(D2-Pad2)*%
X144000000Y-102225000D03*
%TD*%
D17*
%TO.P,SW2,*%
%TO.N,*%
X113010000Y-63290000D03*
X113010000Y-58210000D03*
D23*
%TO.P,SW2,1,A*%
%TO.N,GND*%
X118090000Y-63290000D03*
D17*
%TO.P,SW2,2,B*%
%TO.N,Net-(R7-Pad1)*%
X118090000Y-60750000D03*
%TO.P,SW2,3,C*%
%TO.N,+3.3V*%
X118090000Y-58210000D03*
%TD*%
D24*
%TO.P,J9,1,VBUS*%
%TO.N,VBUS*%
X180095000Y-92805000D03*
%TO.P,J9,2,D-*%
%TO.N,/USB_D-*%
X180095000Y-92155000D03*
%TO.P,J9,3,D+*%
%TO.N,/USB_D+*%
X180095000Y-91505000D03*
%TO.P,J9,4,ID*%
%TO.N,unconnected-(J9-Pad4)*%
X180095000Y-90855000D03*
%TO.P,J9,5,GND*%
%TO.N,GND*%
X180095000Y-90205000D03*
D25*
%TO.P,J9,6,Shield*%
%TO.N,unconnected-(J9-Pad6)*%
X183945000Y-87630000D03*
D26*
X180145000Y-95230000D03*
X180145000Y-87780000D03*
D25*
X183945000Y-95380000D03*
%TD*%
D19*
%TO.P,R13,1*%
%TO.N,Net-(R13-Pad1)*%
X106100000Y-119220000D03*
%TO.P,R13,2*%
%TO.N,Net-(R13-Pad2)*%
X106100000Y-117220000D03*
%TD*%
D27*
%TO.P,C11,1*%
%TO.N,+3.3V*%
X153750000Y-102250000D03*
%TO.P,C11,2*%
%TO.N,GND*%
X151675000Y-102250000D03*
%TD*%
D28*
%TO.P,R7,1*%
%TO.N,Net-(R7-Pad1)*%
X141250000Y-84500000D03*
%TO.P,R7,2*%
%TO.N,/BOOT0*%
X141250000Y-86500000D03*
%TD*%
D19*
%TO.P,R8,1*%
%TO.N,Net-(R8-Pad1)*%
X111100000Y-119220000D03*
%TO.P,R8,2*%
%TO.N,Net-(R8-Pad2)*%
X111100000Y-117220000D03*
%TD*%
%TO.P,R15,1*%
%TO.N,/USB_D+*%
X161500000Y-90250000D03*
%TO.P,R15,2*%
%TO.N,+3.3V*%
X161500000Y-88250000D03*
%TD*%
D29*
%TO.P,U5,1,TXD*%
%TO.N,/CAN_Tx*%
X146345000Y-81975000D03*
%TO.P,U5,2,VSS*%
%TO.N,GND*%
X147615000Y-81975000D03*
%TO.P,U5,3,VDD*%
%TO.N,VBUS*%
X148885000Y-81975000D03*
%TO.P,U5,4,RXD*%
%TO.N,/CAN_Rx*%
X150155000Y-81975000D03*
%TO.P,U5,5,Vref*%
%TO.N,unconnected-(U5-Pad5)*%
X150155000Y-77025000D03*
%TO.P,U5,6,CANL*%
%TO.N,Net-(J10-Pad2)*%
X148885000Y-77025000D03*
%TO.P,U5,7,CANH*%
%TO.N,Net-(J10-Pad7)*%
X147615000Y-77025000D03*
%TO.P,U5,8,Rs*%
%TO.N,GND*%
X146345000Y-77025000D03*
%TD*%
D10*
%TO.P,J1,1,Pin_1*%
%TO.N,GND*%
X157450000Y-84500000D03*
D11*
%TO.P,J1,2,Pin_2*%
%TO.N,/SW_SCK*%
X159990000Y-84500000D03*
%TO.P,J1,3,Pin_3*%
%TO.N,/SW_DIO*%
X162530000Y-84500000D03*
%TO.P,J1,4,Pin_4*%
%TO.N,+3.3V*%
X165070000Y-84500000D03*
%TD*%
%TO.P,J2,3,Pin_3*%
%TO.N,/PC15*%
X109750000Y-77055000D03*
%TO.P,J2,2,Pin_2*%
%TO.N,/PC14*%
X109750000Y-74515000D03*
D10*
%TO.P,J2,1,Pin_1*%
%TO.N,/PC13*%
X109750000Y-71975000D03*
%TD*%
D27*
%TO.P,C12,1*%
%TO.N,+3.3V*%
X153750000Y-100000000D03*
%TO.P,C12,2*%
%TO.N,GND*%
X151675000Y-100000000D03*
%TD*%
D19*
%TO.P,R11,1*%
%TO.N,Net-(R11-Pad1)*%
X118600000Y-119220000D03*
%TO.P,R11,2*%
%TO.N,Net-(R11-Pad2)*%
X118600000Y-117220000D03*
%TD*%
D30*
%TO.P,R18,1*%
%TO.N,Net-(D3-Pad2)*%
X138250000Y-103750000D03*
%TO.P,R18,2*%
%TO.N,/LED2*%
X140250000Y-103750000D03*
%TD*%
D19*
%TO.P,R12,1*%
%TO.N,Net-(R12-Pad1)*%
X121350000Y-119220000D03*
%TO.P,R12,2*%
%TO.N,Net-(R12-Pad2)*%
X121350000Y-117220000D03*
%TD*%
D10*
%TO.P,J8,1,Pin_1*%
%TO.N,/UART_3_Tx*%
X159250000Y-120750000D03*
D11*
%TO.P,J8,2,Pin_2*%
%TO.N,/UART_3_Rx*%
X161790000Y-120750000D03*
%TO.P,J8,3,Pin_3*%
%TO.N,GND*%
X164330000Y-120750000D03*
%TO.P,J8,4,Pin_4*%
%TO.N,VBUS*%
X166870000Y-120750000D03*
%TD*%
D14*
%TO.P,R2,1*%
%TO.N,VBUS*%
X147250000Y-118000000D03*
%TO.P,R2,2*%
%TO.N,Net-(R2-Pad2)*%
X145250000Y-118000000D03*
%TD*%
D20*
%TO.P,SW1,1,1*%
%TO.N,GND*%
X134500000Y-99250000D03*
X128000000Y-99250000D03*
%TO.P,SW1,2,2*%
%TO.N,/RESET*%
X134500000Y-103750000D03*
X128000000Y-103750000D03*
%TD*%
D18*
%TO.P,C5,1*%
%TO.N,GND*%
X135462500Y-90000000D03*
%TO.P,C5,2*%
%TO.N,/OSC_IN*%
X137537500Y-90000000D03*
%TD*%
D31*
%TO.P,C6,1*%
%TO.N,+3.3V*%
X156000000Y-88175000D03*
%TO.P,C6,2*%
%TO.N,GND*%
X156000000Y-90250000D03*
%TD*%
D32*
%TO.P,U1,1,GND*%
%TO.N,GND*%
X172650000Y-106300000D03*
%TO.P,U1,2,VO*%
%TO.N,+3.3V*%
X172650000Y-104000000D03*
D33*
X166350000Y-104000000D03*
D32*
%TO.P,U1,3,VI*%
%TO.N,VBUS*%
X172650000Y-101700000D03*
%TD*%
D34*
%TO.P,C1,1*%
%TO.N,/RESET*%
X138000000Y-100787500D03*
%TO.P,C1,2*%
%TO.N,GND*%
X138000000Y-98712500D03*
%TD*%
%TO.P,C9,1*%
%TO.N,+3.3V*%
X140500000Y-96287500D03*
%TO.P,C9,2*%
%TO.N,GND*%
X140500000Y-94212500D03*
%TD*%
D28*
%TO.P,R4,1*%
%TO.N,+3.3V*%
X140500000Y-98750000D03*
%TO.P,R4,2*%
%TO.N,/RESET*%
X140500000Y-100750000D03*
%TD*%
D18*
%TO.P,C4,1*%
%TO.N,+3.3V*%
X176212500Y-102500000D03*
%TO.P,C4,2*%
%TO.N,GND*%
X178287500Y-102500000D03*
%TD*%
D14*
%TO.P,R16,1*%
%TO.N,Net-(J10-Pad2)*%
X149250000Y-73500000D03*
%TO.P,R16,2*%
%TO.N,Net-(J10-Pad7)*%
X147250000Y-73500000D03*
%TD*%
D35*
%TO.P,D3,1,K*%
%TO.N,GND*%
X140275000Y-106000000D03*
%TO.P,D3,2,A*%
%TO.N,Net-(D3-Pad2)*%
X138225000Y-106000000D03*
%TD*%
D19*
%TO.P,R9,1*%
%TO.N,Net-(R9-Pad1)*%
X113350000Y-119220000D03*
%TO.P,R9,2*%
%TO.N,Net-(R9-Pad2)*%
X113350000Y-117220000D03*
%TD*%
D31*
%TO.P,C3,1*%
%TO.N,Net-(C3-Pad1)*%
X135750000Y-94175000D03*
%TO.P,C3,2*%
%TO.N,GND*%
X135750000Y-96250000D03*
%TD*%
D19*
%TO.P,R14,1*%
%TO.N,Net-(R14-Pad1)*%
X108600000Y-119220000D03*
%TO.P,R14,2*%
%TO.N,Net-(R14-Pad2)*%
X108600000Y-117220000D03*
%TD*%
D34*
%TO.P,C8,1*%
%TO.N,+3.3V*%
X138250000Y-96287500D03*
%TO.P,C8,2*%
%TO.N,GND*%
X138250000Y-94212500D03*
%TD*%
D14*
%TO.P,R5,1*%
%TO.N,/OSC_OUT*%
X137500000Y-92250000D03*
%TO.P,R5,2*%
%TO.N,Net-(C3-Pad1)*%
X135500000Y-92250000D03*
%TD*%
D10*
%TO.P,U3,1,CA*%
%TO.N,VBUS*%
X108817500Y-94047500D03*
D36*
%TO.P,U3,2,F*%
%TO.N,Net-(R13-Pad2)*%
X108817500Y-96587500D03*
%TO.P,U3,3,G*%
%TO.N,Net-(R14-Pad2)*%
X108817500Y-99127500D03*
%TO.P,U3,4,E*%
%TO.N,Net-(R12-Pad2)*%
X108817500Y-101667500D03*
%TO.P,U3,5,D*%
%TO.N,Net-(R11-Pad2)*%
X108817500Y-104207500D03*
%TO.P,U3,6,CA*%
%TO.N,VBUS*%
X116437500Y-104207500D03*
%TO.P,U3,7,DP*%
%TO.N,unconnected-(U3-Pad7)*%
X116437500Y-101667500D03*
%TO.P,U3,8,C*%
%TO.N,Net-(R10-Pad2)*%
X116437500Y-99127500D03*
%TO.P,U3,9,B*%
%TO.N,Net-(R9-Pad2)*%
X116437500Y-96587500D03*
%TO.P,U3,10,A*%
%TO.N,Net-(R8-Pad2)*%
X116437500Y-94047500D03*
%TD*%
D37*
%TO.P,D1,1,K*%
%TO.N,GND*%
X181250000Y-101725000D03*
%TO.P,D1,2,A*%
%TO.N,Net-(D1-Pad2)*%
X181250000Y-103775000D03*
%TD*%
D14*
%TO.P,R6,1*%
%TO.N,Net-(D1-Pad2)*%
X178250000Y-105250000D03*
%TO.P,R6,2*%
%TO.N,+3.3V*%
X176250000Y-105250000D03*
%TD*%
D19*
%TO.P,R10,1*%
%TO.N,Net-(R10-Pad1)*%
X116100000Y-119220000D03*
%TO.P,R10,2*%
%TO.N,Net-(R10-Pad2)*%
X116100000Y-117220000D03*
%TD*%
D10*
%TO.P,J4,1,Pin_1*%
%TO.N,VBUS*%
X109500000Y-83500000D03*
D11*
%TO.P,J4,2,Pin_2*%
%TO.N,GND*%
X112040000Y-83500000D03*
%TO.P,J4,3,Pin_3*%
X109500000Y-86040000D03*
%TO.P,J4,4,Pin_4*%
%TO.N,+3.3V*%
X112040000Y-86040000D03*
%TD*%
D38*
%TO.P,U2,1,B*%
%TO.N,/Display_B*%
X141890000Y-113530000D03*
D39*
%TO.P,U2,2,C*%
%TO.N,/Display_C*%
X139350000Y-113530000D03*
%TO.P,U2,3,LT*%
%TO.N,Net-(R1-Pad2)*%
X136810000Y-113530000D03*
%TO.P,U2,4,BI*%
%TO.N,Net-(R2-Pad2)*%
X134270000Y-113530000D03*
%TO.P,U2,5,RBI*%
%TO.N,Net-(R3-Pad2)*%
X131730000Y-113530000D03*
%TO.P,U2,6,D*%
%TO.N,/Display_D*%
X129190000Y-113530000D03*
%TO.P,U2,7,A*%
%TO.N,/Display_A*%
X126650000Y-113530000D03*
%TO.P,U2,8,GND*%
%TO.N,GND*%
X124110000Y-113530000D03*
%TO.P,U2,9,e*%
%TO.N,Net-(R12-Pad1)*%
X124110000Y-121470000D03*
%TO.P,U2,10,d*%
%TO.N,Net-(R11-Pad1)*%
X126650000Y-121470000D03*
%TO.P,U2,11,c*%
%TO.N,Net-(R10-Pad1)*%
X129190000Y-121470000D03*
%TO.P,U2,12,b*%
%TO.N,Net-(R9-Pad1)*%
X131730000Y-121470000D03*
%TO.P,U2,13,a*%
%TO.N,Net-(R8-Pad1)*%
X134270000Y-121470000D03*
%TO.P,U2,14,g*%
%TO.N,Net-(R14-Pad1)*%
X136810000Y-121470000D03*
%TO.P,U2,15,f*%
%TO.N,Net-(R13-Pad1)*%
X139350000Y-121470000D03*
%TO.P,U2,16,VCC*%
%TO.N,VBUS*%
X141890000Y-121470000D03*
%TD*%
D31*
%TO.P,C10,1*%
%TO.N,+3.3V*%
X158500000Y-88175000D03*
%TO.P,C10,2*%
%TO.N,GND*%
X158500000Y-90250000D03*
%TD*%
D10*
%TO.P,J7,1,Pin_1*%
%TO.N,unconnected-(J7-Pad1)*%
X180830000Y-118210000D03*
D11*
%TO.P,J7,2,Pin_2*%
%TO.N,unconnected-(J7-Pad2)*%
X180830000Y-120750000D03*
%TO.P,J7,3,Pin_3*%
%TO.N,unconnected-(J7-Pad3)*%
X178290000Y-118210000D03*
%TO.P,J7,4,Pin_4*%
%TO.N,/SPI_2_MISO*%
X178290000Y-120750000D03*
%TO.P,J7,5,Pin_5*%
%TO.N,/SPI_2_MOSI*%
X175750000Y-118210000D03*
%TO.P,J7,6,Pin_6*%
%TO.N,/SPI_2_SCK*%
X175750000Y-120750000D03*
%TO.P,J7,7,Pin_7*%
%TO.N,/CS*%
X173210000Y-118210000D03*
%TO.P,J7,8,Pin_8*%
%TO.N,unconnected-(J7-Pad8)*%
X173210000Y-120750000D03*
%TO.P,J7,9,Pin_9*%
%TO.N,+3.3V*%
X170670000Y-118210000D03*
%TO.P,J7,10,Pin_10*%
%TO.N,GND*%
X170670000Y-120750000D03*
%TD*%
D40*
%TO.N,/RESET*%
X139250000Y-102250000D03*
%TO.N,/LED1*%
X142000000Y-104000000D03*
%TO.N,VBUS*%
X147750000Y-79750000D03*
%TO.N,GND*%
X157250000Y-90250000D03*
X159000000Y-81750000D03*
%TO.N,/PA15*%
X162500000Y-79500000D03*
%TO.N,/Usr_Push_btn*%
X156000000Y-98250000D03*
%TO.N,GND*%
X144000000Y-77000000D03*
%TO.N,+3.3V*%
X143250000Y-83750000D03*
%TO.N,GND*%
X134000000Y-96000000D03*
X123250000Y-96750000D03*
%TO.N,+3.3V*%
X138000000Y-97500000D03*
%TO.N,GND*%
X152500000Y-104000000D03*
X145500000Y-84500000D03*
X147750000Y-84000000D03*
X133750000Y-90000000D03*
X180750000Y-99750000D03*
X143750000Y-106000000D03*
%TO.N,+3.3V*%
X144500000Y-87750000D03*
X153529977Y-89029977D03*
X151250000Y-95500000D03*
%TO.N,VBUS*%
X131500000Y-79500000D03*
%TO.N,+3.3V*%
X140000000Y-80750000D03*
%TO.N,/LED1*%
X141799500Y-98750000D03*
%TO.N,/RESET*%
X145750000Y-95750000D03*
%TO.N,Net-(R11-Pad2)*%
X118500000Y-114750000D03*
%TO.N,Net-(R12-Pad2)*%
X120250000Y-114750000D03*
%TO.N,VBUS*%
X149000000Y-115500000D03*
X169750000Y-111000000D03*
X169750000Y-102000000D03*
%TO.N,+3.3V*%
X166350000Y-113890000D03*
%TO.N,/Display_C*%
X154250000Y-110500000D03*
%TO.N,/Display_B*%
X156000000Y-111750000D03*
%TO.N,/Display_A*%
X157000000Y-109000000D03*
%TO.N,/CS*%
X162000000Y-97500000D03*
%TO.N,/SPI_2_MOSI*%
X162500000Y-99500000D03*
%TO.N,/SPI_2_SCK*%
X161500000Y-102000000D03*
%TO.N,/SPI_2_MISO*%
X163250000Y-102000000D03*
%TD*%
D41*
%TO.N,/USB_D+*%
X161500000Y-90250000D02*
X161500000Y-91750000D01*
%TO.N,unconnected-(J9-Pad6)*%
X183945000Y-87630000D02*
X183945000Y-95380000D01*
X180145000Y-95230000D02*
X183795000Y-95230000D01*
X183795000Y-95230000D02*
X183945000Y-95380000D01*
X180145000Y-87780000D02*
X183795000Y-87780000D01*
X183795000Y-87780000D02*
X183945000Y-87630000D01*
D42*
%TO.N,/USB_D-*%
X178763698Y-92225000D02*
X178833698Y-92155000D01*
X178833698Y-92155000D02*
X180095000Y-92155000D01*
%TO.N,/USB_D+*%
X152687499Y-91774999D02*
X178577298Y-91775000D01*
X152662500Y-91750000D02*
X152687499Y-91774999D01*
X178577298Y-91775000D02*
X178847298Y-91505000D01*
X178847298Y-91505000D02*
X180095000Y-91505000D01*
%TO.N,/USB_D-*%
X152662500Y-92250000D02*
X152687499Y-92225001D01*
X152687499Y-92225001D02*
X178763698Y-92225000D01*
D41*
%TO.N,GND*%
X167250000Y-81750000D02*
X170750000Y-85250000D01*
X159000000Y-81750000D02*
X167250000Y-81750000D01*
X170750000Y-85250000D02*
X170750000Y-90500000D01*
X170750000Y-90500000D02*
X171045000Y-90205000D01*
X171045000Y-90205000D02*
X180095000Y-90205000D01*
D42*
%TO.N,/USB_D-*%
X180525000Y-92225000D02*
X180595000Y-92155000D01*
%TO.N,/USB_D+*%
X179690498Y-91505000D02*
X180595000Y-91505000D01*
D43*
%TO.N,VBUS*%
X172650000Y-95000000D02*
X174845000Y-92805000D01*
X172650000Y-101700000D02*
X172650000Y-95000000D01*
X174845000Y-92805000D02*
X180595000Y-92805000D01*
D41*
%TO.N,GND*%
X180595000Y-90205000D02*
X179870000Y-90205000D01*
%TO.N,/RESET*%
X139250000Y-102250000D02*
X139250000Y-102037500D01*
X139250000Y-102037500D02*
X138000000Y-100787500D01*
%TO.N,/LED1*%
X142000000Y-104000000D02*
X142000000Y-103000000D01*
X143974500Y-98250000D02*
X144000000Y-98250000D01*
X142000000Y-103000000D02*
X142974500Y-102025500D01*
X142974500Y-102025500D02*
X142974500Y-99250000D01*
X142974500Y-99250000D02*
X143974500Y-98250000D01*
%TO.N,/LED2*%
X142524500Y-96259815D02*
X142524500Y-101475500D01*
%TO.N,/RESET*%
X138000000Y-100787500D02*
X138037500Y-100750000D01*
X138037500Y-100750000D02*
X140500000Y-100750000D01*
D43*
%TO.N,/OSC_IN*%
X130250000Y-88120000D02*
X131433932Y-88120000D01*
X131433932Y-88120000D02*
X131591966Y-88278034D01*
%TO.N,Net-(C3-Pad1)*%
X130250000Y-93000000D02*
X131000000Y-93750000D01*
%TO.N,VBUS*%
X148885000Y-81975000D02*
X148885000Y-80885000D01*
X148885000Y-80885000D02*
X147750000Y-79750000D01*
%TO.N,GND*%
X157250000Y-90250000D02*
X158500000Y-90250000D01*
X156000000Y-90250000D02*
X157250000Y-90250000D01*
X157450000Y-84500000D02*
X157450000Y-83300000D01*
X157450000Y-83300000D02*
X159000000Y-81750000D01*
%TO.N,/PA15*%
X157400000Y-80850000D02*
X162350000Y-80850000D01*
X162350000Y-79650000D02*
X162500000Y-79500000D01*
X162350000Y-80850000D02*
X176500000Y-80850000D01*
X162350000Y-80850000D02*
X162350000Y-79650000D01*
%TO.N,/Usr_Push_btn*%
X152662500Y-95750000D02*
X153500000Y-95750000D01*
X153500000Y-95750000D02*
X156000000Y-98250000D01*
%TO.N,GND*%
X146345000Y-77025000D02*
X144025000Y-77025000D01*
X144025000Y-77025000D02*
X144000000Y-77000000D01*
%TO.N,+3.3V*%
X143212500Y-86250000D02*
X143212500Y-83787500D01*
X143212500Y-83787500D02*
X143250000Y-83750000D01*
%TO.N,GND*%
X135750000Y-96250000D02*
X134250000Y-96250000D01*
X134250000Y-96250000D02*
X134000000Y-96000000D01*
X128000000Y-99250000D02*
X125750000Y-99250000D01*
X125750000Y-99250000D02*
X123250000Y-96750000D01*
D41*
%TO.N,+3.3V*%
X138000000Y-96537500D02*
X138250000Y-96287500D01*
X138000000Y-97500000D02*
X138000000Y-96537500D01*
D43*
%TO.N,GND*%
X151675000Y-103175000D02*
X152500000Y-104000000D01*
X151675000Y-102250000D02*
X151675000Y-103175000D01*
X145287500Y-86250000D02*
X145287500Y-84712500D01*
X145287500Y-84712500D02*
X145500000Y-84500000D01*
X147615000Y-81975000D02*
X147615000Y-83865000D01*
X147615000Y-83865000D02*
X147750000Y-84000000D01*
X135462500Y-90000000D02*
X133750000Y-90000000D01*
%TO.N,/OSC_IN*%
X131591966Y-88278034D02*
X135815534Y-88278034D01*
X135815534Y-88278034D02*
X137537500Y-90000000D01*
%TO.N,Net-(D1-Pad2)*%
X178250000Y-105250000D02*
X179775000Y-105250000D01*
X179775000Y-105250000D02*
X181250000Y-103775000D01*
%TO.N,GND*%
X178287500Y-102500000D02*
X178287500Y-102212500D01*
X178287500Y-102212500D02*
X180750000Y-99750000D01*
D41*
X142387500Y-105887500D02*
X142500000Y-106000000D01*
X142500000Y-106000000D02*
X143750000Y-106000000D01*
X142387500Y-105887500D02*
X144000000Y-104275000D01*
X142275000Y-106000000D02*
X142387500Y-105887500D01*
D43*
%TO.N,+3.3V*%
X144500000Y-87750000D02*
X144662500Y-87750000D01*
X144662500Y-87750000D02*
X145750000Y-88837500D01*
%TO.N,Net-(D2-Pad2)*%
X144000000Y-100250000D02*
X144000000Y-102225000D01*
%TO.N,+3.3V*%
X153529977Y-89029977D02*
X153529977Y-89382523D01*
X153529977Y-89382523D02*
X152662500Y-90250000D01*
X151250000Y-97162500D02*
X151250000Y-95500000D01*
%TO.N,/PA15*%
X150750000Y-88837500D02*
X150750000Y-87500000D01*
X150750000Y-87500000D02*
X157400000Y-80850000D01*
%TO.N,/SW_Trace*%
X150250000Y-88837500D02*
X150250000Y-87250000D01*
X150250000Y-87250000D02*
X159190000Y-78310000D01*
X159190000Y-78310000D02*
X176500000Y-78310000D01*
%TO.N,/PB4*%
X149750000Y-86957106D02*
X160853553Y-75853553D01*
X176500000Y-75770000D02*
X160937106Y-75770000D01*
X160937106Y-75770000D02*
X160853553Y-75853553D01*
X149750000Y-88837500D02*
X149750000Y-86957106D01*
%TO.N,/PB5*%
X149250000Y-86750000D02*
X162750000Y-73250000D01*
X176500000Y-73230000D02*
X162770000Y-73230000D01*
X162770000Y-73230000D02*
X162750000Y-73250000D01*
X149250000Y-88837500D02*
X149250000Y-86750000D01*
%TO.N,/I2C_1_SCL*%
X148750000Y-88837500D02*
X148750000Y-86500000D01*
X148750000Y-86500000D02*
X164560000Y-70690000D01*
X164560000Y-70690000D02*
X176500000Y-70690000D01*
%TO.N,/I2C_1_SDA*%
X148250000Y-88837500D02*
X148250000Y-86250000D01*
X148250000Y-86250000D02*
X166350000Y-68150000D01*
X166350000Y-68150000D02*
X176500000Y-68150000D01*
%TO.N,Net-(J10-Pad7)*%
X147250000Y-73500000D02*
X146500000Y-72750000D01*
X146500000Y-72750000D02*
X146500000Y-66000000D01*
X146500000Y-66000000D02*
X148840000Y-63660000D01*
X148840000Y-63660000D02*
X149345000Y-63660000D01*
%TO.N,Net-(J10-Pad2)*%
X149250000Y-73500000D02*
X150730000Y-72020000D01*
X150730000Y-72020000D02*
X150730000Y-66500000D01*
X148885000Y-77025000D02*
X148885000Y-76612893D01*
X148885000Y-76612893D02*
X149250000Y-76247893D01*
X149250000Y-76247893D02*
X149250000Y-73500000D01*
%TO.N,Net-(J10-Pad7)*%
X147615000Y-77025000D02*
X147250000Y-76660000D01*
X147250000Y-76660000D02*
X147250000Y-73500000D01*
D41*
%TO.N,VBUS*%
X109500000Y-83500000D02*
X113500000Y-79500000D01*
X113500000Y-79500000D02*
X131500000Y-79500000D01*
D43*
%TO.N,/CAN_Rx*%
X147250000Y-88837500D02*
X147250000Y-86250000D01*
X147250000Y-86250000D02*
X150155000Y-83345000D01*
X150155000Y-83345000D02*
X150155000Y-81975000D01*
%TO.N,/CAN_Tx*%
X146750000Y-88837500D02*
X146750000Y-83750000D01*
X146750000Y-83750000D02*
X146345000Y-83345000D01*
X146345000Y-83345000D02*
X146345000Y-81975000D01*
D41*
%TO.N,Net-(R7-Pad1)*%
X141250000Y-84500000D02*
X141250000Y-80000000D01*
X141250000Y-80000000D02*
X131750000Y-70500000D01*
X131750000Y-70500000D02*
X123500000Y-70500000D01*
X123500000Y-70500000D02*
X121250000Y-68250000D01*
X121250000Y-68250000D02*
X121250000Y-63000000D01*
X121250000Y-63000000D02*
X120340000Y-63000000D01*
X120340000Y-63000000D02*
X118090000Y-60750000D01*
%TO.N,+3.3V*%
X139750000Y-84000000D02*
X139750000Y-81000000D01*
X139750000Y-81000000D02*
X140000000Y-80750000D01*
%TO.N,/PC13*%
X139000000Y-80500000D02*
X130475000Y-71975000D01*
X139000000Y-87750000D02*
X139000000Y-80500000D01*
X141000000Y-88250000D02*
X139500000Y-88250000D01*
X139500000Y-88250000D02*
X139000000Y-87750000D01*
X143500000Y-90750000D02*
X141000000Y-88250000D01*
X144337500Y-90750000D02*
X143500000Y-90750000D01*
X130475000Y-71975000D02*
X109750000Y-71975000D01*
%TO.N,/PC14*%
X138500000Y-88000000D02*
X138500000Y-82500000D01*
X138500000Y-82500000D02*
X130515000Y-74515000D01*
X130515000Y-74515000D02*
X109750000Y-74515000D01*
X139200000Y-88700000D02*
X138500000Y-88000000D01*
X140700000Y-88700000D02*
X139200000Y-88700000D01*
X143250000Y-91250000D02*
X140700000Y-88700000D01*
X144337500Y-91250000D02*
X143250000Y-91250000D01*
%TO.N,/PC15*%
X138000000Y-83750000D02*
X131305000Y-77055000D01*
X138000000Y-88136396D02*
X138000000Y-83750000D01*
X139113604Y-89250000D02*
X138000000Y-88136396D01*
X140500000Y-89250000D02*
X139113604Y-89250000D01*
X143000000Y-91750000D02*
X140500000Y-89250000D01*
X144337500Y-91750000D02*
X143000000Y-91750000D01*
X131305000Y-77055000D02*
X109750000Y-77055000D01*
%TO.N,/OSC_OUT*%
X144337500Y-92750000D02*
X138000000Y-92750000D01*
X138000000Y-92750000D02*
X137500000Y-92250000D01*
%TO.N,/OSC_IN*%
X144337500Y-92250000D02*
X142750000Y-92250000D01*
X140500000Y-90000000D02*
X137537500Y-90000000D01*
X142750000Y-92250000D02*
X140500000Y-90000000D01*
%TO.N,+3.3V*%
X140000000Y-87750000D02*
X139750000Y-87500000D01*
X139750000Y-87500000D02*
X139750000Y-84000000D01*
X141750000Y-87750000D02*
X140000000Y-87750000D01*
X144337500Y-90250000D02*
X144250000Y-90250000D01*
X144250000Y-90250000D02*
X141750000Y-87750000D01*
%TO.N,VBUS*%
X108817500Y-94047500D02*
X108547500Y-94047500D01*
X106500000Y-86500000D02*
X109500000Y-83500000D01*
X108547500Y-94047500D02*
X106500000Y-92000000D01*
X106500000Y-92000000D02*
X106500000Y-86500000D01*
%TO.N,GND*%
X109500000Y-86040000D02*
X112040000Y-83500000D01*
%TO.N,/LED2*%
X143534315Y-95250000D02*
X142524500Y-96259815D01*
X144337500Y-95250000D02*
X143534315Y-95250000D01*
X142524500Y-101475500D02*
X140250000Y-103750000D01*
%TO.N,/LED1*%
X142750000Y-94750000D02*
X141799500Y-95700500D01*
X144337500Y-94750000D02*
X142750000Y-94750000D01*
X141799500Y-95700500D02*
X141799500Y-98750000D01*
%TO.N,GND*%
X140275000Y-106000000D02*
X142275000Y-106000000D01*
%TO.N,Net-(D3-Pad2)*%
X138250000Y-103750000D02*
X138250000Y-105975000D01*
X138250000Y-105975000D02*
X138225000Y-106000000D01*
%TO.N,/RESET*%
X144337500Y-93250000D02*
X145140685Y-93250000D01*
X145140685Y-93250000D02*
X145750000Y-93859315D01*
X145750000Y-93859315D02*
X145750000Y-95750000D01*
%TO.N,VBUS*%
X141890000Y-121470000D02*
X142670000Y-122250000D01*
X145250000Y-122250000D02*
X147250000Y-120250000D01*
X142670000Y-122250000D02*
X145250000Y-122250000D01*
%TO.N,Net-(R13-Pad2)*%
X106100000Y-117220000D02*
X106100000Y-99305000D01*
X106100000Y-99305000D02*
X108817500Y-96587500D01*
%TO.N,Net-(R14-Pad2)*%
X108600000Y-117220000D02*
X108600000Y-117100000D01*
X108600000Y-117100000D02*
X106750000Y-115250000D01*
X106750000Y-115250000D02*
X106750000Y-100750000D01*
X106750000Y-100750000D02*
X107195000Y-100750000D01*
X107195000Y-100750000D02*
X108817500Y-99127500D01*
%TO.N,Net-(R8-Pad2)*%
X111100000Y-117220000D02*
X111100000Y-99385000D01*
X111100000Y-99385000D02*
X116437500Y-94047500D01*
%TO.N,Net-(R9-Pad2)*%
X113350000Y-117220000D02*
X113350000Y-99675000D01*
X113350000Y-99675000D02*
X116437500Y-96587500D01*
%TO.N,Net-(R10-Pad2)*%
X116100000Y-116600000D02*
X115000000Y-115500000D01*
X116100000Y-117220000D02*
X116100000Y-116600000D01*
X115000000Y-115500000D02*
X115000000Y-100500000D01*
X115000000Y-100500000D02*
X115065000Y-100500000D01*
X115065000Y-100500000D02*
X116437500Y-99127500D01*
%TO.N,Net-(R11-Pad2)*%
X118600000Y-117220000D02*
X118600000Y-114850000D01*
X118600000Y-114850000D02*
X118500000Y-114750000D01*
%TO.N,Net-(R12-Pad2)*%
X121350000Y-117220000D02*
X121350000Y-115850000D01*
X121350000Y-115850000D02*
X120250000Y-114750000D01*
%TO.N,VBUS*%
X141890000Y-121470000D02*
X139920000Y-119500000D01*
X139920000Y-119500000D02*
X128250000Y-119500000D01*
X128250000Y-119500000D02*
X116437500Y-107687500D01*
X116437500Y-107687500D02*
X116437500Y-104207500D01*
X147250000Y-115750000D02*
X148750000Y-115750000D01*
X148750000Y-115750000D02*
X149000000Y-115500000D01*
D43*
X172650000Y-101700000D02*
X170050000Y-101700000D01*
X169750000Y-111000000D02*
X169750000Y-113750000D01*
X170050000Y-101700000D02*
X169750000Y-102000000D01*
X169750000Y-113750000D02*
X166870000Y-116630000D01*
X166870000Y-116630000D02*
X166870000Y-120750000D01*
D41*
%TO.N,GND*%
X172650000Y-106300000D02*
X174050000Y-106300000D01*
X174050000Y-106300000D02*
X175750000Y-108000000D01*
%TO.N,VBUS*%
X147250000Y-120250000D02*
X147250000Y-118000000D01*
X147250000Y-115750000D02*
X147250000Y-118000000D01*
%TO.N,Net-(R3-Pad2)*%
X131730000Y-113530000D02*
X136950000Y-118750000D01*
X136950000Y-118750000D02*
X143750000Y-118750000D01*
X143750000Y-118750000D02*
X145250000Y-120250000D01*
%TO.N,Net-(R2-Pad2)*%
X134270000Y-113530000D02*
X138740000Y-118000000D01*
X138740000Y-118000000D02*
X145250000Y-118000000D01*
%TO.N,Net-(R1-Pad2)*%
X136810000Y-113530000D02*
X139030000Y-115750000D01*
X139030000Y-115750000D02*
X145250000Y-115750000D01*
D43*
%TO.N,Net-(R13-Pad1)*%
X106100000Y-119220000D02*
X112130000Y-125250000D01*
X112130000Y-125250000D02*
X135570000Y-125250000D01*
X135570000Y-125250000D02*
X139350000Y-121470000D01*
%TO.N,Net-(R14-Pad1)*%
X108600000Y-119220000D02*
X109220000Y-119220000D01*
X109220000Y-119220000D02*
X114750000Y-124750000D01*
X114750000Y-124750000D02*
X134750000Y-124750000D01*
X134750000Y-124750000D02*
X136810000Y-122690000D01*
X136810000Y-122690000D02*
X136810000Y-121470000D01*
%TO.N,Net-(R8-Pad1)*%
X111100000Y-119220000D02*
X116130000Y-124250000D01*
X116130000Y-124250000D02*
X132250000Y-124250000D01*
X132250000Y-124250000D02*
X134270000Y-122230000D01*
X134270000Y-122230000D02*
X134270000Y-121470000D01*
%TO.N,Net-(R9-Pad1)*%
X113350000Y-119220000D02*
X117880000Y-123750000D01*
X117880000Y-123750000D02*
X129500000Y-123750000D01*
X129500000Y-123750000D02*
X129500000Y-123700000D01*
X129500000Y-123700000D02*
X131730000Y-121470000D01*
%TO.N,Net-(R10-Pad1)*%
X116100000Y-119220000D02*
X120130000Y-123250000D01*
X120130000Y-123250000D02*
X128000000Y-123250000D01*
X128000000Y-123250000D02*
X129190000Y-122060000D01*
X129190000Y-122060000D02*
X129190000Y-121470000D01*
%TO.N,Net-(R11-Pad1)*%
X126650000Y-121470000D02*
X125370000Y-122750000D01*
X125370000Y-122750000D02*
X121750000Y-122750000D01*
X121750000Y-122750000D02*
X118600000Y-119600000D01*
X118600000Y-119600000D02*
X118600000Y-119220000D01*
%TO.N,Net-(R12-Pad1)*%
X121350000Y-119220000D02*
X121860000Y-119220000D01*
X121860000Y-119220000D02*
X124110000Y-121470000D01*
%TO.N,/Display_C*%
X148250000Y-104500000D02*
X154250000Y-110500000D01*
X148250000Y-97162500D02*
X148250000Y-104000000D01*
X148250000Y-104000000D02*
X148250000Y-104500000D01*
%TO.N,/Display_B*%
X150500000Y-106000000D02*
X150750000Y-106250000D01*
X149000000Y-104500000D02*
X150500000Y-106000000D01*
X148750000Y-99750000D02*
X148750000Y-100000000D01*
X155750000Y-106250000D02*
X156000000Y-106500000D01*
X156000000Y-106500000D02*
X156000000Y-111750000D01*
X149000000Y-104000000D02*
X149000000Y-104500000D01*
X148750000Y-97162500D02*
X148750000Y-99750000D01*
X149000000Y-100250000D02*
X149000000Y-104000000D01*
X150750000Y-106250000D02*
X155750000Y-106250000D01*
X148750000Y-100000000D02*
X149000000Y-100250000D01*
%TO.N,/Display_A*%
X151042894Y-105750000D02*
X149500000Y-104207106D01*
X149500000Y-104207106D02*
X149500000Y-100000000D01*
X156250000Y-105750000D02*
X151042894Y-105750000D01*
X157000000Y-106500000D02*
X156250000Y-105750000D01*
X157000000Y-109000000D02*
X157000000Y-106500000D01*
X149500000Y-100000000D02*
X149250000Y-99750000D01*
X149250000Y-99750000D02*
X149250000Y-97162500D01*
%TO.N,/UART_3_Tx*%
X149750000Y-97162500D02*
X149750000Y-99500000D01*
X149750000Y-99500000D02*
X150000000Y-99750000D01*
X159250000Y-106500000D02*
X159250000Y-120750000D01*
X150000000Y-99750000D02*
X150000000Y-104000000D01*
X150000000Y-104000000D02*
X151250000Y-105250000D01*
X151250000Y-105250000D02*
X158000000Y-105250000D01*
X158000000Y-105250000D02*
X159250000Y-106500000D01*
%TO.N,+3.3V*%
X154500000Y-104000000D02*
X154500000Y-103000000D01*
X154500000Y-103000000D02*
X153750000Y-102250000D01*
%TO.N,/UART_3_Rx*%
X150250000Y-97162500D02*
X150250000Y-99282106D01*
X150250000Y-99282106D02*
X150500000Y-99532106D01*
X150500000Y-99532106D02*
X150500000Y-103750000D01*
X150500000Y-103750000D02*
X151500000Y-104750000D01*
X151500000Y-104750000D02*
X158500000Y-104750000D01*
X158500000Y-104750000D02*
X161790000Y-108040000D01*
X161790000Y-108040000D02*
X161790000Y-120750000D01*
%TO.N,GND*%
X150750000Y-97162500D02*
X150750000Y-99075000D01*
X150750000Y-99075000D02*
X151675000Y-100000000D01*
%TO.N,+3.3V*%
X153750000Y-98662500D02*
X152250000Y-97162500D01*
X152250000Y-97162500D02*
X151250000Y-97162500D01*
%TO.N,/Display_D*%
X146250000Y-97162500D02*
X146250000Y-106500000D01*
X146250000Y-106500000D02*
X144500000Y-108250000D01*
X144500000Y-108250000D02*
X131750000Y-108250000D01*
X131750000Y-108250000D02*
X129190000Y-110810000D01*
X129190000Y-110810000D02*
X129190000Y-113530000D01*
%TO.N,/SPI_1_SCK*%
X146750000Y-97162500D02*
X146750000Y-106500000D01*
X146750000Y-106500000D02*
X150170000Y-109920000D01*
X150170000Y-109920000D02*
X150170000Y-120750000D01*
%TO.N,/SPI_1_MISO*%
X147250000Y-97162500D02*
X147250000Y-105750000D01*
X152710000Y-111210000D02*
X152710000Y-120750000D01*
X147250000Y-105750000D02*
X152710000Y-111210000D01*
%TO.N,/SPI_1_MOSI*%
X147750000Y-97162500D02*
X147750000Y-105250000D01*
X147750000Y-105250000D02*
X155250000Y-112750000D01*
X155250000Y-112750000D02*
X155250000Y-120750000D01*
%TO.N,+3.3V*%
X166350000Y-104000000D02*
X166350000Y-113890000D01*
%TO.N,/CS*%
X152662500Y-93750000D02*
X158250000Y-93750000D01*
X158250000Y-93750000D02*
X162000000Y-97500000D01*
%TO.N,/SPI_2_MOSI*%
X157250000Y-94250000D02*
X162500000Y-99500000D01*
X156559954Y-94250000D02*
X157250000Y-94250000D01*
%TO.N,/SPI_2_SCK*%
X154500000Y-95250000D02*
X154750000Y-95250000D01*
X154750000Y-95250000D02*
X161500000Y-102000000D01*
X152662500Y-95250000D02*
X154500000Y-95250000D01*
%TO.N,/SPI_2_MOSI*%
X152662500Y-94250000D02*
X156559954Y-94250000D01*
%TO.N,/SPI_2_MISO*%
X156000000Y-94750000D02*
X163250000Y-102000000D01*
X152662500Y-94750000D02*
X156000000Y-94750000D01*
%TO.N,GND*%
X175750000Y-108000000D02*
X182250000Y-108000000D01*
D42*
%TO.N,/USB_D+*%
X161524999Y-91774999D02*
X161500000Y-91750000D01*
D43*
%TO.N,+3.3V*%
X161500000Y-88250000D02*
X163750000Y-88250000D01*
X163750000Y-88250000D02*
X165070000Y-86930000D01*
X165070000Y-86930000D02*
X165070000Y-84500000D01*
X158500000Y-88175000D02*
X161425000Y-88175000D01*
X161425000Y-88175000D02*
X161500000Y-88250000D01*
%TO.N,GND*%
X152662500Y-90750000D02*
X155500000Y-90750000D01*
X155500000Y-90750000D02*
X156000000Y-90250000D01*
%TO.N,/UART_2_Rx*%
X145750000Y-97162500D02*
X145750000Y-106207106D01*
X145750000Y-106207106D02*
X144207106Y-107750000D01*
X144207106Y-107750000D02*
X126500000Y-107750000D01*
X126500000Y-107750000D02*
X123000000Y-104250000D01*
X123000000Y-104250000D02*
X123000000Y-103275000D01*
%TO.N,/UART_2_Tx*%
X145250000Y-106000000D02*
X144000000Y-107250000D01*
X126750000Y-107250000D02*
X126000000Y-106500000D01*
X144000000Y-107250000D02*
X126750000Y-107250000D01*
X145250000Y-96662500D02*
X145250000Y-106000000D01*
X144337500Y-95750000D02*
X145250000Y-96662500D01*
X126000000Y-106500000D02*
X126000000Y-102250000D01*
X126000000Y-102250000D02*
X124485000Y-100735000D01*
X124485000Y-100735000D02*
X123000000Y-100735000D01*
%TO.N,Net-(C3-Pad1)*%
X131000000Y-93750000D02*
X135325000Y-93750000D01*
X135325000Y-93750000D02*
X135750000Y-94175000D01*
%TO.N,+3.3V*%
X152662500Y-90250000D02*
X153925000Y-90250000D01*
X153925000Y-90250000D02*
X156000000Y-88175000D01*
%TO.N,/SW_DIO*%
X161500000Y-87000000D02*
X162530000Y-85970000D01*
X151575000Y-89925000D02*
X154500000Y-87000000D01*
X151575000Y-91001041D02*
X151575000Y-89925000D01*
X151823959Y-91250000D02*
X151575000Y-91001041D01*
X154500000Y-87000000D02*
X161500000Y-87000000D01*
X152662500Y-91250000D02*
X151823959Y-91250000D01*
X162530000Y-85970000D02*
X162530000Y-84500000D01*
%TO.N,/SW_SCK*%
X151250000Y-88837500D02*
X153587500Y-86500000D01*
X153587500Y-86500000D02*
X159250000Y-86500000D01*
X159250000Y-86500000D02*
X159990000Y-85760000D01*
X159990000Y-85760000D02*
X159990000Y-84500000D01*
%TO.N,+3.3V*%
X156000000Y-88175000D02*
X158500000Y-88175000D01*
%TO.N,GND*%
X178287500Y-102500000D02*
X180475000Y-102500000D01*
X180475000Y-102500000D02*
X181250000Y-101725000D01*
X178287500Y-102500000D02*
X178287500Y-99750000D01*
%TO.N,+3.3V*%
X176250000Y-105250000D02*
X176250000Y-102537500D01*
X176250000Y-102537500D02*
X176212500Y-102500000D01*
X172650000Y-104000000D02*
X174712500Y-104000000D01*
X174712500Y-104000000D02*
X176212500Y-102500000D01*
X166350000Y-104000000D02*
X172650000Y-104000000D01*
%TO.N,VBUS*%
X172650000Y-101700000D02*
X174262500Y-101700000D01*
X174262500Y-101700000D02*
X176212500Y-99750000D01*
%TO.N,+3.3V*%
X166350000Y-104000000D02*
X154500000Y-104000000D01*
X153750000Y-102250000D02*
X153750000Y-100000000D01*
X153750000Y-98662500D02*
X153750000Y-100000000D01*
%TO.N,GND*%
X151675000Y-102250000D02*
X151675000Y-100000000D01*
%TO.N,/RESET*%
X134500000Y-103750000D02*
X137462500Y-100787500D01*
X137462500Y-100787500D02*
X138000000Y-100787500D01*
%TO.N,GND*%
X134500000Y-99250000D02*
X137462500Y-99250000D01*
X137462500Y-99250000D02*
X138000000Y-98712500D01*
%TO.N,/RESET*%
X128000000Y-103750000D02*
X134500000Y-103750000D01*
%TO.N,GND*%
X128000000Y-99250000D02*
X134500000Y-99250000D01*
%TO.N,Net-(C3-Pad1)*%
X135750000Y-94175000D02*
X135750000Y-93000000D01*
%TO.N,GND*%
X135750000Y-96250000D02*
X137787500Y-94212500D01*
X137787500Y-94212500D02*
X138250000Y-94212500D01*
%TO.N,+3.3V*%
X140500000Y-98750000D02*
X140500000Y-96287500D01*
X144337500Y-94250000D02*
X142537500Y-94250000D01*
X142537500Y-94250000D02*
X140500000Y-96287500D01*
X138250000Y-96287500D02*
X140500000Y-96287500D01*
%TO.N,GND*%
X140500000Y-94212500D02*
X138250000Y-94212500D01*
X144337500Y-93750000D02*
X140962500Y-93750000D01*
X140962500Y-93750000D02*
X140500000Y-94212500D01*
D41*
%TO.N,/BOOT0*%
X147750000Y-89640685D02*
X147490685Y-89900000D01*
X147750000Y-88837500D02*
X147750000Y-89640685D01*
X147490685Y-89900000D02*
X145337500Y-89900000D01*
X145337500Y-89900000D02*
X144750000Y-89312500D01*
X144750000Y-89312500D02*
X144062500Y-89312500D01*
X144062500Y-89312500D02*
X141250000Y-86500000D01*
D43*
%TO.N,+3.3V*%
X145750000Y-88837500D02*
X144337500Y-88837500D01*
X144337500Y-88837500D02*
X143212500Y-87712500D01*
X143212500Y-87712500D02*
X143212500Y-86250000D01*
%TO.N,GND*%
X146250000Y-88837500D02*
X146250000Y-87212500D01*
X146250000Y-87212500D02*
X145287500Y-86250000D01*
%TD*%
M02*
