M48
; DRILL file {KiCad 6.0.11-2627ca5db0~126~ubuntu20.04.1} date Fri Jun 30 16:56:08 2023
; FORMAT={-:-/ absolute / metric / decimal}
; #@! TF.CreationDate,2023-06-30T16:56:08+05:30
; #@! TF.GenerationSoftware,Kicad,Pcbnew,6.0.11-2627ca5db0~126~ubuntu20.04.1
; #@! TF.FileFunction,Plated,1,2,PTH
FMAT,2
METRIC
; #@! TA.AperFunction,Plated,PTH,ViaDrill
T1C0.400
; #@! TA.AperFunction,Plated,PTH,ComponentDrill
T2C0.800
; #@! TA.AperFunction,Plated,PTH,ComponentDrill
T3C0.950
; #@! TA.AperFunction,Plated,PTH,ComponentDrill
T4C1.000
; #@! TA.AperFunction,Plated,PTH,ComponentDrill
T5C1.100
; #@! TA.AperFunction,Plated,PTH,ComponentDrill
T6C1.400
; #@! TA.AperFunction,Plated,PTH,ComponentDrill
T7C1.700
; #@! TA.AperFunction,Plated,PTH,ComponentDrill
T8C3.200
%
G90
G05
T1
X121.15Y-74.65
X126.225Y-85.625
X127.5Y-80.15
X127.625Y-111.175
X132.6Y-110.1
X133.9Y-110.0
X134.0Y-79.3
X135.2Y-110.0
X136.7Y-110.1
X137.7Y-92.7
X138.4Y-65.6
X139.3Y-90.5
X139.3Y-102.2
X141.925Y-109.75
X142.07Y-104.63
X142.1Y-111.775
X142.205Y-113.245
X142.5Y-96.1
X142.88Y-101.58
X143.9Y-115.15
X144.1Y-95.45
X145.4Y-95.45
X146.25Y-93.75
X147.249Y-84.3
X147.25Y-90.3
X149.2Y-85.4
X151.4Y-91.2
X154.9Y-96.749
X156.55Y-98.4
X160.5Y-93.5
X161.125Y-118.85
X166.6Y-82.525
X167.8Y-78.4
X168.85Y-115.5
X169.1Y-110.975
X175.8Y-114.025
X177.725Y-116.625
T2
X122.175Y-84.157
X122.175Y-89.037
X159.48Y-70.025
X161.48Y-70.025
X168.475Y-70.15
X170.975Y-70.15
T3
X143.125Y-124.925
X145.625Y-124.925
X148.125Y-124.925
X150.625Y-124.925
X153.125Y-124.925
X155.625Y-124.925
X158.125Y-124.925
X164.675Y-124.3
X167.175Y-124.3
X169.675Y-124.3
X172.175Y-124.3
X174.675Y-124.3
X177.175Y-124.3
X179.675Y-124.3
X180.725Y-102.95
X180.725Y-105.45
X180.725Y-107.95
X180.725Y-110.45
X180.725Y-112.95
X180.725Y-115.45
X180.725Y-117.95
T4
X120.785Y-94.8
X123.325Y-94.8
X129.45Y-114.575
X131.99Y-114.575
X133.4Y-87.9
X134.07Y-72.305
X134.53Y-114.575
X135.455Y-69.465
X136.84Y-72.305
X137.07Y-114.575
X138.225Y-69.465
X139.61Y-72.305
X140.995Y-69.465
X142.38Y-72.305
X143.765Y-69.465
X144.6Y-87.8
X145.15Y-72.305
X150.58Y-88.0
X150.645Y-80.9
X151.4Y-105.645
X151.4Y-108.185
X151.4Y-110.725
X153.12Y-88.0
X153.185Y-80.9
X155.66Y-88.0
X155.725Y-80.9
X158.2Y-88.0
X163.82Y-97.0
X166.36Y-97.0
X168.9Y-97.0
X175.325Y-101.725
X175.325Y-104.265
X175.325Y-106.805
T5
X117.75Y-99.2
X117.75Y-103.7
X124.25Y-99.2
X124.25Y-103.7
X175.62Y-80.2
X178.16Y-80.2
X180.7Y-80.2
T6
X177.877Y-89.96
X177.877Y-95.04
T7
X118.725Y-110.925
X119.275Y-121.625
X123.725Y-110.925
X124.275Y-121.625
X131.523Y-121.625
X136.523Y-121.625
T8
X127.11Y-72.005
X152.11Y-72.005
T0
M30
