%TF.GenerationSoftware,KiCad,Pcbnew,6.0.9-8da3e8f707~117~ubuntu18.04.1*%
%TF.CreationDate,2023-03-08T09:23:39+05:30*%
%TF.ProjectId,Cansat_V1.2,43616e73-6174-45f5-9631-2e322e6b6963,rev?*%
%TF.SameCoordinates,Original*%
%TF.FileFunction,Copper,L1,Top*%
%TF.FilePolarity,Positive*%
%FSLAX46Y46*%
G04 Gerber Fmt 4.6, Leading zero omitted, Abs format (unit mm)*
G04 Created by KiCad (PCBNEW 6.0.9-8da3e8f707~117~ubuntu18.04.1) date 2023-03-08 09:23:39*
%MOMM*%
%LPD*%
G01*
G04 APERTURE LIST*
G04 Aperture macros list*
%AMRoundRect*
0 Rectangle with rounded corners*
0 $1 Rounding radius*
0 $2 $3 $4 $5 $6 $7 $8 $9 X,Y pos of 4 corners*
0 Add a 4 corners polygon primitive as box body*
4,1,4,$2,$3,$4,$5,$6,$7,$8,$9,$2,$3,0*
0 Add four circle primitives for the rounded corners*
1,1,$1+$1,$2,$3*
1,1,$1+$1,$4,$5*
1,1,$1+$1,$6,$7*
1,1,$1+$1,$8,$9*
0 Add four rect primitives between the rounded corners*
20,1,$1+$1,$2,$3,$4,$5,0*
20,1,$1+$1,$4,$5,$6,$7,0*
20,1,$1+$1,$6,$7,$8,$9,0*
20,1,$1+$1,$8,$9,$2,$3,0*%
G04 Aperture macros list end*
%TA.AperFunction,ComponentPad*%
%ADD10R,1.700000X1.700000*%
%TD*%
%TA.AperFunction,ComponentPad*%
%ADD11O,1.700000X1.700000*%
%TD*%
%TA.AperFunction,SMDPad,CuDef*%
%ADD12RoundRect,0.250000X0.337500X0.475000X-0.337500X0.475000X-0.337500X-0.475000X0.337500X-0.475000X0*%
%TD*%
%TA.AperFunction,ComponentPad*%
%ADD13C,1.524000*%
%TD*%
%TA.AperFunction,SMDPad,CuDef*%
%ADD14RoundRect,0.250000X-0.350000X-0.450000X0.350000X-0.450000X0.350000X0.450000X-0.350000X0.450000X0*%
%TD*%
%TA.AperFunction,ComponentPad*%
%ADD15RoundRect,0.249999X-0.790001X-1.550001X0.790001X-1.550001X0.790001X1.550001X-0.790001X1.550001X0*%
%TD*%
%TA.AperFunction,ComponentPad*%
%ADD16O,2.080000X3.600000*%
%TD*%
%TA.AperFunction,SMDPad,CuDef*%
%ADD17RoundRect,0.250000X0.325000X0.450000X-0.325000X0.450000X-0.325000X-0.450000X0.325000X-0.450000X0*%
%TD*%
%TA.AperFunction,SMDPad,CuDef*%
%ADD18RoundRect,0.250000X0.350000X0.450000X-0.350000X0.450000X-0.350000X-0.450000X0.350000X-0.450000X0*%
%TD*%
%TA.AperFunction,SMDPad,CuDef*%
%ADD19R,2.000000X1.500000*%
%TD*%
%TA.AperFunction,SMDPad,CuDef*%
%ADD20R,2.000000X3.800000*%
%TD*%
%TA.AperFunction,SMDPad,CuDef*%
%ADD21R,1.000000X0.700000*%
%TD*%
%TA.AperFunction,ComponentPad*%
%ADD22RoundRect,0.249999X1.550001X-0.790001X1.550001X0.790001X-1.550001X0.790001X-1.550001X-0.790001X0*%
%TD*%
%TA.AperFunction,ComponentPad*%
%ADD23O,3.600000X2.080000*%
%TD*%
%TA.AperFunction,ComponentPad*%
%ADD24C,1.930400*%
%TD*%
%TA.AperFunction,ComponentPad*%
%ADD25R,1.500000X1.500000*%
%TD*%
%TA.AperFunction,ComponentPad*%
%ADD26O,1.500000X1.500000*%
%TD*%
%TA.AperFunction,SMDPad,CuDef*%
%ADD27RoundRect,0.249999X1.425001X-0.450001X1.425001X0.450001X-1.425001X0.450001X-1.425001X-0.450001X0*%
%TD*%
%TA.AperFunction,SMDPad,CuDef*%
%ADD28RoundRect,0.249999X-0.450001X-1.425001X0.450001X-1.425001X0.450001X1.425001X-0.450001X1.425001X0*%
%TD*%
%TA.AperFunction,ComponentPad*%
%ADD29C,1.778000*%
%TD*%
%TA.AperFunction,SMDPad,CuDef*%
%ADD30O,0.800000X2.500000*%
%TD*%
%TA.AperFunction,SMDPad,CuDef*%
%ADD31O,2.500000X0.800000*%
%TD*%
%TA.AperFunction,SMDPad,CuDef*%
%ADD32R,1.700000X3.500000*%
%TD*%
%TA.AperFunction,SMDPad,CuDef*%
%ADD33R,3.500000X1.700000*%
%TD*%
%TA.AperFunction,SMDPad,CuDef*%
%ADD34C,4.000000*%
%TD*%
%TA.AperFunction,SMDPad,CuDef*%
%ADD35RoundRect,0.150000X-0.150000X0.587500X-0.150000X-0.587500X0.150000X-0.587500X0.150000X0.587500X0*%
%TD*%
%TA.AperFunction,SMDPad,CuDef*%
%ADD36RoundRect,0.250000X-0.450000X0.350000X-0.450000X-0.350000X0.450000X-0.350000X0.450000X0.350000X0*%
%TD*%
%TA.AperFunction,ComponentPad*%
%ADD37RoundRect,0.249999X0.790001X1.550001X-0.790001X1.550001X-0.790001X-1.550001X0.790001X-1.550001X0*%
%TD*%
%TA.AperFunction,ComponentPad*%
%ADD38R,2.000000X2.000000*%
%TD*%
%TA.AperFunction,ComponentPad*%
%ADD39C,2.000000*%
%TD*%
%TA.AperFunction,ViaPad*%
%ADD40C,0.800000*%
%TD*%
%TA.AperFunction,Conductor*%
%ADD41C,0.500000*%
%TD*%
%TA.AperFunction,Conductor*%
%ADD42C,0.300000*%
%TD*%
%TA.AperFunction,Conductor*%
%ADD43C,1.300000*%
%TD*%
G04 APERTURE END LIST*
D10*
%TO.P,J1,1,Pin_1*%
%TO.N,Net-(J1-Pad1)*%
X123050000Y-116500000D03*
D11*
%TO.P,J1,2,Pin_2*%
%TO.N,Net-(J1-Pad2)*%
X125590000Y-116500000D03*
%TO.P,J1,3,Pin_3*%
%TO.N,Net-(J1-Pad3)*%
X128130000Y-116500000D03*
%TO.P,J1,4,Pin_4*%
%TO.N,Net-(J1-Pad4)*%
X130670000Y-116500000D03*
%TO.P,J1,5,Pin_5*%
%TO.N,Net-(J1-Pad5)*%
X133210000Y-116500000D03*
%TO.P,J1,6,Pin_6*%
%TO.N,Net-(J1-Pad6)*%
X135750000Y-116500000D03*
%TD*%
D12*
%TO.P,C1,1*%
%TO.N,+7.5V*%
X175887500Y-127566051D03*
%TO.P,C1,2*%
%TO.N,GND*%
X173812500Y-127566051D03*
%TD*%
D13*
%TO.P,JP1,1,VDD*%
%TO.N,+3.3V*%
X119494710Y-111398200D03*
%TO.P,JP1,2,DOUT*%
%TO.N,/Xbee_Tx*%
X121496230Y-111398200D03*
%TO.P,JP1,3,DIN*%
%TO.N,/Xbee_Rx*%
X123495210Y-111398200D03*
%TO.P,JP1,4,DIO12*%
%TO.N,Net-(J1-Pad1)*%
X125496730Y-111398200D03*
%TO.P,JP1,5,RESET*%
%TO.N,Net-(J1-Pad2)*%
X127495710Y-111398200D03*
%TO.P,JP1,6,RSSI*%
%TO.N,Net-(J1-Pad3)*%
X129494690Y-111398200D03*
%TO.P,JP1,7,DIO11*%
%TO.N,Net-(J1-Pad4)*%
X131496210Y-111398200D03*
%TO.P,JP1,8,RES*%
%TO.N,Net-(J1-Pad5)*%
X133495190Y-111398200D03*
%TO.P,JP1,9,DTR*%
%TO.N,Net-(J1-Pad6)*%
X135496710Y-111398200D03*
%TO.P,JP1,10,GND*%
%TO.N,GND*%
X137495690Y-111398200D03*
%TO.P,JP1,11,DIO4*%
%TO.N,Net-(J6-Pad1)*%
X137495690Y-89401800D03*
%TO.P,JP1,12,CTS*%
%TO.N,Net-(J6-Pad2)*%
X135496710Y-89401800D03*
%TO.P,JP1,13,DIO9*%
%TO.N,Net-(J6-Pad3)*%
X133495190Y-89401800D03*
%TO.P,JP1,14,RES*%
%TO.N,Net-(J6-Pad4)*%
X131496210Y-89401800D03*
%TO.P,JP1,15,DIO5*%
%TO.N,Net-(J6-Pad5)*%
X129494690Y-89401800D03*
%TO.P,JP1,16,RTS*%
%TO.N,Net-(J6-Pad6)*%
X127495710Y-89401800D03*
%TO.P,JP1,17,DIO3*%
%TO.N,Net-(J6-Pad7)*%
X125496730Y-89401800D03*
%TO.P,JP1,18,DIO2*%
%TO.N,Net-(J6-Pad8)*%
X123495210Y-89401800D03*
%TO.P,JP1,19,DIO1*%
%TO.N,Net-(J6-Pad9)*%
X121496230Y-89401800D03*
%TO.P,JP1,20,DIO0*%
%TO.N,Net-(J6-Pad10)*%
X119494710Y-89401800D03*
%TD*%
D14*
%TO.P,R7,1*%
%TO.N,Net-(D4-Pad2)*%
X173850000Y-122366051D03*
%TO.P,R7,2*%
%TO.N,VBUS*%
X175850000Y-122366051D03*
%TD*%
D15*
%TO.P,J10,1,Pin_1*%
%TO.N,Net-(J10-Pad1)*%
X155932500Y-135808551D03*
D16*
%TO.P,J10,2,Pin_2*%
%TO.N,Net-(J10-Pad2)*%
X161012500Y-135808551D03*
%TD*%
D10*
%TO.P,J12,1,Pin_1*%
%TO.N,Net-(J12-Pad1)*%
X144000000Y-59200000D03*
D11*
%TO.P,J12,2,Pin_2*%
%TO.N,Net-(J12-Pad2)*%
X141460000Y-59200000D03*
%TO.P,J12,3,Pin_3*%
%TO.N,Net-(J12-Pad3)*%
X138920000Y-59200000D03*
%TO.P,J12,4,Pin_4*%
%TO.N,Net-(J12-Pad4)*%
X136380000Y-59200000D03*
%TO.P,J12,5,Pin_5*%
%TO.N,Net-(J12-Pad5)*%
X133840000Y-59200000D03*
%TD*%
D17*
%TO.P,D4,1,K*%
%TO.N,GND*%
X175875000Y-119866051D03*
%TO.P,D4,2,A*%
%TO.N,Net-(D4-Pad2)*%
X173825000Y-119866051D03*
%TD*%
D14*
%TO.P,R8,1*%
%TO.N,Net-(D6-Pad2)*%
X157650000Y-122266051D03*
%TO.P,R8,2*%
%TO.N,+3.3V*%
X159650000Y-122266051D03*
%TD*%
D10*
%TO.P,J6,1,Pin_1*%
%TO.N,Net-(J6-Pad1)*%
X129925000Y-84200000D03*
D11*
%TO.P,J6,2,Pin_2*%
%TO.N,Net-(J6-Pad2)*%
X127385000Y-84200000D03*
%TO.P,J6,3,Pin_3*%
%TO.N,Net-(J6-Pad3)*%
X124845000Y-84200000D03*
%TO.P,J6,4,Pin_4*%
%TO.N,Net-(J6-Pad4)*%
X122305000Y-84200000D03*
%TO.P,J6,5,Pin_5*%
%TO.N,Net-(J6-Pad5)*%
X119765000Y-84200000D03*
%TO.P,J6,6,Pin_6*%
%TO.N,Net-(J6-Pad6)*%
X117225000Y-84200000D03*
%TO.P,J6,7,Pin_7*%
%TO.N,Net-(J6-Pad7)*%
X114685000Y-84200000D03*
%TO.P,J6,8,Pin_8*%
%TO.N,Net-(J6-Pad8)*%
X112145000Y-84200000D03*
%TO.P,J6,9,Pin_9*%
%TO.N,Net-(J6-Pad9)*%
X109605000Y-84200000D03*
%TO.P,J6,10,Pin_10*%
%TO.N,Net-(J6-Pad10)*%
X107065000Y-84200000D03*
%TD*%
D12*
%TO.P,C4,1*%
%TO.N,+3.3V*%
X159587500Y-124766051D03*
%TO.P,C4,2*%
%TO.N,GND*%
X157512500Y-124766051D03*
%TD*%
D18*
%TO.P,R12,1*%
%TO.N,VBUS*%
X182000000Y-83400000D03*
%TO.P,R12,2*%
%TO.N,/pico_ADC_1*%
X180000000Y-83400000D03*
%TD*%
D19*
%TO.P,U5,1,GND*%
%TO.N,GND*%
X178400000Y-122666051D03*
%TO.P,U5,2,VO*%
%TO.N,VBUS*%
X178400000Y-124966051D03*
D20*
X184700000Y-124966051D03*
D19*
%TO.P,U5,3,VI*%
%TO.N,+7.5V*%
X178400000Y-127266051D03*
%TD*%
D14*
%TO.P,R14,1*%
%TO.N,GND*%
X180000000Y-78700000D03*
%TO.P,R14,2*%
%TO.N,/pico_ADC_2*%
X182000000Y-78700000D03*
%TD*%
D21*
%TO.P,U7,1*%
%TO.N,/pico_ADC_1*%
X183800000Y-81273000D03*
%TO.P,U7,2,-*%
%TO.N,GND*%
X183800000Y-82225000D03*
%TO.P,U7,3,+*%
%TO.N,VBUS*%
X183800000Y-83175000D03*
%TO.P,U7,4,V-*%
%TO.N,GND*%
X183800000Y-84127000D03*
%TO.P,U7,5,+*%
%TO.N,+3.3V*%
X188200000Y-84127000D03*
%TO.P,U7,6,-*%
%TO.N,GND*%
X188200000Y-83175000D03*
%TO.P,U7,7*%
%TO.N,/pico_ADC_2*%
X188200000Y-82225000D03*
%TO.P,U7,8,V+*%
%TO.N,VBUS*%
X188200000Y-81273000D03*
%TD*%
D22*
%TO.P,J4,1,Pin_1*%
%TO.N,+7.5V*%
X195295000Y-81340000D03*
D23*
%TO.P,J4,2,Pin_2*%
%TO.N,/motor_3*%
X195295000Y-76260000D03*
%TO.P,J4,3,Pin_3*%
%TO.N,GND*%
X195295000Y-71180000D03*
%TO.P,J4,4,Pin_4*%
X195295000Y-66100000D03*
%TD*%
D24*
%TO.P,U3,1,Vin*%
%TO.N,+3.3V*%
X130732475Y-139090000D03*
%TO.P,U3,2,3Vo*%
%TO.N,unconnected-(U3-Pad2)*%
X133272475Y-139090000D03*
%TO.P,U3,3,GND*%
%TO.N,GND*%
X135812475Y-139090000D03*
%TO.P,U3,4,SDA*%
%TO.N,/SDA*%
X138352475Y-139090000D03*
%TO.P,U3,5,SCL*%
%TO.N,/SCL*%
X140892475Y-139090000D03*
%TO.P,U3,6,RST*%
%TO.N,unconnected-(U3-Pad6)*%
X143432475Y-139090000D03*
%TO.P,U3,7,PS0*%
%TO.N,unconnected-(U3-Pad7)*%
X133272475Y-121310000D03*
%TO.P,U3,8,PS1*%
%TO.N,unconnected-(U3-Pad8)*%
X135812475Y-121310000D03*
%TO.P,U3,9,INT*%
%TO.N,unconnected-(U3-Pad9)*%
X138352475Y-121310000D03*
%TO.P,U3,10,ADR*%
%TO.N,unconnected-(U3-Pad10)*%
X140892475Y-121310000D03*
%TD*%
D25*
%TO.P,D1,1,K*%
%TO.N,+7.5V*%
X178135000Y-119866051D03*
D26*
%TO.P,D1,2,A*%
%TO.N,VBUS*%
X185755000Y-119866051D03*
%TD*%
D27*
%TO.P,R10,1*%
%TO.N,+7.5V*%
X190600000Y-129416051D03*
%TO.P,R10,2*%
%TO.N,/pico_ADC_0*%
X190600000Y-123316051D03*
%TD*%
D17*
%TO.P,D3,1,K*%
%TO.N,GND*%
X148250000Y-118466051D03*
%TO.P,D3,2,A*%
%TO.N,Net-(D3-Pad2)*%
X146200000Y-118466051D03*
%TD*%
D14*
%TO.P,R13,1*%
%TO.N,GND*%
X180000000Y-81300000D03*
%TO.P,R13,2*%
%TO.N,/pico_ADC_1*%
X182000000Y-81300000D03*
%TD*%
D17*
%TO.P,D2,1,K*%
%TO.N,GND*%
X152450000Y-118466051D03*
%TO.P,D2,2,A*%
%TO.N,Net-(D2-Pad2)*%
X150400000Y-118466051D03*
%TD*%
D22*
%TO.P,J3,1,Pin_1*%
%TO.N,+7.5V*%
X198972500Y-136086051D03*
D23*
%TO.P,J3,2,Pin_2*%
%TO.N,/motor_2*%
X198972500Y-131006051D03*
%TO.P,J3,3,Pin_3*%
%TO.N,GND*%
X198972500Y-125926051D03*
%TO.P,J3,4,Pin_4*%
X198972500Y-120846051D03*
%TD*%
D12*
%TO.P,C2,1*%
%TO.N,VBUS*%
X175887500Y-124966051D03*
%TO.P,C2,2*%
%TO.N,GND*%
X173812500Y-124966051D03*
%TD*%
D19*
%TO.P,U6,1,GND*%
%TO.N,GND*%
X162400000Y-122566051D03*
D20*
%TO.P,U6,2,VO*%
%TO.N,+3.3V*%
X168700000Y-124866051D03*
D19*
X162400000Y-124866051D03*
%TO.P,U6,3,VI*%
%TO.N,VBUS*%
X162400000Y-127166051D03*
%TD*%
D14*
%TO.P,R5,1*%
%TO.N,Net-(D3-Pad2)*%
X146225000Y-115766051D03*
%TO.P,R5,2*%
%TO.N,Net-(R5-Pad2)*%
X148225000Y-115766051D03*
%TD*%
%TO.P,R3,1*%
%TO.N,/nichrome_gpio*%
X152300000Y-122566051D03*
%TO.P,R3,2*%
%TO.N,Net-(Q1-Pad1)*%
X154300000Y-122566051D03*
%TD*%
D25*
%TO.P,D5,1,K*%
%TO.N,VBUS*%
X162035000Y-119666051D03*
D26*
%TO.P,D5,2,A*%
%TO.N,+3.3V*%
X169655000Y-119666051D03*
%TD*%
D15*
%TO.P,J5,1,Pin_1*%
%TO.N,+7.5V*%
X183410000Y-135888551D03*
D16*
%TO.P,J5,2,Pin_2*%
%TO.N,GND*%
X188490000Y-135888551D03*
%TD*%
D28*
%TO.P,R6,1*%
%TO.N,Net-(J10-Pad2)*%
X169050000Y-131666051D03*
%TO.P,R6,2*%
%TO.N,+7.5V*%
X175150000Y-131666051D03*
%TD*%
D27*
%TO.P,R11,1*%
%TO.N,/pico_ADC_0*%
X190600000Y-121116051D03*
%TO.P,R11,2*%
%TO.N,GND*%
X190600000Y-115016051D03*
%TD*%
D18*
%TO.P,R9,1*%
%TO.N,+3.3V*%
X186100000Y-78700000D03*
%TO.P,R9,2*%
%TO.N,/pico_ADC_2*%
X184100000Y-78700000D03*
%TD*%
D10*
%TO.P,J11,1,Pin_1*%
%TO.N,Net-(J11-Pad1)*%
X162800000Y-59300000D03*
D11*
%TO.P,J11,2,Pin_2*%
%TO.N,Net-(J11-Pad2)*%
X160260000Y-59300000D03*
%TO.P,J11,3,Pin_3*%
%TO.N,Net-(J11-Pad3)*%
X157720000Y-59300000D03*
%TO.P,J11,4,Pin_4*%
%TO.N,Net-(J11-Pad4)*%
X155180000Y-59300000D03*
%TO.P,J11,5,Pin_5*%
%TO.N,Net-(J11-Pad5)*%
X152640000Y-59300000D03*
%TO.P,J11,6,Pin_6*%
%TO.N,Net-(J11-Pad6)*%
X150100000Y-59300000D03*
%TD*%
D29*
%TO.P,U1,1,Vin*%
%TO.N,+3.3V*%
X114743949Y-77653949D03*
%TO.P,U1,2,3Vo*%
%TO.N,unconnected-(U1-Pad2)*%
X117283949Y-77653949D03*
%TO.P,U1,3,GND*%
%TO.N,GND*%
X119823949Y-77653949D03*
%TO.P,U1,4,SCK*%
%TO.N,/SCL*%
X122363949Y-77653949D03*
%TO.P,U1,5,SDO*%
%TO.N,unconnected-(U1-Pad5)*%
X124903949Y-77653949D03*
%TO.P,U1,6,SDI*%
%TO.N,/SDA*%
X127443949Y-77653949D03*
%TO.P,U1,7,CS*%
%TO.N,unconnected-(U1-Pad7)*%
X129983949Y-77653949D03*
%TD*%
D30*
%TO.P,U8,1,RXD*%
%TO.N,/uart0_Tx*%
X146247500Y-81670000D03*
%TO.P,U8,2,TXD*%
%TO.N,/uart0_Rx*%
X148787500Y-81670000D03*
%TO.P,U8,3,GND*%
%TO.N,GND*%
X151327500Y-81670000D03*
%TO.P,U8,4,VCC*%
%TO.N,+3.3V*%
X153867500Y-81670000D03*
%TO.P,U8,5,V_BCKP*%
%TO.N,Net-(J12-Pad4)*%
X156407500Y-81670000D03*
%TO.P,U8,6,1PPS*%
%TO.N,Net-(J12-Pad5)*%
X158947500Y-81670000D03*
%TO.P,U8,7,WAKE_UP*%
%TO.N,Net-(J11-Pad3)*%
X158947500Y-66170000D03*
%TO.P,U8,8,AADET_N*%
%TO.N,Net-(J11-Pad4)*%
X156407500Y-66170000D03*
%TO.P,U8,9,3D_FIX/BOOT*%
%TO.N,Net-(J11-Pad5)*%
X153867500Y-66170000D03*
%TO.P,U8,10,~{RESET}*%
%TO.N,Net-(J11-Pad6)*%
X151327500Y-66170000D03*
%TO.P,U8,11,EX_ANT*%
%TO.N,Net-(J12-Pad1)*%
X148787500Y-66170000D03*
%TO.P,U8,12,GND*%
%TO.N,GND*%
X146247500Y-66170000D03*
D31*
%TO.P,U8,13,JAM_IND*%
%TO.N,Net-(J12-Pad3)*%
X159847500Y-77730000D03*
%TO.P,U8,14,GEO_FENCE*%
%TO.N,Net-(J12-Pad2)*%
X159847500Y-76090000D03*
%TO.P,U8,15,I2C_SCL*%
%TO.N,Net-(J11-Pad1)*%
X159847500Y-71750000D03*
%TO.P,U8,16,I2C_SDA*%
%TO.N,Net-(J11-Pad2)*%
X159847500Y-70110000D03*
%TD*%
D32*
%TO.P,U4,1,GPIO0*%
%TO.N,unconnected-(U4-Pad1)*%
X197747500Y-90430000D03*
D11*
X197747500Y-91330000D03*
D32*
%TO.P,U4,2,GPIO1*%
%TO.N,unconnected-(U4-Pad2)*%
X195207500Y-90430000D03*
D11*
X195207500Y-91330000D03*
D32*
%TO.P,U4,3,GND*%
%TO.N,GND*%
X192667500Y-90430000D03*
D10*
X192667500Y-91330000D03*
D32*
%TO.P,U4,4,GPIO2*%
%TO.N,unconnected-(U4-Pad4)*%
X190127500Y-90430000D03*
D11*
X190127500Y-91330000D03*
%TO.P,U4,5,GPIO3*%
%TO.N,unconnected-(U4-Pad5)*%
X187587500Y-91330000D03*
D32*
X187587500Y-90430000D03*
%TO.P,U4,6,GPIO4*%
%TO.N,/Xbee_Rx*%
X185047500Y-90430000D03*
D11*
X185047500Y-91330000D03*
D32*
%TO.P,U4,7,GPIO5*%
%TO.N,/Xbee_Tx*%
X182507500Y-90430000D03*
D11*
X182507500Y-91330000D03*
D32*
%TO.P,U4,8,GND*%
%TO.N,GND*%
X179967500Y-90430000D03*
D10*
X179967500Y-91330000D03*
D11*
%TO.P,U4,9,GPIO6*%
%TO.N,Net-(J8-Pad1)*%
X177427500Y-91330000D03*
D32*
X177427500Y-90430000D03*
D11*
%TO.P,U4,10,GPIO7*%
%TO.N,Net-(J8-Pad2)*%
X174887500Y-91330000D03*
D32*
X174887500Y-90430000D03*
%TO.P,U4,11,GPIO8*%
%TO.N,Net-(J8-Pad3)*%
X172347500Y-90430000D03*
D11*
X172347500Y-91330000D03*
%TO.P,U4,12,GPIO9*%
%TO.N,Net-(J8-Pad4)*%
X169807500Y-91330000D03*
D32*
X169807500Y-90430000D03*
%TO.P,U4,13,GND*%
%TO.N,GND*%
X167267500Y-90430000D03*
D10*
X167267500Y-91330000D03*
D32*
%TO.P,U4,14,GPIO10*%
%TO.N,Net-(J8-Pad5)*%
X164727500Y-90430000D03*
D11*
X164727500Y-91330000D03*
D32*
%TO.P,U4,15,GPIO11*%
%TO.N,Net-(J8-Pad6)*%
X162187500Y-90430000D03*
D11*
X162187500Y-91330000D03*
%TO.P,U4,16,GPIO12*%
%TO.N,/uart0_Tx*%
X159647500Y-91330000D03*
D32*
X159647500Y-90430000D03*
%TO.P,U4,17,GPIO13*%
%TO.N,/uart0_Rx*%
X157107500Y-90430000D03*
D11*
X157107500Y-91330000D03*
D32*
%TO.P,U4,18,GND*%
%TO.N,GND*%
X154567500Y-90430000D03*
D10*
X154567500Y-91330000D03*
D32*
%TO.P,U4,19,GPIO14*%
%TO.N,/SDA*%
X152027500Y-90430000D03*
D11*
X152027500Y-91330000D03*
D32*
%TO.P,U4,20,GPIO15*%
%TO.N,/SCL*%
X149487500Y-90430000D03*
D11*
X149487500Y-91330000D03*
D32*
%TO.P,U4,21,GPIO16*%
%TO.N,Net-(R5-Pad2)*%
X149487500Y-110010000D03*
D11*
X149487500Y-109110000D03*
%TO.P,U4,22,GPIO17*%
%TO.N,/motor_3*%
X152027500Y-109110000D03*
D32*
X152027500Y-110010000D03*
D10*
%TO.P,U4,23,GND*%
%TO.N,GND*%
X154567500Y-109110000D03*
D32*
X154567500Y-110010000D03*
D11*
%TO.P,U4,24,GPIO18*%
%TO.N,/motor_2*%
X157107500Y-109110000D03*
D32*
X157107500Y-110010000D03*
D11*
%TO.P,U4,25,GPIO19*%
%TO.N,Net-(R4-Pad2)*%
X159647500Y-109110000D03*
D32*
X159647500Y-110010000D03*
D11*
%TO.P,U4,26,GPIO20*%
%TO.N,/motor_1*%
X162187500Y-109110000D03*
D32*
X162187500Y-110010000D03*
D11*
%TO.P,U4,27,GPIO21*%
%TO.N,Net-(BZ1-Pad1)*%
X164727500Y-109110000D03*
D32*
X164727500Y-110010000D03*
D10*
%TO.P,U4,28,GND*%
%TO.N,GND*%
X167267500Y-109110000D03*
D32*
X167267500Y-110010000D03*
%TO.P,U4,29,GPIO22*%
%TO.N,/nichrome_gpio*%
X169807500Y-110010000D03*
D11*
X169807500Y-109110000D03*
D32*
%TO.P,U4,30,RUN*%
%TO.N,/run*%
X172347500Y-110010000D03*
D11*
X172347500Y-109110000D03*
%TO.P,U4,31,GPIO26_ADC0*%
%TO.N,/pico_ADC_0*%
X174887500Y-109110000D03*
D32*
X174887500Y-110010000D03*
%TO.P,U4,32,GPIO27_ADC1*%
%TO.N,/pico_ADC_1*%
X177427500Y-110010000D03*
D11*
X177427500Y-109110000D03*
D32*
%TO.P,U4,33,AGND*%
%TO.N,unconnected-(U4-Pad33)*%
X179967500Y-110010000D03*
D10*
X179967500Y-109110000D03*
D11*
%TO.P,U4,34,GPIO28_ADC2*%
%TO.N,/pico_ADC_2*%
X182507500Y-109110000D03*
D32*
X182507500Y-110010000D03*
D11*
%TO.P,U4,35,ADC_VREF*%
%TO.N,unconnected-(U4-Pad35)*%
X185047500Y-109110000D03*
D32*
X185047500Y-110010000D03*
D11*
%TO.P,U4,36,3V3*%
%TO.N,+3.3V*%
X187587500Y-109110000D03*
D32*
X187587500Y-110010000D03*
D11*
%TO.P,U4,37,3V3_EN*%
%TO.N,unconnected-(U4-Pad37)*%
X190127500Y-109110000D03*
D32*
X190127500Y-110010000D03*
D10*
%TO.P,U4,38,GND*%
%TO.N,GND*%
X192667500Y-109110000D03*
D32*
X192667500Y-110010000D03*
%TO.P,U4,39,VSYS*%
%TO.N,unconnected-(U4-Pad39)*%
X195207500Y-110010000D03*
D11*
X195207500Y-109110000D03*
%TO.P,U4,40,VBUS*%
%TO.N,VBUS*%
X197747500Y-109110000D03*
D32*
X197747500Y-110010000D03*
D11*
%TO.P,U4,41,SWCLK*%
%TO.N,unconnected-(U4-Pad41)*%
X149717500Y-97680000D03*
D33*
X148817500Y-97680000D03*
D10*
%TO.P,U4,42,GND*%
%TO.N,GND*%
X149717500Y-100220000D03*
D33*
X148817500Y-100220000D03*
%TO.P,U4,43,SWDIO*%
%TO.N,unconnected-(U4-Pad43)*%
X148817500Y-102760000D03*
D11*
X149717500Y-102760000D03*
%TD*%
D34*
%TO.P,TP2,1,1*%
%TO.N,GND*%
X168850000Y-137066051D03*
%TD*%
D35*
%TO.P,Q1,1,B*%
%TO.N,Net-(Q1-Pad1)*%
X154350000Y-125528551D03*
%TO.P,Q1,2,E*%
%TO.N,GND*%
X152450000Y-125528551D03*
%TO.P,Q1,3,C*%
%TO.N,Net-(J10-Pad1)*%
X153400000Y-127403551D03*
%TD*%
D10*
%TO.P,J7,1,Pin_1*%
%TO.N,+3.3V*%
X107450000Y-110020000D03*
D11*
%TO.P,J7,2,Pin_2*%
X107450000Y-112560000D03*
%TO.P,J7,3,Pin_3*%
%TO.N,GND*%
X107450000Y-115100000D03*
%TO.P,J7,4,Pin_4*%
X107450000Y-117640000D03*
%TD*%
D36*
%TO.P,R2,1*%
%TO.N,+3.3V*%
X167600000Y-82500000D03*
%TO.P,R2,2*%
%TO.N,/SCL*%
X167600000Y-84500000D03*
%TD*%
D34*
%TO.P,TP1,1,1*%
%TO.N,+7.5V*%
X175250000Y-137066051D03*
%TD*%
D12*
%TO.P,C3,1*%
%TO.N,VBUS*%
X159587500Y-127466051D03*
%TO.P,C3,2*%
%TO.N,GND*%
X157512500Y-127466051D03*
%TD*%
D17*
%TO.P,D6,1,K*%
%TO.N,GND*%
X159675000Y-119666051D03*
%TO.P,D6,2,A*%
%TO.N,Net-(D6-Pad2)*%
X157625000Y-119666051D03*
%TD*%
D10*
%TO.P,J8,1,Pin_1*%
%TO.N,Net-(J8-Pad1)*%
X179950000Y-69800000D03*
D11*
%TO.P,J8,2,Pin_2*%
%TO.N,Net-(J8-Pad2)*%
X177410000Y-69800000D03*
%TO.P,J8,3,Pin_3*%
%TO.N,Net-(J8-Pad3)*%
X174870000Y-69800000D03*
%TO.P,J8,4,Pin_4*%
%TO.N,Net-(J8-Pad4)*%
X172330000Y-69800000D03*
%TO.P,J8,5,Pin_5*%
%TO.N,Net-(J8-Pad5)*%
X169790000Y-69800000D03*
%TO.P,J8,6,Pin_6*%
%TO.N,Net-(J8-Pad6)*%
X167250000Y-69800000D03*
%TD*%
D36*
%TO.P,R1,1*%
%TO.N,+3.3V*%
X170200000Y-82400000D03*
%TO.P,R1,2*%
%TO.N,/SDA*%
X170200000Y-84400000D03*
%TD*%
D37*
%TO.P,J2,1,Pin_1*%
%TO.N,+7.5V*%
X184872500Y-62120000D03*
D16*
%TO.P,J2,2,Pin_2*%
%TO.N,/motor_1*%
X179792500Y-62120000D03*
%TO.P,J2,3,Pin_3*%
%TO.N,GND*%
X174712500Y-62120000D03*
%TO.P,J2,4,Pin_4*%
X169632500Y-62120000D03*
%TD*%
D38*
%TO.P,BZ1,1,-*%
%TO.N,Net-(BZ1-Pad1)*%
X110500000Y-67800000D03*
D39*
%TO.P,BZ1,2,+*%
%TO.N,GND*%
X102900000Y-67800000D03*
%TD*%
D29*
%TO.P,U2,1,Vin*%
%TO.N,+3.3V*%
X106920000Y-136430000D03*
%TO.P,U2,2,3Vo*%
%TO.N,unconnected-(U2-Pad2)*%
X109460000Y-136430000D03*
%TO.P,U2,3,GND*%
%TO.N,GND*%
X112000000Y-136430000D03*
%TO.P,U2,4,SCK*%
%TO.N,/SCL*%
X114540000Y-136430000D03*
%TO.P,U2,5,SDO*%
%TO.N,unconnected-(U2-Pad5)*%
X117080000Y-136430000D03*
%TO.P,U2,6,SDI*%
%TO.N,/SDA*%
X119620000Y-136430000D03*
%TO.P,U2,7,CS*%
%TO.N,unconnected-(U2-Pad7)*%
X122160000Y-136430000D03*
%TD*%
D14*
%TO.P,R4,1*%
%TO.N,Net-(D2-Pad2)*%
X150425000Y-115866051D03*
%TO.P,R4,2*%
%TO.N,Net-(R4-Pad2)*%
X152425000Y-115866051D03*
%TD*%
D40*
%TO.N,Net-(BZ1-Pad1)*%
X131500000Y-107200000D03*
%TO.N,GND*%
X152500000Y-83500000D03*
X180200000Y-123300000D03*
X146300000Y-64000000D03*
X157500000Y-129100000D03*
X185000000Y-81500000D03*
X165800000Y-134016051D03*
X164900000Y-122600000D03*
X173800000Y-129100000D03*
X119800000Y-79400000D03*
X180000000Y-76900000D03*
X150300000Y-120700000D03*
%TO.N,VBUS*%
X183600000Y-128666051D03*
X180500000Y-124966051D03*
%TO.N,+3.3V*%
X189900000Y-104100000D03*
X187200000Y-84900000D03*
X111350000Y-119000000D03*
X191300000Y-82400000D03*
%TO.N,/motor_2*%
X185900000Y-117066051D03*
%TO.N,Net-(J8-Pad5)*%
X164700000Y-81700000D03*
%TO.N,Net-(J8-Pad6)*%
X162100000Y-82000000D03*
%TO.N,Net-(J12-Pad4)*%
X155200000Y-81600000D03*
%TO.N,Net-(J12-Pad5)*%
X157700000Y-81600000D03*
X143300000Y-65100000D03*
%TO.N,/SDA*%
X170200000Y-85800000D03*
X143800000Y-85100000D03*
X119300000Y-133166051D03*
%TO.N,/SCL*%
X126100000Y-131066051D03*
X132000000Y-80500000D03*
X114200000Y-131066051D03*
X167600000Y-86000000D03*
X121800000Y-80600000D03*
%TO.N,/nichrome_gpio*%
X165000000Y-115666051D03*
X154900000Y-120466051D03*
%TO.N,Net-(R4-Pad2)*%
X159100000Y-115700000D03*
%TO.N,/pico_ADC_2*%
X195900000Y-95300000D03*
X186300000Y-80900000D03*
%TO.N,/pico_ADC_0*%
X190600000Y-119366051D03*
X187600000Y-115566051D03*
%TO.N,/pico_ADC_1*%
X179900000Y-85900000D03*
X195900000Y-93900000D03*
%TD*%
D41*
%TO.N,Net-(BZ1-Pad1)*%
X164727500Y-103427500D02*
X164700000Y-103400000D01*
X148100000Y-107200000D02*
X148100000Y-107400000D01*
X164700000Y-103400000D02*
X163900000Y-102600000D01*
X152700000Y-102600000D02*
X148100000Y-107200000D01*
X163900000Y-102600000D02*
X152700000Y-102600000D01*
X164727500Y-109110000D02*
X164727500Y-103427500D01*
X131700000Y-107400000D02*
X131500000Y-107200000D01*
X148100000Y-107400000D02*
X131700000Y-107400000D01*
D42*
%TO.N,GND*%
X152450000Y-118550000D02*
X150300000Y-120700000D01*
D41*
X185073000Y-84127000D02*
X183800000Y-84127000D01*
X159675000Y-119666051D02*
X159675000Y-119841051D01*
D42*
X146247500Y-66170000D02*
X146247500Y-64052500D01*
D41*
X175875000Y-120141051D02*
X178400000Y-122666051D01*
X180000000Y-78700000D02*
X180000000Y-76900000D01*
X185300000Y-83200000D02*
X185300000Y-83900000D01*
D42*
X119823949Y-79376051D02*
X119800000Y-79400000D01*
X150900000Y-121300000D02*
X150900000Y-125100000D01*
D41*
X192667500Y-112948551D02*
X190600000Y-115016051D01*
D42*
X146247500Y-64052500D02*
X146300000Y-64000000D01*
D41*
X162400000Y-122566051D02*
X164866051Y-122566051D01*
X185300000Y-82700000D02*
X185300000Y-83200000D01*
X173812500Y-129087500D02*
X173800000Y-129100000D01*
X157512500Y-127466051D02*
X157512500Y-129087500D01*
X183800000Y-82225000D02*
X184825000Y-82225000D01*
X179566051Y-122666051D02*
X180200000Y-123300000D01*
X188200000Y-83175000D02*
X185325000Y-83175000D01*
D42*
X151327500Y-82327500D02*
X152500000Y-83500000D01*
X148250000Y-118466051D02*
X148250000Y-118650000D01*
X152450000Y-118466051D02*
X152450000Y-118550000D01*
D41*
X157512500Y-129087500D02*
X157500000Y-129100000D01*
D42*
X150900000Y-125100000D02*
X151328551Y-125528551D01*
D41*
X175875000Y-119866051D02*
X175875000Y-120141051D01*
D42*
X151327500Y-81670000D02*
X151327500Y-82327500D01*
X150300000Y-120700000D02*
X150900000Y-121300000D01*
D41*
X164866051Y-122566051D02*
X164900000Y-122600000D01*
D42*
X151328551Y-125528551D02*
X152450000Y-125528551D01*
D41*
X180000000Y-78700000D02*
X180000000Y-81300000D01*
D42*
X119823949Y-77653949D02*
X119823949Y-79376051D01*
D41*
X184825000Y-82225000D02*
X185300000Y-82700000D01*
X159675000Y-119841051D02*
X162400000Y-122566051D01*
X157512500Y-127466051D02*
X157512500Y-124766051D01*
X185325000Y-83175000D02*
X185300000Y-83200000D01*
X178400000Y-122666051D02*
X179566051Y-122666051D01*
X173812500Y-127566051D02*
X173812500Y-129087500D01*
D42*
X185000000Y-82050000D02*
X184825000Y-82225000D01*
D41*
X173812500Y-127566051D02*
X173812500Y-124966051D01*
D42*
X107450000Y-117640000D02*
X107450000Y-115100000D01*
D41*
X185300000Y-83900000D02*
X185073000Y-84127000D01*
X192667500Y-109110000D02*
X192667500Y-112948551D01*
D42*
X185000000Y-81500000D02*
X185000000Y-82050000D01*
X148250000Y-118650000D02*
X150300000Y-120700000D01*
D43*
X165800000Y-134016051D02*
X168850000Y-137066051D01*
%TO.N,+7.5V*%
X193050000Y-129416051D02*
X194000000Y-130366051D01*
X179050000Y-119866051D02*
X178135000Y-119866051D01*
X177500000Y-131666051D02*
X175150000Y-131666051D01*
X184127500Y-135888551D02*
X187700000Y-132316051D01*
X182200000Y-123016051D02*
X179050000Y-119866051D01*
X188920000Y-62120000D02*
X190500000Y-63700000D01*
X178400000Y-130766051D02*
X177500000Y-131666051D01*
X190600000Y-129416051D02*
X193050000Y-129416051D01*
X184872500Y-62120000D02*
X188920000Y-62120000D01*
X183410000Y-135888551D02*
X184127500Y-135888551D01*
X181100000Y-127266051D02*
X182200000Y-126166051D01*
X195320000Y-136086051D02*
X198972500Y-136086051D01*
X175250000Y-137066051D02*
X182232500Y-137066051D01*
X195295000Y-81340000D02*
X198560000Y-81340000D01*
X204200000Y-131200000D02*
X199280000Y-136120000D01*
X175150000Y-136966051D02*
X175250000Y-137066051D01*
X189083949Y-129416051D02*
X190600000Y-129416051D01*
X190500000Y-63700000D02*
X190500000Y-78800000D01*
X194000000Y-134766051D02*
X195320000Y-136086051D01*
X178100000Y-127566051D02*
X178400000Y-127266051D01*
X194000000Y-130366051D02*
X194000000Y-134766051D01*
X204200000Y-86700000D02*
X204200000Y-131200000D01*
X198700000Y-81200000D02*
X204200000Y-86700000D01*
X182232500Y-137066051D02*
X183410000Y-135888551D01*
X182200000Y-126166051D02*
X182200000Y-123016051D01*
X187700000Y-132316051D02*
X187700000Y-130800000D01*
X175887500Y-127566051D02*
X178100000Y-127566051D01*
X175150000Y-131666051D02*
X175150000Y-136966051D01*
X193040000Y-81340000D02*
X195295000Y-81340000D01*
X190500000Y-78800000D02*
X193040000Y-81340000D01*
X178400000Y-127266051D02*
X178400000Y-130766051D01*
X178400000Y-127266051D02*
X181100000Y-127266051D01*
X187700000Y-130800000D02*
X189083949Y-129416051D01*
X198560000Y-81340000D02*
X198700000Y-81200000D01*
D41*
%TO.N,VBUS*%
X156000000Y-118366051D02*
X156700000Y-117666051D01*
X184700000Y-123166051D02*
X185755000Y-122111051D01*
X182000000Y-83400000D02*
X182225000Y-83175000D01*
X175850000Y-122366051D02*
X175850000Y-123716051D01*
X197747500Y-109110000D02*
X199500000Y-107357500D01*
X188773000Y-81273000D02*
X188200000Y-81273000D01*
X184700000Y-128266051D02*
X184700000Y-124966051D01*
X182000000Y-83400000D02*
X182000000Y-85100000D01*
X182225000Y-83175000D02*
X183800000Y-83175000D01*
X162400000Y-129266051D02*
X161466051Y-130200000D01*
X162400000Y-127166051D02*
X162400000Y-129266051D01*
X162400000Y-129266051D02*
X171000000Y-129266051D01*
X184300000Y-128666051D02*
X184700000Y-128266051D01*
X161400000Y-117666051D02*
X162035000Y-118301051D01*
X171900000Y-127466051D02*
X171900000Y-124116051D01*
X188800000Y-85800000D02*
X189500000Y-85100000D01*
X175800000Y-123666051D02*
X175850000Y-123716051D01*
X182000000Y-85100000D02*
X182700000Y-85800000D01*
X182700000Y-85800000D02*
X188800000Y-85800000D01*
X184700000Y-124966051D02*
X184700000Y-123166051D01*
X199500000Y-107357500D02*
X199500000Y-87900000D01*
X171900000Y-124116051D02*
X172350000Y-123666051D01*
X162100000Y-127466051D02*
X162400000Y-127166051D01*
X185755000Y-122111051D02*
X185755000Y-119866051D01*
X197400000Y-85800000D02*
X188800000Y-85800000D01*
X195900000Y-117000000D02*
X197747500Y-115152500D01*
X171000000Y-129266051D02*
X171900000Y-128366051D01*
X175887500Y-124966051D02*
X178400000Y-124966051D01*
X172350000Y-123666051D02*
X175800000Y-123666051D01*
X162035000Y-118301051D02*
X162035000Y-119666051D01*
X156700000Y-117666051D02*
X161400000Y-117666051D01*
X156600000Y-130200000D02*
X156000000Y-129600000D01*
X159587500Y-127466051D02*
X162100000Y-127466051D01*
X161466051Y-130200000D02*
X156600000Y-130200000D01*
X171900000Y-128366051D02*
X171900000Y-127466051D01*
X156000000Y-129600000D02*
X156000000Y-118366051D01*
X189500000Y-82000000D02*
X188773000Y-81273000D01*
X199500000Y-87900000D02*
X197400000Y-85800000D01*
X189500000Y-85100000D02*
X189500000Y-82000000D01*
X188621051Y-117000000D02*
X195900000Y-117000000D01*
X185755000Y-119866051D02*
X188621051Y-117000000D01*
X178400000Y-124966051D02*
X180500000Y-124966051D01*
X175850000Y-124928551D02*
X175887500Y-124966051D01*
X175850000Y-123716051D02*
X175850000Y-124928551D01*
X183600000Y-128666051D02*
X184300000Y-128666051D01*
X197747500Y-115152500D02*
X197747500Y-109110000D01*
%TO.N,+3.3V*%
X178400000Y-76600000D02*
X179100000Y-75900000D01*
X115600000Y-75200000D02*
X131500000Y-75200000D01*
X167600000Y-81100000D02*
X167600000Y-82500000D01*
X144400000Y-81700000D02*
X144400000Y-79100000D01*
X179100000Y-75900000D02*
X184500000Y-75900000D01*
X187200000Y-84900000D02*
X187427000Y-84900000D01*
X110300000Y-112600000D02*
X110300000Y-117950000D01*
X166167500Y-79667500D02*
X167600000Y-81100000D01*
X187587500Y-109110000D02*
X187587500Y-106412500D01*
X187587500Y-106412500D02*
X189900000Y-104100000D01*
D42*
X107450000Y-112560000D02*
X107450000Y-110020000D01*
D41*
X149800000Y-78500000D02*
X150967500Y-79667500D01*
X102000000Y-86900000D02*
X110300000Y-95200000D01*
X142600000Y-83500000D02*
X144400000Y-81700000D01*
X144400000Y-79100000D02*
X145000000Y-78500000D01*
X114743949Y-77653949D02*
X114743949Y-76056051D01*
X162300000Y-124766051D02*
X162400000Y-124866051D01*
X130732475Y-137498526D02*
X127600000Y-134366051D01*
X159587500Y-124766051D02*
X159587500Y-122328551D01*
X114743949Y-77653949D02*
X105246051Y-77653949D01*
X127600000Y-134366051D02*
X110233949Y-134366051D01*
X170100000Y-82500000D02*
X170200000Y-82400000D01*
X114743949Y-76056051D02*
X115600000Y-75200000D01*
X167600000Y-82500000D02*
X170100000Y-82500000D01*
D42*
X110220000Y-112520000D02*
X110300000Y-112600000D01*
D41*
X111350000Y-119000000D02*
X111350000Y-132250000D01*
X110233949Y-134366051D02*
X109233949Y-134366051D01*
X168700000Y-124866051D02*
X168700000Y-120621051D01*
X130732475Y-139090000D02*
X130732475Y-137498526D01*
X133100000Y-76800000D02*
X133100000Y-82900000D01*
X162400000Y-124866051D02*
X168700000Y-124866051D01*
X133100000Y-82900000D02*
X133700000Y-83500000D01*
X187427000Y-84900000D02*
X188200000Y-84127000D01*
X178400000Y-81700000D02*
X178400000Y-76600000D01*
X145000000Y-78500000D02*
X149800000Y-78500000D01*
X187600000Y-78700000D02*
X191300000Y-82400000D01*
X159587500Y-124766051D02*
X162300000Y-124766051D01*
X105246051Y-77653949D02*
X102000000Y-80900000D01*
X186100000Y-77500000D02*
X186100000Y-78700000D01*
X110300000Y-95200000D02*
X110300000Y-112600000D01*
X107170000Y-136430000D02*
X106920000Y-136430000D01*
X111350000Y-132250000D02*
X109233949Y-134366051D01*
X170200000Y-82400000D02*
X177700000Y-82400000D01*
X109233949Y-134366051D02*
X107170000Y-136430000D01*
X110300000Y-117950000D02*
X111350000Y-119000000D01*
D42*
X107400000Y-112520000D02*
X110220000Y-112520000D01*
D41*
X131500000Y-75200000D02*
X133100000Y-76800000D01*
X186100000Y-78700000D02*
X187600000Y-78700000D01*
X184500000Y-75900000D02*
X186100000Y-77500000D01*
X102000000Y-80900000D02*
X102000000Y-86900000D01*
X133700000Y-83500000D02*
X142600000Y-83500000D01*
X153867500Y-79667500D02*
X153867500Y-81670000D01*
X177700000Y-82400000D02*
X178400000Y-81700000D01*
X168700000Y-120621051D02*
X169655000Y-119666051D01*
X159587500Y-122328551D02*
X159650000Y-122266051D01*
X150967500Y-79667500D02*
X153867500Y-79667500D01*
X153867500Y-79667500D02*
X166167500Y-79667500D01*
%TO.N,Net-(D2-Pad2)*%
X150400000Y-118466051D02*
X150400000Y-115891051D01*
X150400000Y-115891051D02*
X150425000Y-115866051D01*
%TO.N,Net-(D3-Pad2)*%
X146200000Y-118466051D02*
X146200000Y-115791051D01*
X146200000Y-115791051D02*
X146225000Y-115766051D01*
%TO.N,Net-(D4-Pad2)*%
X173850000Y-119891051D02*
X173825000Y-119866051D01*
X173850000Y-122366051D02*
X173850000Y-119891051D01*
%TO.N,Net-(D6-Pad2)*%
X157650000Y-122266051D02*
X157650000Y-119691051D01*
X157650000Y-119691051D02*
X157625000Y-119666051D01*
%TO.N,Net-(J1-Pad1)*%
X123050000Y-116500000D02*
X123050000Y-113844930D01*
X123050000Y-113844930D02*
X125496730Y-111398200D01*
%TO.N,Net-(J1-Pad2)*%
X125590000Y-116500000D02*
X125590000Y-113303910D01*
X125590000Y-113303910D02*
X127495710Y-111398200D01*
%TO.N,Net-(J1-Pad3)*%
X128130000Y-116500000D02*
X128130000Y-112762890D01*
X128130000Y-112762890D02*
X129494690Y-111398200D01*
%TO.N,Net-(J1-Pad4)*%
X130670000Y-116500000D02*
X130670000Y-112224410D01*
X130670000Y-112224410D02*
X131496210Y-111398200D01*
%TO.N,Net-(J1-Pad5)*%
X133210000Y-111683390D02*
X133495190Y-111398200D01*
X133210000Y-116500000D02*
X133210000Y-111683390D01*
%TO.N,Net-(J1-Pad6)*%
X135750000Y-116500000D02*
X135750000Y-111651490D01*
X135750000Y-111651490D02*
X135496710Y-111398200D01*
%TO.N,/motor_2*%
X164100000Y-117700000D02*
X185500000Y-117700000D01*
X185500000Y-117700000D02*
X185900000Y-117300000D01*
X157107500Y-110707500D02*
X164100000Y-117700000D01*
X157107500Y-109110000D02*
X157107500Y-110707500D01*
X185900000Y-117300000D02*
X185900000Y-117066051D01*
D42*
%TO.N,Net-(J6-Pad1)*%
X137495690Y-87895690D02*
X137495690Y-89401800D01*
X134300000Y-87600000D02*
X137200000Y-87600000D01*
X137200000Y-87600000D02*
X137495690Y-87895690D01*
X130900000Y-84200000D02*
X134300000Y-87600000D01*
X129925000Y-84200000D02*
X130900000Y-84200000D01*
%TO.N,Net-(J6-Pad2)*%
X127385000Y-85285000D02*
X127385000Y-84200000D01*
X133700000Y-88100000D02*
X131500000Y-85900000D01*
X134700000Y-88100000D02*
X133700000Y-88100000D01*
X128000000Y-85900000D02*
X127385000Y-85285000D01*
X135496710Y-88896710D02*
X134700000Y-88100000D01*
X131500000Y-85900000D02*
X128000000Y-85900000D01*
X135496710Y-89401800D02*
X135496710Y-88896710D01*
%TO.N,Net-(J6-Pad3)*%
X127145000Y-86500000D02*
X124845000Y-84200000D01*
X133495190Y-89401800D02*
X130593390Y-86500000D01*
X130593390Y-86500000D02*
X127145000Y-86500000D01*
%TO.N,Net-(J6-Pad4)*%
X131496210Y-89401800D02*
X130500000Y-88405590D01*
X122305000Y-85505000D02*
X122305000Y-84200000D01*
X125400000Y-86000000D02*
X122800000Y-86000000D01*
X122800000Y-86000000D02*
X122305000Y-85505000D01*
X126400000Y-87000000D02*
X125400000Y-86000000D01*
X130500000Y-88405590D02*
X130500000Y-87800000D01*
X130500000Y-87800000D02*
X129700000Y-87000000D01*
X129700000Y-87000000D02*
X126400000Y-87000000D01*
%TO.N,Net-(J6-Pad5)*%
X119765000Y-84465000D02*
X119765000Y-84200000D01*
X124900000Y-86500000D02*
X121800000Y-86500000D01*
X121800000Y-86500000D02*
X119765000Y-84465000D01*
X129494690Y-88294690D02*
X128700000Y-87500000D01*
X129494690Y-89401800D02*
X129494690Y-88294690D01*
X125900000Y-87500000D02*
X124900000Y-86500000D01*
X128700000Y-87500000D02*
X125900000Y-87500000D01*
%TO.N,Net-(J6-Pad6)*%
X127495710Y-88795710D02*
X126700000Y-88000000D01*
X127495710Y-89401800D02*
X127495710Y-88795710D01*
X124692894Y-87000000D02*
X120800000Y-87000000D01*
X120800000Y-87000000D02*
X118000000Y-84200000D01*
X125692894Y-88000000D02*
X124692894Y-87000000D01*
X126700000Y-88000000D02*
X125692894Y-88000000D01*
X118000000Y-84200000D02*
X117225000Y-84200000D01*
%TO.N,Net-(J6-Pad7)*%
X120100000Y-87500000D02*
X118500000Y-85900000D01*
X114685000Y-85285000D02*
X114685000Y-84200000D01*
X125496730Y-88696730D02*
X124300000Y-87500000D01*
X115300000Y-85900000D02*
X114685000Y-85285000D01*
X125496730Y-89401800D02*
X125496730Y-88696730D01*
X124300000Y-87500000D02*
X120100000Y-87500000D01*
X118500000Y-85900000D02*
X115300000Y-85900000D01*
%TO.N,Net-(J6-Pad8)*%
X118000000Y-86500000D02*
X112900000Y-86500000D01*
X119500000Y-88000000D02*
X118000000Y-86500000D01*
X123495210Y-88324170D02*
X123200000Y-88028960D01*
X123495210Y-89401800D02*
X123495210Y-88324170D01*
X123200000Y-88000000D02*
X119500000Y-88000000D01*
X112900000Y-86500000D02*
X112145000Y-85745000D01*
X123200000Y-88028960D02*
X123200000Y-88000000D01*
X112145000Y-85745000D02*
X112145000Y-84200000D01*
%TO.N,Net-(J6-Pad9)*%
X121496230Y-91396230D02*
X121500000Y-91400000D01*
X121496230Y-89401800D02*
X121496230Y-91396230D01*
X117205000Y-91800000D02*
X109605000Y-84200000D01*
X121100000Y-91800000D02*
X117205000Y-91800000D01*
X121500000Y-91400000D02*
X121100000Y-91800000D01*
D41*
%TO.N,Net-(J8-Pad5)*%
X164727500Y-81727500D02*
X164700000Y-81700000D01*
X164727500Y-91330000D02*
X164727500Y-81727500D01*
%TO.N,Net-(J8-Pad6)*%
X162187500Y-91330000D02*
X162187500Y-82087500D01*
X162187500Y-82087500D02*
X162100000Y-82000000D01*
%TO.N,Net-(J10-Pad1)*%
X153400000Y-133276051D02*
X155932500Y-135808551D01*
X153400000Y-127403551D02*
X153400000Y-133276051D01*
%TO.N,Net-(J10-Pad2)*%
X161012500Y-133153551D02*
X162500000Y-131666051D01*
X162500000Y-131666051D02*
X169050000Y-131666051D01*
X161012500Y-135808551D02*
X161012500Y-133153551D01*
%TO.N,Net-(J11-Pad1)*%
X162800000Y-69900000D02*
X160950000Y-71750000D01*
X160950000Y-71750000D02*
X159847500Y-71750000D01*
X162800000Y-59300000D02*
X162800000Y-69900000D01*
%TO.N,Net-(J11-Pad2)*%
X160260000Y-59300000D02*
X160260000Y-69697500D01*
X160260000Y-69697500D02*
X159847500Y-70110000D01*
%TO.N,Net-(J11-Pad3)*%
X158947500Y-60527500D02*
X157720000Y-59300000D01*
X158947500Y-66170000D02*
X158947500Y-60527500D01*
%TO.N,Net-(J11-Pad4)*%
X156407500Y-60527500D02*
X155180000Y-59300000D01*
X156407500Y-66170000D02*
X156407500Y-60527500D01*
%TO.N,Net-(J11-Pad5)*%
X153867500Y-60527500D02*
X152640000Y-59300000D01*
X153867500Y-66170000D02*
X153867500Y-60527500D01*
%TO.N,Net-(J11-Pad6)*%
X151327500Y-60527500D02*
X150100000Y-59300000D01*
X151327500Y-66170000D02*
X151327500Y-60527500D01*
%TO.N,Net-(J12-Pad1)*%
X148787500Y-63987500D02*
X144000000Y-59200000D01*
X148787500Y-66170000D02*
X148787500Y-63987500D01*
%TO.N,Net-(J12-Pad2)*%
X145100000Y-67500000D02*
X146600000Y-69000000D01*
X146600000Y-69000000D02*
X153600000Y-69000000D01*
X153600000Y-69000000D02*
X159847500Y-75247500D01*
X159847500Y-75247500D02*
X159847500Y-76090000D01*
X145100000Y-62840000D02*
X141460000Y-59200000D01*
X145100000Y-67500000D02*
X145100000Y-62840000D01*
%TO.N,Net-(J12-Pad3)*%
X159847500Y-77730000D02*
X158130000Y-77730000D01*
X158130000Y-77730000D02*
X157100000Y-76700000D01*
X144200000Y-68600000D02*
X144200000Y-68300000D01*
X144200000Y-63800000D02*
X141500000Y-61100000D01*
X138920000Y-60220000D02*
X138920000Y-59200000D01*
X153200000Y-70500000D02*
X146100000Y-70500000D01*
X144200000Y-68300000D02*
X144200000Y-63800000D01*
X139800000Y-61100000D02*
X138920000Y-60220000D01*
X157100000Y-76700000D02*
X157100000Y-74400000D01*
X141500000Y-61100000D02*
X139800000Y-61100000D01*
X157100000Y-74400000D02*
X153200000Y-70500000D01*
X146100000Y-70500000D02*
X144200000Y-68600000D01*
%TO.N,Net-(J12-Pad4)*%
X155270000Y-81670000D02*
X155200000Y-81600000D01*
X156407500Y-81670000D02*
X155270000Y-81670000D01*
%TO.N,Net-(J12-Pad5)*%
X133840000Y-63940000D02*
X133840000Y-59200000D01*
X158947500Y-81670000D02*
X157770000Y-81670000D01*
X143300000Y-65100000D02*
X135000000Y-65100000D01*
X135000000Y-65100000D02*
X133840000Y-63940000D01*
X157770000Y-81670000D02*
X157700000Y-81600000D01*
%TO.N,Net-(Q1-Pad1)*%
X154350000Y-122616051D02*
X154300000Y-122566051D01*
X154350000Y-125528551D02*
X154350000Y-122616051D01*
%TO.N,/SDA*%
X138352475Y-134418526D02*
X138200000Y-134266051D01*
X115900000Y-91900000D02*
X115900000Y-130700000D01*
X104400000Y-85900000D02*
X107500000Y-89000000D01*
X127443949Y-77653949D02*
X127443949Y-81156051D01*
X152027500Y-89470000D02*
X147657500Y-85100000D01*
X105300000Y-81500000D02*
X104400000Y-82400000D01*
X138352475Y-139090000D02*
X138352475Y-134418526D01*
X113000000Y-89000000D02*
X115900000Y-91900000D01*
X170200000Y-85800000D02*
X170200000Y-84400000D01*
X115900000Y-130700000D02*
X118366051Y-133166051D01*
X138200000Y-134266051D02*
X137100000Y-133166051D01*
X104400000Y-82400000D02*
X104400000Y-85900000D01*
X137100000Y-133166051D02*
X119300000Y-133166051D01*
X152027500Y-91330000D02*
X152027500Y-89470000D01*
X147657500Y-85100000D02*
X143800000Y-85100000D01*
X107500000Y-89000000D02*
X113000000Y-89000000D01*
X127443949Y-81156051D02*
X127100000Y-81500000D01*
X127100000Y-81500000D02*
X105300000Y-81500000D01*
X118366051Y-133166051D02*
X119300000Y-133166051D01*
%TO.N,/SCL*%
X126100000Y-131066051D02*
X138900000Y-131066051D01*
X134600000Y-86900000D02*
X132000000Y-84300000D01*
X140892475Y-133058526D02*
X140892475Y-139090000D01*
X132000000Y-84300000D02*
X132000000Y-80500000D01*
X167600000Y-86000000D02*
X167600000Y-84500000D01*
X103200000Y-86600000D02*
X106800000Y-90200000D01*
X121800000Y-80600000D02*
X104600000Y-80600000D01*
X114200000Y-91800000D02*
X114200000Y-131066051D01*
X138900000Y-131066051D02*
X140892475Y-133058526D01*
X106800000Y-90200000D02*
X112600000Y-90200000D01*
X149487500Y-91330000D02*
X145057500Y-86900000D01*
X112600000Y-90200000D02*
X114200000Y-91800000D01*
X104600000Y-80600000D02*
X103200000Y-82000000D01*
X103200000Y-82000000D02*
X103200000Y-86600000D01*
X122363949Y-77653949D02*
X122363949Y-80036051D01*
X122363949Y-80036051D02*
X121800000Y-80600000D01*
X145057500Y-86900000D02*
X134600000Y-86900000D01*
%TO.N,/nichrome_gpio*%
X154400000Y-120466051D02*
X152300000Y-122566051D01*
X168133949Y-115666051D02*
X165000000Y-115666051D01*
X154900000Y-120466051D02*
X154400000Y-120466051D01*
X169807500Y-109110000D02*
X169807500Y-113992500D01*
X169807500Y-113992500D02*
X168133949Y-115666051D01*
%TO.N,Net-(R4-Pad2)*%
X159100000Y-115700000D02*
X152591051Y-115700000D01*
X152591051Y-115700000D02*
X152425000Y-115866051D01*
%TO.N,Net-(R5-Pad2)*%
X149200000Y-113766051D02*
X149200000Y-109397500D01*
X149200000Y-109397500D02*
X149487500Y-109110000D01*
X149200000Y-113766051D02*
X148225000Y-114741051D01*
X148225000Y-114741051D02*
X148225000Y-115766051D01*
%TO.N,/pico_ADC_2*%
X191800000Y-99817500D02*
X191800000Y-97300000D01*
X193800000Y-95300000D02*
X195900000Y-95300000D01*
X182507500Y-109110000D02*
X191800000Y-99817500D01*
X186300000Y-80900000D02*
X187625000Y-82225000D01*
X182000000Y-78700000D02*
X184100000Y-78700000D01*
X187625000Y-82225000D02*
X188200000Y-82225000D01*
X184100000Y-78700000D02*
X186300000Y-80900000D01*
X191800000Y-97300000D02*
X193800000Y-95300000D01*
%TO.N,/pico_ADC_0*%
X187600000Y-115566051D02*
X176533949Y-115566051D01*
X174887500Y-113987500D02*
X174887500Y-109110000D01*
X176533949Y-115566051D02*
X176500000Y-115600000D01*
X190600000Y-123316051D02*
X190600000Y-121116051D01*
X176500000Y-115600000D02*
X174887500Y-113987500D01*
X190600000Y-119366051D02*
X190600000Y-121116051D01*
%TO.N,/pico_ADC_1*%
X179900000Y-85900000D02*
X179900000Y-83500000D01*
X180000000Y-83400000D02*
X180000000Y-83300000D01*
X191400000Y-93900000D02*
X195900000Y-93900000D01*
X177427500Y-109110000D02*
X177427500Y-107872500D01*
X190100000Y-95200000D02*
X191400000Y-93900000D01*
X183773000Y-81300000D02*
X183800000Y-81273000D01*
X179900000Y-83500000D02*
X180000000Y-83400000D01*
X180000000Y-83300000D02*
X182000000Y-81300000D01*
X182000000Y-81300000D02*
X183773000Y-81300000D01*
X177427500Y-107872500D02*
X190100000Y-95200000D01*
%TO.N,/Xbee_Rx*%
X123495210Y-111398200D02*
X139093410Y-95800000D01*
X185047500Y-94952500D02*
X185047500Y-91330000D01*
X184200000Y-95800000D02*
X185047500Y-94952500D01*
X139093410Y-95800000D02*
X184200000Y-95800000D01*
%TO.N,/Xbee_Tx*%
X121496230Y-109703770D02*
X136500000Y-94700000D01*
X181100000Y-94700000D02*
X182507500Y-93292500D01*
X121496230Y-111398200D02*
X121496230Y-109703770D01*
X136500000Y-94700000D02*
X181100000Y-94700000D01*
X182507500Y-93292500D02*
X182507500Y-91330000D01*
%TO.N,/uart0_Tx*%
X157500000Y-84900000D02*
X159647500Y-87047500D01*
X149600000Y-79500000D02*
X150100000Y-80000000D01*
X150100000Y-84100000D02*
X150900000Y-84900000D01*
X150100000Y-80000000D02*
X150100000Y-84100000D01*
X146247500Y-81670000D02*
X146247500Y-80352500D01*
X146247500Y-80352500D02*
X147100000Y-79500000D01*
X147100000Y-79500000D02*
X149600000Y-79500000D01*
X150900000Y-84900000D02*
X157500000Y-84900000D01*
X159647500Y-87047500D02*
X159647500Y-91330000D01*
%TO.N,/uart0_Rx*%
X148787500Y-84487500D02*
X151300000Y-87000000D01*
X148787500Y-81670000D02*
X148787500Y-84487500D01*
X157107500Y-88507500D02*
X157107500Y-91330000D01*
X151300000Y-87000000D02*
X155600000Y-87000000D01*
X155600000Y-87000000D02*
X157107500Y-88507500D01*
%TD*%
M02*
