%TF.GenerationSoftware,KiCad,Pcbnew,6.0.9-8da3e8f707~117~ubuntu18.04.1*%
%TF.CreationDate,2023-03-08T09:23:39+05:30*%
%TF.ProjectId,Cansat_V1.2,43616e73-6174-45f5-9631-2e322e6b6963,rev?*%
%TF.SameCoordinates,Original*%
%TF.FileFunction,Soldermask,Top*%
%TF.FilePolarity,Negative*%
%FSLAX46Y46*%
G04 Gerber Fmt 4.6, Leading zero omitted, Abs format (unit mm)*
G04 Created by KiCad (PCBNEW 6.0.9-8da3e8f707~117~ubuntu18.04.1) date 2023-03-08 09:23:39*
%MOMM*%
%LPD*%
G01*
G04 APERTURE LIST*
G04 Aperture macros list*
%AMRoundRect*
0 Rectangle with rounded corners*
0 $1 Rounding radius*
0 $2 $3 $4 $5 $6 $7 $8 $9 X,Y pos of 4 corners*
0 Add a 4 corners polygon primitive as box body*
4,1,4,$2,$3,$4,$5,$6,$7,$8,$9,$2,$3,0*
0 Add four circle primitives for the rounded corners*
1,1,$1+$1,$2,$3*
1,1,$1+$1,$4,$5*
1,1,$1+$1,$6,$7*
1,1,$1+$1,$8,$9*
0 Add four rect primitives between the rounded corners*
20,1,$1+$1,$2,$3,$4,$5,0*
20,1,$1+$1,$4,$5,$6,$7,0*
20,1,$1+$1,$6,$7,$8,$9,0*
20,1,$1+$1,$8,$9,$2,$3,0*%
G04 Aperture macros list end*
%ADD10R,1.700000X1.700000*%
%ADD11O,1.700000X1.700000*%
%ADD12RoundRect,0.250000X0.337500X0.475000X-0.337500X0.475000X-0.337500X-0.475000X0.337500X-0.475000X0*%
%ADD13C,1.727200*%
%ADD14RoundRect,0.250000X-0.350000X-0.450000X0.350000X-0.450000X0.350000X0.450000X-0.350000X0.450000X0*%
%ADD15RoundRect,0.249999X-0.790001X-1.550001X0.790001X-1.550001X0.790001X1.550001X-0.790001X1.550001X0*%
%ADD16O,2.080000X3.600000*%
%ADD17RoundRect,0.250000X0.325000X0.450000X-0.325000X0.450000X-0.325000X-0.450000X0.325000X-0.450000X0*%
%ADD18C,2.200000*%
%ADD19RoundRect,0.250000X0.350000X0.450000X-0.350000X0.450000X-0.350000X-0.450000X0.350000X-0.450000X0*%
%ADD20R,2.000000X1.500000*%
%ADD21R,2.000000X3.800000*%
%ADD22R,1.000000X0.700000*%
%ADD23RoundRect,0.249999X1.550001X-0.790001X1.550001X0.790001X-1.550001X0.790001X-1.550001X-0.790001X0*%
%ADD24O,3.600000X2.080000*%
%ADD25C,2.032000*%
%ADD26R,1.500000X1.500000*%
%ADD27O,1.500000X1.500000*%
%ADD28RoundRect,0.249999X1.425001X-0.450001X1.425001X0.450001X-1.425001X0.450001X-1.425001X-0.450001X0*%
%ADD29RoundRect,0.249999X-0.450001X-1.425001X0.450001X-1.425001X0.450001X1.425001X-0.450001X1.425001X0*%
%ADD30C,1.879600*%
%ADD31C,4.000000*%
%ADD32O,0.800000X2.500000*%
%ADD33O,2.500000X0.800000*%
%ADD34O,1.800000X1.800000*%
%ADD35R,1.700000X3.500000*%
%ADD36R,3.500000X1.700000*%
%ADD37RoundRect,0.150000X-0.150000X0.587500X-0.150000X-0.587500X0.150000X-0.587500X0.150000X0.587500X0*%
%ADD38RoundRect,0.250000X-0.450000X0.350000X-0.450000X-0.350000X0.450000X-0.350000X0.450000X0.350000X0*%
%ADD39RoundRect,0.249999X0.790001X1.550001X-0.790001X1.550001X-0.790001X-1.550001X0.790001X-1.550001X0*%
%ADD40R,2.000000X2.000000*%
%ADD41C,2.000000*%
G04 APERTURE END LIST*
D10*
%TO.C,J1*%
X123050000Y-116500000D03*
D11*
X125590000Y-116500000D03*
X128130000Y-116500000D03*
X130670000Y-116500000D03*
X133210000Y-116500000D03*
X135750000Y-116500000D03*
%TD*%
D12*
%TO.C,C1*%
X175887500Y-127566051D03*
X173812500Y-127566051D03*
%TD*%
D13*
%TO.C,JP1*%
X119494710Y-111398200D03*
X121496230Y-111398200D03*
X123495210Y-111398200D03*
X125496730Y-111398200D03*
X127495710Y-111398200D03*
X129494690Y-111398200D03*
X131496210Y-111398200D03*
X133495190Y-111398200D03*
X135496710Y-111398200D03*
X137495690Y-111398200D03*
X137495690Y-89401800D03*
X135496710Y-89401800D03*
X133495190Y-89401800D03*
X131496210Y-89401800D03*
X129494690Y-89401800D03*
X127495710Y-89401800D03*
X125496730Y-89401800D03*
X123495210Y-89401800D03*
X121496230Y-89401800D03*
X119494710Y-89401800D03*
%TD*%
D14*
%TO.C,R7*%
X173850000Y-122366051D03*
X175850000Y-122366051D03*
%TD*%
D15*
%TO.C,J10*%
X155932500Y-135808551D03*
D16*
X161012500Y-135808551D03*
%TD*%
D10*
%TO.C,J12*%
X144000000Y-59200000D03*
D11*
X141460000Y-59200000D03*
X138920000Y-59200000D03*
X136380000Y-59200000D03*
X133840000Y-59200000D03*
%TD*%
D17*
%TO.C,D4*%
X175875000Y-119866051D03*
X173825000Y-119866051D03*
%TD*%
D14*
%TO.C,R8*%
X157650000Y-122266051D03*
X159650000Y-122266051D03*
%TD*%
D10*
%TO.C,J6*%
X129925000Y-84200000D03*
D11*
X127385000Y-84200000D03*
X124845000Y-84200000D03*
X122305000Y-84200000D03*
X119765000Y-84200000D03*
X117225000Y-84200000D03*
X114685000Y-84200000D03*
X112145000Y-84200000D03*
X109605000Y-84200000D03*
X107065000Y-84200000D03*
%TD*%
D18*
%TO.C,REF\u002A\u002A*%
X201800000Y-59500000D03*
%TD*%
D12*
%TO.C,C4*%
X159587500Y-124766051D03*
X157512500Y-124766051D03*
%TD*%
D19*
%TO.C,R12*%
X182000000Y-83400000D03*
X180000000Y-83400000D03*
%TD*%
D20*
%TO.C,U5*%
X178400000Y-122666051D03*
X178400000Y-124966051D03*
D21*
X184700000Y-124966051D03*
D20*
X178400000Y-127266051D03*
%TD*%
D14*
%TO.C,R14*%
X180000000Y-78700000D03*
X182000000Y-78700000D03*
%TD*%
D22*
%TO.C,U7*%
X183800000Y-81273000D03*
X183800000Y-82225000D03*
X183800000Y-83175000D03*
X183800000Y-84127000D03*
X188200000Y-84127000D03*
X188200000Y-83175000D03*
X188200000Y-82225000D03*
X188200000Y-81273000D03*
%TD*%
D18*
%TO.C,REF\u002A\u002A*%
X103600000Y-59400000D03*
%TD*%
D23*
%TO.C,J4*%
X195295000Y-81340000D03*
D24*
X195295000Y-76260000D03*
X195295000Y-71180000D03*
X195295000Y-66100000D03*
%TD*%
D25*
%TO.C,U3*%
X130732475Y-139090000D03*
X133272475Y-139090000D03*
X135812475Y-139090000D03*
X138352475Y-139090000D03*
X140892475Y-139090000D03*
X143432475Y-139090000D03*
X133272475Y-121310000D03*
X135812475Y-121310000D03*
X138352475Y-121310000D03*
X140892475Y-121310000D03*
%TD*%
D26*
%TO.C,D1*%
X178135000Y-119866051D03*
D27*
X185755000Y-119866051D03*
%TD*%
D28*
%TO.C,R10*%
X190600000Y-129416051D03*
X190600000Y-123316051D03*
%TD*%
D17*
%TO.C,D3*%
X148250000Y-118466051D03*
X146200000Y-118466051D03*
%TD*%
D14*
%TO.C,R13*%
X180000000Y-81300000D03*
X182000000Y-81300000D03*
%TD*%
D17*
%TO.C,D2*%
X152450000Y-118466051D03*
X150400000Y-118466051D03*
%TD*%
D23*
%TO.C,J3*%
X198972500Y-136086051D03*
D24*
X198972500Y-131006051D03*
X198972500Y-125926051D03*
X198972500Y-120846051D03*
%TD*%
D12*
%TO.C,C2*%
X175887500Y-124966051D03*
X173812500Y-124966051D03*
%TD*%
D20*
%TO.C,U6*%
X162400000Y-122566051D03*
D21*
X168700000Y-124866051D03*
D20*
X162400000Y-124866051D03*
X162400000Y-127166051D03*
%TD*%
D14*
%TO.C,R5*%
X146225000Y-115766051D03*
X148225000Y-115766051D03*
%TD*%
%TO.C,R3*%
X152300000Y-122566051D03*
X154300000Y-122566051D03*
%TD*%
D26*
%TO.C,D5*%
X162035000Y-119666051D03*
D27*
X169655000Y-119666051D03*
%TD*%
D15*
%TO.C,J5*%
X183410000Y-135888551D03*
D16*
X188490000Y-135888551D03*
%TD*%
D29*
%TO.C,R6*%
X169050000Y-131666051D03*
X175150000Y-131666051D03*
%TD*%
D18*
%TO.C,REF\u002A\u002A*%
X103000000Y-138500000D03*
%TD*%
D28*
%TO.C,R11*%
X190600000Y-121116051D03*
X190600000Y-115016051D03*
%TD*%
D19*
%TO.C,R9*%
X186100000Y-78700000D03*
X184100000Y-78700000D03*
%TD*%
D10*
%TO.C,J11*%
X162800000Y-59300000D03*
D11*
X160260000Y-59300000D03*
X157720000Y-59300000D03*
X155180000Y-59300000D03*
X152640000Y-59300000D03*
X150100000Y-59300000D03*
%TD*%
D30*
%TO.C,U1*%
X114743949Y-77653949D03*
X117283949Y-77653949D03*
X119823949Y-77653949D03*
X122363949Y-77653949D03*
X124903949Y-77653949D03*
X127443949Y-77653949D03*
X129983949Y-77653949D03*
%TD*%
D31*
%TO.C,U8*%
X151467500Y-74520000D03*
D32*
X146247500Y-81670000D03*
X148787500Y-81670000D03*
X151327500Y-81670000D03*
X153867500Y-81670000D03*
X156407500Y-81670000D03*
X158947500Y-81670000D03*
X158947500Y-66170000D03*
X156407500Y-66170000D03*
X153867500Y-66170000D03*
X151327500Y-66170000D03*
X148787500Y-66170000D03*
X146247500Y-66170000D03*
D33*
X159847500Y-77730000D03*
X159847500Y-76090000D03*
X159847500Y-71750000D03*
X159847500Y-70110000D03*
%TD*%
D27*
%TO.C,U4*%
X194587500Y-97795000D03*
D34*
X197617500Y-97495000D03*
X197617500Y-102945000D03*
D27*
X194587500Y-102645000D03*
D35*
X197747500Y-90430000D03*
D11*
X197747500Y-91330000D03*
D35*
X195207500Y-90430000D03*
D11*
X195207500Y-91330000D03*
D35*
X192667500Y-90430000D03*
D10*
X192667500Y-91330000D03*
D35*
X190127500Y-90430000D03*
D11*
X190127500Y-91330000D03*
X187587500Y-91330000D03*
D35*
X187587500Y-90430000D03*
X185047500Y-90430000D03*
D11*
X185047500Y-91330000D03*
D35*
X182507500Y-90430000D03*
D11*
X182507500Y-91330000D03*
D35*
X179967500Y-90430000D03*
D10*
X179967500Y-91330000D03*
D11*
X177427500Y-91330000D03*
D35*
X177427500Y-90430000D03*
D11*
X174887500Y-91330000D03*
D35*
X174887500Y-90430000D03*
X172347500Y-90430000D03*
D11*
X172347500Y-91330000D03*
X169807500Y-91330000D03*
D35*
X169807500Y-90430000D03*
X167267500Y-90430000D03*
D10*
X167267500Y-91330000D03*
D35*
X164727500Y-90430000D03*
D11*
X164727500Y-91330000D03*
D35*
X162187500Y-90430000D03*
D11*
X162187500Y-91330000D03*
X159647500Y-91330000D03*
D35*
X159647500Y-90430000D03*
X157107500Y-90430000D03*
D11*
X157107500Y-91330000D03*
D35*
X154567500Y-90430000D03*
D10*
X154567500Y-91330000D03*
D35*
X152027500Y-90430000D03*
D11*
X152027500Y-91330000D03*
D35*
X149487500Y-90430000D03*
D11*
X149487500Y-91330000D03*
D35*
X149487500Y-110010000D03*
D11*
X149487500Y-109110000D03*
X152027500Y-109110000D03*
D35*
X152027500Y-110010000D03*
D10*
X154567500Y-109110000D03*
D35*
X154567500Y-110010000D03*
D11*
X157107500Y-109110000D03*
D35*
X157107500Y-110010000D03*
D11*
X159647500Y-109110000D03*
D35*
X159647500Y-110010000D03*
D11*
X162187500Y-109110000D03*
D35*
X162187500Y-110010000D03*
D11*
X164727500Y-109110000D03*
D35*
X164727500Y-110010000D03*
D10*
X167267500Y-109110000D03*
D35*
X167267500Y-110010000D03*
X169807500Y-110010000D03*
D11*
X169807500Y-109110000D03*
D35*
X172347500Y-110010000D03*
D11*
X172347500Y-109110000D03*
X174887500Y-109110000D03*
D35*
X174887500Y-110010000D03*
X177427500Y-110010000D03*
D11*
X177427500Y-109110000D03*
D35*
X179967500Y-110010000D03*
D10*
X179967500Y-109110000D03*
D11*
X182507500Y-109110000D03*
D35*
X182507500Y-110010000D03*
D11*
X185047500Y-109110000D03*
D35*
X185047500Y-110010000D03*
D11*
X187587500Y-109110000D03*
D35*
X187587500Y-110010000D03*
D11*
X190127500Y-109110000D03*
D35*
X190127500Y-110010000D03*
D10*
X192667500Y-109110000D03*
D35*
X192667500Y-110010000D03*
X195207500Y-110010000D03*
D11*
X195207500Y-109110000D03*
X197747500Y-109110000D03*
D35*
X197747500Y-110010000D03*
D11*
X149717500Y-97680000D03*
D36*
X148817500Y-97680000D03*
D10*
X149717500Y-100220000D03*
D36*
X148817500Y-100220000D03*
X148817500Y-102760000D03*
D11*
X149717500Y-102760000D03*
%TD*%
D31*
%TO.C,TP2*%
X168850000Y-137066051D03*
%TD*%
D37*
%TO.C,Q1*%
X154350000Y-125528551D03*
X152450000Y-125528551D03*
X153400000Y-127403551D03*
%TD*%
D10*
%TO.C,J7*%
X107450000Y-110020000D03*
D11*
X107450000Y-112560000D03*
X107450000Y-115100000D03*
X107450000Y-117640000D03*
%TD*%
D38*
%TO.C,R2*%
X167600000Y-82500000D03*
X167600000Y-84500000D03*
%TD*%
D31*
%TO.C,TP1*%
X175250000Y-137066051D03*
%TD*%
D12*
%TO.C,C3*%
X159587500Y-127466051D03*
X157512500Y-127466051D03*
%TD*%
D17*
%TO.C,D6*%
X159675000Y-119666051D03*
X157625000Y-119666051D03*
%TD*%
D10*
%TO.C,J8*%
X179950000Y-69800000D03*
D11*
X177410000Y-69800000D03*
X174870000Y-69800000D03*
X172330000Y-69800000D03*
X169790000Y-69800000D03*
X167250000Y-69800000D03*
%TD*%
D38*
%TO.C,R1*%
X170200000Y-82400000D03*
X170200000Y-84400000D03*
%TD*%
D39*
%TO.C,J2*%
X184872500Y-62120000D03*
D16*
X179792500Y-62120000D03*
X174712500Y-62120000D03*
X169632500Y-62120000D03*
%TD*%
D40*
%TO.C,BZ1*%
X110500000Y-67800000D03*
D41*
X102900000Y-67800000D03*
%TD*%
D30*
%TO.C,U2*%
X106920000Y-136430000D03*
X109460000Y-136430000D03*
X112000000Y-136430000D03*
X114540000Y-136430000D03*
X117080000Y-136430000D03*
X119620000Y-136430000D03*
X122160000Y-136430000D03*
%TD*%
D14*
%TO.C,R4*%
X150425000Y-115866051D03*
X152425000Y-115866051D03*
%TD*%
M02*
