M48
; DRILL file {KiCad 6.0.9-8da3e8f707~117~ubuntu18.04.1} date Wed Mar  8 09:23:26 2023
; FORMAT={-:-/ absolute / metric / decimal}
; #@! TF.CreationDate,2023-03-08T09:23:26+05:30
; #@! TF.GenerationSoftware,Kicad,Pcbnew,6.0.9-8da3e8f707~117~ubuntu18.04.1
; #@! TF.FileFunction,MixedPlating,1,2
FMAT,2
METRIC
; #@! TA.AperFunction,Plated,PTH,ViaDrill
T1C0.400
; #@! TA.AperFunction,Plated,PTH,ComponentDrill
T2C0.750
; #@! TA.AperFunction,Plated,PTH,ComponentDrill
T3C0.798
; #@! TA.AperFunction,Plated,PTH,ComponentDrill
T4C1.000
; #@! TA.AperFunction,Plated,PTH,ComponentDrill
T5C1.020
; #@! TA.AperFunction,Plated,PTH,ComponentDrill
T6C1.400
; #@! TA.AperFunction,NonPlated,NPTH,ComponentDrill
T7C1.500
; #@! TA.AperFunction,NonPlated,NPTH,ComponentDrill
T8C1.800
; #@! TA.AperFunction,NonPlated,NPTH,ComponentDrill
T9C2.200
; #@! TA.AperFunction,NonPlated,NPTH,ComponentDrill
T10C4.000
%
G90
G05
T1
X111.35Y-119.0
X114.2Y-131.066
X119.3Y-133.166
X119.8Y-79.4
X121.8Y-80.6
X126.1Y-131.066
X131.5Y-107.2
X132.0Y-80.5
X143.3Y-65.1
X143.8Y-85.1
X146.3Y-64.0
X150.3Y-120.7
X152.5Y-83.5
X154.9Y-120.466
X155.2Y-81.6
X157.5Y-129.1
X157.7Y-81.6
X159.1Y-115.7
X162.1Y-82.0
X164.7Y-81.7
X164.9Y-122.6
X165.0Y-115.666
X165.8Y-134.016
X167.6Y-86.0
X170.2Y-85.8
X173.8Y-129.1
X179.9Y-85.9
X180.0Y-76.9
X180.2Y-123.3
X180.5Y-124.966
X183.6Y-128.666
X185.0Y-81.5
X185.9Y-117.066
X186.3Y-80.9
X187.2Y-84.9
X187.6Y-115.566
X189.9Y-104.1
X190.6Y-119.366
X191.3Y-82.4
X195.9Y-93.9
X195.9Y-95.3
T2
X162.035Y-119.666
X169.655Y-119.666
X178.135Y-119.866
X185.755Y-119.866
T3
X119.495Y-89.402
X119.495Y-111.398
X121.496Y-89.402
X121.496Y-111.398
X123.495Y-89.402
X123.495Y-111.398
X125.497Y-89.402
X125.497Y-111.398
X127.496Y-89.402
X127.496Y-111.398
X129.495Y-89.402
X129.495Y-111.398
X131.496Y-89.402
X131.496Y-111.398
X133.495Y-89.402
X133.495Y-111.398
X135.497Y-89.402
X135.497Y-111.398
X137.496Y-89.402
X137.496Y-111.398
T4
X102.9Y-67.8
X106.92Y-136.43
X107.065Y-84.2
X107.45Y-110.02
X107.45Y-112.56
X107.45Y-115.1
X107.45Y-117.64
X109.46Y-136.43
X109.605Y-84.2
X110.5Y-67.8
X112.0Y-136.43
X112.145Y-84.2
X114.54Y-136.43
X114.685Y-84.2
X114.744Y-77.654
X117.08Y-136.43
X117.225Y-84.2
X117.284Y-77.654
X119.62Y-136.43
X119.765Y-84.2
X119.824Y-77.654
X122.16Y-136.43
X122.305Y-84.2
X122.364Y-77.654
X123.05Y-116.5
X124.845Y-84.2
X124.904Y-77.654
X125.59Y-116.5
X127.385Y-84.2
X127.444Y-77.654
X128.13Y-116.5
X129.925Y-84.2
X129.984Y-77.654
X130.67Y-116.5
X130.732Y-139.09
X133.21Y-116.5
X133.272Y-121.31
X133.272Y-139.09
X133.84Y-59.2
X135.75Y-116.5
X135.812Y-121.31
X135.812Y-139.09
X136.38Y-59.2
X138.352Y-121.31
X138.352Y-139.09
X138.92Y-59.2
X140.892Y-121.31
X140.892Y-139.09
X141.46Y-59.2
X143.432Y-139.09
X144.0Y-59.2
X150.1Y-59.3
X152.64Y-59.3
X155.18Y-59.3
X157.72Y-59.3
X160.26Y-59.3
X162.8Y-59.3
X167.25Y-69.8
X169.79Y-69.8
X172.33Y-69.8
X174.87Y-69.8
X177.41Y-69.8
X179.95Y-69.8
T5
X149.487Y-91.33
X149.487Y-109.11
X149.718Y-97.68
X149.718Y-100.22
X149.718Y-102.76
X152.028Y-91.33
X152.028Y-109.11
X154.567Y-91.33
X154.567Y-109.11
X157.107Y-91.33
X157.107Y-109.11
X159.647Y-91.33
X159.647Y-109.11
X162.188Y-91.33
X162.188Y-109.11
X164.727Y-91.33
X164.727Y-109.11
X167.267Y-91.33
X167.267Y-109.11
X169.808Y-91.33
X169.808Y-109.11
X172.347Y-91.33
X172.347Y-109.11
X174.887Y-91.33
X174.887Y-109.11
X177.427Y-91.33
X177.427Y-109.11
X179.968Y-91.33
X179.968Y-109.11
X182.507Y-91.33
X182.507Y-109.11
X185.047Y-91.33
X185.047Y-109.11
X187.588Y-91.33
X187.588Y-109.11
X190.127Y-91.33
X190.127Y-109.11
X192.667Y-91.33
X192.667Y-109.11
X195.207Y-91.33
X195.207Y-109.11
X197.748Y-91.33
X197.748Y-109.11
T6
X155.933Y-135.809
X161.012Y-135.809
X169.632Y-62.12
X174.713Y-62.12
X179.792Y-62.12
X183.41Y-135.889
X184.873Y-62.12
X188.49Y-135.889
X195.295Y-66.1
X195.295Y-71.18
X195.295Y-76.26
X195.295Y-81.34
X198.972Y-120.846
X198.972Y-125.926
X198.972Y-131.006
X198.972Y-136.086
T7
X194.587Y-97.795
X194.587Y-102.645
T8
X197.617Y-97.495
X197.617Y-102.945
T9
X103.0Y-138.5
X103.6Y-59.4
X201.8Y-59.5
T10
X151.468Y-74.52
T0
M30
