%TF.GenerationSoftware,KiCad,Pcbnew,6.0.9-8da3e8f707~117~ubuntu18.04.1*%
%TF.CreationDate,2023-03-08T09:23:39+05:30*%
%TF.ProjectId,Cansat_V1.2,43616e73-6174-45f5-9631-2e322e6b6963,rev?*%
%TF.SameCoordinates,Original*%
%TF.FileFunction,Legend,Top*%
%TF.FilePolarity,Positive*%
%FSLAX46Y46*%
G04 Gerber Fmt 4.6, Leading zero omitted, Abs format (unit mm)*
G04 Created by KiCad (PCBNEW 6.0.9-8da3e8f707~117~ubuntu18.04.1) date 2023-03-08 09:23:39*
%MOMM*%
%LPD*%
G01*
G04 APERTURE LIST*
%ADD10C,0.150000*%
%ADD11C,0.152400*%
%ADD12C,0.380000*%
%ADD13C,0.300000*%
%ADD14C,0.121920*%
%ADD15C,0.097536*%
%ADD16C,0.200000*%
%ADD17C,0.100000*%
%ADD18C,0.127000*%
%ADD19C,0.115824*%
%ADD20C,0.120000*%
%ADD21C,0.203200*%
%ADD22C,0.050000*%
G04 APERTURE END LIST*
D10*
X172450000Y-118266051D02*
X187350000Y-118266051D01*
X187350000Y-118266051D02*
X187350000Y-129066051D01*
X187350000Y-129066051D02*
X172450000Y-129066051D01*
X172450000Y-129066051D02*
X172450000Y-118266051D01*
X178900000Y-77200000D02*
X189100000Y-77200000D01*
X189100000Y-77200000D02*
X189100000Y-85300000D01*
X189100000Y-85300000D02*
X178900000Y-85300000D01*
X178900000Y-85300000D02*
X178900000Y-77200000D01*
X166050000Y-134266051D02*
X178150000Y-134266051D01*
X178150000Y-134266051D02*
X178150000Y-139966051D01*
X178150000Y-139966051D02*
X166050000Y-139966051D01*
X166050000Y-139966051D02*
X166050000Y-134266051D01*
X156250000Y-118166051D02*
X171350000Y-118166051D01*
X171350000Y-118166051D02*
X171350000Y-128966051D01*
X171350000Y-128966051D02*
X156250000Y-128966051D01*
X156250000Y-128966051D02*
X156250000Y-118166051D01*
X167738095Y-140300000D02*
X167642857Y-140252380D01*
X167500000Y-140252380D01*
X167357142Y-140300000D01*
X167261904Y-140395238D01*
X167214285Y-140490476D01*
X167166666Y-140680952D01*
X167166666Y-140823809D01*
X167214285Y-141014285D01*
X167261904Y-141109523D01*
X167357142Y-141204761D01*
X167500000Y-141252380D01*
X167595238Y-141252380D01*
X167738095Y-141204761D01*
X167785714Y-141157142D01*
X167785714Y-140823809D01*
X167595238Y-140823809D01*
X168214285Y-141252380D02*
X168214285Y-140252380D01*
X168785714Y-141252380D01*
X168785714Y-140252380D01*
X169261904Y-141252380D02*
X169261904Y-140252380D01*
X169500000Y-140252380D01*
X169642857Y-140300000D01*
X169738095Y-140395238D01*
X169785714Y-140490476D01*
X169833333Y-140680952D01*
X169833333Y-140823809D01*
X169785714Y-141014285D01*
X169738095Y-141109523D01*
X169642857Y-141204761D01*
X169500000Y-141252380D01*
X169261904Y-141252380D01*
X172661904Y-113990476D02*
X172280952Y-114257142D01*
X172661904Y-114447619D02*
X171861904Y-114447619D01*
X171861904Y-114142857D01*
X171900000Y-114066666D01*
X171938095Y-114028571D01*
X172014285Y-113990476D01*
X172128571Y-113990476D01*
X172204761Y-114028571D01*
X172242857Y-114066666D01*
X172280952Y-114142857D01*
X172280952Y-114447619D01*
X171861904Y-113647619D02*
X172509523Y-113647619D01*
X172585714Y-113609523D01*
X172623809Y-113571428D01*
X172661904Y-113495238D01*
X172661904Y-113342857D01*
X172623809Y-113266666D01*
X172585714Y-113228571D01*
X172509523Y-113190476D01*
X171861904Y-113190476D01*
X172661904Y-112809523D02*
X171861904Y-112809523D01*
X172661904Y-112352380D01*
X171861904Y-112352380D01*
X154400000Y-113809523D02*
X154361904Y-113885714D01*
X154361904Y-114000000D01*
X154400000Y-114114285D01*
X154476190Y-114190476D01*
X154552380Y-114228571D01*
X154704761Y-114266666D01*
X154819047Y-114266666D01*
X154971428Y-114228571D01*
X155047619Y-114190476D01*
X155123809Y-114114285D01*
X155161904Y-114000000D01*
X155161904Y-113923809D01*
X155123809Y-113809523D01*
X155085714Y-113771428D01*
X154819047Y-113771428D01*
X154819047Y-113923809D01*
X155161904Y-113428571D02*
X154361904Y-113428571D01*
X155161904Y-112971428D01*
X154361904Y-112971428D01*
X155161904Y-112590476D02*
X154361904Y-112590476D01*
X154361904Y-112400000D01*
X154400000Y-112285714D01*
X154476190Y-112209523D01*
X154552380Y-112171428D01*
X154704761Y-112133333D01*
X154819047Y-112133333D01*
X154971428Y-112171428D01*
X155047619Y-112209523D01*
X155123809Y-112285714D01*
X155161904Y-112400000D01*
X155161904Y-112590476D01*
D11*
X103378571Y-115092000D02*
X103307142Y-115043619D01*
X103200000Y-115043619D01*
X103092857Y-115092000D01*
X103021428Y-115188761D01*
X102985714Y-115285523D01*
X102950000Y-115479047D01*
X102950000Y-115624190D01*
X102985714Y-115817714D01*
X103021428Y-115914476D01*
X103092857Y-116011238D01*
X103200000Y-116059619D01*
X103271428Y-116059619D01*
X103378571Y-116011238D01*
X103414285Y-115962857D01*
X103414285Y-115624190D01*
X103271428Y-115624190D01*
X103735714Y-116059619D02*
X103735714Y-115043619D01*
X104164285Y-116059619D01*
X104164285Y-115043619D01*
X104521428Y-116059619D02*
X104521428Y-115043619D01*
X104700000Y-115043619D01*
X104807142Y-115092000D01*
X104878571Y-115188761D01*
X104914285Y-115285523D01*
X104950000Y-115479047D01*
X104950000Y-115624190D01*
X104914285Y-115817714D01*
X104878571Y-115914476D01*
X104807142Y-116011238D01*
X104700000Y-116059619D01*
X104521428Y-116059619D01*
D10*
X174128571Y-140871428D02*
X174890476Y-140871428D01*
X174509523Y-141252380D02*
X174509523Y-140490476D01*
X175271428Y-140252380D02*
X175938095Y-140252380D01*
X175509523Y-141252380D01*
X176319047Y-141157142D02*
X176366666Y-141204761D01*
X176319047Y-141252380D01*
X176271428Y-141204761D01*
X176319047Y-141157142D01*
X176319047Y-141252380D01*
X177271428Y-140252380D02*
X176795238Y-140252380D01*
X176747619Y-140728571D01*
X176795238Y-140680952D01*
X176890476Y-140633333D01*
X177128571Y-140633333D01*
X177223809Y-140680952D01*
X177271428Y-140728571D01*
X177319047Y-140823809D01*
X177319047Y-141061904D01*
X177271428Y-141157142D01*
X177223809Y-141204761D01*
X177128571Y-141252380D01*
X176890476Y-141252380D01*
X176795238Y-141204761D01*
X176747619Y-141157142D01*
D12*
X166314285Y-75433333D02*
X166742857Y-75566666D01*
X167457142Y-75566666D01*
X167742857Y-75433333D01*
X167885714Y-75300000D01*
X168028571Y-75033333D01*
X168028571Y-74766666D01*
X167885714Y-74500000D01*
X167742857Y-74366666D01*
X167457142Y-74233333D01*
X166885714Y-74100000D01*
X166600000Y-73966666D01*
X166457142Y-73833333D01*
X166314285Y-73566666D01*
X166314285Y-73300000D01*
X166457142Y-73033333D01*
X166600000Y-72900000D01*
X166885714Y-72766666D01*
X167600000Y-72766666D01*
X168028571Y-72900000D01*
X168885714Y-72766666D02*
X170600000Y-72766666D01*
X169742857Y-75566666D02*
X169742857Y-72766666D01*
X172742857Y-75433333D02*
X172457142Y-75566666D01*
X171885714Y-75566666D01*
X171600000Y-75433333D01*
X171457142Y-75166666D01*
X171457142Y-74100000D01*
X171600000Y-73833333D01*
X171885714Y-73700000D01*
X172457142Y-73700000D01*
X172742857Y-73833333D01*
X172885714Y-74100000D01*
X172885714Y-74366666D01*
X171457142Y-74633333D01*
X175885714Y-75566666D02*
X174885714Y-74233333D01*
X174171428Y-75566666D02*
X174171428Y-72766666D01*
X175314285Y-72766666D01*
X175600000Y-72900000D01*
X175742857Y-73033333D01*
X175885714Y-73300000D01*
X175885714Y-73700000D01*
X175742857Y-73966666D01*
X175600000Y-74100000D01*
X175314285Y-74233333D01*
X174171428Y-74233333D01*
X178742857Y-72900000D02*
X178457142Y-72766666D01*
X178028571Y-72766666D01*
X177600000Y-72900000D01*
X177314285Y-73166666D01*
X177171428Y-73433333D01*
X177028571Y-73966666D01*
X177028571Y-74366666D01*
X177171428Y-74900000D01*
X177314285Y-75166666D01*
X177600000Y-75433333D01*
X178028571Y-75566666D01*
X178314285Y-75566666D01*
X178742857Y-75433333D01*
X178885714Y-75300000D01*
X178885714Y-74366666D01*
X178314285Y-74366666D01*
D13*
X104041666Y-105983333D02*
X104041666Y-104840476D01*
X105791666Y-105411904D02*
X104041666Y-105411904D01*
X104625000Y-103316666D02*
X105791666Y-103316666D01*
X104625000Y-104173809D02*
X105541666Y-104173809D01*
X105708333Y-104078571D01*
X105791666Y-103888095D01*
X105791666Y-103602380D01*
X105708333Y-103411904D01*
X105625000Y-103316666D01*
X105791666Y-102364285D02*
X104625000Y-102364285D01*
X104958333Y-102364285D02*
X104791666Y-102269047D01*
X104708333Y-102173809D01*
X104625000Y-101983333D01*
X104625000Y-101792857D01*
X105791666Y-101126190D02*
X104625000Y-101126190D01*
X104041666Y-101126190D02*
X104125000Y-101221428D01*
X104208333Y-101126190D01*
X104125000Y-101030952D01*
X104041666Y-101126190D01*
X104208333Y-101126190D01*
X104625000Y-100173809D02*
X105791666Y-100173809D01*
X104791666Y-100173809D02*
X104708333Y-100078571D01*
X104625000Y-99888095D01*
X104625000Y-99602380D01*
X104708333Y-99411904D01*
X104875000Y-99316666D01*
X105791666Y-99316666D01*
X104625000Y-97507142D02*
X106041666Y-97507142D01*
X106208333Y-97602380D01*
X106291666Y-97697619D01*
X106375000Y-97888095D01*
X106375000Y-98173809D01*
X106291666Y-98364285D01*
X105708333Y-97507142D02*
X105791666Y-97697619D01*
X105791666Y-98078571D01*
X105708333Y-98269047D01*
X105625000Y-98364285D01*
X105458333Y-98459523D01*
X104958333Y-98459523D01*
X104791666Y-98364285D01*
X104708333Y-98269047D01*
X104625000Y-98078571D01*
X104625000Y-97697619D01*
X104708333Y-97507142D01*
X105791666Y-95030952D02*
X104041666Y-95030952D01*
X105291666Y-94364285D01*
X104041666Y-93697619D01*
X105791666Y-93697619D01*
X105791666Y-92745238D02*
X104041666Y-92745238D01*
X105125000Y-92554761D02*
X105791666Y-91983333D01*
X104625000Y-91983333D02*
X105291666Y-92745238D01*
X105791666Y-89602380D02*
X104041666Y-89602380D01*
D10*
X183128571Y-56971428D02*
X183890476Y-56971428D01*
X183509523Y-57352380D02*
X183509523Y-56590476D01*
X184271428Y-56352380D02*
X184938095Y-56352380D01*
X184509523Y-57352380D01*
X185319047Y-57257142D02*
X185366666Y-57304761D01*
X185319047Y-57352380D01*
X185271428Y-57304761D01*
X185319047Y-57257142D01*
X185319047Y-57352380D01*
X186271428Y-56352380D02*
X185795238Y-56352380D01*
X185747619Y-56828571D01*
X185795238Y-56780952D01*
X185890476Y-56733333D01*
X186128571Y-56733333D01*
X186223809Y-56780952D01*
X186271428Y-56828571D01*
X186319047Y-56923809D01*
X186319047Y-57161904D01*
X186271428Y-57257142D01*
X186223809Y-57304761D01*
X186128571Y-57352380D01*
X185890476Y-57352380D01*
X185795238Y-57304761D01*
X185747619Y-57257142D01*
X160161904Y-113352380D02*
X160161904Y-113809523D01*
X160161904Y-113580952D02*
X159361904Y-113580952D01*
X159476190Y-113657142D01*
X159552380Y-113733333D01*
X159590476Y-113809523D01*
X160161904Y-112971428D02*
X160161904Y-112819047D01*
X160123809Y-112742857D01*
X160085714Y-112704761D01*
X159971428Y-112628571D01*
X159819047Y-112590476D01*
X159514285Y-112590476D01*
X159438095Y-112628571D01*
X159400000Y-112666666D01*
X159361904Y-112742857D01*
X159361904Y-112895238D01*
X159400000Y-112971428D01*
X159438095Y-113009523D01*
X159514285Y-113047619D01*
X159704761Y-113047619D01*
X159780952Y-113009523D01*
X159819047Y-112971428D01*
X159857142Y-112895238D01*
X159857142Y-112742857D01*
X159819047Y-112666666D01*
X159780952Y-112628571D01*
X159704761Y-112590476D01*
X203900000Y-121561904D02*
X203852380Y-121657142D01*
X203852380Y-121800000D01*
X203900000Y-121942857D01*
X203995238Y-122038095D01*
X204090476Y-122085714D01*
X204280952Y-122133333D01*
X204423809Y-122133333D01*
X204614285Y-122085714D01*
X204709523Y-122038095D01*
X204804761Y-121942857D01*
X204852380Y-121800000D01*
X204852380Y-121704761D01*
X204804761Y-121561904D01*
X204757142Y-121514285D01*
X204423809Y-121514285D01*
X204423809Y-121704761D01*
X204852380Y-121085714D02*
X203852380Y-121085714D01*
X204852380Y-120514285D01*
X203852380Y-120514285D01*
X204852380Y-120038095D02*
X203852380Y-120038095D01*
X203852380Y-119800000D01*
X203900000Y-119657142D01*
X203995238Y-119561904D01*
X204090476Y-119514285D01*
X204280952Y-119466666D01*
X204423809Y-119466666D01*
X204614285Y-119514285D01*
X204709523Y-119561904D01*
X204804761Y-119657142D01*
X204852380Y-119800000D01*
X204852380Y-120038095D01*
X169438095Y-114009523D02*
X169400000Y-113971428D01*
X169361904Y-113895238D01*
X169361904Y-113704761D01*
X169400000Y-113628571D01*
X169438095Y-113590476D01*
X169514285Y-113552380D01*
X169590476Y-113552380D01*
X169704761Y-113590476D01*
X170161904Y-114047619D01*
X170161904Y-113552380D01*
X169438095Y-113247619D02*
X169400000Y-113209523D01*
X169361904Y-113133333D01*
X169361904Y-112942857D01*
X169400000Y-112866666D01*
X169438095Y-112828571D01*
X169514285Y-112790476D01*
X169590476Y-112790476D01*
X169704761Y-112828571D01*
X170161904Y-113285714D01*
X170161904Y-112790476D01*
D14*
X116896972Y-139307424D02*
X117493026Y-140201504D01*
X117493026Y-139307424D02*
X116896972Y-140201504D01*
D10*
X179261904Y-57352380D02*
X179261904Y-56352380D01*
X179500000Y-56352380D01*
X179642857Y-56400000D01*
X179738095Y-56495238D01*
X179785714Y-56590476D01*
X179833333Y-56780952D01*
X179833333Y-56923809D01*
X179785714Y-57114285D01*
X179738095Y-57209523D01*
X179642857Y-57304761D01*
X179500000Y-57352380D01*
X179261904Y-57352380D01*
X180785714Y-57352380D02*
X180214285Y-57352380D01*
X180500000Y-57352380D02*
X180500000Y-56352380D01*
X180404761Y-56495238D01*
X180309523Y-56590476D01*
X180214285Y-56638095D01*
X104228571Y-131528571D02*
X104276190Y-131385714D01*
X104323809Y-131338095D01*
X104419047Y-131290476D01*
X104561904Y-131290476D01*
X104657142Y-131338095D01*
X104704761Y-131385714D01*
X104752380Y-131480952D01*
X104752380Y-131861904D01*
X103752380Y-131861904D01*
X103752380Y-131528571D01*
X103800000Y-131433333D01*
X103847619Y-131385714D01*
X103942857Y-131338095D01*
X104038095Y-131338095D01*
X104133333Y-131385714D01*
X104180952Y-131433333D01*
X104228571Y-131528571D01*
X104228571Y-131861904D01*
X104752380Y-130861904D02*
X103752380Y-130861904D01*
X104466666Y-130528571D01*
X103752380Y-130195238D01*
X104752380Y-130195238D01*
X104752380Y-129719047D02*
X103752380Y-129719047D01*
X103752380Y-129338095D01*
X103800000Y-129242857D01*
X103847619Y-129195238D01*
X103942857Y-129147619D01*
X104085714Y-129147619D01*
X104180952Y-129195238D01*
X104228571Y-129242857D01*
X104276190Y-129338095D01*
X104276190Y-129719047D01*
X103847619Y-128766666D02*
X103800000Y-128719047D01*
X103752380Y-128623809D01*
X103752380Y-128385714D01*
X103800000Y-128290476D01*
X103847619Y-128242857D01*
X103942857Y-128195238D01*
X104038095Y-128195238D01*
X104180952Y-128242857D01*
X104752380Y-128814285D01*
X104752380Y-128195238D01*
X104180952Y-127623809D02*
X104133333Y-127719047D01*
X104085714Y-127766666D01*
X103990476Y-127814285D01*
X103942857Y-127814285D01*
X103847619Y-127766666D01*
X103800000Y-127719047D01*
X103752380Y-127623809D01*
X103752380Y-127433333D01*
X103800000Y-127338095D01*
X103847619Y-127290476D01*
X103942857Y-127242857D01*
X103990476Y-127242857D01*
X104085714Y-127290476D01*
X104133333Y-127338095D01*
X104180952Y-127433333D01*
X104180952Y-127623809D01*
X104228571Y-127719047D01*
X104276190Y-127766666D01*
X104371428Y-127814285D01*
X104561904Y-127814285D01*
X104657142Y-127766666D01*
X104704761Y-127719047D01*
X104752380Y-127623809D01*
X104752380Y-127433333D01*
X104704761Y-127338095D01*
X104657142Y-127290476D01*
X104561904Y-127242857D01*
X104371428Y-127242857D01*
X104276190Y-127290476D01*
X104228571Y-127338095D01*
X104180952Y-127433333D01*
X103752380Y-126623809D02*
X103752380Y-126528571D01*
X103800000Y-126433333D01*
X103847619Y-126385714D01*
X103942857Y-126338095D01*
X104133333Y-126290476D01*
X104371428Y-126290476D01*
X104561904Y-126338095D01*
X104657142Y-126385714D01*
X104704761Y-126433333D01*
X104752380Y-126528571D01*
X104752380Y-126623809D01*
X104704761Y-126719047D01*
X104657142Y-126766666D01*
X104561904Y-126814285D01*
X104371428Y-126861904D01*
X104133333Y-126861904D01*
X103942857Y-126814285D01*
X103847619Y-126766666D01*
X103800000Y-126719047D01*
X103752380Y-126623809D01*
D15*
X135355036Y-140692368D02*
X135286916Y-140658307D01*
X135184736Y-140658307D01*
X135082555Y-140692368D01*
X135014435Y-140760488D01*
X134980374Y-140828608D01*
X134946314Y-140964849D01*
X134946314Y-141067030D01*
X134980374Y-141203270D01*
X135014435Y-141271391D01*
X135082555Y-141339511D01*
X135184736Y-141373571D01*
X135252856Y-141373571D01*
X135355036Y-141339511D01*
X135389097Y-141305451D01*
X135389097Y-141067030D01*
X135252856Y-141067030D01*
X135695638Y-141373571D02*
X135695638Y-140658307D01*
X136104361Y-141373571D01*
X136104361Y-140658307D01*
X136444963Y-141373571D02*
X136444963Y-140658307D01*
X136615264Y-140658307D01*
X136717444Y-140692368D01*
X136785564Y-140760488D01*
X136819625Y-140828608D01*
X136853685Y-140964849D01*
X136853685Y-141067030D01*
X136819625Y-141203270D01*
X136785564Y-141271391D01*
X136717444Y-141339511D01*
X136615264Y-141373571D01*
X136444963Y-141373571D01*
D10*
X204452380Y-131238095D02*
X203452380Y-131238095D01*
X203452380Y-131000000D01*
X203500000Y-130857142D01*
X203595238Y-130761904D01*
X203690476Y-130714285D01*
X203880952Y-130666666D01*
X204023809Y-130666666D01*
X204214285Y-130714285D01*
X204309523Y-130761904D01*
X204404761Y-130857142D01*
X204452380Y-131000000D01*
X204452380Y-131238095D01*
X203547619Y-130285714D02*
X203500000Y-130238095D01*
X203452380Y-130142857D01*
X203452380Y-129904761D01*
X203500000Y-129809523D01*
X203547619Y-129761904D01*
X203642857Y-129714285D01*
X203738095Y-129714285D01*
X203880952Y-129761904D01*
X204452380Y-130333333D01*
X204452380Y-129714285D01*
D15*
X129967705Y-140608307D02*
X130206127Y-141323571D01*
X130444548Y-140608307D01*
X130682969Y-141323571D02*
X130682969Y-140846729D01*
X130682969Y-140608307D02*
X130648909Y-140642368D01*
X130682969Y-140676428D01*
X130717030Y-140642368D01*
X130682969Y-140608307D01*
X130682969Y-140676428D01*
X131023571Y-140846729D02*
X131023571Y-141323571D01*
X131023571Y-140914849D02*
X131057632Y-140880789D01*
X131125752Y-140846729D01*
X131227932Y-140846729D01*
X131296053Y-140880789D01*
X131330113Y-140948909D01*
X131330113Y-141323571D01*
D10*
X201052380Y-77438095D02*
X200052380Y-77438095D01*
X200052380Y-77200000D01*
X200100000Y-77057142D01*
X200195238Y-76961904D01*
X200290476Y-76914285D01*
X200480952Y-76866666D01*
X200623809Y-76866666D01*
X200814285Y-76914285D01*
X200909523Y-76961904D01*
X201004761Y-77057142D01*
X201052380Y-77200000D01*
X201052380Y-77438095D01*
X200052380Y-76533333D02*
X200052380Y-75914285D01*
X200433333Y-76247619D01*
X200433333Y-76104761D01*
X200480952Y-76009523D01*
X200528571Y-75961904D01*
X200623809Y-75914285D01*
X200861904Y-75914285D01*
X200957142Y-75961904D01*
X201004761Y-76009523D01*
X201052380Y-76104761D01*
X201052380Y-76390476D01*
X201004761Y-76485714D01*
X200957142Y-76533333D01*
X164347619Y-76157142D02*
X164347619Y-75680952D01*
X165347619Y-75680952D01*
X164919047Y-76633333D02*
X164966666Y-76538095D01*
X165014285Y-76490476D01*
X165109523Y-76442857D01*
X165157142Y-76442857D01*
X165252380Y-76490476D01*
X165300000Y-76538095D01*
X165347619Y-76633333D01*
X165347619Y-76823809D01*
X165300000Y-76919047D01*
X165252380Y-76966666D01*
X165157142Y-77014285D01*
X165109523Y-77014285D01*
X165014285Y-76966666D01*
X164966666Y-76919047D01*
X164919047Y-76823809D01*
X164919047Y-76633333D01*
X164871428Y-76538095D01*
X164823809Y-76490476D01*
X164728571Y-76442857D01*
X164538095Y-76442857D01*
X164442857Y-76490476D01*
X164395238Y-76538095D01*
X164347619Y-76633333D01*
X164347619Y-76823809D01*
X164395238Y-76919047D01*
X164442857Y-76966666D01*
X164538095Y-77014285D01*
X164728571Y-77014285D01*
X164823809Y-76966666D01*
X164871428Y-76919047D01*
X164919047Y-76823809D01*
X164347619Y-77490476D02*
X164347619Y-77680952D01*
X164395238Y-77776190D01*
X164442857Y-77823809D01*
X164585714Y-77919047D01*
X164776190Y-77966666D01*
X165157142Y-77966666D01*
X165252380Y-77919047D01*
X165300000Y-77871428D01*
X165347619Y-77776190D01*
X165347619Y-77585714D01*
X165300000Y-77490476D01*
X165252380Y-77442857D01*
X165157142Y-77395238D01*
X164919047Y-77395238D01*
X164823809Y-77442857D01*
X164776190Y-77490476D01*
X164728571Y-77585714D01*
X164728571Y-77776190D01*
X164776190Y-77871428D01*
X164823809Y-77919047D01*
X164919047Y-77966666D01*
X187838095Y-140500000D02*
X187742857Y-140452380D01*
X187600000Y-140452380D01*
X187457142Y-140500000D01*
X187361904Y-140595238D01*
X187314285Y-140690476D01*
X187266666Y-140880952D01*
X187266666Y-141023809D01*
X187314285Y-141214285D01*
X187361904Y-141309523D01*
X187457142Y-141404761D01*
X187600000Y-141452380D01*
X187695238Y-141452380D01*
X187838095Y-141404761D01*
X187885714Y-141357142D01*
X187885714Y-141023809D01*
X187695238Y-141023809D01*
X188314285Y-141452380D02*
X188314285Y-140452380D01*
X188885714Y-141452380D01*
X188885714Y-140452380D01*
X189361904Y-141452380D02*
X189361904Y-140452380D01*
X189600000Y-140452380D01*
X189742857Y-140500000D01*
X189838095Y-140595238D01*
X189885714Y-140690476D01*
X189933333Y-140880952D01*
X189933333Y-141023809D01*
X189885714Y-141214285D01*
X189838095Y-141309523D01*
X189742857Y-141404761D01*
X189600000Y-141452380D01*
X189361904Y-141452380D01*
X187161904Y-114490476D02*
X187161904Y-113995238D01*
X187466666Y-114261904D01*
X187466666Y-114147619D01*
X187504761Y-114071428D01*
X187542857Y-114033333D01*
X187619047Y-113995238D01*
X187809523Y-113995238D01*
X187885714Y-114033333D01*
X187923809Y-114071428D01*
X187961904Y-114147619D01*
X187961904Y-114376190D01*
X187923809Y-114452380D01*
X187885714Y-114490476D01*
X187161904Y-113766666D02*
X187961904Y-113500000D01*
X187161904Y-113233333D01*
X187161904Y-113042857D02*
X187161904Y-112547619D01*
X187466666Y-112814285D01*
X187466666Y-112700000D01*
X187504761Y-112623809D01*
X187542857Y-112585714D01*
X187619047Y-112547619D01*
X187809523Y-112547619D01*
X187885714Y-112585714D01*
X187923809Y-112623809D01*
X187961904Y-112700000D01*
X187961904Y-112928571D01*
X187923809Y-113004761D01*
X187885714Y-113042857D01*
X181328571Y-141071428D02*
X182090476Y-141071428D01*
X181709523Y-141452380D02*
X181709523Y-140690476D01*
X182471428Y-140452380D02*
X183138095Y-140452380D01*
X182709523Y-141452380D01*
X183519047Y-141357142D02*
X183566666Y-141404761D01*
X183519047Y-141452380D01*
X183471428Y-141404761D01*
X183519047Y-141357142D01*
X183519047Y-141452380D01*
X184471428Y-140452380D02*
X183995238Y-140452380D01*
X183947619Y-140928571D01*
X183995238Y-140880952D01*
X184090476Y-140833333D01*
X184328571Y-140833333D01*
X184423809Y-140880952D01*
X184471428Y-140928571D01*
X184519047Y-141023809D01*
X184519047Y-141261904D01*
X184471428Y-141357142D01*
X184423809Y-141404761D01*
X184328571Y-141452380D01*
X184090476Y-141452380D01*
X183995238Y-141404761D01*
X183947619Y-141357142D01*
D11*
X103021428Y-109902380D02*
X103485714Y-109902380D01*
X103235714Y-110283333D01*
X103342857Y-110283333D01*
X103414285Y-110330952D01*
X103450000Y-110378571D01*
X103485714Y-110473809D01*
X103485714Y-110711904D01*
X103450000Y-110807142D01*
X103414285Y-110854761D01*
X103342857Y-110902380D01*
X103128571Y-110902380D01*
X103057142Y-110854761D01*
X103021428Y-110807142D01*
X103700000Y-109902380D02*
X103950000Y-110902380D01*
X104200000Y-109902380D01*
X104378571Y-109902380D02*
X104842857Y-109902380D01*
X104592857Y-110283333D01*
X104700000Y-110283333D01*
X104771428Y-110330952D01*
X104807142Y-110378571D01*
X104842857Y-110473809D01*
X104842857Y-110711904D01*
X104807142Y-110807142D01*
X104771428Y-110854761D01*
X104700000Y-110902380D01*
X104485714Y-110902380D01*
X104414285Y-110854761D01*
X104378571Y-110807142D01*
D10*
X174438095Y-114009523D02*
X174400000Y-113971428D01*
X174361904Y-113895238D01*
X174361904Y-113704761D01*
X174400000Y-113628571D01*
X174438095Y-113590476D01*
X174514285Y-113552380D01*
X174590476Y-113552380D01*
X174704761Y-113590476D01*
X175161904Y-114047619D01*
X175161904Y-113552380D01*
X174361904Y-112866666D02*
X174361904Y-113019047D01*
X174400000Y-113095238D01*
X174438095Y-113133333D01*
X174552380Y-113209523D01*
X174704761Y-113247619D01*
X175009523Y-113247619D01*
X175085714Y-113209523D01*
X175123809Y-113171428D01*
X175161904Y-113095238D01*
X175161904Y-112942857D01*
X175123809Y-112866666D01*
X175085714Y-112828571D01*
X175009523Y-112790476D01*
X174819047Y-112790476D01*
X174742857Y-112828571D01*
X174704761Y-112866666D01*
X174666666Y-112942857D01*
X174666666Y-113095238D01*
X174704761Y-113171428D01*
X174742857Y-113209523D01*
X174819047Y-113247619D01*
X157619047Y-116661904D02*
X158114285Y-116661904D01*
X157847619Y-116966666D01*
X157961904Y-116966666D01*
X158038095Y-117004761D01*
X158076190Y-117042857D01*
X158114285Y-117119047D01*
X158114285Y-117309523D01*
X158076190Y-117385714D01*
X158038095Y-117423809D01*
X157961904Y-117461904D01*
X157733333Y-117461904D01*
X157657142Y-117423809D01*
X157619047Y-117385714D01*
X158457142Y-117385714D02*
X158495238Y-117423809D01*
X158457142Y-117461904D01*
X158419047Y-117423809D01*
X158457142Y-117385714D01*
X158457142Y-117461904D01*
X158761904Y-116661904D02*
X159257142Y-116661904D01*
X158990476Y-116966666D01*
X159104761Y-116966666D01*
X159180952Y-117004761D01*
X159219047Y-117042857D01*
X159257142Y-117119047D01*
X159257142Y-117309523D01*
X159219047Y-117385714D01*
X159180952Y-117423809D01*
X159104761Y-117461904D01*
X158876190Y-117461904D01*
X158800000Y-117423809D01*
X158761904Y-117385714D01*
X159485714Y-116661904D02*
X159752380Y-117461904D01*
X160019047Y-116661904D01*
X149761904Y-113052380D02*
X149761904Y-113509523D01*
X149761904Y-113280952D02*
X148961904Y-113280952D01*
X149076190Y-113357142D01*
X149152380Y-113433333D01*
X149190476Y-113509523D01*
X148961904Y-112366666D02*
X148961904Y-112519047D01*
X149000000Y-112595238D01*
X149038095Y-112633333D01*
X149152380Y-112709523D01*
X149304761Y-112747619D01*
X149609523Y-112747619D01*
X149685714Y-112709523D01*
X149723809Y-112671428D01*
X149761904Y-112595238D01*
X149761904Y-112442857D01*
X149723809Y-112366666D01*
X149685714Y-112328571D01*
X149609523Y-112290476D01*
X149419047Y-112290476D01*
X149342857Y-112328571D01*
X149304761Y-112366666D01*
X149266666Y-112442857D01*
X149266666Y-112595238D01*
X149304761Y-112671428D01*
X149342857Y-112709523D01*
X149419047Y-112747619D01*
X109652380Y-101992857D02*
X110652380Y-101326190D01*
X109652380Y-101326190D02*
X110652380Y-101992857D01*
X110652380Y-100945238D02*
X109652380Y-100945238D01*
X110033333Y-100945238D02*
X109985714Y-100850000D01*
X109985714Y-100659523D01*
X110033333Y-100564285D01*
X110080952Y-100516666D01*
X110176190Y-100469047D01*
X110461904Y-100469047D01*
X110557142Y-100516666D01*
X110604761Y-100564285D01*
X110652380Y-100659523D01*
X110652380Y-100850000D01*
X110604761Y-100945238D01*
X110604761Y-99659523D02*
X110652380Y-99754761D01*
X110652380Y-99945238D01*
X110604761Y-100040476D01*
X110509523Y-100088095D01*
X110128571Y-100088095D01*
X110033333Y-100040476D01*
X109985714Y-99945238D01*
X109985714Y-99754761D01*
X110033333Y-99659523D01*
X110128571Y-99611904D01*
X110223809Y-99611904D01*
X110319047Y-100088095D01*
X110604761Y-98802380D02*
X110652380Y-98897619D01*
X110652380Y-99088095D01*
X110604761Y-99183333D01*
X110509523Y-99230952D01*
X110128571Y-99230952D01*
X110033333Y-99183333D01*
X109985714Y-99088095D01*
X109985714Y-98897619D01*
X110033333Y-98802380D01*
X110128571Y-98754761D01*
X110223809Y-98754761D01*
X110319047Y-99230952D01*
X169038095Y-56500000D02*
X168942857Y-56452380D01*
X168800000Y-56452380D01*
X168657142Y-56500000D01*
X168561904Y-56595238D01*
X168514285Y-56690476D01*
X168466666Y-56880952D01*
X168466666Y-57023809D01*
X168514285Y-57214285D01*
X168561904Y-57309523D01*
X168657142Y-57404761D01*
X168800000Y-57452380D01*
X168895238Y-57452380D01*
X169038095Y-57404761D01*
X169085714Y-57357142D01*
X169085714Y-57023809D01*
X168895238Y-57023809D01*
X169514285Y-57452380D02*
X169514285Y-56452380D01*
X170085714Y-57452380D01*
X170085714Y-56452380D01*
X170561904Y-57452380D02*
X170561904Y-56452380D01*
X170800000Y-56452380D01*
X170942857Y-56500000D01*
X171038095Y-56595238D01*
X171085714Y-56690476D01*
X171133333Y-56880952D01*
X171133333Y-57023809D01*
X171085714Y-57214285D01*
X171038095Y-57309523D01*
X170942857Y-57404761D01*
X170800000Y-57452380D01*
X170561904Y-57452380D01*
X185333333Y-114914285D02*
X185333333Y-114533333D01*
X185561904Y-114990476D02*
X184761904Y-114723809D01*
X185561904Y-114457142D01*
X185028571Y-114266666D02*
X185561904Y-114076190D01*
X185028571Y-113885714D01*
X185561904Y-113580952D02*
X185028571Y-113580952D01*
X185180952Y-113580952D02*
X185104761Y-113542857D01*
X185066666Y-113504761D01*
X185028571Y-113428571D01*
X185028571Y-113352380D01*
X185523809Y-112780952D02*
X185561904Y-112857142D01*
X185561904Y-113009523D01*
X185523809Y-113085714D01*
X185447619Y-113123809D01*
X185142857Y-113123809D01*
X185066666Y-113085714D01*
X185028571Y-113009523D01*
X185028571Y-112857142D01*
X185066666Y-112780952D01*
X185142857Y-112742857D01*
X185219047Y-112742857D01*
X185295238Y-113123809D01*
X185028571Y-112514285D02*
X185028571Y-112209523D01*
X185561904Y-112400000D02*
X184876190Y-112400000D01*
X184800000Y-112361904D01*
X184761904Y-112285714D01*
X184761904Y-112209523D01*
X152261904Y-112952380D02*
X152261904Y-113409523D01*
X152261904Y-113180952D02*
X151461904Y-113180952D01*
X151576190Y-113257142D01*
X151652380Y-113333333D01*
X151690476Y-113409523D01*
X151461904Y-112685714D02*
X151461904Y-112152380D01*
X152261904Y-112495238D01*
X180233333Y-114809523D02*
X180233333Y-114428571D01*
X180461904Y-114885714D02*
X179661904Y-114619047D01*
X180461904Y-114352380D01*
X179700000Y-113666666D02*
X179661904Y-113742857D01*
X179661904Y-113857142D01*
X179700000Y-113971428D01*
X179776190Y-114047619D01*
X179852380Y-114085714D01*
X180004761Y-114123809D01*
X180119047Y-114123809D01*
X180271428Y-114085714D01*
X180347619Y-114047619D01*
X180423809Y-113971428D01*
X180461904Y-113857142D01*
X180461904Y-113780952D01*
X180423809Y-113666666D01*
X180385714Y-113628571D01*
X180119047Y-113628571D01*
X180119047Y-113780952D01*
X180461904Y-113285714D02*
X179661904Y-113285714D01*
X180461904Y-112828571D01*
X179661904Y-112828571D01*
X180461904Y-112447619D02*
X179661904Y-112447619D01*
X179661904Y-112257142D01*
X179700000Y-112142857D01*
X179776190Y-112066666D01*
X179852380Y-112028571D01*
X180004761Y-111990476D01*
X180119047Y-111990476D01*
X180271428Y-112028571D01*
X180347619Y-112066666D01*
X180423809Y-112142857D01*
X180461904Y-112257142D01*
X180461904Y-112447619D01*
X177138095Y-114109523D02*
X177100000Y-114071428D01*
X177061904Y-113995238D01*
X177061904Y-113804761D01*
X177100000Y-113728571D01*
X177138095Y-113690476D01*
X177214285Y-113652380D01*
X177290476Y-113652380D01*
X177404761Y-113690476D01*
X177861904Y-114147619D01*
X177861904Y-113652380D01*
X177061904Y-113385714D02*
X177061904Y-112852380D01*
X177861904Y-113195238D01*
X201871428Y-83371428D02*
X201871428Y-82609523D01*
X202252380Y-82990476D02*
X201490476Y-82990476D01*
X201252380Y-82228571D02*
X201252380Y-81561904D01*
X202252380Y-81990476D01*
X202157142Y-81180952D02*
X202204761Y-81133333D01*
X202252380Y-81180952D01*
X202204761Y-81228571D01*
X202157142Y-81180952D01*
X202252380Y-81180952D01*
X201252380Y-80228571D02*
X201252380Y-80704761D01*
X201728571Y-80752380D01*
X201680952Y-80704761D01*
X201633333Y-80609523D01*
X201633333Y-80371428D01*
X201680952Y-80276190D01*
X201728571Y-80228571D01*
X201823809Y-80180952D01*
X202061904Y-80180952D01*
X202157142Y-80228571D01*
X202204761Y-80276190D01*
X202252380Y-80371428D01*
X202252380Y-80609523D01*
X202204761Y-80704761D01*
X202157142Y-80752380D01*
X120719047Y-59728571D02*
X120861904Y-59776190D01*
X120909523Y-59823809D01*
X120957142Y-59919047D01*
X120957142Y-60061904D01*
X120909523Y-60157142D01*
X120861904Y-60204761D01*
X120766666Y-60252380D01*
X120385714Y-60252380D01*
X120385714Y-59252380D01*
X120719047Y-59252380D01*
X120814285Y-59300000D01*
X120861904Y-59347619D01*
X120909523Y-59442857D01*
X120909523Y-59538095D01*
X120861904Y-59633333D01*
X120814285Y-59680952D01*
X120719047Y-59728571D01*
X120385714Y-59728571D01*
X121385714Y-60252380D02*
X121385714Y-59252380D01*
X121719047Y-59966666D01*
X122052380Y-59252380D01*
X122052380Y-60252380D01*
X122528571Y-59728571D02*
X122861904Y-59728571D01*
X123004761Y-60252380D02*
X122528571Y-60252380D01*
X122528571Y-59252380D01*
X123004761Y-59252380D01*
X123385714Y-59347619D02*
X123433333Y-59300000D01*
X123528571Y-59252380D01*
X123766666Y-59252380D01*
X123861904Y-59300000D01*
X123909523Y-59347619D01*
X123957142Y-59442857D01*
X123957142Y-59538095D01*
X123909523Y-59680952D01*
X123338095Y-60252380D01*
X123957142Y-60252380D01*
X124528571Y-59680952D02*
X124433333Y-59633333D01*
X124385714Y-59585714D01*
X124338095Y-59490476D01*
X124338095Y-59442857D01*
X124385714Y-59347619D01*
X124433333Y-59300000D01*
X124528571Y-59252380D01*
X124719047Y-59252380D01*
X124814285Y-59300000D01*
X124861904Y-59347619D01*
X124909523Y-59442857D01*
X124909523Y-59490476D01*
X124861904Y-59585714D01*
X124814285Y-59633333D01*
X124719047Y-59680952D01*
X124528571Y-59680952D01*
X124433333Y-59728571D01*
X124385714Y-59776190D01*
X124338095Y-59871428D01*
X124338095Y-60061904D01*
X124385714Y-60157142D01*
X124433333Y-60204761D01*
X124528571Y-60252380D01*
X124719047Y-60252380D01*
X124814285Y-60204761D01*
X124861904Y-60157142D01*
X124909523Y-60061904D01*
X124909523Y-59871428D01*
X124861904Y-59776190D01*
X124814285Y-59728571D01*
X124719047Y-59680952D01*
X125528571Y-59252380D02*
X125623809Y-59252380D01*
X125719047Y-59300000D01*
X125766666Y-59347619D01*
X125814285Y-59442857D01*
X125861904Y-59633333D01*
X125861904Y-59871428D01*
X125814285Y-60061904D01*
X125766666Y-60157142D01*
X125719047Y-60204761D01*
X125623809Y-60252380D01*
X125528571Y-60252380D01*
X125433333Y-60204761D01*
X125385714Y-60157142D01*
X125338095Y-60061904D01*
X125290476Y-59871428D01*
X125290476Y-59633333D01*
X125338095Y-59442857D01*
X125385714Y-59347619D01*
X125433333Y-59300000D01*
X125528571Y-59252380D01*
D16*
X170095238Y-76915476D02*
X170511904Y-78165476D01*
X170928571Y-76915476D01*
X172000000Y-78165476D02*
X171285714Y-78165476D01*
X171642857Y-78165476D02*
X171642857Y-76915476D01*
X171523809Y-77094047D01*
X171404761Y-77213095D01*
X171285714Y-77272619D01*
X172535714Y-78046428D02*
X172595238Y-78105952D01*
X172535714Y-78165476D01*
X172476190Y-78105952D01*
X172535714Y-78046428D01*
X172535714Y-78165476D01*
X173071428Y-77034523D02*
X173130952Y-76975000D01*
X173250000Y-76915476D01*
X173547619Y-76915476D01*
X173666666Y-76975000D01*
X173726190Y-77034523D01*
X173785714Y-77153571D01*
X173785714Y-77272619D01*
X173726190Y-77451190D01*
X173011904Y-78165476D01*
X173785714Y-78165476D01*
D14*
X109146972Y-139307424D02*
X109743026Y-140201504D01*
X109743026Y-139307424D02*
X109146972Y-140201504D01*
D10*
X174847619Y-116961904D02*
X174466666Y-116961904D01*
X174428571Y-117342857D01*
X174466666Y-117304761D01*
X174542857Y-117266666D01*
X174733333Y-117266666D01*
X174809523Y-117304761D01*
X174847619Y-117342857D01*
X174885714Y-117419047D01*
X174885714Y-117609523D01*
X174847619Y-117685714D01*
X174809523Y-117723809D01*
X174733333Y-117761904D01*
X174542857Y-117761904D01*
X174466666Y-117723809D01*
X174428571Y-117685714D01*
X175114285Y-116961904D02*
X175380952Y-117761904D01*
X175647619Y-116961904D01*
X200300000Y-71961904D02*
X200252380Y-72057142D01*
X200252380Y-72200000D01*
X200300000Y-72342857D01*
X200395238Y-72438095D01*
X200490476Y-72485714D01*
X200680952Y-72533333D01*
X200823809Y-72533333D01*
X201014285Y-72485714D01*
X201109523Y-72438095D01*
X201204761Y-72342857D01*
X201252380Y-72200000D01*
X201252380Y-72104761D01*
X201204761Y-71961904D01*
X201157142Y-71914285D01*
X200823809Y-71914285D01*
X200823809Y-72104761D01*
X201252380Y-71485714D02*
X200252380Y-71485714D01*
X201252380Y-70914285D01*
X200252380Y-70914285D01*
X201252380Y-70438095D02*
X200252380Y-70438095D01*
X200252380Y-70200000D01*
X200300000Y-70057142D01*
X200395238Y-69961904D01*
X200490476Y-69914285D01*
X200680952Y-69866666D01*
X200823809Y-69866666D01*
X201014285Y-69914285D01*
X201109523Y-69961904D01*
X201204761Y-70057142D01*
X201252380Y-70200000D01*
X201252380Y-70438095D01*
X192700000Y-114009523D02*
X192661904Y-114085714D01*
X192661904Y-114200000D01*
X192700000Y-114314285D01*
X192776190Y-114390476D01*
X192852380Y-114428571D01*
X193004761Y-114466666D01*
X193119047Y-114466666D01*
X193271428Y-114428571D01*
X193347619Y-114390476D01*
X193423809Y-114314285D01*
X193461904Y-114200000D01*
X193461904Y-114123809D01*
X193423809Y-114009523D01*
X193385714Y-113971428D01*
X193119047Y-113971428D01*
X193119047Y-114123809D01*
X193461904Y-113628571D02*
X192661904Y-113628571D01*
X193461904Y-113171428D01*
X192661904Y-113171428D01*
X193461904Y-112790476D02*
X192661904Y-112790476D01*
X192661904Y-112600000D01*
X192700000Y-112485714D01*
X192776190Y-112409523D01*
X192852380Y-112371428D01*
X193004761Y-112333333D01*
X193119047Y-112333333D01*
X193271428Y-112371428D01*
X193347619Y-112409523D01*
X193423809Y-112485714D01*
X193461904Y-112600000D01*
X193461904Y-112790476D01*
X203900000Y-126861904D02*
X203852380Y-126957142D01*
X203852380Y-127100000D01*
X203900000Y-127242857D01*
X203995238Y-127338095D01*
X204090476Y-127385714D01*
X204280952Y-127433333D01*
X204423809Y-127433333D01*
X204614285Y-127385714D01*
X204709523Y-127338095D01*
X204804761Y-127242857D01*
X204852380Y-127100000D01*
X204852380Y-127004761D01*
X204804761Y-126861904D01*
X204757142Y-126814285D01*
X204423809Y-126814285D01*
X204423809Y-127004761D01*
X204852380Y-126385714D02*
X203852380Y-126385714D01*
X204852380Y-125814285D01*
X203852380Y-125814285D01*
X204852380Y-125338095D02*
X203852380Y-125338095D01*
X203852380Y-125100000D01*
X203900000Y-124957142D01*
X203995238Y-124861904D01*
X204090476Y-124814285D01*
X204280952Y-124766666D01*
X204423809Y-124766666D01*
X204614285Y-124814285D01*
X204709523Y-124861904D01*
X204804761Y-124957142D01*
X204852380Y-125100000D01*
X204852380Y-125338095D01*
D15*
X143408307Y-141373571D02*
X143169886Y-141032969D01*
X142999585Y-141373571D02*
X142999585Y-140658307D01*
X143272067Y-140658307D01*
X143340187Y-140692368D01*
X143374247Y-140726428D01*
X143408307Y-140794548D01*
X143408307Y-140896729D01*
X143374247Y-140964849D01*
X143340187Y-140998909D01*
X143272067Y-141032969D01*
X142999585Y-141032969D01*
X143680789Y-141339511D02*
X143782969Y-141373571D01*
X143953270Y-141373571D01*
X144021391Y-141339511D01*
X144055451Y-141305451D01*
X144089511Y-141237331D01*
X144089511Y-141169210D01*
X144055451Y-141101090D01*
X144021391Y-141067030D01*
X143953270Y-141032969D01*
X143817030Y-140998909D01*
X143748909Y-140964849D01*
X143714849Y-140930789D01*
X143680789Y-140862668D01*
X143680789Y-140794548D01*
X143714849Y-140726428D01*
X143748909Y-140692368D01*
X143817030Y-140658307D01*
X143987331Y-140658307D01*
X144089511Y-140692368D01*
X144293872Y-140658307D02*
X144702595Y-140658307D01*
X144498233Y-141373571D02*
X144498233Y-140658307D01*
D10*
X174038095Y-56400000D02*
X173942857Y-56352380D01*
X173800000Y-56352380D01*
X173657142Y-56400000D01*
X173561904Y-56495238D01*
X173514285Y-56590476D01*
X173466666Y-56780952D01*
X173466666Y-56923809D01*
X173514285Y-57114285D01*
X173561904Y-57209523D01*
X173657142Y-57304761D01*
X173800000Y-57352380D01*
X173895238Y-57352380D01*
X174038095Y-57304761D01*
X174085714Y-57257142D01*
X174085714Y-56923809D01*
X173895238Y-56923809D01*
X174514285Y-57352380D02*
X174514285Y-56352380D01*
X175085714Y-57352380D01*
X175085714Y-56352380D01*
X175561904Y-57352380D02*
X175561904Y-56352380D01*
X175800000Y-56352380D01*
X175942857Y-56400000D01*
X176038095Y-56495238D01*
X176085714Y-56590476D01*
X176133333Y-56780952D01*
X176133333Y-56923809D01*
X176085714Y-57114285D01*
X176038095Y-57209523D01*
X175942857Y-57304761D01*
X175800000Y-57352380D01*
X175561904Y-57352380D01*
D11*
X103378571Y-117642000D02*
X103307142Y-117593619D01*
X103200000Y-117593619D01*
X103092857Y-117642000D01*
X103021428Y-117738761D01*
X102985714Y-117835523D01*
X102950000Y-118029047D01*
X102950000Y-118174190D01*
X102985714Y-118367714D01*
X103021428Y-118464476D01*
X103092857Y-118561238D01*
X103200000Y-118609619D01*
X103271428Y-118609619D01*
X103378571Y-118561238D01*
X103414285Y-118512857D01*
X103414285Y-118174190D01*
X103271428Y-118174190D01*
X103735714Y-118609619D02*
X103735714Y-117593619D01*
X104164285Y-118609619D01*
X104164285Y-117593619D01*
X104521428Y-118609619D02*
X104521428Y-117593619D01*
X104700000Y-117593619D01*
X104807142Y-117642000D01*
X104878571Y-117738761D01*
X104914285Y-117835523D01*
X104950000Y-118029047D01*
X104950000Y-118174190D01*
X104914285Y-118367714D01*
X104878571Y-118464476D01*
X104807142Y-118561238D01*
X104700000Y-118609619D01*
X104521428Y-118609619D01*
D15*
X132565525Y-140608307D02*
X133008307Y-140608307D01*
X132769886Y-140880789D01*
X132872067Y-140880789D01*
X132940187Y-140914849D01*
X132974247Y-140948909D01*
X133008307Y-141017030D01*
X133008307Y-141187331D01*
X132974247Y-141255451D01*
X132940187Y-141289511D01*
X132872067Y-141323571D01*
X132667705Y-141323571D01*
X132599585Y-141289511D01*
X132565525Y-141255451D01*
X133246729Y-140846729D02*
X133417030Y-141323571D01*
X133587331Y-140846729D01*
X133961993Y-141323571D02*
X133893872Y-141289511D01*
X133859812Y-141255451D01*
X133825752Y-141187331D01*
X133825752Y-140982969D01*
X133859812Y-140914849D01*
X133893872Y-140880789D01*
X133961993Y-140846729D01*
X134064173Y-140846729D01*
X134132294Y-140880789D01*
X134166354Y-140914849D01*
X134200414Y-140982969D01*
X134200414Y-141187331D01*
X134166354Y-141255451D01*
X134132294Y-141289511D01*
X134064173Y-141323571D01*
X133961993Y-141323571D01*
X140348495Y-141339511D02*
X140450675Y-141373571D01*
X140620976Y-141373571D01*
X140689097Y-141339511D01*
X140723157Y-141305451D01*
X140757217Y-141237331D01*
X140757217Y-141169210D01*
X140723157Y-141101090D01*
X140689097Y-141067030D01*
X140620976Y-141032969D01*
X140484736Y-140998909D01*
X140416615Y-140964849D01*
X140382555Y-140930789D01*
X140348495Y-140862668D01*
X140348495Y-140794548D01*
X140382555Y-140726428D01*
X140416615Y-140692368D01*
X140484736Y-140658307D01*
X140655036Y-140658307D01*
X140757217Y-140692368D01*
X141472481Y-141305451D02*
X141438421Y-141339511D01*
X141336240Y-141373571D01*
X141268120Y-141373571D01*
X141165939Y-141339511D01*
X141097819Y-141271391D01*
X141063759Y-141203270D01*
X141029699Y-141067030D01*
X141029699Y-140964849D01*
X141063759Y-140828608D01*
X141097819Y-140760488D01*
X141165939Y-140692368D01*
X141268120Y-140658307D01*
X141336240Y-140658307D01*
X141438421Y-140692368D01*
X141472481Y-140726428D01*
X142119625Y-141373571D02*
X141779023Y-141373571D01*
X141779023Y-140658307D01*
D10*
X164438095Y-113909523D02*
X164400000Y-113871428D01*
X164361904Y-113795238D01*
X164361904Y-113604761D01*
X164400000Y-113528571D01*
X164438095Y-113490476D01*
X164514285Y-113452380D01*
X164590476Y-113452380D01*
X164704761Y-113490476D01*
X165161904Y-113947619D01*
X165161904Y-113452380D01*
X165161904Y-112690476D02*
X165161904Y-113147619D01*
X165161904Y-112919047D02*
X164361904Y-112919047D01*
X164476190Y-112995238D01*
X164552380Y-113071428D01*
X164590476Y-113147619D01*
D14*
X121946972Y-139207424D02*
X122543026Y-140101504D01*
X122543026Y-139207424D02*
X121946972Y-140101504D01*
D11*
X103021428Y-112543619D02*
X103485714Y-112543619D01*
X103235714Y-112930666D01*
X103342857Y-112930666D01*
X103414285Y-112979047D01*
X103450000Y-113027428D01*
X103485714Y-113124190D01*
X103485714Y-113366095D01*
X103450000Y-113462857D01*
X103414285Y-113511238D01*
X103342857Y-113559619D01*
X103128571Y-113559619D01*
X103057142Y-113511238D01*
X103021428Y-113462857D01*
X103700000Y-112543619D02*
X103950000Y-113559619D01*
X104200000Y-112543619D01*
X104378571Y-112543619D02*
X104842857Y-112543619D01*
X104592857Y-112930666D01*
X104700000Y-112930666D01*
X104771428Y-112979047D01*
X104807142Y-113027428D01*
X104842857Y-113124190D01*
X104842857Y-113366095D01*
X104807142Y-113462857D01*
X104771428Y-113511238D01*
X104700000Y-113559619D01*
X104485714Y-113559619D01*
X104414285Y-113511238D01*
X104378571Y-113462857D01*
D15*
X137631465Y-141389511D02*
X137733645Y-141423571D01*
X137903946Y-141423571D01*
X137972067Y-141389511D01*
X138006127Y-141355451D01*
X138040187Y-141287331D01*
X138040187Y-141219210D01*
X138006127Y-141151090D01*
X137972067Y-141117030D01*
X137903946Y-141082969D01*
X137767705Y-141048909D01*
X137699585Y-141014849D01*
X137665525Y-140980789D01*
X137631465Y-140912668D01*
X137631465Y-140844548D01*
X137665525Y-140776428D01*
X137699585Y-140742368D01*
X137767705Y-140708307D01*
X137938006Y-140708307D01*
X138040187Y-140742368D01*
X138346729Y-141423571D02*
X138346729Y-140708307D01*
X138517030Y-140708307D01*
X138619210Y-140742368D01*
X138687331Y-140810488D01*
X138721391Y-140878608D01*
X138755451Y-141014849D01*
X138755451Y-141117030D01*
X138721391Y-141253270D01*
X138687331Y-141321391D01*
X138619210Y-141389511D01*
X138517030Y-141423571D01*
X138346729Y-141423571D01*
X139027932Y-141219210D02*
X139368534Y-141219210D01*
X138959812Y-141423571D02*
X139198233Y-140708307D01*
X139436655Y-141423571D01*
D10*
X197361904Y-115366666D02*
X198161904Y-115100000D01*
X197361904Y-114833333D01*
X197742857Y-114300000D02*
X197780952Y-114185714D01*
X197819047Y-114147619D01*
X197895238Y-114109523D01*
X198009523Y-114109523D01*
X198085714Y-114147619D01*
X198123809Y-114185714D01*
X198161904Y-114261904D01*
X198161904Y-114566666D01*
X197361904Y-114566666D01*
X197361904Y-114300000D01*
X197400000Y-114223809D01*
X197438095Y-114185714D01*
X197514285Y-114147619D01*
X197590476Y-114147619D01*
X197666666Y-114185714D01*
X197704761Y-114223809D01*
X197742857Y-114300000D01*
X197742857Y-114566666D01*
X197361904Y-113766666D02*
X198009523Y-113766666D01*
X198085714Y-113728571D01*
X198123809Y-113690476D01*
X198161904Y-113614285D01*
X198161904Y-113461904D01*
X198123809Y-113385714D01*
X198085714Y-113347619D01*
X198009523Y-113309523D01*
X197361904Y-113309523D01*
X198123809Y-112966666D02*
X198161904Y-112852380D01*
X198161904Y-112661904D01*
X198123809Y-112585714D01*
X198085714Y-112547619D01*
X198009523Y-112509523D01*
X197933333Y-112509523D01*
X197857142Y-112547619D01*
X197819047Y-112585714D01*
X197780952Y-112661904D01*
X197742857Y-112814285D01*
X197704761Y-112890476D01*
X197666666Y-112928571D01*
X197590476Y-112966666D01*
X197514285Y-112966666D01*
X197438095Y-112928571D01*
X197400000Y-112890476D01*
X197361904Y-112814285D01*
X197361904Y-112623809D01*
X197400000Y-112509523D01*
X200300000Y-66661904D02*
X200252380Y-66757142D01*
X200252380Y-66900000D01*
X200300000Y-67042857D01*
X200395238Y-67138095D01*
X200490476Y-67185714D01*
X200680952Y-67233333D01*
X200823809Y-67233333D01*
X201014285Y-67185714D01*
X201109523Y-67138095D01*
X201204761Y-67042857D01*
X201252380Y-66900000D01*
X201252380Y-66804761D01*
X201204761Y-66661904D01*
X201157142Y-66614285D01*
X200823809Y-66614285D01*
X200823809Y-66804761D01*
X201252380Y-66185714D02*
X200252380Y-66185714D01*
X201252380Y-65614285D01*
X200252380Y-65614285D01*
X201252380Y-65138095D02*
X200252380Y-65138095D01*
X200252380Y-64900000D01*
X200300000Y-64757142D01*
X200395238Y-64661904D01*
X200490476Y-64614285D01*
X200680952Y-64566666D01*
X200823809Y-64566666D01*
X201014285Y-64614285D01*
X201109523Y-64661904D01*
X201204761Y-64757142D01*
X201252380Y-64900000D01*
X201252380Y-65138095D01*
X161838095Y-113909523D02*
X161800000Y-113871428D01*
X161761904Y-113795238D01*
X161761904Y-113604761D01*
X161800000Y-113528571D01*
X161838095Y-113490476D01*
X161914285Y-113452380D01*
X161990476Y-113452380D01*
X162104761Y-113490476D01*
X162561904Y-113947619D01*
X162561904Y-113452380D01*
X161761904Y-112957142D02*
X161761904Y-112880952D01*
X161800000Y-112804761D01*
X161838095Y-112766666D01*
X161914285Y-112728571D01*
X162066666Y-112690476D01*
X162257142Y-112690476D01*
X162409523Y-112728571D01*
X162485714Y-112766666D01*
X162523809Y-112804761D01*
X162561904Y-112880952D01*
X162561904Y-112957142D01*
X162523809Y-113033333D01*
X162485714Y-113071428D01*
X162409523Y-113109523D01*
X162257142Y-113147619D01*
X162066666Y-113147619D01*
X161914285Y-113109523D01*
X161838095Y-113071428D01*
X161800000Y-113033333D01*
X161761904Y-112957142D01*
X166800000Y-114009523D02*
X166761904Y-114085714D01*
X166761904Y-114200000D01*
X166800000Y-114314285D01*
X166876190Y-114390476D01*
X166952380Y-114428571D01*
X167104761Y-114466666D01*
X167219047Y-114466666D01*
X167371428Y-114428571D01*
X167447619Y-114390476D01*
X167523809Y-114314285D01*
X167561904Y-114200000D01*
X167561904Y-114123809D01*
X167523809Y-114009523D01*
X167485714Y-113971428D01*
X167219047Y-113971428D01*
X167219047Y-114123809D01*
X167561904Y-113628571D02*
X166761904Y-113628571D01*
X167561904Y-113171428D01*
X166761904Y-113171428D01*
X167561904Y-112790476D02*
X166761904Y-112790476D01*
X166761904Y-112600000D01*
X166800000Y-112485714D01*
X166876190Y-112409523D01*
X166952380Y-112371428D01*
X167104761Y-112333333D01*
X167219047Y-112333333D01*
X167371428Y-112371428D01*
X167447619Y-112409523D01*
X167523809Y-112485714D01*
X167561904Y-112600000D01*
X167561904Y-112790476D01*
X182338095Y-114109523D02*
X182300000Y-114071428D01*
X182261904Y-113995238D01*
X182261904Y-113804761D01*
X182300000Y-113728571D01*
X182338095Y-113690476D01*
X182414285Y-113652380D01*
X182490476Y-113652380D01*
X182604761Y-113690476D01*
X183061904Y-114147619D01*
X183061904Y-113652380D01*
X182604761Y-113195238D02*
X182566666Y-113271428D01*
X182528571Y-113309523D01*
X182452380Y-113347619D01*
X182414285Y-113347619D01*
X182338095Y-113309523D01*
X182300000Y-113271428D01*
X182261904Y-113195238D01*
X182261904Y-113042857D01*
X182300000Y-112966666D01*
X182338095Y-112928571D01*
X182414285Y-112890476D01*
X182452380Y-112890476D01*
X182528571Y-112928571D01*
X182566666Y-112966666D01*
X182604761Y-113042857D01*
X182604761Y-113195238D01*
X182642857Y-113271428D01*
X182680952Y-113309523D01*
X182757142Y-113347619D01*
X182909523Y-113347619D01*
X182985714Y-113309523D01*
X183023809Y-113271428D01*
X183061904Y-113195238D01*
X183061904Y-113042857D01*
X183023809Y-112966666D01*
X182985714Y-112928571D01*
X182909523Y-112890476D01*
X182757142Y-112890476D01*
X182680952Y-112928571D01*
X182642857Y-112966666D01*
X182604761Y-113042857D01*
X204271428Y-138171428D02*
X204271428Y-137409523D01*
X204652380Y-137790476D02*
X203890476Y-137790476D01*
X203652380Y-137028571D02*
X203652380Y-136361904D01*
X204652380Y-136790476D01*
X204557142Y-135980952D02*
X204604761Y-135933333D01*
X204652380Y-135980952D01*
X204604761Y-136028571D01*
X204557142Y-135980952D01*
X204652380Y-135980952D01*
X203652380Y-135028571D02*
X203652380Y-135504761D01*
X204128571Y-135552380D01*
X204080952Y-135504761D01*
X204033333Y-135409523D01*
X204033333Y-135171428D01*
X204080952Y-135076190D01*
X204128571Y-135028571D01*
X204223809Y-134980952D01*
X204461904Y-134980952D01*
X204557142Y-135028571D01*
X204604761Y-135076190D01*
X204652380Y-135171428D01*
X204652380Y-135409523D01*
X204604761Y-135504761D01*
X204557142Y-135552380D01*
D17*
X189787857Y-113963571D02*
X189787857Y-113610714D01*
X190005000Y-113800714D01*
X190005000Y-113719285D01*
X190032142Y-113665000D01*
X190059285Y-113637857D01*
X190113571Y-113610714D01*
X190249285Y-113610714D01*
X190303571Y-113637857D01*
X190330714Y-113665000D01*
X190357857Y-113719285D01*
X190357857Y-113882142D01*
X190330714Y-113936428D01*
X190303571Y-113963571D01*
X189787857Y-113447857D02*
X190357857Y-113257857D01*
X189787857Y-113067857D01*
X189787857Y-112932142D02*
X189787857Y-112579285D01*
X190005000Y-112769285D01*
X190005000Y-112687857D01*
X190032142Y-112633571D01*
X190059285Y-112606428D01*
X190113571Y-112579285D01*
X190249285Y-112579285D01*
X190303571Y-112606428D01*
X190330714Y-112633571D01*
X190357857Y-112687857D01*
X190357857Y-112850714D01*
X190330714Y-112905000D01*
X190303571Y-112932142D01*
X190059285Y-112335000D02*
X190059285Y-112145000D01*
X190357857Y-112063571D02*
X190357857Y-112335000D01*
X189787857Y-112335000D01*
X189787857Y-112063571D01*
D10*
X135895238Y-118928571D02*
X136038095Y-118976190D01*
X136085714Y-119023809D01*
X136133333Y-119119047D01*
X136133333Y-119261904D01*
X136085714Y-119357142D01*
X136038095Y-119404761D01*
X135942857Y-119452380D01*
X135561904Y-119452380D01*
X135561904Y-118452380D01*
X135895238Y-118452380D01*
X135990476Y-118500000D01*
X136038095Y-118547619D01*
X136085714Y-118642857D01*
X136085714Y-118738095D01*
X136038095Y-118833333D01*
X135990476Y-118880952D01*
X135895238Y-118928571D01*
X135561904Y-118928571D01*
X136561904Y-119452380D02*
X136561904Y-118452380D01*
X137133333Y-119452380D01*
X137133333Y-118452380D01*
X137800000Y-118452380D02*
X137990476Y-118452380D01*
X138085714Y-118500000D01*
X138180952Y-118595238D01*
X138228571Y-118785714D01*
X138228571Y-119119047D01*
X138180952Y-119309523D01*
X138085714Y-119404761D01*
X137990476Y-119452380D01*
X137800000Y-119452380D01*
X137704761Y-119404761D01*
X137609523Y-119309523D01*
X137561904Y-119119047D01*
X137561904Y-118785714D01*
X137609523Y-118595238D01*
X137704761Y-118500000D01*
X137800000Y-118452380D01*
X138847619Y-118452380D02*
X138942857Y-118452380D01*
X139038095Y-118500000D01*
X139085714Y-118547619D01*
X139133333Y-118642857D01*
X139180952Y-118833333D01*
X139180952Y-119071428D01*
X139133333Y-119261904D01*
X139085714Y-119357142D01*
X139038095Y-119404761D01*
X138942857Y-119452380D01*
X138847619Y-119452380D01*
X138752380Y-119404761D01*
X138704761Y-119357142D01*
X138657142Y-119261904D01*
X138609523Y-119071428D01*
X138609523Y-118833333D01*
X138657142Y-118642857D01*
X138704761Y-118547619D01*
X138752380Y-118500000D01*
X138847619Y-118452380D01*
X140085714Y-118452380D02*
X139609523Y-118452380D01*
X139561904Y-118928571D01*
X139609523Y-118880952D01*
X139704761Y-118833333D01*
X139942857Y-118833333D01*
X140038095Y-118880952D01*
X140085714Y-118928571D01*
X140133333Y-119023809D01*
X140133333Y-119261904D01*
X140085714Y-119357142D01*
X140038095Y-119404761D01*
X139942857Y-119452380D01*
X139704761Y-119452380D01*
X139609523Y-119404761D01*
X139561904Y-119357142D01*
X141038095Y-118452380D02*
X140561904Y-118452380D01*
X140514285Y-118928571D01*
X140561904Y-118880952D01*
X140657142Y-118833333D01*
X140895238Y-118833333D01*
X140990476Y-118880952D01*
X141038095Y-118928571D01*
X141085714Y-119023809D01*
X141085714Y-119261904D01*
X141038095Y-119357142D01*
X140990476Y-119404761D01*
X140895238Y-119452380D01*
X140657142Y-119452380D01*
X140561904Y-119404761D01*
X140514285Y-119357142D01*
X157561904Y-113152380D02*
X157561904Y-113609523D01*
X157561904Y-113380952D02*
X156761904Y-113380952D01*
X156876190Y-113457142D01*
X156952380Y-113533333D01*
X156990476Y-113609523D01*
X157104761Y-112695238D02*
X157066666Y-112771428D01*
X157028571Y-112809523D01*
X156952380Y-112847619D01*
X156914285Y-112847619D01*
X156838095Y-112809523D01*
X156800000Y-112771428D01*
X156761904Y-112695238D01*
X156761904Y-112542857D01*
X156800000Y-112466666D01*
X156838095Y-112428571D01*
X156914285Y-112390476D01*
X156952380Y-112390476D01*
X157028571Y-112428571D01*
X157066666Y-112466666D01*
X157104761Y-112542857D01*
X157104761Y-112695238D01*
X157142857Y-112771428D01*
X157180952Y-112809523D01*
X157257142Y-112847619D01*
X157409523Y-112847619D01*
X157485714Y-112809523D01*
X157523809Y-112771428D01*
X157561904Y-112695238D01*
X157561904Y-112542857D01*
X157523809Y-112466666D01*
X157485714Y-112428571D01*
X157409523Y-112390476D01*
X157257142Y-112390476D01*
X157180952Y-112428571D01*
X157142857Y-112466666D01*
X157104761Y-112542857D01*
%TO.C,J1*%
X119952380Y-116783333D02*
X120666666Y-116783333D01*
X120809523Y-116830952D01*
X120904761Y-116926190D01*
X120952380Y-117069047D01*
X120952380Y-117164285D01*
X120952380Y-115783333D02*
X120952380Y-116354761D01*
X120952380Y-116069047D02*
X119952380Y-116069047D01*
X120095238Y-116164285D01*
X120190476Y-116259523D01*
X120238095Y-116354761D01*
D18*
%TO.C,JP1*%
X142970841Y-92018000D02*
X143406270Y-92018000D01*
X143493355Y-92047028D01*
X143551412Y-92105085D01*
X143580441Y-92192171D01*
X143580441Y-92250228D01*
X143580441Y-91727714D02*
X142970841Y-91727714D01*
X142970841Y-91495485D01*
X142999870Y-91437428D01*
X143028898Y-91408400D01*
X143086955Y-91379371D01*
X143174041Y-91379371D01*
X143232098Y-91408400D01*
X143261127Y-91437428D01*
X143290155Y-91495485D01*
X143290155Y-91727714D01*
X143580441Y-90798800D02*
X143580441Y-91147142D01*
X143580441Y-90972971D02*
X142970841Y-90972971D01*
X143057927Y-91031028D01*
X143115984Y-91089085D01*
X143145012Y-91147142D01*
X144240841Y-92569542D02*
X144850441Y-92163142D01*
X144240841Y-92163142D02*
X144850441Y-92569542D01*
X144531127Y-91727714D02*
X144560155Y-91640628D01*
X144589184Y-91611600D01*
X144647241Y-91582571D01*
X144734327Y-91582571D01*
X144792384Y-91611600D01*
X144821412Y-91640628D01*
X144850441Y-91698685D01*
X144850441Y-91930914D01*
X144240841Y-91930914D01*
X144240841Y-91727714D01*
X144269870Y-91669657D01*
X144298898Y-91640628D01*
X144356955Y-91611600D01*
X144415012Y-91611600D01*
X144473070Y-91640628D01*
X144502098Y-91669657D01*
X144531127Y-91727714D01*
X144531127Y-91930914D01*
X144531127Y-91321314D02*
X144531127Y-91118114D01*
X144850441Y-91031028D02*
X144850441Y-91321314D01*
X144240841Y-91321314D01*
X144240841Y-91031028D01*
X144531127Y-90769771D02*
X144531127Y-90566571D01*
X144850441Y-90479485D02*
X144850441Y-90769771D01*
X144240841Y-90769771D01*
X144240841Y-90479485D01*
D11*
X119909619Y-112959714D02*
X119909619Y-113540285D01*
X119909619Y-113250000D02*
X118893619Y-113250000D01*
X119038761Y-113346761D01*
X119135523Y-113443523D01*
X119183904Y-113540285D01*
D10*
%TO.C,J10*%
X157490476Y-140252380D02*
X157490476Y-140966666D01*
X157442857Y-141109523D01*
X157347619Y-141204761D01*
X157204761Y-141252380D01*
X157109523Y-141252380D01*
X158490476Y-141252380D02*
X157919047Y-141252380D01*
X158204761Y-141252380D02*
X158204761Y-140252380D01*
X158109523Y-140395238D01*
X158014285Y-140490476D01*
X157919047Y-140538095D01*
X159109523Y-140252380D02*
X159204761Y-140252380D01*
X159300000Y-140300000D01*
X159347619Y-140347619D01*
X159395238Y-140442857D01*
X159442857Y-140633333D01*
X159442857Y-140871428D01*
X159395238Y-141061904D01*
X159347619Y-141157142D01*
X159300000Y-141204761D01*
X159204761Y-141252380D01*
X159109523Y-141252380D01*
X159014285Y-141204761D01*
X158966666Y-141157142D01*
X158919047Y-141061904D01*
X158871428Y-140871428D01*
X158871428Y-140633333D01*
X158919047Y-140442857D01*
X158966666Y-140347619D01*
X159014285Y-140300000D01*
X159109523Y-140252380D01*
%TO.C,J12*%
X130452380Y-60209523D02*
X131166666Y-60209523D01*
X131309523Y-60257142D01*
X131404761Y-60352380D01*
X131452380Y-60495238D01*
X131452380Y-60590476D01*
X131452380Y-59209523D02*
X131452380Y-59780952D01*
X131452380Y-59495238D02*
X130452380Y-59495238D01*
X130595238Y-59590476D01*
X130690476Y-59685714D01*
X130738095Y-59780952D01*
X130547619Y-58828571D02*
X130500000Y-58780952D01*
X130452380Y-58685714D01*
X130452380Y-58447619D01*
X130500000Y-58352380D01*
X130547619Y-58304761D01*
X130642857Y-58257142D01*
X130738095Y-58257142D01*
X130880952Y-58304761D01*
X131452380Y-58876190D01*
X131452380Y-58257142D01*
%TO.C,J6*%
X128077380Y-84733333D02*
X128791666Y-84733333D01*
X128934523Y-84780952D01*
X129029761Y-84876190D01*
X129077380Y-85019047D01*
X129077380Y-85114285D01*
X128077380Y-83828571D02*
X128077380Y-84019047D01*
X128125000Y-84114285D01*
X128172619Y-84161904D01*
X128315476Y-84257142D01*
X128505952Y-84304761D01*
X128886904Y-84304761D01*
X128982142Y-84257142D01*
X129029761Y-84209523D01*
X129077380Y-84114285D01*
X129077380Y-83923809D01*
X129029761Y-83828571D01*
X128982142Y-83780952D01*
X128886904Y-83733333D01*
X128648809Y-83733333D01*
X128553571Y-83780952D01*
X128505952Y-83828571D01*
X128458333Y-83923809D01*
X128458333Y-84114285D01*
X128505952Y-84209523D01*
X128553571Y-84257142D01*
X128648809Y-84304761D01*
%TO.C,R12*%
X176657142Y-84052380D02*
X176323809Y-83576190D01*
X176085714Y-84052380D02*
X176085714Y-83052380D01*
X176466666Y-83052380D01*
X176561904Y-83100000D01*
X176609523Y-83147619D01*
X176657142Y-83242857D01*
X176657142Y-83385714D01*
X176609523Y-83480952D01*
X176561904Y-83528571D01*
X176466666Y-83576190D01*
X176085714Y-83576190D01*
X177609523Y-84052380D02*
X177038095Y-84052380D01*
X177323809Y-84052380D02*
X177323809Y-83052380D01*
X177228571Y-83195238D01*
X177133333Y-83290476D01*
X177038095Y-83338095D01*
X177990476Y-83147619D02*
X178038095Y-83100000D01*
X178133333Y-83052380D01*
X178371428Y-83052380D01*
X178466666Y-83100000D01*
X178514285Y-83147619D01*
X178561904Y-83242857D01*
X178561904Y-83338095D01*
X178514285Y-83480952D01*
X177942857Y-84052380D01*
X178561904Y-84052380D01*
%TO.C,U5*%
X180938095Y-129402380D02*
X180938095Y-130211904D01*
X180985714Y-130307142D01*
X181033333Y-130354761D01*
X181128571Y-130402380D01*
X181319047Y-130402380D01*
X181414285Y-130354761D01*
X181461904Y-130307142D01*
X181509523Y-130211904D01*
X181509523Y-129402380D01*
X182461904Y-129402380D02*
X181985714Y-129402380D01*
X181938095Y-129878571D01*
X181985714Y-129830952D01*
X182080952Y-129783333D01*
X182319047Y-129783333D01*
X182414285Y-129830952D01*
X182461904Y-129878571D01*
X182509523Y-129973809D01*
X182509523Y-130211904D01*
X182461904Y-130307142D01*
X182414285Y-130354761D01*
X182319047Y-130402380D01*
X182080952Y-130402380D01*
X181985714Y-130354761D01*
X181938095Y-130307142D01*
%TO.C,R14*%
X176857142Y-79152380D02*
X176523809Y-78676190D01*
X176285714Y-79152380D02*
X176285714Y-78152380D01*
X176666666Y-78152380D01*
X176761904Y-78200000D01*
X176809523Y-78247619D01*
X176857142Y-78342857D01*
X176857142Y-78485714D01*
X176809523Y-78580952D01*
X176761904Y-78628571D01*
X176666666Y-78676190D01*
X176285714Y-78676190D01*
X177809523Y-79152380D02*
X177238095Y-79152380D01*
X177523809Y-79152380D02*
X177523809Y-78152380D01*
X177428571Y-78295238D01*
X177333333Y-78390476D01*
X177238095Y-78438095D01*
X178666666Y-78485714D02*
X178666666Y-79152380D01*
X178428571Y-78104761D02*
X178190476Y-78819047D01*
X178809523Y-78819047D01*
%TO.C,U7*%
X186438095Y-75852380D02*
X186438095Y-76661904D01*
X186485714Y-76757142D01*
X186533333Y-76804761D01*
X186628571Y-76852380D01*
X186819047Y-76852380D01*
X186914285Y-76804761D01*
X186961904Y-76757142D01*
X187009523Y-76661904D01*
X187009523Y-75852380D01*
X187390476Y-75852380D02*
X188057142Y-75852380D01*
X187628571Y-76852380D01*
%TO.C,J4*%
X188652380Y-74053333D02*
X189366666Y-74053333D01*
X189509523Y-74100952D01*
X189604761Y-74196190D01*
X189652380Y-74339047D01*
X189652380Y-74434285D01*
X188985714Y-73148571D02*
X189652380Y-73148571D01*
X188604761Y-73386666D02*
X189319047Y-73624761D01*
X189319047Y-73005714D01*
%TO.C,U3*%
X136221621Y-128118431D02*
X136221621Y-128927955D01*
X136269240Y-129023193D01*
X136316859Y-129070812D01*
X136412097Y-129118431D01*
X136602573Y-129118431D01*
X136697811Y-129070812D01*
X136745430Y-129023193D01*
X136793049Y-128927955D01*
X136793049Y-128118431D01*
X137174002Y-128118431D02*
X137793049Y-128118431D01*
X137459716Y-128499384D01*
X137602573Y-128499384D01*
X137697811Y-128547003D01*
X137745430Y-128594622D01*
X137793049Y-128689860D01*
X137793049Y-128927955D01*
X137745430Y-129023193D01*
X137697811Y-129070812D01*
X137602573Y-129118431D01*
X137316859Y-129118431D01*
X137221621Y-129070812D01*
X137174002Y-129023193D01*
D15*
X137858331Y-123109571D02*
X137858331Y-122394307D01*
X138198933Y-123109571D02*
X138198933Y-122394307D01*
X138607655Y-123109571D01*
X138607655Y-122394307D01*
X138846076Y-122394307D02*
X139254799Y-122394307D01*
X139050438Y-123109571D02*
X139050438Y-122394307D01*
D11*
X124717646Y-132230561D02*
X124770865Y-132070904D01*
X124824084Y-132017685D01*
X124930522Y-131964466D01*
X125090179Y-131964466D01*
X125196617Y-132017685D01*
X125249836Y-132070904D01*
X125303055Y-132177342D01*
X125303055Y-132603095D01*
X124185455Y-132603095D01*
X124185455Y-132230561D01*
X124238675Y-132124123D01*
X124291894Y-132070904D01*
X124398332Y-132017685D01*
X124504770Y-132017685D01*
X124611208Y-132070904D01*
X124664427Y-132124123D01*
X124717646Y-132230561D01*
X124717646Y-132603095D01*
X125303055Y-131485495D02*
X124185455Y-131485495D01*
X125303055Y-130846866D01*
X124185455Y-130846866D01*
X124185455Y-130101800D02*
X124185455Y-129888923D01*
X124238675Y-129782485D01*
X124345113Y-129676047D01*
X124557989Y-129622828D01*
X124930522Y-129622828D01*
X125143398Y-129676047D01*
X125249836Y-129782485D01*
X125303055Y-129888923D01*
X125303055Y-130101800D01*
X125249836Y-130208238D01*
X125143398Y-130314676D01*
X124930522Y-130367895D01*
X124557989Y-130367895D01*
X124345113Y-130314676D01*
X124238675Y-130208238D01*
X124185455Y-130101800D01*
X124185455Y-128930980D02*
X124185455Y-128824542D01*
X124238675Y-128718104D01*
X124291894Y-128664885D01*
X124398332Y-128611666D01*
X124611208Y-128558447D01*
X124877303Y-128558447D01*
X125090179Y-128611666D01*
X125196617Y-128664885D01*
X125249836Y-128718104D01*
X125303055Y-128824542D01*
X125303055Y-128930980D01*
X125249836Y-129037419D01*
X125196617Y-129090638D01*
X125090179Y-129143857D01*
X124877303Y-129197076D01*
X124611208Y-129197076D01*
X124398332Y-129143857D01*
X124291894Y-129090638D01*
X124238675Y-129037419D01*
X124185455Y-128930980D01*
X124185455Y-127547285D02*
X124185455Y-128079476D01*
X124717646Y-128132695D01*
X124664427Y-128079476D01*
X124611208Y-127973038D01*
X124611208Y-127706942D01*
X124664427Y-127600504D01*
X124717646Y-127547285D01*
X124824084Y-127494066D01*
X125090179Y-127494066D01*
X125196617Y-127547285D01*
X125249836Y-127600504D01*
X125303055Y-127706942D01*
X125303055Y-127973038D01*
X125249836Y-128079476D01*
X125196617Y-128132695D01*
X124185455Y-126482904D02*
X124185455Y-127015095D01*
X124717646Y-127068314D01*
X124664427Y-127015095D01*
X124611208Y-126908657D01*
X124611208Y-126642561D01*
X124664427Y-126536123D01*
X124717646Y-126482904D01*
X124824084Y-126429685D01*
X125090179Y-126429685D01*
X125196617Y-126482904D01*
X125249836Y-126536123D01*
X125303055Y-126642561D01*
X125303055Y-126908657D01*
X125249836Y-127015095D01*
X125196617Y-127068314D01*
D15*
X134938940Y-123157571D02*
X134938940Y-122442307D01*
X135211421Y-122442307D01*
X135279542Y-122476368D01*
X135313602Y-122510428D01*
X135347662Y-122578548D01*
X135347662Y-122680729D01*
X135313602Y-122748849D01*
X135279542Y-122782909D01*
X135211421Y-122816969D01*
X134938940Y-122816969D01*
X135620143Y-123123511D02*
X135722324Y-123157571D01*
X135892625Y-123157571D01*
X135960745Y-123123511D01*
X135994806Y-123089451D01*
X136028866Y-123021331D01*
X136028866Y-122953210D01*
X135994806Y-122885090D01*
X135960745Y-122851030D01*
X135892625Y-122816969D01*
X135756384Y-122782909D01*
X135688264Y-122748849D01*
X135654204Y-122714789D01*
X135620143Y-122646668D01*
X135620143Y-122578548D01*
X135654204Y-122510428D01*
X135688264Y-122476368D01*
X135756384Y-122442307D01*
X135926685Y-122442307D01*
X136028866Y-122476368D01*
X136710070Y-123157571D02*
X136301347Y-123157571D01*
X136505708Y-123157571D02*
X136505708Y-122442307D01*
X136437588Y-122544488D01*
X136369468Y-122612608D01*
X136301347Y-122646668D01*
X132398940Y-123157571D02*
X132398940Y-122442307D01*
X132671421Y-122442307D01*
X132739542Y-122476368D01*
X132773602Y-122510428D01*
X132807662Y-122578548D01*
X132807662Y-122680729D01*
X132773602Y-122748849D01*
X132739542Y-122782909D01*
X132671421Y-122816969D01*
X132398940Y-122816969D01*
X133080143Y-123123511D02*
X133182324Y-123157571D01*
X133352625Y-123157571D01*
X133420745Y-123123511D01*
X133454806Y-123089451D01*
X133488866Y-123021331D01*
X133488866Y-122953210D01*
X133454806Y-122885090D01*
X133420745Y-122851030D01*
X133352625Y-122816969D01*
X133216384Y-122782909D01*
X133148264Y-122748849D01*
X133114204Y-122714789D01*
X133080143Y-122646668D01*
X133080143Y-122578548D01*
X133114204Y-122510428D01*
X133148264Y-122476368D01*
X133216384Y-122442307D01*
X133386685Y-122442307D01*
X133488866Y-122476368D01*
X133931648Y-122442307D02*
X133999769Y-122442307D01*
X134067889Y-122476368D01*
X134101949Y-122510428D01*
X134136009Y-122578548D01*
X134170070Y-122714789D01*
X134170070Y-122885090D01*
X134136009Y-123021331D01*
X134101949Y-123089451D01*
X134067889Y-123123511D01*
X133999769Y-123157571D01*
X133931648Y-123157571D01*
X133863528Y-123123511D01*
X133829468Y-123089451D01*
X133795407Y-123021331D01*
X133761347Y-122885090D01*
X133761347Y-122714789D01*
X133795407Y-122578548D01*
X133829468Y-122510428D01*
X133863528Y-122476368D01*
X133931648Y-122442307D01*
X140142910Y-122953210D02*
X140483511Y-122953210D01*
X140074789Y-123157571D02*
X140313211Y-122442307D01*
X140551632Y-123157571D01*
X140790053Y-123157571D02*
X140790053Y-122442307D01*
X140960354Y-122442307D01*
X141062535Y-122476368D01*
X141130655Y-122544488D01*
X141164715Y-122612608D01*
X141198775Y-122748849D01*
X141198775Y-122851030D01*
X141164715Y-122987270D01*
X141130655Y-123055391D01*
X141062535Y-123123511D01*
X140960354Y-123157571D01*
X140790053Y-123157571D01*
X141914039Y-123157571D02*
X141675618Y-122816969D01*
X141505317Y-123157571D02*
X141505317Y-122442307D01*
X141777799Y-122442307D01*
X141845919Y-122476368D01*
X141879979Y-122510428D01*
X141914039Y-122578548D01*
X141914039Y-122680729D01*
X141879979Y-122748849D01*
X141845919Y-122782909D01*
X141777799Y-122816969D01*
X141505317Y-122816969D01*
D10*
%TO.C,D1*%
X181411904Y-120418431D02*
X181411904Y-119418431D01*
X181650000Y-119418431D01*
X181792857Y-119466051D01*
X181888095Y-119561289D01*
X181935714Y-119656527D01*
X181983333Y-119847003D01*
X181983333Y-119989860D01*
X181935714Y-120180336D01*
X181888095Y-120275574D01*
X181792857Y-120370812D01*
X181650000Y-120418431D01*
X181411904Y-120418431D01*
X182935714Y-120418431D02*
X182364285Y-120418431D01*
X182650000Y-120418431D02*
X182650000Y-119418431D01*
X182554761Y-119561289D01*
X182459523Y-119656527D01*
X182364285Y-119704146D01*
X185061904Y-117766666D02*
X185538095Y-117766666D01*
X184966666Y-118052380D02*
X185300000Y-117052380D01*
X185633333Y-118052380D01*
%TO.C,R10*%
X188552380Y-127042857D02*
X188076190Y-127376190D01*
X188552380Y-127614285D02*
X187552380Y-127614285D01*
X187552380Y-127233333D01*
X187600000Y-127138095D01*
X187647619Y-127090476D01*
X187742857Y-127042857D01*
X187885714Y-127042857D01*
X187980952Y-127090476D01*
X188028571Y-127138095D01*
X188076190Y-127233333D01*
X188076190Y-127614285D01*
X188552380Y-126090476D02*
X188552380Y-126661904D01*
X188552380Y-126376190D02*
X187552380Y-126376190D01*
X187695238Y-126471428D01*
X187790476Y-126566666D01*
X187838095Y-126661904D01*
X187552380Y-125471428D02*
X187552380Y-125376190D01*
X187600000Y-125280952D01*
X187647619Y-125233333D01*
X187742857Y-125185714D01*
X187933333Y-125138095D01*
X188171428Y-125138095D01*
X188361904Y-125185714D01*
X188457142Y-125233333D01*
X188504761Y-125280952D01*
X188552380Y-125376190D01*
X188552380Y-125471428D01*
X188504761Y-125566666D01*
X188457142Y-125614285D01*
X188361904Y-125661904D01*
X188171428Y-125709523D01*
X187933333Y-125709523D01*
X187742857Y-125661904D01*
X187647619Y-125614285D01*
X187600000Y-125566666D01*
X187552380Y-125471428D01*
%TO.C,D3*%
X144852380Y-119238095D02*
X143852380Y-119238095D01*
X143852380Y-119000000D01*
X143900000Y-118857142D01*
X143995238Y-118761904D01*
X144090476Y-118714285D01*
X144280952Y-118666666D01*
X144423809Y-118666666D01*
X144614285Y-118714285D01*
X144709523Y-118761904D01*
X144804761Y-118857142D01*
X144852380Y-119000000D01*
X144852380Y-119238095D01*
X143852380Y-118333333D02*
X143852380Y-117714285D01*
X144233333Y-118047619D01*
X144233333Y-117904761D01*
X144280952Y-117809523D01*
X144328571Y-117761904D01*
X144423809Y-117714285D01*
X144661904Y-117714285D01*
X144757142Y-117761904D01*
X144804761Y-117809523D01*
X144852380Y-117904761D01*
X144852380Y-118190476D01*
X144804761Y-118285714D01*
X144757142Y-118333333D01*
%TO.C,R13*%
X176757142Y-81752380D02*
X176423809Y-81276190D01*
X176185714Y-81752380D02*
X176185714Y-80752380D01*
X176566666Y-80752380D01*
X176661904Y-80800000D01*
X176709523Y-80847619D01*
X176757142Y-80942857D01*
X176757142Y-81085714D01*
X176709523Y-81180952D01*
X176661904Y-81228571D01*
X176566666Y-81276190D01*
X176185714Y-81276190D01*
X177709523Y-81752380D02*
X177138095Y-81752380D01*
X177423809Y-81752380D02*
X177423809Y-80752380D01*
X177328571Y-80895238D01*
X177233333Y-80990476D01*
X177138095Y-81038095D01*
X178042857Y-80752380D02*
X178661904Y-80752380D01*
X178328571Y-81133333D01*
X178471428Y-81133333D01*
X178566666Y-81180952D01*
X178614285Y-81228571D01*
X178661904Y-81323809D01*
X178661904Y-81561904D01*
X178614285Y-81657142D01*
X178566666Y-81704761D01*
X178471428Y-81752380D01*
X178185714Y-81752380D01*
X178090476Y-81704761D01*
X178042857Y-81657142D01*
%TO.C,D2*%
X154552380Y-119138095D02*
X153552380Y-119138095D01*
X153552380Y-118900000D01*
X153600000Y-118757142D01*
X153695238Y-118661904D01*
X153790476Y-118614285D01*
X153980952Y-118566666D01*
X154123809Y-118566666D01*
X154314285Y-118614285D01*
X154409523Y-118661904D01*
X154504761Y-118757142D01*
X154552380Y-118900000D01*
X154552380Y-119138095D01*
X153647619Y-118185714D02*
X153600000Y-118138095D01*
X153552380Y-118042857D01*
X153552380Y-117804761D01*
X153600000Y-117709523D01*
X153647619Y-117661904D01*
X153742857Y-117614285D01*
X153838095Y-117614285D01*
X153980952Y-117661904D01*
X154552380Y-118233333D01*
X154552380Y-117614285D01*
%TO.C,J3*%
X200652380Y-115933333D02*
X201366666Y-115933333D01*
X201509523Y-115980952D01*
X201604761Y-116076190D01*
X201652380Y-116219047D01*
X201652380Y-116314285D01*
X200652380Y-115552380D02*
X200652380Y-114933333D01*
X201033333Y-115266666D01*
X201033333Y-115123809D01*
X201080952Y-115028571D01*
X201128571Y-114980952D01*
X201223809Y-114933333D01*
X201461904Y-114933333D01*
X201557142Y-114980952D01*
X201604761Y-115028571D01*
X201652380Y-115123809D01*
X201652380Y-115409523D01*
X201604761Y-115504761D01*
X201557142Y-115552380D01*
%TO.C,U6*%
X165388095Y-129352380D02*
X165388095Y-130161904D01*
X165435714Y-130257142D01*
X165483333Y-130304761D01*
X165578571Y-130352380D01*
X165769047Y-130352380D01*
X165864285Y-130304761D01*
X165911904Y-130257142D01*
X165959523Y-130161904D01*
X165959523Y-129352380D01*
X166864285Y-129352380D02*
X166673809Y-129352380D01*
X166578571Y-129400000D01*
X166530952Y-129447619D01*
X166435714Y-129590476D01*
X166388095Y-129780952D01*
X166388095Y-130161904D01*
X166435714Y-130257142D01*
X166483333Y-130304761D01*
X166578571Y-130352380D01*
X166769047Y-130352380D01*
X166864285Y-130304761D01*
X166911904Y-130257142D01*
X166959523Y-130161904D01*
X166959523Y-129923809D01*
X166911904Y-129828571D01*
X166864285Y-129780952D01*
X166769047Y-129733333D01*
X166578571Y-129733333D01*
X166483333Y-129780952D01*
X166435714Y-129828571D01*
X166388095Y-129923809D01*
%TO.C,R5*%
X144752380Y-115766666D02*
X144276190Y-116100000D01*
X144752380Y-116338095D02*
X143752380Y-116338095D01*
X143752380Y-115957142D01*
X143800000Y-115861904D01*
X143847619Y-115814285D01*
X143942857Y-115766666D01*
X144085714Y-115766666D01*
X144180952Y-115814285D01*
X144228571Y-115861904D01*
X144276190Y-115957142D01*
X144276190Y-116338095D01*
X143752380Y-114861904D02*
X143752380Y-115338095D01*
X144228571Y-115385714D01*
X144180952Y-115338095D01*
X144133333Y-115242857D01*
X144133333Y-115004761D01*
X144180952Y-114909523D01*
X144228571Y-114861904D01*
X144323809Y-114814285D01*
X144561904Y-114814285D01*
X144657142Y-114861904D01*
X144704761Y-114909523D01*
X144752380Y-115004761D01*
X144752380Y-115242857D01*
X144704761Y-115338095D01*
X144657142Y-115385714D01*
%TO.C,R3*%
X153133333Y-121452380D02*
X152800000Y-120976190D01*
X152561904Y-121452380D02*
X152561904Y-120452380D01*
X152942857Y-120452380D01*
X153038095Y-120500000D01*
X153085714Y-120547619D01*
X153133333Y-120642857D01*
X153133333Y-120785714D01*
X153085714Y-120880952D01*
X153038095Y-120928571D01*
X152942857Y-120976190D01*
X152561904Y-120976190D01*
X153466666Y-120452380D02*
X154085714Y-120452380D01*
X153752380Y-120833333D01*
X153895238Y-120833333D01*
X153990476Y-120880952D01*
X154038095Y-120928571D01*
X154085714Y-121023809D01*
X154085714Y-121261904D01*
X154038095Y-121357142D01*
X153990476Y-121404761D01*
X153895238Y-121452380D01*
X153609523Y-121452380D01*
X153514285Y-121404761D01*
X153466666Y-121357142D01*
%TO.C,D5*%
X165311904Y-120118431D02*
X165311904Y-119118431D01*
X165550000Y-119118431D01*
X165692857Y-119166051D01*
X165788095Y-119261289D01*
X165835714Y-119356527D01*
X165883333Y-119547003D01*
X165883333Y-119689860D01*
X165835714Y-119880336D01*
X165788095Y-119975574D01*
X165692857Y-120070812D01*
X165550000Y-120118431D01*
X165311904Y-120118431D01*
X166788095Y-119118431D02*
X166311904Y-119118431D01*
X166264285Y-119594622D01*
X166311904Y-119547003D01*
X166407142Y-119499384D01*
X166645238Y-119499384D01*
X166740476Y-119547003D01*
X166788095Y-119594622D01*
X166835714Y-119689860D01*
X166835714Y-119927955D01*
X166788095Y-120023193D01*
X166740476Y-120070812D01*
X166645238Y-120118431D01*
X166407142Y-120118431D01*
X166311904Y-120070812D01*
X166264285Y-120023193D01*
X169361904Y-117566666D02*
X169838095Y-117566666D01*
X169266666Y-117852380D02*
X169600000Y-116852380D01*
X169933333Y-117852380D01*
%TO.C,J5*%
X185716666Y-135418431D02*
X185716666Y-136132717D01*
X185669047Y-136275574D01*
X185573809Y-136370812D01*
X185430952Y-136418431D01*
X185335714Y-136418431D01*
X186669047Y-135418431D02*
X186192857Y-135418431D01*
X186145238Y-135894622D01*
X186192857Y-135847003D01*
X186288095Y-135799384D01*
X186526190Y-135799384D01*
X186621428Y-135847003D01*
X186669047Y-135894622D01*
X186716666Y-135989860D01*
X186716666Y-136227955D01*
X186669047Y-136323193D01*
X186621428Y-136370812D01*
X186526190Y-136418431D01*
X186288095Y-136418431D01*
X186192857Y-136370812D01*
X186145238Y-136323193D01*
%TO.C,R6*%
X166883333Y-133402380D02*
X166550000Y-132926190D01*
X166311904Y-133402380D02*
X166311904Y-132402380D01*
X166692857Y-132402380D01*
X166788095Y-132450000D01*
X166835714Y-132497619D01*
X166883333Y-132592857D01*
X166883333Y-132735714D01*
X166835714Y-132830952D01*
X166788095Y-132878571D01*
X166692857Y-132926190D01*
X166311904Y-132926190D01*
X167740476Y-132402380D02*
X167550000Y-132402380D01*
X167454761Y-132450000D01*
X167407142Y-132497619D01*
X167311904Y-132640476D01*
X167264285Y-132830952D01*
X167264285Y-133211904D01*
X167311904Y-133307142D01*
X167359523Y-133354761D01*
X167454761Y-133402380D01*
X167645238Y-133402380D01*
X167740476Y-133354761D01*
X167788095Y-133307142D01*
X167835714Y-133211904D01*
X167835714Y-132973809D01*
X167788095Y-132878571D01*
X167740476Y-132830952D01*
X167645238Y-132783333D01*
X167454761Y-132783333D01*
X167359523Y-132830952D01*
X167311904Y-132878571D01*
X167264285Y-132973809D01*
%TO.C,R11*%
X188552380Y-118942857D02*
X188076190Y-119276190D01*
X188552380Y-119514285D02*
X187552380Y-119514285D01*
X187552380Y-119133333D01*
X187600000Y-119038095D01*
X187647619Y-118990476D01*
X187742857Y-118942857D01*
X187885714Y-118942857D01*
X187980952Y-118990476D01*
X188028571Y-119038095D01*
X188076190Y-119133333D01*
X188076190Y-119514285D01*
X188552380Y-117990476D02*
X188552380Y-118561904D01*
X188552380Y-118276190D02*
X187552380Y-118276190D01*
X187695238Y-118371428D01*
X187790476Y-118466666D01*
X187838095Y-118561904D01*
X188552380Y-117038095D02*
X188552380Y-117609523D01*
X188552380Y-117323809D02*
X187552380Y-117323809D01*
X187695238Y-117419047D01*
X187790476Y-117514285D01*
X187838095Y-117609523D01*
%TO.C,R9*%
X187833333Y-79252380D02*
X187500000Y-78776190D01*
X187261904Y-79252380D02*
X187261904Y-78252380D01*
X187642857Y-78252380D01*
X187738095Y-78300000D01*
X187785714Y-78347619D01*
X187833333Y-78442857D01*
X187833333Y-78585714D01*
X187785714Y-78680952D01*
X187738095Y-78728571D01*
X187642857Y-78776190D01*
X187261904Y-78776190D01*
X188309523Y-79252380D02*
X188500000Y-79252380D01*
X188595238Y-79204761D01*
X188642857Y-79157142D01*
X188738095Y-79014285D01*
X188785714Y-78823809D01*
X188785714Y-78442857D01*
X188738095Y-78347619D01*
X188690476Y-78300000D01*
X188595238Y-78252380D01*
X188404761Y-78252380D01*
X188309523Y-78300000D01*
X188261904Y-78347619D01*
X188214285Y-78442857D01*
X188214285Y-78680952D01*
X188261904Y-78776190D01*
X188309523Y-78823809D01*
X188404761Y-78871428D01*
X188595238Y-78871428D01*
X188690476Y-78823809D01*
X188738095Y-78776190D01*
X188785714Y-78680952D01*
%TO.C,J11*%
X146752380Y-60109523D02*
X147466666Y-60109523D01*
X147609523Y-60157142D01*
X147704761Y-60252380D01*
X147752380Y-60395238D01*
X147752380Y-60490476D01*
X147752380Y-59109523D02*
X147752380Y-59680952D01*
X147752380Y-59395238D02*
X146752380Y-59395238D01*
X146895238Y-59490476D01*
X146990476Y-59585714D01*
X147038095Y-59680952D01*
X147752380Y-58157142D02*
X147752380Y-58728571D01*
X147752380Y-58442857D02*
X146752380Y-58442857D01*
X146895238Y-58538095D01*
X146990476Y-58633333D01*
X147038095Y-58728571D01*
%TO.C,U1*%
X121738095Y-68952380D02*
X121738095Y-69761904D01*
X121785714Y-69857142D01*
X121833333Y-69904761D01*
X121928571Y-69952380D01*
X122119047Y-69952380D01*
X122214285Y-69904761D01*
X122261904Y-69857142D01*
X122309523Y-69761904D01*
X122309523Y-68952380D01*
X123309523Y-69952380D02*
X122738095Y-69952380D01*
X123023809Y-69952380D02*
X123023809Y-68952380D01*
X122928571Y-69095238D01*
X122833333Y-69190476D01*
X122738095Y-69238095D01*
D14*
X119225089Y-75494949D02*
X119139939Y-75452373D01*
X119012213Y-75452373D01*
X118884487Y-75494949D01*
X118799337Y-75580099D01*
X118756761Y-75665249D01*
X118714186Y-75835550D01*
X118714186Y-75963276D01*
X118756761Y-76133577D01*
X118799337Y-76218728D01*
X118884487Y-76303878D01*
X119012213Y-76346453D01*
X119097363Y-76346453D01*
X119225089Y-76303878D01*
X119267664Y-76261303D01*
X119267664Y-75963276D01*
X119097363Y-75963276D01*
X119650841Y-76346453D02*
X119650841Y-75452373D01*
X120161744Y-76346453D01*
X120161744Y-75452373D01*
X120587497Y-76346453D02*
X120587497Y-75452373D01*
X120800373Y-75452373D01*
X120928099Y-75494949D01*
X121013249Y-75580099D01*
X121055824Y-75665249D01*
X121098400Y-75835550D01*
X121098400Y-75963276D01*
X121055824Y-76133577D01*
X121013249Y-76218728D01*
X120928099Y-76303878D01*
X120800373Y-76346453D01*
X120587497Y-76346453D01*
X123836761Y-76303878D02*
X123964487Y-76346453D01*
X124177363Y-76346453D01*
X124262514Y-76303878D01*
X124305089Y-76261303D01*
X124347664Y-76176152D01*
X124347664Y-76091002D01*
X124305089Y-76005851D01*
X124262514Y-75963276D01*
X124177363Y-75920701D01*
X124007062Y-75878126D01*
X123921912Y-75835550D01*
X123879337Y-75792975D01*
X123836761Y-75707825D01*
X123836761Y-75622674D01*
X123879337Y-75537524D01*
X123921912Y-75494949D01*
X124007062Y-75452373D01*
X124219939Y-75452373D01*
X124347664Y-75494949D01*
X124730841Y-76346453D02*
X124730841Y-75452373D01*
X124943718Y-75452373D01*
X125071443Y-75494949D01*
X125156594Y-75580099D01*
X125199169Y-75665249D01*
X125241744Y-75835550D01*
X125241744Y-75963276D01*
X125199169Y-76133577D01*
X125156594Y-76218728D01*
X125071443Y-76303878D01*
X124943718Y-76346453D01*
X124730841Y-76346453D01*
X125795222Y-75452373D02*
X125965523Y-75452373D01*
X126050674Y-75494949D01*
X126135824Y-75580099D01*
X126178400Y-75750400D01*
X126178400Y-76048427D01*
X126135824Y-76218728D01*
X126050674Y-76303878D01*
X125965523Y-76346453D01*
X125795222Y-76346453D01*
X125710072Y-76303878D01*
X125624921Y-76218728D01*
X125582346Y-76048427D01*
X125582346Y-75750400D01*
X125624921Y-75580099D01*
X125710072Y-75494949D01*
X125795222Y-75452373D01*
X126633664Y-79605878D02*
X126761390Y-79648453D01*
X126974266Y-79648453D01*
X127059417Y-79605878D01*
X127101992Y-79563303D01*
X127144567Y-79478152D01*
X127144567Y-79393002D01*
X127101992Y-79307851D01*
X127059417Y-79265276D01*
X126974266Y-79222701D01*
X126803965Y-79180126D01*
X126718815Y-79137550D01*
X126676240Y-79094975D01*
X126633664Y-79009825D01*
X126633664Y-78924674D01*
X126676240Y-78839524D01*
X126718815Y-78796949D01*
X126803965Y-78754373D01*
X127016841Y-78754373D01*
X127144567Y-78796949D01*
X127527744Y-79648453D02*
X127527744Y-78754373D01*
X127740621Y-78754373D01*
X127868346Y-78796949D01*
X127953497Y-78882099D01*
X127996072Y-78967249D01*
X128038647Y-79137550D01*
X128038647Y-79265276D01*
X127996072Y-79435577D01*
X127953497Y-79520728D01*
X127868346Y-79605878D01*
X127740621Y-79648453D01*
X127527744Y-79648453D01*
X128421824Y-79648453D02*
X128421824Y-78754373D01*
D11*
X119926637Y-62664320D02*
X120086294Y-62717539D01*
X120139513Y-62770758D01*
X120192732Y-62877196D01*
X120192732Y-63036853D01*
X120139513Y-63143291D01*
X120086294Y-63196510D01*
X119979856Y-63249729D01*
X119554104Y-63249729D01*
X119554104Y-62132129D01*
X119926637Y-62132129D01*
X120033075Y-62185349D01*
X120086294Y-62238568D01*
X120139513Y-62345006D01*
X120139513Y-62451444D01*
X120086294Y-62557882D01*
X120033075Y-62611101D01*
X119926637Y-62664320D01*
X119554104Y-62664320D01*
X120671704Y-63249729D02*
X120671704Y-62132129D01*
X121044237Y-62930415D01*
X121416770Y-62132129D01*
X121416770Y-63249729D01*
X121948961Y-62664320D02*
X122321494Y-62664320D01*
X122481151Y-63249729D02*
X121948961Y-63249729D01*
X121948961Y-62132129D01*
X122481151Y-62132129D01*
X122906904Y-62238568D02*
X122960123Y-62185349D01*
X123066561Y-62132129D01*
X123332656Y-62132129D01*
X123439094Y-62185349D01*
X123492313Y-62238568D01*
X123545532Y-62345006D01*
X123545532Y-62451444D01*
X123492313Y-62611101D01*
X122853685Y-63249729D01*
X123545532Y-63249729D01*
X124184161Y-62611101D02*
X124077723Y-62557882D01*
X124024504Y-62504663D01*
X123971285Y-62398225D01*
X123971285Y-62345006D01*
X124024504Y-62238568D01*
X124077723Y-62185349D01*
X124184161Y-62132129D01*
X124397037Y-62132129D01*
X124503475Y-62185349D01*
X124556694Y-62238568D01*
X124609913Y-62345006D01*
X124609913Y-62398225D01*
X124556694Y-62504663D01*
X124503475Y-62557882D01*
X124397037Y-62611101D01*
X124184161Y-62611101D01*
X124077723Y-62664320D01*
X124024504Y-62717539D01*
X123971285Y-62823977D01*
X123971285Y-63036853D01*
X124024504Y-63143291D01*
X124077723Y-63196510D01*
X124184161Y-63249729D01*
X124397037Y-63249729D01*
X124503475Y-63196510D01*
X124556694Y-63143291D01*
X124609913Y-63036853D01*
X124609913Y-62823977D01*
X124556694Y-62717539D01*
X124503475Y-62664320D01*
X124397037Y-62611101D01*
X125301761Y-62132129D02*
X125408199Y-62132129D01*
X125514637Y-62185349D01*
X125567856Y-62238568D01*
X125621075Y-62345006D01*
X125674294Y-62557882D01*
X125674294Y-62823977D01*
X125621075Y-63036853D01*
X125567856Y-63143291D01*
X125514637Y-63196510D01*
X125408199Y-63249729D01*
X125301761Y-63249729D01*
X125195323Y-63196510D01*
X125142104Y-63143291D01*
X125088885Y-63036853D01*
X125035666Y-62823977D01*
X125035666Y-62557882D01*
X125088885Y-62345006D01*
X125142104Y-62238568D01*
X125195323Y-62185349D01*
X125301761Y-62132129D01*
D14*
X116175638Y-78754373D02*
X116729116Y-78754373D01*
X116431089Y-79094975D01*
X116558815Y-79094975D01*
X116643965Y-79137550D01*
X116686541Y-79180126D01*
X116729116Y-79265276D01*
X116729116Y-79478152D01*
X116686541Y-79563303D01*
X116643965Y-79605878D01*
X116558815Y-79648453D01*
X116303363Y-79648453D01*
X116218213Y-79605878D01*
X116175638Y-79563303D01*
X116984567Y-78754373D02*
X117282594Y-79648453D01*
X117580621Y-78754373D01*
X118006373Y-79648453D02*
X117921222Y-79605878D01*
X117878647Y-79563303D01*
X117836072Y-79478152D01*
X117836072Y-79222701D01*
X117878647Y-79137550D01*
X117921222Y-79094975D01*
X118006373Y-79052400D01*
X118134099Y-79052400D01*
X118219249Y-79094975D01*
X118261824Y-79137550D01*
X118304400Y-79222701D01*
X118304400Y-79478152D01*
X118261824Y-79563303D01*
X118219249Y-79605878D01*
X118134099Y-79648453D01*
X118006373Y-79648453D01*
X129898895Y-76261303D02*
X129856320Y-76303878D01*
X129728594Y-76346453D01*
X129643443Y-76346453D01*
X129515718Y-76303878D01*
X129430567Y-76218728D01*
X129387992Y-76133577D01*
X129345417Y-75963276D01*
X129345417Y-75835550D01*
X129387992Y-75665249D01*
X129430567Y-75580099D01*
X129515718Y-75494949D01*
X129643443Y-75452373D01*
X129728594Y-75452373D01*
X129856320Y-75494949D01*
X129898895Y-75537524D01*
X130239497Y-76303878D02*
X130367222Y-76346453D01*
X130580099Y-76346453D01*
X130665249Y-76303878D01*
X130707824Y-76261303D01*
X130750400Y-76176152D01*
X130750400Y-76091002D01*
X130707824Y-76005851D01*
X130665249Y-75963276D01*
X130580099Y-75920701D01*
X130409798Y-75878126D01*
X130324647Y-75835550D01*
X130282072Y-75792975D01*
X130239497Y-75707825D01*
X130239497Y-75622674D01*
X130282072Y-75537524D01*
X130324647Y-75494949D01*
X130409798Y-75452373D01*
X130622674Y-75452373D01*
X130750400Y-75494949D01*
D19*
X120069821Y-64781443D02*
X120069821Y-63932067D01*
X120393392Y-63932067D01*
X120474285Y-63972514D01*
X120514732Y-64012960D01*
X120555178Y-64093853D01*
X120555178Y-64215192D01*
X120514732Y-64296085D01*
X120474285Y-64336532D01*
X120393392Y-64376978D01*
X120069821Y-64376978D01*
X120919197Y-64781443D02*
X120919197Y-64215192D01*
X120919197Y-64376978D02*
X120959643Y-64296085D01*
X121000089Y-64255639D01*
X121080982Y-64215192D01*
X121161875Y-64215192D01*
X121768573Y-64740997D02*
X121687680Y-64781443D01*
X121525894Y-64781443D01*
X121445001Y-64740997D01*
X121404554Y-64660104D01*
X121404554Y-64336532D01*
X121445001Y-64255639D01*
X121525894Y-64215192D01*
X121687680Y-64215192D01*
X121768573Y-64255639D01*
X121809019Y-64336532D01*
X121809019Y-64417425D01*
X121404554Y-64498318D01*
X122132591Y-64740997D02*
X122213484Y-64781443D01*
X122375270Y-64781443D01*
X122456163Y-64740997D01*
X122496609Y-64660104D01*
X122496609Y-64619657D01*
X122456163Y-64538764D01*
X122375270Y-64498318D01*
X122253930Y-64498318D01*
X122173037Y-64457871D01*
X122132591Y-64376978D01*
X122132591Y-64336532D01*
X122173037Y-64255639D01*
X122253930Y-64215192D01*
X122375270Y-64215192D01*
X122456163Y-64255639D01*
X122820181Y-64740997D02*
X122901074Y-64781443D01*
X123062860Y-64781443D01*
X123143753Y-64740997D01*
X123184199Y-64660104D01*
X123184199Y-64619657D01*
X123143753Y-64538764D01*
X123062860Y-64498318D01*
X122941520Y-64498318D01*
X122860627Y-64457871D01*
X122820181Y-64376978D01*
X122820181Y-64336532D01*
X122860627Y-64255639D01*
X122941520Y-64215192D01*
X123062860Y-64215192D01*
X123143753Y-64255639D01*
X123912236Y-64215192D02*
X123912236Y-64781443D01*
X123548217Y-64215192D02*
X123548217Y-64660104D01*
X123588664Y-64740997D01*
X123669557Y-64781443D01*
X123790896Y-64781443D01*
X123871789Y-64740997D01*
X123912236Y-64700550D01*
X124316701Y-64781443D02*
X124316701Y-64215192D01*
X124316701Y-64376978D02*
X124357147Y-64296085D01*
X124397593Y-64255639D01*
X124478486Y-64215192D01*
X124559379Y-64215192D01*
X125166077Y-64740997D02*
X125085184Y-64781443D01*
X124923398Y-64781443D01*
X124842505Y-64740997D01*
X124802058Y-64660104D01*
X124802058Y-64336532D01*
X124842505Y-64255639D01*
X124923398Y-64215192D01*
X125085184Y-64215192D01*
X125166077Y-64255639D01*
X125206523Y-64336532D01*
X125206523Y-64417425D01*
X124802058Y-64498318D01*
X117784595Y-65299562D02*
X118269952Y-65299562D01*
X118027273Y-66148938D02*
X118027273Y-65299562D01*
X118876649Y-66108492D02*
X118795756Y-66148938D01*
X118633971Y-66148938D01*
X118553078Y-66108492D01*
X118512631Y-66027599D01*
X118512631Y-65704027D01*
X118553078Y-65623134D01*
X118633971Y-65582687D01*
X118795756Y-65582687D01*
X118876649Y-65623134D01*
X118917096Y-65704027D01*
X118917096Y-65784920D01*
X118512631Y-65865813D01*
X119281114Y-66148938D02*
X119281114Y-65582687D01*
X119281114Y-65663580D02*
X119321561Y-65623134D01*
X119402454Y-65582687D01*
X119523793Y-65582687D01*
X119604686Y-65623134D01*
X119645132Y-65704027D01*
X119645132Y-66148938D01*
X119645132Y-65704027D02*
X119685579Y-65623134D01*
X119766472Y-65582687D01*
X119887811Y-65582687D01*
X119968704Y-65623134D01*
X120009151Y-65704027D01*
X120009151Y-66148938D01*
X120413616Y-65582687D02*
X120413616Y-66432063D01*
X120413616Y-65623134D02*
X120494508Y-65582687D01*
X120656294Y-65582687D01*
X120737187Y-65623134D01*
X120777634Y-65663580D01*
X120818080Y-65744473D01*
X120818080Y-65987152D01*
X120777634Y-66068045D01*
X120737187Y-66108492D01*
X120656294Y-66148938D01*
X120494508Y-66148938D01*
X120413616Y-66108492D01*
X121182099Y-65825366D02*
X121829242Y-65825366D01*
X121505670Y-66148938D02*
X121505670Y-65501794D01*
X122233707Y-66148938D02*
X122233707Y-65299562D01*
X122233707Y-65704027D02*
X122719065Y-65704027D01*
X122719065Y-66148938D02*
X122719065Y-65299562D01*
X123487548Y-65582687D02*
X123487548Y-66148938D01*
X123123529Y-65582687D02*
X123123529Y-66027599D01*
X123163976Y-66108492D01*
X123244869Y-66148938D01*
X123366208Y-66148938D01*
X123447101Y-66108492D01*
X123487548Y-66068045D01*
X123892012Y-66148938D02*
X123892012Y-65582687D01*
X123892012Y-65663580D02*
X123932459Y-65623134D01*
X124013352Y-65582687D01*
X124134691Y-65582687D01*
X124215584Y-65623134D01*
X124256031Y-65704027D01*
X124256031Y-66148938D01*
X124256031Y-65704027D02*
X124296477Y-65623134D01*
X124377370Y-65582687D01*
X124498710Y-65582687D01*
X124579603Y-65623134D01*
X124620049Y-65704027D01*
X124620049Y-66148938D01*
X125024514Y-66148938D02*
X125024514Y-65582687D01*
X125024514Y-65299562D02*
X124984067Y-65340009D01*
X125024514Y-65380455D01*
X125064960Y-65340009D01*
X125024514Y-65299562D01*
X125024514Y-65380455D01*
X125792997Y-66148938D02*
X125792997Y-65299562D01*
X125792997Y-66108492D02*
X125712104Y-66148938D01*
X125550318Y-66148938D01*
X125469425Y-66108492D01*
X125428979Y-66068045D01*
X125388532Y-65987152D01*
X125388532Y-65744473D01*
X125428979Y-65663580D01*
X125469425Y-65623134D01*
X125550318Y-65582687D01*
X125712104Y-65582687D01*
X125792997Y-65623134D01*
X126197462Y-66148938D02*
X126197462Y-65582687D01*
X126197462Y-65299562D02*
X126157015Y-65340009D01*
X126197462Y-65380455D01*
X126237908Y-65340009D01*
X126197462Y-65299562D01*
X126197462Y-65380455D01*
X126480587Y-65582687D02*
X126804159Y-65582687D01*
X126601926Y-65299562D02*
X126601926Y-66027599D01*
X126642373Y-66108492D01*
X126723266Y-66148938D01*
X126804159Y-66148938D01*
X127006391Y-65582687D02*
X127208624Y-66148938D01*
X127410856Y-65582687D02*
X127208624Y-66148938D01*
X127127731Y-66351170D01*
X127087284Y-66391617D01*
X127006391Y-66432063D01*
D14*
X121212337Y-79605878D02*
X121340062Y-79648453D01*
X121552939Y-79648453D01*
X121638089Y-79605878D01*
X121680664Y-79563303D01*
X121723240Y-79478152D01*
X121723240Y-79393002D01*
X121680664Y-79307851D01*
X121638089Y-79265276D01*
X121552939Y-79222701D01*
X121382638Y-79180126D01*
X121297487Y-79137550D01*
X121254912Y-79094975D01*
X121212337Y-79009825D01*
X121212337Y-78924674D01*
X121254912Y-78839524D01*
X121297487Y-78796949D01*
X121382638Y-78754373D01*
X121595514Y-78754373D01*
X121723240Y-78796949D01*
X122617320Y-79563303D02*
X122574744Y-79605878D01*
X122447019Y-79648453D01*
X122361868Y-79648453D01*
X122234142Y-79605878D01*
X122148992Y-79520728D01*
X122106417Y-79435577D01*
X122063841Y-79265276D01*
X122063841Y-79137550D01*
X122106417Y-78967249D01*
X122148992Y-78882099D01*
X122234142Y-78796949D01*
X122361868Y-78754373D01*
X122447019Y-78754373D01*
X122574744Y-78796949D01*
X122617320Y-78839524D01*
X123000497Y-79648453D02*
X123000497Y-78754373D01*
X123511400Y-79648453D02*
X123128222Y-79137550D01*
X123511400Y-78754373D02*
X123000497Y-79265276D01*
X111327140Y-78357424D02*
X111625167Y-79251504D01*
X111923193Y-78357424D01*
X112221220Y-79251504D02*
X112221220Y-78357424D01*
X112646972Y-79251504D02*
X112646972Y-78357424D01*
X113157875Y-79251504D01*
X113157875Y-78357424D01*
D10*
%TO.C,U8*%
X147052380Y-74761904D02*
X147861904Y-74761904D01*
X147957142Y-74714285D01*
X148004761Y-74666666D01*
X148052380Y-74571428D01*
X148052380Y-74380952D01*
X148004761Y-74285714D01*
X147957142Y-74238095D01*
X147861904Y-74190476D01*
X147052380Y-74190476D01*
X147480952Y-73571428D02*
X147433333Y-73666666D01*
X147385714Y-73714285D01*
X147290476Y-73761904D01*
X147242857Y-73761904D01*
X147147619Y-73714285D01*
X147100000Y-73666666D01*
X147052380Y-73571428D01*
X147052380Y-73380952D01*
X147100000Y-73285714D01*
X147147619Y-73238095D01*
X147242857Y-73190476D01*
X147290476Y-73190476D01*
X147385714Y-73238095D01*
X147433333Y-73285714D01*
X147480952Y-73380952D01*
X147480952Y-73571428D01*
X147528571Y-73666666D01*
X147576190Y-73714285D01*
X147671428Y-73761904D01*
X147861904Y-73761904D01*
X147957142Y-73714285D01*
X148004761Y-73666666D01*
X148052380Y-73571428D01*
X148052380Y-73380952D01*
X148004761Y-73285714D01*
X147957142Y-73238095D01*
X147861904Y-73190476D01*
X147671428Y-73190476D01*
X147576190Y-73238095D01*
X147528571Y-73285714D01*
X147480952Y-73380952D01*
%TO.C,U4*%
X173069880Y-100981904D02*
X173879404Y-100981904D01*
X173974642Y-100934285D01*
X174022261Y-100886666D01*
X174069880Y-100791428D01*
X174069880Y-100600952D01*
X174022261Y-100505714D01*
X173974642Y-100458095D01*
X173879404Y-100410476D01*
X173069880Y-100410476D01*
X173403214Y-99505714D02*
X174069880Y-99505714D01*
X173022261Y-99743809D02*
X173736547Y-99981904D01*
X173736547Y-99362857D01*
X162578092Y-87976277D02*
X162605029Y-88057089D01*
X162685841Y-88137902D01*
X162793591Y-88191776D01*
X162901341Y-88191776D01*
X162982153Y-88164839D01*
X163116840Y-88084027D01*
X163197652Y-88003215D01*
X163278464Y-87868528D01*
X163305402Y-87787715D01*
X163305402Y-87679966D01*
X163251527Y-87572216D01*
X163197652Y-87518341D01*
X163089902Y-87464467D01*
X163036028Y-87464467D01*
X162847466Y-87653028D01*
X162955215Y-87760778D01*
X162847466Y-87168155D02*
X162281780Y-87733841D01*
X162066281Y-87518341D01*
X162039344Y-87437529D01*
X162039344Y-87383654D01*
X162066281Y-87302842D01*
X162147093Y-87222030D01*
X162227906Y-87195093D01*
X162281780Y-87195093D01*
X162362593Y-87222030D01*
X162578092Y-87437529D01*
X161985469Y-86306158D02*
X162308718Y-86629407D01*
X162147093Y-86467783D02*
X161581408Y-87033468D01*
X161716095Y-87006531D01*
X161823845Y-87006531D01*
X161904657Y-87033468D01*
X161446721Y-85767410D02*
X161769970Y-86090659D01*
X161608345Y-85929035D02*
X161042660Y-86494720D01*
X161177347Y-86467783D01*
X161285097Y-86467783D01*
X161365909Y-86494720D01*
X165118092Y-88122277D02*
X165145029Y-88203089D01*
X165225841Y-88283902D01*
X165333591Y-88337776D01*
X165441341Y-88337776D01*
X165522153Y-88310839D01*
X165656840Y-88230027D01*
X165737652Y-88149215D01*
X165818464Y-88014528D01*
X165845402Y-87933715D01*
X165845402Y-87825966D01*
X165791527Y-87718216D01*
X165737652Y-87664341D01*
X165629902Y-87610467D01*
X165576028Y-87610467D01*
X165387466Y-87799028D01*
X165495215Y-87906778D01*
X165387466Y-87314155D02*
X164821780Y-87879841D01*
X164606281Y-87664341D01*
X164579344Y-87583529D01*
X164579344Y-87529654D01*
X164606281Y-87448842D01*
X164687093Y-87368030D01*
X164767906Y-87341093D01*
X164821780Y-87341093D01*
X164902593Y-87368030D01*
X165118092Y-87583529D01*
X164525469Y-86452158D02*
X164848718Y-86775407D01*
X164687093Y-86613783D02*
X164121408Y-87179468D01*
X164256095Y-87152531D01*
X164363845Y-87152531D01*
X164444657Y-87179468D01*
X163609597Y-86667658D02*
X163555723Y-86613783D01*
X163528785Y-86532971D01*
X163528785Y-86479096D01*
X163555723Y-86398284D01*
X163636535Y-86263597D01*
X163771222Y-86128910D01*
X163905909Y-86048097D01*
X163986721Y-86021160D01*
X164040596Y-86021160D01*
X164121408Y-86048097D01*
X164175283Y-86101972D01*
X164202220Y-86182784D01*
X164202220Y-86236659D01*
X164175283Y-86317471D01*
X164094471Y-86452158D01*
X163959784Y-86586845D01*
X163825097Y-86667658D01*
X163744284Y-86694595D01*
X163690410Y-86694595D01*
X163609597Y-86667658D01*
X190248718Y-88006903D02*
X190275655Y-88087715D01*
X190356467Y-88168528D01*
X190464217Y-88222402D01*
X190571967Y-88222402D01*
X190652779Y-88195465D01*
X190787466Y-88114653D01*
X190868278Y-88033841D01*
X190949090Y-87899154D01*
X190976028Y-87818341D01*
X190976028Y-87710592D01*
X190922153Y-87602842D01*
X190868278Y-87548967D01*
X190760528Y-87495093D01*
X190706654Y-87495093D01*
X190518092Y-87683654D01*
X190625841Y-87791404D01*
X190518092Y-87198781D02*
X189952406Y-87764467D01*
X189736907Y-87548967D01*
X189709970Y-87468155D01*
X189709970Y-87414280D01*
X189736907Y-87333468D01*
X189817719Y-87252656D01*
X189898532Y-87225719D01*
X189952406Y-87225719D01*
X190033219Y-87252656D01*
X190248718Y-87468155D01*
X189467533Y-87171844D02*
X189413658Y-87171844D01*
X189332846Y-87144906D01*
X189198159Y-87010219D01*
X189171222Y-86929407D01*
X189171222Y-86875532D01*
X189198159Y-86794720D01*
X189252034Y-86740845D01*
X189359784Y-86686971D01*
X190006281Y-86686971D01*
X189656095Y-86336784D01*
X182628718Y-88106903D02*
X182655655Y-88187715D01*
X182736467Y-88268528D01*
X182844217Y-88322402D01*
X182951967Y-88322402D01*
X183032779Y-88295465D01*
X183167466Y-88214653D01*
X183248278Y-88133841D01*
X183329090Y-87999154D01*
X183356028Y-87918341D01*
X183356028Y-87810592D01*
X183302153Y-87702842D01*
X183248278Y-87648967D01*
X183140528Y-87595093D01*
X183086654Y-87595093D01*
X182898092Y-87783654D01*
X183005841Y-87891404D01*
X182898092Y-87298781D02*
X182332406Y-87864467D01*
X182116907Y-87648967D01*
X182089970Y-87568155D01*
X182089970Y-87514280D01*
X182116907Y-87433468D01*
X182197719Y-87352656D01*
X182278532Y-87325719D01*
X182332406Y-87325719D01*
X182413219Y-87352656D01*
X182628718Y-87568155D01*
X181497347Y-87029407D02*
X181766721Y-87298781D01*
X182063032Y-87056345D01*
X182009158Y-87056345D01*
X181928345Y-87029407D01*
X181793658Y-86894720D01*
X181766721Y-86813908D01*
X181766721Y-86760033D01*
X181793658Y-86679221D01*
X181928345Y-86544534D01*
X182009158Y-86517597D01*
X182063032Y-86517597D01*
X182143845Y-86544534D01*
X182278532Y-86679221D01*
X182305469Y-86760033D01*
X182305469Y-86813908D01*
X157498092Y-88122277D02*
X157525029Y-88203089D01*
X157605841Y-88283902D01*
X157713591Y-88337776D01*
X157821341Y-88337776D01*
X157902153Y-88310839D01*
X158036840Y-88230027D01*
X158117652Y-88149215D01*
X158198464Y-88014528D01*
X158225402Y-87933715D01*
X158225402Y-87825966D01*
X158171527Y-87718216D01*
X158117652Y-87664341D01*
X158009902Y-87610467D01*
X157956028Y-87610467D01*
X157767466Y-87799028D01*
X157875215Y-87906778D01*
X157767466Y-87314155D02*
X157201780Y-87879841D01*
X156986281Y-87664341D01*
X156959344Y-87583529D01*
X156959344Y-87529654D01*
X156986281Y-87448842D01*
X157067093Y-87368030D01*
X157147906Y-87341093D01*
X157201780Y-87341093D01*
X157282593Y-87368030D01*
X157498092Y-87583529D01*
X156905469Y-86452158D02*
X157228718Y-86775407D01*
X157067093Y-86613783D02*
X156501408Y-87179468D01*
X156636095Y-87152531D01*
X156743845Y-87152531D01*
X156824657Y-87179468D01*
X156151222Y-86829282D02*
X155801036Y-86479096D01*
X156205097Y-86452158D01*
X156124284Y-86371346D01*
X156097347Y-86290534D01*
X156097347Y-86236659D01*
X156124284Y-86155847D01*
X156258971Y-86021160D01*
X156339784Y-85994223D01*
X156393658Y-85994223D01*
X156474471Y-86021160D01*
X156636095Y-86182784D01*
X156663032Y-86263597D01*
X156663032Y-86317471D01*
X160038092Y-87976277D02*
X160065029Y-88057089D01*
X160145841Y-88137902D01*
X160253591Y-88191776D01*
X160361341Y-88191776D01*
X160442153Y-88164839D01*
X160576840Y-88084027D01*
X160657652Y-88003215D01*
X160738464Y-87868528D01*
X160765402Y-87787715D01*
X160765402Y-87679966D01*
X160711527Y-87572216D01*
X160657652Y-87518341D01*
X160549902Y-87464467D01*
X160496028Y-87464467D01*
X160307466Y-87653028D01*
X160415215Y-87760778D01*
X160307466Y-87168155D02*
X159741780Y-87733841D01*
X159526281Y-87518341D01*
X159499344Y-87437529D01*
X159499344Y-87383654D01*
X159526281Y-87302842D01*
X159607093Y-87222030D01*
X159687906Y-87195093D01*
X159741780Y-87195093D01*
X159822593Y-87222030D01*
X160038092Y-87437529D01*
X159445469Y-86306158D02*
X159768718Y-86629407D01*
X159607093Y-86467783D02*
X159041408Y-87033468D01*
X159176095Y-87006531D01*
X159283845Y-87006531D01*
X159364657Y-87033468D01*
X158718159Y-86602470D02*
X158664284Y-86602470D01*
X158583472Y-86575532D01*
X158448785Y-86440845D01*
X158421848Y-86360033D01*
X158421848Y-86306158D01*
X158448785Y-86225346D01*
X158502660Y-86171471D01*
X158610410Y-86117597D01*
X159256907Y-86117597D01*
X158906721Y-85767410D01*
X197868718Y-88106903D02*
X197895655Y-88187715D01*
X197976467Y-88268528D01*
X198084217Y-88322402D01*
X198191967Y-88322402D01*
X198272779Y-88295465D01*
X198407466Y-88214653D01*
X198488278Y-88133841D01*
X198569090Y-87999154D01*
X198596028Y-87918341D01*
X198596028Y-87810592D01*
X198542153Y-87702842D01*
X198488278Y-87648967D01*
X198380528Y-87595093D01*
X198326654Y-87595093D01*
X198138092Y-87783654D01*
X198245841Y-87891404D01*
X198138092Y-87298781D02*
X197572406Y-87864467D01*
X197356907Y-87648967D01*
X197329970Y-87568155D01*
X197329970Y-87514280D01*
X197356907Y-87433468D01*
X197437719Y-87352656D01*
X197518532Y-87325719D01*
X197572406Y-87325719D01*
X197653219Y-87352656D01*
X197868718Y-87568155D01*
X196898971Y-87191032D02*
X196845097Y-87137157D01*
X196818159Y-87056345D01*
X196818159Y-87002470D01*
X196845097Y-86921658D01*
X196925909Y-86786971D01*
X197060596Y-86652284D01*
X197195283Y-86571471D01*
X197276095Y-86544534D01*
X197329970Y-86544534D01*
X197410782Y-86571471D01*
X197464657Y-86625346D01*
X197491594Y-86706158D01*
X197491594Y-86760033D01*
X197464657Y-86840845D01*
X197383845Y-86975532D01*
X197249158Y-87110219D01*
X197114471Y-87191032D01*
X197033658Y-87217969D01*
X196979784Y-87217969D01*
X196898971Y-87191032D01*
X152418092Y-88076277D02*
X152445029Y-88157089D01*
X152525841Y-88237902D01*
X152633591Y-88291776D01*
X152741341Y-88291776D01*
X152822153Y-88264839D01*
X152956840Y-88184027D01*
X153037652Y-88103215D01*
X153118464Y-87968528D01*
X153145402Y-87887715D01*
X153145402Y-87779966D01*
X153091527Y-87672216D01*
X153037652Y-87618341D01*
X152929902Y-87564467D01*
X152876028Y-87564467D01*
X152687466Y-87753028D01*
X152795215Y-87860778D01*
X152687466Y-87268155D02*
X152121780Y-87833841D01*
X151906281Y-87618341D01*
X151879344Y-87537529D01*
X151879344Y-87483654D01*
X151906281Y-87402842D01*
X151987093Y-87322030D01*
X152067906Y-87295093D01*
X152121780Y-87295093D01*
X152202593Y-87322030D01*
X152418092Y-87537529D01*
X151825469Y-86406158D02*
X152148718Y-86729407D01*
X151987093Y-86567783D02*
X151421408Y-87133468D01*
X151556095Y-87106531D01*
X151663845Y-87106531D01*
X151744657Y-87133468D01*
X150963472Y-86298409D02*
X151340596Y-85921285D01*
X150882660Y-86648595D02*
X151421408Y-86379221D01*
X151071222Y-86029035D01*
X194761904Y-115071428D02*
X195561904Y-114804761D01*
X194761904Y-114538095D01*
X195523809Y-114309523D02*
X195561904Y-114195238D01*
X195561904Y-114004761D01*
X195523809Y-113928571D01*
X195485714Y-113890476D01*
X195409523Y-113852380D01*
X195333333Y-113852380D01*
X195257142Y-113890476D01*
X195219047Y-113928571D01*
X195180952Y-114004761D01*
X195142857Y-114157142D01*
X195104761Y-114233333D01*
X195066666Y-114271428D01*
X194990476Y-114309523D01*
X194914285Y-114309523D01*
X194838095Y-114271428D01*
X194800000Y-114233333D01*
X194761904Y-114157142D01*
X194761904Y-113966666D01*
X194800000Y-113852380D01*
X195180952Y-113357142D02*
X195561904Y-113357142D01*
X194761904Y-113623809D02*
X195180952Y-113357142D01*
X194761904Y-113090476D01*
X195523809Y-112861904D02*
X195561904Y-112747619D01*
X195561904Y-112557142D01*
X195523809Y-112480952D01*
X195485714Y-112442857D01*
X195409523Y-112404761D01*
X195333333Y-112404761D01*
X195257142Y-112442857D01*
X195219047Y-112480952D01*
X195180952Y-112557142D01*
X195142857Y-112709523D01*
X195104761Y-112785714D01*
X195066666Y-112823809D01*
X194990476Y-112861904D01*
X194914285Y-112861904D01*
X194838095Y-112823809D01*
X194800000Y-112785714D01*
X194761904Y-112709523D01*
X194761904Y-112519047D01*
X194800000Y-112404761D01*
X149878092Y-88122277D02*
X149905029Y-88203089D01*
X149985841Y-88283902D01*
X150093591Y-88337776D01*
X150201341Y-88337776D01*
X150282153Y-88310839D01*
X150416840Y-88230027D01*
X150497652Y-88149215D01*
X150578464Y-88014528D01*
X150605402Y-87933715D01*
X150605402Y-87825966D01*
X150551527Y-87718216D01*
X150497652Y-87664341D01*
X150389902Y-87610467D01*
X150336028Y-87610467D01*
X150147466Y-87799028D01*
X150255215Y-87906778D01*
X150147466Y-87314155D02*
X149581780Y-87879841D01*
X149366281Y-87664341D01*
X149339344Y-87583529D01*
X149339344Y-87529654D01*
X149366281Y-87448842D01*
X149447093Y-87368030D01*
X149527906Y-87341093D01*
X149581780Y-87341093D01*
X149662593Y-87368030D01*
X149878092Y-87583529D01*
X149285469Y-86452158D02*
X149608718Y-86775407D01*
X149447093Y-86613783D02*
X148881408Y-87179468D01*
X149016095Y-87152531D01*
X149123845Y-87152531D01*
X149204657Y-87179468D01*
X148207973Y-86506033D02*
X148477347Y-86775407D01*
X148773658Y-86532971D01*
X148719784Y-86532971D01*
X148638971Y-86506033D01*
X148504284Y-86371346D01*
X148477347Y-86290534D01*
X148477347Y-86236659D01*
X148504284Y-86155847D01*
X148638971Y-86021160D01*
X148719784Y-85994223D01*
X148773658Y-85994223D01*
X148854471Y-86021160D01*
X148989158Y-86155847D01*
X149016095Y-86236659D01*
X149016095Y-86290534D01*
X187708718Y-88106903D02*
X187735655Y-88187715D01*
X187816467Y-88268528D01*
X187924217Y-88322402D01*
X188031967Y-88322402D01*
X188112779Y-88295465D01*
X188247466Y-88214653D01*
X188328278Y-88133841D01*
X188409090Y-87999154D01*
X188436028Y-87918341D01*
X188436028Y-87810592D01*
X188382153Y-87702842D01*
X188328278Y-87648967D01*
X188220528Y-87595093D01*
X188166654Y-87595093D01*
X187978092Y-87783654D01*
X188085841Y-87891404D01*
X187978092Y-87298781D02*
X187412406Y-87864467D01*
X187196907Y-87648967D01*
X187169970Y-87568155D01*
X187169970Y-87514280D01*
X187196907Y-87433468D01*
X187277719Y-87352656D01*
X187358532Y-87325719D01*
X187412406Y-87325719D01*
X187493219Y-87352656D01*
X187708718Y-87568155D01*
X186900596Y-87352656D02*
X186550410Y-87002470D01*
X186954471Y-86975532D01*
X186873658Y-86894720D01*
X186846721Y-86813908D01*
X186846721Y-86760033D01*
X186873658Y-86679221D01*
X187008345Y-86544534D01*
X187089158Y-86517597D01*
X187143032Y-86517597D01*
X187223845Y-86544534D01*
X187385469Y-86706158D01*
X187412406Y-86786971D01*
X187412406Y-86840845D01*
X192815655Y-88133841D02*
X192842593Y-88214653D01*
X192923405Y-88295465D01*
X193031154Y-88349340D01*
X193138904Y-88349340D01*
X193219716Y-88322402D01*
X193354403Y-88241590D01*
X193435215Y-88160778D01*
X193516028Y-88026091D01*
X193542965Y-87945279D01*
X193542965Y-87837529D01*
X193489090Y-87729780D01*
X193435215Y-87675905D01*
X193327466Y-87622030D01*
X193273591Y-87622030D01*
X193085029Y-87810592D01*
X193192779Y-87918341D01*
X193085029Y-87325719D02*
X192519344Y-87891404D01*
X192761780Y-87002470D01*
X192196095Y-87568155D01*
X192492406Y-86733096D02*
X191926721Y-87298781D01*
X191792034Y-87164094D01*
X191738159Y-87056345D01*
X191738159Y-86948595D01*
X191765097Y-86867783D01*
X191845909Y-86733096D01*
X191926721Y-86652284D01*
X192061408Y-86571471D01*
X192142220Y-86544534D01*
X192249970Y-86544534D01*
X192357719Y-86598409D01*
X192492406Y-86733096D01*
X175038718Y-88206903D02*
X175065655Y-88287715D01*
X175146467Y-88368528D01*
X175254217Y-88422402D01*
X175361967Y-88422402D01*
X175442779Y-88395465D01*
X175577466Y-88314653D01*
X175658278Y-88233841D01*
X175739090Y-88099154D01*
X175766028Y-88018341D01*
X175766028Y-87910592D01*
X175712153Y-87802842D01*
X175658278Y-87748967D01*
X175550528Y-87695093D01*
X175496654Y-87695093D01*
X175308092Y-87883654D01*
X175415841Y-87991404D01*
X175308092Y-87398781D02*
X174742406Y-87964467D01*
X174526907Y-87748967D01*
X174499970Y-87668155D01*
X174499970Y-87614280D01*
X174526907Y-87533468D01*
X174607719Y-87452656D01*
X174688532Y-87425719D01*
X174742406Y-87425719D01*
X174823219Y-87452656D01*
X175038718Y-87668155D01*
X174230596Y-87452656D02*
X173853472Y-87075532D01*
X174661594Y-86752284D01*
X167415655Y-88133841D02*
X167442593Y-88214653D01*
X167523405Y-88295465D01*
X167631154Y-88349340D01*
X167738904Y-88349340D01*
X167819716Y-88322402D01*
X167954403Y-88241590D01*
X168035215Y-88160778D01*
X168116028Y-88026091D01*
X168142965Y-87945279D01*
X168142965Y-87837529D01*
X168089090Y-87729780D01*
X168035215Y-87675905D01*
X167927466Y-87622030D01*
X167873591Y-87622030D01*
X167685029Y-87810592D01*
X167792779Y-87918341D01*
X167685029Y-87325719D02*
X167119344Y-87891404D01*
X167361780Y-87002470D01*
X166796095Y-87568155D01*
X167092406Y-86733096D02*
X166526721Y-87298781D01*
X166392034Y-87164094D01*
X166338159Y-87056345D01*
X166338159Y-86948595D01*
X166365097Y-86867783D01*
X166445909Y-86733096D01*
X166526721Y-86652284D01*
X166661408Y-86571471D01*
X166742220Y-86544534D01*
X166849970Y-86544534D01*
X166957719Y-86598409D01*
X167092406Y-86733096D01*
X154715655Y-88133841D02*
X154742593Y-88214653D01*
X154823405Y-88295465D01*
X154931154Y-88349340D01*
X155038904Y-88349340D01*
X155119716Y-88322402D01*
X155254403Y-88241590D01*
X155335215Y-88160778D01*
X155416028Y-88026091D01*
X155442965Y-87945279D01*
X155442965Y-87837529D01*
X155389090Y-87729780D01*
X155335215Y-87675905D01*
X155227466Y-87622030D01*
X155173591Y-87622030D01*
X154985029Y-87810592D01*
X155092779Y-87918341D01*
X154985029Y-87325719D02*
X154419344Y-87891404D01*
X154661780Y-87002470D01*
X154096095Y-87568155D01*
X154392406Y-86733096D02*
X153826721Y-87298781D01*
X153692034Y-87164094D01*
X153638159Y-87056345D01*
X153638159Y-86948595D01*
X153665097Y-86867783D01*
X153745909Y-86733096D01*
X153826721Y-86652284D01*
X153961408Y-86571471D01*
X154042220Y-86544534D01*
X154149970Y-86544534D01*
X154257719Y-86598409D01*
X154392406Y-86733096D01*
X169928718Y-88106903D02*
X169955655Y-88187715D01*
X170036467Y-88268528D01*
X170144217Y-88322402D01*
X170251967Y-88322402D01*
X170332779Y-88295465D01*
X170467466Y-88214653D01*
X170548278Y-88133841D01*
X170629090Y-87999154D01*
X170656028Y-87918341D01*
X170656028Y-87810592D01*
X170602153Y-87702842D01*
X170548278Y-87648967D01*
X170440528Y-87595093D01*
X170386654Y-87595093D01*
X170198092Y-87783654D01*
X170305841Y-87891404D01*
X170198092Y-87298781D02*
X169632406Y-87864467D01*
X169416907Y-87648967D01*
X169389970Y-87568155D01*
X169389970Y-87514280D01*
X169416907Y-87433468D01*
X169497719Y-87352656D01*
X169578532Y-87325719D01*
X169632406Y-87325719D01*
X169713219Y-87352656D01*
X169928718Y-87568155D01*
X169605469Y-86706158D02*
X169497719Y-86598409D01*
X169416907Y-86571471D01*
X169363032Y-86571471D01*
X169228345Y-86598409D01*
X169093658Y-86679221D01*
X168878159Y-86894720D01*
X168851222Y-86975532D01*
X168851222Y-87029407D01*
X168878159Y-87110219D01*
X168985909Y-87217969D01*
X169066721Y-87244906D01*
X169120596Y-87244906D01*
X169201408Y-87217969D01*
X169336095Y-87083282D01*
X169363032Y-87002470D01*
X169363032Y-86948595D01*
X169336095Y-86867783D01*
X169228345Y-86760033D01*
X169147533Y-86733096D01*
X169093658Y-86733096D01*
X169012846Y-86760033D01*
X147223809Y-107495238D02*
X147261904Y-107380952D01*
X147261904Y-107190476D01*
X147223809Y-107114285D01*
X147185714Y-107076190D01*
X147109523Y-107038095D01*
X147033333Y-107038095D01*
X146957142Y-107076190D01*
X146919047Y-107114285D01*
X146880952Y-107190476D01*
X146842857Y-107342857D01*
X146804761Y-107419047D01*
X146766666Y-107457142D01*
X146690476Y-107495238D01*
X146614285Y-107495238D01*
X146538095Y-107457142D01*
X146500000Y-107419047D01*
X146461904Y-107342857D01*
X146461904Y-107152380D01*
X146500000Y-107038095D01*
X146461904Y-106771428D02*
X147261904Y-106580952D01*
X146690476Y-106428571D01*
X147261904Y-106276190D01*
X146461904Y-106085714D01*
X147261904Y-105780952D02*
X146461904Y-105780952D01*
X146461904Y-105590476D01*
X146500000Y-105476190D01*
X146576190Y-105400000D01*
X146652380Y-105361904D01*
X146804761Y-105323809D01*
X146919047Y-105323809D01*
X147071428Y-105361904D01*
X147147619Y-105400000D01*
X147223809Y-105476190D01*
X147261904Y-105590476D01*
X147261904Y-105780952D01*
X147261904Y-104980952D02*
X146461904Y-104980952D01*
X146461904Y-104447619D02*
X146461904Y-104295238D01*
X146500000Y-104219047D01*
X146576190Y-104142857D01*
X146728571Y-104104761D01*
X146995238Y-104104761D01*
X147147619Y-104142857D01*
X147223809Y-104219047D01*
X147261904Y-104295238D01*
X147261904Y-104447619D01*
X147223809Y-104523809D01*
X147147619Y-104600000D01*
X146995238Y-104638095D01*
X146728571Y-104638095D01*
X146576190Y-104600000D01*
X146500000Y-104523809D01*
X146461904Y-104447619D01*
X180115655Y-88133841D02*
X180142593Y-88214653D01*
X180223405Y-88295465D01*
X180331154Y-88349340D01*
X180438904Y-88349340D01*
X180519716Y-88322402D01*
X180654403Y-88241590D01*
X180735215Y-88160778D01*
X180816028Y-88026091D01*
X180842965Y-87945279D01*
X180842965Y-87837529D01*
X180789090Y-87729780D01*
X180735215Y-87675905D01*
X180627466Y-87622030D01*
X180573591Y-87622030D01*
X180385029Y-87810592D01*
X180492779Y-87918341D01*
X180385029Y-87325719D02*
X179819344Y-87891404D01*
X180061780Y-87002470D01*
X179496095Y-87568155D01*
X179792406Y-86733096D02*
X179226721Y-87298781D01*
X179092034Y-87164094D01*
X179038159Y-87056345D01*
X179038159Y-86948595D01*
X179065097Y-86867783D01*
X179145909Y-86733096D01*
X179226721Y-86652284D01*
X179361408Y-86571471D01*
X179442220Y-86544534D01*
X179549970Y-86544534D01*
X179657719Y-86598409D01*
X179792406Y-86733096D01*
X147123809Y-96109523D02*
X147161904Y-95995238D01*
X147161904Y-95804761D01*
X147123809Y-95728571D01*
X147085714Y-95690476D01*
X147009523Y-95652380D01*
X146933333Y-95652380D01*
X146857142Y-95690476D01*
X146819047Y-95728571D01*
X146780952Y-95804761D01*
X146742857Y-95957142D01*
X146704761Y-96033333D01*
X146666666Y-96071428D01*
X146590476Y-96109523D01*
X146514285Y-96109523D01*
X146438095Y-96071428D01*
X146400000Y-96033333D01*
X146361904Y-95957142D01*
X146361904Y-95766666D01*
X146400000Y-95652380D01*
X146361904Y-95385714D02*
X147161904Y-95195238D01*
X146590476Y-95042857D01*
X147161904Y-94890476D01*
X146361904Y-94700000D01*
X147085714Y-93938095D02*
X147123809Y-93976190D01*
X147161904Y-94090476D01*
X147161904Y-94166666D01*
X147123809Y-94280952D01*
X147047619Y-94357142D01*
X146971428Y-94395238D01*
X146819047Y-94433333D01*
X146704761Y-94433333D01*
X146552380Y-94395238D01*
X146476190Y-94357142D01*
X146400000Y-94280952D01*
X146361904Y-94166666D01*
X146361904Y-94090476D01*
X146400000Y-93976190D01*
X146438095Y-93938095D01*
X147161904Y-93214285D02*
X147161904Y-93595238D01*
X146361904Y-93595238D01*
X147161904Y-92947619D02*
X146361904Y-92947619D01*
X147161904Y-92490476D02*
X146704761Y-92833333D01*
X146361904Y-92490476D02*
X146819047Y-92947619D01*
X172468718Y-88106903D02*
X172495655Y-88187715D01*
X172576467Y-88268528D01*
X172684217Y-88322402D01*
X172791967Y-88322402D01*
X172872779Y-88295465D01*
X173007466Y-88214653D01*
X173088278Y-88133841D01*
X173169090Y-87999154D01*
X173196028Y-87918341D01*
X173196028Y-87810592D01*
X173142153Y-87702842D01*
X173088278Y-87648967D01*
X172980528Y-87595093D01*
X172926654Y-87595093D01*
X172738092Y-87783654D01*
X172845841Y-87891404D01*
X172738092Y-87298781D02*
X172172406Y-87864467D01*
X171956907Y-87648967D01*
X171929970Y-87568155D01*
X171929970Y-87514280D01*
X171956907Y-87433468D01*
X172037719Y-87352656D01*
X172118532Y-87325719D01*
X172172406Y-87325719D01*
X172253219Y-87352656D01*
X172468718Y-87568155D01*
X171768345Y-86975532D02*
X171795283Y-87056345D01*
X171795283Y-87110219D01*
X171768345Y-87191032D01*
X171741408Y-87217969D01*
X171660596Y-87244906D01*
X171606721Y-87244906D01*
X171525909Y-87217969D01*
X171418159Y-87110219D01*
X171391222Y-87029407D01*
X171391222Y-86975532D01*
X171418159Y-86894720D01*
X171445097Y-86867783D01*
X171525909Y-86840845D01*
X171579784Y-86840845D01*
X171660596Y-86867783D01*
X171768345Y-86975532D01*
X171849158Y-87002470D01*
X171903032Y-87002470D01*
X171983845Y-86975532D01*
X172091594Y-86867783D01*
X172118532Y-86786971D01*
X172118532Y-86733096D01*
X172091594Y-86652284D01*
X171983845Y-86544534D01*
X171903032Y-86517597D01*
X171849158Y-86517597D01*
X171768345Y-86544534D01*
X171660596Y-86652284D01*
X171633658Y-86733096D01*
X171633658Y-86786971D01*
X171660596Y-86867783D01*
X195338718Y-88006903D02*
X195365655Y-88087715D01*
X195446467Y-88168528D01*
X195554217Y-88222402D01*
X195661967Y-88222402D01*
X195742779Y-88195465D01*
X195877466Y-88114653D01*
X195958278Y-88033841D01*
X196039090Y-87899154D01*
X196066028Y-87818341D01*
X196066028Y-87710592D01*
X196012153Y-87602842D01*
X195958278Y-87548967D01*
X195850528Y-87495093D01*
X195796654Y-87495093D01*
X195608092Y-87683654D01*
X195715841Y-87791404D01*
X195608092Y-87198781D02*
X195042406Y-87764467D01*
X194826907Y-87548967D01*
X194799970Y-87468155D01*
X194799970Y-87414280D01*
X194826907Y-87333468D01*
X194907719Y-87252656D01*
X194988532Y-87225719D01*
X195042406Y-87225719D01*
X195123219Y-87252656D01*
X195338718Y-87468155D01*
X194746095Y-86336784D02*
X195069344Y-86660033D01*
X194907719Y-86498409D02*
X194342034Y-87064094D01*
X194476721Y-87037157D01*
X194584471Y-87037157D01*
X194665283Y-87064094D01*
X177548718Y-88106903D02*
X177575655Y-88187715D01*
X177656467Y-88268528D01*
X177764217Y-88322402D01*
X177871967Y-88322402D01*
X177952779Y-88295465D01*
X178087466Y-88214653D01*
X178168278Y-88133841D01*
X178249090Y-87999154D01*
X178276028Y-87918341D01*
X178276028Y-87810592D01*
X178222153Y-87702842D01*
X178168278Y-87648967D01*
X178060528Y-87595093D01*
X178006654Y-87595093D01*
X177818092Y-87783654D01*
X177925841Y-87891404D01*
X177818092Y-87298781D02*
X177252406Y-87864467D01*
X177036907Y-87648967D01*
X177009970Y-87568155D01*
X177009970Y-87514280D01*
X177036907Y-87433468D01*
X177117719Y-87352656D01*
X177198532Y-87325719D01*
X177252406Y-87325719D01*
X177333219Y-87352656D01*
X177548718Y-87568155D01*
X176444284Y-87056345D02*
X176552034Y-87164094D01*
X176632846Y-87191032D01*
X176686721Y-87191032D01*
X176821408Y-87164094D01*
X176956095Y-87083282D01*
X177171594Y-86867783D01*
X177198532Y-86786971D01*
X177198532Y-86733096D01*
X177171594Y-86652284D01*
X177063845Y-86544534D01*
X176983032Y-86517597D01*
X176929158Y-86517597D01*
X176848345Y-86544534D01*
X176713658Y-86679221D01*
X176686721Y-86760033D01*
X176686721Y-86813908D01*
X176713658Y-86894720D01*
X176821408Y-87002470D01*
X176902220Y-87029407D01*
X176956095Y-87029407D01*
X177036907Y-87002470D01*
X185168718Y-88106903D02*
X185195655Y-88187715D01*
X185276467Y-88268528D01*
X185384217Y-88322402D01*
X185491967Y-88322402D01*
X185572779Y-88295465D01*
X185707466Y-88214653D01*
X185788278Y-88133841D01*
X185869090Y-87999154D01*
X185896028Y-87918341D01*
X185896028Y-87810592D01*
X185842153Y-87702842D01*
X185788278Y-87648967D01*
X185680528Y-87595093D01*
X185626654Y-87595093D01*
X185438092Y-87783654D01*
X185545841Y-87891404D01*
X185438092Y-87298781D02*
X184872406Y-87864467D01*
X184656907Y-87648967D01*
X184629970Y-87568155D01*
X184629970Y-87514280D01*
X184656907Y-87433468D01*
X184737719Y-87352656D01*
X184818532Y-87325719D01*
X184872406Y-87325719D01*
X184953219Y-87352656D01*
X185168718Y-87568155D01*
X184252846Y-86867783D02*
X184629970Y-86490659D01*
X184172034Y-87217969D02*
X184710782Y-86948595D01*
X184360596Y-86598409D01*
%TO.C,Q1*%
X152004761Y-129847619D02*
X151909523Y-129800000D01*
X151814285Y-129704761D01*
X151671428Y-129561904D01*
X151576190Y-129514285D01*
X151480952Y-129514285D01*
X151528571Y-129752380D02*
X151433333Y-129704761D01*
X151338095Y-129609523D01*
X151290476Y-129419047D01*
X151290476Y-129085714D01*
X151338095Y-128895238D01*
X151433333Y-128800000D01*
X151528571Y-128752380D01*
X151719047Y-128752380D01*
X151814285Y-128800000D01*
X151909523Y-128895238D01*
X151957142Y-129085714D01*
X151957142Y-129419047D01*
X151909523Y-129609523D01*
X151814285Y-129704761D01*
X151719047Y-129752380D01*
X151528571Y-129752380D01*
X152909523Y-129752380D02*
X152338095Y-129752380D01*
X152623809Y-129752380D02*
X152623809Y-128752380D01*
X152528571Y-128895238D01*
X152433333Y-128990476D01*
X152338095Y-129038095D01*
%TO.C,J7*%
X110116666Y-113452380D02*
X110116666Y-114166666D01*
X110069047Y-114309523D01*
X109973809Y-114404761D01*
X109830952Y-114452380D01*
X109735714Y-114452380D01*
X110497619Y-113452380D02*
X111164285Y-113452380D01*
X110735714Y-114452380D01*
%TO.C,R2*%
X167433333Y-81352380D02*
X167100000Y-80876190D01*
X166861904Y-81352380D02*
X166861904Y-80352380D01*
X167242857Y-80352380D01*
X167338095Y-80400000D01*
X167385714Y-80447619D01*
X167433333Y-80542857D01*
X167433333Y-80685714D01*
X167385714Y-80780952D01*
X167338095Y-80828571D01*
X167242857Y-80876190D01*
X166861904Y-80876190D01*
X167814285Y-80447619D02*
X167861904Y-80400000D01*
X167957142Y-80352380D01*
X168195238Y-80352380D01*
X168290476Y-80400000D01*
X168338095Y-80447619D01*
X168385714Y-80542857D01*
X168385714Y-80638095D01*
X168338095Y-80780952D01*
X167766666Y-81352380D01*
X168385714Y-81352380D01*
%TO.C,J8*%
X181902380Y-70133333D02*
X182616666Y-70133333D01*
X182759523Y-70180952D01*
X182854761Y-70276190D01*
X182902380Y-70419047D01*
X182902380Y-70514285D01*
X182330952Y-69514285D02*
X182283333Y-69609523D01*
X182235714Y-69657142D01*
X182140476Y-69704761D01*
X182092857Y-69704761D01*
X181997619Y-69657142D01*
X181950000Y-69609523D01*
X181902380Y-69514285D01*
X181902380Y-69323809D01*
X181950000Y-69228571D01*
X181997619Y-69180952D01*
X182092857Y-69133333D01*
X182140476Y-69133333D01*
X182235714Y-69180952D01*
X182283333Y-69228571D01*
X182330952Y-69323809D01*
X182330952Y-69514285D01*
X182378571Y-69609523D01*
X182426190Y-69657142D01*
X182521428Y-69704761D01*
X182711904Y-69704761D01*
X182807142Y-69657142D01*
X182854761Y-69609523D01*
X182902380Y-69514285D01*
X182902380Y-69323809D01*
X182854761Y-69228571D01*
X182807142Y-69180952D01*
X182711904Y-69133333D01*
X182521428Y-69133333D01*
X182426190Y-69180952D01*
X182378571Y-69228571D01*
X182330952Y-69323809D01*
%TO.C,R1*%
X170033333Y-81252380D02*
X169700000Y-80776190D01*
X169461904Y-81252380D02*
X169461904Y-80252380D01*
X169842857Y-80252380D01*
X169938095Y-80300000D01*
X169985714Y-80347619D01*
X170033333Y-80442857D01*
X170033333Y-80585714D01*
X169985714Y-80680952D01*
X169938095Y-80728571D01*
X169842857Y-80776190D01*
X169461904Y-80776190D01*
X170985714Y-81252380D02*
X170414285Y-81252380D01*
X170700000Y-81252380D02*
X170700000Y-80252380D01*
X170604761Y-80395238D01*
X170509523Y-80490476D01*
X170414285Y-80538095D01*
%TO.C,J2*%
X190066666Y-57952380D02*
X190066666Y-58666666D01*
X190019047Y-58809523D01*
X189923809Y-58904761D01*
X189780952Y-58952380D01*
X189685714Y-58952380D01*
X190495238Y-58047619D02*
X190542857Y-58000000D01*
X190638095Y-57952380D01*
X190876190Y-57952380D01*
X190971428Y-58000000D01*
X191019047Y-58047619D01*
X191066666Y-58142857D01*
X191066666Y-58238095D01*
X191019047Y-58380952D01*
X190447619Y-58952380D01*
X191066666Y-58952380D01*
%TO.C,BZ1*%
X105819047Y-71728571D02*
X105961904Y-71776190D01*
X106009523Y-71823809D01*
X106057142Y-71919047D01*
X106057142Y-72061904D01*
X106009523Y-72157142D01*
X105961904Y-72204761D01*
X105866666Y-72252380D01*
X105485714Y-72252380D01*
X105485714Y-71252380D01*
X105819047Y-71252380D01*
X105914285Y-71300000D01*
X105961904Y-71347619D01*
X106009523Y-71442857D01*
X106009523Y-71538095D01*
X105961904Y-71633333D01*
X105914285Y-71680952D01*
X105819047Y-71728571D01*
X105485714Y-71728571D01*
X106390476Y-71252380D02*
X107057142Y-71252380D01*
X106390476Y-72252380D01*
X107057142Y-72252380D01*
X107961904Y-72252380D02*
X107390476Y-72252380D01*
X107676190Y-72252380D02*
X107676190Y-71252380D01*
X107580952Y-71395238D01*
X107485714Y-71490476D01*
X107390476Y-71538095D01*
X110129047Y-70411428D02*
X110890952Y-70411428D01*
X110510000Y-70792380D02*
X110510000Y-70030476D01*
%TO.C,U2*%
X113938095Y-127852380D02*
X113938095Y-128661904D01*
X113985714Y-128757142D01*
X114033333Y-128804761D01*
X114128571Y-128852380D01*
X114319047Y-128852380D01*
X114414285Y-128804761D01*
X114461904Y-128757142D01*
X114509523Y-128661904D01*
X114509523Y-127852380D01*
X114938095Y-127947619D02*
X114985714Y-127900000D01*
X115080952Y-127852380D01*
X115319047Y-127852380D01*
X115414285Y-127900000D01*
X115461904Y-127947619D01*
X115509523Y-128042857D01*
X115509523Y-128138095D01*
X115461904Y-128280952D01*
X114890476Y-128852380D01*
X115509523Y-128852380D01*
D19*
X111396496Y-123430494D02*
X111396496Y-122581118D01*
X111720067Y-122581118D01*
X111800960Y-122621565D01*
X111841407Y-122662011D01*
X111881853Y-122742904D01*
X111881853Y-122864243D01*
X111841407Y-122945136D01*
X111800960Y-122985583D01*
X111720067Y-123026029D01*
X111396496Y-123026029D01*
X112245872Y-123430494D02*
X112245872Y-122864243D01*
X112245872Y-123026029D02*
X112286318Y-122945136D01*
X112326764Y-122904690D01*
X112407657Y-122864243D01*
X112488550Y-122864243D01*
X113095248Y-123390048D02*
X113014355Y-123430494D01*
X112852569Y-123430494D01*
X112771676Y-123390048D01*
X112731229Y-123309155D01*
X112731229Y-122985583D01*
X112771676Y-122904690D01*
X112852569Y-122864243D01*
X113014355Y-122864243D01*
X113095248Y-122904690D01*
X113135694Y-122985583D01*
X113135694Y-123066476D01*
X112731229Y-123147369D01*
X113459266Y-123390048D02*
X113540159Y-123430494D01*
X113701945Y-123430494D01*
X113782838Y-123390048D01*
X113823284Y-123309155D01*
X113823284Y-123268708D01*
X113782838Y-123187815D01*
X113701945Y-123147369D01*
X113580605Y-123147369D01*
X113499712Y-123106922D01*
X113459266Y-123026029D01*
X113459266Y-122985583D01*
X113499712Y-122904690D01*
X113580605Y-122864243D01*
X113701945Y-122864243D01*
X113782838Y-122904690D01*
X114146856Y-123390048D02*
X114227749Y-123430494D01*
X114389535Y-123430494D01*
X114470428Y-123390048D01*
X114510874Y-123309155D01*
X114510874Y-123268708D01*
X114470428Y-123187815D01*
X114389535Y-123147369D01*
X114268195Y-123147369D01*
X114187302Y-123106922D01*
X114146856Y-123026029D01*
X114146856Y-122985583D01*
X114187302Y-122904690D01*
X114268195Y-122864243D01*
X114389535Y-122864243D01*
X114470428Y-122904690D01*
X115238911Y-122864243D02*
X115238911Y-123430494D01*
X114874892Y-122864243D02*
X114874892Y-123309155D01*
X114915339Y-123390048D01*
X114996232Y-123430494D01*
X115117571Y-123430494D01*
X115198464Y-123390048D01*
X115238911Y-123349601D01*
X115643376Y-123430494D02*
X115643376Y-122864243D01*
X115643376Y-123026029D02*
X115683822Y-122945136D01*
X115724268Y-122904690D01*
X115805161Y-122864243D01*
X115886054Y-122864243D01*
X116492752Y-123390048D02*
X116411859Y-123430494D01*
X116250073Y-123430494D01*
X116169180Y-123390048D01*
X116128733Y-123309155D01*
X116128733Y-122985583D01*
X116169180Y-122904690D01*
X116250073Y-122864243D01*
X116411859Y-122864243D01*
X116492752Y-122904690D01*
X116533198Y-122985583D01*
X116533198Y-123066476D01*
X116128733Y-123147369D01*
X118231950Y-123430494D02*
X118191504Y-123430494D01*
X118110611Y-123390048D01*
X117989271Y-123268708D01*
X117787039Y-123026029D01*
X117706146Y-122904690D01*
X117665699Y-122783350D01*
X117665699Y-122702457D01*
X117706146Y-122621565D01*
X117787039Y-122581118D01*
X117827485Y-122581118D01*
X117908378Y-122621565D01*
X117948825Y-122702457D01*
X117948825Y-122742904D01*
X117908378Y-122823797D01*
X117867932Y-122864243D01*
X117625253Y-123026029D01*
X117584806Y-123066476D01*
X117544360Y-123147369D01*
X117544360Y-123268708D01*
X117584806Y-123349601D01*
X117625253Y-123390048D01*
X117706146Y-123430494D01*
X117827485Y-123430494D01*
X117908378Y-123390048D01*
X117948825Y-123349601D01*
X118070164Y-123187815D01*
X118110611Y-123066476D01*
X118110611Y-122985583D01*
X110769575Y-123948613D02*
X111254933Y-123948613D01*
X111012254Y-124797989D02*
X111012254Y-123948613D01*
X111861630Y-124757543D02*
X111780737Y-124797989D01*
X111618951Y-124797989D01*
X111538058Y-124757543D01*
X111497612Y-124676650D01*
X111497612Y-124353078D01*
X111538058Y-124272185D01*
X111618951Y-124231738D01*
X111780737Y-124231738D01*
X111861630Y-124272185D01*
X111902076Y-124353078D01*
X111902076Y-124433971D01*
X111497612Y-124514864D01*
X112266095Y-124797989D02*
X112266095Y-124231738D01*
X112266095Y-124312631D02*
X112306541Y-124272185D01*
X112387434Y-124231738D01*
X112508774Y-124231738D01*
X112589667Y-124272185D01*
X112630113Y-124353078D01*
X112630113Y-124797989D01*
X112630113Y-124353078D02*
X112670560Y-124272185D01*
X112751452Y-124231738D01*
X112872792Y-124231738D01*
X112953685Y-124272185D01*
X112994131Y-124353078D01*
X112994131Y-124797989D01*
X113398596Y-124231738D02*
X113398596Y-125081114D01*
X113398596Y-124272185D02*
X113479489Y-124231738D01*
X113641275Y-124231738D01*
X113722168Y-124272185D01*
X113762614Y-124312631D01*
X113803061Y-124393524D01*
X113803061Y-124636203D01*
X113762614Y-124717096D01*
X113722168Y-124757543D01*
X113641275Y-124797989D01*
X113479489Y-124797989D01*
X113398596Y-124757543D01*
X114773776Y-124757543D02*
X114895116Y-124797989D01*
X115097348Y-124797989D01*
X115178241Y-124757543D01*
X115218688Y-124717096D01*
X115259134Y-124636203D01*
X115259134Y-124555310D01*
X115218688Y-124474417D01*
X115178241Y-124433971D01*
X115097348Y-124393524D01*
X114935562Y-124353078D01*
X114854669Y-124312631D01*
X114814223Y-124272185D01*
X114773776Y-124191292D01*
X114773776Y-124110399D01*
X114814223Y-124029506D01*
X114854669Y-123989060D01*
X114935562Y-123948613D01*
X115137795Y-123948613D01*
X115259134Y-123989060D01*
X115946724Y-124757543D02*
X115865831Y-124797989D01*
X115704045Y-124797989D01*
X115623152Y-124757543D01*
X115582706Y-124676650D01*
X115582706Y-124353078D01*
X115623152Y-124272185D01*
X115704045Y-124231738D01*
X115865831Y-124231738D01*
X115946724Y-124272185D01*
X115987171Y-124353078D01*
X115987171Y-124433971D01*
X115582706Y-124514864D01*
X116351189Y-124231738D02*
X116351189Y-124797989D01*
X116351189Y-124312631D02*
X116391635Y-124272185D01*
X116472528Y-124231738D01*
X116593868Y-124231738D01*
X116674761Y-124272185D01*
X116715207Y-124353078D01*
X116715207Y-124797989D01*
X117079225Y-124757543D02*
X117160118Y-124797989D01*
X117321904Y-124797989D01*
X117402797Y-124757543D01*
X117443244Y-124676650D01*
X117443244Y-124636203D01*
X117402797Y-124555310D01*
X117321904Y-124514864D01*
X117200565Y-124514864D01*
X117119672Y-124474417D01*
X117079225Y-124393524D01*
X117079225Y-124353078D01*
X117119672Y-124272185D01*
X117200565Y-124231738D01*
X117321904Y-124231738D01*
X117402797Y-124272185D01*
X117928601Y-124797989D02*
X117847708Y-124757543D01*
X117807262Y-124717096D01*
X117766816Y-124636203D01*
X117766816Y-124393524D01*
X117807262Y-124312631D01*
X117847708Y-124272185D01*
X117928601Y-124231738D01*
X118049941Y-124231738D01*
X118130834Y-124272185D01*
X118171280Y-124312631D01*
X118211727Y-124393524D01*
X118211727Y-124636203D01*
X118171280Y-124717096D01*
X118130834Y-124757543D01*
X118049941Y-124797989D01*
X117928601Y-124797989D01*
X118575745Y-124797989D02*
X118575745Y-124231738D01*
X118575745Y-124393524D02*
X118616192Y-124312631D01*
X118656638Y-124272185D01*
X118737531Y-124231738D01*
X118818424Y-124231738D01*
D14*
X113651388Y-140058929D02*
X113779113Y-140101504D01*
X113991990Y-140101504D01*
X114077140Y-140058929D01*
X114119715Y-140016354D01*
X114162291Y-139931203D01*
X114162291Y-139846053D01*
X114119715Y-139760902D01*
X114077140Y-139718327D01*
X113991990Y-139675752D01*
X113821689Y-139633177D01*
X113736538Y-139590601D01*
X113693963Y-139548026D01*
X113651388Y-139462876D01*
X113651388Y-139377725D01*
X113693963Y-139292575D01*
X113736538Y-139250000D01*
X113821689Y-139207424D01*
X114034565Y-139207424D01*
X114162291Y-139250000D01*
X115056371Y-140016354D02*
X115013795Y-140058929D01*
X114886070Y-140101504D01*
X114800919Y-140101504D01*
X114673193Y-140058929D01*
X114588043Y-139973779D01*
X114545468Y-139888628D01*
X114502892Y-139718327D01*
X114502892Y-139590601D01*
X114545468Y-139420300D01*
X114588043Y-139335150D01*
X114673193Y-139250000D01*
X114800919Y-139207424D01*
X114886070Y-139207424D01*
X115013795Y-139250000D01*
X115056371Y-139292575D01*
X115439548Y-140101504D02*
X115439548Y-139207424D01*
X115950451Y-140101504D02*
X115567273Y-139590601D01*
X115950451Y-139207424D02*
X115439548Y-139718327D01*
X106027140Y-139307424D02*
X106325167Y-140201504D01*
X106623193Y-139307424D01*
X106921220Y-140201504D02*
X106921220Y-139307424D01*
X107346972Y-140201504D02*
X107346972Y-139307424D01*
X107857875Y-140201504D01*
X107857875Y-139307424D01*
D11*
X112102688Y-121440371D02*
X112262345Y-121493590D01*
X112315564Y-121546809D01*
X112368783Y-121653247D01*
X112368783Y-121812904D01*
X112315564Y-121919342D01*
X112262345Y-121972561D01*
X112155907Y-122025780D01*
X111730155Y-122025780D01*
X111730155Y-120908180D01*
X112102688Y-120908180D01*
X112209126Y-120961400D01*
X112262345Y-121014619D01*
X112315564Y-121121057D01*
X112315564Y-121227495D01*
X112262345Y-121333933D01*
X112209126Y-121387152D01*
X112102688Y-121440371D01*
X111730155Y-121440371D01*
X112847755Y-122025780D02*
X112847755Y-120908180D01*
X113220288Y-121706466D01*
X113592821Y-120908180D01*
X113592821Y-122025780D01*
X114125012Y-122025780D02*
X114125012Y-120908180D01*
X114550764Y-120908180D01*
X114657202Y-120961400D01*
X114710421Y-121014619D01*
X114763640Y-121121057D01*
X114763640Y-121280714D01*
X114710421Y-121387152D01*
X114657202Y-121440371D01*
X114550764Y-121493590D01*
X114125012Y-121493590D01*
X115189393Y-121014619D02*
X115242612Y-120961400D01*
X115349050Y-120908180D01*
X115615145Y-120908180D01*
X115721583Y-120961400D01*
X115774802Y-121014619D01*
X115828021Y-121121057D01*
X115828021Y-121227495D01*
X115774802Y-121387152D01*
X115136174Y-122025780D01*
X115828021Y-122025780D01*
X116466650Y-121387152D02*
X116360212Y-121333933D01*
X116306993Y-121280714D01*
X116253774Y-121174276D01*
X116253774Y-121121057D01*
X116306993Y-121014619D01*
X116360212Y-120961400D01*
X116466650Y-120908180D01*
X116679526Y-120908180D01*
X116785964Y-120961400D01*
X116839183Y-121014619D01*
X116892402Y-121121057D01*
X116892402Y-121174276D01*
X116839183Y-121280714D01*
X116785964Y-121333933D01*
X116679526Y-121387152D01*
X116466650Y-121387152D01*
X116360212Y-121440371D01*
X116306993Y-121493590D01*
X116253774Y-121600028D01*
X116253774Y-121812904D01*
X116306993Y-121919342D01*
X116360212Y-121972561D01*
X116466650Y-122025780D01*
X116679526Y-122025780D01*
X116785964Y-121972561D01*
X116839183Y-121919342D01*
X116892402Y-121812904D01*
X116892402Y-121600028D01*
X116839183Y-121493590D01*
X116785964Y-121440371D01*
X116679526Y-121387152D01*
X117584250Y-120908180D02*
X117690688Y-120908180D01*
X117797126Y-120961400D01*
X117850345Y-121014619D01*
X117903564Y-121121057D01*
X117956783Y-121333933D01*
X117956783Y-121600028D01*
X117903564Y-121812904D01*
X117850345Y-121919342D01*
X117797126Y-121972561D01*
X117690688Y-122025780D01*
X117584250Y-122025780D01*
X117477812Y-121972561D01*
X117424593Y-121919342D01*
X117371374Y-121812904D01*
X117318155Y-121600028D01*
X117318155Y-121333933D01*
X117371374Y-121121057D01*
X117424593Y-121014619D01*
X117477812Y-120961400D01*
X117584250Y-120908180D01*
D14*
X118809715Y-140008929D02*
X118937441Y-140051504D01*
X119150317Y-140051504D01*
X119235468Y-140008929D01*
X119278043Y-139966354D01*
X119320618Y-139881203D01*
X119320618Y-139796053D01*
X119278043Y-139710902D01*
X119235468Y-139668327D01*
X119150317Y-139625752D01*
X118980016Y-139583177D01*
X118894866Y-139540601D01*
X118852291Y-139498026D01*
X118809715Y-139412876D01*
X118809715Y-139327725D01*
X118852291Y-139242575D01*
X118894866Y-139200000D01*
X118980016Y-139157424D01*
X119192892Y-139157424D01*
X119320618Y-139200000D01*
X119703795Y-140051504D02*
X119703795Y-139157424D01*
X119916672Y-139157424D01*
X120044397Y-139200000D01*
X120129548Y-139285150D01*
X120172123Y-139370300D01*
X120214698Y-139540601D01*
X120214698Y-139668327D01*
X120172123Y-139838628D01*
X120129548Y-139923779D01*
X120044397Y-140008929D01*
X119916672Y-140051504D01*
X119703795Y-140051504D01*
X120597875Y-140051504D02*
X120597875Y-139157424D01*
X111227140Y-139250000D02*
X111141990Y-139207424D01*
X111014264Y-139207424D01*
X110886538Y-139250000D01*
X110801388Y-139335150D01*
X110758812Y-139420300D01*
X110716237Y-139590601D01*
X110716237Y-139718327D01*
X110758812Y-139888628D01*
X110801388Y-139973779D01*
X110886538Y-140058929D01*
X111014264Y-140101504D01*
X111099414Y-140101504D01*
X111227140Y-140058929D01*
X111269715Y-140016354D01*
X111269715Y-139718327D01*
X111099414Y-139718327D01*
X111652892Y-140101504D02*
X111652892Y-139207424D01*
X112163795Y-140101504D01*
X112163795Y-139207424D01*
X112589548Y-140101504D02*
X112589548Y-139207424D01*
X112802424Y-139207424D01*
X112930150Y-139250000D01*
X113015300Y-139335150D01*
X113057875Y-139420300D01*
X113100451Y-139590601D01*
X113100451Y-139718327D01*
X113057875Y-139888628D01*
X113015300Y-139973779D01*
X112930150Y-140058929D01*
X112802424Y-140101504D01*
X112589548Y-140101504D01*
D10*
%TO.C,R4*%
X154552380Y-115966666D02*
X154076190Y-116300000D01*
X154552380Y-116538095D02*
X153552380Y-116538095D01*
X153552380Y-116157142D01*
X153600000Y-116061904D01*
X153647619Y-116014285D01*
X153742857Y-115966666D01*
X153885714Y-115966666D01*
X153980952Y-116014285D01*
X154028571Y-116061904D01*
X154076190Y-116157142D01*
X154076190Y-116538095D01*
X153885714Y-115109523D02*
X154552380Y-115109523D01*
X153504761Y-115347619D02*
X154219047Y-115585714D01*
X154219047Y-114966666D01*
D20*
%TO.C,J1*%
X137080000Y-117830000D02*
X137080000Y-115170000D01*
X124320000Y-117830000D02*
X124320000Y-115170000D01*
X121720000Y-117830000D02*
X121720000Y-116500000D01*
X124320000Y-117830000D02*
X137080000Y-117830000D01*
X124320000Y-115170000D02*
X137080000Y-115170000D01*
X123050000Y-117830000D02*
X121720000Y-117830000D01*
%TO.C,C1*%
X175111252Y-126831051D02*
X174588748Y-126831051D01*
X175111252Y-128301051D02*
X174588748Y-128301051D01*
D21*
%TO.C,JP1*%
X138745370Y-112647880D02*
X139494670Y-112647880D01*
X111895030Y-105398720D02*
X112497010Y-106099760D01*
X118245030Y-90651480D02*
X138745370Y-90651480D01*
X111895030Y-105398720D02*
X111895030Y-95401280D01*
X118245030Y-88152120D02*
X138745370Y-88152120D01*
X139494670Y-112647880D02*
X139494670Y-88152120D01*
X138745370Y-112647880D02*
X138745370Y-110148520D01*
X111895030Y-95401280D02*
X112497010Y-94700240D01*
X138745370Y-88152120D02*
X138745370Y-90651480D01*
X118245030Y-90651480D02*
X118245030Y-88152120D01*
X118245030Y-112647880D02*
X138745370Y-112647880D01*
X118245030Y-110148520D02*
X118245030Y-112647880D01*
X118245030Y-110148520D02*
X138745370Y-110148520D01*
X138745370Y-88152120D02*
X139494670Y-88152120D01*
D20*
%TO.C,R7*%
X174622936Y-121631051D02*
X175077064Y-121631051D01*
X174622936Y-123101051D02*
X175077064Y-123101051D01*
%TO.C,J10*%
X163752500Y-132708551D02*
X163752500Y-138008551D01*
X163752500Y-138008551D02*
X163012500Y-138008551D01*
X157932500Y-138008551D02*
X159012500Y-138008551D01*
X152282500Y-130898551D02*
X152282500Y-139718551D01*
X154932500Y-132708551D02*
X154932500Y-130898551D01*
X160012500Y-130898551D02*
X162012500Y-130898551D01*
X152282500Y-131708551D02*
X154822500Y-131708551D01*
X153192500Y-132708551D02*
X163752500Y-132708551D01*
X164662500Y-131708551D02*
X162122500Y-131708551D01*
X156232500Y-130098551D02*
X155932500Y-130698551D01*
X156932500Y-132708551D02*
X154932500Y-132708551D01*
X155932500Y-130698551D02*
X155632500Y-130098551D01*
X155632500Y-130098551D02*
X156232500Y-130098551D01*
X164662500Y-130898551D02*
X152282500Y-130898551D01*
X162012500Y-130898551D02*
X162012500Y-132708551D01*
X156932500Y-130898551D02*
X156932500Y-132708551D01*
X160012500Y-132708551D02*
X160012500Y-130898551D01*
X154932500Y-130898551D02*
X156932500Y-130898551D01*
X156932500Y-131708551D02*
X160012500Y-131708551D01*
X153192500Y-138008551D02*
X153192500Y-132708551D01*
X152282500Y-139718551D02*
X164662500Y-139718551D01*
X164662500Y-139718551D02*
X164662500Y-130898551D01*
X162012500Y-132708551D02*
X160012500Y-132708551D01*
X153932500Y-138008551D02*
X153192500Y-138008551D01*
X153932500Y-138008551D02*
G75*
G03*
X157919342Y-138024372I2000000J1650000D01*
G01*
X159012500Y-138008551D02*
G75*
G03*
X162999342Y-138024372I2000000J1650000D01*
G01*
%TO.C,J12*%
X144000000Y-57870000D02*
X145330000Y-57870000D01*
X142730000Y-60530000D02*
X132510000Y-60530000D01*
X132510000Y-57870000D02*
X132510000Y-60530000D01*
X145330000Y-57870000D02*
X145330000Y-59200000D01*
X142730000Y-57870000D02*
X132510000Y-57870000D01*
X142730000Y-57870000D02*
X142730000Y-60530000D01*
%TO.C,D4*%
X176710000Y-118906051D02*
X173850000Y-118906051D01*
X176710000Y-120826051D02*
X176710000Y-118906051D01*
X173850000Y-120826051D02*
X176710000Y-120826051D01*
%TO.C,R8*%
X158422936Y-121531051D02*
X158877064Y-121531051D01*
X158422936Y-123001051D02*
X158877064Y-123001051D01*
%TO.C,J6*%
X128655000Y-85530000D02*
X105735000Y-85530000D01*
X131255000Y-82870000D02*
X131255000Y-84200000D01*
X128655000Y-82870000D02*
X105735000Y-82870000D01*
X129925000Y-82870000D02*
X131255000Y-82870000D01*
X128655000Y-82870000D02*
X128655000Y-85530000D01*
X105735000Y-82870000D02*
X105735000Y-85530000D01*
%TO.C,C4*%
X158811252Y-124031051D02*
X158288748Y-124031051D01*
X158811252Y-125501051D02*
X158288748Y-125501051D01*
%TO.C,R12*%
X181227064Y-84135000D02*
X180772936Y-84135000D01*
X181227064Y-82665000D02*
X180772936Y-82665000D01*
%TO.C,U5*%
X183460000Y-128376051D02*
X183460000Y-127116051D01*
X177450000Y-121556051D02*
X183460000Y-121556051D01*
X179700000Y-128376051D02*
X183460000Y-128376051D01*
X183460000Y-121556051D02*
X183460000Y-122816051D01*
%TO.C,R14*%
X180772936Y-79435000D02*
X181227064Y-79435000D01*
X180772936Y-77965000D02*
X181227064Y-77965000D01*
%TO.C,U7*%
X184200000Y-80500000D02*
X187650000Y-80500000D01*
X183350000Y-80800000D02*
X184200000Y-80800000D01*
X184200000Y-80800000D02*
X184200000Y-80500000D01*
X187650000Y-84850000D02*
X184350000Y-84850000D01*
%TO.C,J4*%
X192195000Y-70180000D02*
X192195000Y-72180000D01*
X191195000Y-62450000D02*
X191195000Y-64990000D01*
X190385000Y-72180000D02*
X190385000Y-70180000D01*
X190385000Y-67100000D02*
X190385000Y-65100000D01*
X190385000Y-84990000D02*
X199205000Y-84990000D01*
X197495000Y-79340000D02*
X197495000Y-78260000D01*
X197495000Y-63360000D02*
X197495000Y-64100000D01*
X189585000Y-81640000D02*
X189585000Y-81040000D01*
X199205000Y-84990000D02*
X199205000Y-62450000D01*
X192195000Y-82340000D02*
X190385000Y-82340000D01*
X192195000Y-84080000D02*
X192195000Y-63360000D01*
X192195000Y-67100000D02*
X190385000Y-67100000D01*
X190385000Y-65100000D02*
X192195000Y-65100000D01*
X191195000Y-75260000D02*
X191195000Y-72180000D01*
X189585000Y-81040000D02*
X190185000Y-81340000D01*
X197495000Y-74260000D02*
X197495000Y-73180000D01*
X192195000Y-75260000D02*
X192195000Y-77260000D01*
X192195000Y-63360000D02*
X197495000Y-63360000D01*
X191195000Y-84990000D02*
X191195000Y-82450000D01*
X192195000Y-72180000D02*
X190385000Y-72180000D01*
X190385000Y-82340000D02*
X190385000Y-80340000D01*
X192195000Y-80340000D02*
X192195000Y-82340000D01*
X197495000Y-69180000D02*
X197495000Y-68100000D01*
X190385000Y-75260000D02*
X192195000Y-75260000D01*
X191195000Y-70180000D02*
X191195000Y-67100000D01*
X190385000Y-77260000D02*
X190385000Y-75260000D01*
X199205000Y-62450000D02*
X190385000Y-62450000D01*
X197495000Y-83340000D02*
X197495000Y-84080000D01*
X192195000Y-77260000D02*
X190385000Y-77260000D01*
X192195000Y-65100000D02*
X192195000Y-67100000D01*
X197495000Y-84080000D02*
X192195000Y-84080000D01*
X190385000Y-80340000D02*
X192195000Y-80340000D01*
X190385000Y-62450000D02*
X190385000Y-84990000D01*
X190385000Y-70180000D02*
X192195000Y-70180000D01*
X191195000Y-80340000D02*
X191195000Y-77260000D01*
X190185000Y-81340000D02*
X189585000Y-81640000D01*
X197495000Y-83340000D02*
G75*
G03*
X197510821Y-79353158I-1650000J2000000D01*
G01*
X197495000Y-78260000D02*
G75*
G03*
X197510821Y-74273158I-1650000J2000000D01*
G01*
X197495000Y-68100000D02*
G75*
G03*
X197510821Y-64113158I-1650000J2000000D01*
G01*
X197495000Y-73180000D02*
G75*
G03*
X197510821Y-69193158I-1650000J2000000D01*
G01*
D22*
%TO.C,U3*%
X123747475Y-137820000D02*
X123747475Y-122580000D01*
X150417475Y-122580000D02*
X150417475Y-137820000D01*
X147877475Y-140360000D02*
X126287475Y-140360000D01*
X126287475Y-120040000D02*
X147877475Y-120040000D01*
X147877475Y-140360000D02*
G75*
G03*
X150417475Y-137820000I1J2539999D01*
G01*
X123747475Y-137820000D02*
G75*
G03*
X126287475Y-140360000I2540001J1D01*
G01*
X150417477Y-122580000D02*
G75*
G03*
X147877475Y-120040000I-2540001J-1D01*
G01*
X126287475Y-120040000D02*
G75*
G03*
X123747475Y-122580000I1J-2540001D01*
G01*
D20*
%TO.C,D1*%
X180305000Y-120786051D02*
X183585000Y-120786051D01*
X183585000Y-120786051D02*
X183585000Y-118946051D01*
X184765000Y-119866051D02*
X183585000Y-119866051D01*
X180305000Y-118946051D02*
X180305000Y-120786051D01*
X183585000Y-118946051D02*
X180305000Y-118946051D01*
X180761000Y-118946051D02*
X180761000Y-120786051D01*
X179125000Y-119866051D02*
X180305000Y-119866051D01*
X181001000Y-118946051D02*
X181001000Y-120786051D01*
X180881000Y-118946051D02*
X180881000Y-120786051D01*
%TO.C,R10*%
X192310000Y-128543115D02*
X192310000Y-124188987D01*
X188890000Y-128543115D02*
X188890000Y-124188987D01*
%TO.C,D3*%
X149085000Y-119426051D02*
X149085000Y-117506051D01*
X149085000Y-117506051D02*
X146225000Y-117506051D01*
X146225000Y-119426051D02*
X149085000Y-119426051D01*
%TO.C,R13*%
X180772936Y-80565000D02*
X181227064Y-80565000D01*
X180772936Y-82035000D02*
X181227064Y-82035000D01*
%TO.C,D2*%
X150425000Y-119426051D02*
X153285000Y-119426051D01*
X153285000Y-119426051D02*
X153285000Y-117506051D01*
X153285000Y-117506051D02*
X150425000Y-117506051D01*
%TO.C,J3*%
X194872500Y-130006051D02*
X194872500Y-126926051D01*
X202882500Y-117196051D02*
X194062500Y-117196051D01*
X195872500Y-124926051D02*
X195872500Y-126926051D01*
X195872500Y-138826051D02*
X195872500Y-118106051D01*
X194062500Y-139736051D02*
X202882500Y-139736051D01*
X195872500Y-121846051D02*
X194062500Y-121846051D01*
X194062500Y-135086051D02*
X195872500Y-135086051D01*
X201172500Y-118106051D02*
X201172500Y-118846051D01*
X194062500Y-132006051D02*
X194062500Y-130006051D01*
X194872500Y-135086051D02*
X194872500Y-132006051D01*
X194062500Y-126926051D02*
X194062500Y-124926051D01*
X201172500Y-134086051D02*
X201172500Y-133006051D01*
X201172500Y-138826051D02*
X195872500Y-138826051D01*
X195872500Y-126926051D02*
X194062500Y-126926051D01*
X195872500Y-135086051D02*
X195872500Y-137086051D01*
X194872500Y-124926051D02*
X194872500Y-121846051D01*
X194062500Y-119846051D02*
X195872500Y-119846051D01*
X194062500Y-130006051D02*
X195872500Y-130006051D01*
X194872500Y-117196051D02*
X194872500Y-119736051D01*
X193262500Y-135786051D02*
X193862500Y-136086051D01*
X202882500Y-139736051D02*
X202882500Y-117196051D01*
X194872500Y-139736051D02*
X194872500Y-137196051D01*
X193862500Y-136086051D02*
X193262500Y-136386051D01*
X195872500Y-132006051D02*
X194062500Y-132006051D01*
X195872500Y-118106051D02*
X201172500Y-118106051D01*
X195872500Y-137086051D02*
X194062500Y-137086051D01*
X201172500Y-123926051D02*
X201172500Y-122846051D01*
X194062500Y-121846051D02*
X194062500Y-119846051D01*
X194062500Y-124926051D02*
X195872500Y-124926051D01*
X201172500Y-138086051D02*
X201172500Y-138826051D01*
X201172500Y-129006051D02*
X201172500Y-127926051D01*
X195872500Y-119846051D02*
X195872500Y-121846051D01*
X194062500Y-117196051D02*
X194062500Y-139736051D01*
X194062500Y-137086051D02*
X194062500Y-135086051D01*
X193262500Y-136386051D02*
X193262500Y-135786051D01*
X195872500Y-130006051D02*
X195872500Y-132006051D01*
X201172500Y-138086051D02*
G75*
G03*
X201188321Y-134099209I-1650000J2000000D01*
G01*
X201172500Y-127926051D02*
G75*
G03*
X201188321Y-123939209I-1650000J2000000D01*
G01*
X201172500Y-122846051D02*
G75*
G03*
X201188321Y-118859209I-1650000J2000000D01*
G01*
X201172500Y-133006051D02*
G75*
G03*
X201188321Y-129019209I-1650000J2000000D01*
G01*
%TO.C,C2*%
X175111252Y-125701051D02*
X174588748Y-125701051D01*
X175111252Y-124231051D02*
X174588748Y-124231051D01*
%TO.C,U6*%
X161450000Y-121456051D02*
X167460000Y-121456051D01*
X167460000Y-121456051D02*
X167460000Y-122716051D01*
X163700000Y-128276051D02*
X167460000Y-128276051D01*
X167460000Y-128276051D02*
X167460000Y-127016051D01*
%TO.C,R5*%
X146997936Y-116501051D02*
X147452064Y-116501051D01*
X146997936Y-115031051D02*
X147452064Y-115031051D01*
%TO.C,R3*%
X153072936Y-123301051D02*
X153527064Y-123301051D01*
X153072936Y-121831051D02*
X153527064Y-121831051D01*
%TO.C,D5*%
X167485000Y-120586051D02*
X167485000Y-118746051D01*
X164781000Y-118746051D02*
X164781000Y-120586051D01*
X163025000Y-119666051D02*
X164205000Y-119666051D01*
X168665000Y-119666051D02*
X167485000Y-119666051D01*
X167485000Y-118746051D02*
X164205000Y-118746051D01*
X164205000Y-118746051D02*
X164205000Y-120586051D01*
X164205000Y-120586051D02*
X167485000Y-120586051D01*
X164661000Y-118746051D02*
X164661000Y-120586051D01*
X164901000Y-118746051D02*
X164901000Y-120586051D01*
%TO.C,J5*%
X179760000Y-139798551D02*
X192140000Y-139798551D01*
X183410000Y-130778551D02*
X183110000Y-130178551D01*
X192140000Y-130978551D02*
X179760000Y-130978551D01*
X181410000Y-138088551D02*
X180670000Y-138088551D01*
X184410000Y-132788551D02*
X182410000Y-132788551D01*
X184410000Y-131788551D02*
X187490000Y-131788551D01*
X179760000Y-130978551D02*
X179760000Y-139798551D01*
X185410000Y-138088551D02*
X186490000Y-138088551D01*
X187490000Y-130978551D02*
X189490000Y-130978551D01*
X189490000Y-132788551D02*
X187490000Y-132788551D01*
X192140000Y-139798551D02*
X192140000Y-130978551D01*
X183710000Y-130178551D02*
X183410000Y-130778551D01*
X191230000Y-132788551D02*
X191230000Y-138088551D01*
X191230000Y-138088551D02*
X190490000Y-138088551D01*
X182410000Y-130978551D02*
X184410000Y-130978551D01*
X182410000Y-132788551D02*
X182410000Y-130978551D01*
X183110000Y-130178551D02*
X183710000Y-130178551D01*
X189490000Y-130978551D02*
X189490000Y-132788551D01*
X184410000Y-130978551D02*
X184410000Y-132788551D01*
X180670000Y-132788551D02*
X191230000Y-132788551D01*
X179760000Y-131788551D02*
X182300000Y-131788551D01*
X180670000Y-138088551D02*
X180670000Y-132788551D01*
X187490000Y-132788551D02*
X187490000Y-130978551D01*
X192140000Y-131788551D02*
X189600000Y-131788551D01*
X181410000Y-138088551D02*
G75*
G03*
X185396842Y-138104372I2000000J1650000D01*
G01*
X186490000Y-138088551D02*
G75*
G03*
X190476842Y-138104372I2000000J1650000D01*
G01*
%TO.C,R6*%
X169922936Y-133376051D02*
X174277064Y-133376051D01*
X169922936Y-129956051D02*
X174277064Y-129956051D01*
%TO.C,R11*%
X192310000Y-120243115D02*
X192310000Y-115888987D01*
X188890000Y-120243115D02*
X188890000Y-115888987D01*
%TO.C,R9*%
X185327064Y-77965000D02*
X184872936Y-77965000D01*
X185327064Y-79435000D02*
X184872936Y-79435000D01*
%TO.C,J11*%
X148770000Y-57970000D02*
X148770000Y-60630000D01*
X164130000Y-57970000D02*
X164130000Y-59300000D01*
X162800000Y-57970000D02*
X164130000Y-57970000D01*
X161530000Y-57970000D02*
X148770000Y-57970000D01*
X161530000Y-60630000D02*
X148770000Y-60630000D01*
X161530000Y-57970000D02*
X161530000Y-60630000D01*
D22*
%TO.C,U1*%
X131253949Y-63683949D02*
X131253949Y-77653949D01*
X128713949Y-80193949D02*
X116013949Y-80193949D01*
X116013949Y-61143949D02*
X128713949Y-61143949D01*
X113473949Y-77653949D02*
X113473949Y-63683949D01*
X131253951Y-63683949D02*
G75*
G03*
X128713949Y-61143949I-2540001J-1D01*
G01*
X128713949Y-80193949D02*
G75*
G03*
X131253949Y-77653949I1J2539999D01*
G01*
X116013949Y-61143949D02*
G75*
G03*
X113473949Y-63683949I1J-2540001D01*
G01*
X113473949Y-77653949D02*
G75*
G03*
X116013949Y-80193949I2540001J1D01*
G01*
D18*
%TO.C,U8*%
X135047500Y-81970000D02*
X145347500Y-81970000D01*
X160147500Y-65870000D02*
X160147500Y-69170000D01*
X145347500Y-65870000D02*
X135047500Y-65870000D01*
X159847500Y-65870000D02*
X160147500Y-65870000D01*
X135047500Y-65870000D02*
X135047500Y-81970000D01*
X160147500Y-78670000D02*
X160147500Y-81970000D01*
X160147500Y-81970000D02*
X159847500Y-81970000D01*
D16*
X146097500Y-84220000D02*
G75*
G03*
X146097500Y-84220000I-100000J0D01*
G01*
D20*
%TO.C,U4*%
X148117500Y-98720000D02*
X148117500Y-99120000D01*
X163617500Y-89720000D02*
X163217500Y-89720000D01*
X189017500Y-110720000D02*
X188617500Y-110720000D01*
X184017500Y-110720000D02*
X183617500Y-110720000D01*
X178917500Y-89720000D02*
X178517500Y-89720000D01*
X181417500Y-89720000D02*
X181017500Y-89720000D01*
X184017500Y-89720000D02*
X183617500Y-89720000D01*
X148117500Y-101320000D02*
X148117500Y-101720000D01*
X176317500Y-89720000D02*
X175917500Y-89720000D01*
X199117500Y-89720000D02*
X198817500Y-89720000D01*
X158517500Y-110720000D02*
X158117500Y-110720000D01*
X176317500Y-110720000D02*
X175917500Y-110720000D01*
X156017500Y-110720000D02*
X155617500Y-110720000D01*
X156017500Y-89720000D02*
X155617500Y-89720000D01*
X161117500Y-89720000D02*
X160717500Y-89720000D01*
X194117500Y-110720000D02*
X193717500Y-110720000D01*
X150917500Y-89720000D02*
X150517500Y-89720000D01*
X199117500Y-110720000D02*
X198817500Y-110720000D01*
X150917500Y-110720000D02*
X150517500Y-110720000D01*
X181417500Y-110720000D02*
X181017500Y-110720000D01*
X191617500Y-89720000D02*
X191217500Y-89720000D01*
X196450500Y-92727000D02*
X199117500Y-92727000D01*
X186517500Y-89720000D02*
X186117500Y-89720000D01*
X196450500Y-89720000D02*
X196450500Y-92727000D01*
X196717500Y-89720000D02*
X196317500Y-89720000D01*
X148117500Y-110720000D02*
X148117500Y-103920000D01*
X186517500Y-110720000D02*
X186117500Y-110720000D01*
X178917500Y-110720000D02*
X178517500Y-110720000D01*
X166217500Y-89720000D02*
X165817500Y-89720000D01*
X191617500Y-110720000D02*
X191217500Y-110720000D01*
X163617500Y-110720000D02*
X163217500Y-110720000D01*
X148117500Y-96520000D02*
X148117500Y-89720000D01*
X168717500Y-89720000D02*
X168317500Y-89720000D01*
X153517500Y-110720000D02*
X153117500Y-110720000D01*
X166217500Y-110720000D02*
X165817500Y-110720000D01*
X171317500Y-110720000D02*
X170917500Y-110720000D01*
X153517500Y-89720000D02*
X153117500Y-89720000D01*
X173817500Y-110720000D02*
X173417500Y-110720000D01*
X196717500Y-110720000D02*
X196317500Y-110720000D01*
X171317500Y-89720000D02*
X170917500Y-89720000D01*
X168717500Y-110720000D02*
X168317500Y-110720000D01*
X189017500Y-89720000D02*
X188617500Y-89720000D01*
X199117500Y-89720000D02*
X199117500Y-110720000D01*
X158517500Y-89720000D02*
X158117500Y-89720000D01*
X173817500Y-89720000D02*
X173417500Y-89720000D01*
X194117500Y-89720000D02*
X193717500Y-89720000D01*
X161117500Y-110720000D02*
X160717500Y-110720000D01*
%TO.C,TP2*%
X171100000Y-137066051D02*
G75*
G03*
X171100000Y-137066051I-2250000J0D01*
G01*
%TO.C,Q1*%
X154960000Y-126466051D02*
X154960000Y-124791051D01*
X151840000Y-126466051D02*
X151840000Y-127116051D01*
X151840000Y-126466051D02*
X151840000Y-125816051D01*
X154960000Y-126466051D02*
X154960000Y-127116051D01*
%TO.C,J7*%
X108780000Y-111290000D02*
X108780000Y-118970000D01*
X106120000Y-108690000D02*
X107450000Y-108690000D01*
X106120000Y-111290000D02*
X106120000Y-118970000D01*
X106120000Y-111290000D02*
X108780000Y-111290000D01*
X106120000Y-118970000D02*
X108780000Y-118970000D01*
X106120000Y-110020000D02*
X106120000Y-108690000D01*
%TO.C,R2*%
X166865000Y-83272936D02*
X166865000Y-83727064D01*
X168335000Y-83272936D02*
X168335000Y-83727064D01*
%TO.C,TP1*%
X177500000Y-137066051D02*
G75*
G03*
X177500000Y-137066051I-2250000J0D01*
G01*
%TO.C,C3*%
X158811252Y-128201051D02*
X158288748Y-128201051D01*
X158811252Y-126731051D02*
X158288748Y-126731051D01*
%TO.C,D6*%
X157650000Y-120626051D02*
X160510000Y-120626051D01*
X160510000Y-120626051D02*
X160510000Y-118706051D01*
X160510000Y-118706051D02*
X157650000Y-118706051D01*
%TO.C,J8*%
X165920000Y-68470000D02*
X165920000Y-71130000D01*
X181280000Y-68470000D02*
X181280000Y-69800000D01*
X179950000Y-68470000D02*
X181280000Y-68470000D01*
X178680000Y-68470000D02*
X178680000Y-71130000D01*
X178680000Y-71130000D02*
X165920000Y-71130000D01*
X178680000Y-68470000D02*
X165920000Y-68470000D01*
%TO.C,R1*%
X170935000Y-83172936D02*
X170935000Y-83627064D01*
X169465000Y-83172936D02*
X169465000Y-83627064D01*
%TO.C,J2*%
X184572500Y-67830000D02*
X184872500Y-67230000D01*
X188522500Y-67030000D02*
X188522500Y-58210000D01*
X166892500Y-65220000D02*
X166892500Y-59920000D01*
X183872500Y-65220000D02*
X185872500Y-65220000D01*
X175712500Y-65220000D02*
X175712500Y-67030000D01*
X165982500Y-67030000D02*
X188522500Y-67030000D01*
X172712500Y-59920000D02*
X171632500Y-59920000D01*
X170632500Y-67030000D02*
X168632500Y-67030000D01*
X165982500Y-66220000D02*
X168522500Y-66220000D01*
X177792500Y-59920000D02*
X176712500Y-59920000D01*
X182872500Y-59920000D02*
X181792500Y-59920000D01*
X173712500Y-67030000D02*
X173712500Y-65220000D01*
X173712500Y-65220000D02*
X175712500Y-65220000D01*
X178792500Y-65220000D02*
X180792500Y-65220000D01*
X185172500Y-67830000D02*
X184572500Y-67830000D01*
X187612500Y-59920000D02*
X187612500Y-65220000D01*
X180792500Y-67030000D02*
X178792500Y-67030000D01*
X168632500Y-65220000D02*
X170632500Y-65220000D01*
X184872500Y-67230000D02*
X185172500Y-67830000D01*
X187612500Y-65220000D02*
X166892500Y-65220000D01*
X168632500Y-67030000D02*
X168632500Y-65220000D01*
X178792500Y-67030000D02*
X178792500Y-65220000D01*
X183872500Y-67030000D02*
X183872500Y-65220000D01*
X166892500Y-59920000D02*
X167632500Y-59920000D01*
X183872500Y-66220000D02*
X180792500Y-66220000D01*
X180792500Y-65220000D02*
X180792500Y-67030000D01*
X173712500Y-66220000D02*
X170632500Y-66220000D01*
X178792500Y-66220000D02*
X175712500Y-66220000D01*
X165982500Y-58210000D02*
X165982500Y-67030000D01*
X188522500Y-66220000D02*
X185982500Y-66220000D01*
X188522500Y-58210000D02*
X165982500Y-58210000D01*
X185872500Y-67030000D02*
X183872500Y-67030000D01*
X170632500Y-65220000D02*
X170632500Y-67030000D01*
X185872500Y-65220000D02*
X185872500Y-67030000D01*
X175712500Y-67030000D02*
X173712500Y-67030000D01*
X186872500Y-59920000D02*
X187612500Y-59920000D01*
X181792500Y-59920000D02*
G75*
G03*
X177805658Y-59904179I-2000000J-1650000D01*
G01*
X176712500Y-59920000D02*
G75*
G03*
X172725658Y-59904179I-2000000J-1650000D01*
G01*
X186872500Y-59920000D02*
G75*
G03*
X182885658Y-59904179I-2000000J-1650000D01*
G01*
X171632500Y-59920000D02*
G75*
G03*
X167645658Y-59904179I-2000000J-1650000D01*
G01*
%TO.C,BZ1*%
X112800000Y-67800000D02*
G75*
G03*
X112800000Y-67800000I-6100000J0D01*
G01*
D22*
%TO.C,U2*%
X108190000Y-119920000D02*
X120890000Y-119920000D01*
X105650000Y-136430000D02*
X105650000Y-122460000D01*
X120890000Y-138970000D02*
X108190000Y-138970000D01*
X123430000Y-122460000D02*
X123430000Y-136430000D01*
X123430000Y-122460000D02*
G75*
G03*
X120890000Y-119920000I-2540000J0D01*
G01*
X105650000Y-136430000D02*
G75*
G03*
X108190000Y-138970000I2540001J1D01*
G01*
X108190000Y-119920000D02*
G75*
G03*
X105650000Y-122460000I1J-2540001D01*
G01*
X120890000Y-138970000D02*
G75*
G03*
X123430000Y-136430000I0J2540000D01*
G01*
D20*
%TO.C,R4*%
X151197936Y-115131051D02*
X151652064Y-115131051D01*
X151197936Y-116601051D02*
X151652064Y-116601051D01*
%TD*%
M02*
