%TF.GenerationSoftware,KiCad,Pcbnew,6.0.11-2627ca5db0~126~ubuntu20.04.1*%
%TF.CreationDate,2023-05-10T16:13:11+05:30*%
%TF.ProjectId,MVCU_F407,4d564355-5f46-4343-9037-2e6b69636164,rev?*%
%TF.SameCoordinates,Original*%
%TF.FileFunction,Soldermask,Top*%
%TF.FilePolarity,Negative*%
%FSLAX46Y46*%
G04 Gerber Fmt 4.6, Leading zero omitted, Abs format (unit mm)*
G04 Created by KiCad (PCBNEW 6.0.11-2627ca5db0~126~ubuntu20.04.1) date 2023-05-10 16:13:11*
%MOMM*%
%LPD*%
G01*
G04 APERTURE LIST*
G04 Aperture macros list*
%AMRoundRect*
0 Rectangle with rounded corners*
0 $1 Rounding radius*
0 $2 $3 $4 $5 $6 $7 $8 $9 X,Y pos of 4 corners*
0 Add a 4 corners polygon primitive as box body*
4,1,4,$2,$3,$4,$5,$6,$7,$8,$9,$2,$3,0*
0 Add four circle primitives for the rounded corners*
1,1,$1+$1,$2,$3*
1,1,$1+$1,$4,$5*
1,1,$1+$1,$6,$7*
1,1,$1+$1,$8,$9*
0 Add four rect primitives between the rounded corners*
20,1,$1+$1,$2,$3,$4,$5,0*
20,1,$1+$1,$4,$5,$6,$7,0*
20,1,$1+$1,$6,$7,$8,$9,0*
20,1,$1+$1,$8,$9,$2,$3,0*%
%AMHorizOval*
0 Thick line with rounded ends*
0 $1 width*
0 $2 $3 position (X,Y) of the first rounded end (center of the circle)*
0 $4 $5 position (X,Y) of the second rounded end (center of the circle)*
0 Add line between two ends*
20,1,$1,$2,$3,$4,$5,0*
0 Add two circle primitives to create the rounded ends*
1,1,$1,$2,$3*
1,1,$1,$4,$5*%
%AMRotRect*
0 Rectangle, with rotation*
0 The origin of the aperture is its center*
0 $1 length*
0 $2 width*
0 $3 Rotation angle, in degrees counterclockwise*
0 Add horizontal line*
21,1,$1,$2,0,0,$3*%
%AMOutline5P*
0 Free polygon, 5 corners , with rotation*
0 The origin of the aperture is its center*
0 number of corners: always 5*
0 $1 to $10 corner X, Y*
0 $11 Rotation angle, in degrees counterclockwise*
0 create outline with 5 corners*
4,1,5,$1,$2,$3,$4,$5,$6,$7,$8,$9,$10,$1,$2,$11*%
%AMOutline6P*
0 Free polygon, 6 corners , with rotation*
0 The origin of the aperture is its center*
0 number of corners: always 6*
0 $1 to $12 corner X, Y*
0 $13 Rotation angle, in degrees counterclockwise*
0 create outline with 6 corners*
4,1,6,$1,$2,$3,$4,$5,$6,$7,$8,$9,$10,$11,$12,$1,$2,$13*%
%AMOutline7P*
0 Free polygon, 7 corners , with rotation*
0 The origin of the aperture is its center*
0 number of corners: always 7*
0 $1 to $14 corner X, Y*
0 $15 Rotation angle, in degrees counterclockwise*
0 create outline with 7 corners*
4,1,7,$1,$2,$3,$4,$5,$6,$7,$8,$9,$10,$11,$12,$13,$14,$1,$2,$15*%
%AMOutline8P*
0 Free polygon, 8 corners , with rotation*
0 The origin of the aperture is its center*
0 number of corners: always 8*
0 $1 to $16 corner X, Y*
0 $17 Rotation angle, in degrees counterclockwise*
0 create outline with 8 corners*
4,1,8,$1,$2,$3,$4,$5,$6,$7,$8,$9,$10,$11,$12,$13,$14,$15,$16,$1,$2,$17*%
G04 Aperture macros list end*
%ADD10RoundRect,0.250000X-0.450000X0.325000X-0.450000X-0.325000X0.450000X-0.325000X0.450000X0.325000X0*%
%ADD11RoundRect,0.250000X-0.450000X0.350000X-0.450000X-0.350000X0.450000X-0.350000X0.450000X0.350000X0*%
%ADD12RoundRect,0.250000X0.325000X0.450000X-0.325000X0.450000X-0.325000X-0.450000X0.325000X-0.450000X0*%
%ADD13R,1.600000X1.600000*%
%ADD14O,1.600000X1.600000*%
%ADD15RoundRect,0.250000X-0.070711X0.565685X-0.565685X0.070711X0.070711X-0.565685X0.565685X-0.070711X0*%
%ADD16RoundRect,0.250000X0.574524X0.097227X0.097227X0.574524X-0.574524X-0.097227X-0.097227X-0.574524X0*%
%ADD17C,2.800000*%
%ADD18RoundRect,0.250000X-0.350000X-0.450000X0.350000X-0.450000X0.350000X0.450000X-0.350000X0.450000X0*%
%ADD19C,4.000000*%
%ADD20C,1.600000*%
%ADD21RoundRect,0.250000X-0.325000X-0.450000X0.325000X-0.450000X0.325000X0.450000X-0.325000X0.450000X0*%
%ADD22RoundRect,0.250000X-0.097227X0.574524X-0.574524X0.097227X0.097227X-0.574524X0.574524X-0.097227X0*%
%ADD23RoundRect,0.250000X0.350000X0.450000X-0.350000X0.450000X-0.350000X-0.450000X0.350000X-0.450000X0*%
%ADD24C,1.727200*%
%ADD25RoundRect,0.250000X0.337500X0.475000X-0.337500X0.475000X-0.337500X-0.475000X0.337500X-0.475000X0*%
%ADD26RoundRect,0.250000X-0.337500X-0.475000X0.337500X-0.475000X0.337500X0.475000X-0.337500X0.475000X0*%
%ADD27C,5.600000*%
%ADD28R,1.700000X1.700000*%
%ADD29O,1.700000X1.700000*%
%ADD30R,2.000000X1.500000*%
%ADD31R,2.000000X3.800000*%
%ADD32R,0.700000X1.200000*%
%ADD33R,1.000000X0.800000*%
%ADD34R,1.300000X1.900000*%
%ADD35R,1.000000X1.200000*%
%ADD36R,1.000000X2.800000*%
%ADD37RoundRect,0.250000X0.097227X-0.574524X0.574524X-0.097227X-0.097227X0.574524X-0.574524X0.097227X0*%
%ADD38RoundRect,0.250000X0.475000X-0.337500X0.475000X0.337500X-0.475000X0.337500X-0.475000X-0.337500X0*%
%ADD39RoundRect,0.250000X-0.750000X-1.550000X0.750000X-1.550000X0.750000X1.550000X-0.750000X1.550000X0*%
%ADD40O,2.000000X3.600000*%
%ADD41RoundRect,0.250000X-0.574524X-0.097227X-0.097227X-0.574524X0.574524X0.097227X0.097227X0.574524X0*%
%ADD42RoundRect,0.250000X0.565685X0.070711X0.070711X0.565685X-0.565685X-0.070711X-0.070711X-0.565685X0*%
%ADD43Outline5P,-0.500000X0.450000X0.230000X0.450000X0.500000X0.180000X0.500000X-0.450000X-0.500000X-0.450000X225.000000*%
%ADD44RotRect,1.000000X0.900000X225.000000*%
%ADD45RoundRect,0.075000X-0.565685X0.459619X0.459619X-0.565685X0.565685X-0.459619X-0.459619X0.565685X0*%
%ADD46RoundRect,0.075000X-0.565685X-0.459619X-0.459619X-0.565685X0.565685X0.459619X0.459619X0.565685X0*%
%ADD47C,2.000000*%
%ADD48RotRect,1.700000X1.700000X225.000000*%
%ADD49HorizOval,1.700000X0.000000X0.000000X0.000000X0.000000X0*%
%ADD50C,1.524000*%
%ADD51RoundRect,0.150000X-0.825000X-0.150000X0.825000X-0.150000X0.825000X0.150000X-0.825000X0.150000X0*%
%ADD52RoundRect,0.150000X0.825000X0.150000X-0.825000X0.150000X-0.825000X-0.150000X0.825000X-0.150000X0*%
%ADD53RoundRect,0.250000X0.450000X-0.350000X0.450000X0.350000X-0.450000X0.350000X-0.450000X-0.350000X0*%
G04 APERTURE END LIST*
D10*
%TO.C,D5*%
X127275000Y-61675000D03*
X127275000Y-63725000D03*
%TD*%
D11*
%TO.C,R17*%
X115275000Y-66200000D03*
X115275000Y-68200000D03*
%TD*%
D12*
%TO.C,D11*%
X95425000Y-77150000D03*
X93375000Y-77150000D03*
%TD*%
D13*
%TO.C,U1*%
X162371000Y-38394000D03*
D14*
X162371000Y-40934000D03*
X162371000Y-43474000D03*
X162371000Y-46014000D03*
X162371000Y-48554000D03*
X162371000Y-51094000D03*
X162371000Y-53634000D03*
X169991000Y-53634000D03*
X169991000Y-51094000D03*
X169991000Y-48554000D03*
X169991000Y-46014000D03*
X169991000Y-43474000D03*
X169991000Y-40934000D03*
X169991000Y-38394000D03*
%TD*%
D15*
%TO.C,R1*%
X138508107Y-81757893D03*
X137093893Y-83172107D03*
%TD*%
D16*
%TO.C,C13*%
X124601139Y-80358353D03*
X123133893Y-78891107D03*
%TD*%
D17*
%TO.C,+Vin*%
X130054000Y-51223000D03*
%TD*%
D18*
%TO.C,R5*%
X172671000Y-50919000D03*
X174671000Y-50919000D03*
%TD*%
D17*
%TO.C,-Vin*%
X125355000Y-51350000D03*
%TD*%
D10*
%TO.C,D2*%
X136275000Y-61675000D03*
X136275000Y-63725000D03*
%TD*%
D19*
%TO.C,J6*%
X183606107Y-76656893D03*
X183606107Y-101656893D03*
D13*
X182186107Y-94696893D03*
D20*
X182186107Y-91926893D03*
X182186107Y-89156893D03*
X182186107Y-86386893D03*
X182186107Y-83616893D03*
X185026107Y-93311893D03*
X185026107Y-90541893D03*
X185026107Y-87771893D03*
X185026107Y-85001893D03*
%TD*%
D11*
%TO.C,R12*%
X130275000Y-66200000D03*
X130275000Y-68200000D03*
%TD*%
D18*
%TO.C,R19*%
X93400000Y-74350000D03*
X95400000Y-74350000D03*
%TD*%
D21*
%TO.C,D13*%
X104509000Y-93985500D03*
X106559000Y-93985500D03*
%TD*%
D22*
%TO.C,C6*%
X129246406Y-106156754D03*
X127779160Y-107624000D03*
%TD*%
D23*
%TO.C,R22*%
X106534000Y-90985500D03*
X104534000Y-90985500D03*
%TD*%
D24*
%TO.C,U9*%
X75100660Y-106648200D03*
X77102180Y-106648200D03*
X79101160Y-106648200D03*
X81102680Y-106648200D03*
X83101660Y-106648200D03*
X85100640Y-106648200D03*
X87102160Y-106648200D03*
X89101140Y-106648200D03*
X91102660Y-106648200D03*
X93101640Y-106648200D03*
X93101640Y-84651800D03*
X91102660Y-84651800D03*
X89101140Y-84651800D03*
X87102160Y-84651800D03*
X85100640Y-84651800D03*
X83101660Y-84651800D03*
X81102680Y-84651800D03*
X79101160Y-84651800D03*
X77102180Y-84651800D03*
X75100660Y-84651800D03*
%TD*%
D11*
%TO.C,R11*%
X133275000Y-66200000D03*
X133275000Y-68200000D03*
%TD*%
D13*
%TO.C,U10*%
X158995000Y-79300000D03*
D20*
X161535000Y-79300000D03*
X164075000Y-79300000D03*
X166615000Y-79300000D03*
X169155000Y-79300000D03*
X169155000Y-64060000D03*
X166615000Y-64060000D03*
X164075000Y-64060000D03*
X161535000Y-64060000D03*
X158995000Y-64060000D03*
%TD*%
D25*
%TO.C,C26*%
X96512500Y-52950000D03*
X94437500Y-52950000D03*
%TD*%
D11*
%TO.C,R18*%
X112275000Y-66200000D03*
X112275000Y-68200000D03*
%TD*%
D26*
%TO.C,C19*%
X85074500Y-110200000D03*
X87149500Y-110200000D03*
%TD*%
D25*
%TO.C,C23*%
X96512500Y-58150000D03*
X94437500Y-58150000D03*
%TD*%
D26*
%TO.C,C25*%
X164701500Y-110399500D03*
X166776500Y-110399500D03*
%TD*%
D10*
%TO.C,D3*%
X133275000Y-61675000D03*
X133275000Y-63725000D03*
%TD*%
D27*
%TO.C,H4*%
X176155000Y-41444000D03*
%TD*%
D16*
%TO.C,C10*%
X144161730Y-97541516D03*
X142694484Y-96074270D03*
%TD*%
D27*
%TO.C,H2*%
X66932107Y-118792893D03*
%TD*%
D16*
%TO.C,C2*%
X126469623Y-78499623D03*
X125002377Y-77032377D03*
%TD*%
D23*
%TO.C,R4*%
X159771000Y-48719000D03*
X157771000Y-48719000D03*
%TD*%
%TO.C,R2*%
X159871000Y-41119000D03*
X157871000Y-41119000D03*
%TD*%
D28*
%TO.C,J2*%
X114425000Y-103525000D03*
D29*
X114425000Y-106065000D03*
X114425000Y-108605000D03*
X114425000Y-111145000D03*
X114425000Y-113685000D03*
%TD*%
D19*
%TO.C,J7*%
X104222107Y-132632562D03*
X129222107Y-132632562D03*
D13*
X111182107Y-131212562D03*
D20*
X113952107Y-131212562D03*
X116722107Y-131212562D03*
X119492107Y-131212562D03*
X122262107Y-131212562D03*
X112567107Y-134052562D03*
X115337107Y-134052562D03*
X118107107Y-134052562D03*
X120877107Y-134052562D03*
%TD*%
D10*
%TO.C,D6*%
X124275000Y-61675000D03*
X124275000Y-63725000D03*
%TD*%
D25*
%TO.C,C17*%
X96412500Y-67350000D03*
X94337500Y-67350000D03*
%TD*%
D30*
%TO.C,U6*%
X99625000Y-53250000D03*
X99625000Y-55550000D03*
D31*
X105925000Y-55550000D03*
D30*
X99625000Y-57850000D03*
%TD*%
D11*
%TO.C,R7*%
X148977000Y-93657000D03*
X148977000Y-95657000D03*
%TD*%
%TO.C,R13*%
X127275000Y-66200000D03*
X127275000Y-68200000D03*
%TD*%
D19*
%TO.C,J11*%
X184125776Y-39156893D03*
X184125776Y-64156893D03*
D13*
X182705776Y-57196893D03*
D20*
X182705776Y-54426893D03*
X182705776Y-51656893D03*
X182705776Y-48886893D03*
X182705776Y-46116893D03*
X185545776Y-55811893D03*
X185545776Y-53041893D03*
X185545776Y-50271893D03*
X185545776Y-47501893D03*
%TD*%
D28*
%TO.C,J20*%
X161677000Y-120565000D03*
%TD*%
%TO.C,J13*%
X155400000Y-90200000D03*
D29*
X157940000Y-90200000D03*
X160480000Y-90200000D03*
X163020000Y-90200000D03*
X165560000Y-90200000D03*
%TD*%
D13*
%TO.C,U3*%
X94922107Y-115282893D03*
X92382107Y-115282893D03*
X89842107Y-115282893D03*
X87302107Y-115282893D03*
X84762107Y-115282893D03*
X82222107Y-115282893D03*
X79682107Y-115282893D03*
X77142107Y-115282893D03*
X77142107Y-122902893D03*
X79682107Y-122902893D03*
X82222107Y-122902893D03*
X84762107Y-122902893D03*
X87302107Y-122902893D03*
X89842107Y-122902893D03*
X92382107Y-122902893D03*
X94922107Y-122902893D03*
%TD*%
D28*
%TO.C,J16*%
X127768000Y-41459000D03*
D29*
X127768000Y-43999000D03*
X127768000Y-46539000D03*
%TD*%
D28*
%TO.C,J10*%
X104625000Y-105500000D03*
D29*
X104625000Y-108040000D03*
X104625000Y-110580000D03*
X104625000Y-113120000D03*
%TD*%
D32*
%TO.C,J3*%
X144926000Y-54509000D03*
X146026000Y-54509000D03*
X147126000Y-54509000D03*
X148226000Y-54509000D03*
X149326000Y-54509000D03*
X150426000Y-54509000D03*
X151526000Y-54509000D03*
X152626000Y-54509000D03*
X153576000Y-54509000D03*
D33*
X154526000Y-44009000D03*
D34*
X141026000Y-39409000D03*
D35*
X143376000Y-54509000D03*
X154526000Y-50209000D03*
D36*
X154526000Y-39859000D03*
%TD*%
D37*
%TO.C,C7*%
X126255160Y-106100000D03*
X127722406Y-104632754D03*
%TD*%
D19*
%TO.C,J12*%
X183452669Y-139356893D03*
X183452669Y-114356893D03*
D13*
X182032669Y-132396893D03*
D20*
X182032669Y-129626893D03*
X182032669Y-126856893D03*
X182032669Y-124086893D03*
X182032669Y-121316893D03*
X184872669Y-131011893D03*
X184872669Y-128241893D03*
X184872669Y-125471893D03*
X184872669Y-122701893D03*
%TD*%
D25*
%TO.C,C18*%
X94269607Y-126392893D03*
X92194607Y-126392893D03*
%TD*%
D26*
%TO.C,C22*%
X80248500Y-110151000D03*
X82323500Y-110151000D03*
%TD*%
D28*
%TO.C,J21*%
X166657000Y-107455000D03*
%TD*%
D11*
%TO.C,R16*%
X118275000Y-66200000D03*
X118275000Y-68200000D03*
%TD*%
D10*
%TO.C,D9*%
X115275000Y-61675000D03*
X115275000Y-63725000D03*
%TD*%
D26*
%TO.C,C16*%
X90535500Y-110278000D03*
X92610500Y-110278000D03*
%TD*%
D13*
%TO.C,U8*%
X146105000Y-62327500D03*
D14*
X146105000Y-64867500D03*
X146105000Y-67407500D03*
X146105000Y-69947500D03*
X146105000Y-72487500D03*
X146105000Y-75027500D03*
X146105000Y-77567500D03*
X146105000Y-80107500D03*
X153725000Y-80107500D03*
X153725000Y-77567500D03*
X153725000Y-75027500D03*
X153725000Y-72487500D03*
X153725000Y-69947500D03*
X153725000Y-67407500D03*
X153725000Y-64867500D03*
X153725000Y-62327500D03*
%TD*%
D27*
%TO.C,H3*%
X66475000Y-85000000D03*
%TD*%
D17*
%TO.C,+5V*%
X111258000Y-51350000D03*
%TD*%
D38*
%TO.C,C3*%
X109861000Y-77152500D03*
X109861000Y-75077500D03*
%TD*%
D30*
%TO.C,U4*%
X99675000Y-62500000D03*
X99675000Y-64800000D03*
D31*
X105975000Y-64800000D03*
D30*
X99675000Y-67100000D03*
%TD*%
D10*
%TO.C,D4*%
X130275000Y-61675000D03*
X130275000Y-63725000D03*
%TD*%
D39*
%TO.C,J5*%
X114152107Y-44071500D03*
D40*
X119152107Y-44071500D03*
%TD*%
D41*
%TO.C,C8*%
X113291377Y-79766377D03*
X114758623Y-81233623D03*
%TD*%
D16*
%TO.C,C1*%
X122659623Y-82182623D03*
X121192377Y-80715377D03*
%TD*%
D22*
%TO.C,C14*%
X116358623Y-95666377D03*
X114891377Y-97133623D03*
%TD*%
D28*
%TO.C,J17*%
X88275000Y-67750000D03*
D29*
X88275000Y-70290000D03*
X85735000Y-67750000D03*
X85735000Y-70290000D03*
X83195000Y-67750000D03*
X83195000Y-70290000D03*
%TD*%
D11*
%TO.C,R20*%
X169932000Y-113723000D03*
X169932000Y-115723000D03*
%TD*%
D38*
%TO.C,C21*%
X98812000Y-123613000D03*
X98812000Y-121538000D03*
%TD*%
D22*
%TO.C,C11*%
X118136623Y-97317377D03*
X116669377Y-98784623D03*
%TD*%
D28*
%TO.C,J22*%
X166503000Y-120565000D03*
%TD*%
D10*
%TO.C,D1*%
X139275000Y-61675000D03*
X139275000Y-63725000D03*
%TD*%
D26*
%TO.C,C28*%
X75237500Y-110100000D03*
X77312500Y-110100000D03*
%TD*%
D41*
%TO.C,C5*%
X144218484Y-94423270D03*
X145685730Y-95890516D03*
%TD*%
D19*
%TO.C,J4*%
X67972107Y-132132562D03*
X92972107Y-132132562D03*
D13*
X74932107Y-130712562D03*
D20*
X77702107Y-130712562D03*
X80472107Y-130712562D03*
X83242107Y-130712562D03*
X86012107Y-130712562D03*
X76317107Y-133552562D03*
X79087107Y-133552562D03*
X81857107Y-133552562D03*
X84627107Y-133552562D03*
%TD*%
D28*
%TO.C,J14*%
X122925000Y-112700000D03*
D29*
X125465000Y-112700000D03*
X128005000Y-112700000D03*
X130545000Y-112700000D03*
%TD*%
D23*
%TO.C,R25*%
X121325000Y-118400000D03*
X119325000Y-118400000D03*
%TD*%
D21*
%TO.C,D12*%
X87975000Y-77200000D03*
X90025000Y-77200000D03*
%TD*%
D27*
%TO.C,H1*%
X174425000Y-134100000D03*
%TD*%
D28*
%TO.C,J18*%
X83975000Y-76300000D03*
D29*
X81435000Y-76300000D03*
X78895000Y-76300000D03*
%TD*%
D17*
%TO.C,3V3*%
X116084000Y-51350000D03*
%TD*%
D25*
%TO.C,C20*%
X96412500Y-62200000D03*
X94337500Y-62200000D03*
%TD*%
D42*
%TO.C,R3*%
X120728107Y-84188107D03*
X119313893Y-82773893D03*
%TD*%
D11*
%TO.C,R9*%
X139275000Y-66200000D03*
X139275000Y-68200000D03*
%TD*%
%TO.C,R14*%
X124275000Y-66200000D03*
X124275000Y-68200000D03*
%TD*%
D19*
%TO.C,J8*%
X166322107Y-132682562D03*
X141322107Y-132682562D03*
D13*
X148282107Y-131262562D03*
D20*
X151052107Y-131262562D03*
X153822107Y-131262562D03*
X156592107Y-131262562D03*
X159362107Y-131262562D03*
X149667107Y-134102562D03*
X152437107Y-134102562D03*
X155207107Y-134102562D03*
X157977107Y-134102562D03*
%TD*%
D10*
%TO.C,D10*%
X112275000Y-61675000D03*
X112275000Y-63725000D03*
%TD*%
D11*
%TO.C,R8*%
X151644000Y-93657000D03*
X151644000Y-95657000D03*
%TD*%
D43*
%TO.C,Y1*%
X116513388Y-76880996D03*
D44*
X115240596Y-78153788D03*
X116336612Y-79249803D03*
X117609404Y-77969940D03*
%TD*%
D21*
%TO.C,D14*%
X104592786Y-87925714D03*
X106642786Y-87925714D03*
%TD*%
D45*
%TO.C,U2*%
X129347703Y-82923208D03*
X128994150Y-83276761D03*
X128640596Y-83630315D03*
X128287043Y-83983868D03*
X127933490Y-84337421D03*
X127579936Y-84690975D03*
X127226383Y-85044528D03*
X126872829Y-85398082D03*
X126519276Y-85751635D03*
X126165723Y-86105188D03*
X125812169Y-86458742D03*
X125458616Y-86812295D03*
X125105062Y-87165848D03*
X124751509Y-87519402D03*
X124397956Y-87872955D03*
X124044402Y-88226509D03*
X123690849Y-88580062D03*
X123337296Y-88933615D03*
X122983742Y-89287169D03*
X122630189Y-89640722D03*
X122276635Y-89994276D03*
X121923082Y-90347829D03*
X121569529Y-90701382D03*
X121215975Y-91054936D03*
X120862422Y-91408489D03*
D46*
X120862422Y-93777297D03*
X121215975Y-94130850D03*
X121569529Y-94484404D03*
X121923082Y-94837957D03*
X122276635Y-95191510D03*
X122630189Y-95545064D03*
X122983742Y-95898617D03*
X123337296Y-96252171D03*
X123690849Y-96605724D03*
X124044402Y-96959277D03*
X124397956Y-97312831D03*
X124751509Y-97666384D03*
X125105062Y-98019938D03*
X125458616Y-98373491D03*
X125812169Y-98727044D03*
X126165723Y-99080598D03*
X126519276Y-99434151D03*
X126872829Y-99787704D03*
X127226383Y-100141258D03*
X127579936Y-100494811D03*
X127933490Y-100848365D03*
X128287043Y-101201918D03*
X128640596Y-101555471D03*
X128994150Y-101909025D03*
X129347703Y-102262578D03*
D45*
X131716511Y-102262578D03*
X132070064Y-101909025D03*
X132423618Y-101555471D03*
X132777171Y-101201918D03*
X133130724Y-100848365D03*
X133484278Y-100494811D03*
X133837831Y-100141258D03*
X134191385Y-99787704D03*
X134544938Y-99434151D03*
X134898491Y-99080598D03*
X135252045Y-98727044D03*
X135605598Y-98373491D03*
X135959152Y-98019938D03*
X136312705Y-97666384D03*
X136666258Y-97312831D03*
X137019812Y-96959277D03*
X137373365Y-96605724D03*
X137726918Y-96252171D03*
X138080472Y-95898617D03*
X138434025Y-95545064D03*
X138787579Y-95191510D03*
X139141132Y-94837957D03*
X139494685Y-94484404D03*
X139848239Y-94130850D03*
X140201792Y-93777297D03*
D46*
X140201792Y-91408489D03*
X139848239Y-91054936D03*
X139494685Y-90701382D03*
X139141132Y-90347829D03*
X138787579Y-89994276D03*
X138434025Y-89640722D03*
X138080472Y-89287169D03*
X137726918Y-88933615D03*
X137373365Y-88580062D03*
X137019812Y-88226509D03*
X136666258Y-87872955D03*
X136312705Y-87519402D03*
X135959152Y-87165848D03*
X135605598Y-86812295D03*
X135252045Y-86458742D03*
X134898491Y-86105188D03*
X134544938Y-85751635D03*
X134191385Y-85398082D03*
X133837831Y-85044528D03*
X133484278Y-84690975D03*
X133130724Y-84337421D03*
X132777171Y-83983868D03*
X132423618Y-83630315D03*
X132070064Y-83276761D03*
X131716511Y-82923208D03*
%TD*%
D16*
%TO.C,C15*%
X116501516Y-88514730D03*
X115034270Y-87047484D03*
%TD*%
D47*
%TO.C,SW1*%
X105482107Y-72242893D03*
X98982107Y-72242893D03*
X105482107Y-76742893D03*
X98982107Y-76742893D03*
%TD*%
D11*
%TO.C,R15*%
X121275000Y-66200000D03*
X121275000Y-68200000D03*
%TD*%
D28*
%TO.C,J19*%
X161507000Y-107530000D03*
%TD*%
D13*
%TO.C,C27*%
X67172349Y-71900000D03*
D20*
X69672349Y-71900000D03*
%TD*%
D23*
%TO.C,R21*%
X90100000Y-74300000D03*
X88100000Y-74300000D03*
%TD*%
D48*
%TO.C,J15*%
X138826562Y-75851562D03*
D49*
X137030511Y-74055511D03*
%TD*%
D16*
%TO.C,C9*%
X118505139Y-86581353D03*
X117037893Y-85114107D03*
%TD*%
D11*
%TO.C,R10*%
X136275000Y-66200000D03*
X136275000Y-68200000D03*
%TD*%
D50*
%TO.C,U7*%
X79872107Y-42913893D03*
X74792107Y-42913893D03*
X67172107Y-60693893D03*
X87492107Y-60693893D03*
%TD*%
D51*
%TO.C,U5*%
X161488000Y-112818000D03*
X161488000Y-114088000D03*
X161488000Y-115358000D03*
X161488000Y-116628000D03*
X166438000Y-116628000D03*
X166438000Y-115358000D03*
X166438000Y-114088000D03*
X166438000Y-112818000D03*
%TD*%
D52*
%TO.C,U11*%
X129600000Y-122805000D03*
X129600000Y-121535000D03*
X129600000Y-120265000D03*
X129600000Y-118995000D03*
X124650000Y-118995000D03*
X124650000Y-120265000D03*
X124650000Y-121535000D03*
X124650000Y-122805000D03*
%TD*%
D37*
%TO.C,C12*%
X132541754Y-78725246D03*
X134009000Y-77258000D03*
%TD*%
D18*
%TO.C,R6*%
X172721000Y-48019000D03*
X174721000Y-48019000D03*
%TD*%
D25*
%TO.C,C30*%
X126462500Y-116400000D03*
X124387500Y-116400000D03*
%TD*%
D17*
%TO.C,GND*%
X120656000Y-51350000D03*
%TD*%
D28*
%TO.C,J1*%
X136150000Y-47275000D03*
D29*
X136150000Y-49815000D03*
X136150000Y-52355000D03*
%TD*%
D23*
%TO.C,R23*%
X106617786Y-84525714D03*
X104617786Y-84525714D03*
%TD*%
D53*
%TO.C,R24*%
X121325000Y-122800000D03*
X121325000Y-120800000D03*
%TD*%
D13*
%TO.C,C24*%
X97472349Y-44200000D03*
D20*
X99972349Y-44200000D03*
%TD*%
D10*
%TO.C,D8*%
X118275000Y-61675000D03*
X118275000Y-63725000D03*
%TD*%
%TO.C,D7*%
X121275000Y-61675000D03*
X121275000Y-63725000D03*
%TD*%
D38*
%TO.C,C29*%
X132825000Y-122737500D03*
X132825000Y-120662500D03*
%TD*%
D37*
%TO.C,C4*%
X134273377Y-80531623D03*
X135740623Y-79064377D03*
%TD*%
D28*
%TO.C,J23*%
X109825000Y-108065000D03*
D29*
X109825000Y-110605000D03*
%TD*%
M02*
