%TF.GenerationSoftware,KiCad,Pcbnew,6.0.11-2627ca5db0~126~ubuntu20.04.1*%
%TF.CreationDate,2023-05-10T16:13:07+05:30*%
%TF.ProjectId,MVCU_F407,4d564355-5f46-4343-9037-2e6b69636164,rev?*%
%TF.SameCoordinates,Original*%
%TF.FileFunction,Drillmap*%
%TF.FilePolarity,Positive*%
%FSLAX45Y45*%
G04 Gerber Fmt 4.5, Leading zero omitted, Abs format (unit mm)*
G04 Created by KiCad (PCBNEW 6.0.11-2627ca5db0~126~ubuntu20.04.1) date 2023-05-10 16:13:07*
%MOMM*%
%LPD*%
G01*
G04 APERTURE LIST*
%ADD10C,0.050000*%
%ADD11C,0.200000*%
G04 APERTURE END LIST*
D10*
X6680800Y-3433200D02*
X18745800Y-3433200D01*
X19355400Y-4042800D02*
X19312500Y-13620000D01*
X6680800Y-3433200D02*
G75*
G03*
X6071200Y-4042800I0J-609600D01*
G01*
X6072502Y-13620000D02*
G75*
G03*
X6672500Y-14260000I590368J-47780D01*
G01*
X6072500Y-13620000D02*
X6071200Y-4042800D01*
X19355400Y-4042800D02*
G75*
G03*
X18745800Y-3433200I-609600J0D01*
G01*
X18702500Y-14270000D02*
X6672500Y-14260000D01*
X18702500Y-14269999D02*
G75*
G03*
X19312500Y-13620000I-41310J649999D01*
G01*
D11*
X6325691Y-14582976D02*
X6325691Y-14382976D01*
X6373310Y-14382976D01*
X6401881Y-14392500D01*
X6420929Y-14411548D01*
X6430453Y-14430595D01*
X6439976Y-14468690D01*
X6439976Y-14497262D01*
X6430453Y-14535357D01*
X6420929Y-14554405D01*
X6401881Y-14573452D01*
X6373310Y-14582976D01*
X6325691Y-14582976D01*
X6525691Y-14582976D02*
X6525691Y-14449643D01*
X6525691Y-14487738D02*
X6535214Y-14468690D01*
X6544738Y-14459167D01*
X6563786Y-14449643D01*
X6582834Y-14449643D01*
X6649500Y-14582976D02*
X6649500Y-14449643D01*
X6649500Y-14382976D02*
X6639976Y-14392500D01*
X6649500Y-14402024D01*
X6659024Y-14392500D01*
X6649500Y-14382976D01*
X6649500Y-14402024D01*
X6773310Y-14582976D02*
X6754262Y-14573452D01*
X6744738Y-14554405D01*
X6744738Y-14382976D01*
X6878072Y-14582976D02*
X6859024Y-14573452D01*
X6849500Y-14554405D01*
X6849500Y-14382976D01*
X7106643Y-14582976D02*
X7106643Y-14382976D01*
X7173310Y-14525833D01*
X7239976Y-14382976D01*
X7239976Y-14582976D01*
X7420929Y-14582976D02*
X7420929Y-14478214D01*
X7411405Y-14459167D01*
X7392357Y-14449643D01*
X7354262Y-14449643D01*
X7335214Y-14459167D01*
X7420929Y-14573452D02*
X7401881Y-14582976D01*
X7354262Y-14582976D01*
X7335214Y-14573452D01*
X7325691Y-14554405D01*
X7325691Y-14535357D01*
X7335214Y-14516309D01*
X7354262Y-14506786D01*
X7401881Y-14506786D01*
X7420929Y-14497262D01*
X7516167Y-14449643D02*
X7516167Y-14649643D01*
X7516167Y-14459167D02*
X7535214Y-14449643D01*
X7573310Y-14449643D01*
X7592357Y-14459167D01*
X7601881Y-14468690D01*
X7611405Y-14487738D01*
X7611405Y-14544881D01*
X7601881Y-14563928D01*
X7592357Y-14573452D01*
X7573310Y-14582976D01*
X7535214Y-14582976D01*
X7516167Y-14573452D01*
X7697119Y-14563928D02*
X7706643Y-14573452D01*
X7697119Y-14582976D01*
X7687595Y-14573452D01*
X7697119Y-14563928D01*
X7697119Y-14582976D01*
X7697119Y-14459167D02*
X7706643Y-14468690D01*
X7697119Y-14478214D01*
X7687595Y-14468690D01*
X7697119Y-14459167D01*
X7697119Y-14478214D01*
M02*
