%TF.GenerationSoftware,KiCad,Pcbnew,6.0.11-2627ca5db0~126~ubuntu20.04.1*%
%TF.CreationDate,2023-05-10T16:13:07+05:30*%
%TF.ProjectId,MVCU_F407,4d564355-5f46-4343-9037-2e6b69636164,rev?*%
%TF.SameCoordinates,Original*%
%TF.FileFunction,Drillmap*%
%TF.FilePolarity,Positive*%
%FSLAX45Y45*%
G04 Gerber Fmt 4.5, Leading zero omitted, Abs format (unit mm)*
G04 Created by KiCad (PCBNEW 6.0.11-2627ca5db0~126~ubuntu20.04.1) date 2023-05-10 16:13:07*
%MOMM*%
%LPD*%
G01*
G04 APERTURE LIST*
%ADD10C,0.050000*%
%ADD11C,0.200000*%
%ADD12C,0.040000*%
%ADD13C,0.076200*%
%ADD14C,0.079756*%
%ADD15C,0.080000*%
%ADD16C,0.100000*%
%ADD17C,0.110000*%
%ADD18C,0.140000*%
%ADD19C,0.160000*%
%ADD20C,0.320000*%
G04 APERTURE END LIST*
D10*
X6680800Y-3433200D02*
X18745800Y-3433200D01*
X19355400Y-4042800D02*
X19312500Y-13620000D01*
X6680800Y-3433200D02*
G75*
G03*
X6071200Y-4042800I0J-609600D01*
G01*
X6072502Y-13620000D02*
G75*
G03*
X6672500Y-14260000I590368J-47780D01*
G01*
X6072500Y-13620000D02*
X6071200Y-4042800D01*
X19355400Y-4042800D02*
G75*
G03*
X18745800Y-3433200I-609600J0D01*
G01*
X18702500Y-14270000D02*
X6672500Y-14260000D01*
X18702500Y-14269999D02*
G75*
G03*
X19312500Y-13620000I-41310J649999D01*
G01*
D11*
D12*
X6457500Y-10937500D02*
X6497500Y-10977500D01*
X6497500Y-10937500D02*
X6457500Y-10977500D01*
X6460000Y-10660000D02*
X6500000Y-10700000D01*
X6500000Y-10660000D02*
X6460000Y-10700000D01*
X6460000Y-10790000D02*
X6500000Y-10830000D01*
X6500000Y-10790000D02*
X6460000Y-10830000D01*
X6600000Y-10937500D02*
X6640000Y-10977500D01*
X6640000Y-10937500D02*
X6600000Y-10977500D01*
X6602500Y-10660000D02*
X6642500Y-10700000D01*
X6642500Y-10660000D02*
X6602500Y-10700000D01*
X6602500Y-10790000D02*
X6642500Y-10830000D01*
X6642500Y-10790000D02*
X6602500Y-10830000D01*
X6750000Y-13900000D02*
X6790000Y-13940000D01*
X6790000Y-13900000D02*
X6750000Y-13940000D01*
X6752500Y-13622500D02*
X6792500Y-13662500D01*
X6792500Y-13622500D02*
X6752500Y-13662500D01*
X6752500Y-13752500D02*
X6792500Y-13792500D01*
X6792500Y-13752500D02*
X6752500Y-13792500D01*
X6760000Y-10937500D02*
X6800000Y-10977500D01*
X6800000Y-10937500D02*
X6760000Y-10977500D01*
X6762500Y-10660000D02*
X6802500Y-10700000D01*
X6802500Y-10660000D02*
X6762500Y-10700000D01*
X6762500Y-10790000D02*
X6802500Y-10830000D01*
X6802500Y-10790000D02*
X6762500Y-10830000D01*
X6810000Y-4797500D02*
X6850000Y-4837500D01*
X6850000Y-4797500D02*
X6810000Y-4837500D01*
X6812500Y-4520000D02*
X6852500Y-4560000D01*
X6852500Y-4520000D02*
X6812500Y-4560000D01*
X6812500Y-4650000D02*
X6852500Y-4690000D01*
X6852500Y-4650000D02*
X6812500Y-4690000D01*
X6892500Y-13900000D02*
X6932500Y-13940000D01*
X6932500Y-13900000D02*
X6892500Y-13940000D01*
X6895000Y-13622500D02*
X6935000Y-13662500D01*
X6935000Y-13622500D02*
X6895000Y-13662500D01*
X6895000Y-13752500D02*
X6935000Y-13792500D01*
X6935000Y-13752500D02*
X6895000Y-13792500D01*
X6952500Y-4797500D02*
X6992500Y-4837500D01*
X6992500Y-4797500D02*
X6952500Y-4837500D01*
X6955000Y-4520000D02*
X6995000Y-4560000D01*
X6995000Y-4520000D02*
X6955000Y-4560000D01*
X6955000Y-4650000D02*
X6995000Y-4690000D01*
X6995000Y-4650000D02*
X6955000Y-4690000D01*
X7052500Y-13900000D02*
X7092500Y-13940000D01*
X7092500Y-13900000D02*
X7052500Y-13940000D01*
X7055000Y-13622500D02*
X7095000Y-13662500D01*
X7095000Y-13622500D02*
X7055000Y-13662500D01*
X7055000Y-13752500D02*
X7095000Y-13792500D01*
X7095000Y-13752500D02*
X7055000Y-13792500D01*
X7112500Y-4797500D02*
X7152500Y-4837500D01*
X7152500Y-4797500D02*
X7112500Y-4837500D01*
X7115000Y-4520000D02*
X7155000Y-4560000D01*
X7155000Y-4520000D02*
X7115000Y-4560000D01*
X7115000Y-4650000D02*
X7155000Y-4690000D01*
X7155000Y-4650000D02*
X7115000Y-4690000D01*
X7452500Y-9295000D02*
X7492500Y-9335000D01*
X7492500Y-9295000D02*
X7452500Y-9335000D01*
X7455000Y-9017500D02*
X7495000Y-9057500D01*
X7495000Y-9017500D02*
X7455000Y-9057500D01*
X7455000Y-9147500D02*
X7495000Y-9187500D01*
X7495000Y-9147500D02*
X7455000Y-9187500D01*
X7595000Y-9295000D02*
X7635000Y-9335000D01*
X7635000Y-9295000D02*
X7595000Y-9335000D01*
X7597500Y-9017500D02*
X7637500Y-9057500D01*
X7637500Y-9017500D02*
X7597500Y-9057500D01*
X7597500Y-9147500D02*
X7637500Y-9187500D01*
X7637500Y-9147500D02*
X7597500Y-9187500D01*
X7650000Y-5960000D02*
X7690000Y-6000000D01*
X7690000Y-5960000D02*
X7650000Y-6000000D01*
X7652500Y-5682500D02*
X7692500Y-5722500D01*
X7692500Y-5682500D02*
X7652500Y-5722500D01*
X7652500Y-5812500D02*
X7692500Y-5852500D01*
X7692500Y-5812500D02*
X7652500Y-5852500D01*
X7714900Y-11211000D02*
X7754900Y-11251000D01*
X7754900Y-11211000D02*
X7714900Y-11251000D01*
X7755000Y-9295000D02*
X7795000Y-9335000D01*
X7795000Y-9295000D02*
X7755000Y-9335000D01*
X7757500Y-9017500D02*
X7797500Y-9057500D01*
X7797500Y-9017500D02*
X7757500Y-9057500D01*
X7757500Y-9147500D02*
X7797500Y-9187500D01*
X7797500Y-9147500D02*
X7757500Y-9187500D01*
X7792500Y-5960000D02*
X7832500Y-6000000D01*
X7832500Y-5960000D02*
X7792500Y-6000000D01*
X7795000Y-5682500D02*
X7835000Y-5722500D01*
X7835000Y-5682500D02*
X7795000Y-5722500D01*
X7795000Y-5812500D02*
X7835000Y-5852500D01*
X7835000Y-5812500D02*
X7795000Y-5852500D01*
X7952500Y-5960000D02*
X7992500Y-6000000D01*
X7992500Y-5960000D02*
X7952500Y-6000000D01*
X7955000Y-5682500D02*
X7995000Y-5722500D01*
X7995000Y-5682500D02*
X7955000Y-5722500D01*
X7955000Y-5812500D02*
X7995000Y-5852500D01*
X7995000Y-5812500D02*
X7955000Y-5852500D01*
X8781700Y-7553400D02*
X8821700Y-7593400D01*
X8821700Y-7553400D02*
X8781700Y-7593400D01*
X8794400Y-12608000D02*
X8834400Y-12648000D01*
X8834400Y-12608000D02*
X8794400Y-12648000D01*
X8905000Y-9307500D02*
X8945000Y-9347500D01*
X8945000Y-9307500D02*
X8905000Y-9347500D01*
X8907500Y-9030000D02*
X8947500Y-9070000D01*
X8947500Y-9030000D02*
X8907500Y-9070000D01*
X8907500Y-9160000D02*
X8947500Y-9200000D01*
X8947500Y-9160000D02*
X8907500Y-9200000D01*
X8997600Y-7007300D02*
X9037600Y-7047300D01*
X9037600Y-7007300D02*
X8997600Y-7047300D01*
X9047500Y-9307500D02*
X9087500Y-9347500D01*
X9087500Y-9307500D02*
X9047500Y-9347500D01*
X9050000Y-9030000D02*
X9090000Y-9070000D01*
X9090000Y-9030000D02*
X9050000Y-9070000D01*
X9050000Y-9160000D02*
X9090000Y-9200000D01*
X9090000Y-9160000D02*
X9050000Y-9200000D01*
X9099200Y-9991800D02*
X9139200Y-10031800D01*
X9139200Y-9991800D02*
X9099200Y-10031800D01*
X9175400Y-9750500D02*
X9215400Y-9790500D01*
X9215400Y-9750500D02*
X9175400Y-9790500D01*
X9200800Y-4695900D02*
X9240800Y-4735900D01*
X9240800Y-4695900D02*
X9200800Y-4735900D01*
X9207500Y-9307500D02*
X9247500Y-9347500D01*
X9247500Y-9307500D02*
X9207500Y-9347500D01*
X9210000Y-9030000D02*
X9250000Y-9070000D01*
X9250000Y-9030000D02*
X9210000Y-9070000D01*
X9210000Y-9160000D02*
X9250000Y-9200000D01*
X9250000Y-9160000D02*
X9210000Y-9200000D01*
X9226200Y-11236400D02*
X9266200Y-11276400D01*
X9266200Y-11236400D02*
X9226200Y-11276400D01*
X9251600Y-6791400D02*
X9291600Y-6831400D01*
X9291600Y-6791400D02*
X9251600Y-6831400D01*
X9277000Y-7185100D02*
X9317000Y-7225100D01*
X9317000Y-7185100D02*
X9277000Y-7225100D01*
X9569100Y-5546800D02*
X9609100Y-5586800D01*
X9609100Y-5546800D02*
X9569100Y-5586800D01*
X9607200Y-7007300D02*
X9647200Y-7047300D01*
X9647200Y-7007300D02*
X9607200Y-7047300D01*
X9619900Y-5940500D02*
X9659900Y-5980500D01*
X9659900Y-5940500D02*
X9619900Y-5980500D01*
X9683400Y-8493200D02*
X9723400Y-8533200D01*
X9723400Y-8493200D02*
X9683400Y-8533200D01*
X9950100Y-6893000D02*
X9990100Y-6933000D01*
X9990100Y-6893000D02*
X9950100Y-6933000D01*
X10026300Y-6004000D02*
X10066300Y-6044000D01*
X10066300Y-6004000D02*
X10026300Y-6044000D01*
X10039000Y-13674800D02*
X10079000Y-13714800D01*
X10079000Y-13674800D02*
X10039000Y-13714800D01*
X10178700Y-12125400D02*
X10218700Y-12165400D01*
X10218700Y-12125400D02*
X10178700Y-12165400D01*
X10242200Y-5089600D02*
X10282200Y-5129600D01*
X10282200Y-5089600D02*
X10242200Y-5129600D01*
X10270000Y-12627500D02*
X10310000Y-12667500D01*
X10310000Y-12627500D02*
X10270000Y-12667500D01*
X10272500Y-12350000D02*
X10312500Y-12390000D01*
X10312500Y-12350000D02*
X10272500Y-12390000D01*
X10272500Y-12480000D02*
X10312500Y-12520000D01*
X10312500Y-12480000D02*
X10272500Y-12520000D01*
X10279400Y-8773750D02*
X10319400Y-8813750D01*
X10319400Y-8773750D02*
X10279400Y-8813750D01*
X10279400Y-9383350D02*
X10319400Y-9423350D01*
X10319400Y-9383350D02*
X10279400Y-9423350D01*
X10412500Y-12627500D02*
X10452500Y-12667500D01*
X10452500Y-12627500D02*
X10412500Y-12667500D01*
X10415000Y-12350000D02*
X10455000Y-12390000D01*
X10455000Y-12350000D02*
X10415000Y-12390000D01*
X10415000Y-12480000D02*
X10455000Y-12520000D01*
X10455000Y-12480000D02*
X10415000Y-12520000D01*
X10572500Y-12627500D02*
X10612500Y-12667500D01*
X10612500Y-12627500D02*
X10572500Y-12667500D01*
X10575000Y-12350000D02*
X10615000Y-12390000D01*
X10615000Y-12350000D02*
X10575000Y-12390000D01*
X10575000Y-12480000D02*
X10615000Y-12520000D01*
X10615000Y-12480000D02*
X10575000Y-12520000D01*
X10966100Y-8226500D02*
X11006100Y-8266500D01*
X11006100Y-8226500D02*
X10966100Y-8266500D01*
X10978800Y-9661600D02*
X11018800Y-9701600D01*
X11018800Y-9661600D02*
X10978800Y-9701600D01*
X11192500Y-9910000D02*
X11232500Y-9950000D01*
X11232500Y-9910000D02*
X11192500Y-9950000D01*
X11210000Y-5980000D02*
X11250000Y-6020000D01*
X11250000Y-5980000D02*
X11210000Y-6020000D01*
X11218535Y-7610000D02*
X11258535Y-7650000D01*
X11258535Y-7610000D02*
X11218535Y-7650000D01*
X11258200Y-8658300D02*
X11298200Y-8698300D01*
X11298200Y-8658300D02*
X11258200Y-8698300D01*
X11270900Y-8315400D02*
X11310900Y-8355400D01*
X11310900Y-8315400D02*
X11270900Y-8355400D01*
X11432500Y-9900000D02*
X11472500Y-9940000D01*
X11472500Y-9900000D02*
X11432500Y-9940000D01*
X11512200Y-6956500D02*
X11552200Y-6996500D01*
X11552200Y-6956500D02*
X11512200Y-6996500D01*
X11804300Y-6943800D02*
X11844300Y-6983800D01*
X11844300Y-6943800D02*
X11804300Y-6983800D01*
X11805000Y-5965000D02*
X11845000Y-6005000D01*
X11845000Y-5965000D02*
X11805000Y-6005000D01*
X11822500Y-9390000D02*
X11862500Y-9430000D01*
X11862500Y-9390000D02*
X11822500Y-9430000D01*
X11827500Y-7950000D02*
X11867500Y-7990000D01*
X11867500Y-7950000D02*
X11827500Y-7990000D01*
X11942500Y-11650000D02*
X11982500Y-11690000D01*
X11982500Y-11650000D02*
X11942500Y-11690000D01*
X11962500Y-9612450D02*
X12002500Y-9652450D01*
X12002500Y-9612450D02*
X11962500Y-9652450D01*
X11972500Y-13790000D02*
X12012500Y-13830000D01*
X12012500Y-13790000D02*
X11972500Y-13830000D01*
X12082500Y-10250000D02*
X12122500Y-10290000D01*
X12122500Y-10250000D02*
X12082500Y-10290000D01*
X12102500Y-11640000D02*
X12142500Y-11680000D01*
X12142500Y-11640000D02*
X12102500Y-11680000D01*
X12121800Y-8759900D02*
X12161800Y-8799900D01*
X12161800Y-8759900D02*
X12121800Y-8799900D01*
X12237300Y-13674800D02*
X12277300Y-13714800D01*
X12277300Y-13674800D02*
X12237300Y-13714800D01*
X12248800Y-7375600D02*
X12288800Y-7415600D01*
X12288800Y-7375600D02*
X12248800Y-7415600D01*
X12325000Y-8340800D02*
X12365000Y-8380800D01*
X12365000Y-8340800D02*
X12325000Y-8380800D01*
X12347500Y-10202500D02*
X12387500Y-10242500D01*
X12387500Y-10202500D02*
X12347500Y-10242500D01*
X12362500Y-10780000D02*
X12402500Y-10820000D01*
X12402500Y-10780000D02*
X12362500Y-10820000D01*
X12363100Y-9979100D02*
X12403100Y-10019100D01*
X12403100Y-9979100D02*
X12363100Y-10019100D01*
X12388500Y-13814500D02*
X12428500Y-13854500D01*
X12428500Y-13814500D02*
X12388500Y-13854500D01*
X12405000Y-5985000D02*
X12445000Y-6025000D01*
X12445000Y-5985000D02*
X12405000Y-6025000D01*
X12514587Y-8367113D02*
X12554587Y-8407113D01*
X12554587Y-8367113D02*
X12514587Y-8407113D01*
X12665000Y-9390000D02*
X12705000Y-9430000D01*
X12705000Y-9390000D02*
X12665000Y-9430000D01*
X12665000Y-9520000D02*
X12705000Y-9560000D01*
X12705000Y-9520000D02*
X12665000Y-9560000D01*
X12667500Y-9242500D02*
X12707500Y-9282500D01*
X12707500Y-9242500D02*
X12667500Y-9282500D01*
X12825000Y-9390000D02*
X12865000Y-9430000D01*
X12865000Y-9390000D02*
X12825000Y-9430000D01*
X12825000Y-9520000D02*
X12865000Y-9560000D01*
X12865000Y-9520000D02*
X12825000Y-9560000D01*
X12827500Y-9242500D02*
X12867500Y-9282500D01*
X12867500Y-9242500D02*
X12827500Y-9282500D01*
X12909200Y-8861500D02*
X12949200Y-8901500D01*
X12949200Y-8861500D02*
X12909200Y-8901500D01*
X12967500Y-9390000D02*
X13007500Y-9430000D01*
X13007500Y-9390000D02*
X12967500Y-9430000D01*
X12967500Y-9520000D02*
X13007500Y-9560000D01*
X13007500Y-9520000D02*
X12967500Y-9560000D01*
X12970000Y-9242500D02*
X13010000Y-9282500D01*
X13010000Y-9242500D02*
X12970000Y-9282500D01*
X12972700Y-8734500D02*
X13012700Y-8774500D01*
X13012700Y-8734500D02*
X12972700Y-8774500D01*
X13005000Y-5987500D02*
X13045000Y-6027500D01*
X13045000Y-5987500D02*
X13005000Y-6027500D01*
X13074300Y-8505900D02*
X13114300Y-8545900D01*
X13114300Y-8505900D02*
X13074300Y-8545900D01*
X13182500Y-11800000D02*
X13222500Y-11840000D01*
X13222500Y-11800000D02*
X13182500Y-11840000D01*
X13188600Y-7566100D02*
X13228600Y-7606100D01*
X13228600Y-7566100D02*
X13188600Y-7606100D01*
X13334934Y-8195034D02*
X13374934Y-8235034D01*
X13374934Y-8195034D02*
X13334934Y-8235034D01*
X13352500Y-13390000D02*
X13392500Y-13430000D01*
X13392500Y-13390000D02*
X13352500Y-13430000D01*
X13355000Y-13112500D02*
X13395000Y-13152500D01*
X13395000Y-13112500D02*
X13355000Y-13152500D01*
X13355000Y-13242500D02*
X13395000Y-13282500D01*
X13395000Y-13242500D02*
X13355000Y-13282500D01*
X13442600Y-7070800D02*
X13482600Y-7110800D01*
X13482600Y-7070800D02*
X13442600Y-7110800D01*
X13495000Y-13390000D02*
X13535000Y-13430000D01*
X13535000Y-13390000D02*
X13495000Y-13430000D01*
X13497500Y-13112500D02*
X13537500Y-13152500D01*
X13537500Y-13112500D02*
X13497500Y-13152500D01*
X13497500Y-13242500D02*
X13537500Y-13282500D01*
X13537500Y-13242500D02*
X13497500Y-13282500D01*
X13540450Y-11925000D02*
X13580450Y-11965000D01*
X13580450Y-11925000D02*
X13540450Y-11965000D01*
X13602500Y-5980000D02*
X13642500Y-6020000D01*
X13642500Y-5980000D02*
X13602500Y-6020000D01*
X13633100Y-9331400D02*
X13673100Y-9371400D01*
X13673100Y-9331400D02*
X13633100Y-9371400D01*
X13655000Y-13390000D02*
X13695000Y-13430000D01*
X13695000Y-13390000D02*
X13655000Y-13430000D01*
X13657500Y-13112500D02*
X13697500Y-13152500D01*
X13697500Y-13112500D02*
X13657500Y-13152500D01*
X13657500Y-13242500D02*
X13697500Y-13282500D01*
X13697500Y-13242500D02*
X13657500Y-13282500D01*
X13660000Y-8460000D02*
X13700000Y-8500000D01*
X13700000Y-8460000D02*
X13660000Y-8500000D01*
X13685000Y-11702500D02*
X13725000Y-11742500D01*
X13725000Y-11702500D02*
X13685000Y-11742500D01*
X13800000Y-11437500D02*
X13840000Y-11477500D01*
X13840000Y-11437500D02*
X13800000Y-11477500D01*
X13885000Y-4257500D02*
X13925000Y-4297500D01*
X13925000Y-4257500D02*
X13885000Y-4297500D01*
X13893450Y-8563050D02*
X13933450Y-8603050D01*
X13933450Y-8563050D02*
X13893450Y-8603050D01*
X13900000Y-11247500D02*
X13940000Y-11287500D01*
X13940000Y-11247500D02*
X13900000Y-11287500D01*
X13907500Y-8307500D02*
X13947500Y-8347500D01*
X13947500Y-8307500D02*
X13907500Y-8347500D01*
X14001400Y-11033200D02*
X14041400Y-11073200D01*
X14041400Y-11033200D02*
X14001400Y-11073200D01*
X14014100Y-11579300D02*
X14054100Y-11619300D01*
X14054100Y-11579300D02*
X14014100Y-11619300D01*
X14052200Y-6169100D02*
X14092200Y-6209100D01*
X14092200Y-6169100D02*
X14052200Y-6209100D01*
X14064900Y-10283900D02*
X14104900Y-10323900D01*
X14104900Y-10283900D02*
X14064900Y-10323900D01*
X14128400Y-8455100D02*
X14168400Y-8495100D01*
X14168400Y-8455100D02*
X14128400Y-8495100D01*
X14128400Y-12392100D02*
X14168400Y-12432100D01*
X14168400Y-12392100D02*
X14128400Y-12432100D01*
X14141100Y-8671000D02*
X14181100Y-8711000D01*
X14181100Y-8671000D02*
X14141100Y-8711000D01*
X14150000Y-8217500D02*
X14190000Y-8257500D01*
X14190000Y-8217500D02*
X14150000Y-8257500D01*
X14255400Y-5902400D02*
X14295400Y-5942400D01*
X14295400Y-5902400D02*
X14255400Y-5942400D01*
X14293500Y-10398200D02*
X14333500Y-10438200D01*
X14333500Y-10398200D02*
X14293500Y-10438200D01*
X14357000Y-12392100D02*
X14397000Y-12432100D01*
X14397000Y-12392100D02*
X14357000Y-12432100D01*
X14433200Y-7997900D02*
X14473200Y-8037900D01*
X14473200Y-7997900D02*
X14433200Y-8037900D01*
X14547500Y-12074600D02*
X14587500Y-12114600D01*
X14587500Y-12074600D02*
X14547500Y-12114600D01*
X14567500Y-5837500D02*
X14607500Y-5877500D01*
X14607500Y-5837500D02*
X14567500Y-5877500D01*
X14661800Y-9814000D02*
X14701800Y-9854000D01*
X14701800Y-9814000D02*
X14661800Y-9854000D01*
X14674500Y-9433000D02*
X14714500Y-9473000D01*
X14714500Y-9433000D02*
X14674500Y-9473000D01*
X14694500Y-5151700D02*
X14734500Y-5191700D01*
X14734500Y-5151700D02*
X14694500Y-5191700D01*
X14789600Y-5266000D02*
X14829600Y-5306000D01*
X14829600Y-5266000D02*
X14789600Y-5306000D01*
X14910400Y-5177100D02*
X14950400Y-5217100D01*
X14950400Y-5177100D02*
X14910400Y-5217100D01*
X14915800Y-9788600D02*
X14955800Y-9828600D01*
X14955800Y-9788600D02*
X14915800Y-9828600D01*
X14928500Y-8632900D02*
X14968500Y-8672900D01*
X14968500Y-8632900D02*
X14928500Y-8672900D01*
X14999300Y-5278700D02*
X15039300Y-5318700D01*
X15039300Y-5278700D02*
X14999300Y-5318700D01*
X15175000Y-12077500D02*
X15215000Y-12117500D01*
X15215000Y-12077500D02*
X15175000Y-12117500D01*
X15177500Y-11800000D02*
X15217500Y-11840000D01*
X15217500Y-11800000D02*
X15177500Y-11840000D01*
X15177500Y-11930000D02*
X15217500Y-11970000D01*
X15217500Y-11930000D02*
X15177500Y-11970000D01*
X15291400Y-5266000D02*
X15331400Y-5306000D01*
X15331400Y-5266000D02*
X15291400Y-5306000D01*
X15296600Y-9331400D02*
X15336600Y-9371400D01*
X15336600Y-9331400D02*
X15296600Y-9371400D01*
X15302500Y-5000900D02*
X15342500Y-5040900D01*
X15342500Y-5000900D02*
X15302500Y-5040900D01*
X15317500Y-12077500D02*
X15357500Y-12117500D01*
X15357500Y-12077500D02*
X15317500Y-12117500D01*
X15320000Y-11800000D02*
X15360000Y-11840000D01*
X15360000Y-11800000D02*
X15320000Y-11840000D01*
X15320000Y-11930000D02*
X15360000Y-11970000D01*
X15360000Y-11930000D02*
X15320000Y-11970000D01*
X15477500Y-12077500D02*
X15517500Y-12117500D01*
X15517500Y-12077500D02*
X15477500Y-12117500D01*
X15480000Y-11800000D02*
X15520000Y-11840000D01*
X15520000Y-11800000D02*
X15480000Y-11840000D01*
X15480000Y-11930000D02*
X15520000Y-11970000D01*
X15520000Y-11930000D02*
X15480000Y-11970000D01*
X15722500Y-13899450D02*
X15762500Y-13939450D01*
X15762500Y-13899450D02*
X15722500Y-13939450D01*
X15868300Y-11414200D02*
X15908300Y-11454200D01*
X15908300Y-11414200D02*
X15868300Y-11454200D01*
X16376300Y-12569900D02*
X16416300Y-12609900D01*
X16416300Y-12569900D02*
X16376300Y-12609900D01*
X16807500Y-7220000D02*
X16847500Y-7260000D01*
X16847500Y-7220000D02*
X16807500Y-7260000D01*
X16810000Y-6942500D02*
X16850000Y-6982500D01*
X16850000Y-6942500D02*
X16810000Y-6982500D01*
X16810000Y-7072500D02*
X16850000Y-7112500D01*
X16850000Y-7072500D02*
X16810000Y-7112500D01*
X16858700Y-11019950D02*
X16898700Y-11059950D01*
X16898700Y-11019950D02*
X16858700Y-11059950D01*
X16922500Y-9612500D02*
X16962500Y-9652500D01*
X16962500Y-9612500D02*
X16922500Y-9652500D01*
X16925000Y-9335000D02*
X16965000Y-9375000D01*
X16965000Y-9335000D02*
X16925000Y-9375000D01*
X16925000Y-9465000D02*
X16965000Y-9505000D01*
X16965000Y-9465000D02*
X16925000Y-9505000D01*
X16950000Y-7220000D02*
X16990000Y-7260000D01*
X16990000Y-7220000D02*
X16950000Y-7260000D01*
X16952500Y-6942500D02*
X16992500Y-6982500D01*
X16992500Y-6942500D02*
X16952500Y-6982500D01*
X16952500Y-7072500D02*
X16992500Y-7112500D01*
X16992500Y-7072500D02*
X16952500Y-7112500D01*
X17062500Y-12312500D02*
X17102500Y-12352500D01*
X17102500Y-12312500D02*
X17062500Y-12352500D01*
X17065000Y-9612500D02*
X17105000Y-9652500D01*
X17105000Y-9612500D02*
X17065000Y-9652500D01*
X17065000Y-12035000D02*
X17105000Y-12075000D01*
X17105000Y-12035000D02*
X17065000Y-12075000D01*
X17065000Y-12165000D02*
X17105000Y-12205000D01*
X17105000Y-12165000D02*
X17065000Y-12205000D01*
X17067500Y-9335000D02*
X17107500Y-9375000D01*
X17107500Y-9335000D02*
X17067500Y-9375000D01*
X17067500Y-9465000D02*
X17107500Y-9505000D01*
X17107500Y-9465000D02*
X17067500Y-9505000D01*
X17110000Y-7220000D02*
X17150000Y-7260000D01*
X17150000Y-7220000D02*
X17110000Y-7260000D01*
X17112500Y-6942500D02*
X17152500Y-6982500D01*
X17152500Y-6942500D02*
X17112500Y-6982500D01*
X17112500Y-7072500D02*
X17152500Y-7112500D01*
X17152500Y-7072500D02*
X17112500Y-7112500D01*
X17176400Y-12696900D02*
X17216400Y-12736900D01*
X17216400Y-12696900D02*
X17176400Y-12736900D01*
X17205000Y-12312500D02*
X17245000Y-12352500D01*
X17245000Y-12312500D02*
X17205000Y-12352500D01*
X17207500Y-12035000D02*
X17247500Y-12075000D01*
X17247500Y-12035000D02*
X17207500Y-12075000D01*
X17207500Y-12165000D02*
X17247500Y-12205000D01*
X17247500Y-12165000D02*
X17207500Y-12205000D01*
X17225000Y-9612500D02*
X17265000Y-9652500D01*
X17265000Y-9612500D02*
X17225000Y-9652500D01*
X17227500Y-9335000D02*
X17267500Y-9375000D01*
X17267500Y-9335000D02*
X17227500Y-9375000D01*
X17227500Y-9465000D02*
X17267500Y-9505000D01*
X17267500Y-9465000D02*
X17227500Y-9505000D01*
X17272627Y-11637427D02*
X17312627Y-11677427D01*
X17312627Y-11637427D02*
X17272627Y-11677427D01*
X17365000Y-12312500D02*
X17405000Y-12352500D01*
X17405000Y-12312500D02*
X17365000Y-12352500D01*
X17367500Y-12035000D02*
X17407500Y-12075000D01*
X17407500Y-12035000D02*
X17367500Y-12075000D01*
X17367500Y-12165000D02*
X17407500Y-12205000D01*
X17407500Y-12165000D02*
X17367500Y-12205000D01*
X17417700Y-10258500D02*
X17457700Y-10298500D01*
X17457700Y-10258500D02*
X17417700Y-10298500D01*
X17450400Y-5253300D02*
X17490400Y-5293300D01*
X17490400Y-5253300D02*
X17450400Y-5293300D01*
X17519300Y-10601400D02*
X17559300Y-10641400D01*
X17559300Y-10601400D02*
X17519300Y-10641400D01*
X17545677Y-11364377D02*
X17585677Y-11404377D01*
X17585677Y-11364377D02*
X17545677Y-11404377D01*
X18001900Y-7845500D02*
X18041900Y-7885500D01*
X18041900Y-7845500D02*
X18001900Y-7885500D01*
X18185000Y-7137500D02*
X18225000Y-7177500D01*
X18225000Y-7137500D02*
X18185000Y-7177500D01*
X18187500Y-6860000D02*
X18227500Y-6900000D01*
X18227500Y-6860000D02*
X18187500Y-6900000D01*
X18187500Y-6990000D02*
X18227500Y-7030000D01*
X18227500Y-6990000D02*
X18187500Y-7030000D01*
X18327500Y-7137500D02*
X18367500Y-7177500D01*
X18367500Y-7137500D02*
X18327500Y-7177500D01*
X18330000Y-6860000D02*
X18370000Y-6900000D01*
X18370000Y-6860000D02*
X18330000Y-6900000D01*
X18330000Y-6990000D02*
X18370000Y-7030000D01*
X18370000Y-6990000D02*
X18330000Y-7030000D01*
X18487500Y-7137500D02*
X18527500Y-7177500D01*
X18527500Y-7137500D02*
X18487500Y-7177500D01*
X18490000Y-6860000D02*
X18530000Y-6900000D01*
X18530000Y-6860000D02*
X18490000Y-6900000D01*
X18490000Y-6990000D02*
X18530000Y-7030000D01*
X18530000Y-6990000D02*
X18490000Y-7030000D01*
X18775000Y-4507500D02*
X18815000Y-4547500D01*
X18815000Y-4507500D02*
X18775000Y-4547500D01*
X18777500Y-4230000D02*
X18817500Y-4270000D01*
X18817500Y-4230000D02*
X18777500Y-4270000D01*
X18777500Y-4360000D02*
X18817500Y-4400000D01*
X18817500Y-4360000D02*
X18777500Y-4400000D01*
X18802000Y-8480500D02*
X18842000Y-8520500D01*
X18842000Y-8480500D02*
X18802000Y-8520500D01*
X18814700Y-8632900D02*
X18854700Y-8672900D01*
X18854700Y-8632900D02*
X18814700Y-8672900D01*
X18814700Y-8810700D02*
X18854700Y-8850700D01*
X18854700Y-8810700D02*
X18814700Y-8850700D01*
X18865500Y-12620700D02*
X18905500Y-12660700D01*
X18905500Y-12620700D02*
X18865500Y-12660700D01*
X18917500Y-4507500D02*
X18957500Y-4547500D01*
X18957500Y-4507500D02*
X18917500Y-4547500D01*
X18920000Y-4230000D02*
X18960000Y-4270000D01*
X18960000Y-4230000D02*
X18920000Y-4270000D01*
X18920000Y-4360000D02*
X18960000Y-4400000D01*
X18960000Y-4360000D02*
X18920000Y-4400000D01*
X18988350Y-12370850D02*
X19028350Y-12410850D01*
X19028350Y-12370850D02*
X18988350Y-12410850D01*
X19077500Y-4507500D02*
X19117500Y-4547500D01*
X19117500Y-4507500D02*
X19077500Y-4547500D01*
X19080000Y-4230000D02*
X19120000Y-4270000D01*
X19120000Y-4230000D02*
X19080000Y-4270000D01*
X19080000Y-4360000D02*
X19120000Y-4400000D01*
X19120000Y-4360000D02*
X19080000Y-4400000D01*
X19195700Y-11973000D02*
X19235700Y-12013000D01*
X19235700Y-11973000D02*
X19195700Y-12013000D01*
D13*
X6755311Y-6069389D02*
G75*
G03*
X6755311Y-6069389I-38100J0D01*
G01*
X7517311Y-4291389D02*
G75*
G03*
X7517311Y-4291389I-38100J0D01*
G01*
X8025311Y-4291389D02*
G75*
G03*
X8025311Y-4291389I-38100J0D01*
G01*
X8787311Y-6069389D02*
G75*
G03*
X8787311Y-6069389I-38100J0D01*
G01*
D14*
X7510066Y-8425302D02*
X7510066Y-8505058D01*
X7470188Y-8465180D02*
X7549944Y-8465180D01*
X7510066Y-10624942D02*
X7510066Y-10704698D01*
X7470188Y-10664820D02*
X7549944Y-10664820D01*
X7710218Y-8425302D02*
X7710218Y-8505058D01*
X7670340Y-8465180D02*
X7750096Y-8465180D01*
X7710218Y-10624942D02*
X7710218Y-10704698D01*
X7670340Y-10664820D02*
X7750096Y-10664820D01*
X7910116Y-8425302D02*
X7910116Y-8505058D01*
X7870238Y-8465180D02*
X7949994Y-8465180D01*
X7910116Y-10624942D02*
X7910116Y-10704698D01*
X7870238Y-10664820D02*
X7949994Y-10664820D01*
X8110268Y-8425302D02*
X8110268Y-8505058D01*
X8070390Y-8465180D02*
X8150146Y-8465180D01*
X8110268Y-10624942D02*
X8110268Y-10704698D01*
X8070390Y-10664820D02*
X8150146Y-10664820D01*
X8310166Y-8425302D02*
X8310166Y-8505058D01*
X8270288Y-8465180D02*
X8350044Y-8465180D01*
X8310166Y-10624942D02*
X8310166Y-10704698D01*
X8270288Y-10664820D02*
X8350044Y-10664820D01*
X8510064Y-8425302D02*
X8510064Y-8505058D01*
X8470186Y-8465180D02*
X8549942Y-8465180D01*
X8510064Y-10624942D02*
X8510064Y-10704698D01*
X8470186Y-10664820D02*
X8549942Y-10664820D01*
X8710216Y-8425302D02*
X8710216Y-8505058D01*
X8670338Y-8465180D02*
X8750094Y-8465180D01*
X8710216Y-10624942D02*
X8710216Y-10704698D01*
X8670338Y-10664820D02*
X8750094Y-10664820D01*
X8910114Y-8425302D02*
X8910114Y-8505058D01*
X8870236Y-8465180D02*
X8949992Y-8465180D01*
X8910114Y-10624942D02*
X8910114Y-10704698D01*
X8870236Y-10664820D02*
X8949992Y-10664820D01*
X9110266Y-8425302D02*
X9110266Y-8505058D01*
X9070388Y-8465180D02*
X9150144Y-8465180D01*
X9110266Y-10624942D02*
X9110266Y-10704698D01*
X9070388Y-10664820D02*
X9150144Y-10664820D01*
X9310164Y-8425302D02*
X9310164Y-8505058D01*
X9270286Y-8465180D02*
X9350042Y-8465180D01*
X9310164Y-10624942D02*
X9310164Y-10704698D01*
X9270286Y-10664820D02*
X9350042Y-10664820D01*
D15*
X6745519Y-7218284D02*
X6745519Y-7161715D01*
X6688950Y-7161715D01*
X6688950Y-7218284D01*
X6745519Y-7218284D01*
X6995519Y-7218284D02*
X6995519Y-7161715D01*
X6938950Y-7161715D01*
X6938950Y-7218284D01*
X6995519Y-7218284D01*
X9775519Y-4448285D02*
X9775519Y-4391716D01*
X9718950Y-4391716D01*
X9718950Y-4448285D01*
X9775519Y-4448285D01*
X10025519Y-4448285D02*
X10025519Y-4391716D01*
X9968950Y-4391716D01*
X9968950Y-4448285D01*
X10025519Y-4448285D01*
X14638784Y-6261034D02*
X14638784Y-6204465D01*
X14582215Y-6204465D01*
X14582215Y-6261034D01*
X14638784Y-6261034D01*
X14638784Y-6515034D02*
X14638784Y-6458465D01*
X14582215Y-6458465D01*
X14582215Y-6515034D01*
X14638784Y-6515034D01*
X14638784Y-6769034D02*
X14638784Y-6712465D01*
X14582215Y-6712465D01*
X14582215Y-6769034D01*
X14638784Y-6769034D01*
X14638784Y-7023034D02*
X14638784Y-6966465D01*
X14582215Y-6966465D01*
X14582215Y-7023034D01*
X14638784Y-7023034D01*
X14638784Y-7277034D02*
X14638784Y-7220465D01*
X14582215Y-7220465D01*
X14582215Y-7277034D01*
X14638784Y-7277034D01*
X14638784Y-7531034D02*
X14638784Y-7474465D01*
X14582215Y-7474465D01*
X14582215Y-7531034D01*
X14638784Y-7531034D01*
X14638784Y-7785034D02*
X14638784Y-7728465D01*
X14582215Y-7728465D01*
X14582215Y-7785034D01*
X14638784Y-7785034D01*
X14638784Y-8039034D02*
X14638784Y-7982465D01*
X14582215Y-7982465D01*
X14582215Y-8039034D01*
X14638784Y-8039034D01*
X15400784Y-6261034D02*
X15400784Y-6204465D01*
X15344215Y-6204465D01*
X15344215Y-6261034D01*
X15400784Y-6261034D01*
X15400784Y-6515034D02*
X15400784Y-6458465D01*
X15344215Y-6458465D01*
X15344215Y-6515034D01*
X15400784Y-6515034D01*
X15400784Y-6769034D02*
X15400784Y-6712465D01*
X15344215Y-6712465D01*
X15344215Y-6769034D01*
X15400784Y-6769034D01*
X15400784Y-7023034D02*
X15400784Y-6966465D01*
X15344215Y-6966465D01*
X15344215Y-7023034D01*
X15400784Y-7023034D01*
X15400784Y-7277034D02*
X15400784Y-7220465D01*
X15344215Y-7220465D01*
X15344215Y-7277034D01*
X15400784Y-7277034D01*
X15400784Y-7531034D02*
X15400784Y-7474465D01*
X15344215Y-7474465D01*
X15344215Y-7531034D01*
X15400784Y-7531034D01*
X15400784Y-7785034D02*
X15400784Y-7728465D01*
X15344215Y-7728465D01*
X15344215Y-7785034D01*
X15400784Y-7785034D01*
X15400784Y-8039034D02*
X15400784Y-7982465D01*
X15344215Y-7982465D01*
X15344215Y-8039034D01*
X15400784Y-8039034D01*
X15927784Y-6434284D02*
X15927784Y-6377715D01*
X15871215Y-6377715D01*
X15871215Y-6434284D01*
X15927784Y-6434284D01*
X15927784Y-7958284D02*
X15927784Y-7901715D01*
X15871215Y-7901715D01*
X15871215Y-7958284D01*
X15927784Y-7958284D01*
X16181784Y-6434284D02*
X16181784Y-6377715D01*
X16125215Y-6377715D01*
X16125215Y-6434284D01*
X16181784Y-6434284D01*
X16181784Y-7958284D02*
X16181784Y-7901715D01*
X16125215Y-7901715D01*
X16125215Y-7958284D01*
X16181784Y-7958284D01*
X16265384Y-3867684D02*
X16265384Y-3811115D01*
X16208815Y-3811115D01*
X16208815Y-3867684D01*
X16265384Y-3867684D01*
X16265384Y-4121684D02*
X16265384Y-4065115D01*
X16208815Y-4065115D01*
X16208815Y-4121684D01*
X16265384Y-4121684D01*
X16265384Y-4375685D02*
X16265384Y-4319116D01*
X16208815Y-4319116D01*
X16208815Y-4375685D01*
X16265384Y-4375685D01*
X16265384Y-4629685D02*
X16265384Y-4573116D01*
X16208815Y-4573116D01*
X16208815Y-4629685D01*
X16265384Y-4629685D01*
X16265384Y-4883685D02*
X16265384Y-4827116D01*
X16208815Y-4827116D01*
X16208815Y-4883685D01*
X16265384Y-4883685D01*
X16265384Y-5137685D02*
X16265384Y-5081116D01*
X16208815Y-5081116D01*
X16208815Y-5137685D01*
X16265384Y-5137685D01*
X16265384Y-5391685D02*
X16265384Y-5335116D01*
X16208815Y-5335116D01*
X16208815Y-5391685D01*
X16265384Y-5391685D01*
X16435784Y-6434284D02*
X16435784Y-6377715D01*
X16379215Y-6377715D01*
X16379215Y-6434284D01*
X16435784Y-6434284D01*
X16435784Y-7958284D02*
X16435784Y-7901715D01*
X16379215Y-7901715D01*
X16379215Y-7958284D01*
X16435784Y-7958284D01*
X16689784Y-6434284D02*
X16689784Y-6377715D01*
X16633215Y-6377715D01*
X16633215Y-6434284D01*
X16689784Y-6434284D01*
X16689784Y-7958284D02*
X16689784Y-7901715D01*
X16633215Y-7901715D01*
X16633215Y-7958284D01*
X16689784Y-7958284D01*
X16943785Y-6434284D02*
X16943785Y-6377715D01*
X16887216Y-6377715D01*
X16887216Y-6434284D01*
X16943785Y-6434284D01*
X16943785Y-7958284D02*
X16943785Y-7901715D01*
X16887216Y-7901715D01*
X16887216Y-7958284D01*
X16943785Y-7958284D01*
X17027385Y-3867684D02*
X17027385Y-3811115D01*
X16970816Y-3811115D01*
X16970816Y-3867684D01*
X17027385Y-3867684D01*
X17027385Y-4121684D02*
X17027385Y-4065115D01*
X16970816Y-4065115D01*
X16970816Y-4121684D01*
X17027385Y-4121684D01*
X17027385Y-4375685D02*
X17027385Y-4319116D01*
X16970816Y-4319116D01*
X16970816Y-4375685D01*
X17027385Y-4375685D01*
X17027385Y-4629685D02*
X17027385Y-4573116D01*
X16970816Y-4573116D01*
X16970816Y-4629685D01*
X17027385Y-4629685D01*
X17027385Y-4883685D02*
X17027385Y-4827116D01*
X16970816Y-4827116D01*
X16970816Y-4883685D01*
X17027385Y-4883685D01*
X17027385Y-5137685D02*
X17027385Y-5081116D01*
X16970816Y-5081116D01*
X16970816Y-5137685D01*
X17027385Y-5137685D01*
X17027385Y-5391685D02*
X17027385Y-5335116D01*
X16970816Y-5335116D01*
X16970816Y-5391685D01*
X17027385Y-5391685D01*
D16*
X7493211Y-13121256D02*
X7543211Y-13071256D01*
X7493211Y-13021256D01*
X7443211Y-13071256D01*
X7493211Y-13121256D01*
X7631711Y-13405256D02*
X7681711Y-13355256D01*
X7631711Y-13305256D01*
X7581711Y-13355256D01*
X7631711Y-13405256D01*
X7770211Y-13121256D02*
X7820211Y-13071256D01*
X7770211Y-13021256D01*
X7720211Y-13071256D01*
X7770211Y-13121256D01*
X7889500Y-7680000D02*
X7939500Y-7630000D01*
X7889500Y-7580000D01*
X7839500Y-7630000D01*
X7889500Y-7680000D01*
X7908711Y-13405256D02*
X7958711Y-13355256D01*
X7908711Y-13305256D01*
X7858711Y-13355256D01*
X7908711Y-13405256D01*
X8047211Y-13121256D02*
X8097211Y-13071256D01*
X8047211Y-13021256D01*
X7997211Y-13071256D01*
X8047211Y-13121256D01*
X8143500Y-7680000D02*
X8193500Y-7630000D01*
X8143500Y-7580000D01*
X8093500Y-7630000D01*
X8143500Y-7680000D01*
X8185711Y-13405256D02*
X8235711Y-13355256D01*
X8185711Y-13305256D01*
X8135711Y-13355256D01*
X8185711Y-13405256D01*
X8319500Y-6825000D02*
X8369500Y-6775000D01*
X8319500Y-6725000D01*
X8269500Y-6775000D01*
X8319500Y-6825000D01*
X8319500Y-7079000D02*
X8369500Y-7029000D01*
X8319500Y-6979000D01*
X8269500Y-7029000D01*
X8319500Y-7079000D01*
X8324211Y-13121256D02*
X8374211Y-13071256D01*
X8324211Y-13021256D01*
X8274211Y-13071256D01*
X8324211Y-13121256D01*
X8397500Y-7680000D02*
X8447500Y-7630000D01*
X8397500Y-7580000D01*
X8347500Y-7630000D01*
X8397500Y-7680000D01*
X8462711Y-13405256D02*
X8512711Y-13355256D01*
X8462711Y-13305256D01*
X8412711Y-13355256D01*
X8462711Y-13405256D01*
X8573500Y-6825000D02*
X8623500Y-6775000D01*
X8573500Y-6725000D01*
X8523500Y-6775000D01*
X8573500Y-6825000D01*
X8573500Y-7079000D02*
X8623500Y-7029000D01*
X8573500Y-6979000D01*
X8523500Y-7029000D01*
X8573500Y-7079000D01*
X8601211Y-13121256D02*
X8651211Y-13071256D01*
X8601211Y-13021256D01*
X8551211Y-13071256D01*
X8601211Y-13121256D01*
X8827500Y-6825000D02*
X8877500Y-6775000D01*
X8827500Y-6725000D01*
X8777500Y-6775000D01*
X8827500Y-6825000D01*
X8827500Y-7079000D02*
X8877500Y-7029000D01*
X8827500Y-6979000D01*
X8777500Y-7029000D01*
X8827500Y-7079000D01*
X10462500Y-10600000D02*
X10512500Y-10550000D01*
X10462500Y-10500000D01*
X10412500Y-10550000D01*
X10462500Y-10600000D01*
X10462500Y-10854000D02*
X10512500Y-10804000D01*
X10462500Y-10754000D01*
X10412500Y-10804000D01*
X10462500Y-10854000D01*
X10462500Y-11108000D02*
X10512500Y-11058000D01*
X10462500Y-11008000D01*
X10412500Y-11058000D01*
X10462500Y-11108000D01*
X10462500Y-11362000D02*
X10512500Y-11312000D01*
X10462500Y-11262000D01*
X10412500Y-11312000D01*
X10462500Y-11362000D01*
X10982500Y-10856500D02*
X11032500Y-10806500D01*
X10982500Y-10756500D01*
X10932500Y-10806500D01*
X10982500Y-10856500D01*
X10982500Y-11110500D02*
X11032500Y-11060500D01*
X10982500Y-11010500D01*
X10932500Y-11060500D01*
X10982500Y-11110500D01*
X11118211Y-13171256D02*
X11168211Y-13121256D01*
X11118211Y-13071256D01*
X11068211Y-13121256D01*
X11118211Y-13171256D01*
X11256711Y-13455256D02*
X11306711Y-13405256D01*
X11256711Y-13355256D01*
X11206711Y-13405256D01*
X11256711Y-13455256D01*
X11395211Y-13171256D02*
X11445211Y-13121256D01*
X11395211Y-13071256D01*
X11345211Y-13121256D01*
X11395211Y-13171256D01*
X11442500Y-10402500D02*
X11492500Y-10352500D01*
X11442500Y-10302500D01*
X11392500Y-10352500D01*
X11442500Y-10402500D01*
X11442500Y-10656500D02*
X11492500Y-10606500D01*
X11442500Y-10556500D01*
X11392500Y-10606500D01*
X11442500Y-10656500D01*
X11442500Y-10910500D02*
X11492500Y-10860500D01*
X11442500Y-10810500D01*
X11392500Y-10860500D01*
X11442500Y-10910500D01*
X11442500Y-11164500D02*
X11492500Y-11114500D01*
X11442500Y-11064500D01*
X11392500Y-11114500D01*
X11442500Y-11164500D01*
X11442500Y-11418500D02*
X11492500Y-11368500D01*
X11442500Y-11318500D01*
X11392500Y-11368500D01*
X11442500Y-11418500D01*
X11533711Y-13455256D02*
X11583711Y-13405256D01*
X11533711Y-13355256D01*
X11483711Y-13405256D01*
X11533711Y-13455256D01*
X11672211Y-13171256D02*
X11722211Y-13121256D01*
X11672211Y-13071256D01*
X11622211Y-13121256D01*
X11672211Y-13171256D01*
X11810711Y-13455256D02*
X11860711Y-13405256D01*
X11810711Y-13355256D01*
X11760711Y-13405256D01*
X11810711Y-13455256D01*
X11949211Y-13171256D02*
X11999211Y-13121256D01*
X11949211Y-13071256D01*
X11899211Y-13121256D01*
X11949211Y-13171256D01*
X12087711Y-13455256D02*
X12137711Y-13405256D01*
X12087711Y-13355256D01*
X12037711Y-13405256D01*
X12087711Y-13455256D01*
X12226211Y-13171256D02*
X12276211Y-13121256D01*
X12226211Y-13071256D01*
X12176211Y-13121256D01*
X12226211Y-13171256D01*
X12292500Y-11320000D02*
X12342500Y-11270000D01*
X12292500Y-11220000D01*
X12242500Y-11270000D01*
X12292500Y-11320000D01*
X12546500Y-11320000D02*
X12596500Y-11270000D01*
X12546500Y-11220000D01*
X12496500Y-11270000D01*
X12546500Y-11320000D01*
X12776800Y-4195900D02*
X12826800Y-4145900D01*
X12776800Y-4095900D01*
X12726800Y-4145900D01*
X12776800Y-4195900D01*
X12776800Y-4449900D02*
X12826800Y-4399900D01*
X12776800Y-4349900D01*
X12726800Y-4399900D01*
X12776800Y-4449900D01*
X12776800Y-4703900D02*
X12826800Y-4653900D01*
X12776800Y-4603900D01*
X12726800Y-4653900D01*
X12776800Y-4703900D01*
X12800500Y-11320000D02*
X12850500Y-11270000D01*
X12800500Y-11220000D01*
X12750500Y-11270000D01*
X12800500Y-11320000D01*
X13054500Y-11320000D02*
X13104500Y-11270000D01*
X13054500Y-11220000D01*
X13004500Y-11270000D01*
X13054500Y-11320000D01*
X13615000Y-4777500D02*
X13665000Y-4727500D01*
X13615000Y-4677500D01*
X13565000Y-4727500D01*
X13615000Y-4777500D01*
X13615000Y-5031500D02*
X13665000Y-4981500D01*
X13615000Y-4931500D01*
X13565000Y-4981500D01*
X13615000Y-5031500D01*
X13615000Y-5285500D02*
X13665000Y-5235500D01*
X13615000Y-5185500D01*
X13565000Y-5235500D01*
X13615000Y-5285500D01*
X13703051Y-7455551D02*
X13753051Y-7405551D01*
X13703051Y-7355551D01*
X13653051Y-7405551D01*
X13703051Y-7455551D01*
X13882656Y-7635156D02*
X13932656Y-7585156D01*
X13882656Y-7535156D01*
X13832656Y-7585156D01*
X13882656Y-7635156D01*
X14828211Y-13176256D02*
X14878211Y-13126256D01*
X14828211Y-13076256D01*
X14778211Y-13126256D01*
X14828211Y-13176256D01*
X14966711Y-13460256D02*
X15016711Y-13410256D01*
X14966711Y-13360256D01*
X14916711Y-13410256D01*
X14966711Y-13460256D01*
X15105211Y-13176256D02*
X15155211Y-13126256D01*
X15105211Y-13076256D01*
X15055211Y-13126256D01*
X15105211Y-13176256D01*
X15243711Y-13460256D02*
X15293711Y-13410256D01*
X15243711Y-13360256D01*
X15193711Y-13410256D01*
X15243711Y-13460256D01*
X15382211Y-13176256D02*
X15432211Y-13126256D01*
X15382211Y-13076256D01*
X15332211Y-13126256D01*
X15382211Y-13176256D01*
X15520711Y-13460256D02*
X15570711Y-13410256D01*
X15520711Y-13360256D01*
X15470711Y-13410256D01*
X15520711Y-13460256D01*
X15540000Y-9070000D02*
X15590000Y-9020000D01*
X15540000Y-8970000D01*
X15490000Y-9020000D01*
X15540000Y-9070000D01*
X15659211Y-13176256D02*
X15709211Y-13126256D01*
X15659211Y-13076256D01*
X15609211Y-13126256D01*
X15659211Y-13176256D01*
X15794000Y-9070000D02*
X15844000Y-9020000D01*
X15794000Y-8970000D01*
X15744000Y-9020000D01*
X15794000Y-9070000D01*
X15797711Y-13460256D02*
X15847711Y-13410256D01*
X15797711Y-13360256D01*
X15747711Y-13410256D01*
X15797711Y-13460256D01*
X15936211Y-13176256D02*
X15986211Y-13126256D01*
X15936211Y-13076256D01*
X15886211Y-13126256D01*
X15936211Y-13176256D01*
X16048000Y-9070000D02*
X16098000Y-9020000D01*
X16048000Y-8970000D01*
X15998000Y-9020000D01*
X16048000Y-9070000D01*
X16150700Y-10803000D02*
X16200700Y-10753000D01*
X16150700Y-10703000D01*
X16100700Y-10753000D01*
X16150700Y-10803000D01*
X16167700Y-12106500D02*
X16217700Y-12056500D01*
X16167700Y-12006500D01*
X16117700Y-12056500D01*
X16167700Y-12106500D01*
X16302000Y-9070000D02*
X16352000Y-9020000D01*
X16302000Y-8970000D01*
X16252000Y-9020000D01*
X16302000Y-9070000D01*
X16556000Y-9070000D02*
X16606000Y-9020000D01*
X16556000Y-8970000D01*
X16506000Y-9020000D01*
X16556000Y-9070000D01*
X16650300Y-12106500D02*
X16700300Y-12056500D01*
X16650300Y-12006500D01*
X16600300Y-12056500D01*
X16650300Y-12106500D01*
X16665700Y-10795500D02*
X16715700Y-10745500D01*
X16665700Y-10695500D01*
X16615700Y-10745500D01*
X16665700Y-10795500D01*
X18203267Y-12181689D02*
X18253267Y-12131689D01*
X18203267Y-12081689D01*
X18153267Y-12131689D01*
X18203267Y-12181689D01*
X18203267Y-12458689D02*
X18253267Y-12408689D01*
X18203267Y-12358689D01*
X18153267Y-12408689D01*
X18203267Y-12458689D01*
X18203267Y-12735689D02*
X18253267Y-12685689D01*
X18203267Y-12635689D01*
X18153267Y-12685689D01*
X18203267Y-12735689D01*
X18203267Y-13012689D02*
X18253267Y-12962689D01*
X18203267Y-12912689D01*
X18153267Y-12962689D01*
X18203267Y-13012689D01*
X18203267Y-13289689D02*
X18253267Y-13239689D01*
X18203267Y-13189689D01*
X18153267Y-13239689D01*
X18203267Y-13289689D01*
X18218611Y-8411689D02*
X18268611Y-8361689D01*
X18218611Y-8311689D01*
X18168611Y-8361689D01*
X18218611Y-8411689D01*
X18218611Y-8688689D02*
X18268611Y-8638689D01*
X18218611Y-8588689D01*
X18168611Y-8638689D01*
X18218611Y-8688689D01*
X18218611Y-8965689D02*
X18268611Y-8915689D01*
X18218611Y-8865689D01*
X18168611Y-8915689D01*
X18218611Y-8965689D01*
X18218611Y-9242689D02*
X18268611Y-9192689D01*
X18218611Y-9142689D01*
X18168611Y-9192689D01*
X18218611Y-9242689D01*
X18218611Y-9519689D02*
X18268611Y-9469689D01*
X18218611Y-9419689D01*
X18168611Y-9469689D01*
X18218611Y-9519689D01*
X18270578Y-4661689D02*
X18320578Y-4611689D01*
X18270578Y-4561689D01*
X18220578Y-4611689D01*
X18270578Y-4661689D01*
X18270578Y-4938689D02*
X18320578Y-4888689D01*
X18270578Y-4838689D01*
X18220578Y-4888689D01*
X18270578Y-4938689D01*
X18270578Y-5215689D02*
X18320578Y-5165689D01*
X18270578Y-5115689D01*
X18220578Y-5165689D01*
X18270578Y-5215689D01*
X18270578Y-5492689D02*
X18320578Y-5442689D01*
X18270578Y-5392689D01*
X18220578Y-5442689D01*
X18270578Y-5492689D01*
X18270578Y-5769689D02*
X18320578Y-5719689D01*
X18270578Y-5669689D01*
X18220578Y-5719689D01*
X18270578Y-5769689D01*
X18487267Y-12320189D02*
X18537267Y-12270189D01*
X18487267Y-12220189D01*
X18437267Y-12270189D01*
X18487267Y-12320189D01*
X18487267Y-12597189D02*
X18537267Y-12547189D01*
X18487267Y-12497189D01*
X18437267Y-12547189D01*
X18487267Y-12597189D01*
X18487267Y-12874189D02*
X18537267Y-12824189D01*
X18487267Y-12774189D01*
X18437267Y-12824189D01*
X18487267Y-12874189D01*
X18487267Y-13151189D02*
X18537267Y-13101189D01*
X18487267Y-13051189D01*
X18437267Y-13101189D01*
X18487267Y-13151189D01*
X18502611Y-8550189D02*
X18552611Y-8500189D01*
X18502611Y-8450189D01*
X18452611Y-8500189D01*
X18502611Y-8550189D01*
X18502611Y-8827189D02*
X18552611Y-8777189D01*
X18502611Y-8727189D01*
X18452611Y-8777189D01*
X18502611Y-8827189D01*
X18502611Y-9104189D02*
X18552611Y-9054189D01*
X18502611Y-9004189D01*
X18452611Y-9054189D01*
X18502611Y-9104189D01*
X18502611Y-9381189D02*
X18552611Y-9331189D01*
X18502611Y-9281189D01*
X18452611Y-9331189D01*
X18502611Y-9381189D01*
X18554578Y-4800189D02*
X18604578Y-4750189D01*
X18554578Y-4700189D01*
X18504578Y-4750189D01*
X18554578Y-4800189D01*
X18554578Y-5077189D02*
X18604578Y-5027189D01*
X18554578Y-4977189D01*
X18504578Y-5027189D01*
X18554578Y-5077189D01*
X18554578Y-5354189D02*
X18604578Y-5304189D01*
X18554578Y-5254189D01*
X18504578Y-5304189D01*
X18554578Y-5354189D01*
X18554578Y-5631189D02*
X18604578Y-5581189D01*
X18554578Y-5531189D01*
X18504578Y-5581189D01*
X18554578Y-5631189D01*
D17*
X9843211Y-7169289D02*
X9953211Y-7279289D01*
X9953211Y-7169289D02*
X9843211Y-7279289D01*
X9953211Y-7224289D02*
G75*
G03*
X9953211Y-7224289I-55000J0D01*
G01*
X9843211Y-7619289D02*
X9953211Y-7729289D01*
X9953211Y-7619289D02*
X9843211Y-7729289D01*
X9953211Y-7674289D02*
G75*
G03*
X9953211Y-7674289I-55000J0D01*
G01*
X10493211Y-7169289D02*
X10603211Y-7279289D01*
X10603211Y-7169289D02*
X10493211Y-7279289D01*
X10603211Y-7224289D02*
G75*
G03*
X10603211Y-7224289I-55000J0D01*
G01*
X10493211Y-7619289D02*
X10603211Y-7729289D01*
X10603211Y-7619289D02*
X10493211Y-7729289D01*
X10603211Y-7674289D02*
G75*
G03*
X10603211Y-7674289I-55000J0D01*
G01*
D18*
X11345211Y-4337150D02*
X11485211Y-4477150D01*
X11485211Y-4337150D02*
X11345211Y-4477150D01*
X11415211Y-4337150D02*
X11415211Y-4477150D01*
X11345211Y-4407150D02*
X11485211Y-4407150D01*
X11845211Y-4337150D02*
X11985211Y-4477150D01*
X11985211Y-4337150D02*
X11845211Y-4477150D01*
X11915211Y-4337150D02*
X11915211Y-4477150D01*
X11845211Y-4407150D02*
X11985211Y-4407150D01*
D19*
X11045800Y-5055000D02*
X11205800Y-5215000D01*
X11205800Y-5055000D02*
X11045800Y-5215000D01*
X11182369Y-5191569D02*
X11182369Y-5078431D01*
X11069231Y-5078431D01*
X11069231Y-5191569D01*
X11182369Y-5191569D01*
X11528400Y-5055000D02*
X11688400Y-5215000D01*
X11688400Y-5055000D02*
X11528400Y-5215000D01*
X11664969Y-5191569D02*
X11664969Y-5078431D01*
X11551831Y-5078431D01*
X11551831Y-5191569D01*
X11664969Y-5191569D01*
X11985600Y-5055000D02*
X12145600Y-5215000D01*
X12145600Y-5055000D02*
X11985600Y-5215000D01*
X12122169Y-5191569D02*
X12122169Y-5078431D01*
X12009031Y-5078431D01*
X12009031Y-5191569D01*
X12122169Y-5191569D01*
X12455500Y-5055000D02*
X12615500Y-5215000D01*
X12615500Y-5055000D02*
X12455500Y-5215000D01*
X12592069Y-5191569D02*
X12592069Y-5078431D01*
X12478931Y-5078431D01*
X12478931Y-5191569D01*
X12592069Y-5191569D01*
X12925400Y-5042300D02*
X13085400Y-5202300D01*
X13085400Y-5042300D02*
X12925400Y-5202300D01*
X13061969Y-5178869D02*
X13061969Y-5065731D01*
X12948831Y-5065731D01*
X12948831Y-5178869D01*
X13061969Y-5178869D01*
D20*
X6487500Y-8340000D02*
X6807500Y-8660000D01*
X6807500Y-8340000D02*
X6487500Y-8660000D01*
X6647500Y-8660000D02*
X6807500Y-8500000D01*
X6647500Y-8340000D01*
X6487500Y-8500000D01*
X6647500Y-8660000D01*
X6533211Y-11719289D02*
X6853211Y-12039289D01*
X6853211Y-11719289D02*
X6533211Y-12039289D01*
X6693211Y-12039289D02*
X6853211Y-11879289D01*
X6693211Y-11719289D01*
X6533211Y-11879289D01*
X6693211Y-12039289D01*
X6637211Y-13053256D02*
X6957211Y-13373256D01*
X6957211Y-13053256D02*
X6637211Y-13373256D01*
X6797211Y-13373256D02*
X6957211Y-13213256D01*
X6797211Y-13053256D01*
X6637211Y-13213256D01*
X6797211Y-13373256D01*
X9137211Y-13053256D02*
X9457211Y-13373256D01*
X9457211Y-13053256D02*
X9137211Y-13373256D01*
X9297211Y-13373256D02*
X9457211Y-13213256D01*
X9297211Y-13053256D01*
X9137211Y-13213256D01*
X9297211Y-13373256D01*
X10262211Y-13103256D02*
X10582211Y-13423256D01*
X10582211Y-13103256D02*
X10262211Y-13423256D01*
X10422211Y-13423256D02*
X10582211Y-13263256D01*
X10422211Y-13103256D01*
X10262211Y-13263256D01*
X10422211Y-13423256D01*
X12762211Y-13103256D02*
X13082211Y-13423256D01*
X13082211Y-13103256D02*
X12762211Y-13423256D01*
X12922211Y-13423256D02*
X13082211Y-13263256D01*
X12922211Y-13103256D01*
X12762211Y-13263256D01*
X12922211Y-13423256D01*
X13972211Y-13108256D02*
X14292211Y-13428256D01*
X14292211Y-13108256D02*
X13972211Y-13428256D01*
X14132211Y-13428256D02*
X14292211Y-13268256D01*
X14132211Y-13108256D01*
X13972211Y-13268256D01*
X14132211Y-13428256D01*
X16472211Y-13108256D02*
X16792211Y-13428256D01*
X16792211Y-13108256D02*
X16472211Y-13428256D01*
X16632211Y-13428256D02*
X16792211Y-13268256D01*
X16632211Y-13108256D01*
X16472211Y-13268256D01*
X16632211Y-13428256D01*
X17282500Y-13250000D02*
X17602500Y-13570000D01*
X17602500Y-13250000D02*
X17282500Y-13570000D01*
X17442500Y-13570000D02*
X17602500Y-13410000D01*
X17442500Y-13250000D01*
X17282500Y-13410000D01*
X17442500Y-13570000D01*
X17455500Y-3984400D02*
X17775500Y-4304400D01*
X17775500Y-3984400D02*
X17455500Y-4304400D01*
X17615500Y-4304400D02*
X17775500Y-4144400D01*
X17615500Y-3984400D01*
X17455500Y-4144400D01*
X17615500Y-4304400D01*
X18185267Y-11275689D02*
X18505267Y-11595689D01*
X18505267Y-11275689D02*
X18185267Y-11595689D01*
X18345267Y-11595689D02*
X18505267Y-11435689D01*
X18345267Y-11275689D01*
X18185267Y-11435689D01*
X18345267Y-11595689D01*
X18185267Y-13775689D02*
X18505267Y-14095689D01*
X18505267Y-13775689D02*
X18185267Y-14095689D01*
X18345267Y-14095689D02*
X18505267Y-13935689D01*
X18345267Y-13775689D01*
X18185267Y-13935689D01*
X18345267Y-14095689D01*
X18200611Y-7505689D02*
X18520611Y-7825689D01*
X18520611Y-7505689D02*
X18200611Y-7825689D01*
X18360611Y-7825689D02*
X18520611Y-7665689D01*
X18360611Y-7505689D01*
X18200611Y-7665689D01*
X18360611Y-7825689D01*
X18200611Y-10005689D02*
X18520611Y-10325689D01*
X18520611Y-10005689D02*
X18200611Y-10325689D01*
X18360611Y-10325689D02*
X18520611Y-10165689D01*
X18360611Y-10005689D01*
X18200611Y-10165689D01*
X18360611Y-10325689D01*
X18252578Y-3755689D02*
X18572578Y-4075689D01*
X18572578Y-3755689D02*
X18252578Y-4075689D01*
X18412578Y-4075689D02*
X18572578Y-3915689D01*
X18412578Y-3755689D01*
X18252578Y-3915689D01*
X18412578Y-4075689D01*
X18252578Y-6255689D02*
X18572578Y-6575689D01*
X18572578Y-6255689D02*
X18252578Y-6575689D01*
X18412578Y-6575689D02*
X18572578Y-6415689D01*
X18412578Y-6255689D01*
X18252578Y-6415689D01*
X18412578Y-6575689D01*
D11*
X6325691Y-14582976D02*
X6325691Y-14382976D01*
X6373310Y-14382976D01*
X6401881Y-14392500D01*
X6420929Y-14411548D01*
X6430453Y-14430595D01*
X6439976Y-14468690D01*
X6439976Y-14497262D01*
X6430453Y-14535357D01*
X6420929Y-14554405D01*
X6401881Y-14573452D01*
X6373310Y-14582976D01*
X6325691Y-14582976D01*
X6525691Y-14582976D02*
X6525691Y-14449643D01*
X6525691Y-14487738D02*
X6535214Y-14468690D01*
X6544738Y-14459167D01*
X6563786Y-14449643D01*
X6582834Y-14449643D01*
X6649500Y-14582976D02*
X6649500Y-14449643D01*
X6649500Y-14382976D02*
X6639976Y-14392500D01*
X6649500Y-14402024D01*
X6659024Y-14392500D01*
X6649500Y-14382976D01*
X6649500Y-14402024D01*
X6773310Y-14582976D02*
X6754262Y-14573452D01*
X6744738Y-14554405D01*
X6744738Y-14382976D01*
X6878072Y-14582976D02*
X6859024Y-14573452D01*
X6849500Y-14554405D01*
X6849500Y-14382976D01*
X7106643Y-14582976D02*
X7106643Y-14382976D01*
X7173310Y-14525833D01*
X7239976Y-14382976D01*
X7239976Y-14582976D01*
X7420929Y-14582976D02*
X7420929Y-14478214D01*
X7411405Y-14459167D01*
X7392357Y-14449643D01*
X7354262Y-14449643D01*
X7335214Y-14459167D01*
X7420929Y-14573452D02*
X7401881Y-14582976D01*
X7354262Y-14582976D01*
X7335214Y-14573452D01*
X7325691Y-14554405D01*
X7325691Y-14535357D01*
X7335214Y-14516309D01*
X7354262Y-14506786D01*
X7401881Y-14506786D01*
X7420929Y-14497262D01*
X7516167Y-14449643D02*
X7516167Y-14649643D01*
X7516167Y-14459167D02*
X7535214Y-14449643D01*
X7573310Y-14449643D01*
X7592357Y-14459167D01*
X7601881Y-14468690D01*
X7611405Y-14487738D01*
X7611405Y-14544881D01*
X7601881Y-14563928D01*
X7592357Y-14573452D01*
X7573310Y-14582976D01*
X7535214Y-14582976D01*
X7516167Y-14573452D01*
X7697119Y-14563928D02*
X7706643Y-14573452D01*
X7697119Y-14582976D01*
X7687595Y-14573452D01*
X7697119Y-14563928D01*
X7697119Y-14582976D01*
X7697119Y-14459167D02*
X7706643Y-14468690D01*
X7697119Y-14478214D01*
X7687595Y-14468690D01*
X7697119Y-14459167D01*
X7697119Y-14478214D01*
D12*
X6028072Y-14892500D02*
X6068072Y-14932500D01*
X6068072Y-14892500D02*
X6028072Y-14932500D01*
D11*
X6363786Y-14802976D02*
X6382834Y-14802976D01*
X6401881Y-14812500D01*
X6411405Y-14822024D01*
X6420929Y-14841071D01*
X6430453Y-14879167D01*
X6430453Y-14926786D01*
X6420929Y-14964881D01*
X6411405Y-14983928D01*
X6401881Y-14993452D01*
X6382834Y-15002976D01*
X6363786Y-15002976D01*
X6344738Y-14993452D01*
X6335214Y-14983928D01*
X6325691Y-14964881D01*
X6316167Y-14926786D01*
X6316167Y-14879167D01*
X6325691Y-14841071D01*
X6335214Y-14822024D01*
X6344738Y-14812500D01*
X6363786Y-14802976D01*
X6516167Y-14983928D02*
X6525691Y-14993452D01*
X6516167Y-15002976D01*
X6506643Y-14993452D01*
X6516167Y-14983928D01*
X6516167Y-15002976D01*
X6697119Y-14869643D02*
X6697119Y-15002976D01*
X6649500Y-14793452D02*
X6601881Y-14936309D01*
X6725691Y-14936309D01*
X6839976Y-14802976D02*
X6859024Y-14802976D01*
X6878072Y-14812500D01*
X6887595Y-14822024D01*
X6897119Y-14841071D01*
X6906643Y-14879167D01*
X6906643Y-14926786D01*
X6897119Y-14964881D01*
X6887595Y-14983928D01*
X6878072Y-14993452D01*
X6859024Y-15002976D01*
X6839976Y-15002976D01*
X6820929Y-14993452D01*
X6811405Y-14983928D01*
X6801881Y-14964881D01*
X6792357Y-14926786D01*
X6792357Y-14879167D01*
X6801881Y-14841071D01*
X6811405Y-14822024D01*
X6820929Y-14812500D01*
X6839976Y-14802976D01*
X7030453Y-14802976D02*
X7049500Y-14802976D01*
X7068548Y-14812500D01*
X7078072Y-14822024D01*
X7087595Y-14841071D01*
X7097119Y-14879167D01*
X7097119Y-14926786D01*
X7087595Y-14964881D01*
X7078072Y-14983928D01*
X7068548Y-14993452D01*
X7049500Y-15002976D01*
X7030453Y-15002976D01*
X7011405Y-14993452D01*
X7001881Y-14983928D01*
X6992357Y-14964881D01*
X6982834Y-14926786D01*
X6982834Y-14879167D01*
X6992357Y-14841071D01*
X7001881Y-14822024D01*
X7011405Y-14812500D01*
X7030453Y-14802976D01*
X7182834Y-15002976D02*
X7182834Y-14869643D01*
X7182834Y-14888690D02*
X7192357Y-14879167D01*
X7211405Y-14869643D01*
X7239976Y-14869643D01*
X7259024Y-14879167D01*
X7268548Y-14898214D01*
X7268548Y-15002976D01*
X7268548Y-14898214D02*
X7278072Y-14879167D01*
X7297119Y-14869643D01*
X7325691Y-14869643D01*
X7344738Y-14879167D01*
X7354262Y-14898214D01*
X7354262Y-15002976D01*
X7449500Y-15002976D02*
X7449500Y-14869643D01*
X7449500Y-14888690D02*
X7459024Y-14879167D01*
X7478072Y-14869643D01*
X7506643Y-14869643D01*
X7525691Y-14879167D01*
X7535214Y-14898214D01*
X7535214Y-15002976D01*
X7535214Y-14898214D02*
X7544738Y-14879167D01*
X7563786Y-14869643D01*
X7592357Y-14869643D01*
X7611405Y-14879167D01*
X7620929Y-14898214D01*
X7620929Y-15002976D01*
X8011405Y-14793452D02*
X7839976Y-15050595D01*
X8268548Y-14802976D02*
X8287595Y-14802976D01*
X8306643Y-14812500D01*
X8316167Y-14822024D01*
X8325691Y-14841071D01*
X8335214Y-14879167D01*
X8335214Y-14926786D01*
X8325691Y-14964881D01*
X8316167Y-14983928D01*
X8306643Y-14993452D01*
X8287595Y-15002976D01*
X8268548Y-15002976D01*
X8249500Y-14993452D01*
X8239976Y-14983928D01*
X8230453Y-14964881D01*
X8220929Y-14926786D01*
X8220929Y-14879167D01*
X8230453Y-14841071D01*
X8239976Y-14822024D01*
X8249500Y-14812500D01*
X8268548Y-14802976D01*
X8420929Y-14983928D02*
X8430453Y-14993452D01*
X8420929Y-15002976D01*
X8411405Y-14993452D01*
X8420929Y-14983928D01*
X8420929Y-15002976D01*
X8554262Y-14802976D02*
X8573310Y-14802976D01*
X8592357Y-14812500D01*
X8601881Y-14822024D01*
X8611405Y-14841071D01*
X8620929Y-14879167D01*
X8620929Y-14926786D01*
X8611405Y-14964881D01*
X8601881Y-14983928D01*
X8592357Y-14993452D01*
X8573310Y-15002976D01*
X8554262Y-15002976D01*
X8535215Y-14993452D01*
X8525691Y-14983928D01*
X8516167Y-14964881D01*
X8506643Y-14926786D01*
X8506643Y-14879167D01*
X8516167Y-14841071D01*
X8525691Y-14822024D01*
X8535215Y-14812500D01*
X8554262Y-14802976D01*
X8811405Y-15002976D02*
X8697119Y-15002976D01*
X8754262Y-15002976D02*
X8754262Y-14802976D01*
X8735215Y-14831548D01*
X8716167Y-14850595D01*
X8697119Y-14860119D01*
X8992357Y-14802976D02*
X8897119Y-14802976D01*
X8887596Y-14898214D01*
X8897119Y-14888690D01*
X8916167Y-14879167D01*
X8963786Y-14879167D01*
X8982834Y-14888690D01*
X8992357Y-14898214D01*
X9001881Y-14917262D01*
X9001881Y-14964881D01*
X8992357Y-14983928D01*
X8982834Y-14993452D01*
X8963786Y-15002976D01*
X8916167Y-15002976D01*
X8897119Y-14993452D01*
X8887596Y-14983928D01*
X9068548Y-14802976D02*
X9201881Y-14802976D01*
X9116167Y-15002976D01*
X9268548Y-14802976D02*
X9268548Y-14841071D01*
X9344738Y-14802976D02*
X9344738Y-14841071D01*
X9639976Y-15079167D02*
X9630453Y-15069643D01*
X9611405Y-15041071D01*
X9601881Y-15022024D01*
X9592357Y-14993452D01*
X9582834Y-14945833D01*
X9582834Y-14907738D01*
X9592357Y-14860119D01*
X9601881Y-14831548D01*
X9611405Y-14812500D01*
X9630453Y-14783928D01*
X9639976Y-14774405D01*
X9706643Y-14822024D02*
X9716167Y-14812500D01*
X9735215Y-14802976D01*
X9782834Y-14802976D01*
X9801881Y-14812500D01*
X9811405Y-14822024D01*
X9820929Y-14841071D01*
X9820929Y-14860119D01*
X9811405Y-14888690D01*
X9697119Y-15002976D01*
X9820929Y-15002976D01*
X9992357Y-14869643D02*
X9992357Y-15002976D01*
X9944738Y-14793452D02*
X9897119Y-14936309D01*
X10020929Y-14936309D01*
X10182834Y-14869643D02*
X10182834Y-15002976D01*
X10135215Y-14793452D02*
X10087596Y-14936309D01*
X10211405Y-14936309D01*
X10439976Y-15002976D02*
X10439976Y-14802976D01*
X10525691Y-15002976D02*
X10525691Y-14898214D01*
X10516167Y-14879167D01*
X10497119Y-14869643D01*
X10468548Y-14869643D01*
X10449500Y-14879167D01*
X10439976Y-14888690D01*
X10649500Y-15002976D02*
X10630453Y-14993452D01*
X10620929Y-14983928D01*
X10611405Y-14964881D01*
X10611405Y-14907738D01*
X10620929Y-14888690D01*
X10630453Y-14879167D01*
X10649500Y-14869643D01*
X10678072Y-14869643D01*
X10697119Y-14879167D01*
X10706643Y-14888690D01*
X10716167Y-14907738D01*
X10716167Y-14964881D01*
X10706643Y-14983928D01*
X10697119Y-14993452D01*
X10678072Y-15002976D01*
X10649500Y-15002976D01*
X10830453Y-15002976D02*
X10811405Y-14993452D01*
X10801881Y-14974405D01*
X10801881Y-14802976D01*
X10982834Y-14993452D02*
X10963786Y-15002976D01*
X10925691Y-15002976D01*
X10906643Y-14993452D01*
X10897119Y-14974405D01*
X10897119Y-14898214D01*
X10906643Y-14879167D01*
X10925691Y-14869643D01*
X10963786Y-14869643D01*
X10982834Y-14879167D01*
X10992357Y-14898214D01*
X10992357Y-14917262D01*
X10897119Y-14936309D01*
X11068548Y-14993452D02*
X11087596Y-15002976D01*
X11125691Y-15002976D01*
X11144738Y-14993452D01*
X11154262Y-14974405D01*
X11154262Y-14964881D01*
X11144738Y-14945833D01*
X11125691Y-14936309D01*
X11097119Y-14936309D01*
X11078072Y-14926786D01*
X11068548Y-14907738D01*
X11068548Y-14898214D01*
X11078072Y-14879167D01*
X11097119Y-14869643D01*
X11125691Y-14869643D01*
X11144738Y-14879167D01*
X11220929Y-15079167D02*
X11230453Y-15069643D01*
X11249500Y-15041071D01*
X11259024Y-15022024D01*
X11268548Y-14993452D01*
X11278072Y-14945833D01*
X11278072Y-14907738D01*
X11268548Y-14860119D01*
X11259024Y-14831548D01*
X11249500Y-14812500D01*
X11230453Y-14783928D01*
X11220929Y-14774405D01*
D13*
X6068072Y-15176500D02*
G75*
G03*
X6068072Y-15176500I-38100J0D01*
G01*
D11*
X6363786Y-15066976D02*
X6382834Y-15066976D01*
X6401881Y-15076500D01*
X6411405Y-15086024D01*
X6420929Y-15105071D01*
X6430453Y-15143167D01*
X6430453Y-15190786D01*
X6420929Y-15228881D01*
X6411405Y-15247928D01*
X6401881Y-15257452D01*
X6382834Y-15266976D01*
X6363786Y-15266976D01*
X6344738Y-15257452D01*
X6335214Y-15247928D01*
X6325691Y-15228881D01*
X6316167Y-15190786D01*
X6316167Y-15143167D01*
X6325691Y-15105071D01*
X6335214Y-15086024D01*
X6344738Y-15076500D01*
X6363786Y-15066976D01*
X6516167Y-15247928D02*
X6525691Y-15257452D01*
X6516167Y-15266976D01*
X6506643Y-15257452D01*
X6516167Y-15247928D01*
X6516167Y-15266976D01*
X6592357Y-15066976D02*
X6725691Y-15066976D01*
X6639976Y-15266976D01*
X6887595Y-15066976D02*
X6849500Y-15066976D01*
X6830453Y-15076500D01*
X6820929Y-15086024D01*
X6801881Y-15114595D01*
X6792357Y-15152690D01*
X6792357Y-15228881D01*
X6801881Y-15247928D01*
X6811405Y-15257452D01*
X6830453Y-15266976D01*
X6868548Y-15266976D01*
X6887595Y-15257452D01*
X6897119Y-15247928D01*
X6906643Y-15228881D01*
X6906643Y-15181262D01*
X6897119Y-15162214D01*
X6887595Y-15152690D01*
X6868548Y-15143167D01*
X6830453Y-15143167D01*
X6811405Y-15152690D01*
X6801881Y-15162214D01*
X6792357Y-15181262D01*
X6982834Y-15086024D02*
X6992357Y-15076500D01*
X7011405Y-15066976D01*
X7059024Y-15066976D01*
X7078072Y-15076500D01*
X7087595Y-15086024D01*
X7097119Y-15105071D01*
X7097119Y-15124119D01*
X7087595Y-15152690D01*
X6973310Y-15266976D01*
X7097119Y-15266976D01*
X7182834Y-15266976D02*
X7182834Y-15133643D01*
X7182834Y-15152690D02*
X7192357Y-15143167D01*
X7211405Y-15133643D01*
X7239976Y-15133643D01*
X7259024Y-15143167D01*
X7268548Y-15162214D01*
X7268548Y-15266976D01*
X7268548Y-15162214D02*
X7278072Y-15143167D01*
X7297119Y-15133643D01*
X7325691Y-15133643D01*
X7344738Y-15143167D01*
X7354262Y-15162214D01*
X7354262Y-15266976D01*
X7449500Y-15266976D02*
X7449500Y-15133643D01*
X7449500Y-15152690D02*
X7459024Y-15143167D01*
X7478072Y-15133643D01*
X7506643Y-15133643D01*
X7525691Y-15143167D01*
X7535214Y-15162214D01*
X7535214Y-15266976D01*
X7535214Y-15162214D02*
X7544738Y-15143167D01*
X7563786Y-15133643D01*
X7592357Y-15133643D01*
X7611405Y-15143167D01*
X7620929Y-15162214D01*
X7620929Y-15266976D01*
X8011405Y-15057452D02*
X7839976Y-15314595D01*
X8268548Y-15066976D02*
X8287595Y-15066976D01*
X8306643Y-15076500D01*
X8316167Y-15086024D01*
X8325691Y-15105071D01*
X8335214Y-15143167D01*
X8335214Y-15190786D01*
X8325691Y-15228881D01*
X8316167Y-15247928D01*
X8306643Y-15257452D01*
X8287595Y-15266976D01*
X8268548Y-15266976D01*
X8249500Y-15257452D01*
X8239976Y-15247928D01*
X8230453Y-15228881D01*
X8220929Y-15190786D01*
X8220929Y-15143167D01*
X8230453Y-15105071D01*
X8239976Y-15086024D01*
X8249500Y-15076500D01*
X8268548Y-15066976D01*
X8420929Y-15247928D02*
X8430453Y-15257452D01*
X8420929Y-15266976D01*
X8411405Y-15257452D01*
X8420929Y-15247928D01*
X8420929Y-15266976D01*
X8554262Y-15066976D02*
X8573310Y-15066976D01*
X8592357Y-15076500D01*
X8601881Y-15086024D01*
X8611405Y-15105071D01*
X8620929Y-15143167D01*
X8620929Y-15190786D01*
X8611405Y-15228881D01*
X8601881Y-15247928D01*
X8592357Y-15257452D01*
X8573310Y-15266976D01*
X8554262Y-15266976D01*
X8535215Y-15257452D01*
X8525691Y-15247928D01*
X8516167Y-15228881D01*
X8506643Y-15190786D01*
X8506643Y-15143167D01*
X8516167Y-15105071D01*
X8525691Y-15086024D01*
X8535215Y-15076500D01*
X8554262Y-15066976D01*
X8687596Y-15066976D02*
X8811405Y-15066976D01*
X8744738Y-15143167D01*
X8773310Y-15143167D01*
X8792357Y-15152690D01*
X8801881Y-15162214D01*
X8811405Y-15181262D01*
X8811405Y-15228881D01*
X8801881Y-15247928D01*
X8792357Y-15257452D01*
X8773310Y-15266976D01*
X8716167Y-15266976D01*
X8697119Y-15257452D01*
X8687596Y-15247928D01*
X8935215Y-15066976D02*
X8954262Y-15066976D01*
X8973310Y-15076500D01*
X8982834Y-15086024D01*
X8992357Y-15105071D01*
X9001881Y-15143167D01*
X9001881Y-15190786D01*
X8992357Y-15228881D01*
X8982834Y-15247928D01*
X8973310Y-15257452D01*
X8954262Y-15266976D01*
X8935215Y-15266976D01*
X8916167Y-15257452D01*
X8906643Y-15247928D01*
X8897119Y-15228881D01*
X8887596Y-15190786D01*
X8887596Y-15143167D01*
X8897119Y-15105071D01*
X8906643Y-15086024D01*
X8916167Y-15076500D01*
X8935215Y-15066976D01*
X9125691Y-15066976D02*
X9144738Y-15066976D01*
X9163786Y-15076500D01*
X9173310Y-15086024D01*
X9182834Y-15105071D01*
X9192357Y-15143167D01*
X9192357Y-15190786D01*
X9182834Y-15228881D01*
X9173310Y-15247928D01*
X9163786Y-15257452D01*
X9144738Y-15266976D01*
X9125691Y-15266976D01*
X9106643Y-15257452D01*
X9097119Y-15247928D01*
X9087596Y-15228881D01*
X9078072Y-15190786D01*
X9078072Y-15143167D01*
X9087596Y-15105071D01*
X9097119Y-15086024D01*
X9106643Y-15076500D01*
X9125691Y-15066976D01*
X9268548Y-15066976D02*
X9268548Y-15105071D01*
X9344738Y-15066976D02*
X9344738Y-15105071D01*
X9639976Y-15343167D02*
X9630453Y-15333643D01*
X9611405Y-15305071D01*
X9601881Y-15286024D01*
X9592357Y-15257452D01*
X9582834Y-15209833D01*
X9582834Y-15171738D01*
X9592357Y-15124119D01*
X9601881Y-15095548D01*
X9611405Y-15076500D01*
X9630453Y-15047928D01*
X9639976Y-15038405D01*
X9801881Y-15133643D02*
X9801881Y-15266976D01*
X9754262Y-15057452D02*
X9706643Y-15200309D01*
X9830453Y-15200309D01*
X10059024Y-15266976D02*
X10059024Y-15066976D01*
X10144738Y-15266976D02*
X10144738Y-15162214D01*
X10135215Y-15143167D01*
X10116167Y-15133643D01*
X10087596Y-15133643D01*
X10068548Y-15143167D01*
X10059024Y-15152690D01*
X10268548Y-15266976D02*
X10249500Y-15257452D01*
X10239976Y-15247928D01*
X10230453Y-15228881D01*
X10230453Y-15171738D01*
X10239976Y-15152690D01*
X10249500Y-15143167D01*
X10268548Y-15133643D01*
X10297119Y-15133643D01*
X10316167Y-15143167D01*
X10325691Y-15152690D01*
X10335215Y-15171738D01*
X10335215Y-15228881D01*
X10325691Y-15247928D01*
X10316167Y-15257452D01*
X10297119Y-15266976D01*
X10268548Y-15266976D01*
X10449500Y-15266976D02*
X10430453Y-15257452D01*
X10420929Y-15238405D01*
X10420929Y-15066976D01*
X10601881Y-15257452D02*
X10582834Y-15266976D01*
X10544738Y-15266976D01*
X10525691Y-15257452D01*
X10516167Y-15238405D01*
X10516167Y-15162214D01*
X10525691Y-15143167D01*
X10544738Y-15133643D01*
X10582834Y-15133643D01*
X10601881Y-15143167D01*
X10611405Y-15162214D01*
X10611405Y-15181262D01*
X10516167Y-15200309D01*
X10687596Y-15257452D02*
X10706643Y-15266976D01*
X10744738Y-15266976D01*
X10763786Y-15257452D01*
X10773310Y-15238405D01*
X10773310Y-15228881D01*
X10763786Y-15209833D01*
X10744738Y-15200309D01*
X10716167Y-15200309D01*
X10697119Y-15190786D01*
X10687596Y-15171738D01*
X10687596Y-15162214D01*
X10697119Y-15143167D01*
X10716167Y-15133643D01*
X10744738Y-15133643D01*
X10763786Y-15143167D01*
X10839976Y-15343167D02*
X10849500Y-15333643D01*
X10868548Y-15305071D01*
X10878072Y-15286024D01*
X10887596Y-15257452D01*
X10897119Y-15209833D01*
X10897119Y-15171738D01*
X10887596Y-15124119D01*
X10878072Y-15095548D01*
X10868548Y-15076500D01*
X10849500Y-15047928D01*
X10839976Y-15038405D01*
D14*
X6028194Y-15400622D02*
X6028194Y-15480378D01*
X5988316Y-15440500D02*
X6068072Y-15440500D01*
D11*
X6363786Y-15330976D02*
X6382834Y-15330976D01*
X6401881Y-15340500D01*
X6411405Y-15350024D01*
X6420929Y-15369071D01*
X6430453Y-15407167D01*
X6430453Y-15454786D01*
X6420929Y-15492881D01*
X6411405Y-15511928D01*
X6401881Y-15521452D01*
X6382834Y-15530976D01*
X6363786Y-15530976D01*
X6344738Y-15521452D01*
X6335214Y-15511928D01*
X6325691Y-15492881D01*
X6316167Y-15454786D01*
X6316167Y-15407167D01*
X6325691Y-15369071D01*
X6335214Y-15350024D01*
X6344738Y-15340500D01*
X6363786Y-15330976D01*
X6516167Y-15511928D02*
X6525691Y-15521452D01*
X6516167Y-15530976D01*
X6506643Y-15521452D01*
X6516167Y-15511928D01*
X6516167Y-15530976D01*
X6592357Y-15330976D02*
X6725691Y-15330976D01*
X6639976Y-15530976D01*
X6811405Y-15530976D02*
X6849500Y-15530976D01*
X6868548Y-15521452D01*
X6878072Y-15511928D01*
X6897119Y-15483357D01*
X6906643Y-15445262D01*
X6906643Y-15369071D01*
X6897119Y-15350024D01*
X6887595Y-15340500D01*
X6868548Y-15330976D01*
X6830453Y-15330976D01*
X6811405Y-15340500D01*
X6801881Y-15350024D01*
X6792357Y-15369071D01*
X6792357Y-15416690D01*
X6801881Y-15435738D01*
X6811405Y-15445262D01*
X6830453Y-15454786D01*
X6868548Y-15454786D01*
X6887595Y-15445262D01*
X6897119Y-15435738D01*
X6906643Y-15416690D01*
X7020929Y-15416690D02*
X7001881Y-15407167D01*
X6992357Y-15397643D01*
X6982834Y-15378595D01*
X6982834Y-15369071D01*
X6992357Y-15350024D01*
X7001881Y-15340500D01*
X7020929Y-15330976D01*
X7059024Y-15330976D01*
X7078072Y-15340500D01*
X7087595Y-15350024D01*
X7097119Y-15369071D01*
X7097119Y-15378595D01*
X7087595Y-15397643D01*
X7078072Y-15407167D01*
X7059024Y-15416690D01*
X7020929Y-15416690D01*
X7001881Y-15426214D01*
X6992357Y-15435738D01*
X6982834Y-15454786D01*
X6982834Y-15492881D01*
X6992357Y-15511928D01*
X7001881Y-15521452D01*
X7020929Y-15530976D01*
X7059024Y-15530976D01*
X7078072Y-15521452D01*
X7087595Y-15511928D01*
X7097119Y-15492881D01*
X7097119Y-15454786D01*
X7087595Y-15435738D01*
X7078072Y-15426214D01*
X7059024Y-15416690D01*
X7182834Y-15530976D02*
X7182834Y-15397643D01*
X7182834Y-15416690D02*
X7192357Y-15407167D01*
X7211405Y-15397643D01*
X7239976Y-15397643D01*
X7259024Y-15407167D01*
X7268548Y-15426214D01*
X7268548Y-15530976D01*
X7268548Y-15426214D02*
X7278072Y-15407167D01*
X7297119Y-15397643D01*
X7325691Y-15397643D01*
X7344738Y-15407167D01*
X7354262Y-15426214D01*
X7354262Y-15530976D01*
X7449500Y-15530976D02*
X7449500Y-15397643D01*
X7449500Y-15416690D02*
X7459024Y-15407167D01*
X7478072Y-15397643D01*
X7506643Y-15397643D01*
X7525691Y-15407167D01*
X7535214Y-15426214D01*
X7535214Y-15530976D01*
X7535214Y-15426214D02*
X7544738Y-15407167D01*
X7563786Y-15397643D01*
X7592357Y-15397643D01*
X7611405Y-15407167D01*
X7620929Y-15426214D01*
X7620929Y-15530976D01*
X8011405Y-15321452D02*
X7839976Y-15578595D01*
X8268548Y-15330976D02*
X8287595Y-15330976D01*
X8306643Y-15340500D01*
X8316167Y-15350024D01*
X8325691Y-15369071D01*
X8335214Y-15407167D01*
X8335214Y-15454786D01*
X8325691Y-15492881D01*
X8316167Y-15511928D01*
X8306643Y-15521452D01*
X8287595Y-15530976D01*
X8268548Y-15530976D01*
X8249500Y-15521452D01*
X8239976Y-15511928D01*
X8230453Y-15492881D01*
X8220929Y-15454786D01*
X8220929Y-15407167D01*
X8230453Y-15369071D01*
X8239976Y-15350024D01*
X8249500Y-15340500D01*
X8268548Y-15330976D01*
X8420929Y-15511928D02*
X8430453Y-15521452D01*
X8420929Y-15530976D01*
X8411405Y-15521452D01*
X8420929Y-15511928D01*
X8420929Y-15530976D01*
X8554262Y-15330976D02*
X8573310Y-15330976D01*
X8592357Y-15340500D01*
X8601881Y-15350024D01*
X8611405Y-15369071D01*
X8620929Y-15407167D01*
X8620929Y-15454786D01*
X8611405Y-15492881D01*
X8601881Y-15511928D01*
X8592357Y-15521452D01*
X8573310Y-15530976D01*
X8554262Y-15530976D01*
X8535215Y-15521452D01*
X8525691Y-15511928D01*
X8516167Y-15492881D01*
X8506643Y-15454786D01*
X8506643Y-15407167D01*
X8516167Y-15369071D01*
X8525691Y-15350024D01*
X8535215Y-15340500D01*
X8554262Y-15330976D01*
X8687596Y-15330976D02*
X8811405Y-15330976D01*
X8744738Y-15407167D01*
X8773310Y-15407167D01*
X8792357Y-15416690D01*
X8801881Y-15426214D01*
X8811405Y-15445262D01*
X8811405Y-15492881D01*
X8801881Y-15511928D01*
X8792357Y-15521452D01*
X8773310Y-15530976D01*
X8716167Y-15530976D01*
X8697119Y-15521452D01*
X8687596Y-15511928D01*
X9001881Y-15530976D02*
X8887596Y-15530976D01*
X8944738Y-15530976D02*
X8944738Y-15330976D01*
X8925691Y-15359548D01*
X8906643Y-15378595D01*
X8887596Y-15388119D01*
X9173310Y-15397643D02*
X9173310Y-15530976D01*
X9125691Y-15321452D02*
X9078072Y-15464309D01*
X9201881Y-15464309D01*
X9268548Y-15330976D02*
X9268548Y-15369071D01*
X9344738Y-15330976D02*
X9344738Y-15369071D01*
X9639976Y-15607167D02*
X9630453Y-15597643D01*
X9611405Y-15569071D01*
X9601881Y-15550024D01*
X9592357Y-15521452D01*
X9582834Y-15473833D01*
X9582834Y-15435738D01*
X9592357Y-15388119D01*
X9601881Y-15359548D01*
X9611405Y-15340500D01*
X9630453Y-15311928D01*
X9639976Y-15302405D01*
X9706643Y-15350024D02*
X9716167Y-15340500D01*
X9735215Y-15330976D01*
X9782834Y-15330976D01*
X9801881Y-15340500D01*
X9811405Y-15350024D01*
X9820929Y-15369071D01*
X9820929Y-15388119D01*
X9811405Y-15416690D01*
X9697119Y-15530976D01*
X9820929Y-15530976D01*
X9944738Y-15330976D02*
X9963786Y-15330976D01*
X9982834Y-15340500D01*
X9992357Y-15350024D01*
X10001881Y-15369071D01*
X10011405Y-15407167D01*
X10011405Y-15454786D01*
X10001881Y-15492881D01*
X9992357Y-15511928D01*
X9982834Y-15521452D01*
X9963786Y-15530976D01*
X9944738Y-15530976D01*
X9925691Y-15521452D01*
X9916167Y-15511928D01*
X9906643Y-15492881D01*
X9897119Y-15454786D01*
X9897119Y-15407167D01*
X9906643Y-15369071D01*
X9916167Y-15350024D01*
X9925691Y-15340500D01*
X9944738Y-15330976D01*
X10249500Y-15530976D02*
X10249500Y-15330976D01*
X10335215Y-15530976D02*
X10335215Y-15426214D01*
X10325691Y-15407167D01*
X10306643Y-15397643D01*
X10278072Y-15397643D01*
X10259024Y-15407167D01*
X10249500Y-15416690D01*
X10459024Y-15530976D02*
X10439976Y-15521452D01*
X10430453Y-15511928D01*
X10420929Y-15492881D01*
X10420929Y-15435738D01*
X10430453Y-15416690D01*
X10439976Y-15407167D01*
X10459024Y-15397643D01*
X10487596Y-15397643D01*
X10506643Y-15407167D01*
X10516167Y-15416690D01*
X10525691Y-15435738D01*
X10525691Y-15492881D01*
X10516167Y-15511928D01*
X10506643Y-15521452D01*
X10487596Y-15530976D01*
X10459024Y-15530976D01*
X10639976Y-15530976D02*
X10620929Y-15521452D01*
X10611405Y-15502405D01*
X10611405Y-15330976D01*
X10792357Y-15521452D02*
X10773310Y-15530976D01*
X10735215Y-15530976D01*
X10716167Y-15521452D01*
X10706643Y-15502405D01*
X10706643Y-15426214D01*
X10716167Y-15407167D01*
X10735215Y-15397643D01*
X10773310Y-15397643D01*
X10792357Y-15407167D01*
X10801881Y-15426214D01*
X10801881Y-15445262D01*
X10706643Y-15464309D01*
X10878072Y-15521452D02*
X10897119Y-15530976D01*
X10935215Y-15530976D01*
X10954262Y-15521452D01*
X10963786Y-15502405D01*
X10963786Y-15492881D01*
X10954262Y-15473833D01*
X10935215Y-15464309D01*
X10906643Y-15464309D01*
X10887596Y-15454786D01*
X10878072Y-15435738D01*
X10878072Y-15426214D01*
X10887596Y-15407167D01*
X10906643Y-15397643D01*
X10935215Y-15397643D01*
X10954262Y-15407167D01*
X11030453Y-15607167D02*
X11039976Y-15597643D01*
X11059024Y-15569071D01*
X11068548Y-15550024D01*
X11078072Y-15521452D01*
X11087596Y-15473833D01*
X11087596Y-15435738D01*
X11078072Y-15388119D01*
X11068548Y-15359548D01*
X11059024Y-15340500D01*
X11039976Y-15311928D01*
X11030453Y-15302405D01*
D15*
X6056356Y-15732784D02*
X6056356Y-15676215D01*
X5999787Y-15676215D01*
X5999787Y-15732784D01*
X6056356Y-15732784D01*
D11*
X6363786Y-15594976D02*
X6382834Y-15594976D01*
X6401881Y-15604500D01*
X6411405Y-15614024D01*
X6420929Y-15633071D01*
X6430453Y-15671167D01*
X6430453Y-15718786D01*
X6420929Y-15756881D01*
X6411405Y-15775928D01*
X6401881Y-15785452D01*
X6382834Y-15794976D01*
X6363786Y-15794976D01*
X6344738Y-15785452D01*
X6335214Y-15775928D01*
X6325691Y-15756881D01*
X6316167Y-15718786D01*
X6316167Y-15671167D01*
X6325691Y-15633071D01*
X6335214Y-15614024D01*
X6344738Y-15604500D01*
X6363786Y-15594976D01*
X6516167Y-15775928D02*
X6525691Y-15785452D01*
X6516167Y-15794976D01*
X6506643Y-15785452D01*
X6516167Y-15775928D01*
X6516167Y-15794976D01*
X6639976Y-15680690D02*
X6620929Y-15671167D01*
X6611405Y-15661643D01*
X6601881Y-15642595D01*
X6601881Y-15633071D01*
X6611405Y-15614024D01*
X6620929Y-15604500D01*
X6639976Y-15594976D01*
X6678072Y-15594976D01*
X6697119Y-15604500D01*
X6706643Y-15614024D01*
X6716167Y-15633071D01*
X6716167Y-15642595D01*
X6706643Y-15661643D01*
X6697119Y-15671167D01*
X6678072Y-15680690D01*
X6639976Y-15680690D01*
X6620929Y-15690214D01*
X6611405Y-15699738D01*
X6601881Y-15718786D01*
X6601881Y-15756881D01*
X6611405Y-15775928D01*
X6620929Y-15785452D01*
X6639976Y-15794976D01*
X6678072Y-15794976D01*
X6697119Y-15785452D01*
X6706643Y-15775928D01*
X6716167Y-15756881D01*
X6716167Y-15718786D01*
X6706643Y-15699738D01*
X6697119Y-15690214D01*
X6678072Y-15680690D01*
X6839976Y-15594976D02*
X6859024Y-15594976D01*
X6878072Y-15604500D01*
X6887595Y-15614024D01*
X6897119Y-15633071D01*
X6906643Y-15671167D01*
X6906643Y-15718786D01*
X6897119Y-15756881D01*
X6887595Y-15775928D01*
X6878072Y-15785452D01*
X6859024Y-15794976D01*
X6839976Y-15794976D01*
X6820929Y-15785452D01*
X6811405Y-15775928D01*
X6801881Y-15756881D01*
X6792357Y-15718786D01*
X6792357Y-15671167D01*
X6801881Y-15633071D01*
X6811405Y-15614024D01*
X6820929Y-15604500D01*
X6839976Y-15594976D01*
X7030453Y-15594976D02*
X7049500Y-15594976D01*
X7068548Y-15604500D01*
X7078072Y-15614024D01*
X7087595Y-15633071D01*
X7097119Y-15671167D01*
X7097119Y-15718786D01*
X7087595Y-15756881D01*
X7078072Y-15775928D01*
X7068548Y-15785452D01*
X7049500Y-15794976D01*
X7030453Y-15794976D01*
X7011405Y-15785452D01*
X7001881Y-15775928D01*
X6992357Y-15756881D01*
X6982834Y-15718786D01*
X6982834Y-15671167D01*
X6992357Y-15633071D01*
X7001881Y-15614024D01*
X7011405Y-15604500D01*
X7030453Y-15594976D01*
X7182834Y-15794976D02*
X7182834Y-15661643D01*
X7182834Y-15680690D02*
X7192357Y-15671167D01*
X7211405Y-15661643D01*
X7239976Y-15661643D01*
X7259024Y-15671167D01*
X7268548Y-15690214D01*
X7268548Y-15794976D01*
X7268548Y-15690214D02*
X7278072Y-15671167D01*
X7297119Y-15661643D01*
X7325691Y-15661643D01*
X7344738Y-15671167D01*
X7354262Y-15690214D01*
X7354262Y-15794976D01*
X7449500Y-15794976D02*
X7449500Y-15661643D01*
X7449500Y-15680690D02*
X7459024Y-15671167D01*
X7478072Y-15661643D01*
X7506643Y-15661643D01*
X7525691Y-15671167D01*
X7535214Y-15690214D01*
X7535214Y-15794976D01*
X7535214Y-15690214D02*
X7544738Y-15671167D01*
X7563786Y-15661643D01*
X7592357Y-15661643D01*
X7611405Y-15671167D01*
X7620929Y-15690214D01*
X7620929Y-15794976D01*
X8011405Y-15585452D02*
X7839976Y-15842595D01*
X8268548Y-15594976D02*
X8287595Y-15594976D01*
X8306643Y-15604500D01*
X8316167Y-15614024D01*
X8325691Y-15633071D01*
X8335214Y-15671167D01*
X8335214Y-15718786D01*
X8325691Y-15756881D01*
X8316167Y-15775928D01*
X8306643Y-15785452D01*
X8287595Y-15794976D01*
X8268548Y-15794976D01*
X8249500Y-15785452D01*
X8239976Y-15775928D01*
X8230453Y-15756881D01*
X8220929Y-15718786D01*
X8220929Y-15671167D01*
X8230453Y-15633071D01*
X8239976Y-15614024D01*
X8249500Y-15604500D01*
X8268548Y-15594976D01*
X8420929Y-15775928D02*
X8430453Y-15785452D01*
X8420929Y-15794976D01*
X8411405Y-15785452D01*
X8420929Y-15775928D01*
X8420929Y-15794976D01*
X8554262Y-15594976D02*
X8573310Y-15594976D01*
X8592357Y-15604500D01*
X8601881Y-15614024D01*
X8611405Y-15633071D01*
X8620929Y-15671167D01*
X8620929Y-15718786D01*
X8611405Y-15756881D01*
X8601881Y-15775928D01*
X8592357Y-15785452D01*
X8573310Y-15794976D01*
X8554262Y-15794976D01*
X8535215Y-15785452D01*
X8525691Y-15775928D01*
X8516167Y-15756881D01*
X8506643Y-15718786D01*
X8506643Y-15671167D01*
X8516167Y-15633071D01*
X8525691Y-15614024D01*
X8535215Y-15604500D01*
X8554262Y-15594976D01*
X8687596Y-15594976D02*
X8811405Y-15594976D01*
X8744738Y-15671167D01*
X8773310Y-15671167D01*
X8792357Y-15680690D01*
X8801881Y-15690214D01*
X8811405Y-15709262D01*
X8811405Y-15756881D01*
X8801881Y-15775928D01*
X8792357Y-15785452D01*
X8773310Y-15794976D01*
X8716167Y-15794976D01*
X8697119Y-15785452D01*
X8687596Y-15775928D01*
X9001881Y-15794976D02*
X8887596Y-15794976D01*
X8944738Y-15794976D02*
X8944738Y-15594976D01*
X8925691Y-15623548D01*
X8906643Y-15642595D01*
X8887596Y-15652119D01*
X9182834Y-15594976D02*
X9087596Y-15594976D01*
X9078072Y-15690214D01*
X9087596Y-15680690D01*
X9106643Y-15671167D01*
X9154262Y-15671167D01*
X9173310Y-15680690D01*
X9182834Y-15690214D01*
X9192357Y-15709262D01*
X9192357Y-15756881D01*
X9182834Y-15775928D01*
X9173310Y-15785452D01*
X9154262Y-15794976D01*
X9106643Y-15794976D01*
X9087596Y-15785452D01*
X9078072Y-15775928D01*
X9268548Y-15594976D02*
X9268548Y-15633071D01*
X9344738Y-15594976D02*
X9344738Y-15633071D01*
X9639976Y-15871167D02*
X9630453Y-15861643D01*
X9611405Y-15833071D01*
X9601881Y-15814024D01*
X9592357Y-15785452D01*
X9582834Y-15737833D01*
X9582834Y-15699738D01*
X9592357Y-15652119D01*
X9601881Y-15623548D01*
X9611405Y-15604500D01*
X9630453Y-15575928D01*
X9639976Y-15566405D01*
X9801881Y-15661643D02*
X9801881Y-15794976D01*
X9754262Y-15585452D02*
X9706643Y-15728309D01*
X9830453Y-15728309D01*
X9992357Y-15661643D02*
X9992357Y-15794976D01*
X9944738Y-15585452D02*
X9897119Y-15728309D01*
X10020929Y-15728309D01*
X10249500Y-15794976D02*
X10249500Y-15594976D01*
X10335215Y-15794976D02*
X10335215Y-15690214D01*
X10325691Y-15671167D01*
X10306643Y-15661643D01*
X10278072Y-15661643D01*
X10259024Y-15671167D01*
X10249500Y-15680690D01*
X10459024Y-15794976D02*
X10439976Y-15785452D01*
X10430453Y-15775928D01*
X10420929Y-15756881D01*
X10420929Y-15699738D01*
X10430453Y-15680690D01*
X10439976Y-15671167D01*
X10459024Y-15661643D01*
X10487596Y-15661643D01*
X10506643Y-15671167D01*
X10516167Y-15680690D01*
X10525691Y-15699738D01*
X10525691Y-15756881D01*
X10516167Y-15775928D01*
X10506643Y-15785452D01*
X10487596Y-15794976D01*
X10459024Y-15794976D01*
X10639976Y-15794976D02*
X10620929Y-15785452D01*
X10611405Y-15766405D01*
X10611405Y-15594976D01*
X10792357Y-15785452D02*
X10773310Y-15794976D01*
X10735215Y-15794976D01*
X10716167Y-15785452D01*
X10706643Y-15766405D01*
X10706643Y-15690214D01*
X10716167Y-15671167D01*
X10735215Y-15661643D01*
X10773310Y-15661643D01*
X10792357Y-15671167D01*
X10801881Y-15690214D01*
X10801881Y-15709262D01*
X10706643Y-15728309D01*
X10878072Y-15785452D02*
X10897119Y-15794976D01*
X10935215Y-15794976D01*
X10954262Y-15785452D01*
X10963786Y-15766405D01*
X10963786Y-15756881D01*
X10954262Y-15737833D01*
X10935215Y-15728309D01*
X10906643Y-15728309D01*
X10887596Y-15718786D01*
X10878072Y-15699738D01*
X10878072Y-15690214D01*
X10887596Y-15671167D01*
X10906643Y-15661643D01*
X10935215Y-15661643D01*
X10954262Y-15671167D01*
X11030453Y-15871167D02*
X11039976Y-15861643D01*
X11059024Y-15833071D01*
X11068548Y-15814024D01*
X11078072Y-15785452D01*
X11087596Y-15737833D01*
X11087596Y-15699738D01*
X11078072Y-15652119D01*
X11068548Y-15623548D01*
X11059024Y-15604500D01*
X11039976Y-15575928D01*
X11030453Y-15566405D01*
D16*
X6018072Y-16018500D02*
X6068072Y-15968500D01*
X6018072Y-15918500D01*
X5968072Y-15968500D01*
X6018072Y-16018500D01*
D11*
X6430453Y-16058976D02*
X6316167Y-16058976D01*
X6373310Y-16058976D02*
X6373310Y-15858976D01*
X6354262Y-15887548D01*
X6335214Y-15906595D01*
X6316167Y-15916119D01*
X6516167Y-16039928D02*
X6525691Y-16049452D01*
X6516167Y-16058976D01*
X6506643Y-16049452D01*
X6516167Y-16039928D01*
X6516167Y-16058976D01*
X6649500Y-15858976D02*
X6668548Y-15858976D01*
X6687595Y-15868500D01*
X6697119Y-15878024D01*
X6706643Y-15897071D01*
X6716167Y-15935167D01*
X6716167Y-15982786D01*
X6706643Y-16020881D01*
X6697119Y-16039928D01*
X6687595Y-16049452D01*
X6668548Y-16058976D01*
X6649500Y-16058976D01*
X6630453Y-16049452D01*
X6620929Y-16039928D01*
X6611405Y-16020881D01*
X6601881Y-15982786D01*
X6601881Y-15935167D01*
X6611405Y-15897071D01*
X6620929Y-15878024D01*
X6630453Y-15868500D01*
X6649500Y-15858976D01*
X6839976Y-15858976D02*
X6859024Y-15858976D01*
X6878072Y-15868500D01*
X6887595Y-15878024D01*
X6897119Y-15897071D01*
X6906643Y-15935167D01*
X6906643Y-15982786D01*
X6897119Y-16020881D01*
X6887595Y-16039928D01*
X6878072Y-16049452D01*
X6859024Y-16058976D01*
X6839976Y-16058976D01*
X6820929Y-16049452D01*
X6811405Y-16039928D01*
X6801881Y-16020881D01*
X6792357Y-15982786D01*
X6792357Y-15935167D01*
X6801881Y-15897071D01*
X6811405Y-15878024D01*
X6820929Y-15868500D01*
X6839976Y-15858976D01*
X7030453Y-15858976D02*
X7049500Y-15858976D01*
X7068548Y-15868500D01*
X7078072Y-15878024D01*
X7087595Y-15897071D01*
X7097119Y-15935167D01*
X7097119Y-15982786D01*
X7087595Y-16020881D01*
X7078072Y-16039928D01*
X7068548Y-16049452D01*
X7049500Y-16058976D01*
X7030453Y-16058976D01*
X7011405Y-16049452D01*
X7001881Y-16039928D01*
X6992357Y-16020881D01*
X6982834Y-15982786D01*
X6982834Y-15935167D01*
X6992357Y-15897071D01*
X7001881Y-15878024D01*
X7011405Y-15868500D01*
X7030453Y-15858976D01*
X7182834Y-16058976D02*
X7182834Y-15925643D01*
X7182834Y-15944690D02*
X7192357Y-15935167D01*
X7211405Y-15925643D01*
X7239976Y-15925643D01*
X7259024Y-15935167D01*
X7268548Y-15954214D01*
X7268548Y-16058976D01*
X7268548Y-15954214D02*
X7278072Y-15935167D01*
X7297119Y-15925643D01*
X7325691Y-15925643D01*
X7344738Y-15935167D01*
X7354262Y-15954214D01*
X7354262Y-16058976D01*
X7449500Y-16058976D02*
X7449500Y-15925643D01*
X7449500Y-15944690D02*
X7459024Y-15935167D01*
X7478072Y-15925643D01*
X7506643Y-15925643D01*
X7525691Y-15935167D01*
X7535214Y-15954214D01*
X7535214Y-16058976D01*
X7535214Y-15954214D02*
X7544738Y-15935167D01*
X7563786Y-15925643D01*
X7592357Y-15925643D01*
X7611405Y-15935167D01*
X7620929Y-15954214D01*
X7620929Y-16058976D01*
X8011405Y-15849452D02*
X7839976Y-16106595D01*
X8268548Y-15858976D02*
X8287595Y-15858976D01*
X8306643Y-15868500D01*
X8316167Y-15878024D01*
X8325691Y-15897071D01*
X8335214Y-15935167D01*
X8335214Y-15982786D01*
X8325691Y-16020881D01*
X8316167Y-16039928D01*
X8306643Y-16049452D01*
X8287595Y-16058976D01*
X8268548Y-16058976D01*
X8249500Y-16049452D01*
X8239976Y-16039928D01*
X8230453Y-16020881D01*
X8220929Y-15982786D01*
X8220929Y-15935167D01*
X8230453Y-15897071D01*
X8239976Y-15878024D01*
X8249500Y-15868500D01*
X8268548Y-15858976D01*
X8420929Y-16039928D02*
X8430453Y-16049452D01*
X8420929Y-16058976D01*
X8411405Y-16049452D01*
X8420929Y-16039928D01*
X8420929Y-16058976D01*
X8554262Y-15858976D02*
X8573310Y-15858976D01*
X8592357Y-15868500D01*
X8601881Y-15878024D01*
X8611405Y-15897071D01*
X8620929Y-15935167D01*
X8620929Y-15982786D01*
X8611405Y-16020881D01*
X8601881Y-16039928D01*
X8592357Y-16049452D01*
X8573310Y-16058976D01*
X8554262Y-16058976D01*
X8535215Y-16049452D01*
X8525691Y-16039928D01*
X8516167Y-16020881D01*
X8506643Y-15982786D01*
X8506643Y-15935167D01*
X8516167Y-15897071D01*
X8525691Y-15878024D01*
X8535215Y-15868500D01*
X8554262Y-15858976D01*
X8687596Y-15858976D02*
X8811405Y-15858976D01*
X8744738Y-15935167D01*
X8773310Y-15935167D01*
X8792357Y-15944690D01*
X8801881Y-15954214D01*
X8811405Y-15973262D01*
X8811405Y-16020881D01*
X8801881Y-16039928D01*
X8792357Y-16049452D01*
X8773310Y-16058976D01*
X8716167Y-16058976D01*
X8697119Y-16049452D01*
X8687596Y-16039928D01*
X8906643Y-16058976D02*
X8944738Y-16058976D01*
X8963786Y-16049452D01*
X8973310Y-16039928D01*
X8992357Y-16011357D01*
X9001881Y-15973262D01*
X9001881Y-15897071D01*
X8992357Y-15878024D01*
X8982834Y-15868500D01*
X8963786Y-15858976D01*
X8925691Y-15858976D01*
X8906643Y-15868500D01*
X8897119Y-15878024D01*
X8887596Y-15897071D01*
X8887596Y-15944690D01*
X8897119Y-15963738D01*
X8906643Y-15973262D01*
X8925691Y-15982786D01*
X8963786Y-15982786D01*
X8982834Y-15973262D01*
X8992357Y-15963738D01*
X9001881Y-15944690D01*
X9173310Y-15925643D02*
X9173310Y-16058976D01*
X9125691Y-15849452D02*
X9078072Y-15992309D01*
X9201881Y-15992309D01*
X9268548Y-15858976D02*
X9268548Y-15897071D01*
X9344738Y-15858976D02*
X9344738Y-15897071D01*
X9639976Y-16135167D02*
X9630453Y-16125643D01*
X9611405Y-16097071D01*
X9601881Y-16078024D01*
X9592357Y-16049452D01*
X9582834Y-16001833D01*
X9582834Y-15963738D01*
X9592357Y-15916119D01*
X9601881Y-15887548D01*
X9611405Y-15868500D01*
X9630453Y-15839928D01*
X9639976Y-15830405D01*
X9725691Y-16058976D02*
X9763786Y-16058976D01*
X9782834Y-16049452D01*
X9792357Y-16039928D01*
X9811405Y-16011357D01*
X9820929Y-15973262D01*
X9820929Y-15897071D01*
X9811405Y-15878024D01*
X9801881Y-15868500D01*
X9782834Y-15858976D01*
X9744738Y-15858976D01*
X9725691Y-15868500D01*
X9716167Y-15878024D01*
X9706643Y-15897071D01*
X9706643Y-15944690D01*
X9716167Y-15963738D01*
X9725691Y-15973262D01*
X9744738Y-15982786D01*
X9782834Y-15982786D01*
X9801881Y-15973262D01*
X9811405Y-15963738D01*
X9820929Y-15944690D01*
X10001881Y-15858976D02*
X9906643Y-15858976D01*
X9897119Y-15954214D01*
X9906643Y-15944690D01*
X9925691Y-15935167D01*
X9973310Y-15935167D01*
X9992357Y-15944690D01*
X10001881Y-15954214D01*
X10011405Y-15973262D01*
X10011405Y-16020881D01*
X10001881Y-16039928D01*
X9992357Y-16049452D01*
X9973310Y-16058976D01*
X9925691Y-16058976D01*
X9906643Y-16049452D01*
X9897119Y-16039928D01*
X10249500Y-16058976D02*
X10249500Y-15858976D01*
X10335215Y-16058976D02*
X10335215Y-15954214D01*
X10325691Y-15935167D01*
X10306643Y-15925643D01*
X10278072Y-15925643D01*
X10259024Y-15935167D01*
X10249500Y-15944690D01*
X10459024Y-16058976D02*
X10439976Y-16049452D01*
X10430453Y-16039928D01*
X10420929Y-16020881D01*
X10420929Y-15963738D01*
X10430453Y-15944690D01*
X10439976Y-15935167D01*
X10459024Y-15925643D01*
X10487596Y-15925643D01*
X10506643Y-15935167D01*
X10516167Y-15944690D01*
X10525691Y-15963738D01*
X10525691Y-16020881D01*
X10516167Y-16039928D01*
X10506643Y-16049452D01*
X10487596Y-16058976D01*
X10459024Y-16058976D01*
X10639976Y-16058976D02*
X10620929Y-16049452D01*
X10611405Y-16030405D01*
X10611405Y-15858976D01*
X10792357Y-16049452D02*
X10773310Y-16058976D01*
X10735215Y-16058976D01*
X10716167Y-16049452D01*
X10706643Y-16030405D01*
X10706643Y-15954214D01*
X10716167Y-15935167D01*
X10735215Y-15925643D01*
X10773310Y-15925643D01*
X10792357Y-15935167D01*
X10801881Y-15954214D01*
X10801881Y-15973262D01*
X10706643Y-15992309D01*
X10878072Y-16049452D02*
X10897119Y-16058976D01*
X10935215Y-16058976D01*
X10954262Y-16049452D01*
X10963786Y-16030405D01*
X10963786Y-16020881D01*
X10954262Y-16001833D01*
X10935215Y-15992309D01*
X10906643Y-15992309D01*
X10887596Y-15982786D01*
X10878072Y-15963738D01*
X10878072Y-15954214D01*
X10887596Y-15935167D01*
X10906643Y-15925643D01*
X10935215Y-15925643D01*
X10954262Y-15935167D01*
X11030453Y-16135167D02*
X11039976Y-16125643D01*
X11059024Y-16097071D01*
X11068548Y-16078024D01*
X11078072Y-16049452D01*
X11087596Y-16001833D01*
X11087596Y-15963738D01*
X11078072Y-15916119D01*
X11068548Y-15887548D01*
X11059024Y-15868500D01*
X11039976Y-15839928D01*
X11030453Y-15830405D01*
D17*
X5958072Y-16177500D02*
X6068072Y-16287500D01*
X6068072Y-16177500D02*
X5958072Y-16287500D01*
X6068072Y-16232500D02*
G75*
G03*
X6068072Y-16232500I-55000J0D01*
G01*
D11*
X6430453Y-16322976D02*
X6316167Y-16322976D01*
X6373310Y-16322976D02*
X6373310Y-16122976D01*
X6354262Y-16151548D01*
X6335214Y-16170595D01*
X6316167Y-16180119D01*
X6516167Y-16303928D02*
X6525691Y-16313452D01*
X6516167Y-16322976D01*
X6506643Y-16313452D01*
X6516167Y-16303928D01*
X6516167Y-16322976D01*
X6716167Y-16322976D02*
X6601881Y-16322976D01*
X6659024Y-16322976D02*
X6659024Y-16122976D01*
X6639976Y-16151548D01*
X6620929Y-16170595D01*
X6601881Y-16180119D01*
X6839976Y-16122976D02*
X6859024Y-16122976D01*
X6878072Y-16132500D01*
X6887595Y-16142024D01*
X6897119Y-16161071D01*
X6906643Y-16199167D01*
X6906643Y-16246786D01*
X6897119Y-16284881D01*
X6887595Y-16303928D01*
X6878072Y-16313452D01*
X6859024Y-16322976D01*
X6839976Y-16322976D01*
X6820929Y-16313452D01*
X6811405Y-16303928D01*
X6801881Y-16284881D01*
X6792357Y-16246786D01*
X6792357Y-16199167D01*
X6801881Y-16161071D01*
X6811405Y-16142024D01*
X6820929Y-16132500D01*
X6839976Y-16122976D01*
X7030453Y-16122976D02*
X7049500Y-16122976D01*
X7068548Y-16132500D01*
X7078072Y-16142024D01*
X7087595Y-16161071D01*
X7097119Y-16199167D01*
X7097119Y-16246786D01*
X7087595Y-16284881D01*
X7078072Y-16303928D01*
X7068548Y-16313452D01*
X7049500Y-16322976D01*
X7030453Y-16322976D01*
X7011405Y-16313452D01*
X7001881Y-16303928D01*
X6992357Y-16284881D01*
X6982834Y-16246786D01*
X6982834Y-16199167D01*
X6992357Y-16161071D01*
X7001881Y-16142024D01*
X7011405Y-16132500D01*
X7030453Y-16122976D01*
X7182834Y-16322976D02*
X7182834Y-16189643D01*
X7182834Y-16208690D02*
X7192357Y-16199167D01*
X7211405Y-16189643D01*
X7239976Y-16189643D01*
X7259024Y-16199167D01*
X7268548Y-16218214D01*
X7268548Y-16322976D01*
X7268548Y-16218214D02*
X7278072Y-16199167D01*
X7297119Y-16189643D01*
X7325691Y-16189643D01*
X7344738Y-16199167D01*
X7354262Y-16218214D01*
X7354262Y-16322976D01*
X7449500Y-16322976D02*
X7449500Y-16189643D01*
X7449500Y-16208690D02*
X7459024Y-16199167D01*
X7478072Y-16189643D01*
X7506643Y-16189643D01*
X7525691Y-16199167D01*
X7535214Y-16218214D01*
X7535214Y-16322976D01*
X7535214Y-16218214D02*
X7544738Y-16199167D01*
X7563786Y-16189643D01*
X7592357Y-16189643D01*
X7611405Y-16199167D01*
X7620929Y-16218214D01*
X7620929Y-16322976D01*
X8011405Y-16113452D02*
X7839976Y-16370595D01*
X8268548Y-16122976D02*
X8287595Y-16122976D01*
X8306643Y-16132500D01*
X8316167Y-16142024D01*
X8325691Y-16161071D01*
X8335214Y-16199167D01*
X8335214Y-16246786D01*
X8325691Y-16284881D01*
X8316167Y-16303928D01*
X8306643Y-16313452D01*
X8287595Y-16322976D01*
X8268548Y-16322976D01*
X8249500Y-16313452D01*
X8239976Y-16303928D01*
X8230453Y-16284881D01*
X8220929Y-16246786D01*
X8220929Y-16199167D01*
X8230453Y-16161071D01*
X8239976Y-16142024D01*
X8249500Y-16132500D01*
X8268548Y-16122976D01*
X8420929Y-16303928D02*
X8430453Y-16313452D01*
X8420929Y-16322976D01*
X8411405Y-16313452D01*
X8420929Y-16303928D01*
X8420929Y-16322976D01*
X8554262Y-16122976D02*
X8573310Y-16122976D01*
X8592357Y-16132500D01*
X8601881Y-16142024D01*
X8611405Y-16161071D01*
X8620929Y-16199167D01*
X8620929Y-16246786D01*
X8611405Y-16284881D01*
X8601881Y-16303928D01*
X8592357Y-16313452D01*
X8573310Y-16322976D01*
X8554262Y-16322976D01*
X8535215Y-16313452D01*
X8525691Y-16303928D01*
X8516167Y-16284881D01*
X8506643Y-16246786D01*
X8506643Y-16199167D01*
X8516167Y-16161071D01*
X8525691Y-16142024D01*
X8535215Y-16132500D01*
X8554262Y-16122976D01*
X8792357Y-16189643D02*
X8792357Y-16322976D01*
X8744738Y-16113452D02*
X8697119Y-16256309D01*
X8820929Y-16256309D01*
X8878072Y-16122976D02*
X9001881Y-16122976D01*
X8935215Y-16199167D01*
X8963786Y-16199167D01*
X8982834Y-16208690D01*
X8992357Y-16218214D01*
X9001881Y-16237262D01*
X9001881Y-16284881D01*
X8992357Y-16303928D01*
X8982834Y-16313452D01*
X8963786Y-16322976D01*
X8906643Y-16322976D01*
X8887596Y-16313452D01*
X8878072Y-16303928D01*
X9068548Y-16122976D02*
X9192357Y-16122976D01*
X9125691Y-16199167D01*
X9154262Y-16199167D01*
X9173310Y-16208690D01*
X9182834Y-16218214D01*
X9192357Y-16237262D01*
X9192357Y-16284881D01*
X9182834Y-16303928D01*
X9173310Y-16313452D01*
X9154262Y-16322976D01*
X9097119Y-16322976D01*
X9078072Y-16313452D01*
X9068548Y-16303928D01*
X9268548Y-16122976D02*
X9268548Y-16161071D01*
X9344738Y-16122976D02*
X9344738Y-16161071D01*
X9639976Y-16399167D02*
X9630453Y-16389643D01*
X9611405Y-16361071D01*
X9601881Y-16342024D01*
X9592357Y-16313452D01*
X9582834Y-16265833D01*
X9582834Y-16227738D01*
X9592357Y-16180119D01*
X9601881Y-16151548D01*
X9611405Y-16132500D01*
X9630453Y-16103928D01*
X9639976Y-16094405D01*
X9801881Y-16189643D02*
X9801881Y-16322976D01*
X9754262Y-16113452D02*
X9706643Y-16256309D01*
X9830453Y-16256309D01*
X10059024Y-16322976D02*
X10059024Y-16122976D01*
X10144738Y-16322976D02*
X10144738Y-16218214D01*
X10135215Y-16199167D01*
X10116167Y-16189643D01*
X10087596Y-16189643D01*
X10068548Y-16199167D01*
X10059024Y-16208690D01*
X10268548Y-16322976D02*
X10249500Y-16313452D01*
X10239976Y-16303928D01*
X10230453Y-16284881D01*
X10230453Y-16227738D01*
X10239976Y-16208690D01*
X10249500Y-16199167D01*
X10268548Y-16189643D01*
X10297119Y-16189643D01*
X10316167Y-16199167D01*
X10325691Y-16208690D01*
X10335215Y-16227738D01*
X10335215Y-16284881D01*
X10325691Y-16303928D01*
X10316167Y-16313452D01*
X10297119Y-16322976D01*
X10268548Y-16322976D01*
X10449500Y-16322976D02*
X10430453Y-16313452D01*
X10420929Y-16294405D01*
X10420929Y-16122976D01*
X10601881Y-16313452D02*
X10582834Y-16322976D01*
X10544738Y-16322976D01*
X10525691Y-16313452D01*
X10516167Y-16294405D01*
X10516167Y-16218214D01*
X10525691Y-16199167D01*
X10544738Y-16189643D01*
X10582834Y-16189643D01*
X10601881Y-16199167D01*
X10611405Y-16218214D01*
X10611405Y-16237262D01*
X10516167Y-16256309D01*
X10687596Y-16313452D02*
X10706643Y-16322976D01*
X10744738Y-16322976D01*
X10763786Y-16313452D01*
X10773310Y-16294405D01*
X10773310Y-16284881D01*
X10763786Y-16265833D01*
X10744738Y-16256309D01*
X10716167Y-16256309D01*
X10697119Y-16246786D01*
X10687596Y-16227738D01*
X10687596Y-16218214D01*
X10697119Y-16199167D01*
X10716167Y-16189643D01*
X10744738Y-16189643D01*
X10763786Y-16199167D01*
X10839976Y-16399167D02*
X10849500Y-16389643D01*
X10868548Y-16361071D01*
X10878072Y-16342024D01*
X10887596Y-16313452D01*
X10897119Y-16265833D01*
X10897119Y-16227738D01*
X10887596Y-16180119D01*
X10878072Y-16151548D01*
X10868548Y-16132500D01*
X10849500Y-16103928D01*
X10839976Y-16094405D01*
D18*
X5928072Y-16426500D02*
X6068072Y-16566500D01*
X6068072Y-16426500D02*
X5928072Y-16566500D01*
X5998072Y-16426500D02*
X5998072Y-16566500D01*
X5928072Y-16496500D02*
X6068072Y-16496500D01*
D11*
X6430453Y-16586976D02*
X6316167Y-16586976D01*
X6373310Y-16586976D02*
X6373310Y-16386976D01*
X6354262Y-16415548D01*
X6335214Y-16434595D01*
X6316167Y-16444119D01*
X6516167Y-16567928D02*
X6525691Y-16577452D01*
X6516167Y-16586976D01*
X6506643Y-16577452D01*
X6516167Y-16567928D01*
X6516167Y-16586976D01*
X6697119Y-16453643D02*
X6697119Y-16586976D01*
X6649500Y-16377452D02*
X6601881Y-16520309D01*
X6725691Y-16520309D01*
X6839976Y-16386976D02*
X6859024Y-16386976D01*
X6878072Y-16396500D01*
X6887595Y-16406024D01*
X6897119Y-16425071D01*
X6906643Y-16463167D01*
X6906643Y-16510786D01*
X6897119Y-16548881D01*
X6887595Y-16567928D01*
X6878072Y-16577452D01*
X6859024Y-16586976D01*
X6839976Y-16586976D01*
X6820929Y-16577452D01*
X6811405Y-16567928D01*
X6801881Y-16548881D01*
X6792357Y-16510786D01*
X6792357Y-16463167D01*
X6801881Y-16425071D01*
X6811405Y-16406024D01*
X6820929Y-16396500D01*
X6839976Y-16386976D01*
X7030453Y-16386976D02*
X7049500Y-16386976D01*
X7068548Y-16396500D01*
X7078072Y-16406024D01*
X7087595Y-16425071D01*
X7097119Y-16463167D01*
X7097119Y-16510786D01*
X7087595Y-16548881D01*
X7078072Y-16567928D01*
X7068548Y-16577452D01*
X7049500Y-16586976D01*
X7030453Y-16586976D01*
X7011405Y-16577452D01*
X7001881Y-16567928D01*
X6992357Y-16548881D01*
X6982834Y-16510786D01*
X6982834Y-16463167D01*
X6992357Y-16425071D01*
X7001881Y-16406024D01*
X7011405Y-16396500D01*
X7030453Y-16386976D01*
X7182834Y-16586976D02*
X7182834Y-16453643D01*
X7182834Y-16472690D02*
X7192357Y-16463167D01*
X7211405Y-16453643D01*
X7239976Y-16453643D01*
X7259024Y-16463167D01*
X7268548Y-16482214D01*
X7268548Y-16586976D01*
X7268548Y-16482214D02*
X7278072Y-16463167D01*
X7297119Y-16453643D01*
X7325691Y-16453643D01*
X7344738Y-16463167D01*
X7354262Y-16482214D01*
X7354262Y-16586976D01*
X7449500Y-16586976D02*
X7449500Y-16453643D01*
X7449500Y-16472690D02*
X7459024Y-16463167D01*
X7478072Y-16453643D01*
X7506643Y-16453643D01*
X7525691Y-16463167D01*
X7535214Y-16482214D01*
X7535214Y-16586976D01*
X7535214Y-16482214D02*
X7544738Y-16463167D01*
X7563786Y-16453643D01*
X7592357Y-16453643D01*
X7611405Y-16463167D01*
X7620929Y-16482214D01*
X7620929Y-16586976D01*
X8011405Y-16377452D02*
X7839976Y-16634595D01*
X8268548Y-16386976D02*
X8287595Y-16386976D01*
X8306643Y-16396500D01*
X8316167Y-16406024D01*
X8325691Y-16425071D01*
X8335214Y-16463167D01*
X8335214Y-16510786D01*
X8325691Y-16548881D01*
X8316167Y-16567928D01*
X8306643Y-16577452D01*
X8287595Y-16586976D01*
X8268548Y-16586976D01*
X8249500Y-16577452D01*
X8239976Y-16567928D01*
X8230453Y-16548881D01*
X8220929Y-16510786D01*
X8220929Y-16463167D01*
X8230453Y-16425071D01*
X8239976Y-16406024D01*
X8249500Y-16396500D01*
X8268548Y-16386976D01*
X8420929Y-16567928D02*
X8430453Y-16577452D01*
X8420929Y-16586976D01*
X8411405Y-16577452D01*
X8420929Y-16567928D01*
X8420929Y-16586976D01*
X8554262Y-16386976D02*
X8573310Y-16386976D01*
X8592357Y-16396500D01*
X8601881Y-16406024D01*
X8611405Y-16425071D01*
X8620929Y-16463167D01*
X8620929Y-16510786D01*
X8611405Y-16548881D01*
X8601881Y-16567928D01*
X8592357Y-16577452D01*
X8573310Y-16586976D01*
X8554262Y-16586976D01*
X8535215Y-16577452D01*
X8525691Y-16567928D01*
X8516167Y-16548881D01*
X8506643Y-16510786D01*
X8506643Y-16463167D01*
X8516167Y-16425071D01*
X8525691Y-16406024D01*
X8535215Y-16396500D01*
X8554262Y-16386976D01*
X8801881Y-16386976D02*
X8706643Y-16386976D01*
X8697119Y-16482214D01*
X8706643Y-16472690D01*
X8725691Y-16463167D01*
X8773310Y-16463167D01*
X8792357Y-16472690D01*
X8801881Y-16482214D01*
X8811405Y-16501262D01*
X8811405Y-16548881D01*
X8801881Y-16567928D01*
X8792357Y-16577452D01*
X8773310Y-16586976D01*
X8725691Y-16586976D01*
X8706643Y-16577452D01*
X8697119Y-16567928D01*
X8992357Y-16386976D02*
X8897119Y-16386976D01*
X8887596Y-16482214D01*
X8897119Y-16472690D01*
X8916167Y-16463167D01*
X8963786Y-16463167D01*
X8982834Y-16472690D01*
X8992357Y-16482214D01*
X9001881Y-16501262D01*
X9001881Y-16548881D01*
X8992357Y-16567928D01*
X8982834Y-16577452D01*
X8963786Y-16586976D01*
X8916167Y-16586976D01*
X8897119Y-16577452D01*
X8887596Y-16567928D01*
X9192357Y-16586976D02*
X9078072Y-16586976D01*
X9135215Y-16586976D02*
X9135215Y-16386976D01*
X9116167Y-16415548D01*
X9097119Y-16434595D01*
X9078072Y-16444119D01*
X9268548Y-16386976D02*
X9268548Y-16425071D01*
X9344738Y-16386976D02*
X9344738Y-16425071D01*
X9639976Y-16663167D02*
X9630453Y-16653643D01*
X9611405Y-16625071D01*
X9601881Y-16606024D01*
X9592357Y-16577452D01*
X9582834Y-16529833D01*
X9582834Y-16491738D01*
X9592357Y-16444119D01*
X9601881Y-16415548D01*
X9611405Y-16396500D01*
X9630453Y-16367928D01*
X9639976Y-16358405D01*
X9706643Y-16406024D02*
X9716167Y-16396500D01*
X9735215Y-16386976D01*
X9782834Y-16386976D01*
X9801881Y-16396500D01*
X9811405Y-16406024D01*
X9820929Y-16425071D01*
X9820929Y-16444119D01*
X9811405Y-16472690D01*
X9697119Y-16586976D01*
X9820929Y-16586976D01*
X10059024Y-16586976D02*
X10059024Y-16386976D01*
X10144738Y-16586976D02*
X10144738Y-16482214D01*
X10135215Y-16463167D01*
X10116167Y-16453643D01*
X10087596Y-16453643D01*
X10068548Y-16463167D01*
X10059024Y-16472690D01*
X10268548Y-16586976D02*
X10249500Y-16577452D01*
X10239976Y-16567928D01*
X10230453Y-16548881D01*
X10230453Y-16491738D01*
X10239976Y-16472690D01*
X10249500Y-16463167D01*
X10268548Y-16453643D01*
X10297119Y-16453643D01*
X10316167Y-16463167D01*
X10325691Y-16472690D01*
X10335215Y-16491738D01*
X10335215Y-16548881D01*
X10325691Y-16567928D01*
X10316167Y-16577452D01*
X10297119Y-16586976D01*
X10268548Y-16586976D01*
X10449500Y-16586976D02*
X10430453Y-16577452D01*
X10420929Y-16558405D01*
X10420929Y-16386976D01*
X10601881Y-16577452D02*
X10582834Y-16586976D01*
X10544738Y-16586976D01*
X10525691Y-16577452D01*
X10516167Y-16558405D01*
X10516167Y-16482214D01*
X10525691Y-16463167D01*
X10544738Y-16453643D01*
X10582834Y-16453643D01*
X10601881Y-16463167D01*
X10611405Y-16482214D01*
X10611405Y-16501262D01*
X10516167Y-16520309D01*
X10687596Y-16577452D02*
X10706643Y-16586976D01*
X10744738Y-16586976D01*
X10763786Y-16577452D01*
X10773310Y-16558405D01*
X10773310Y-16548881D01*
X10763786Y-16529833D01*
X10744738Y-16520309D01*
X10716167Y-16520309D01*
X10697119Y-16510786D01*
X10687596Y-16491738D01*
X10687596Y-16482214D01*
X10697119Y-16463167D01*
X10716167Y-16453643D01*
X10744738Y-16453643D01*
X10763786Y-16463167D01*
X10839976Y-16663167D02*
X10849500Y-16653643D01*
X10868548Y-16625071D01*
X10878072Y-16606024D01*
X10887596Y-16577452D01*
X10897119Y-16529833D01*
X10897119Y-16491738D01*
X10887596Y-16444119D01*
X10878072Y-16415548D01*
X10868548Y-16396500D01*
X10849500Y-16367928D01*
X10839976Y-16358405D01*
D19*
X5908072Y-16680500D02*
X6068072Y-16840500D01*
X6068072Y-16680500D02*
X5908072Y-16840500D01*
X6044641Y-16817069D02*
X6044641Y-16703931D01*
X5931503Y-16703931D01*
X5931503Y-16817069D01*
X6044641Y-16817069D01*
D11*
X6430453Y-16850976D02*
X6316167Y-16850976D01*
X6373310Y-16850976D02*
X6373310Y-16650976D01*
X6354262Y-16679548D01*
X6335214Y-16698595D01*
X6316167Y-16708119D01*
X6516167Y-16831929D02*
X6525691Y-16841452D01*
X6516167Y-16850976D01*
X6506643Y-16841452D01*
X6516167Y-16831929D01*
X6516167Y-16850976D01*
X6697119Y-16650976D02*
X6659024Y-16650976D01*
X6639976Y-16660500D01*
X6630453Y-16670024D01*
X6611405Y-16698595D01*
X6601881Y-16736690D01*
X6601881Y-16812881D01*
X6611405Y-16831929D01*
X6620929Y-16841452D01*
X6639976Y-16850976D01*
X6678072Y-16850976D01*
X6697119Y-16841452D01*
X6706643Y-16831929D01*
X6716167Y-16812881D01*
X6716167Y-16765262D01*
X6706643Y-16746214D01*
X6697119Y-16736690D01*
X6678072Y-16727167D01*
X6639976Y-16727167D01*
X6620929Y-16736690D01*
X6611405Y-16746214D01*
X6601881Y-16765262D01*
X6839976Y-16650976D02*
X6859024Y-16650976D01*
X6878072Y-16660500D01*
X6887595Y-16670024D01*
X6897119Y-16689071D01*
X6906643Y-16727167D01*
X6906643Y-16774786D01*
X6897119Y-16812881D01*
X6887595Y-16831929D01*
X6878072Y-16841452D01*
X6859024Y-16850976D01*
X6839976Y-16850976D01*
X6820929Y-16841452D01*
X6811405Y-16831929D01*
X6801881Y-16812881D01*
X6792357Y-16774786D01*
X6792357Y-16727167D01*
X6801881Y-16689071D01*
X6811405Y-16670024D01*
X6820929Y-16660500D01*
X6839976Y-16650976D01*
X7030453Y-16650976D02*
X7049500Y-16650976D01*
X7068548Y-16660500D01*
X7078072Y-16670024D01*
X7087595Y-16689071D01*
X7097119Y-16727167D01*
X7097119Y-16774786D01*
X7087595Y-16812881D01*
X7078072Y-16831929D01*
X7068548Y-16841452D01*
X7049500Y-16850976D01*
X7030453Y-16850976D01*
X7011405Y-16841452D01*
X7001881Y-16831929D01*
X6992357Y-16812881D01*
X6982834Y-16774786D01*
X6982834Y-16727167D01*
X6992357Y-16689071D01*
X7001881Y-16670024D01*
X7011405Y-16660500D01*
X7030453Y-16650976D01*
X7182834Y-16850976D02*
X7182834Y-16717643D01*
X7182834Y-16736690D02*
X7192357Y-16727167D01*
X7211405Y-16717643D01*
X7239976Y-16717643D01*
X7259024Y-16727167D01*
X7268548Y-16746214D01*
X7268548Y-16850976D01*
X7268548Y-16746214D02*
X7278072Y-16727167D01*
X7297119Y-16717643D01*
X7325691Y-16717643D01*
X7344738Y-16727167D01*
X7354262Y-16746214D01*
X7354262Y-16850976D01*
X7449500Y-16850976D02*
X7449500Y-16717643D01*
X7449500Y-16736690D02*
X7459024Y-16727167D01*
X7478072Y-16717643D01*
X7506643Y-16717643D01*
X7525691Y-16727167D01*
X7535214Y-16746214D01*
X7535214Y-16850976D01*
X7535214Y-16746214D02*
X7544738Y-16727167D01*
X7563786Y-16717643D01*
X7592357Y-16717643D01*
X7611405Y-16727167D01*
X7620929Y-16746214D01*
X7620929Y-16850976D01*
X8011405Y-16641452D02*
X7839976Y-16898595D01*
X8268548Y-16650976D02*
X8287595Y-16650976D01*
X8306643Y-16660500D01*
X8316167Y-16670024D01*
X8325691Y-16689071D01*
X8335214Y-16727167D01*
X8335214Y-16774786D01*
X8325691Y-16812881D01*
X8316167Y-16831929D01*
X8306643Y-16841452D01*
X8287595Y-16850976D01*
X8268548Y-16850976D01*
X8249500Y-16841452D01*
X8239976Y-16831929D01*
X8230453Y-16812881D01*
X8220929Y-16774786D01*
X8220929Y-16727167D01*
X8230453Y-16689071D01*
X8239976Y-16670024D01*
X8249500Y-16660500D01*
X8268548Y-16650976D01*
X8420929Y-16831929D02*
X8430453Y-16841452D01*
X8420929Y-16850976D01*
X8411405Y-16841452D01*
X8420929Y-16831929D01*
X8420929Y-16850976D01*
X8554262Y-16650976D02*
X8573310Y-16650976D01*
X8592357Y-16660500D01*
X8601881Y-16670024D01*
X8611405Y-16689071D01*
X8620929Y-16727167D01*
X8620929Y-16774786D01*
X8611405Y-16812881D01*
X8601881Y-16831929D01*
X8592357Y-16841452D01*
X8573310Y-16850976D01*
X8554262Y-16850976D01*
X8535215Y-16841452D01*
X8525691Y-16831929D01*
X8516167Y-16812881D01*
X8506643Y-16774786D01*
X8506643Y-16727167D01*
X8516167Y-16689071D01*
X8525691Y-16670024D01*
X8535215Y-16660500D01*
X8554262Y-16650976D01*
X8792357Y-16650976D02*
X8754262Y-16650976D01*
X8735215Y-16660500D01*
X8725691Y-16670024D01*
X8706643Y-16698595D01*
X8697119Y-16736690D01*
X8697119Y-16812881D01*
X8706643Y-16831929D01*
X8716167Y-16841452D01*
X8735215Y-16850976D01*
X8773310Y-16850976D01*
X8792357Y-16841452D01*
X8801881Y-16831929D01*
X8811405Y-16812881D01*
X8811405Y-16765262D01*
X8801881Y-16746214D01*
X8792357Y-16736690D01*
X8773310Y-16727167D01*
X8735215Y-16727167D01*
X8716167Y-16736690D01*
X8706643Y-16746214D01*
X8697119Y-16765262D01*
X8878072Y-16650976D02*
X9001881Y-16650976D01*
X8935215Y-16727167D01*
X8963786Y-16727167D01*
X8982834Y-16736690D01*
X8992357Y-16746214D01*
X9001881Y-16765262D01*
X9001881Y-16812881D01*
X8992357Y-16831929D01*
X8982834Y-16841452D01*
X8963786Y-16850976D01*
X8906643Y-16850976D01*
X8887596Y-16841452D01*
X8878072Y-16831929D01*
X9125691Y-16650976D02*
X9144738Y-16650976D01*
X9163786Y-16660500D01*
X9173310Y-16670024D01*
X9182834Y-16689071D01*
X9192357Y-16727167D01*
X9192357Y-16774786D01*
X9182834Y-16812881D01*
X9173310Y-16831929D01*
X9163786Y-16841452D01*
X9144738Y-16850976D01*
X9125691Y-16850976D01*
X9106643Y-16841452D01*
X9097119Y-16831929D01*
X9087596Y-16812881D01*
X9078072Y-16774786D01*
X9078072Y-16727167D01*
X9087596Y-16689071D01*
X9097119Y-16670024D01*
X9106643Y-16660500D01*
X9125691Y-16650976D01*
X9268548Y-16650976D02*
X9268548Y-16689071D01*
X9344738Y-16650976D02*
X9344738Y-16689071D01*
X9639976Y-16927167D02*
X9630453Y-16917643D01*
X9611405Y-16889071D01*
X9601881Y-16870024D01*
X9592357Y-16841452D01*
X9582834Y-16793833D01*
X9582834Y-16755738D01*
X9592357Y-16708119D01*
X9601881Y-16679548D01*
X9611405Y-16660500D01*
X9630453Y-16631928D01*
X9639976Y-16622405D01*
X9811405Y-16650976D02*
X9716167Y-16650976D01*
X9706643Y-16746214D01*
X9716167Y-16736690D01*
X9735215Y-16727167D01*
X9782834Y-16727167D01*
X9801881Y-16736690D01*
X9811405Y-16746214D01*
X9820929Y-16765262D01*
X9820929Y-16812881D01*
X9811405Y-16831929D01*
X9801881Y-16841452D01*
X9782834Y-16850976D01*
X9735215Y-16850976D01*
X9716167Y-16841452D01*
X9706643Y-16831929D01*
X10059024Y-16850976D02*
X10059024Y-16650976D01*
X10144738Y-16850976D02*
X10144738Y-16746214D01*
X10135215Y-16727167D01*
X10116167Y-16717643D01*
X10087596Y-16717643D01*
X10068548Y-16727167D01*
X10059024Y-16736690D01*
X10268548Y-16850976D02*
X10249500Y-16841452D01*
X10239976Y-16831929D01*
X10230453Y-16812881D01*
X10230453Y-16755738D01*
X10239976Y-16736690D01*
X10249500Y-16727167D01*
X10268548Y-16717643D01*
X10297119Y-16717643D01*
X10316167Y-16727167D01*
X10325691Y-16736690D01*
X10335215Y-16755738D01*
X10335215Y-16812881D01*
X10325691Y-16831929D01*
X10316167Y-16841452D01*
X10297119Y-16850976D01*
X10268548Y-16850976D01*
X10449500Y-16850976D02*
X10430453Y-16841452D01*
X10420929Y-16822405D01*
X10420929Y-16650976D01*
X10601881Y-16841452D02*
X10582834Y-16850976D01*
X10544738Y-16850976D01*
X10525691Y-16841452D01*
X10516167Y-16822405D01*
X10516167Y-16746214D01*
X10525691Y-16727167D01*
X10544738Y-16717643D01*
X10582834Y-16717643D01*
X10601881Y-16727167D01*
X10611405Y-16746214D01*
X10611405Y-16765262D01*
X10516167Y-16784310D01*
X10687596Y-16841452D02*
X10706643Y-16850976D01*
X10744738Y-16850976D01*
X10763786Y-16841452D01*
X10773310Y-16822405D01*
X10773310Y-16812881D01*
X10763786Y-16793833D01*
X10744738Y-16784310D01*
X10716167Y-16784310D01*
X10697119Y-16774786D01*
X10687596Y-16755738D01*
X10687596Y-16746214D01*
X10697119Y-16727167D01*
X10716167Y-16717643D01*
X10744738Y-16717643D01*
X10763786Y-16727167D01*
X10839976Y-16927167D02*
X10849500Y-16917643D01*
X10868548Y-16889071D01*
X10878072Y-16870024D01*
X10887596Y-16841452D01*
X10897119Y-16793833D01*
X10897119Y-16755738D01*
X10887596Y-16708119D01*
X10878072Y-16679548D01*
X10868548Y-16660500D01*
X10849500Y-16631928D01*
X10839976Y-16622405D01*
X5868072Y-16940500D02*
X6068072Y-17140500D01*
X6068072Y-16940500D02*
X5868072Y-17140500D01*
X5968072Y-17140500D02*
X6068072Y-17040500D01*
X5968072Y-16940500D01*
X5868072Y-17040500D01*
X5968072Y-17140500D01*
X6306643Y-16930976D02*
X6430453Y-16930976D01*
X6363786Y-17007167D01*
X6392357Y-17007167D01*
X6411405Y-17016690D01*
X6420929Y-17026214D01*
X6430453Y-17045262D01*
X6430453Y-17092881D01*
X6420929Y-17111929D01*
X6411405Y-17121452D01*
X6392357Y-17130976D01*
X6335214Y-17130976D01*
X6316167Y-17121452D01*
X6306643Y-17111929D01*
X6516167Y-17111929D02*
X6525691Y-17121452D01*
X6516167Y-17130976D01*
X6506643Y-17121452D01*
X6516167Y-17111929D01*
X6516167Y-17130976D01*
X6601881Y-16950024D02*
X6611405Y-16940500D01*
X6630453Y-16930976D01*
X6678072Y-16930976D01*
X6697119Y-16940500D01*
X6706643Y-16950024D01*
X6716167Y-16969071D01*
X6716167Y-16988119D01*
X6706643Y-17016690D01*
X6592357Y-17130976D01*
X6716167Y-17130976D01*
X6839976Y-16930976D02*
X6859024Y-16930976D01*
X6878072Y-16940500D01*
X6887595Y-16950024D01*
X6897119Y-16969071D01*
X6906643Y-17007167D01*
X6906643Y-17054786D01*
X6897119Y-17092881D01*
X6887595Y-17111929D01*
X6878072Y-17121452D01*
X6859024Y-17130976D01*
X6839976Y-17130976D01*
X6820929Y-17121452D01*
X6811405Y-17111929D01*
X6801881Y-17092881D01*
X6792357Y-17054786D01*
X6792357Y-17007167D01*
X6801881Y-16969071D01*
X6811405Y-16950024D01*
X6820929Y-16940500D01*
X6839976Y-16930976D01*
X7030453Y-16930976D02*
X7049500Y-16930976D01*
X7068548Y-16940500D01*
X7078072Y-16950024D01*
X7087595Y-16969071D01*
X7097119Y-17007167D01*
X7097119Y-17054786D01*
X7087595Y-17092881D01*
X7078072Y-17111929D01*
X7068548Y-17121452D01*
X7049500Y-17130976D01*
X7030453Y-17130976D01*
X7011405Y-17121452D01*
X7001881Y-17111929D01*
X6992357Y-17092881D01*
X6982834Y-17054786D01*
X6982834Y-17007167D01*
X6992357Y-16969071D01*
X7001881Y-16950024D01*
X7011405Y-16940500D01*
X7030453Y-16930976D01*
X7182834Y-17130976D02*
X7182834Y-16997643D01*
X7182834Y-17016690D02*
X7192357Y-17007167D01*
X7211405Y-16997643D01*
X7239976Y-16997643D01*
X7259024Y-17007167D01*
X7268548Y-17026214D01*
X7268548Y-17130976D01*
X7268548Y-17026214D02*
X7278072Y-17007167D01*
X7297119Y-16997643D01*
X7325691Y-16997643D01*
X7344738Y-17007167D01*
X7354262Y-17026214D01*
X7354262Y-17130976D01*
X7449500Y-17130976D02*
X7449500Y-16997643D01*
X7449500Y-17016690D02*
X7459024Y-17007167D01*
X7478072Y-16997643D01*
X7506643Y-16997643D01*
X7525691Y-17007167D01*
X7535214Y-17026214D01*
X7535214Y-17130976D01*
X7535214Y-17026214D02*
X7544738Y-17007167D01*
X7563786Y-16997643D01*
X7592357Y-16997643D01*
X7611405Y-17007167D01*
X7620929Y-17026214D01*
X7620929Y-17130976D01*
X8011405Y-16921452D02*
X7839976Y-17178595D01*
X8268548Y-16930976D02*
X8287595Y-16930976D01*
X8306643Y-16940500D01*
X8316167Y-16950024D01*
X8325691Y-16969071D01*
X8335214Y-17007167D01*
X8335214Y-17054786D01*
X8325691Y-17092881D01*
X8316167Y-17111929D01*
X8306643Y-17121452D01*
X8287595Y-17130976D01*
X8268548Y-17130976D01*
X8249500Y-17121452D01*
X8239976Y-17111929D01*
X8230453Y-17092881D01*
X8220929Y-17054786D01*
X8220929Y-17007167D01*
X8230453Y-16969071D01*
X8239976Y-16950024D01*
X8249500Y-16940500D01*
X8268548Y-16930976D01*
X8420929Y-17111929D02*
X8430453Y-17121452D01*
X8420929Y-17130976D01*
X8411405Y-17121452D01*
X8420929Y-17111929D01*
X8420929Y-17130976D01*
X8620929Y-17130976D02*
X8506643Y-17130976D01*
X8563786Y-17130976D02*
X8563786Y-16930976D01*
X8544738Y-16959548D01*
X8525691Y-16978595D01*
X8506643Y-16988119D01*
X8697119Y-16950024D02*
X8706643Y-16940500D01*
X8725691Y-16930976D01*
X8773310Y-16930976D01*
X8792357Y-16940500D01*
X8801881Y-16950024D01*
X8811405Y-16969071D01*
X8811405Y-16988119D01*
X8801881Y-17016690D01*
X8687596Y-17130976D01*
X8811405Y-17130976D01*
X8982834Y-16930976D02*
X8944738Y-16930976D01*
X8925691Y-16940500D01*
X8916167Y-16950024D01*
X8897119Y-16978595D01*
X8887596Y-17016690D01*
X8887596Y-17092881D01*
X8897119Y-17111929D01*
X8906643Y-17121452D01*
X8925691Y-17130976D01*
X8963786Y-17130976D01*
X8982834Y-17121452D01*
X8992357Y-17111929D01*
X9001881Y-17092881D01*
X9001881Y-17045262D01*
X8992357Y-17026214D01*
X8982834Y-17016690D01*
X8963786Y-17007167D01*
X8925691Y-17007167D01*
X8906643Y-17016690D01*
X8897119Y-17026214D01*
X8887596Y-17045262D01*
X9125691Y-16930976D02*
X9144738Y-16930976D01*
X9163786Y-16940500D01*
X9173310Y-16950024D01*
X9182834Y-16969071D01*
X9192357Y-17007167D01*
X9192357Y-17054786D01*
X9182834Y-17092881D01*
X9173310Y-17111929D01*
X9163786Y-17121452D01*
X9144738Y-17130976D01*
X9125691Y-17130976D01*
X9106643Y-17121452D01*
X9097119Y-17111929D01*
X9087596Y-17092881D01*
X9078072Y-17054786D01*
X9078072Y-17007167D01*
X9087596Y-16969071D01*
X9097119Y-16950024D01*
X9106643Y-16940500D01*
X9125691Y-16930976D01*
X9268548Y-16930976D02*
X9268548Y-16969071D01*
X9344738Y-16930976D02*
X9344738Y-16969071D01*
X9639976Y-17207167D02*
X9630453Y-17197643D01*
X9611405Y-17169071D01*
X9601881Y-17150024D01*
X9592357Y-17121452D01*
X9582834Y-17073833D01*
X9582834Y-17035738D01*
X9592357Y-16988119D01*
X9601881Y-16959548D01*
X9611405Y-16940500D01*
X9630453Y-16911929D01*
X9639976Y-16902405D01*
X9820929Y-17130976D02*
X9706643Y-17130976D01*
X9763786Y-17130976D02*
X9763786Y-16930976D01*
X9744738Y-16959548D01*
X9725691Y-16978595D01*
X9706643Y-16988119D01*
X9992357Y-16930976D02*
X9954262Y-16930976D01*
X9935215Y-16940500D01*
X9925691Y-16950024D01*
X9906643Y-16978595D01*
X9897119Y-17016690D01*
X9897119Y-17092881D01*
X9906643Y-17111929D01*
X9916167Y-17121452D01*
X9935215Y-17130976D01*
X9973310Y-17130976D01*
X9992357Y-17121452D01*
X10001881Y-17111929D01*
X10011405Y-17092881D01*
X10011405Y-17045262D01*
X10001881Y-17026214D01*
X9992357Y-17016690D01*
X9973310Y-17007167D01*
X9935215Y-17007167D01*
X9916167Y-17016690D01*
X9906643Y-17026214D01*
X9897119Y-17045262D01*
X10249500Y-17130976D02*
X10249500Y-16930976D01*
X10335215Y-17130976D02*
X10335215Y-17026214D01*
X10325691Y-17007167D01*
X10306643Y-16997643D01*
X10278072Y-16997643D01*
X10259024Y-17007167D01*
X10249500Y-17016690D01*
X10459024Y-17130976D02*
X10439976Y-17121452D01*
X10430453Y-17111929D01*
X10420929Y-17092881D01*
X10420929Y-17035738D01*
X10430453Y-17016690D01*
X10439976Y-17007167D01*
X10459024Y-16997643D01*
X10487596Y-16997643D01*
X10506643Y-17007167D01*
X10516167Y-17016690D01*
X10525691Y-17035738D01*
X10525691Y-17092881D01*
X10516167Y-17111929D01*
X10506643Y-17121452D01*
X10487596Y-17130976D01*
X10459024Y-17130976D01*
X10639976Y-17130976D02*
X10620929Y-17121452D01*
X10611405Y-17102405D01*
X10611405Y-16930976D01*
X10792357Y-17121452D02*
X10773310Y-17130976D01*
X10735215Y-17130976D01*
X10716167Y-17121452D01*
X10706643Y-17102405D01*
X10706643Y-17026214D01*
X10716167Y-17007167D01*
X10735215Y-16997643D01*
X10773310Y-16997643D01*
X10792357Y-17007167D01*
X10801881Y-17026214D01*
X10801881Y-17045262D01*
X10706643Y-17064310D01*
X10878072Y-17121452D02*
X10897119Y-17130976D01*
X10935215Y-17130976D01*
X10954262Y-17121452D01*
X10963786Y-17102405D01*
X10963786Y-17092881D01*
X10954262Y-17073833D01*
X10935215Y-17064310D01*
X10906643Y-17064310D01*
X10887596Y-17054786D01*
X10878072Y-17035738D01*
X10878072Y-17026214D01*
X10887596Y-17007167D01*
X10906643Y-16997643D01*
X10935215Y-16997643D01*
X10954262Y-17007167D01*
X11030453Y-17207167D02*
X11039976Y-17197643D01*
X11059024Y-17169071D01*
X11068548Y-17150024D01*
X11078072Y-17121452D01*
X11087596Y-17073833D01*
X11087596Y-17035738D01*
X11078072Y-16988119D01*
X11068548Y-16959548D01*
X11059024Y-16940500D01*
X11039976Y-16911929D01*
X11030453Y-16902405D01*
M02*
