%TF.GenerationSoftware,KiCad,Pcbnew,6.0.11-2627ca5db0~126~ubuntu20.04.1*%
%TF.CreationDate,2023-05-10T16:13:11+05:30*%
%TF.ProjectId,MVCU_F407,4d564355-5f46-4343-9037-2e6b69636164,rev?*%
%TF.SameCoordinates,Original*%
%TF.FileFunction,Copper,L4,Bot*%
%TF.FilePolarity,Positive*%
%FSLAX46Y46*%
G04 Gerber Fmt 4.6, Leading zero omitted, Abs format (unit mm)*
G04 Created by KiCad (PCBNEW 6.0.11-2627ca5db0~126~ubuntu20.04.1) date 2023-05-10 16:13:11*
%MOMM*%
%LPD*%
G01*
G04 APERTURE LIST*
G04 Aperture macros list*
%AMRoundRect*
0 Rectangle with rounded corners*
0 $1 Rounding radius*
0 $2 $3 $4 $5 $6 $7 $8 $9 X,Y pos of 4 corners*
0 Add a 4 corners polygon primitive as box body*
4,1,4,$2,$3,$4,$5,$6,$7,$8,$9,$2,$3,0*
0 Add four circle primitives for the rounded corners*
1,1,$1+$1,$2,$3*
1,1,$1+$1,$4,$5*
1,1,$1+$1,$6,$7*
1,1,$1+$1,$8,$9*
0 Add four rect primitives between the rounded corners*
20,1,$1+$1,$2,$3,$4,$5,0*
20,1,$1+$1,$4,$5,$6,$7,0*
20,1,$1+$1,$6,$7,$8,$9,0*
20,1,$1+$1,$8,$9,$2,$3,0*%
%AMHorizOval*
0 Thick line with rounded ends*
0 $1 width*
0 $2 $3 position (X,Y) of the first rounded end (center of the circle)*
0 $4 $5 position (X,Y) of the second rounded end (center of the circle)*
0 Add line between two ends*
20,1,$1,$2,$3,$4,$5,0*
0 Add two circle primitives to create the rounded ends*
1,1,$1,$2,$3*
1,1,$1,$4,$5*%
%AMRotRect*
0 Rectangle, with rotation*
0 The origin of the aperture is its center*
0 $1 length*
0 $2 width*
0 $3 Rotation angle, in degrees counterclockwise*
0 Add horizontal line*
21,1,$1,$2,0,0,$3*%
G04 Aperture macros list end*
%TA.AperFunction,ComponentPad*%
%ADD10R,1.600000X1.600000*%
%TD*%
%TA.AperFunction,ComponentPad*%
%ADD11O,1.600000X1.600000*%
%TD*%
%TA.AperFunction,ComponentPad*%
%ADD12C,2.800000*%
%TD*%
%TA.AperFunction,ComponentPad*%
%ADD13C,4.000000*%
%TD*%
%TA.AperFunction,ComponentPad*%
%ADD14C,1.600000*%
%TD*%
%TA.AperFunction,ComponentPad*%
%ADD15C,1.524000*%
%TD*%
%TA.AperFunction,ComponentPad*%
%ADD16C,5.600000*%
%TD*%
%TA.AperFunction,ComponentPad*%
%ADD17R,1.700000X1.700000*%
%TD*%
%TA.AperFunction,ComponentPad*%
%ADD18O,1.700000X1.700000*%
%TD*%
%TA.AperFunction,ComponentPad*%
%ADD19RoundRect,0.250000X-0.750000X-1.550000X0.750000X-1.550000X0.750000X1.550000X-0.750000X1.550000X0*%
%TD*%
%TA.AperFunction,ComponentPad*%
%ADD20O,2.000000X3.600000*%
%TD*%
%TA.AperFunction,ComponentPad*%
%ADD21C,2.000000*%
%TD*%
%TA.AperFunction,ComponentPad*%
%ADD22RotRect,1.700000X1.700000X225.000000*%
%TD*%
%TA.AperFunction,ComponentPad*%
%ADD23HorizOval,1.700000X0.000000X0.000000X0.000000X0.000000X0*%
%TD*%
%TA.AperFunction,ViaPad*%
%ADD24C,0.800000*%
%TD*%
%TA.AperFunction,Conductor*%
%ADD25C,0.400000*%
%TD*%
%TA.AperFunction,Conductor*%
%ADD26C,0.250000*%
%TD*%
%TA.AperFunction,Conductor*%
%ADD27C,0.500000*%
%TD*%
%TA.AperFunction,Conductor*%
%ADD28C,0.300000*%
%TD*%
%TA.AperFunction,Conductor*%
%ADD29C,0.700000*%
%TD*%
%TA.AperFunction,Conductor*%
%ADD30C,0.200000*%
%TD*%
G04 APERTURE END LIST*
D10*
%TO.P,U1,1*%
%TO.N,GND*%
X162371000Y-38394000D03*
D11*
%TO.P,U1,2*%
%TO.N,Net-(R2-Pad1)*%
X162371000Y-40934000D03*
%TO.P,U1,3*%
%TO.N,/DI_LLS*%
X162371000Y-43474000D03*
%TO.P,U1,4*%
%TO.N,GND*%
X162371000Y-46014000D03*
%TO.P,U1,5*%
%TO.N,Net-(R4-Pad1)*%
X162371000Y-48554000D03*
%TO.P,U1,6*%
%TO.N,/SCK_LLS*%
X162371000Y-51094000D03*
%TO.P,U1,7,GND*%
%TO.N,GND*%
X162371000Y-53634000D03*
%TO.P,U1,8*%
%TO.N,/CS_LLS*%
X169991000Y-53634000D03*
%TO.P,U1,9*%
%TO.N,Net-(R5-Pad1)*%
X169991000Y-51094000D03*
%TO.P,U1,10*%
%TO.N,GND*%
X169991000Y-48554000D03*
%TO.P,U1,11*%
%TO.N,/SD_MISO*%
X169991000Y-46014000D03*
%TO.P,U1,12*%
%TO.N,Net-(R6-Pad1)*%
X169991000Y-43474000D03*
%TO.P,U1,13*%
%TO.N,GND*%
X169991000Y-40934000D03*
%TO.P,U1,14,VCC*%
%TO.N,+3.3V*%
X169991000Y-38394000D03*
%TD*%
D12*
%TO.P,+Vin,1,1*%
%TO.N,/mornsun_Vin*%
X130054000Y-51223000D03*
%TD*%
%TO.P,-Vin,1,1*%
%TO.N,/mornsun_minus*%
X125355000Y-51350000D03*
%TD*%
D13*
%TO.P,J6,0,PAD*%
%TO.N,GND*%
X183606107Y-76656893D03*
X183606107Y-101656893D03*
D10*
%TO.P,J6,1,1*%
%TO.N,/MVCU_HBT*%
X182186107Y-94696893D03*
D14*
%TO.P,J6,2,2*%
%TO.N,/CAN_N*%
X182186107Y-91926893D03*
%TO.P,J6,3,3*%
%TO.N,GND*%
X182186107Y-89156893D03*
%TO.P,J6,4,4*%
%TO.N,/I2C3_SCL*%
X182186107Y-86386893D03*
%TO.P,J6,5,5*%
%TO.N,GND*%
X182186107Y-83616893D03*
%TO.P,J6,6,6*%
%TO.N,/VCU2_HBT*%
X185026107Y-93311893D03*
%TO.P,J6,7,7*%
%TO.N,/CAN_P*%
X185026107Y-90541893D03*
%TO.P,J6,8,8*%
%TO.N,/I2C_SDA*%
X185026107Y-87771893D03*
%TO.P,J6,9,9*%
%TO.N,+5V*%
X185026107Y-85001893D03*
%TD*%
D15*
%TO.P,U9,1,1*%
%TO.N,+3.3V*%
X75100660Y-106648200D03*
%TO.P,U9,2,2*%
%TO.N,/Xbee_Tx*%
X77102180Y-106648200D03*
%TO.P,U9,3,3*%
%TO.N,/Xbee_Rx*%
X79101160Y-106648200D03*
%TO.P,U9,4,4*%
%TO.N,unconnected-(U9-Pad4)*%
X81102680Y-106648200D03*
%TO.P,U9,5,5*%
%TO.N,/RST*%
X83101660Y-106648200D03*
%TO.P,U9,6,6*%
%TO.N,/RSSI*%
X85100640Y-106648200D03*
%TO.P,U9,7,7*%
%TO.N,unconnected-(U9-Pad7)*%
X87102160Y-106648200D03*
%TO.P,U9,8,8*%
%TO.N,unconnected-(U9-Pad8)*%
X89101140Y-106648200D03*
%TO.P,U9,9,9*%
%TO.N,unconnected-(U9-Pad9)*%
X91102660Y-106648200D03*
%TO.P,U9,10,10*%
%TO.N,GND*%
X93101640Y-106648200D03*
%TO.P,U9,11,11*%
%TO.N,unconnected-(U9-Pad11)*%
X93101640Y-84651800D03*
%TO.P,U9,12,12*%
%TO.N,unconnected-(U9-Pad12)*%
X91102660Y-84651800D03*
%TO.P,U9,13,13*%
%TO.N,unconnected-(U9-Pad13)*%
X89101140Y-84651800D03*
%TO.P,U9,14,14*%
%TO.N,unconnected-(U9-Pad14)*%
X87102160Y-84651800D03*
%TO.P,U9,15,15*%
%TO.N,Net-(R23-Pad2)*%
X85100640Y-84651800D03*
%TO.P,U9,16,16*%
%TO.N,unconnected-(U9-Pad16)*%
X83101660Y-84651800D03*
%TO.P,U9,17,17*%
%TO.N,unconnected-(U9-Pad17)*%
X81102680Y-84651800D03*
%TO.P,U9,18,18*%
%TO.N,unconnected-(U9-Pad18)*%
X79101160Y-84651800D03*
%TO.P,U9,19,19*%
%TO.N,unconnected-(U9-Pad19)*%
X77102180Y-84651800D03*
%TO.P,U9,20,20*%
%TO.N,unconnected-(U9-Pad20)*%
X75100660Y-84651800D03*
%TD*%
D10*
%TO.P,U10,1,E*%
%TO.N,Net-(U10-Pad1)*%
X158995000Y-79300000D03*
D14*
%TO.P,U10,2,D*%
%TO.N,Net-(U10-Pad2)*%
X161535000Y-79300000D03*
%TO.P,U10,3,CC*%
%TO.N,GND*%
X164075000Y-79300000D03*
%TO.P,U10,4,C*%
%TO.N,Net-(U10-Pad4)*%
X166615000Y-79300000D03*
%TO.P,U10,5,DP*%
%TO.N,unconnected-(U10-Pad5)*%
X169155000Y-79300000D03*
%TO.P,U10,6,B*%
%TO.N,Net-(U10-Pad6)*%
X169155000Y-64060000D03*
%TO.P,U10,7,A*%
%TO.N,Net-(U10-Pad7)*%
X166615000Y-64060000D03*
%TO.P,U10,8,CC*%
%TO.N,GND*%
X164075000Y-64060000D03*
%TO.P,U10,9,F*%
%TO.N,Net-(U10-Pad9)*%
X161535000Y-64060000D03*
%TO.P,U10,10,G*%
%TO.N,Net-(U10-Pad10)*%
X158995000Y-64060000D03*
%TD*%
D16*
%TO.P,H4,1,1*%
%TO.N,GND*%
X176155000Y-41444000D03*
%TD*%
%TO.P,H2,1,1*%
%TO.N,GND*%
X66932107Y-118792893D03*
%TD*%
D17*
%TO.P,J2,1,Pin_1*%
%TO.N,/ADC_in6*%
X114425000Y-103525000D03*
D18*
%TO.P,J2,2,Pin_2*%
%TO.N,/ADC_in7*%
X114425000Y-106065000D03*
%TO.P,J2,3,Pin_3*%
%TO.N,/ADC_in14*%
X114425000Y-108605000D03*
%TO.P,J2,4,Pin_4*%
%TO.N,/ADC_in15*%
X114425000Y-111145000D03*
%TO.P,J2,5,Pin_5*%
%TO.N,/ADC_in8*%
X114425000Y-113685000D03*
%TD*%
D13*
%TO.P,J7,0,PAD*%
%TO.N,GND*%
X104222107Y-132632562D03*
X129222107Y-132632562D03*
D10*
%TO.P,J7,1,1*%
%TO.N,/MVCU_HBT*%
X111182107Y-131212562D03*
D14*
%TO.P,J7,2,2*%
%TO.N,/CAN_N*%
X113952107Y-131212562D03*
%TO.P,J7,3,3*%
%TO.N,GND*%
X116722107Y-131212562D03*
%TO.P,J7,4,4*%
%TO.N,/I2C3_SCL*%
X119492107Y-131212562D03*
%TO.P,J7,5,5*%
%TO.N,GND*%
X122262107Y-131212562D03*
%TO.P,J7,6,6*%
%TO.N,/VCU5_HBT*%
X112567107Y-134052562D03*
%TO.P,J7,7,7*%
%TO.N,/CAN_P*%
X115337107Y-134052562D03*
%TO.P,J7,8,8*%
%TO.N,/I2C_SDA*%
X118107107Y-134052562D03*
%TO.P,J7,9,9*%
%TO.N,+5V*%
X120877107Y-134052562D03*
%TD*%
D13*
%TO.P,J11,0,PAD*%
%TO.N,GND*%
X184125776Y-39156893D03*
X184125776Y-64156893D03*
D10*
%TO.P,J11,1,1*%
%TO.N,/MVCU_HBT*%
X182705776Y-57196893D03*
D14*
%TO.P,J11,2,2*%
%TO.N,/CAN_N*%
X182705776Y-54426893D03*
%TO.P,J11,3,3*%
%TO.N,GND*%
X182705776Y-51656893D03*
%TO.P,J11,4,4*%
%TO.N,/I2C3_SCL*%
X182705776Y-48886893D03*
%TO.P,J11,5,5*%
%TO.N,GND*%
X182705776Y-46116893D03*
%TO.P,J11,6,6*%
%TO.N,/VCU1_HBT*%
X185545776Y-55811893D03*
%TO.P,J11,7,7*%
%TO.N,/CAN_P*%
X185545776Y-53041893D03*
%TO.P,J11,8,8*%
%TO.N,/I2C_SDA*%
X185545776Y-50271893D03*
%TO.P,J11,9,9*%
%TO.N,+5V*%
X185545776Y-47501893D03*
%TD*%
D17*
%TO.P,J20,1,Pin_1*%
%TO.N,/CAN_Rx*%
X161677000Y-120565000D03*
%TD*%
%TO.P,J13,1,Pin_1*%
%TO.N,/SWDIO*%
X155400000Y-90200000D03*
D18*
%TO.P,J13,2,Pin_2*%
%TO.N,/SWCLK*%
X157940000Y-90200000D03*
%TO.P,J13,3,Pin_3*%
%TO.N,/SWo*%
X160480000Y-90200000D03*
%TO.P,J13,4,Pin_4*%
%TO.N,+3.3V*%
X163020000Y-90200000D03*
%TO.P,J13,5,Pin_5*%
%TO.N,GND*%
X165560000Y-90200000D03*
%TD*%
D17*
%TO.P,J16,1,Pin_1*%
%TO.N,GND*%
X127768000Y-41459000D03*
D18*
%TO.P,J16,2,Pin_2*%
%TO.N,/mornsun_minus*%
X127768000Y-43999000D03*
%TO.P,J16,3,Pin_3*%
%TO.N,unconnected-(J16-Pad3)*%
X127768000Y-46539000D03*
%TD*%
D17*
%TO.P,J10,1,Pin_1*%
%TO.N,/USART2_Tx*%
X104625000Y-105500000D03*
D18*
%TO.P,J10,2,Pin_2*%
%TO.N,/USART2_Rx*%
X104625000Y-108040000D03*
%TO.P,J10,3,Pin_3*%
%TO.N,/gpio*%
X104625000Y-110580000D03*
%TO.P,J10,4,Pin_4*%
%TO.N,GND*%
X104625000Y-113120000D03*
%TD*%
D13*
%TO.P,J12,0,PAD*%
%TO.N,GND*%
X183452669Y-139356893D03*
X183452669Y-114356893D03*
D10*
%TO.P,J12,1,1*%
%TO.N,/MVCU_HBT*%
X182032669Y-132396893D03*
D14*
%TO.P,J12,2,2*%
%TO.N,/CAN_N*%
X182032669Y-129626893D03*
%TO.P,J12,3,3*%
%TO.N,GND*%
X182032669Y-126856893D03*
%TO.P,J12,4,4*%
%TO.N,/I2C3_SCL*%
X182032669Y-124086893D03*
%TO.P,J12,5,5*%
%TO.N,GND*%
X182032669Y-121316893D03*
%TO.P,J12,6,6*%
%TO.N,/VCU3_HBT*%
X184872669Y-131011893D03*
%TO.P,J12,7,7*%
%TO.N,/CAN_P*%
X184872669Y-128241893D03*
%TO.P,J12,8,8*%
%TO.N,/I2C_SDA*%
X184872669Y-125471893D03*
%TO.P,J12,9,9*%
%TO.N,+5V*%
X184872669Y-122701893D03*
%TD*%
D17*
%TO.P,J21,1,Pin_1*%
%TO.N,/CAN_P*%
X166657000Y-107455000D03*
%TD*%
D10*
%TO.P,U8,1,B*%
%TO.N,/display_b*%
X146105000Y-62327500D03*
D11*
%TO.P,U8,2,C*%
%TO.N,/display_c*%
X146105000Y-64867500D03*
%TO.P,U8,3,LT*%
%TO.N,Net-(J9-Pad2)*%
X146105000Y-67407500D03*
%TO.P,U8,4,BI*%
%TO.N,Net-(J9-Pad4)*%
X146105000Y-69947500D03*
%TO.P,U8,5,RBI*%
%TO.N,Net-(J9-Pad6)*%
X146105000Y-72487500D03*
%TO.P,U8,6,D*%
%TO.N,/display_d*%
X146105000Y-75027500D03*
%TO.P,U8,7,A*%
%TO.N,/display_a*%
X146105000Y-77567500D03*
%TO.P,U8,8,GND*%
%TO.N,GND*%
X146105000Y-80107500D03*
%TO.P,U8,9,e*%
%TO.N,Net-(U10-Pad1)*%
X153725000Y-80107500D03*
%TO.P,U8,10,d*%
%TO.N,Net-(U10-Pad2)*%
X153725000Y-77567500D03*
%TO.P,U8,11,c*%
%TO.N,Net-(U10-Pad4)*%
X153725000Y-75027500D03*
%TO.P,U8,12,b*%
%TO.N,Net-(U10-Pad6)*%
X153725000Y-72487500D03*
%TO.P,U8,13,a*%
%TO.N,Net-(U10-Pad7)*%
X153725000Y-69947500D03*
%TO.P,U8,14,g*%
%TO.N,Net-(U10-Pad10)*%
X153725000Y-67407500D03*
%TO.P,U8,15,f*%
%TO.N,Net-(U10-Pad9)*%
X153725000Y-64867500D03*
%TO.P,U8,16,VCC*%
%TO.N,+5V*%
X153725000Y-62327500D03*
%TD*%
D16*
%TO.P,H3,1,1*%
%TO.N,GND*%
X66475000Y-85000000D03*
%TD*%
D12*
%TO.P,+5V,1,1*%
%TO.N,+5V*%
X111258000Y-51350000D03*
%TD*%
D19*
%TO.P,J5,1,Pin_1*%
%TO.N,/mornsun_minus*%
X114152107Y-44071500D03*
D20*
%TO.P,J5,2,Pin_2*%
%TO.N,/mornsun_Vin*%
X119152107Y-44071500D03*
%TD*%
D17*
%TO.P,J17,1,Pin_1*%
%TO.N,GND*%
X88275000Y-67750000D03*
D18*
%TO.P,J17,2,Pin_2*%
%TO.N,+3.3V*%
X88275000Y-70290000D03*
%TO.P,J17,3,Pin_3*%
%TO.N,GND*%
X85735000Y-67750000D03*
%TO.P,J17,4,Pin_4*%
%TO.N,+5V*%
X85735000Y-70290000D03*
%TO.P,J17,5,Pin_5*%
%TO.N,GND*%
X83195000Y-67750000D03*
%TO.P,J17,6,Pin_6*%
%TO.N,/mornsun_Vin*%
X83195000Y-70290000D03*
%TD*%
D17*
%TO.P,J22,1,Pin_1*%
%TO.N,/CAN_N*%
X166503000Y-120565000D03*
%TD*%
D13*
%TO.P,J4,0,PAD*%
%TO.N,GND*%
X67972107Y-132132562D03*
X92972107Y-132132562D03*
D10*
%TO.P,J4,1,1*%
%TO.N,unconnected-(J4-Pad1)*%
X74932107Y-130712562D03*
D14*
%TO.P,J4,2,2*%
%TO.N,/Rx*%
X77702107Y-130712562D03*
%TO.P,J4,3,3*%
%TO.N,/Tx*%
X80472107Y-130712562D03*
%TO.P,J4,4,4*%
%TO.N,unconnected-(J4-Pad4)*%
X83242107Y-130712562D03*
%TO.P,J4,5,5*%
%TO.N,GND*%
X86012107Y-130712562D03*
%TO.P,J4,6,6*%
%TO.N,unconnected-(J4-Pad6)*%
X76317107Y-133552562D03*
%TO.P,J4,7,7*%
%TO.N,unconnected-(J4-Pad7)*%
X79087107Y-133552562D03*
%TO.P,J4,8,8*%
%TO.N,unconnected-(J4-Pad8)*%
X81857107Y-133552562D03*
%TO.P,J4,9,9*%
%TO.N,unconnected-(J4-Pad9)*%
X84627107Y-133552562D03*
%TD*%
D17*
%TO.P,J14,1,Pin_1*%
%TO.N,/SPI2_SCK*%
X122925000Y-112700000D03*
D18*
%TO.P,J14,2,Pin_2*%
%TO.N,/SPI2_MISO*%
X125465000Y-112700000D03*
%TO.P,J14,3,Pin_3*%
%TO.N,/SPI2_MOSI*%
X128005000Y-112700000D03*
%TO.P,J14,4,Pin_4*%
%TO.N,GND*%
X130545000Y-112700000D03*
%TD*%
D16*
%TO.P,H1,1,1*%
%TO.N,GND*%
X174425000Y-134100000D03*
%TD*%
D17*
%TO.P,J18,1,Pin_1*%
%TO.N,+5V*%
X83975000Y-76300000D03*
D18*
%TO.P,J18,2,Pin_2*%
%TO.N,Net-(C26-Pad1)*%
X81435000Y-76300000D03*
%TO.P,J18,3,Pin_3*%
%TO.N,unconnected-(J18-Pad3)*%
X78895000Y-76300000D03*
%TD*%
D12*
%TO.P,3V3,1,1*%
%TO.N,+3.3V*%
X116084000Y-51350000D03*
%TD*%
D13*
%TO.P,J8,0,PAD*%
%TO.N,GND*%
X166322107Y-132682562D03*
X141322107Y-132682562D03*
D10*
%TO.P,J8,1,1*%
%TO.N,/MVCU_HBT*%
X148282107Y-131262562D03*
D14*
%TO.P,J8,2,2*%
%TO.N,/CAN_N*%
X151052107Y-131262562D03*
%TO.P,J8,3,3*%
%TO.N,GND*%
X153822107Y-131262562D03*
%TO.P,J8,4,4*%
%TO.N,/I2C3_SCL*%
X156592107Y-131262562D03*
%TO.P,J8,5,5*%
%TO.N,GND*%
X159362107Y-131262562D03*
%TO.P,J8,6,6*%
%TO.N,/VCU4_HBT*%
X149667107Y-134102562D03*
%TO.P,J8,7,7*%
%TO.N,/CAN_P*%
X152437107Y-134102562D03*
%TO.P,J8,8,8*%
%TO.N,/I2C_SDA*%
X155207107Y-134102562D03*
%TO.P,J8,9,9*%
%TO.N,+5V*%
X157977107Y-134102562D03*
%TD*%
D21*
%TO.P,SW1,1,1*%
%TO.N,GND*%
X105482107Y-72242893D03*
X98982107Y-72242893D03*
%TO.P,SW1,2,2*%
%TO.N,Net-(C3-Pad1)*%
X105482107Y-76742893D03*
X98982107Y-76742893D03*
%TD*%
D17*
%TO.P,J19,1,Pin_1*%
%TO.N,/CAN_Tx*%
X161507000Y-107530000D03*
%TD*%
D10*
%TO.P,C27,1*%
%TO.N,GND*%
X67172349Y-71900000D03*
D14*
%TO.P,C27,2*%
%TO.N,Net-(C26-Pad1)*%
X69672349Y-71900000D03*
%TD*%
D22*
%TO.P,J15,1,Pin_1*%
%TO.N,/I2C1_SCL*%
X138826562Y-75851562D03*
D23*
%TO.P,J15,2,Pin_2*%
%TO.N,/I2C1_SDA*%
X137030511Y-74055511D03*
%TD*%
D15*
%TO.P,U7,1,GND*%
%TO.N,/mornsun_minus*%
X79872107Y-42913893D03*
%TO.P,U7,2,Vin*%
%TO.N,/mornsun_Vin*%
X74792107Y-42913893D03*
%TO.P,U7,3,+Vo*%
%TO.N,Net-(C26-Pad1)*%
X67172107Y-60693893D03*
%TO.P,U7,4,0V*%
%TO.N,GND*%
X87492107Y-60693893D03*
%TD*%
D12*
%TO.P,GND,1,1*%
%TO.N,GND*%
X120656000Y-51350000D03*
%TD*%
D17*
%TO.P,J1,1,Pin_1*%
%TO.N,+3.3V*%
X136150000Y-47275000D03*
D18*
%TO.P,J1,2,Pin_2*%
%TO.N,Net-(J1-Pad2)*%
X136150000Y-49815000D03*
%TO.P,J1,3,Pin_3*%
%TO.N,GND*%
X136150000Y-52355000D03*
%TD*%
D10*
%TO.P,C24,1*%
%TO.N,/mornsun_Vin*%
X97472349Y-44200000D03*
D14*
%TO.P,C24,2*%
%TO.N,GND*%
X99972349Y-44200000D03*
%TD*%
D17*
%TO.P,J23,1,Pin_1*%
%TO.N,/DAC_1*%
X109825000Y-108065000D03*
D18*
%TO.P,J23,2,Pin_2*%
%TO.N,/DAC_2*%
X109825000Y-110605000D03*
%TD*%
D24*
%TO.N,GND*%
X133725000Y-134100000D03*
X135150000Y-134100000D03*
X135175000Y-131325000D03*
X136775000Y-131325000D03*
X136750000Y-134100000D03*
X135175000Y-132625000D03*
X133750000Y-132625000D03*
X136775000Y-132625000D03*
X133750000Y-131325000D03*
X168275000Y-72400000D03*
X169700000Y-72400000D03*
X169725000Y-69625000D03*
X171325000Y-69625000D03*
X171300000Y-72400000D03*
X169725000Y-70925000D03*
X168300000Y-70925000D03*
X171325000Y-70925000D03*
X168300000Y-69625000D03*
X89250000Y-93275000D03*
X90675000Y-93275000D03*
X90700000Y-90500000D03*
X92300000Y-90500000D03*
X92275000Y-93275000D03*
X90700000Y-91800000D03*
X89275000Y-91800000D03*
X92300000Y-91800000D03*
X89275000Y-90500000D03*
X129900000Y-92625000D03*
X128475000Y-92625000D03*
X128450000Y-95400000D03*
X126850000Y-95400000D03*
X126875000Y-92625000D03*
X128450000Y-94100000D03*
X129875000Y-94100000D03*
X126850000Y-94100000D03*
X129875000Y-95400000D03*
X187950000Y-45275000D03*
X189375000Y-45275000D03*
X189400000Y-42500000D03*
X191000000Y-42500000D03*
X190975000Y-45275000D03*
X189400000Y-43800000D03*
X187975000Y-43800000D03*
X191000000Y-43800000D03*
X187975000Y-42500000D03*
X182050000Y-71575000D03*
X183475000Y-71575000D03*
X183500000Y-68800000D03*
X185100000Y-68800000D03*
X185075000Y-71575000D03*
X183500000Y-70100000D03*
X182075000Y-70100000D03*
X185100000Y-70100000D03*
X182075000Y-68800000D03*
X170825000Y-123325000D03*
X172250000Y-123325000D03*
X172275000Y-120550000D03*
X173875000Y-120550000D03*
X173850000Y-123325000D03*
X172275000Y-121850000D03*
X170850000Y-121850000D03*
X173875000Y-121850000D03*
X170850000Y-120550000D03*
X169425000Y-96325000D03*
X170850000Y-96325000D03*
X170875000Y-93550000D03*
X172475000Y-93550000D03*
X172450000Y-96325000D03*
X170875000Y-94850000D03*
X169450000Y-94850000D03*
X172475000Y-94850000D03*
X169450000Y-93550000D03*
X151950000Y-120975000D03*
X153375000Y-120975000D03*
X153400000Y-118200000D03*
X155000000Y-118200000D03*
X154975000Y-120975000D03*
X153400000Y-119500000D03*
X151975000Y-119500000D03*
X155000000Y-119500000D03*
X151975000Y-118200000D03*
X102900000Y-126475000D03*
X104325000Y-126475000D03*
X104350000Y-123700000D03*
X105950000Y-123700000D03*
X105925000Y-126475000D03*
X104350000Y-125000000D03*
X102925000Y-125000000D03*
X105950000Y-125000000D03*
X102925000Y-123700000D03*
X67700000Y-139200000D03*
X69125000Y-139200000D03*
X69150000Y-136425000D03*
X70750000Y-136425000D03*
X70725000Y-139200000D03*
X69150000Y-137725000D03*
X67725000Y-137725000D03*
X70750000Y-137725000D03*
X67725000Y-136425000D03*
X64775000Y-109575000D03*
X66200000Y-109575000D03*
X66225000Y-106800000D03*
X67825000Y-106800000D03*
X67800000Y-109575000D03*
X66225000Y-108100000D03*
X64800000Y-108100000D03*
X67825000Y-108100000D03*
X64800000Y-106800000D03*
X74725000Y-93150000D03*
X76150000Y-93150000D03*
X76175000Y-90375000D03*
X77775000Y-90375000D03*
X77750000Y-93150000D03*
X76175000Y-91675000D03*
X74750000Y-91675000D03*
X77775000Y-91675000D03*
X74750000Y-90375000D03*
X76700000Y-59800000D03*
X78125000Y-59800000D03*
X78150000Y-57025000D03*
X79750000Y-57025000D03*
X79725000Y-59800000D03*
X78150000Y-58325000D03*
X76725000Y-58325000D03*
X79750000Y-58325000D03*
X76725000Y-57025000D03*
X69725000Y-48175000D03*
X71325000Y-48175000D03*
X68300000Y-48175000D03*
X69750000Y-46700000D03*
X71350000Y-46700000D03*
X68325000Y-46700000D03*
X71350000Y-45400000D03*
X69750000Y-45400000D03*
X68325000Y-45400000D03*
X158883000Y-114342000D03*
X92716000Y-68114000D03*
X142754000Y-59224000D03*
X130250000Y-60075000D03*
X112300000Y-60000000D03*
X136225000Y-60000000D03*
X102994000Y-94033500D03*
X118475000Y-79700000D03*
X136531000Y-93514000D03*
X112385353Y-76300000D03*
X146945000Y-94530000D03*
X130943000Y-85259000D03*
X153114000Y-52860000D03*
X112125000Y-99300000D03*
X102622000Y-51096000D03*
X121418000Y-87799000D03*
X132025000Y-118200000D03*
X102994000Y-87937500D03*
X150193000Y-52987000D03*
X129292000Y-88815000D03*
X77349000Y-112310000D03*
X122688000Y-73956000D03*
X153225000Y-50209000D03*
X88017000Y-75734000D03*
X168787000Y-110399500D03*
X118425000Y-94100000D03*
X112782000Y-86783000D03*
X100463000Y-60240000D03*
X132086000Y-75861000D03*
X119625000Y-116700000D03*
X95891000Y-55668000D03*
X124250000Y-60050000D03*
X123450000Y-83608000D03*
X123825000Y-108000000D03*
X140722000Y-61891000D03*
X118250000Y-59850000D03*
X139050000Y-42775000D03*
%TO.N,+3.3V*%
X148096000Y-52860000D03*
X90176000Y-70273000D03*
X153166000Y-93514000D03*
X96272000Y-70273000D03*
X97034000Y-85132000D03*
%TO.N,Net-(C3-Pad1)*%
X109861000Y-82465000D03*
X112909000Y-83354000D03*
%TO.N,+5V*%
X163963000Y-125899000D03*
X100590000Y-136948000D03*
X122573000Y-136948000D03*
X99701000Y-69130000D03*
X192157000Y-119930000D03*
X92970000Y-72051000D03*
X188220000Y-85005000D03*
X124085000Y-138345000D03*
%TO.N,Net-(C21-Pad2)*%
X101987000Y-121454000D03*
X92462000Y-112564000D03*
%TO.N,/CS_LLS*%
X145875000Y-58575000D03*
%TO.N,/DI_LLS*%
X147145000Y-51717000D03*
%TO.N,/SCK_LLS*%
X149304000Y-51971000D03*
%TO.N,/Rx*%
X88144000Y-126280000D03*
%TO.N,/MVCU_HBT*%
X140214000Y-110532000D03*
X140341000Y-115993000D03*
%TO.N,/I2C3_SCL*%
X119925000Y-138100000D03*
X157425000Y-139194500D03*
X143135000Y-104182000D03*
X190083500Y-123908500D03*
X143770000Y-124121000D03*
X188347000Y-86529000D03*
X149358000Y-98086000D03*
%TO.N,/VCU1_HBT*%
X175393000Y-106214000D03*
X139200000Y-112675000D03*
X174377000Y-102785000D03*
%TO.N,/I2C_SDA*%
X141484000Y-124121000D03*
X140849000Y-103039000D03*
X180219000Y-78655000D03*
X188347000Y-88307000D03*
X146818000Y-98340000D03*
X188855000Y-126407000D03*
%TO.N,/VCU4_HBT*%
X135604500Y-119450000D03*
%TO.N,/VCU2_HBT*%
X138200000Y-114575000D03*
%TO.N,/VCU3_HBT*%
X145675000Y-120946000D03*
X137050000Y-117225000D03*
X171964000Y-127169000D03*
%TO.N,/SD_CS*%
X174704000Y-52733000D03*
X149485000Y-86529000D03*
%TO.N,/E1*%
X133549336Y-82150337D03*
X134626000Y-70908000D03*
%TO.N,/C13*%
X129927000Y-87545000D03*
X118243000Y-69638000D03*
%TO.N,/C14*%
X115322000Y-69765000D03*
X125345873Y-83871127D03*
%TO.N,/RSSI*%
X91954000Y-97705000D03*
X123675000Y-102225000D03*
%TO.N,/SD_MISO*%
X141611000Y-86910000D03*
%TO.N,/RST*%
X91192000Y-100118000D03*
X123831000Y-99991000D03*
%TO.N,/Xbee_Rx*%
X109988000Y-96816000D03*
%TO.N,/DAC_1*%
X119825000Y-96324500D03*
X114525000Y-99200000D03*
%TO.N,/ADC_in9*%
X121025000Y-102700000D03*
X121225000Y-116600000D03*
%TO.N,/display_d*%
X139275000Y-83275000D03*
%TO.N,/display_c*%
X144532000Y-80179000D03*
X141700000Y-82375000D03*
%TO.N,/display_b*%
X139134500Y-85830500D03*
%TO.N,/display_a*%
X141484000Y-84751000D03*
%TO.N,/SWo*%
X136800000Y-84800000D03*
%TO.N,/mornsun_Vin*%
X92208000Y-47159000D03*
X96399000Y-59605000D03*
%TO.N,/CAN_N*%
X172926268Y-116574268D03*
X175656768Y-113843768D03*
%TD*%
D25*
%TO.N,+3.3V*%
X139037000Y-36525000D02*
X168188000Y-36525000D01*
D26*
%TO.N,GND*%
X88275000Y-67750000D02*
X92352000Y-67750000D01*
D25*
X150193000Y-52987000D02*
X152987000Y-52987000D01*
X152987000Y-52987000D02*
X153114000Y-52860000D01*
D26*
X92352000Y-67750000D02*
X92716000Y-68114000D01*
D27*
%TO.N,+3.3V*%
X90176000Y-70273000D02*
X96272000Y-70273000D01*
D25*
X144535000Y-52860000D02*
X138950000Y-47275000D01*
X138950000Y-47275000D02*
X136150000Y-47275000D01*
D27*
X75100660Y-100461340D02*
X75100660Y-106648200D01*
D28*
X153166000Y-93514000D02*
X161804000Y-93514000D01*
D25*
X136023000Y-47275000D02*
X136023000Y-39539000D01*
X169043000Y-37446000D02*
X169991000Y-38394000D01*
D27*
X93859000Y-88307000D02*
X87255000Y-88307000D01*
D25*
X136023000Y-39539000D02*
X139037000Y-36525000D01*
D27*
X97034000Y-85132000D02*
X93859000Y-88307000D01*
D25*
X148034000Y-52860000D02*
X144535000Y-52860000D01*
D28*
X161804000Y-93514000D02*
X163020000Y-92298000D01*
D27*
X87255000Y-88307000D02*
X75100660Y-100461340D01*
D28*
X163020000Y-92298000D02*
X163020000Y-90200000D01*
D25*
X168188000Y-36525000D02*
X169043000Y-37380000D01*
D28*
%TO.N,Net-(C3-Pad1)*%
X110750000Y-83354000D02*
X109861000Y-82465000D01*
X112909000Y-83354000D02*
X110750000Y-83354000D01*
D29*
%TO.N,+5V*%
X82302000Y-81576000D02*
X73793000Y-81576000D01*
X71380000Y-135170000D02*
X73158000Y-136948000D01*
D27*
X163963000Y-125899000D02*
X163963000Y-130598000D01*
D29*
X92843000Y-71924000D02*
X92970000Y-72051000D01*
D27*
X123970000Y-138345000D02*
X124085000Y-138345000D01*
D29*
X71380000Y-83989000D02*
X71380000Y-135170000D01*
X73793000Y-81576000D02*
X71380000Y-83989000D01*
D26*
X192157000Y-119930000D02*
X191776000Y-119930000D01*
D27*
X120877107Y-135252107D02*
X120877107Y-134052562D01*
D29*
X83975000Y-79903000D02*
X82302000Y-81576000D01*
D27*
X99701000Y-69130000D02*
X108718000Y-69130000D01*
D29*
X83975000Y-76300000D02*
X83975000Y-79903000D01*
X87369000Y-71924000D02*
X92843000Y-71924000D01*
D27*
X108718000Y-69130000D02*
X110496000Y-67352000D01*
X110496000Y-67606000D02*
X110496000Y-52112000D01*
D26*
X185026107Y-85001893D02*
X188216893Y-85001893D01*
D27*
X122573000Y-136948000D02*
X123970000Y-138345000D01*
X122573000Y-136948000D02*
X120877107Y-135252107D01*
X189004107Y-122701893D02*
X184872669Y-122701893D01*
X110496000Y-52112000D02*
X111258000Y-51350000D01*
X163963000Y-130598000D02*
X160458438Y-134102562D01*
D29*
X85735000Y-70290000D02*
X87369000Y-71924000D01*
D26*
X188216893Y-85001893D02*
X188220000Y-85005000D01*
D29*
X73158000Y-136948000D02*
X100590000Y-136948000D01*
D27*
X160458438Y-134102562D02*
X157977107Y-134102562D01*
X191776000Y-119930000D02*
X189004107Y-122701893D01*
D28*
%TO.N,Net-(C21-Pad2)*%
X101987000Y-113961000D02*
X100590000Y-112564000D01*
X101987000Y-121454000D02*
X101987000Y-113961000D01*
X100590000Y-112564000D02*
X92462000Y-112564000D01*
%TO.N,/CS_LLS*%
X169297000Y-58843000D02*
X169695000Y-58445000D01*
X169991000Y-53634000D02*
X169991000Y-58149000D01*
X145875000Y-58575000D02*
X146143000Y-58843000D01*
X146143000Y-58843000D02*
X169297000Y-58843000D01*
X169991000Y-58149000D02*
X169695000Y-58445000D01*
D26*
%TO.N,/DI_LLS*%
X147653000Y-42700000D02*
X161597000Y-42700000D01*
X147145000Y-43208000D02*
X147653000Y-42700000D01*
X161597000Y-42700000D02*
X162371000Y-43474000D01*
X147145000Y-51717000D02*
X147145000Y-43208000D01*
%TO.N,/SCK_LLS*%
X149304000Y-51971000D02*
X150181000Y-51094000D01*
X150181000Y-51094000D02*
X162371000Y-51094000D01*
D28*
%TO.N,/Rx*%
X77702107Y-130712562D02*
X82134669Y-126280000D01*
X82134669Y-126280000D02*
X87890000Y-126280000D01*
X87890000Y-126280000D02*
X88144000Y-126280000D01*
D26*
%TO.N,/MVCU_HBT*%
X174377000Y-100753000D02*
X158629000Y-100753000D01*
X154819000Y-107738000D02*
X152025000Y-110532000D01*
X158629000Y-100753000D02*
X154819000Y-104563000D01*
X148282107Y-119743107D02*
X148282107Y-123926893D01*
X146437000Y-117898000D02*
X148282107Y-119743107D01*
X180433107Y-94696893D02*
X182186107Y-94696893D01*
X148282107Y-123926893D02*
X148282107Y-131262562D01*
X152025000Y-110532000D02*
X140214000Y-110532000D01*
X154819000Y-104563000D02*
X154819000Y-107738000D01*
X174377000Y-100753000D02*
X180433107Y-94696893D01*
X140341000Y-115993000D02*
X142246000Y-117898000D01*
X142246000Y-117898000D02*
X146437000Y-117898000D01*
%TO.N,/I2C3_SCL*%
X190083500Y-123908500D02*
X189905107Y-124086893D01*
X181236562Y-124883000D02*
X182032669Y-124086893D01*
X156592107Y-127808893D02*
X159518000Y-124883000D01*
X156592107Y-138361607D02*
X156592107Y-131262562D01*
X180523107Y-48886893D02*
X182705776Y-48886893D01*
D28*
X143135000Y-103928000D02*
X148977000Y-98086000D01*
D26*
X143770000Y-124121000D02*
X143135000Y-124756000D01*
X182186107Y-86386893D02*
X178438107Y-86386893D01*
D28*
X148977000Y-98086000D02*
X149358000Y-98086000D01*
D26*
X188204893Y-86386893D02*
X182186107Y-86386893D01*
D28*
X143135000Y-104182000D02*
X143135000Y-103928000D01*
D26*
X177806000Y-85781000D02*
X177806000Y-51604000D01*
X188347000Y-86529000D02*
X188204893Y-86386893D01*
X143135000Y-129074000D02*
X142500000Y-129709000D01*
X156592107Y-131262562D02*
X156592107Y-127808893D01*
X119492107Y-137667107D02*
X119492107Y-131212562D01*
X119925000Y-138100000D02*
X119492107Y-137667107D01*
X142500000Y-129709000D02*
X119894000Y-129709000D01*
X119894000Y-129709000D02*
X119492107Y-130110893D01*
X119492107Y-130110893D02*
X119492107Y-131212562D01*
X189905107Y-124086893D02*
X182032669Y-124086893D01*
X178425000Y-86400000D02*
X177806000Y-85781000D01*
X157425000Y-139194500D02*
X156592107Y-138361607D01*
X159518000Y-124883000D02*
X181236562Y-124883000D01*
X143135000Y-124756000D02*
X143135000Y-129074000D01*
X177806000Y-51604000D02*
X180523107Y-48886893D01*
%TO.N,/VCU1_HBT*%
X158121000Y-102785000D02*
X174377000Y-102785000D01*
X187347893Y-55811893D02*
X185545776Y-55811893D01*
X153549000Y-112056000D02*
X156216000Y-109389000D01*
X189363000Y-57827000D02*
X187347893Y-55811893D01*
X189363000Y-106849000D02*
X189363000Y-57827000D01*
X139819000Y-112056000D02*
X153549000Y-112056000D01*
X188220000Y-107992000D02*
X176409000Y-107992000D01*
X156216000Y-104690000D02*
X158121000Y-102785000D01*
X156216000Y-109389000D02*
X156216000Y-104690000D01*
X139200000Y-112675000D02*
X139819000Y-112056000D01*
X175393000Y-106976000D02*
X175393000Y-106214000D01*
X189363000Y-106849000D02*
X188220000Y-107992000D01*
X176409000Y-107992000D02*
X175393000Y-106976000D01*
%TO.N,/I2C_SDA*%
X141484000Y-127677000D02*
X140468000Y-128693000D01*
X119033000Y-139308000D02*
X118107107Y-138382107D01*
X152917000Y-139308000D02*
X153333000Y-139308000D01*
X154217000Y-139308000D02*
X152917000Y-139308000D01*
X118497000Y-128693000D02*
X118107107Y-129082893D01*
X180219000Y-51477000D02*
X181424107Y-50271893D01*
X155207107Y-138317893D02*
X154217000Y-139308000D01*
X178718000Y-140100000D02*
X179584000Y-139234000D01*
D28*
X146818000Y-98340000D02*
X145548000Y-98340000D01*
D26*
X188855000Y-134027000D02*
X188855000Y-126407000D01*
X141484000Y-124121000D02*
X141484000Y-127677000D01*
X155207107Y-134102562D02*
X155207107Y-138317893D01*
X188347000Y-88307000D02*
X187811893Y-87771893D01*
X180600000Y-134916000D02*
X187966000Y-134916000D01*
X188855000Y-126407000D02*
X187919893Y-125471893D01*
X152917000Y-139308000D02*
X119033000Y-139308000D01*
X118107107Y-138382107D02*
X118107107Y-134052562D01*
X187811893Y-87771893D02*
X185026107Y-87771893D01*
X187966000Y-134916000D02*
X188855000Y-134027000D01*
X140468000Y-128693000D02*
X118497000Y-128693000D01*
D28*
X145548000Y-98340000D02*
X140849000Y-103039000D01*
D26*
X180219000Y-78655000D02*
X180219000Y-51477000D01*
X187919893Y-125471893D02*
X184872669Y-125471893D01*
X179584000Y-135932000D02*
X180600000Y-134916000D01*
X154125000Y-140100000D02*
X178718000Y-140100000D01*
X153333000Y-139308000D02*
X154125000Y-140100000D01*
X118107107Y-129082893D02*
X118107107Y-134052562D01*
X179584000Y-139234000D02*
X179584000Y-135932000D01*
X181424107Y-50271893D02*
X185545776Y-50271893D01*
%TO.N,/VCU4_HBT*%
X135604500Y-119450000D02*
X137956000Y-119450000D01*
X140595000Y-122089000D02*
X145167000Y-122089000D01*
X146564000Y-123486000D02*
X146564000Y-133011000D01*
X137956000Y-119450000D02*
X140595000Y-122089000D01*
X145167000Y-122089000D02*
X146564000Y-123486000D01*
X146564000Y-133011000D02*
X147655562Y-134102562D01*
X147655562Y-134102562D02*
X149667107Y-134102562D01*
%TO.N,/VCU2_HBT*%
X157359000Y-111929000D02*
X157359000Y-105198000D01*
X157359000Y-105198000D02*
X158756000Y-103801000D01*
X180219000Y-106468000D02*
X187712000Y-106468000D01*
X188347000Y-105833000D02*
X188347000Y-95038000D01*
X138200000Y-114575000D02*
X138687000Y-114088000D01*
X186620893Y-93311893D02*
X185026107Y-93311893D01*
X187712000Y-106468000D02*
X188347000Y-105833000D01*
X188347000Y-95038000D02*
X186620893Y-93311893D01*
X158756000Y-103801000D02*
X177552000Y-103801000D01*
X138687000Y-114088000D02*
X155200000Y-114088000D01*
X177552000Y-103801000D02*
X180219000Y-106468000D01*
X155200000Y-114088000D02*
X157359000Y-111929000D01*
%TO.N,/VCU3_HBT*%
X174194000Y-127169000D02*
X180925000Y-133900000D01*
X184410000Y-133900000D02*
X184872669Y-133437331D01*
X171964000Y-127169000D02*
X174194000Y-127169000D01*
X180925000Y-133900000D02*
X184410000Y-133900000D01*
X142246000Y-120946000D02*
X145675000Y-120946000D01*
X184872669Y-133437331D02*
X184872669Y-131011893D01*
X138525000Y-117225000D02*
X142246000Y-120946000D01*
X137050000Y-117225000D02*
X138525000Y-117225000D01*
%TO.N,/SD_CS*%
X173488000Y-53949000D02*
X174018500Y-53418500D01*
X174704000Y-52733000D02*
X174018500Y-53418500D01*
X149485000Y-86529000D02*
X167265000Y-86529000D01*
X173488000Y-80306000D02*
X173488000Y-53949000D01*
X167265000Y-86529000D02*
X173488000Y-80306000D01*
%TO.N,/E1*%
X133102000Y-81703001D02*
X133102000Y-72432000D01*
X133549336Y-82150337D02*
X133102000Y-81703001D01*
X133102000Y-72432000D02*
X134626000Y-70908000D01*
D30*
%TO.N,/C13*%
X130054000Y-86910000D02*
X130054000Y-87418000D01*
X129419000Y-83100000D02*
X129419000Y-86275000D01*
X130054000Y-87418000D02*
X129927000Y-87545000D01*
X118243000Y-71924000D02*
X129419000Y-83100000D01*
X129419000Y-86275000D02*
X130054000Y-86910000D01*
X118243000Y-69638000D02*
X118243000Y-71924000D01*
%TO.N,/C14*%
X125345873Y-83871127D02*
X125345873Y-83471873D01*
X125345873Y-83471873D02*
X115322000Y-73448000D01*
X115322000Y-73448000D02*
X115322000Y-69765000D01*
D28*
%TO.N,/RSSI*%
X87255000Y-102404000D02*
X91954000Y-97705000D01*
X85100640Y-106648200D02*
X85100640Y-104558360D01*
X122711000Y-101261000D02*
X88398000Y-101261000D01*
X123675000Y-102225000D02*
X122711000Y-101261000D01*
X85100640Y-104558360D02*
X87255000Y-102404000D01*
X88398000Y-101261000D02*
X87255000Y-102404000D01*
D26*
%TO.N,/SD_MISO*%
X174885000Y-80814000D02*
X174885000Y-61764000D01*
X149875305Y-87164000D02*
X168535000Y-87164000D01*
X174885000Y-61764000D02*
X176790000Y-59859000D01*
X176790000Y-59859000D02*
X176790000Y-47140000D01*
X176790000Y-47140000D02*
X175664000Y-46014000D01*
X141611000Y-86910000D02*
X141955000Y-87254000D01*
X141955000Y-87254000D02*
X149785305Y-87254000D01*
X175664000Y-46014000D02*
X169991000Y-46014000D01*
X168535000Y-87164000D02*
X174885000Y-80814000D01*
X149785305Y-87254000D02*
X149875305Y-87164000D01*
D28*
%TO.N,/RST*%
X91319000Y-100245000D02*
X123577000Y-100245000D01*
X123577000Y-100245000D02*
X123831000Y-99991000D01*
X91192000Y-100118000D02*
X91319000Y-100245000D01*
%TO.N,/Xbee_Rx*%
X109988000Y-96816000D02*
X88933360Y-96816000D01*
X88933360Y-96816000D02*
X79101160Y-106648200D01*
D26*
%TO.N,/DAC_1*%
X117400500Y-96324500D02*
X114525000Y-99200000D01*
X119825000Y-96324500D02*
X117400500Y-96324500D01*
D28*
%TO.N,/ADC_in9*%
X121025000Y-116400000D02*
X121225000Y-116600000D01*
X121025000Y-102700000D02*
X121025000Y-116400000D01*
D26*
%TO.N,/display_d*%
X143968500Y-75027500D02*
X146105000Y-75027500D01*
X142119000Y-80431000D02*
X142119000Y-76877000D01*
X139275000Y-83275000D02*
X142119000Y-80431000D01*
X142119000Y-76877000D02*
X143968500Y-75027500D01*
%TO.N,/display_c*%
X141700000Y-82375000D02*
X142336000Y-82375000D01*
X142336000Y-82375000D02*
X144532000Y-80179000D01*
%TO.N,/display_b*%
X148088000Y-85767000D02*
X149993000Y-83862000D01*
X149993000Y-63034000D02*
X149286500Y-62327500D01*
X149286500Y-62327500D02*
X146105000Y-62327500D01*
X139134500Y-85830500D02*
X139198000Y-85767000D01*
X139198000Y-85767000D02*
X148088000Y-85767000D01*
X149993000Y-83862000D02*
X149993000Y-63034000D01*
D25*
%TO.N,Net-(U10-Pad9)*%
X155685500Y-62907000D02*
X158450943Y-62907000D01*
X160335000Y-62860000D02*
X161535000Y-64060000D01*
X158497943Y-62860000D02*
X160335000Y-62860000D01*
X153725000Y-64867500D02*
X155685500Y-62907000D01*
X158450943Y-62907000D02*
X158497943Y-62860000D01*
D26*
%TO.N,/display_a*%
X143897000Y-82338000D02*
X147072000Y-82338000D01*
X147762500Y-77567500D02*
X146105000Y-77567500D01*
X147072000Y-82338000D02*
X148215000Y-81195000D01*
X141484000Y-84751000D02*
X143897000Y-82338000D01*
X148215000Y-81195000D02*
X148215000Y-78020000D01*
X148215000Y-78020000D02*
X147762500Y-77567500D01*
%TO.N,/SWo*%
X136800000Y-85401000D02*
X143643000Y-92244000D01*
X159772000Y-92244000D02*
X160480000Y-91536000D01*
X160480000Y-91536000D02*
X160480000Y-90200000D01*
X136800000Y-84800000D02*
X136800000Y-85401000D01*
X143643000Y-92244000D02*
X159772000Y-92244000D01*
D29*
%TO.N,/mornsun_Vin*%
X82065000Y-70290000D02*
X81032000Y-69257000D01*
X96399000Y-59605000D02*
X96272000Y-59732000D01*
X92208000Y-47159000D02*
X92208000Y-59605000D01*
X82175000Y-64939000D02*
X91827000Y-64939000D01*
X83195000Y-70290000D02*
X82065000Y-70290000D01*
X92716000Y-64050000D02*
X92716000Y-60240000D01*
X92716000Y-60240000D02*
X92208000Y-59732000D01*
X96272000Y-59732000D02*
X92589000Y-59732000D01*
X81032000Y-69257000D02*
X81032000Y-66082000D01*
X92589000Y-59732000D02*
X92462000Y-59859000D01*
X81032000Y-66082000D02*
X82175000Y-64939000D01*
X91827000Y-64939000D02*
X92716000Y-64050000D01*
D30*
%TO.N,/CAN_N*%
X173350533Y-116574268D02*
X172926268Y-116574268D01*
X175656768Y-113843768D02*
X175656768Y-114268033D01*
X175656768Y-114268033D02*
X173350533Y-116574268D01*
%TD*%
M02*
