%TF.GenerationSoftware,KiCad,Pcbnew,6.0.11-2627ca5db0~126~ubuntu20.04.1*%
%TF.CreationDate,2023-05-10T16:13:11+05:30*%
%TF.ProjectId,MVCU_F407,4d564355-5f46-4343-9037-2e6b69636164,rev?*%
%TF.SameCoordinates,Original*%
%TF.FileFunction,Paste,Top*%
%TF.FilePolarity,Positive*%
%FSLAX46Y46*%
G04 Gerber Fmt 4.6, Leading zero omitted, Abs format (unit mm)*
G04 Created by KiCad (PCBNEW 6.0.11-2627ca5db0~126~ubuntu20.04.1) date 2023-05-10 16:13:11*
%MOMM*%
%LPD*%
G01*
G04 APERTURE LIST*
G04 Aperture macros list*
%AMRoundRect*
0 Rectangle with rounded corners*
0 $1 Rounding radius*
0 $2 $3 $4 $5 $6 $7 $8 $9 X,Y pos of 4 corners*
0 Add a 4 corners polygon primitive as box body*
4,1,4,$2,$3,$4,$5,$6,$7,$8,$9,$2,$3,0*
0 Add four circle primitives for the rounded corners*
1,1,$1+$1,$2,$3*
1,1,$1+$1,$4,$5*
1,1,$1+$1,$6,$7*
1,1,$1+$1,$8,$9*
0 Add four rect primitives between the rounded corners*
20,1,$1+$1,$2,$3,$4,$5,0*
20,1,$1+$1,$4,$5,$6,$7,0*
20,1,$1+$1,$6,$7,$8,$9,0*
20,1,$1+$1,$8,$9,$2,$3,0*%
%AMRotRect*
0 Rectangle, with rotation*
0 The origin of the aperture is its center*
0 $1 length*
0 $2 width*
0 $3 Rotation angle, in degrees counterclockwise*
0 Add horizontal line*
21,1,$1,$2,0,0,$3*%
%AMOutline5P*
0 Free polygon, 5 corners , with rotation*
0 The origin of the aperture is its center*
0 number of corners: always 5*
0 $1 to $10 corner X, Y*
0 $11 Rotation angle, in degrees counterclockwise*
0 create outline with 5 corners*
4,1,5,$1,$2,$3,$4,$5,$6,$7,$8,$9,$10,$1,$2,$11*%
%AMOutline6P*
0 Free polygon, 6 corners , with rotation*
0 The origin of the aperture is its center*
0 number of corners: always 6*
0 $1 to $12 corner X, Y*
0 $13 Rotation angle, in degrees counterclockwise*
0 create outline with 6 corners*
4,1,6,$1,$2,$3,$4,$5,$6,$7,$8,$9,$10,$11,$12,$1,$2,$13*%
%AMOutline7P*
0 Free polygon, 7 corners , with rotation*
0 The origin of the aperture is its center*
0 number of corners: always 7*
0 $1 to $14 corner X, Y*
0 $15 Rotation angle, in degrees counterclockwise*
0 create outline with 7 corners*
4,1,7,$1,$2,$3,$4,$5,$6,$7,$8,$9,$10,$11,$12,$13,$14,$1,$2,$15*%
%AMOutline8P*
0 Free polygon, 8 corners , with rotation*
0 The origin of the aperture is its center*
0 number of corners: always 8*
0 $1 to $16 corner X, Y*
0 $17 Rotation angle, in degrees counterclockwise*
0 create outline with 8 corners*
4,1,8,$1,$2,$3,$4,$5,$6,$7,$8,$9,$10,$11,$12,$13,$14,$15,$16,$1,$2,$17*%
G04 Aperture macros list end*
%ADD10RoundRect,0.250000X-0.450000X0.325000X-0.450000X-0.325000X0.450000X-0.325000X0.450000X0.325000X0*%
%ADD11RoundRect,0.250000X-0.450000X0.350000X-0.450000X-0.350000X0.450000X-0.350000X0.450000X0.350000X0*%
%ADD12RoundRect,0.250000X0.325000X0.450000X-0.325000X0.450000X-0.325000X-0.450000X0.325000X-0.450000X0*%
%ADD13RoundRect,0.250000X-0.070711X0.565685X-0.565685X0.070711X0.070711X-0.565685X0.565685X-0.070711X0*%
%ADD14RoundRect,0.250000X0.574524X0.097227X0.097227X0.574524X-0.574524X-0.097227X-0.097227X-0.574524X0*%
%ADD15RoundRect,0.250000X-0.350000X-0.450000X0.350000X-0.450000X0.350000X0.450000X-0.350000X0.450000X0*%
%ADD16RoundRect,0.250000X-0.325000X-0.450000X0.325000X-0.450000X0.325000X0.450000X-0.325000X0.450000X0*%
%ADD17RoundRect,0.250000X-0.097227X0.574524X-0.574524X0.097227X0.097227X-0.574524X0.574524X-0.097227X0*%
%ADD18RoundRect,0.250000X0.350000X0.450000X-0.350000X0.450000X-0.350000X-0.450000X0.350000X-0.450000X0*%
%ADD19RoundRect,0.250000X0.337500X0.475000X-0.337500X0.475000X-0.337500X-0.475000X0.337500X-0.475000X0*%
%ADD20RoundRect,0.250000X-0.337500X-0.475000X0.337500X-0.475000X0.337500X0.475000X-0.337500X0.475000X0*%
%ADD21R,2.000000X1.500000*%
%ADD22R,2.000000X3.800000*%
%ADD23R,1.600000X1.600000*%
%ADD24R,0.700000X1.200000*%
%ADD25R,1.000000X0.800000*%
%ADD26R,1.300000X1.900000*%
%ADD27R,1.000000X1.200000*%
%ADD28R,1.000000X2.800000*%
%ADD29RoundRect,0.250000X0.097227X-0.574524X0.574524X-0.097227X-0.097227X0.574524X-0.574524X0.097227X0*%
%ADD30RoundRect,0.250000X0.475000X-0.337500X0.475000X0.337500X-0.475000X0.337500X-0.475000X-0.337500X0*%
%ADD31RoundRect,0.250000X-0.574524X-0.097227X-0.097227X-0.574524X0.574524X0.097227X0.097227X0.574524X0*%
%ADD32RoundRect,0.250000X0.565685X0.070711X0.070711X0.565685X-0.565685X-0.070711X-0.070711X-0.565685X0*%
%ADD33Outline5P,-0.500000X0.450000X0.230000X0.450000X0.500000X0.180000X0.500000X-0.450000X-0.500000X-0.450000X225.000000*%
%ADD34RotRect,1.000000X0.900000X225.000000*%
%ADD35RoundRect,0.075000X-0.565685X0.459619X0.459619X-0.565685X0.565685X-0.459619X-0.459619X0.565685X0*%
%ADD36RoundRect,0.075000X-0.565685X-0.459619X-0.459619X-0.565685X0.565685X0.459619X0.459619X0.565685X0*%
%ADD37RoundRect,0.150000X-0.825000X-0.150000X0.825000X-0.150000X0.825000X0.150000X-0.825000X0.150000X0*%
%ADD38RoundRect,0.150000X0.825000X0.150000X-0.825000X0.150000X-0.825000X-0.150000X0.825000X-0.150000X0*%
%ADD39RoundRect,0.250000X0.450000X-0.350000X0.450000X0.350000X-0.450000X0.350000X-0.450000X-0.350000X0*%
G04 APERTURE END LIST*
D10*
%TO.C,D5*%
X127275000Y-61675000D03*
X127275000Y-63725000D03*
%TD*%
D11*
%TO.C,R17*%
X115275000Y-66200000D03*
X115275000Y-68200000D03*
%TD*%
D12*
%TO.C,D11*%
X95425000Y-77150000D03*
X93375000Y-77150000D03*
%TD*%
D13*
%TO.C,R1*%
X138508107Y-81757893D03*
X137093893Y-83172107D03*
%TD*%
D14*
%TO.C,C13*%
X124601139Y-80358353D03*
X123133893Y-78891107D03*
%TD*%
D15*
%TO.C,R5*%
X172671000Y-50919000D03*
X174671000Y-50919000D03*
%TD*%
D10*
%TO.C,D2*%
X136275000Y-61675000D03*
X136275000Y-63725000D03*
%TD*%
D11*
%TO.C,R12*%
X130275000Y-66200000D03*
X130275000Y-68200000D03*
%TD*%
D15*
%TO.C,R19*%
X93400000Y-74350000D03*
X95400000Y-74350000D03*
%TD*%
D16*
%TO.C,D13*%
X104509000Y-93985500D03*
X106559000Y-93985500D03*
%TD*%
D17*
%TO.C,C6*%
X129246406Y-106156754D03*
X127779160Y-107624000D03*
%TD*%
D18*
%TO.C,R22*%
X106534000Y-90985500D03*
X104534000Y-90985500D03*
%TD*%
D11*
%TO.C,R11*%
X133275000Y-66200000D03*
X133275000Y-68200000D03*
%TD*%
D19*
%TO.C,C26*%
X96512500Y-52950000D03*
X94437500Y-52950000D03*
%TD*%
D11*
%TO.C,R18*%
X112275000Y-66200000D03*
X112275000Y-68200000D03*
%TD*%
D20*
%TO.C,C19*%
X85074500Y-110200000D03*
X87149500Y-110200000D03*
%TD*%
D19*
%TO.C,C23*%
X96512500Y-58150000D03*
X94437500Y-58150000D03*
%TD*%
D20*
%TO.C,C25*%
X164701500Y-110399500D03*
X166776500Y-110399500D03*
%TD*%
D10*
%TO.C,D3*%
X133275000Y-61675000D03*
X133275000Y-63725000D03*
%TD*%
D14*
%TO.C,C10*%
X144161730Y-97541516D03*
X142694484Y-96074270D03*
%TD*%
%TO.C,C2*%
X126469623Y-78499623D03*
X125002377Y-77032377D03*
%TD*%
D18*
%TO.C,R4*%
X159771000Y-48719000D03*
X157771000Y-48719000D03*
%TD*%
%TO.C,R2*%
X159871000Y-41119000D03*
X157871000Y-41119000D03*
%TD*%
D10*
%TO.C,D6*%
X124275000Y-61675000D03*
X124275000Y-63725000D03*
%TD*%
D19*
%TO.C,C17*%
X96412500Y-67350000D03*
X94337500Y-67350000D03*
%TD*%
D21*
%TO.C,U6*%
X99625000Y-53250000D03*
X99625000Y-55550000D03*
D22*
X105925000Y-55550000D03*
D21*
X99625000Y-57850000D03*
%TD*%
D11*
%TO.C,R7*%
X148977000Y-93657000D03*
X148977000Y-95657000D03*
%TD*%
%TO.C,R13*%
X127275000Y-66200000D03*
X127275000Y-68200000D03*
%TD*%
D23*
%TO.C,U3*%
X94922107Y-115282893D03*
X92382107Y-115282893D03*
X89842107Y-115282893D03*
X87302107Y-115282893D03*
X84762107Y-115282893D03*
X82222107Y-115282893D03*
X79682107Y-115282893D03*
X77142107Y-115282893D03*
X77142107Y-122902893D03*
X79682107Y-122902893D03*
X82222107Y-122902893D03*
X84762107Y-122902893D03*
X87302107Y-122902893D03*
X89842107Y-122902893D03*
X92382107Y-122902893D03*
X94922107Y-122902893D03*
%TD*%
D24*
%TO.C,J3*%
X144926000Y-54509000D03*
X146026000Y-54509000D03*
X147126000Y-54509000D03*
X148226000Y-54509000D03*
X149326000Y-54509000D03*
X150426000Y-54509000D03*
X151526000Y-54509000D03*
X152626000Y-54509000D03*
X153576000Y-54509000D03*
D25*
X154526000Y-44009000D03*
D26*
X141026000Y-39409000D03*
D27*
X143376000Y-54509000D03*
X154526000Y-50209000D03*
D28*
X154526000Y-39859000D03*
%TD*%
D29*
%TO.C,C7*%
X126255160Y-106100000D03*
X127722406Y-104632754D03*
%TD*%
D19*
%TO.C,C18*%
X94269607Y-126392893D03*
X92194607Y-126392893D03*
%TD*%
D20*
%TO.C,C22*%
X80248500Y-110151000D03*
X82323500Y-110151000D03*
%TD*%
D11*
%TO.C,R16*%
X118275000Y-66200000D03*
X118275000Y-68200000D03*
%TD*%
D10*
%TO.C,D9*%
X115275000Y-61675000D03*
X115275000Y-63725000D03*
%TD*%
D20*
%TO.C,C16*%
X90535500Y-110278000D03*
X92610500Y-110278000D03*
%TD*%
D30*
%TO.C,C3*%
X109861000Y-77152500D03*
X109861000Y-75077500D03*
%TD*%
D21*
%TO.C,U4*%
X99675000Y-62500000D03*
X99675000Y-64800000D03*
D22*
X105975000Y-64800000D03*
D21*
X99675000Y-67100000D03*
%TD*%
D10*
%TO.C,D4*%
X130275000Y-61675000D03*
X130275000Y-63725000D03*
%TD*%
D31*
%TO.C,C8*%
X113291377Y-79766377D03*
X114758623Y-81233623D03*
%TD*%
D14*
%TO.C,C1*%
X122659623Y-82182623D03*
X121192377Y-80715377D03*
%TD*%
D17*
%TO.C,C14*%
X116358623Y-95666377D03*
X114891377Y-97133623D03*
%TD*%
D11*
%TO.C,R20*%
X169932000Y-113723000D03*
X169932000Y-115723000D03*
%TD*%
D30*
%TO.C,C21*%
X98812000Y-123613000D03*
X98812000Y-121538000D03*
%TD*%
D17*
%TO.C,C11*%
X118136623Y-97317377D03*
X116669377Y-98784623D03*
%TD*%
D10*
%TO.C,D1*%
X139275000Y-61675000D03*
X139275000Y-63725000D03*
%TD*%
D20*
%TO.C,C28*%
X75237500Y-110100000D03*
X77312500Y-110100000D03*
%TD*%
D31*
%TO.C,C5*%
X144218484Y-94423270D03*
X145685730Y-95890516D03*
%TD*%
D18*
%TO.C,R25*%
X121325000Y-118400000D03*
X119325000Y-118400000D03*
%TD*%
D16*
%TO.C,D12*%
X87975000Y-77200000D03*
X90025000Y-77200000D03*
%TD*%
D19*
%TO.C,C20*%
X96412500Y-62200000D03*
X94337500Y-62200000D03*
%TD*%
D32*
%TO.C,R3*%
X120728107Y-84188107D03*
X119313893Y-82773893D03*
%TD*%
D11*
%TO.C,R9*%
X139275000Y-66200000D03*
X139275000Y-68200000D03*
%TD*%
%TO.C,R14*%
X124275000Y-66200000D03*
X124275000Y-68200000D03*
%TD*%
D10*
%TO.C,D10*%
X112275000Y-61675000D03*
X112275000Y-63725000D03*
%TD*%
D11*
%TO.C,R8*%
X151644000Y-93657000D03*
X151644000Y-95657000D03*
%TD*%
D33*
%TO.C,Y1*%
X116513388Y-76880996D03*
D34*
X115240596Y-78153788D03*
X116336612Y-79249803D03*
X117609404Y-77969940D03*
%TD*%
D16*
%TO.C,D14*%
X104592786Y-87925714D03*
X106642786Y-87925714D03*
%TD*%
D35*
%TO.C,U2*%
X129347703Y-82923208D03*
X128994150Y-83276761D03*
X128640596Y-83630315D03*
X128287043Y-83983868D03*
X127933490Y-84337421D03*
X127579936Y-84690975D03*
X127226383Y-85044528D03*
X126872829Y-85398082D03*
X126519276Y-85751635D03*
X126165723Y-86105188D03*
X125812169Y-86458742D03*
X125458616Y-86812295D03*
X125105062Y-87165848D03*
X124751509Y-87519402D03*
X124397956Y-87872955D03*
X124044402Y-88226509D03*
X123690849Y-88580062D03*
X123337296Y-88933615D03*
X122983742Y-89287169D03*
X122630189Y-89640722D03*
X122276635Y-89994276D03*
X121923082Y-90347829D03*
X121569529Y-90701382D03*
X121215975Y-91054936D03*
X120862422Y-91408489D03*
D36*
X120862422Y-93777297D03*
X121215975Y-94130850D03*
X121569529Y-94484404D03*
X121923082Y-94837957D03*
X122276635Y-95191510D03*
X122630189Y-95545064D03*
X122983742Y-95898617D03*
X123337296Y-96252171D03*
X123690849Y-96605724D03*
X124044402Y-96959277D03*
X124397956Y-97312831D03*
X124751509Y-97666384D03*
X125105062Y-98019938D03*
X125458616Y-98373491D03*
X125812169Y-98727044D03*
X126165723Y-99080598D03*
X126519276Y-99434151D03*
X126872829Y-99787704D03*
X127226383Y-100141258D03*
X127579936Y-100494811D03*
X127933490Y-100848365D03*
X128287043Y-101201918D03*
X128640596Y-101555471D03*
X128994150Y-101909025D03*
X129347703Y-102262578D03*
D35*
X131716511Y-102262578D03*
X132070064Y-101909025D03*
X132423618Y-101555471D03*
X132777171Y-101201918D03*
X133130724Y-100848365D03*
X133484278Y-100494811D03*
X133837831Y-100141258D03*
X134191385Y-99787704D03*
X134544938Y-99434151D03*
X134898491Y-99080598D03*
X135252045Y-98727044D03*
X135605598Y-98373491D03*
X135959152Y-98019938D03*
X136312705Y-97666384D03*
X136666258Y-97312831D03*
X137019812Y-96959277D03*
X137373365Y-96605724D03*
X137726918Y-96252171D03*
X138080472Y-95898617D03*
X138434025Y-95545064D03*
X138787579Y-95191510D03*
X139141132Y-94837957D03*
X139494685Y-94484404D03*
X139848239Y-94130850D03*
X140201792Y-93777297D03*
D36*
X140201792Y-91408489D03*
X139848239Y-91054936D03*
X139494685Y-90701382D03*
X139141132Y-90347829D03*
X138787579Y-89994276D03*
X138434025Y-89640722D03*
X138080472Y-89287169D03*
X137726918Y-88933615D03*
X137373365Y-88580062D03*
X137019812Y-88226509D03*
X136666258Y-87872955D03*
X136312705Y-87519402D03*
X135959152Y-87165848D03*
X135605598Y-86812295D03*
X135252045Y-86458742D03*
X134898491Y-86105188D03*
X134544938Y-85751635D03*
X134191385Y-85398082D03*
X133837831Y-85044528D03*
X133484278Y-84690975D03*
X133130724Y-84337421D03*
X132777171Y-83983868D03*
X132423618Y-83630315D03*
X132070064Y-83276761D03*
X131716511Y-82923208D03*
%TD*%
D14*
%TO.C,C15*%
X116501516Y-88514730D03*
X115034270Y-87047484D03*
%TD*%
D11*
%TO.C,R15*%
X121275000Y-66200000D03*
X121275000Y-68200000D03*
%TD*%
D18*
%TO.C,R21*%
X90100000Y-74300000D03*
X88100000Y-74300000D03*
%TD*%
D14*
%TO.C,C9*%
X118505139Y-86581353D03*
X117037893Y-85114107D03*
%TD*%
D11*
%TO.C,R10*%
X136275000Y-66200000D03*
X136275000Y-68200000D03*
%TD*%
D37*
%TO.C,U5*%
X161488000Y-112818000D03*
X161488000Y-114088000D03*
X161488000Y-115358000D03*
X161488000Y-116628000D03*
X166438000Y-116628000D03*
X166438000Y-115358000D03*
X166438000Y-114088000D03*
X166438000Y-112818000D03*
%TD*%
D38*
%TO.C,U11*%
X129600000Y-122805000D03*
X129600000Y-121535000D03*
X129600000Y-120265000D03*
X129600000Y-118995000D03*
X124650000Y-118995000D03*
X124650000Y-120265000D03*
X124650000Y-121535000D03*
X124650000Y-122805000D03*
%TD*%
D29*
%TO.C,C12*%
X132541754Y-78725246D03*
X134009000Y-77258000D03*
%TD*%
D15*
%TO.C,R6*%
X172721000Y-48019000D03*
X174721000Y-48019000D03*
%TD*%
D19*
%TO.C,C30*%
X126462500Y-116400000D03*
X124387500Y-116400000D03*
%TD*%
D18*
%TO.C,R23*%
X106617786Y-84525714D03*
X104617786Y-84525714D03*
%TD*%
D39*
%TO.C,R24*%
X121325000Y-122800000D03*
X121325000Y-120800000D03*
%TD*%
D10*
%TO.C,D8*%
X118275000Y-61675000D03*
X118275000Y-63725000D03*
%TD*%
%TO.C,D7*%
X121275000Y-61675000D03*
X121275000Y-63725000D03*
%TD*%
D30*
%TO.C,C29*%
X132825000Y-122737500D03*
X132825000Y-120662500D03*
%TD*%
D29*
%TO.C,C4*%
X134273377Y-80531623D03*
X135740623Y-79064377D03*
%TD*%
M02*
