%TF.GenerationSoftware,KiCad,Pcbnew,6.0.11-2627ca5db0~126~ubuntu20.04.1*%
%TF.CreationDate,2023-05-10T16:13:10+05:30*%
%TF.ProjectId,MVCU_F407,4d564355-5f46-4343-9037-2e6b69636164,rev?*%
%TF.SameCoordinates,Original*%
%TF.FileFunction,Copper,L1,Top*%
%TF.FilePolarity,Positive*%
%FSLAX46Y46*%
G04 Gerber Fmt 4.6, Leading zero omitted, Abs format (unit mm)*
G04 Created by KiCad (PCBNEW 6.0.11-2627ca5db0~126~ubuntu20.04.1) date 2023-05-10 16:13:10*
%MOMM*%
%LPD*%
G01*
G04 APERTURE LIST*
G04 Aperture macros list*
%AMRoundRect*
0 Rectangle with rounded corners*
0 $1 Rounding radius*
0 $2 $3 $4 $5 $6 $7 $8 $9 X,Y pos of 4 corners*
0 Add a 4 corners polygon primitive as box body*
4,1,4,$2,$3,$4,$5,$6,$7,$8,$9,$2,$3,0*
0 Add four circle primitives for the rounded corners*
1,1,$1+$1,$2,$3*
1,1,$1+$1,$4,$5*
1,1,$1+$1,$6,$7*
1,1,$1+$1,$8,$9*
0 Add four rect primitives between the rounded corners*
20,1,$1+$1,$2,$3,$4,$5,0*
20,1,$1+$1,$4,$5,$6,$7,0*
20,1,$1+$1,$6,$7,$8,$9,0*
20,1,$1+$1,$8,$9,$2,$3,0*%
%AMHorizOval*
0 Thick line with rounded ends*
0 $1 width*
0 $2 $3 position (X,Y) of the first rounded end (center of the circle)*
0 $4 $5 position (X,Y) of the second rounded end (center of the circle)*
0 Add line between two ends*
20,1,$1,$2,$3,$4,$5,0*
0 Add two circle primitives to create the rounded ends*
1,1,$1,$2,$3*
1,1,$1,$4,$5*%
%AMRotRect*
0 Rectangle, with rotation*
0 The origin of the aperture is its center*
0 $1 length*
0 $2 width*
0 $3 Rotation angle, in degrees counterclockwise*
0 Add horizontal line*
21,1,$1,$2,0,0,$3*%
%AMOutline5P*
0 Free polygon, 5 corners , with rotation*
0 The origin of the aperture is its center*
0 number of corners: always 5*
0 $1 to $10 corner X, Y*
0 $11 Rotation angle, in degrees counterclockwise*
0 create outline with 5 corners*
4,1,5,$1,$2,$3,$4,$5,$6,$7,$8,$9,$10,$1,$2,$11*%
%AMOutline6P*
0 Free polygon, 6 corners , with rotation*
0 The origin of the aperture is its center*
0 number of corners: always 6*
0 $1 to $12 corner X, Y*
0 $13 Rotation angle, in degrees counterclockwise*
0 create outline with 6 corners*
4,1,6,$1,$2,$3,$4,$5,$6,$7,$8,$9,$10,$11,$12,$1,$2,$13*%
%AMOutline7P*
0 Free polygon, 7 corners , with rotation*
0 The origin of the aperture is its center*
0 number of corners: always 7*
0 $1 to $14 corner X, Y*
0 $15 Rotation angle, in degrees counterclockwise*
0 create outline with 7 corners*
4,1,7,$1,$2,$3,$4,$5,$6,$7,$8,$9,$10,$11,$12,$13,$14,$1,$2,$15*%
%AMOutline8P*
0 Free polygon, 8 corners , with rotation*
0 The origin of the aperture is its center*
0 number of corners: always 8*
0 $1 to $16 corner X, Y*
0 $17 Rotation angle, in degrees counterclockwise*
0 create outline with 8 corners*
4,1,8,$1,$2,$3,$4,$5,$6,$7,$8,$9,$10,$11,$12,$13,$14,$15,$16,$1,$2,$17*%
G04 Aperture macros list end*
%TA.AperFunction,SMDPad,CuDef*%
%ADD10RoundRect,0.250000X-0.450000X0.325000X-0.450000X-0.325000X0.450000X-0.325000X0.450000X0.325000X0*%
%TD*%
%TA.AperFunction,SMDPad,CuDef*%
%ADD11RoundRect,0.250000X-0.450000X0.350000X-0.450000X-0.350000X0.450000X-0.350000X0.450000X0.350000X0*%
%TD*%
%TA.AperFunction,SMDPad,CuDef*%
%ADD12RoundRect,0.250000X0.325000X0.450000X-0.325000X0.450000X-0.325000X-0.450000X0.325000X-0.450000X0*%
%TD*%
%TA.AperFunction,ComponentPad*%
%ADD13R,1.600000X1.600000*%
%TD*%
%TA.AperFunction,ComponentPad*%
%ADD14O,1.600000X1.600000*%
%TD*%
%TA.AperFunction,SMDPad,CuDef*%
%ADD15RoundRect,0.250000X-0.070711X0.565685X-0.565685X0.070711X0.070711X-0.565685X0.565685X-0.070711X0*%
%TD*%
%TA.AperFunction,SMDPad,CuDef*%
%ADD16RoundRect,0.250000X0.574524X0.097227X0.097227X0.574524X-0.574524X-0.097227X-0.097227X-0.574524X0*%
%TD*%
%TA.AperFunction,ComponentPad*%
%ADD17C,2.800000*%
%TD*%
%TA.AperFunction,SMDPad,CuDef*%
%ADD18RoundRect,0.250000X-0.350000X-0.450000X0.350000X-0.450000X0.350000X0.450000X-0.350000X0.450000X0*%
%TD*%
%TA.AperFunction,ComponentPad*%
%ADD19C,4.000000*%
%TD*%
%TA.AperFunction,ComponentPad*%
%ADD20C,1.600000*%
%TD*%
%TA.AperFunction,SMDPad,CuDef*%
%ADD21RoundRect,0.250000X-0.325000X-0.450000X0.325000X-0.450000X0.325000X0.450000X-0.325000X0.450000X0*%
%TD*%
%TA.AperFunction,SMDPad,CuDef*%
%ADD22RoundRect,0.250000X-0.097227X0.574524X-0.574524X0.097227X0.097227X-0.574524X0.574524X-0.097227X0*%
%TD*%
%TA.AperFunction,SMDPad,CuDef*%
%ADD23RoundRect,0.250000X0.350000X0.450000X-0.350000X0.450000X-0.350000X-0.450000X0.350000X-0.450000X0*%
%TD*%
%TA.AperFunction,ComponentPad*%
%ADD24C,1.524000*%
%TD*%
%TA.AperFunction,SMDPad,CuDef*%
%ADD25RoundRect,0.250000X0.337500X0.475000X-0.337500X0.475000X-0.337500X-0.475000X0.337500X-0.475000X0*%
%TD*%
%TA.AperFunction,SMDPad,CuDef*%
%ADD26RoundRect,0.250000X-0.337500X-0.475000X0.337500X-0.475000X0.337500X0.475000X-0.337500X0.475000X0*%
%TD*%
%TA.AperFunction,ComponentPad*%
%ADD27C,5.600000*%
%TD*%
%TA.AperFunction,ComponentPad*%
%ADD28R,1.700000X1.700000*%
%TD*%
%TA.AperFunction,ComponentPad*%
%ADD29O,1.700000X1.700000*%
%TD*%
%TA.AperFunction,SMDPad,CuDef*%
%ADD30R,2.000000X1.500000*%
%TD*%
%TA.AperFunction,SMDPad,CuDef*%
%ADD31R,2.000000X3.800000*%
%TD*%
%TA.AperFunction,SMDPad,CuDef*%
%ADD32R,1.600000X1.600000*%
%TD*%
%TA.AperFunction,SMDPad,CuDef*%
%ADD33R,0.700000X1.200000*%
%TD*%
%TA.AperFunction,SMDPad,CuDef*%
%ADD34R,1.000000X0.800000*%
%TD*%
%TA.AperFunction,SMDPad,CuDef*%
%ADD35R,1.300000X1.900000*%
%TD*%
%TA.AperFunction,SMDPad,CuDef*%
%ADD36R,1.000000X1.200000*%
%TD*%
%TA.AperFunction,SMDPad,CuDef*%
%ADD37R,1.000000X2.800000*%
%TD*%
%TA.AperFunction,SMDPad,CuDef*%
%ADD38RoundRect,0.250000X0.097227X-0.574524X0.574524X-0.097227X-0.097227X0.574524X-0.574524X0.097227X0*%
%TD*%
%TA.AperFunction,SMDPad,CuDef*%
%ADD39RoundRect,0.250000X0.475000X-0.337500X0.475000X0.337500X-0.475000X0.337500X-0.475000X-0.337500X0*%
%TD*%
%TA.AperFunction,ComponentPad*%
%ADD40RoundRect,0.250000X-0.750000X-1.550000X0.750000X-1.550000X0.750000X1.550000X-0.750000X1.550000X0*%
%TD*%
%TA.AperFunction,ComponentPad*%
%ADD41O,2.000000X3.600000*%
%TD*%
%TA.AperFunction,SMDPad,CuDef*%
%ADD42RoundRect,0.250000X-0.574524X-0.097227X-0.097227X-0.574524X0.574524X0.097227X0.097227X0.574524X0*%
%TD*%
%TA.AperFunction,SMDPad,CuDef*%
%ADD43RoundRect,0.250000X0.565685X0.070711X0.070711X0.565685X-0.565685X-0.070711X-0.070711X-0.565685X0*%
%TD*%
%TA.AperFunction,SMDPad,CuDef*%
%ADD44Outline5P,-0.500000X0.450000X0.230000X0.450000X0.500000X0.180000X0.500000X-0.450000X-0.500000X-0.450000X225.000000*%
%TD*%
%TA.AperFunction,SMDPad,CuDef*%
%ADD45RotRect,1.000000X0.900000X225.000000*%
%TD*%
%TA.AperFunction,SMDPad,CuDef*%
%ADD46RoundRect,0.075000X-0.565685X0.459619X0.459619X-0.565685X0.565685X-0.459619X-0.459619X0.565685X0*%
%TD*%
%TA.AperFunction,SMDPad,CuDef*%
%ADD47RoundRect,0.075000X-0.565685X-0.459619X-0.459619X-0.565685X0.565685X0.459619X0.459619X0.565685X0*%
%TD*%
%TA.AperFunction,ComponentPad*%
%ADD48C,2.000000*%
%TD*%
%TA.AperFunction,ComponentPad*%
%ADD49RotRect,1.700000X1.700000X225.000000*%
%TD*%
%TA.AperFunction,ComponentPad*%
%ADD50HorizOval,1.700000X0.000000X0.000000X0.000000X0.000000X0*%
%TD*%
%TA.AperFunction,SMDPad,CuDef*%
%ADD51RoundRect,0.150000X-0.825000X-0.150000X0.825000X-0.150000X0.825000X0.150000X-0.825000X0.150000X0*%
%TD*%
%TA.AperFunction,SMDPad,CuDef*%
%ADD52RoundRect,0.150000X0.825000X0.150000X-0.825000X0.150000X-0.825000X-0.150000X0.825000X-0.150000X0*%
%TD*%
%TA.AperFunction,SMDPad,CuDef*%
%ADD53RoundRect,0.250000X0.450000X-0.350000X0.450000X0.350000X-0.450000X0.350000X-0.450000X-0.350000X0*%
%TD*%
%TA.AperFunction,ViaPad*%
%ADD54C,0.800000*%
%TD*%
%TA.AperFunction,Conductor*%
%ADD55C,0.300000*%
%TD*%
%TA.AperFunction,Conductor*%
%ADD56C,0.500000*%
%TD*%
%TA.AperFunction,Conductor*%
%ADD57C,0.400000*%
%TD*%
%TA.AperFunction,Conductor*%
%ADD58C,0.250000*%
%TD*%
%TA.AperFunction,Conductor*%
%ADD59C,0.700000*%
%TD*%
%TA.AperFunction,Conductor*%
%ADD60C,0.200000*%
%TD*%
G04 APERTURE END LIST*
D10*
%TO.P,D5,1,K*%
%TO.N,GND*%
X127275000Y-61675000D03*
%TO.P,D5,2,A*%
%TO.N,Net-(D5-Pad2)*%
X127275000Y-63725000D03*
%TD*%
D11*
%TO.P,R17,1*%
%TO.N,Net-(D9-Pad2)*%
X115275000Y-66200000D03*
%TO.P,R17,2*%
%TO.N,/C14*%
X115275000Y-68200000D03*
%TD*%
D12*
%TO.P,D11,1,K*%
%TO.N,GND*%
X95425000Y-77150000D03*
%TO.P,D11,2,A*%
%TO.N,Net-(D11-Pad2)*%
X93375000Y-77150000D03*
%TD*%
D13*
%TO.P,U1,1*%
%TO.N,GND*%
X162371000Y-38394000D03*
D14*
%TO.P,U1,2*%
%TO.N,Net-(R2-Pad1)*%
X162371000Y-40934000D03*
%TO.P,U1,3*%
%TO.N,/DI_LLS*%
X162371000Y-43474000D03*
%TO.P,U1,4*%
%TO.N,GND*%
X162371000Y-46014000D03*
%TO.P,U1,5*%
%TO.N,Net-(R4-Pad1)*%
X162371000Y-48554000D03*
%TO.P,U1,6*%
%TO.N,/SCK_LLS*%
X162371000Y-51094000D03*
%TO.P,U1,7,GND*%
%TO.N,GND*%
X162371000Y-53634000D03*
%TO.P,U1,8*%
%TO.N,/CS_LLS*%
X169991000Y-53634000D03*
%TO.P,U1,9*%
%TO.N,Net-(R5-Pad1)*%
X169991000Y-51094000D03*
%TO.P,U1,10*%
%TO.N,GND*%
X169991000Y-48554000D03*
%TO.P,U1,11*%
%TO.N,/SD_MISO*%
X169991000Y-46014000D03*
%TO.P,U1,12*%
%TO.N,Net-(R6-Pad1)*%
X169991000Y-43474000D03*
%TO.P,U1,13*%
%TO.N,GND*%
X169991000Y-40934000D03*
%TO.P,U1,14,VCC*%
%TO.N,+3.3V*%
X169991000Y-38394000D03*
%TD*%
D15*
%TO.P,R1,1*%
%TO.N,Net-(J1-Pad2)*%
X138508107Y-81757893D03*
%TO.P,R1,2*%
%TO.N,/BOOT0*%
X137093893Y-83172107D03*
%TD*%
D16*
%TO.P,C13,1*%
%TO.N,+3.3V*%
X124601139Y-80358353D03*
%TO.P,C13,2*%
%TO.N,GND*%
X123133893Y-78891107D03*
%TD*%
D17*
%TO.P,+Vin,1,1*%
%TO.N,/mornsun_Vin*%
X130054000Y-51223000D03*
%TD*%
D18*
%TO.P,R5,1*%
%TO.N,Net-(R5-Pad1)*%
X172671000Y-50919000D03*
%TO.P,R5,2*%
%TO.N,/SD_CS*%
X174671000Y-50919000D03*
%TD*%
D17*
%TO.P,-Vin,1,1*%
%TO.N,/mornsun_minus*%
X125355000Y-51350000D03*
%TD*%
D10*
%TO.P,D2,1,K*%
%TO.N,GND*%
X136275000Y-61675000D03*
%TO.P,D2,2,A*%
%TO.N,Net-(D2-Pad2)*%
X136275000Y-63725000D03*
%TD*%
D19*
%TO.P,J6,0,PAD*%
%TO.N,GND*%
X183606107Y-76656893D03*
X183606107Y-101656893D03*
D13*
%TO.P,J6,1,1*%
%TO.N,/MVCU_HBT*%
X182186107Y-94696893D03*
D20*
%TO.P,J6,2,2*%
%TO.N,/CAN_N*%
X182186107Y-91926893D03*
%TO.P,J6,3,3*%
%TO.N,GND*%
X182186107Y-89156893D03*
%TO.P,J6,4,4*%
%TO.N,/I2C3_SCL*%
X182186107Y-86386893D03*
%TO.P,J6,5,5*%
%TO.N,GND*%
X182186107Y-83616893D03*
%TO.P,J6,6,6*%
%TO.N,/VCU2_HBT*%
X185026107Y-93311893D03*
%TO.P,J6,7,7*%
%TO.N,/CAN_P*%
X185026107Y-90541893D03*
%TO.P,J6,8,8*%
%TO.N,/I2C_SDA*%
X185026107Y-87771893D03*
%TO.P,J6,9,9*%
%TO.N,+5V*%
X185026107Y-85001893D03*
%TD*%
D11*
%TO.P,R12,1*%
%TO.N,Net-(D4-Pad2)*%
X130275000Y-66200000D03*
%TO.P,R12,2*%
%TO.N,/E3*%
X130275000Y-68200000D03*
%TD*%
D18*
%TO.P,R19,1*%
%TO.N,Net-(D11-Pad2)*%
X93400000Y-74350000D03*
%TO.P,R19,2*%
%TO.N,+3.3V*%
X95400000Y-74350000D03*
%TD*%
D21*
%TO.P,D13,1,K*%
%TO.N,GND*%
X104509000Y-93985500D03*
%TO.P,D13,2,A*%
%TO.N,Net-(D13-Pad2)*%
X106559000Y-93985500D03*
%TD*%
D22*
%TO.P,C6,1*%
%TO.N,+3.3V*%
X129246406Y-106156754D03*
%TO.P,C6,2*%
%TO.N,GND*%
X127779160Y-107624000D03*
%TD*%
D23*
%TO.P,R22,1*%
%TO.N,Net-(D13-Pad2)*%
X106534000Y-90985500D03*
%TO.P,R22,2*%
%TO.N,/RSSI*%
X104534000Y-90985500D03*
%TD*%
D24*
%TO.P,U9,1,1*%
%TO.N,+3.3V*%
X75100660Y-106648200D03*
%TO.P,U9,2,2*%
%TO.N,/Xbee_Tx*%
X77102180Y-106648200D03*
%TO.P,U9,3,3*%
%TO.N,/Xbee_Rx*%
X79101160Y-106648200D03*
%TO.P,U9,4,4*%
%TO.N,unconnected-(U9-Pad4)*%
X81102680Y-106648200D03*
%TO.P,U9,5,5*%
%TO.N,/RST*%
X83101660Y-106648200D03*
%TO.P,U9,6,6*%
%TO.N,/RSSI*%
X85100640Y-106648200D03*
%TO.P,U9,7,7*%
%TO.N,unconnected-(U9-Pad7)*%
X87102160Y-106648200D03*
%TO.P,U9,8,8*%
%TO.N,unconnected-(U9-Pad8)*%
X89101140Y-106648200D03*
%TO.P,U9,9,9*%
%TO.N,unconnected-(U9-Pad9)*%
X91102660Y-106648200D03*
%TO.P,U9,10,10*%
%TO.N,GND*%
X93101640Y-106648200D03*
%TO.P,U9,11,11*%
%TO.N,unconnected-(U9-Pad11)*%
X93101640Y-84651800D03*
%TO.P,U9,12,12*%
%TO.N,unconnected-(U9-Pad12)*%
X91102660Y-84651800D03*
%TO.P,U9,13,13*%
%TO.N,unconnected-(U9-Pad13)*%
X89101140Y-84651800D03*
%TO.P,U9,14,14*%
%TO.N,unconnected-(U9-Pad14)*%
X87102160Y-84651800D03*
%TO.P,U9,15,15*%
%TO.N,Net-(R23-Pad2)*%
X85100640Y-84651800D03*
%TO.P,U9,16,16*%
%TO.N,unconnected-(U9-Pad16)*%
X83101660Y-84651800D03*
%TO.P,U9,17,17*%
%TO.N,unconnected-(U9-Pad17)*%
X81102680Y-84651800D03*
%TO.P,U9,18,18*%
%TO.N,unconnected-(U9-Pad18)*%
X79101160Y-84651800D03*
%TO.P,U9,19,19*%
%TO.N,unconnected-(U9-Pad19)*%
X77102180Y-84651800D03*
%TO.P,U9,20,20*%
%TO.N,unconnected-(U9-Pad20)*%
X75100660Y-84651800D03*
%TD*%
D11*
%TO.P,R11,1*%
%TO.N,Net-(D3-Pad2)*%
X133275000Y-66200000D03*
%TO.P,R11,2*%
%TO.N,/E2*%
X133275000Y-68200000D03*
%TD*%
D13*
%TO.P,U10,1,E*%
%TO.N,Net-(U10-Pad1)*%
X158995000Y-79300000D03*
D20*
%TO.P,U10,2,D*%
%TO.N,Net-(U10-Pad2)*%
X161535000Y-79300000D03*
%TO.P,U10,3,CC*%
%TO.N,GND*%
X164075000Y-79300000D03*
%TO.P,U10,4,C*%
%TO.N,Net-(U10-Pad4)*%
X166615000Y-79300000D03*
%TO.P,U10,5,DP*%
%TO.N,unconnected-(U10-Pad5)*%
X169155000Y-79300000D03*
%TO.P,U10,6,B*%
%TO.N,Net-(U10-Pad6)*%
X169155000Y-64060000D03*
%TO.P,U10,7,A*%
%TO.N,Net-(U10-Pad7)*%
X166615000Y-64060000D03*
%TO.P,U10,8,CC*%
%TO.N,GND*%
X164075000Y-64060000D03*
%TO.P,U10,9,F*%
%TO.N,Net-(U10-Pad9)*%
X161535000Y-64060000D03*
%TO.P,U10,10,G*%
%TO.N,Net-(U10-Pad10)*%
X158995000Y-64060000D03*
%TD*%
D25*
%TO.P,C26,1*%
%TO.N,Net-(C26-Pad1)*%
X96512500Y-52950000D03*
%TO.P,C26,2*%
%TO.N,GND*%
X94437500Y-52950000D03*
%TD*%
D11*
%TO.P,R18,1*%
%TO.N,Net-(D10-Pad2)*%
X112275000Y-66200000D03*
%TO.P,R18,2*%
%TO.N,/C15*%
X112275000Y-68200000D03*
%TD*%
D26*
%TO.P,C19,1*%
%TO.N,Net-(C19-Pad1)*%
X85074500Y-110200000D03*
%TO.P,C19,2*%
%TO.N,Net-(C19-Pad2)*%
X87149500Y-110200000D03*
%TD*%
D25*
%TO.P,C23,1*%
%TO.N,/mornsun_Vin*%
X96512500Y-58150000D03*
%TO.P,C23,2*%
%TO.N,GND*%
X94437500Y-58150000D03*
%TD*%
D26*
%TO.P,C25,1*%
%TO.N,+5V*%
X164701500Y-110399500D03*
%TO.P,C25,2*%
%TO.N,GND*%
X166776500Y-110399500D03*
%TD*%
D10*
%TO.P,D3,1,K*%
%TO.N,GND*%
X133275000Y-61675000D03*
%TO.P,D3,2,A*%
%TO.N,Net-(D3-Pad2)*%
X133275000Y-63725000D03*
%TD*%
D27*
%TO.P,H4,1,1*%
%TO.N,GND*%
X176155000Y-41444000D03*
%TD*%
D16*
%TO.P,C10,1*%
%TO.N,GND*%
X144161730Y-97541516D03*
%TO.P,C10,2*%
%TO.N,Net-(C10-Pad2)*%
X142694484Y-96074270D03*
%TD*%
D27*
%TO.P,H2,1,1*%
%TO.N,GND*%
X66932107Y-118792893D03*
%TD*%
D16*
%TO.P,C2,1*%
%TO.N,+3.3V*%
X126469623Y-78499623D03*
%TO.P,C2,2*%
%TO.N,GND*%
X125002377Y-77032377D03*
%TD*%
D23*
%TO.P,R4,1*%
%TO.N,Net-(R4-Pad1)*%
X159771000Y-48719000D03*
%TO.P,R4,2*%
%TO.N,/SD_SCK*%
X157771000Y-48719000D03*
%TD*%
%TO.P,R2,1*%
%TO.N,Net-(R2-Pad1)*%
X159871000Y-41119000D03*
%TO.P,R2,2*%
%TO.N,/SD_MOSI*%
X157871000Y-41119000D03*
%TD*%
D28*
%TO.P,J2,1,Pin_1*%
%TO.N,/ADC_in6*%
X114425000Y-103525000D03*
D29*
%TO.P,J2,2,Pin_2*%
%TO.N,/ADC_in7*%
X114425000Y-106065000D03*
%TO.P,J2,3,Pin_3*%
%TO.N,/ADC_in14*%
X114425000Y-108605000D03*
%TO.P,J2,4,Pin_4*%
%TO.N,/ADC_in15*%
X114425000Y-111145000D03*
%TO.P,J2,5,Pin_5*%
%TO.N,/ADC_in8*%
X114425000Y-113685000D03*
%TD*%
D19*
%TO.P,J7,0,PAD*%
%TO.N,GND*%
X104222107Y-132632562D03*
X129222107Y-132632562D03*
D13*
%TO.P,J7,1,1*%
%TO.N,/MVCU_HBT*%
X111182107Y-131212562D03*
D20*
%TO.P,J7,2,2*%
%TO.N,/CAN_N*%
X113952107Y-131212562D03*
%TO.P,J7,3,3*%
%TO.N,GND*%
X116722107Y-131212562D03*
%TO.P,J7,4,4*%
%TO.N,/I2C3_SCL*%
X119492107Y-131212562D03*
%TO.P,J7,5,5*%
%TO.N,GND*%
X122262107Y-131212562D03*
%TO.P,J7,6,6*%
%TO.N,/VCU5_HBT*%
X112567107Y-134052562D03*
%TO.P,J7,7,7*%
%TO.N,/CAN_P*%
X115337107Y-134052562D03*
%TO.P,J7,8,8*%
%TO.N,/I2C_SDA*%
X118107107Y-134052562D03*
%TO.P,J7,9,9*%
%TO.N,+5V*%
X120877107Y-134052562D03*
%TD*%
D10*
%TO.P,D6,1,K*%
%TO.N,GND*%
X124275000Y-61675000D03*
%TO.P,D6,2,A*%
%TO.N,Net-(D6-Pad2)*%
X124275000Y-63725000D03*
%TD*%
D25*
%TO.P,C17,1*%
%TO.N,+5V*%
X96412500Y-67350000D03*
%TO.P,C17,2*%
%TO.N,GND*%
X94337500Y-67350000D03*
%TD*%
D30*
%TO.P,U6,1,GND*%
%TO.N,GND*%
X99625000Y-53250000D03*
%TO.P,U6,2,VO*%
%TO.N,Net-(C26-Pad1)*%
X99625000Y-55550000D03*
D31*
X105925000Y-55550000D03*
D30*
%TO.P,U6,3,VI*%
%TO.N,/mornsun_Vin*%
X99625000Y-57850000D03*
%TD*%
D11*
%TO.P,R7,1*%
%TO.N,+3.3V*%
X148977000Y-93657000D03*
%TO.P,R7,2*%
%TO.N,/I2C_SDA*%
X148977000Y-95657000D03*
%TD*%
%TO.P,R13,1*%
%TO.N,Net-(D5-Pad2)*%
X127275000Y-66200000D03*
%TO.P,R13,2*%
%TO.N,/E4*%
X127275000Y-68200000D03*
%TD*%
D19*
%TO.P,J11,0,PAD*%
%TO.N,GND*%
X184125776Y-39156893D03*
X184125776Y-64156893D03*
D13*
%TO.P,J11,1,1*%
%TO.N,/MVCU_HBT*%
X182705776Y-57196893D03*
D20*
%TO.P,J11,2,2*%
%TO.N,/CAN_N*%
X182705776Y-54426893D03*
%TO.P,J11,3,3*%
%TO.N,GND*%
X182705776Y-51656893D03*
%TO.P,J11,4,4*%
%TO.N,/I2C3_SCL*%
X182705776Y-48886893D03*
%TO.P,J11,5,5*%
%TO.N,GND*%
X182705776Y-46116893D03*
%TO.P,J11,6,6*%
%TO.N,/VCU1_HBT*%
X185545776Y-55811893D03*
%TO.P,J11,7,7*%
%TO.N,/CAN_P*%
X185545776Y-53041893D03*
%TO.P,J11,8,8*%
%TO.N,/I2C_SDA*%
X185545776Y-50271893D03*
%TO.P,J11,9,9*%
%TO.N,+5V*%
X185545776Y-47501893D03*
%TD*%
D28*
%TO.P,J20,1,Pin_1*%
%TO.N,/CAN_Rx*%
X161677000Y-120565000D03*
%TD*%
%TO.P,J13,1,Pin_1*%
%TO.N,/SWDIO*%
X155400000Y-90200000D03*
D29*
%TO.P,J13,2,Pin_2*%
%TO.N,/SWCLK*%
X157940000Y-90200000D03*
%TO.P,J13,3,Pin_3*%
%TO.N,/SWo*%
X160480000Y-90200000D03*
%TO.P,J13,4,Pin_4*%
%TO.N,+3.3V*%
X163020000Y-90200000D03*
%TO.P,J13,5,Pin_5*%
%TO.N,GND*%
X165560000Y-90200000D03*
%TD*%
D32*
%TO.P,U3,1,C1+*%
%TO.N,Net-(C16-Pad2)*%
X94922107Y-115282893D03*
%TO.P,U3,2,VS+*%
%TO.N,Net-(C21-Pad2)*%
X92382107Y-115282893D03*
%TO.P,U3,3,C1-*%
%TO.N,Net-(C16-Pad1)*%
X89842107Y-115282893D03*
%TO.P,U3,4,C2+*%
%TO.N,Net-(C19-Pad2)*%
X87302107Y-115282893D03*
%TO.P,U3,5,C2-*%
%TO.N,Net-(C19-Pad1)*%
X84762107Y-115282893D03*
%TO.P,U3,6,VS-*%
%TO.N,Net-(C22-Pad2)*%
X82222107Y-115282893D03*
%TO.P,U3,7,T2OUT*%
%TO.N,unconnected-(U3-Pad7)*%
X79682107Y-115282893D03*
%TO.P,U3,8,R2IN*%
%TO.N,unconnected-(U3-Pad8)*%
X77142107Y-115282893D03*
%TO.P,U3,9,R2OUT*%
%TO.N,unconnected-(U3-Pad9)*%
X77142107Y-122902893D03*
%TO.P,U3,10,T2IN*%
%TO.N,unconnected-(U3-Pad10)*%
X79682107Y-122902893D03*
%TO.P,U3,11,T1IN*%
%TO.N,/IMU_Tx*%
X82222107Y-122902893D03*
%TO.P,U3,12,R1OUT*%
%TO.N,/IMU_Rx*%
X84762107Y-122902893D03*
%TO.P,U3,13,R1IN*%
%TO.N,/Tx*%
X87302107Y-122902893D03*
%TO.P,U3,14,T1OUT*%
%TO.N,/Rx*%
X89842107Y-122902893D03*
%TO.P,U3,15,GND*%
%TO.N,GND*%
X92382107Y-122902893D03*
%TO.P,U3,16,VCC*%
%TO.N,+5V*%
X94922107Y-122902893D03*
%TD*%
D28*
%TO.P,J16,1,Pin_1*%
%TO.N,GND*%
X127768000Y-41459000D03*
D29*
%TO.P,J16,2,Pin_2*%
%TO.N,/mornsun_minus*%
X127768000Y-43999000D03*
%TO.P,J16,3,Pin_3*%
%TO.N,unconnected-(J16-Pad3)*%
X127768000Y-46539000D03*
%TD*%
D28*
%TO.P,J10,1,Pin_1*%
%TO.N,/USART2_Tx*%
X104625000Y-105500000D03*
D29*
%TO.P,J10,2,Pin_2*%
%TO.N,/USART2_Rx*%
X104625000Y-108040000D03*
%TO.P,J10,3,Pin_3*%
%TO.N,/gpio*%
X104625000Y-110580000D03*
%TO.P,J10,4,Pin_4*%
%TO.N,GND*%
X104625000Y-113120000D03*
%TD*%
D33*
%TO.P,J3,1,DAT2*%
%TO.N,unconnected-(J3-Pad1)*%
X144926000Y-54509000D03*
%TO.P,J3,2,DAT3/CD*%
%TO.N,/CS_LLS*%
X146026000Y-54509000D03*
%TO.P,J3,3,CMD*%
%TO.N,/DI_LLS*%
X147126000Y-54509000D03*
%TO.P,J3,4,VDD*%
%TO.N,+3.3V*%
X148226000Y-54509000D03*
%TO.P,J3,5,CLK*%
%TO.N,/SCK_LLS*%
X149326000Y-54509000D03*
%TO.P,J3,6,VSS*%
%TO.N,GND*%
X150426000Y-54509000D03*
%TO.P,J3,7,DAT0*%
%TO.N,/DO_LLS*%
X151526000Y-54509000D03*
%TO.P,J3,8,DAT1*%
%TO.N,unconnected-(J3-Pad8)*%
X152626000Y-54509000D03*
%TO.P,J3,9,DET_B*%
%TO.N,unconnected-(J3-Pad9)*%
X153576000Y-54509000D03*
D34*
%TO.P,J3,10,DET_A*%
%TO.N,unconnected-(J3-Pad10)*%
X154526000Y-44009000D03*
D35*
%TO.P,J3,11,SHIELD*%
%TO.N,GND*%
X141026000Y-39409000D03*
D36*
X143376000Y-54509000D03*
X154526000Y-50209000D03*
D37*
X154526000Y-39859000D03*
%TD*%
D38*
%TO.P,C7,1*%
%TO.N,GND*%
X126255160Y-106100000D03*
%TO.P,C7,2*%
%TO.N,Net-(C7-Pad2)*%
X127722406Y-104632754D03*
%TD*%
D19*
%TO.P,J12,0,PAD*%
%TO.N,GND*%
X183452669Y-139356893D03*
X183452669Y-114356893D03*
D13*
%TO.P,J12,1,1*%
%TO.N,/MVCU_HBT*%
X182032669Y-132396893D03*
D20*
%TO.P,J12,2,2*%
%TO.N,/CAN_N*%
X182032669Y-129626893D03*
%TO.P,J12,3,3*%
%TO.N,GND*%
X182032669Y-126856893D03*
%TO.P,J12,4,4*%
%TO.N,/I2C3_SCL*%
X182032669Y-124086893D03*
%TO.P,J12,5,5*%
%TO.N,GND*%
X182032669Y-121316893D03*
%TO.P,J12,6,6*%
%TO.N,/VCU3_HBT*%
X184872669Y-131011893D03*
%TO.P,J12,7,7*%
%TO.N,/CAN_P*%
X184872669Y-128241893D03*
%TO.P,J12,8,8*%
%TO.N,/I2C_SDA*%
X184872669Y-125471893D03*
%TO.P,J12,9,9*%
%TO.N,+5V*%
X184872669Y-122701893D03*
%TD*%
D25*
%TO.P,C18,1*%
%TO.N,+5V*%
X94269607Y-126392893D03*
%TO.P,C18,2*%
%TO.N,GND*%
X92194607Y-126392893D03*
%TD*%
D26*
%TO.P,C22,1*%
%TO.N,GND*%
X80248500Y-110151000D03*
%TO.P,C22,2*%
%TO.N,Net-(C22-Pad2)*%
X82323500Y-110151000D03*
%TD*%
D28*
%TO.P,J21,1,Pin_1*%
%TO.N,/CAN_P*%
X166657000Y-107455000D03*
%TD*%
D11*
%TO.P,R16,1*%
%TO.N,Net-(D8-Pad2)*%
X118275000Y-66200000D03*
%TO.P,R16,2*%
%TO.N,/C13*%
X118275000Y-68200000D03*
%TD*%
D10*
%TO.P,D9,1,K*%
%TO.N,GND*%
X115275000Y-61675000D03*
%TO.P,D9,2,A*%
%TO.N,Net-(D9-Pad2)*%
X115275000Y-63725000D03*
%TD*%
D26*
%TO.P,C16,1*%
%TO.N,Net-(C16-Pad1)*%
X90535500Y-110278000D03*
%TO.P,C16,2*%
%TO.N,Net-(C16-Pad2)*%
X92610500Y-110278000D03*
%TD*%
D13*
%TO.P,U8,1,B*%
%TO.N,/display_b*%
X146105000Y-62327500D03*
D14*
%TO.P,U8,2,C*%
%TO.N,/display_c*%
X146105000Y-64867500D03*
%TO.P,U8,3,LT*%
%TO.N,Net-(J9-Pad2)*%
X146105000Y-67407500D03*
%TO.P,U8,4,BI*%
%TO.N,Net-(J9-Pad4)*%
X146105000Y-69947500D03*
%TO.P,U8,5,RBI*%
%TO.N,Net-(J9-Pad6)*%
X146105000Y-72487500D03*
%TO.P,U8,6,D*%
%TO.N,/display_d*%
X146105000Y-75027500D03*
%TO.P,U8,7,A*%
%TO.N,/display_a*%
X146105000Y-77567500D03*
%TO.P,U8,8,GND*%
%TO.N,GND*%
X146105000Y-80107500D03*
%TO.P,U8,9,e*%
%TO.N,Net-(U10-Pad1)*%
X153725000Y-80107500D03*
%TO.P,U8,10,d*%
%TO.N,Net-(U10-Pad2)*%
X153725000Y-77567500D03*
%TO.P,U8,11,c*%
%TO.N,Net-(U10-Pad4)*%
X153725000Y-75027500D03*
%TO.P,U8,12,b*%
%TO.N,Net-(U10-Pad6)*%
X153725000Y-72487500D03*
%TO.P,U8,13,a*%
%TO.N,Net-(U10-Pad7)*%
X153725000Y-69947500D03*
%TO.P,U8,14,g*%
%TO.N,Net-(U10-Pad10)*%
X153725000Y-67407500D03*
%TO.P,U8,15,f*%
%TO.N,Net-(U10-Pad9)*%
X153725000Y-64867500D03*
%TO.P,U8,16,VCC*%
%TO.N,+5V*%
X153725000Y-62327500D03*
%TD*%
D27*
%TO.P,H3,1,1*%
%TO.N,GND*%
X66475000Y-85000000D03*
%TD*%
D17*
%TO.P,+5V,1,1*%
%TO.N,+5V*%
X111258000Y-51350000D03*
%TD*%
D39*
%TO.P,C3,1*%
%TO.N,Net-(C3-Pad1)*%
X109861000Y-77152500D03*
%TO.P,C3,2*%
%TO.N,GND*%
X109861000Y-75077500D03*
%TD*%
D30*
%TO.P,U4,1,GND*%
%TO.N,GND*%
X99675000Y-62500000D03*
%TO.P,U4,2,VO*%
%TO.N,+3.3V*%
X99675000Y-64800000D03*
D31*
X105975000Y-64800000D03*
D30*
%TO.P,U4,3,VI*%
%TO.N,+5V*%
X99675000Y-67100000D03*
%TD*%
D10*
%TO.P,D4,1,K*%
%TO.N,GND*%
X130275000Y-61675000D03*
%TO.P,D4,2,A*%
%TO.N,Net-(D4-Pad2)*%
X130275000Y-63725000D03*
%TD*%
D40*
%TO.P,J5,1,Pin_1*%
%TO.N,/mornsun_minus*%
X114152107Y-44071500D03*
D41*
%TO.P,J5,2,Pin_2*%
%TO.N,/mornsun_Vin*%
X119152107Y-44071500D03*
%TD*%
D42*
%TO.P,C8,1*%
%TO.N,GND*%
X113291377Y-79766377D03*
%TO.P,C8,2*%
%TO.N,Net-(C8-Pad2)*%
X114758623Y-81233623D03*
%TD*%
D16*
%TO.P,C1,1*%
%TO.N,GND*%
X122659623Y-82182623D03*
%TO.P,C1,2*%
%TO.N,/HSE_IN*%
X121192377Y-80715377D03*
%TD*%
D22*
%TO.P,C14,1*%
%TO.N,+3.3V*%
X116358623Y-95666377D03*
%TO.P,C14,2*%
%TO.N,GND*%
X114891377Y-97133623D03*
%TD*%
D28*
%TO.P,J17,1,Pin_1*%
%TO.N,GND*%
X88275000Y-67750000D03*
D29*
%TO.P,J17,2,Pin_2*%
%TO.N,+3.3V*%
X88275000Y-70290000D03*
%TO.P,J17,3,Pin_3*%
%TO.N,GND*%
X85735000Y-67750000D03*
%TO.P,J17,4,Pin_4*%
%TO.N,+5V*%
X85735000Y-70290000D03*
%TO.P,J17,5,Pin_5*%
%TO.N,GND*%
X83195000Y-67750000D03*
%TO.P,J17,6,Pin_6*%
%TO.N,/mornsun_Vin*%
X83195000Y-70290000D03*
%TD*%
D11*
%TO.P,R20,1*%
%TO.N,/CAN_P*%
X169932000Y-113723000D03*
%TO.P,R20,2*%
%TO.N,/CAN_N*%
X169932000Y-115723000D03*
%TD*%
D39*
%TO.P,C21,1*%
%TO.N,+5V*%
X98812000Y-123613000D03*
%TO.P,C21,2*%
%TO.N,Net-(C21-Pad2)*%
X98812000Y-121538000D03*
%TD*%
D22*
%TO.P,C11,1*%
%TO.N,+3.3V*%
X118136623Y-97317377D03*
%TO.P,C11,2*%
%TO.N,GND*%
X116669377Y-98784623D03*
%TD*%
D28*
%TO.P,J22,1,Pin_1*%
%TO.N,/CAN_N*%
X166503000Y-120565000D03*
%TD*%
D10*
%TO.P,D1,1,K*%
%TO.N,GND*%
X139275000Y-61675000D03*
%TO.P,D1,2,A*%
%TO.N,Net-(D1-Pad2)*%
X139275000Y-63725000D03*
%TD*%
D26*
%TO.P,C28,1*%
%TO.N,+3.3V*%
X75237500Y-110100000D03*
%TO.P,C28,2*%
%TO.N,GND*%
X77312500Y-110100000D03*
%TD*%
D42*
%TO.P,C5,1*%
%TO.N,+3.3V*%
X144218484Y-94423270D03*
%TO.P,C5,2*%
%TO.N,GND*%
X145685730Y-95890516D03*
%TD*%
D19*
%TO.P,J4,0,PAD*%
%TO.N,GND*%
X67972107Y-132132562D03*
X92972107Y-132132562D03*
D13*
%TO.P,J4,1,1*%
%TO.N,unconnected-(J4-Pad1)*%
X74932107Y-130712562D03*
D20*
%TO.P,J4,2,2*%
%TO.N,/Rx*%
X77702107Y-130712562D03*
%TO.P,J4,3,3*%
%TO.N,/Tx*%
X80472107Y-130712562D03*
%TO.P,J4,4,4*%
%TO.N,unconnected-(J4-Pad4)*%
X83242107Y-130712562D03*
%TO.P,J4,5,5*%
%TO.N,GND*%
X86012107Y-130712562D03*
%TO.P,J4,6,6*%
%TO.N,unconnected-(J4-Pad6)*%
X76317107Y-133552562D03*
%TO.P,J4,7,7*%
%TO.N,unconnected-(J4-Pad7)*%
X79087107Y-133552562D03*
%TO.P,J4,8,8*%
%TO.N,unconnected-(J4-Pad8)*%
X81857107Y-133552562D03*
%TO.P,J4,9,9*%
%TO.N,unconnected-(J4-Pad9)*%
X84627107Y-133552562D03*
%TD*%
D28*
%TO.P,J14,1,Pin_1*%
%TO.N,/SPI2_SCK*%
X122925000Y-112700000D03*
D29*
%TO.P,J14,2,Pin_2*%
%TO.N,/SPI2_MISO*%
X125465000Y-112700000D03*
%TO.P,J14,3,Pin_3*%
%TO.N,/SPI2_MOSI*%
X128005000Y-112700000D03*
%TO.P,J14,4,Pin_4*%
%TO.N,GND*%
X130545000Y-112700000D03*
%TD*%
D23*
%TO.P,R25,1*%
%TO.N,/ADC_in9*%
X121325000Y-118400000D03*
%TO.P,R25,2*%
%TO.N,GND*%
X119325000Y-118400000D03*
%TD*%
D21*
%TO.P,D12,1,K*%
%TO.N,GND*%
X87975000Y-77200000D03*
%TO.P,D12,2,A*%
%TO.N,Net-(D12-Pad2)*%
X90025000Y-77200000D03*
%TD*%
D27*
%TO.P,H1,1,1*%
%TO.N,GND*%
X174425000Y-134100000D03*
%TD*%
D28*
%TO.P,J18,1,Pin_1*%
%TO.N,+5V*%
X83975000Y-76300000D03*
D29*
%TO.P,J18,2,Pin_2*%
%TO.N,Net-(C26-Pad1)*%
X81435000Y-76300000D03*
%TO.P,J18,3,Pin_3*%
%TO.N,unconnected-(J18-Pad3)*%
X78895000Y-76300000D03*
%TD*%
D17*
%TO.P,3V3,1,1*%
%TO.N,+3.3V*%
X116084000Y-51350000D03*
%TD*%
D25*
%TO.P,C20,1*%
%TO.N,+3.3V*%
X96412500Y-62200000D03*
%TO.P,C20,2*%
%TO.N,GND*%
X94337500Y-62200000D03*
%TD*%
D43*
%TO.P,R3,1*%
%TO.N,/HSE_OUT*%
X120728107Y-84188107D03*
%TO.P,R3,2*%
%TO.N,Net-(C8-Pad2)*%
X119313893Y-82773893D03*
%TD*%
D11*
%TO.P,R9,1*%
%TO.N,Net-(D1-Pad2)*%
X139275000Y-66200000D03*
%TO.P,R9,2*%
%TO.N,/E0*%
X139275000Y-68200000D03*
%TD*%
%TO.P,R14,1*%
%TO.N,Net-(D6-Pad2)*%
X124275000Y-66200000D03*
%TO.P,R14,2*%
%TO.N,/E5*%
X124275000Y-68200000D03*
%TD*%
D19*
%TO.P,J8,0,PAD*%
%TO.N,GND*%
X166322107Y-132682562D03*
X141322107Y-132682562D03*
D13*
%TO.P,J8,1,1*%
%TO.N,/MVCU_HBT*%
X148282107Y-131262562D03*
D20*
%TO.P,J8,2,2*%
%TO.N,/CAN_N*%
X151052107Y-131262562D03*
%TO.P,J8,3,3*%
%TO.N,GND*%
X153822107Y-131262562D03*
%TO.P,J8,4,4*%
%TO.N,/I2C3_SCL*%
X156592107Y-131262562D03*
%TO.P,J8,5,5*%
%TO.N,GND*%
X159362107Y-131262562D03*
%TO.P,J8,6,6*%
%TO.N,/VCU4_HBT*%
X149667107Y-134102562D03*
%TO.P,J8,7,7*%
%TO.N,/CAN_P*%
X152437107Y-134102562D03*
%TO.P,J8,8,8*%
%TO.N,/I2C_SDA*%
X155207107Y-134102562D03*
%TO.P,J8,9,9*%
%TO.N,+5V*%
X157977107Y-134102562D03*
%TD*%
D10*
%TO.P,D10,1,K*%
%TO.N,GND*%
X112275000Y-61675000D03*
%TO.P,D10,2,A*%
%TO.N,Net-(D10-Pad2)*%
X112275000Y-63725000D03*
%TD*%
D11*
%TO.P,R8,1*%
%TO.N,+3.3V*%
X151644000Y-93657000D03*
%TO.P,R8,2*%
%TO.N,/I2C3_SCL*%
X151644000Y-95657000D03*
%TD*%
D44*
%TO.P,Y1,1,1*%
%TO.N,/HSE_IN*%
X116513388Y-76880996D03*
D45*
%TO.P,Y1,2,2*%
%TO.N,GND*%
X115240596Y-78153788D03*
%TO.P,Y1,3,3*%
%TO.N,Net-(C8-Pad2)*%
X116336612Y-79249803D03*
%TO.P,Y1,4,4*%
%TO.N,GND*%
X117609404Y-77969940D03*
%TD*%
D21*
%TO.P,D14,1,K*%
%TO.N,GND*%
X104592786Y-87925714D03*
%TO.P,D14,2,A*%
%TO.N,Net-(D14-Pad2)*%
X106642786Y-87925714D03*
%TD*%
D46*
%TO.P,U2,1,PE2*%
%TO.N,/E2*%
X129347703Y-82923208D03*
%TO.P,U2,2,PE3*%
%TO.N,/E3*%
X128994150Y-83276761D03*
%TO.P,U2,3,PE4*%
%TO.N,/E4*%
X128640596Y-83630315D03*
%TO.P,U2,4,PE5*%
%TO.N,/E5*%
X128287043Y-83983868D03*
%TO.P,U2,5,PE6*%
%TO.N,/E6*%
X127933490Y-84337421D03*
%TO.P,U2,6,VBAT*%
%TO.N,+3.3V*%
X127579936Y-84690975D03*
%TO.P,U2,7,PC13*%
%TO.N,/C13*%
X127226383Y-85044528D03*
%TO.P,U2,8,PC14*%
%TO.N,/C14*%
X126872829Y-85398082D03*
%TO.P,U2,9,PC15*%
%TO.N,/C15*%
X126519276Y-85751635D03*
%TO.P,U2,10,VSS*%
%TO.N,GND*%
X126165723Y-86105188D03*
%TO.P,U2,11,VDD*%
%TO.N,+3.3V*%
X125812169Y-86458742D03*
%TO.P,U2,12,PH0*%
%TO.N,/HSE_IN*%
X125458616Y-86812295D03*
%TO.P,U2,13,PH1*%
%TO.N,/HSE_OUT*%
X125105062Y-87165848D03*
%TO.P,U2,14,NRST*%
%TO.N,Net-(C3-Pad1)*%
X124751509Y-87519402D03*
%TO.P,U2,15,PC0*%
%TO.N,unconnected-(U2-Pad15)*%
X124397956Y-87872955D03*
%TO.P,U2,16,PC1*%
%TO.N,unconnected-(U2-Pad16)*%
X124044402Y-88226509D03*
%TO.P,U2,17,PC2*%
%TO.N,unconnected-(U2-Pad17)*%
X123690849Y-88580062D03*
%TO.P,U2,18,PC3*%
%TO.N,unconnected-(U2-Pad18)*%
X123337296Y-88933615D03*
%TO.P,U2,19,VDD*%
%TO.N,+3.3V*%
X122983742Y-89287169D03*
%TO.P,U2,20,VSSA*%
%TO.N,GND*%
X122630189Y-89640722D03*
%TO.P,U2,21,VREF+*%
%TO.N,+3.3V*%
X122276635Y-89994276D03*
%TO.P,U2,22,VDDA*%
X121923082Y-90347829D03*
%TO.P,U2,23,PA0*%
%TO.N,/Xbee_Rx*%
X121569529Y-90701382D03*
%TO.P,U2,24,PA1*%
%TO.N,/Xbee_Tx*%
X121215975Y-91054936D03*
%TO.P,U2,25,PA2*%
%TO.N,/USART2_Tx*%
X120862422Y-91408489D03*
D47*
%TO.P,U2,26,PA3*%
%TO.N,/USART2_Rx*%
X120862422Y-93777297D03*
%TO.P,U2,27,VSS*%
%TO.N,GND*%
X121215975Y-94130850D03*
%TO.P,U2,28,VDD*%
%TO.N,+3.3V*%
X121569529Y-94484404D03*
%TO.P,U2,29,PA4*%
%TO.N,/DAC_1*%
X121923082Y-94837957D03*
%TO.P,U2,30,PA5*%
%TO.N,/DAC_2*%
X122276635Y-95191510D03*
%TO.P,U2,31,PA6*%
%TO.N,/ADC_in6*%
X122630189Y-95545064D03*
%TO.P,U2,32,PA7*%
%TO.N,/ADC_in7*%
X122983742Y-95898617D03*
%TO.P,U2,33,PC4*%
%TO.N,/ADC_in14*%
X123337296Y-96252171D03*
%TO.P,U2,34,PC5*%
%TO.N,/ADC_in15*%
X123690849Y-96605724D03*
%TO.P,U2,35,PB0*%
%TO.N,/ADC_in8*%
X124044402Y-96959277D03*
%TO.P,U2,36,PB1*%
%TO.N,/ADC_in9*%
X124397956Y-97312831D03*
%TO.P,U2,37,PB2*%
%TO.N,unconnected-(U2-Pad37)*%
X124751509Y-97666384D03*
%TO.P,U2,38,PE7*%
%TO.N,unconnected-(U2-Pad38)*%
X125105062Y-98019938D03*
%TO.P,U2,39,PE8*%
%TO.N,/RST*%
X125458616Y-98373491D03*
%TO.P,U2,40,PE9*%
%TO.N,unconnected-(U2-Pad40)*%
X125812169Y-98727044D03*
%TO.P,U2,41,PE10*%
%TO.N,unconnected-(U2-Pad41)*%
X126165723Y-99080598D03*
%TO.P,U2,42,PE11*%
%TO.N,/RSSI*%
X126519276Y-99434151D03*
%TO.P,U2,43,PE12*%
%TO.N,unconnected-(U2-Pad43)*%
X126872829Y-99787704D03*
%TO.P,U2,44,PE13*%
%TO.N,/gpio*%
X127226383Y-100141258D03*
%TO.P,U2,45,PE14*%
%TO.N,unconnected-(U2-Pad45)*%
X127579936Y-100494811D03*
%TO.P,U2,46,PE15*%
%TO.N,unconnected-(U2-Pad46)*%
X127933490Y-100848365D03*
%TO.P,U2,47,PB10*%
%TO.N,/IMU_Tx*%
X128287043Y-101201918D03*
%TO.P,U2,48,PB11*%
%TO.N,/IMU_Rx*%
X128640596Y-101555471D03*
%TO.P,U2,49,VCAP_1*%
%TO.N,Net-(C7-Pad2)*%
X128994150Y-101909025D03*
%TO.P,U2,50,VDD*%
%TO.N,+3.3V*%
X129347703Y-102262578D03*
D46*
%TO.P,U2,51,PB12*%
%TO.N,unconnected-(U2-Pad51)*%
X131716511Y-102262578D03*
%TO.P,U2,52,PB13*%
%TO.N,/SPI2_SCK*%
X132070064Y-101909025D03*
%TO.P,U2,53,PB14*%
%TO.N,/SPI2_MISO*%
X132423618Y-101555471D03*
%TO.P,U2,54,PB15*%
%TO.N,/SPI2_MOSI*%
X132777171Y-101201918D03*
%TO.P,U2,55,PD8*%
%TO.N,unconnected-(U2-Pad55)*%
X133130724Y-100848365D03*
%TO.P,U2,56,PD9*%
%TO.N,/VCU5_HBT*%
X133484278Y-100494811D03*
%TO.P,U2,57,PD10*%
%TO.N,/VCU4_HBT*%
X133837831Y-100141258D03*
%TO.P,U2,58,PD11*%
%TO.N,/VCU3_HBT*%
X134191385Y-99787704D03*
%TO.P,U2,59,PD12*%
%TO.N,/VCU2_HBT*%
X134544938Y-99434151D03*
%TO.P,U2,60,PD13*%
%TO.N,/VCU1_HBT*%
X134898491Y-99080598D03*
%TO.P,U2,61,PD14*%
%TO.N,/MVCU_HBT*%
X135252045Y-98727044D03*
%TO.P,U2,62,PD15*%
%TO.N,unconnected-(U2-Pad62)*%
X135605598Y-98373491D03*
%TO.P,U2,63,PC6*%
%TO.N,unconnected-(U2-Pad63)*%
X135959152Y-98019938D03*
%TO.P,U2,64,PC7*%
%TO.N,unconnected-(U2-Pad64)*%
X136312705Y-97666384D03*
%TO.P,U2,65,PC8*%
%TO.N,unconnected-(U2-Pad65)*%
X136666258Y-97312831D03*
%TO.P,U2,66,PC9*%
%TO.N,/I2C_SDA*%
X137019812Y-96959277D03*
%TO.P,U2,67,PA8*%
%TO.N,/I2C3_SCL*%
X137373365Y-96605724D03*
%TO.P,U2,68,PA9*%
%TO.N,unconnected-(U2-Pad68)*%
X137726918Y-96252171D03*
%TO.P,U2,69,PA10*%
%TO.N,unconnected-(U2-Pad69)*%
X138080472Y-95898617D03*
%TO.P,U2,70,PA11*%
%TO.N,/CAN_Rx*%
X138434025Y-95545064D03*
%TO.P,U2,71,PA12*%
%TO.N,/CAN_Tx*%
X138787579Y-95191510D03*
%TO.P,U2,72,PA13*%
%TO.N,/SWDIO*%
X139141132Y-94837957D03*
%TO.P,U2,73,VCAP_2*%
%TO.N,Net-(C10-Pad2)*%
X139494685Y-94484404D03*
%TO.P,U2,74,VSS*%
%TO.N,GND*%
X139848239Y-94130850D03*
%TO.P,U2,75,VDD*%
%TO.N,+3.3V*%
X140201792Y-93777297D03*
D47*
%TO.P,U2,76,PA14*%
%TO.N,/SWCLK*%
X140201792Y-91408489D03*
%TO.P,U2,77,PA15*%
%TO.N,/SD_CS*%
X139848239Y-91054936D03*
%TO.P,U2,78,PC10*%
%TO.N,/SD_SCK*%
X139494685Y-90701382D03*
%TO.P,U2,79,PC11*%
%TO.N,/SD_MISO*%
X139141132Y-90347829D03*
%TO.P,U2,80,PC12*%
%TO.N,/SD_MOSI*%
X138787579Y-89994276D03*
%TO.P,U2,81,PD0*%
%TO.N,unconnected-(U2-Pad81)*%
X138434025Y-89640722D03*
%TO.P,U2,82,PD1*%
%TO.N,/display_a*%
X138080472Y-89287169D03*
%TO.P,U2,83,PD2*%
%TO.N,/display_b*%
X137726918Y-88933615D03*
%TO.P,U2,84,PD3*%
%TO.N,/display_c*%
X137373365Y-88580062D03*
%TO.P,U2,85,PD4*%
%TO.N,/display_d*%
X137019812Y-88226509D03*
%TO.P,U2,86,PD5*%
%TO.N,unconnected-(U2-Pad86)*%
X136666258Y-87872955D03*
%TO.P,U2,87,PD6*%
%TO.N,unconnected-(U2-Pad87)*%
X136312705Y-87519402D03*
%TO.P,U2,88,PD7*%
%TO.N,unconnected-(U2-Pad88)*%
X135959152Y-87165848D03*
%TO.P,U2,89,PB3*%
%TO.N,/SWo*%
X135605598Y-86812295D03*
%TO.P,U2,90,PB4*%
%TO.N,/B4*%
X135252045Y-86458742D03*
%TO.P,U2,91,PB5*%
%TO.N,/B5*%
X134898491Y-86105188D03*
%TO.P,U2,92,PB6*%
%TO.N,/B6*%
X134544938Y-85751635D03*
%TO.P,U2,93,PB7*%
%TO.N,/B7*%
X134191385Y-85398082D03*
%TO.P,U2,94,BOOT0*%
%TO.N,/BOOT0*%
X133837831Y-85044528D03*
%TO.P,U2,95,PB8*%
%TO.N,/I2C1_SCL*%
X133484278Y-84690975D03*
%TO.P,U2,96,PB9*%
%TO.N,/I2C1_SDA*%
X133130724Y-84337421D03*
%TO.P,U2,97,PE0*%
%TO.N,/E0*%
X132777171Y-83983868D03*
%TO.P,U2,98,PE1*%
%TO.N,/E1*%
X132423618Y-83630315D03*
%TO.P,U2,99,VSS*%
%TO.N,GND*%
X132070064Y-83276761D03*
%TO.P,U2,100,VDD*%
%TO.N,+3.3V*%
X131716511Y-82923208D03*
%TD*%
D16*
%TO.P,C15,1*%
%TO.N,+3.3V*%
X116501516Y-88514730D03*
%TO.P,C15,2*%
%TO.N,GND*%
X115034270Y-87047484D03*
%TD*%
D48*
%TO.P,SW1,1,1*%
%TO.N,GND*%
X105482107Y-72242893D03*
X98982107Y-72242893D03*
%TO.P,SW1,2,2*%
%TO.N,Net-(C3-Pad1)*%
X105482107Y-76742893D03*
X98982107Y-76742893D03*
%TD*%
D11*
%TO.P,R15,1*%
%TO.N,Net-(D7-Pad2)*%
X121275000Y-66200000D03*
%TO.P,R15,2*%
%TO.N,/E6*%
X121275000Y-68200000D03*
%TD*%
D28*
%TO.P,J19,1,Pin_1*%
%TO.N,/CAN_Tx*%
X161507000Y-107530000D03*
%TD*%
D13*
%TO.P,C27,1*%
%TO.N,GND*%
X67172349Y-71900000D03*
D20*
%TO.P,C27,2*%
%TO.N,Net-(C26-Pad1)*%
X69672349Y-71900000D03*
%TD*%
D23*
%TO.P,R21,1*%
%TO.N,Net-(D12-Pad2)*%
X90100000Y-74300000D03*
%TO.P,R21,2*%
%TO.N,Net-(C26-Pad1)*%
X88100000Y-74300000D03*
%TD*%
D49*
%TO.P,J15,1,Pin_1*%
%TO.N,/I2C1_SCL*%
X138826562Y-75851562D03*
D50*
%TO.P,J15,2,Pin_2*%
%TO.N,/I2C1_SDA*%
X137030511Y-74055511D03*
%TD*%
D16*
%TO.P,C9,1*%
%TO.N,+3.3V*%
X118505139Y-86581353D03*
%TO.P,C9,2*%
%TO.N,GND*%
X117037893Y-85114107D03*
%TD*%
D11*
%TO.P,R10,1*%
%TO.N,Net-(D2-Pad2)*%
X136275000Y-66200000D03*
%TO.P,R10,2*%
%TO.N,/E1*%
X136275000Y-68200000D03*
%TD*%
D24*
%TO.P,U7,1,GND*%
%TO.N,/mornsun_minus*%
X79872107Y-42913893D03*
%TO.P,U7,2,Vin*%
%TO.N,/mornsun_Vin*%
X74792107Y-42913893D03*
%TO.P,U7,3,+Vo*%
%TO.N,Net-(C26-Pad1)*%
X67172107Y-60693893D03*
%TO.P,U7,4,0V*%
%TO.N,GND*%
X87492107Y-60693893D03*
%TD*%
D51*
%TO.P,U5,1,TXD*%
%TO.N,/CAN_Tx*%
X161488000Y-112818000D03*
%TO.P,U5,2,VSS*%
%TO.N,GND*%
X161488000Y-114088000D03*
%TO.P,U5,3,VDD*%
%TO.N,+5V*%
X161488000Y-115358000D03*
%TO.P,U5,4,RXD*%
%TO.N,/CAN_Rx*%
X161488000Y-116628000D03*
%TO.P,U5,5,Vref*%
%TO.N,unconnected-(U5-Pad5)*%
X166438000Y-116628000D03*
%TO.P,U5,6,CANL*%
%TO.N,/CAN_N*%
X166438000Y-115358000D03*
%TO.P,U5,7,CANH*%
%TO.N,/CAN_P*%
X166438000Y-114088000D03*
%TO.P,U5,8,Rs*%
%TO.N,GND*%
X166438000Y-112818000D03*
%TD*%
D52*
%TO.P,U11,1,IP+*%
%TO.N,+5V*%
X129600000Y-122805000D03*
%TO.P,U11,2,IP+*%
X129600000Y-121535000D03*
%TO.P,U11,3,IP-*%
%TO.N,GND*%
X129600000Y-120265000D03*
%TO.P,U11,4,IP-*%
X129600000Y-118995000D03*
%TO.P,U11,5,GND*%
X124650000Y-118995000D03*
%TO.P,U11,6,FILTER*%
%TO.N,Net-(C30-Pad1)*%
X124650000Y-120265000D03*
%TO.P,U11,7,VIOUT*%
%TO.N,Net-(R24-Pad1)*%
X124650000Y-121535000D03*
%TO.P,U11,8,VCC*%
%TO.N,+5V*%
X124650000Y-122805000D03*
%TD*%
D38*
%TO.P,C12,1*%
%TO.N,+3.3V*%
X132541754Y-78725246D03*
%TO.P,C12,2*%
%TO.N,GND*%
X134009000Y-77258000D03*
%TD*%
D18*
%TO.P,R6,1*%
%TO.N,Net-(R6-Pad1)*%
X172721000Y-48019000D03*
%TO.P,R6,2*%
%TO.N,/DO_LLS*%
X174721000Y-48019000D03*
%TD*%
D25*
%TO.P,C30,1*%
%TO.N,Net-(C30-Pad1)*%
X126462500Y-116400000D03*
%TO.P,C30,2*%
%TO.N,GND*%
X124387500Y-116400000D03*
%TD*%
D17*
%TO.P,GND,1,1*%
%TO.N,GND*%
X120656000Y-51350000D03*
%TD*%
D28*
%TO.P,J1,1,Pin_1*%
%TO.N,+3.3V*%
X136150000Y-47275000D03*
D29*
%TO.P,J1,2,Pin_2*%
%TO.N,Net-(J1-Pad2)*%
X136150000Y-49815000D03*
%TO.P,J1,3,Pin_3*%
%TO.N,GND*%
X136150000Y-52355000D03*
%TD*%
D23*
%TO.P,R23,1*%
%TO.N,Net-(D14-Pad2)*%
X106617786Y-84525714D03*
%TO.P,R23,2*%
%TO.N,Net-(R23-Pad2)*%
X104617786Y-84525714D03*
%TD*%
D53*
%TO.P,R24,1*%
%TO.N,Net-(R24-Pad1)*%
X121325000Y-122800000D03*
%TO.P,R24,2*%
%TO.N,/ADC_in9*%
X121325000Y-120800000D03*
%TD*%
D13*
%TO.P,C24,1*%
%TO.N,/mornsun_Vin*%
X97472349Y-44200000D03*
D20*
%TO.P,C24,2*%
%TO.N,GND*%
X99972349Y-44200000D03*
%TD*%
D10*
%TO.P,D8,1,K*%
%TO.N,GND*%
X118275000Y-61675000D03*
%TO.P,D8,2,A*%
%TO.N,Net-(D8-Pad2)*%
X118275000Y-63725000D03*
%TD*%
%TO.P,D7,1,K*%
%TO.N,GND*%
X121275000Y-61675000D03*
%TO.P,D7,2,A*%
%TO.N,Net-(D7-Pad2)*%
X121275000Y-63725000D03*
%TD*%
D39*
%TO.P,C29,1*%
%TO.N,+5V*%
X132825000Y-122737500D03*
%TO.P,C29,2*%
%TO.N,GND*%
X132825000Y-120662500D03*
%TD*%
D38*
%TO.P,C4,1*%
%TO.N,+3.3V*%
X134273377Y-80531623D03*
%TO.P,C4,2*%
%TO.N,GND*%
X135740623Y-79064377D03*
%TD*%
D28*
%TO.P,J23,1,Pin_1*%
%TO.N,/DAC_1*%
X109825000Y-108065000D03*
D29*
%TO.P,J23,2,Pin_2*%
%TO.N,/DAC_2*%
X109825000Y-110605000D03*
%TD*%
D54*
%TO.N,GND*%
X133725000Y-134100000D03*
X135150000Y-134100000D03*
X135175000Y-131325000D03*
X136775000Y-131325000D03*
X136750000Y-134100000D03*
X135175000Y-132625000D03*
X133750000Y-132625000D03*
X136775000Y-132625000D03*
X133750000Y-131325000D03*
X168275000Y-72400000D03*
X169700000Y-72400000D03*
X169725000Y-69625000D03*
X171325000Y-69625000D03*
X171300000Y-72400000D03*
X169725000Y-70925000D03*
X168300000Y-70925000D03*
X171325000Y-70925000D03*
X168300000Y-69625000D03*
X89250000Y-93275000D03*
X90675000Y-93275000D03*
X90700000Y-90500000D03*
X92300000Y-90500000D03*
X92275000Y-93275000D03*
X90700000Y-91800000D03*
X89275000Y-91800000D03*
X92300000Y-91800000D03*
X89275000Y-90500000D03*
X129900000Y-92625000D03*
X128475000Y-92625000D03*
X128450000Y-95400000D03*
X126850000Y-95400000D03*
X126875000Y-92625000D03*
X128450000Y-94100000D03*
X129875000Y-94100000D03*
X126850000Y-94100000D03*
X129875000Y-95400000D03*
X187950000Y-45275000D03*
X189375000Y-45275000D03*
X189400000Y-42500000D03*
X191000000Y-42500000D03*
X190975000Y-45275000D03*
X189400000Y-43800000D03*
X187975000Y-43800000D03*
X191000000Y-43800000D03*
X187975000Y-42500000D03*
X182050000Y-71575000D03*
X183475000Y-71575000D03*
X183500000Y-68800000D03*
X185100000Y-68800000D03*
X185075000Y-71575000D03*
X183500000Y-70100000D03*
X182075000Y-70100000D03*
X185100000Y-70100000D03*
X182075000Y-68800000D03*
X170825000Y-123325000D03*
X172250000Y-123325000D03*
X172275000Y-120550000D03*
X173875000Y-120550000D03*
X173850000Y-123325000D03*
X172275000Y-121850000D03*
X170850000Y-121850000D03*
X173875000Y-121850000D03*
X170850000Y-120550000D03*
X169425000Y-96325000D03*
X170850000Y-96325000D03*
X170875000Y-93550000D03*
X172475000Y-93550000D03*
X172450000Y-96325000D03*
X170875000Y-94850000D03*
X169450000Y-94850000D03*
X172475000Y-94850000D03*
X169450000Y-93550000D03*
X151950000Y-120975000D03*
X153375000Y-120975000D03*
X153400000Y-118200000D03*
X155000000Y-118200000D03*
X154975000Y-120975000D03*
X153400000Y-119500000D03*
X151975000Y-119500000D03*
X155000000Y-119500000D03*
X151975000Y-118200000D03*
X102900000Y-126475000D03*
X104325000Y-126475000D03*
X104350000Y-123700000D03*
X105950000Y-123700000D03*
X105925000Y-126475000D03*
X104350000Y-125000000D03*
X102925000Y-125000000D03*
X105950000Y-125000000D03*
X102925000Y-123700000D03*
X67700000Y-139200000D03*
X69125000Y-139200000D03*
X69150000Y-136425000D03*
X70750000Y-136425000D03*
X70725000Y-139200000D03*
X69150000Y-137725000D03*
X67725000Y-137725000D03*
X70750000Y-137725000D03*
X67725000Y-136425000D03*
X64775000Y-109575000D03*
X66200000Y-109575000D03*
X66225000Y-106800000D03*
X67825000Y-106800000D03*
X67800000Y-109575000D03*
X66225000Y-108100000D03*
X64800000Y-108100000D03*
X67825000Y-108100000D03*
X64800000Y-106800000D03*
X74725000Y-93150000D03*
X76150000Y-93150000D03*
X76175000Y-90375000D03*
X77775000Y-90375000D03*
X77750000Y-93150000D03*
X76175000Y-91675000D03*
X74750000Y-91675000D03*
X77775000Y-91675000D03*
X74750000Y-90375000D03*
X76700000Y-59800000D03*
X78125000Y-59800000D03*
X78150000Y-57025000D03*
X79750000Y-57025000D03*
X79725000Y-59800000D03*
X78150000Y-58325000D03*
X76725000Y-58325000D03*
X79750000Y-58325000D03*
X76725000Y-57025000D03*
X69725000Y-48175000D03*
X71325000Y-48175000D03*
X68300000Y-48175000D03*
X69750000Y-46700000D03*
X71350000Y-46700000D03*
X68325000Y-46700000D03*
X71350000Y-45400000D03*
X69750000Y-45400000D03*
X68325000Y-45400000D03*
X158883000Y-114342000D03*
X92716000Y-68114000D03*
X142754000Y-59224000D03*
X130250000Y-60075000D03*
X112300000Y-60000000D03*
X136225000Y-60000000D03*
X102994000Y-94033500D03*
X118475000Y-79700000D03*
X136531000Y-93514000D03*
X112385353Y-76300000D03*
X146945000Y-94530000D03*
X130943000Y-85259000D03*
X153114000Y-52860000D03*
X112125000Y-99300000D03*
X102622000Y-51096000D03*
X121418000Y-87799000D03*
X132025000Y-118200000D03*
X102994000Y-87937500D03*
X150193000Y-52987000D03*
X129292000Y-88815000D03*
X77349000Y-112310000D03*
X122688000Y-73956000D03*
X153225000Y-50209000D03*
X88017000Y-75734000D03*
X168787000Y-110399500D03*
X118425000Y-94100000D03*
X112782000Y-86783000D03*
X100463000Y-60240000D03*
X132086000Y-75861000D03*
X119625000Y-116700000D03*
X95891000Y-55668000D03*
X124250000Y-60050000D03*
X123450000Y-83608000D03*
X123825000Y-108000000D03*
X140722000Y-61891000D03*
X118250000Y-59850000D03*
X139050000Y-42775000D03*
%TO.N,+3.3V*%
X148096000Y-52860000D03*
X90176000Y-70273000D03*
X153166000Y-93514000D03*
X96272000Y-70273000D03*
X97034000Y-85132000D03*
%TO.N,Net-(C3-Pad1)*%
X109861000Y-82465000D03*
X112909000Y-83354000D03*
%TO.N,+5V*%
X163963000Y-125899000D03*
X100590000Y-136948000D03*
X122573000Y-136948000D03*
X99701000Y-69130000D03*
X192157000Y-119930000D03*
X92970000Y-72051000D03*
X188220000Y-85005000D03*
X124085000Y-138345000D03*
%TO.N,Net-(C21-Pad2)*%
X101987000Y-121454000D03*
X92462000Y-112564000D03*
%TO.N,/CS_LLS*%
X145875000Y-58575000D03*
%TO.N,/DI_LLS*%
X147145000Y-51717000D03*
%TO.N,/SCK_LLS*%
X149304000Y-51971000D03*
%TO.N,/Rx*%
X88144000Y-126280000D03*
%TO.N,/MVCU_HBT*%
X140214000Y-110532000D03*
X140341000Y-115993000D03*
%TO.N,/I2C3_SCL*%
X119925000Y-138100000D03*
X157425000Y-139194500D03*
X143135000Y-104182000D03*
X190083500Y-123908500D03*
X143770000Y-124121000D03*
X188347000Y-86529000D03*
X149358000Y-98086000D03*
%TO.N,/VCU1_HBT*%
X175393000Y-106214000D03*
X139200000Y-112675000D03*
X174377000Y-102785000D03*
%TO.N,/I2C_SDA*%
X141484000Y-124121000D03*
X140849000Y-103039000D03*
X180219000Y-78655000D03*
X188347000Y-88307000D03*
X146818000Y-98340000D03*
X188855000Y-126407000D03*
%TO.N,/VCU4_HBT*%
X135604500Y-119450000D03*
%TO.N,/VCU2_HBT*%
X138200000Y-114575000D03*
%TO.N,/VCU3_HBT*%
X145675000Y-120946000D03*
X137050000Y-117225000D03*
X171964000Y-127169000D03*
%TO.N,/SD_CS*%
X174704000Y-52733000D03*
X149485000Y-86529000D03*
%TO.N,/E1*%
X133549336Y-82150337D03*
X134626000Y-70908000D03*
%TO.N,/C13*%
X129927000Y-87545000D03*
X118243000Y-69638000D03*
%TO.N,/C14*%
X115322000Y-69765000D03*
X125345873Y-83871127D03*
%TO.N,/RSSI*%
X91954000Y-97705000D03*
X123675000Y-102225000D03*
%TO.N,/SD_MISO*%
X141611000Y-86910000D03*
%TO.N,/RST*%
X91192000Y-100118000D03*
X123831000Y-99991000D03*
%TO.N,/Xbee_Rx*%
X109988000Y-96816000D03*
%TO.N,/DAC_1*%
X119825000Y-96324500D03*
X114525000Y-99200000D03*
%TO.N,/ADC_in9*%
X121025000Y-102700000D03*
X121225000Y-116600000D03*
%TO.N,/display_d*%
X139275000Y-83275000D03*
%TO.N,/display_c*%
X144532000Y-80179000D03*
X141700000Y-82375000D03*
%TO.N,/display_b*%
X139134500Y-85830500D03*
%TO.N,/display_a*%
X141484000Y-84751000D03*
%TO.N,/SWo*%
X136800000Y-84800000D03*
%TO.N,/mornsun_Vin*%
X92208000Y-47159000D03*
X96399000Y-59605000D03*
%TO.N,/CAN_N*%
X172926268Y-116574268D03*
X175656768Y-113843768D03*
%TD*%
D55*
%TO.N,/DO_LLS*%
X147814000Y-35300000D02*
X170479000Y-35300000D01*
X170479000Y-35300000D02*
X171783000Y-36604000D01*
%TO.N,GND*%
X161488000Y-114088000D02*
X159137000Y-114088000D01*
D56*
X94437500Y-52950000D02*
X94437500Y-55216500D01*
D57*
X92382107Y-126205393D02*
X92194607Y-126392893D01*
D55*
X133275000Y-61675000D02*
X139275000Y-61675000D01*
X123187500Y-115200000D02*
X120425000Y-115200000D01*
X133483000Y-77258000D02*
X132086000Y-75861000D01*
X129292000Y-88815000D02*
X128875535Y-88815000D01*
D58*
X114891377Y-97295123D02*
X114891377Y-97133623D01*
D55*
X123825000Y-108000000D02*
X124355160Y-108000000D01*
D57*
X154511000Y-38763000D02*
X154880000Y-38394000D01*
D58*
X143376000Y-58602000D02*
X142754000Y-59224000D01*
X118275000Y-61675000D02*
X118275000Y-59875000D01*
D55*
X113713453Y-79680931D02*
X115240596Y-78153788D01*
D58*
X132825000Y-119000000D02*
X132825000Y-120662500D01*
D55*
X128875535Y-88815000D02*
X126165723Y-86105188D01*
X123143647Y-78891107D02*
X125002377Y-77032377D01*
D56*
X94437500Y-55216500D02*
X95439500Y-55216500D01*
D55*
X112275000Y-60025000D02*
X112300000Y-60000000D01*
X122688000Y-73956000D02*
X125002377Y-76270377D01*
D57*
X143375000Y-57875000D02*
X143375000Y-58603000D01*
D55*
X112275000Y-61675000D02*
X133275000Y-61675000D01*
D58*
X129600000Y-118995000D02*
X131230000Y-118995000D01*
D57*
X77312500Y-110100000D02*
X77312500Y-112273500D01*
D55*
X87975000Y-77200000D02*
X87975000Y-75776000D01*
D56*
X95002000Y-60621000D02*
X99193000Y-60621000D01*
X94337500Y-61285500D02*
X95002000Y-60621000D01*
D55*
X144161730Y-97541516D02*
X144161730Y-97414516D01*
D58*
X115018377Y-97133623D02*
X116669377Y-98784623D01*
D55*
X87975000Y-75776000D02*
X88017000Y-75734000D01*
X146945000Y-94530000D02*
X146945000Y-94631246D01*
D56*
X99675000Y-61103000D02*
X100463000Y-60315000D01*
D55*
X121418000Y-88428533D02*
X121418000Y-87799000D01*
X122659623Y-82817623D02*
X123450000Y-83608000D01*
X118375000Y-78735536D02*
X118375000Y-78900000D01*
D58*
X103042000Y-93985500D02*
X102994000Y-94033500D01*
D55*
X166776500Y-110399500D02*
X168787000Y-110399500D01*
X113386808Y-76300000D02*
X112385353Y-76300000D01*
X95425000Y-77724000D02*
X95425000Y-77150000D01*
D57*
X92194607Y-126392893D02*
X92194607Y-129441607D01*
D55*
X124387500Y-116400000D02*
X124387500Y-118732500D01*
X115240596Y-78153788D02*
X113386808Y-76300000D01*
D57*
X154526000Y-39859000D02*
X154511000Y-39844000D01*
D55*
X129600000Y-120265000D02*
X132427500Y-120265000D01*
D57*
X154880000Y-38394000D02*
X162371000Y-38394000D01*
D55*
X109861000Y-73702000D02*
X109861000Y-75077500D01*
X118425000Y-94100000D02*
X119092982Y-94767982D01*
X134284107Y-77451647D02*
X136015730Y-79183270D01*
X108401893Y-72242893D02*
X109861000Y-73702000D01*
X139275000Y-61675000D02*
X140506000Y-61675000D01*
X122630189Y-89640722D02*
X121418000Y-88428533D01*
D58*
X103005786Y-87925714D02*
X102994000Y-87937500D01*
X93573500Y-68114000D02*
X94337500Y-67350000D01*
D57*
X153225000Y-50209000D02*
X153114000Y-50320000D01*
D55*
X119625000Y-116000000D02*
X119625000Y-116700000D01*
X124387500Y-116400000D02*
X123187500Y-115200000D01*
D57*
X80197500Y-110100000D02*
X80248500Y-110151000D01*
D55*
X115104516Y-87047484D02*
X117037893Y-85114107D01*
X115034270Y-87047484D02*
X115104516Y-87047484D01*
X105482107Y-72242893D02*
X108401893Y-72242893D01*
D58*
X132025000Y-118200000D02*
X132825000Y-119000000D01*
X118275000Y-59875000D02*
X118250000Y-59850000D01*
D55*
X122659623Y-82182623D02*
X122659623Y-82817623D01*
D58*
X124275000Y-61675000D02*
X124275000Y-60075000D01*
D57*
X92972107Y-130219107D02*
X92972107Y-132132562D01*
D55*
X123133893Y-78891107D02*
X123143647Y-78891107D01*
X125002377Y-76270377D02*
X125002377Y-77032377D01*
X159137000Y-114088000D02*
X158883000Y-114342000D01*
D57*
X92194607Y-129441607D02*
X92972107Y-130219107D01*
D55*
X119092982Y-94767982D02*
X120578843Y-94767982D01*
D58*
X136275000Y-60050000D02*
X136225000Y-60000000D01*
D55*
X166438000Y-112818000D02*
X166884000Y-112372000D01*
X99625000Y-51934000D02*
X100463000Y-51096000D01*
X120578843Y-94767982D02*
X121215975Y-94130850D01*
X94494000Y-78655000D02*
X95425000Y-77724000D01*
X124355160Y-108000000D02*
X126255160Y-106100000D01*
D57*
X77312500Y-112273500D02*
X77349000Y-112310000D01*
D55*
X124387500Y-118732500D02*
X124650000Y-118995000D01*
D57*
X141026000Y-39409000D02*
X141026000Y-42524000D01*
X141026000Y-42524000D02*
X140775000Y-42775000D01*
D55*
X113291377Y-79680931D02*
X113713453Y-79680931D01*
D57*
X143376000Y-54509000D02*
X143376000Y-57874000D01*
D55*
X126255160Y-106100000D02*
X127779160Y-107624000D01*
D58*
X130275000Y-61675000D02*
X130275000Y-60100000D01*
D55*
X87975000Y-78359000D02*
X88271000Y-78655000D01*
X140506000Y-61675000D02*
X140722000Y-61891000D01*
D56*
X99193000Y-60621000D02*
X99675000Y-61103000D01*
D55*
X113046484Y-87047484D02*
X115034270Y-87047484D01*
D57*
X154511000Y-39844000D02*
X154511000Y-38763000D01*
D55*
X146945000Y-94631246D02*
X145685730Y-95890516D01*
D58*
X124275000Y-60075000D02*
X124250000Y-60050000D01*
D57*
X153225000Y-50209000D02*
X154526000Y-50209000D01*
D55*
X87975000Y-77200000D02*
X87975000Y-78359000D01*
X117609404Y-77969940D02*
X118375000Y-78735536D01*
D56*
X94437500Y-55216500D02*
X94437500Y-58150000D01*
X94337500Y-62200000D02*
X94337500Y-61285500D01*
D57*
X150193000Y-52987000D02*
X150426000Y-53220000D01*
D58*
X104509000Y-93985500D02*
X103042000Y-93985500D01*
D55*
X130943000Y-84403825D02*
X130943000Y-85259000D01*
D58*
X136275000Y-61675000D02*
X136275000Y-60050000D01*
D57*
X153114000Y-50320000D02*
X153114000Y-52860000D01*
X143376000Y-57874000D02*
X143375000Y-57875000D01*
D55*
X98982107Y-72242893D02*
X105482107Y-72242893D01*
D58*
X130275000Y-60100000D02*
X130250000Y-60075000D01*
D57*
X92382107Y-122902893D02*
X92382107Y-126205393D01*
D58*
X92716000Y-68114000D02*
X93573500Y-68114000D01*
D55*
X139848239Y-94130850D02*
X138907947Y-93190558D01*
X138907947Y-93190558D02*
X138907947Y-93169053D01*
X166884000Y-112372000D02*
X166884000Y-110383500D01*
X88271000Y-78655000D02*
X94494000Y-78655000D01*
X112275000Y-61675000D02*
X112275000Y-60025000D01*
X119325000Y-118400000D02*
X119325000Y-117000000D01*
D57*
X77312500Y-110100000D02*
X80197500Y-110100000D01*
D55*
X136875947Y-93169053D02*
X136531000Y-93514000D01*
D56*
X95439500Y-55216500D02*
X95891000Y-55668000D01*
D55*
X120425000Y-115200000D02*
X119625000Y-116000000D01*
D57*
X140775000Y-42775000D02*
X139050000Y-42775000D01*
D55*
X118375000Y-79600000D02*
X118475000Y-79700000D01*
X99625000Y-53250000D02*
X99625000Y-51934000D01*
X132427500Y-120265000D02*
X132825000Y-120662500D01*
D58*
X131230000Y-118995000D02*
X132025000Y-118200000D01*
X112886500Y-99300000D02*
X114891377Y-97295123D01*
D55*
X118375000Y-78900000D02*
X118375000Y-79600000D01*
D56*
X100463000Y-60315000D02*
X100463000Y-60240000D01*
D58*
X104592786Y-87925714D02*
X103005786Y-87925714D01*
D55*
X134009000Y-77258000D02*
X133483000Y-77258000D01*
D56*
X99675000Y-61103000D02*
X99675000Y-62500000D01*
D55*
X132070064Y-83276761D02*
X130943000Y-84403825D01*
X138907947Y-93169053D02*
X136875947Y-93169053D01*
X134284107Y-77376893D02*
X134284107Y-77451647D01*
D58*
X112125000Y-99300000D02*
X112886500Y-99300000D01*
D55*
X144161730Y-97414516D02*
X145685730Y-95890516D01*
X119325000Y-117000000D02*
X119625000Y-116700000D01*
D57*
X143375000Y-58603000D02*
X142754000Y-59224000D01*
X150426000Y-53220000D02*
X150426000Y-54509000D01*
D55*
X112782000Y-86783000D02*
X113046484Y-87047484D01*
X100463000Y-51096000D02*
X102622000Y-51096000D01*
D56*
X94337500Y-62200000D02*
X94337500Y-67350000D01*
D55*
%TO.N,/HSE_IN*%
X120625000Y-81978679D02*
X125458616Y-86812295D01*
X121192377Y-80667377D02*
X118900000Y-78375000D01*
X121192377Y-80715377D02*
X120625000Y-81282754D01*
X117625000Y-76250000D02*
X117144384Y-76250000D01*
X117144384Y-76250000D02*
X116513388Y-76880996D01*
X120625000Y-81282754D02*
X120625000Y-81978679D01*
X118900000Y-78375000D02*
X118900000Y-77525000D01*
X118900000Y-77525000D02*
X117625000Y-76250000D01*
D56*
%TO.N,+3.3V*%
X111639000Y-55668000D02*
X131959000Y-55668000D01*
D55*
X131716511Y-82923208D02*
X134108096Y-80531623D01*
D56*
X97034000Y-74972000D02*
X97034000Y-85132000D01*
D55*
X124601139Y-80358353D02*
X124610893Y-80358353D01*
D58*
X124783500Y-91291500D02*
X127006000Y-89069000D01*
D55*
X129907859Y-84731859D02*
X129253719Y-85386000D01*
D56*
X133864000Y-53763000D02*
X133864000Y-47921000D01*
X96399000Y-64050000D02*
X97149000Y-64800000D01*
D55*
X125355000Y-82465000D02*
X126942805Y-84052805D01*
D58*
X118825000Y-95600000D02*
X118136623Y-96288377D01*
D56*
X134510000Y-47275000D02*
X136150000Y-47275000D01*
D55*
X132541754Y-78725246D02*
X132541754Y-78800000D01*
D58*
X122276635Y-89994276D02*
X120559180Y-88276820D01*
D55*
X127006000Y-89069000D02*
X127006000Y-88942000D01*
D56*
X96412500Y-62200000D02*
X96412500Y-64036500D01*
X88275000Y-70290000D02*
X90159000Y-70290000D01*
X109353000Y-63796000D02*
X109353000Y-57700000D01*
D55*
X135451500Y-92307500D02*
X135451500Y-91164500D01*
D58*
X121569529Y-94484404D02*
X120453933Y-95600000D01*
D57*
X75100660Y-106648200D02*
X75100660Y-109963160D01*
D55*
X153166000Y-93514000D02*
X145167000Y-93514000D01*
X126942805Y-84052805D02*
X126942805Y-84053842D01*
X144257730Y-94423270D02*
X144218484Y-94423270D01*
X129347703Y-106055457D02*
X129347703Y-102262578D01*
X128403000Y-90466000D02*
X127006000Y-89069000D01*
X124610893Y-80358353D02*
X126469623Y-78499623D01*
D56*
X96272000Y-70273000D02*
X95400000Y-71145000D01*
D55*
X131260500Y-89132500D02*
X130054000Y-90339000D01*
D58*
X120402000Y-88815000D02*
X120402000Y-88434000D01*
X121590596Y-94484404D02*
X124600000Y-91475000D01*
D55*
X126942805Y-84053842D02*
X127579936Y-84690975D01*
X133419500Y-89132500D02*
X135451500Y-91164500D01*
D58*
X121923082Y-90347829D02*
X121923082Y-90336082D01*
D56*
X148226000Y-52990000D02*
X148226000Y-54509000D01*
X95400000Y-71145000D02*
X95400000Y-74350000D01*
D58*
X118136623Y-96288377D02*
X118136623Y-97317377D01*
D55*
X125812169Y-86458742D02*
X127006000Y-87652573D01*
X134108096Y-80531623D02*
X134273377Y-80531623D01*
X135451500Y-91164500D02*
X136150000Y-91863000D01*
X116501516Y-88514730D02*
X116571762Y-88514730D01*
X132541754Y-78800000D02*
X134273377Y-80531623D01*
D56*
X108349000Y-64800000D02*
X109353000Y-63796000D01*
X133864000Y-47921000D02*
X134510000Y-47275000D01*
D58*
X124600000Y-90903427D02*
X124600000Y-91475000D01*
X120559180Y-88276820D02*
X118863712Y-86581353D01*
X121923082Y-90336082D02*
X120402000Y-88815000D01*
D55*
X130435000Y-97324000D02*
X135451500Y-92307500D01*
D56*
X106166000Y-64800000D02*
X111512000Y-70146000D01*
D55*
X121923082Y-90347829D02*
X123175253Y-91600000D01*
X124601139Y-80358353D02*
X125355000Y-81112214D01*
D56*
X115693246Y-89323000D02*
X116501516Y-88514730D01*
X111535853Y-73725853D02*
X111535853Y-87187853D01*
X105975000Y-68825000D02*
X104527000Y-70273000D01*
D55*
X145167000Y-93514000D02*
X144257730Y-94423270D01*
D58*
X122983742Y-89287169D02*
X124600000Y-90903427D01*
X118136623Y-97317377D02*
X118009623Y-97317377D01*
D56*
X105975000Y-64800000D02*
X105975000Y-68825000D01*
X96412500Y-64036500D02*
X96399000Y-64050000D01*
X96399000Y-74337000D02*
X97034000Y-74972000D01*
X111512000Y-73702000D02*
X111535853Y-73725853D01*
D55*
X140201792Y-93755792D02*
X140201792Y-93777297D01*
X129347703Y-102262578D02*
X130435000Y-101175281D01*
X138309000Y-91863000D02*
X140201792Y-93755792D01*
D56*
X97149000Y-64800000D02*
X99675000Y-64800000D01*
D55*
X143572511Y-93777297D02*
X144218484Y-94423270D01*
X129907859Y-84731859D02*
X129907859Y-85620859D01*
D58*
X121569529Y-94484404D02*
X121590596Y-94484404D01*
X128275480Y-85386520D02*
X127579936Y-84690975D01*
X124600000Y-91475000D02*
X124783500Y-91291500D01*
X118863712Y-86581353D02*
X118505139Y-86581353D01*
D56*
X105975000Y-64800000D02*
X108349000Y-64800000D01*
D55*
X136150000Y-91863000D02*
X138309000Y-91863000D01*
D56*
X109353000Y-57700000D02*
X111385000Y-55668000D01*
D55*
X140201792Y-93777297D02*
X143572511Y-93777297D01*
D56*
X111535853Y-87187853D02*
X113671000Y-89323000D01*
D55*
X116571762Y-88514730D02*
X118505139Y-86581353D01*
D56*
X113671000Y-89323000D02*
X115693246Y-89323000D01*
X111512000Y-70146000D02*
X111512000Y-73702000D01*
X99675000Y-64800000D02*
X105975000Y-64800000D01*
X131959000Y-55668000D02*
X133864000Y-53763000D01*
X116084000Y-54271000D02*
X114687000Y-55668000D01*
D55*
X125355000Y-81112214D02*
X125355000Y-82465000D01*
X131716511Y-82923208D02*
X129907859Y-84731859D01*
X133419500Y-89132500D02*
X131260500Y-89132500D01*
X130054000Y-90339000D02*
X129927000Y-90466000D01*
D58*
X120453933Y-95600000D02*
X118825000Y-95600000D01*
D56*
X95400000Y-74350000D02*
X96386000Y-74350000D01*
D57*
X75100660Y-109963160D02*
X75237500Y-110100000D01*
D56*
X104527000Y-70273000D02*
X96272000Y-70273000D01*
D58*
X120402000Y-88434000D02*
X120559180Y-88276820D01*
D55*
X130435000Y-101175281D02*
X130435000Y-97324000D01*
X129253719Y-85386000D02*
X128276000Y-85386000D01*
X129246406Y-106156754D02*
X129347703Y-106055457D01*
X129927000Y-90466000D02*
X128403000Y-90466000D01*
D56*
X116084000Y-51350000D02*
X116084000Y-54271000D01*
X148096000Y-52860000D02*
X148226000Y-52990000D01*
D55*
X123175253Y-91600000D02*
X124425000Y-91600000D01*
D58*
X118009623Y-97317377D02*
X116358623Y-95666377D01*
D55*
X129907859Y-85620859D02*
X133419500Y-89132500D01*
D56*
X111385000Y-55668000D02*
X111639000Y-55668000D01*
X105975000Y-64800000D02*
X106166000Y-64800000D01*
X114687000Y-55668000D02*
X111639000Y-55668000D01*
D55*
X127006000Y-87652573D02*
X127006000Y-88942000D01*
D56*
X90159000Y-70290000D02*
X90176000Y-70273000D01*
X96386000Y-74350000D02*
X96399000Y-74337000D01*
D55*
%TO.N,Net-(C3-Pad1)*%
X105482107Y-76742893D02*
X109451393Y-76742893D01*
X109861000Y-82465000D02*
X109861000Y-77152500D01*
X98982107Y-76742893D02*
X105482107Y-76742893D01*
X121037000Y-86910000D02*
X123734567Y-86910000D01*
X124114377Y-86882270D02*
X124751509Y-87519402D01*
X123734567Y-86910000D02*
X123762297Y-86882270D01*
X112909000Y-83354000D02*
X117481000Y-83354000D01*
X109451393Y-76742893D02*
X109861000Y-77152500D01*
X123762297Y-86882270D02*
X124114377Y-86882270D01*
X117481000Y-83354000D02*
X121037000Y-86910000D01*
%TO.N,Net-(C7-Pad2)*%
X128994150Y-101909025D02*
X127722406Y-103180769D01*
X127722406Y-103180769D02*
X127722406Y-104632754D01*
%TO.N,Net-(C8-Pad2)*%
X119313893Y-82773893D02*
X119313893Y-81990113D01*
X119313893Y-81990113D02*
X116774390Y-79450610D01*
X114758623Y-80827792D02*
X116336612Y-79249803D01*
X114758623Y-81233623D02*
X114758623Y-80827792D01*
%TO.N,Net-(C10-Pad2)*%
X140683281Y-95673000D02*
X142293214Y-95673000D01*
X139494685Y-94484404D02*
X140683281Y-95673000D01*
X142293214Y-95673000D02*
X142694484Y-96074270D01*
D57*
%TO.N,Net-(C16-Pad1)*%
X89842107Y-115282893D02*
X89842107Y-110971393D01*
X89842107Y-110971393D02*
X90535500Y-110278000D01*
%TO.N,Net-(C16-Pad2)*%
X93351000Y-110278000D02*
X92610500Y-110278000D01*
X94922107Y-115282893D02*
X94922107Y-111849107D01*
X94922107Y-111849107D02*
X93351000Y-110278000D01*
D55*
%TO.N,+5V*%
X108125000Y-136096000D02*
X108977000Y-136948000D01*
X124650000Y-122805000D02*
X124650000Y-123475000D01*
D57*
X94922107Y-125740393D02*
X94269607Y-126392893D01*
D56*
X99425000Y-67350000D02*
X99675000Y-67100000D01*
X192157000Y-119930000D02*
X192025000Y-119798000D01*
D57*
X98939000Y-135297000D02*
X100590000Y-136948000D01*
D58*
X159772000Y-138345000D02*
X159518000Y-138345000D01*
D56*
X157359000Y-61256000D02*
X156287500Y-62327500D01*
D57*
X98939000Y-128439000D02*
X98939000Y-128820000D01*
D56*
X190379000Y-50588000D02*
X187292893Y-47501893D01*
D59*
X85735000Y-73063000D02*
X85735000Y-70290000D01*
D55*
X108125000Y-127500000D02*
X108125000Y-136096000D01*
D59*
X95637000Y-69003000D02*
X96412500Y-68227500D01*
D55*
X123625000Y-124500000D02*
X111125000Y-124500000D01*
D57*
X98939000Y-128820000D02*
X98939000Y-123740000D01*
D59*
X83975000Y-74823000D02*
X85735000Y-73063000D01*
D56*
X176409000Y-50588000D02*
X176409000Y-56176000D01*
D57*
X162947000Y-115358000D02*
X163963000Y-114342000D01*
X163963000Y-114342000D02*
X163963000Y-111161000D01*
D56*
X159772000Y-138345000D02*
X124085000Y-138345000D01*
D59*
X94113000Y-70908000D02*
X94113000Y-69511000D01*
D57*
X163961000Y-111140000D02*
X164701500Y-110399500D01*
D56*
X192157000Y-119930000D02*
X192025000Y-120062000D01*
D57*
X98939000Y-128820000D02*
X98939000Y-135297000D01*
D56*
X99675000Y-69104000D02*
X99701000Y-69130000D01*
D55*
X124650000Y-122805000D02*
X129600000Y-122805000D01*
X129600000Y-122805000D02*
X132757500Y-122805000D01*
D57*
X94269607Y-126392893D02*
X96892893Y-126392893D01*
D56*
X185545776Y-47501893D02*
X185507669Y-47540000D01*
X159518000Y-138345000D02*
X157977107Y-136804107D01*
X163328000Y-115358000D02*
X161488000Y-115358000D01*
X176409000Y-56176000D02*
X171329000Y-61256000D01*
X187292893Y-47501893D02*
X185545776Y-47501893D01*
X171329000Y-61256000D02*
X157359000Y-61256000D01*
D59*
X94113000Y-69511000D02*
X94621000Y-69003000D01*
D57*
X98939000Y-123740000D02*
X98812000Y-123613000D01*
X94922107Y-122902893D02*
X94922107Y-125740393D01*
D55*
X129600000Y-122805000D02*
X129600000Y-121535000D01*
D56*
X157977107Y-136804107D02*
X157977107Y-134102562D01*
D55*
X124650000Y-123475000D02*
X123625000Y-124500000D01*
D56*
X192025000Y-119798000D02*
X192025000Y-86651000D01*
X122573000Y-136948000D02*
X108977000Y-136948000D01*
X188220000Y-85005000D02*
X190379000Y-85005000D01*
X179457000Y-47540000D02*
X176409000Y-50588000D01*
X185507669Y-47540000D02*
X179457000Y-47540000D01*
D55*
X111125000Y-124500000D02*
X108125000Y-127500000D01*
D56*
X192025000Y-86651000D02*
X190379000Y-85005000D01*
D59*
X96412500Y-68227500D02*
X96412500Y-67350000D01*
D56*
X185172000Y-135805000D02*
X182378000Y-135805000D01*
X100590000Y-136948000D02*
X108977000Y-136948000D01*
X163963000Y-115993000D02*
X163328000Y-115358000D01*
X192025000Y-120062000D02*
X192025000Y-128952000D01*
D59*
X94621000Y-69003000D02*
X95637000Y-69003000D01*
D56*
X99675000Y-67100000D02*
X99675000Y-69104000D01*
X96412500Y-67350000D02*
X99425000Y-67350000D01*
D55*
X132757500Y-122805000D02*
X132825000Y-122737500D01*
D59*
X83975000Y-76300000D02*
X83975000Y-74823000D01*
D56*
X192025000Y-128952000D02*
X185172000Y-135805000D01*
X163963000Y-125899000D02*
X163963000Y-115993000D01*
D57*
X96892893Y-126392893D02*
X98939000Y-128439000D01*
D56*
X156287500Y-62327500D02*
X153725000Y-62327500D01*
D59*
X92970000Y-72051000D02*
X94113000Y-70908000D01*
D56*
X179838000Y-138345000D02*
X159772000Y-138345000D01*
X190379000Y-85005000D02*
X190379000Y-50588000D01*
X182378000Y-135805000D02*
X179838000Y-138345000D01*
D57*
%TO.N,Net-(C19-Pad1)*%
X84762107Y-110512393D02*
X85074500Y-110200000D01*
X84762107Y-115282893D02*
X84762107Y-110512393D01*
%TO.N,Net-(C19-Pad2)*%
X87149500Y-110200000D02*
X87302107Y-110352607D01*
X87302107Y-110352607D02*
X87302107Y-115282893D01*
D55*
%TO.N,Net-(C21-Pad2)*%
X92382107Y-115282893D02*
X92382107Y-112643893D01*
X101903000Y-121538000D02*
X98812000Y-121538000D01*
X101987000Y-121454000D02*
X101903000Y-121538000D01*
X92382107Y-112643893D02*
X92462000Y-112564000D01*
D57*
%TO.N,Net-(C22-Pad2)*%
X82222107Y-110379393D02*
X82222107Y-115282893D01*
X82450500Y-110151000D02*
X82222107Y-110379393D01*
%TO.N,Net-(D1-Pad2)*%
X139275000Y-63725000D02*
X139275000Y-66200000D01*
%TO.N,Net-(D2-Pad2)*%
X136275000Y-63725000D02*
X136275000Y-66200000D01*
%TO.N,Net-(D3-Pad2)*%
X133275000Y-63725000D02*
X133275000Y-66200000D01*
%TO.N,Net-(D4-Pad2)*%
X130275000Y-63725000D02*
X130275000Y-66200000D01*
%TO.N,Net-(D5-Pad2)*%
X127275000Y-63725000D02*
X127275000Y-66200000D01*
%TO.N,Net-(D6-Pad2)*%
X124275000Y-63725000D02*
X124275000Y-66200000D01*
%TO.N,Net-(D7-Pad2)*%
X121275000Y-63725000D02*
X121275000Y-66200000D01*
%TO.N,Net-(D8-Pad2)*%
X118275000Y-63725000D02*
X118275000Y-66200000D01*
%TO.N,Net-(D9-Pad2)*%
X115275000Y-63725000D02*
X115275000Y-66200000D01*
%TO.N,Net-(D10-Pad2)*%
X112275000Y-63725000D02*
X112275000Y-66200000D01*
D58*
%TO.N,Net-(D11-Pad2)*%
X93375000Y-74375000D02*
X93400000Y-74350000D01*
X93375000Y-77150000D02*
X93375000Y-74375000D01*
%TO.N,Net-(D12-Pad2)*%
X90025000Y-74375000D02*
X90100000Y-74300000D01*
X90025000Y-77200000D02*
X90025000Y-74375000D01*
D55*
%TO.N,Net-(D13-Pad2)*%
X106559000Y-93985500D02*
X106559000Y-91010500D01*
X106559000Y-91010500D02*
X106534000Y-90985500D01*
%TO.N,Net-(D14-Pad2)*%
X106617786Y-87900714D02*
X106642786Y-87925714D01*
X106617786Y-84525714D02*
X106617786Y-87900714D01*
%TO.N,Net-(J1-Pad2)*%
X136150000Y-49815000D02*
X137028000Y-49815000D01*
X141611000Y-59732000D02*
X141611000Y-78655000D01*
X141611000Y-78655000D02*
X138508107Y-81757893D01*
X140849000Y-58970000D02*
X141611000Y-59732000D01*
X139198000Y-58970000D02*
X140849000Y-58970000D01*
X138436000Y-51223000D02*
X138436000Y-58208000D01*
X137028000Y-49815000D02*
X138436000Y-51223000D01*
X138436000Y-58208000D02*
X139198000Y-58970000D01*
%TO.N,/CS_LLS*%
X145875000Y-58575000D02*
X146025000Y-58425000D01*
X146026000Y-57401000D02*
X146026000Y-54509000D01*
X146025000Y-58425000D02*
X146025000Y-57375000D01*
D58*
%TO.N,/DI_LLS*%
X147145000Y-51717000D02*
X147126000Y-51736000D01*
X147126000Y-51736000D02*
X147126000Y-54509000D01*
%TO.N,/SCK_LLS*%
X149326000Y-51993000D02*
X149326000Y-54509000D01*
X149304000Y-51971000D02*
X149326000Y-51993000D01*
D55*
%TO.N,/DO_LLS*%
X144478000Y-50701000D02*
X143716000Y-49939000D01*
X143716000Y-49939000D02*
X143716000Y-47145000D01*
X174721000Y-44622000D02*
X174721000Y-48019000D01*
X151526000Y-54509000D02*
X151526000Y-51907000D01*
X151526000Y-51907000D02*
X150320000Y-50701000D01*
X150320000Y-50701000D02*
X144478000Y-50701000D01*
X171783000Y-41684000D02*
X174721000Y-44622000D01*
X145621000Y-37493000D02*
X147814000Y-35300000D01*
X171783000Y-36604000D02*
X171783000Y-41684000D01*
X145621000Y-45240000D02*
X145621000Y-37493000D01*
X143716000Y-47145000D02*
X145621000Y-45240000D01*
%TO.N,/Rx*%
X89842107Y-124581893D02*
X89842107Y-122902893D01*
X88144000Y-126280000D02*
X89842107Y-124581893D01*
%TO.N,/Tx*%
X87302107Y-123882562D02*
X87302107Y-122902893D01*
X80472107Y-130712562D02*
X87302107Y-123882562D01*
D58*
%TO.N,/MVCU_HBT*%
X185807000Y-97070000D02*
X182759000Y-97070000D01*
X184160893Y-57196893D02*
X187204000Y-60240000D01*
X187204000Y-95419000D02*
X187204000Y-95673000D01*
X135252045Y-98727044D02*
X140214000Y-103688999D01*
X187204000Y-131233000D02*
X186040107Y-132396893D01*
X110877000Y-135805000D02*
X109734000Y-134662000D01*
X187204000Y-95419000D02*
X187204000Y-131233000D01*
X148282107Y-132435893D02*
X144913000Y-135805000D01*
X110389438Y-131212562D02*
X111182107Y-131212562D01*
X140214000Y-110532000D02*
X140214000Y-115866000D01*
X144913000Y-135805000D02*
X110877000Y-135805000D01*
X187204000Y-60240000D02*
X187204000Y-95419000D01*
X187204000Y-95673000D02*
X185807000Y-97070000D01*
X186040107Y-132396893D02*
X182032669Y-132396893D01*
X109734000Y-131868000D02*
X110389438Y-131212562D01*
X140214000Y-103688999D02*
X140214000Y-109262000D01*
X182759000Y-97070000D02*
X182186107Y-96497107D01*
X148282107Y-131262562D02*
X148282107Y-132435893D01*
X140214000Y-109262000D02*
X140214000Y-110532000D01*
X182705776Y-57196893D02*
X184160893Y-57196893D01*
X182186107Y-96497107D02*
X182186107Y-94696893D01*
X109734000Y-134662000D02*
X109734000Y-131868000D01*
X140214000Y-115866000D02*
X140341000Y-115993000D01*
D55*
%TO.N,/I2C3_SCL*%
X149358000Y-98086000D02*
X151644000Y-95800000D01*
D58*
X157425000Y-139194500D02*
X157425000Y-140184000D01*
X139452000Y-98719604D02*
X137373365Y-96640969D01*
X157009000Y-140600000D02*
X120825000Y-140600000D01*
X143135000Y-104182000D02*
X139452000Y-100499000D01*
X139452000Y-100499000D02*
X139452000Y-98719604D01*
X119925000Y-139700000D02*
X119925000Y-138100000D01*
X191014000Y-122978000D02*
X191014000Y-88053000D01*
X120825000Y-140600000D02*
X119925000Y-139700000D01*
X143135000Y-104182000D02*
X143135000Y-123486000D01*
X190083500Y-123908500D02*
X191014000Y-122978000D01*
X189490000Y-86529000D02*
X188347000Y-86529000D01*
D55*
X151644000Y-95800000D02*
X151644000Y-95657000D01*
D58*
X157425000Y-140184000D02*
X157009000Y-140600000D01*
X143135000Y-123486000D02*
X143770000Y-124121000D01*
X191014000Y-88053000D02*
X189490000Y-86529000D01*
X137373365Y-96640969D02*
X137373365Y-96605724D01*
%TO.N,/VCU1_HBT*%
X138817000Y-102999107D02*
X134898491Y-99080598D01*
X138817000Y-112292000D02*
X138817000Y-102999107D01*
X175393000Y-103801000D02*
X175393000Y-106087000D01*
X174377000Y-102785000D02*
X175393000Y-103801000D01*
X139200000Y-112675000D02*
X138817000Y-112292000D01*
%TO.N,/I2C_SDA*%
X180953893Y-87771893D02*
X185026107Y-87771893D01*
X138817000Y-101007000D02*
X140341000Y-102531000D01*
X140341000Y-102531000D02*
X140849000Y-103039000D01*
D55*
X147834000Y-98340000D02*
X146818000Y-98340000D01*
D58*
X180219000Y-78655000D02*
X180219000Y-87037000D01*
X137019812Y-96959277D02*
X137055277Y-96959277D01*
D55*
X188855000Y-126407000D02*
X188855000Y-110786000D01*
D58*
X138309000Y-98213000D02*
X138817000Y-98721000D01*
D55*
X188855000Y-110786000D02*
X190125000Y-109516000D01*
D58*
X141738000Y-105579000D02*
X141738000Y-123867000D01*
X141738000Y-103928000D02*
X140849000Y-103039000D01*
D55*
X190125000Y-88815000D02*
X189617000Y-88307000D01*
D58*
X138817000Y-100372000D02*
X138817000Y-101007000D01*
X137055277Y-96959277D02*
X138309000Y-98213000D01*
D55*
X148977000Y-97197000D02*
X147834000Y-98340000D01*
D58*
X141738000Y-105579000D02*
X141738000Y-103928000D01*
D55*
X189617000Y-88307000D02*
X188347000Y-88307000D01*
X190125000Y-109516000D02*
X190125000Y-88815000D01*
D58*
X180219000Y-87037000D02*
X180953893Y-87771893D01*
D55*
X148977000Y-95657000D02*
X148977000Y-97197000D01*
D58*
X138817000Y-98721000D02*
X138817000Y-100372000D01*
X141738000Y-123867000D02*
X141484000Y-124121000D01*
%TO.N,/VCU4_HBT*%
X135642000Y-119412500D02*
X135642000Y-101945427D01*
X135604500Y-119450000D02*
X135642000Y-119412500D01*
X135642000Y-101945427D02*
X133837831Y-100141258D01*
%TO.N,/VCU2_HBT*%
X134577151Y-99434151D02*
X134544938Y-99434151D01*
X138200000Y-114575000D02*
X137547000Y-113922000D01*
X137547000Y-102404000D02*
X134577151Y-99434151D01*
X137547000Y-113922000D02*
X137547000Y-102404000D01*
%TO.N,/VCU3_HBT*%
X136658000Y-102277000D02*
X134191385Y-99810385D01*
X134191385Y-99810385D02*
X134191385Y-99787704D01*
X153676000Y-127169000D02*
X171964000Y-127169000D01*
X137050000Y-117225000D02*
X136658000Y-116833000D01*
X145675000Y-120946000D02*
X147453000Y-120946000D01*
X147453000Y-120946000D02*
X153676000Y-127169000D01*
X136658000Y-116833000D02*
X136658000Y-102277000D01*
%TO.N,/VCU5_HBT*%
X134880000Y-123745000D02*
X132825000Y-125800000D01*
X112567107Y-126957893D02*
X112567107Y-127357893D01*
X113725000Y-125800000D02*
X112567107Y-126957893D01*
X134880000Y-101890533D02*
X134880000Y-123745000D01*
X112567107Y-127357893D02*
X112567107Y-134052562D01*
X133484278Y-100494811D02*
X134880000Y-101890533D01*
X132825000Y-125800000D02*
X113725000Y-125800000D01*
%TO.N,/BOOT0*%
X133853002Y-84994003D02*
X134604005Y-84243000D01*
X136023000Y-84243000D02*
X137093893Y-83172107D01*
X134604005Y-84243000D02*
X136023000Y-84243000D01*
D55*
%TO.N,Net-(R2-Pad1)*%
X159871000Y-41119000D02*
X162186000Y-41119000D01*
X162186000Y-41119000D02*
X162371000Y-40934000D01*
%TO.N,/SD_MOSI*%
X139960000Y-88821855D02*
X139960000Y-87373339D01*
X142627000Y-84751000D02*
X142627000Y-60875000D01*
X156881000Y-41119000D02*
X156325000Y-41675000D01*
X155581000Y-59732000D02*
X156343000Y-58970000D01*
X156325000Y-58952000D02*
X156343000Y-58970000D01*
X138787579Y-89994276D02*
X139960000Y-88821855D01*
X157871000Y-41119000D02*
X156881000Y-41119000D01*
X139960000Y-87373339D02*
X140411339Y-86922000D01*
X156325000Y-41675000D02*
X156325000Y-58952000D01*
X142627000Y-60875000D02*
X143770000Y-59732000D01*
X140411339Y-86922000D02*
X140456000Y-86922000D01*
X140456000Y-86922000D02*
X142627000Y-84751000D01*
X143770000Y-59732000D02*
X155581000Y-59732000D01*
%TO.N,/HSE_OUT*%
X122442000Y-85902000D02*
X120728107Y-84188107D01*
X125105062Y-87165848D02*
X123841213Y-85902000D01*
X123841213Y-85902000D02*
X122442000Y-85902000D01*
%TO.N,Net-(R4-Pad1)*%
X162206000Y-48719000D02*
X162371000Y-48554000D01*
X159771000Y-48719000D02*
X162206000Y-48719000D01*
%TO.N,/SD_SCK*%
X139494685Y-90701382D02*
X140131817Y-90064250D01*
X140131817Y-90040183D02*
X143770000Y-86402000D01*
X157825000Y-48773000D02*
X157771000Y-48719000D01*
X144786000Y-60367000D02*
X156851000Y-60367000D01*
X156851000Y-60367000D02*
X157825000Y-59393000D01*
X143770000Y-86402000D02*
X143770000Y-61383000D01*
X140131817Y-90064250D02*
X140131817Y-90040183D01*
X157825000Y-59393000D02*
X157825000Y-48773000D01*
X143770000Y-61383000D02*
X144786000Y-60367000D01*
%TO.N,Net-(R5-Pad1)*%
X169991000Y-51094000D02*
X172496000Y-51094000D01*
X172496000Y-51094000D02*
X172671000Y-50919000D01*
D58*
%TO.N,/SD_CS*%
X149485000Y-86529000D02*
X144374175Y-86529000D01*
X174671000Y-50919000D02*
X174671000Y-52700000D01*
X144374175Y-86529000D02*
X139848239Y-91054936D01*
X174671000Y-52700000D02*
X174704000Y-52733000D01*
D55*
%TO.N,Net-(R6-Pad1)*%
X171414000Y-43474000D02*
X172721000Y-44781000D01*
X172721000Y-44781000D02*
X172721000Y-48019000D01*
X169991000Y-43474000D02*
X171414000Y-43474000D01*
D58*
%TO.N,/E0*%
X137166000Y-79595039D02*
X137166000Y-79544000D01*
X139239000Y-68200000D02*
X139275000Y-68200000D01*
X137163375Y-79544000D02*
X137163375Y-78271375D01*
X132777171Y-83983868D02*
X137166000Y-79595039D01*
X134118000Y-73321000D02*
X139239000Y-68200000D01*
X137163375Y-78271375D02*
X134118000Y-75226000D01*
X134118000Y-75226000D02*
X134118000Y-73321000D01*
%TO.N,/E1*%
X133549336Y-82504597D02*
X133549336Y-82150337D01*
X134626000Y-70908000D02*
X136275000Y-69259000D01*
X136275000Y-69259000D02*
X136275000Y-68200000D01*
X132423618Y-83630315D02*
X133549336Y-82504597D01*
%TO.N,/E2*%
X131070000Y-71543000D02*
X133275000Y-69338000D01*
X129347703Y-82923208D02*
X129347703Y-81012297D01*
X129347703Y-81012297D02*
X131070000Y-79290000D01*
X131070000Y-79290000D02*
X131070000Y-71543000D01*
X133275000Y-69338000D02*
X133275000Y-68200000D01*
%TO.N,/E3*%
X127895000Y-82177611D02*
X127895000Y-81449000D01*
X128994150Y-83276761D02*
X127895000Y-82177611D01*
X127895000Y-81449000D02*
X130275000Y-79069000D01*
X130275000Y-79069000D02*
X130275000Y-68200000D01*
%TO.N,/E4*%
X127732644Y-82793073D02*
X127268785Y-82329214D01*
X128640596Y-83630315D02*
X128605242Y-83630315D01*
X127268785Y-82329214D02*
X127268785Y-81186215D01*
X127268785Y-81186215D02*
X129546000Y-78909000D01*
X129546000Y-78909000D02*
X129546000Y-75861000D01*
X128605242Y-83630315D02*
X127768000Y-82793073D01*
X127275000Y-73590000D02*
X127275000Y-68200000D01*
X127768000Y-82793073D02*
X127732644Y-82793073D01*
X129546000Y-75861000D02*
X127275000Y-73590000D01*
%TO.N,/E5*%
X128911000Y-78782000D02*
X128911000Y-76877000D01*
X124275000Y-72241000D02*
X124275000Y-68200000D01*
X126752000Y-82448825D02*
X126752000Y-80941000D01*
X128287043Y-83983868D02*
X126752000Y-82448825D01*
X126752000Y-80941000D02*
X128911000Y-78782000D01*
X128911000Y-76877000D02*
X124275000Y-72241000D01*
%TO.N,/E6*%
X121275000Y-70765000D02*
X121275000Y-68200000D01*
X128276000Y-77766000D02*
X121275000Y-70765000D01*
X128276000Y-78655000D02*
X128276000Y-77766000D01*
X126135376Y-82573624D02*
X126135376Y-80795624D01*
X127899173Y-84337421D02*
X126135376Y-82573624D01*
X127933490Y-84337421D02*
X127899173Y-84337421D01*
X126135376Y-80795624D02*
X128276000Y-78655000D01*
D60*
%TO.N,/C13*%
X118243000Y-69638000D02*
X118275000Y-69606000D01*
X129927000Y-87545000D02*
X129726855Y-87545000D01*
X118275000Y-69606000D02*
X118275000Y-68200000D01*
X129726855Y-87545000D02*
X127226383Y-85044528D01*
%TO.N,/C14*%
X115322000Y-68247000D02*
X115275000Y-68200000D01*
X115322000Y-69765000D02*
X115322000Y-68247000D01*
X125345873Y-83871127D02*
X126872829Y-85398082D01*
%TO.N,/C15*%
X121825000Y-79443000D02*
X121825000Y-75900000D01*
X124274000Y-84559000D02*
X124274000Y-81892000D01*
D55*
X112275000Y-68200000D02*
X112360000Y-68200000D01*
D60*
X121825000Y-75900000D02*
X117625000Y-71700000D01*
X125736000Y-85005000D02*
X124720000Y-85005000D01*
X117625000Y-71700000D02*
X115860000Y-71700000D01*
X124274000Y-81892000D02*
X121825000Y-79443000D01*
X124720000Y-85005000D02*
X124274000Y-84559000D01*
X126482635Y-85751635D02*
X125736000Y-85005000D01*
X115860000Y-71700000D02*
X112360000Y-68200000D01*
X126519276Y-85751635D02*
X126482635Y-85751635D01*
D55*
%TO.N,/RSSI*%
X91954000Y-97705000D02*
X98685000Y-90974000D01*
X104522500Y-90974000D02*
X104534000Y-90985500D01*
X123728427Y-102225000D02*
X126519276Y-99434151D01*
X98685000Y-90974000D02*
X104522500Y-90974000D01*
X123675000Y-102225000D02*
X123728427Y-102225000D01*
%TO.N,Net-(R23-Pad2)*%
X85100640Y-86152640D02*
X85604000Y-86656000D01*
X101098000Y-86656000D02*
X103228286Y-84525714D01*
X85100640Y-84651800D02*
X85100640Y-86152640D01*
X85604000Y-86656000D02*
X101098000Y-86656000D01*
X103228286Y-84525714D02*
X104617786Y-84525714D01*
D58*
%TO.N,/SD_MISO*%
X141611000Y-86910000D02*
X141611000Y-87877961D01*
X141611000Y-87877961D02*
X139141132Y-90347829D01*
D55*
%TO.N,/RST*%
X83101660Y-104652340D02*
X83101660Y-106648200D01*
X87636000Y-100118000D02*
X83101660Y-104652340D01*
X91192000Y-100118000D02*
X87636000Y-100118000D01*
X123841107Y-99991000D02*
X123831000Y-99991000D01*
X125458616Y-98373491D02*
X123841107Y-99991000D01*
%TO.N,/Xbee_Rx*%
X117862000Y-89196000D02*
X120064147Y-89196000D01*
X120064147Y-89196000D02*
X121569529Y-90701382D01*
X110242000Y-96816000D02*
X117862000Y-89196000D01*
X109988000Y-96816000D02*
X110242000Y-96816000D01*
%TO.N,/Xbee_Tx*%
X118370000Y-90085000D02*
X120246039Y-90085000D01*
X120246039Y-90085000D02*
X121215975Y-91054936D01*
X85029380Y-98721000D02*
X109734000Y-98721000D01*
X109734000Y-98721000D02*
X118370000Y-90085000D01*
X77102180Y-106648200D02*
X85029380Y-98721000D01*
D58*
%TO.N,/USART2_Tx*%
X118370000Y-90974000D02*
X104625000Y-104719000D01*
X120427933Y-90974000D02*
X118370000Y-90974000D01*
X120862422Y-91408489D02*
X120427933Y-90974000D01*
X104625000Y-104719000D02*
X104625000Y-105500000D01*
%TO.N,/USART2_Rx*%
X119585125Y-92500000D02*
X117625000Y-92500000D01*
X120862422Y-93777297D02*
X119585125Y-92500000D01*
X107925000Y-105986000D02*
X105871000Y-108040000D01*
X107925000Y-102200000D02*
X107925000Y-105986000D01*
X105871000Y-108040000D02*
X104625000Y-108040000D01*
X117625000Y-92500000D02*
X107925000Y-102200000D01*
%TO.N,/DAC_1*%
X120436539Y-96324500D02*
X119825000Y-96324500D01*
X111925000Y-100800000D02*
X109825000Y-102900000D01*
X114525000Y-99200000D02*
X112925000Y-100800000D01*
X109825000Y-102900000D02*
X109825000Y-108065000D01*
X121923082Y-94837957D02*
X120436539Y-96324500D01*
X112925000Y-100800000D02*
X111925000Y-100800000D01*
%TO.N,/DAC_2*%
X112125000Y-101900000D02*
X112125000Y-108305000D01*
X112125000Y-108305000D02*
X109825000Y-110605000D01*
X115568145Y-101900000D02*
X112125000Y-101900000D01*
X122276635Y-95191510D02*
X115568145Y-101900000D01*
%TO.N,/ADC_in6*%
X114425000Y-103525000D02*
X114650253Y-103525000D01*
X114650253Y-103525000D02*
X122630189Y-95545064D01*
%TO.N,/ADC_in7*%
X114846000Y-106065000D02*
X114425000Y-106065000D01*
X122983742Y-95898617D02*
X117735000Y-101147359D01*
X117735000Y-101147359D02*
X117735000Y-103176000D01*
X117735000Y-103176000D02*
X114846000Y-106065000D01*
D55*
%TO.N,/ADC_in14*%
X118325000Y-104705000D02*
X114425000Y-108605000D01*
X118325000Y-101264467D02*
X118325000Y-104705000D01*
X123337296Y-96252171D02*
X118325000Y-101264467D01*
D58*
%TO.N,/ADC_in15*%
X119025000Y-101241000D02*
X119025000Y-106000000D01*
X123690849Y-96605724D02*
X123660276Y-96605724D01*
X119025000Y-106000000D02*
X114425000Y-110600000D01*
X123660276Y-96605724D02*
X119025000Y-101241000D01*
X114425000Y-110600000D02*
X114425000Y-111145000D01*
D55*
%TO.N,/ADC_in8*%
X119734000Y-106391000D02*
X116325000Y-109800000D01*
X119734000Y-101269679D02*
X119734000Y-106391000D01*
X116325000Y-109800000D02*
X116325000Y-112900000D01*
X116325000Y-112900000D02*
X115540000Y-113685000D01*
X115540000Y-113685000D02*
X114425000Y-113685000D01*
X124044402Y-96959277D02*
X119734000Y-101269679D01*
%TO.N,/ADC_in9*%
X121025000Y-100685787D02*
X121025000Y-102700000D01*
X121225000Y-116600000D02*
X121225000Y-118300000D01*
X124397956Y-97312831D02*
X121025000Y-100685787D01*
X121225000Y-118300000D02*
X121325000Y-118400000D01*
X121325000Y-120800000D02*
X121325000Y-118400000D01*
%TO.N,/gpio*%
X110496000Y-117136000D02*
X106825000Y-113465000D01*
X126589250Y-100778389D02*
X126367932Y-100778389D01*
X106205000Y-110580000D02*
X104625000Y-110580000D01*
X117325000Y-109821321D02*
X117325000Y-114879000D01*
X106825000Y-111200000D02*
X106205000Y-110580000D01*
X126367932Y-100778389D02*
X117325000Y-109821321D01*
X127226383Y-100141258D02*
X126589250Y-100778389D01*
X115068000Y-117136000D02*
X110496000Y-117136000D01*
X117325000Y-114879000D02*
X115068000Y-117136000D01*
X106825000Y-113465000D02*
X106825000Y-111200000D01*
%TO.N,/IMU_Tx*%
X110612000Y-118787000D02*
X83572000Y-118787000D01*
X117775000Y-115550000D02*
X114538000Y-118787000D01*
X126375000Y-102150000D02*
X118425000Y-110100000D01*
X127338961Y-102150000D02*
X126375000Y-102150000D01*
X118425000Y-110100000D02*
X118425000Y-114900000D01*
X128287043Y-101201918D02*
X127338961Y-102150000D01*
X118425000Y-114900000D02*
X117775000Y-115550000D01*
X82222107Y-120136893D02*
X82222107Y-122902893D01*
X114538000Y-118787000D02*
X110612000Y-118787000D01*
X83572000Y-118787000D02*
X82222107Y-120136893D01*
%TO.N,/IMU_Rx*%
X127396067Y-102800000D02*
X126925000Y-102800000D01*
X126925000Y-102800000D02*
X119125000Y-110600000D01*
X84762107Y-121025893D02*
X84762107Y-122902893D01*
X119125000Y-110600000D02*
X119125000Y-115500000D01*
X114441000Y-120184000D02*
X85604000Y-120184000D01*
X128640596Y-101555471D02*
X127396067Y-102800000D01*
X119125000Y-115500000D02*
X114441000Y-120184000D01*
X85604000Y-120184000D02*
X84762107Y-121025893D01*
D58*
%TO.N,/SPI2_SCK*%
X132682196Y-102521157D02*
X132682196Y-107142804D01*
X132070064Y-101909025D02*
X132682196Y-102521157D01*
X124625000Y-109100000D02*
X122925000Y-110800000D01*
X122925000Y-110800000D02*
X122925000Y-112700000D01*
X130725000Y-109100000D02*
X124625000Y-109100000D01*
X132682196Y-107142804D02*
X130725000Y-109100000D01*
%TO.N,/SPI2_MISO*%
X133483000Y-102614853D02*
X133483000Y-107542000D01*
X133483000Y-107542000D02*
X131125000Y-109900000D01*
X126825000Y-109900000D02*
X125465000Y-111260000D01*
X131125000Y-109900000D02*
X126825000Y-109900000D01*
X132423618Y-101555471D02*
X133483000Y-102614853D01*
X125465000Y-111260000D02*
X125465000Y-112700000D01*
%TO.N,/SPI2_MOSI*%
X129025000Y-110700000D02*
X128005000Y-111720000D01*
X134118000Y-108207000D02*
X131625000Y-110700000D01*
X132777171Y-101201918D02*
X132788918Y-101201918D01*
X134118000Y-102531000D02*
X134118000Y-108207000D01*
X131625000Y-110700000D02*
X129025000Y-110700000D01*
X132788918Y-101201918D02*
X134118000Y-102531000D01*
X128005000Y-111720000D02*
X128005000Y-112700000D01*
D55*
%TO.N,/CAN_Rx*%
X138434025Y-95545064D02*
X139452000Y-96563039D01*
X161488000Y-116628000D02*
X161677000Y-116817000D01*
X158328000Y-116628000D02*
X161488000Y-116628000D01*
X161677000Y-116817000D02*
X161677000Y-120565000D01*
X139452000Y-96563039D02*
X139452000Y-97752000D01*
X139452000Y-97752000D02*
X158328000Y-116628000D01*
%TO.N,/CAN_Tx*%
X155843000Y-112818000D02*
X161488000Y-112818000D01*
X161482000Y-112812000D02*
X161482000Y-108405000D01*
X139952000Y-96927000D02*
X155843000Y-112818000D01*
X139952000Y-96355933D02*
X139952000Y-96927000D01*
X161488000Y-112818000D02*
X161482000Y-112812000D01*
X138787579Y-95191510D02*
X139952000Y-96355933D01*
%TO.N,/SWDIO*%
X150781000Y-99356000D02*
X154607000Y-95530000D01*
X143659175Y-99356000D02*
X150781000Y-99356000D01*
X154607000Y-90993000D02*
X155400000Y-90200000D01*
X139141132Y-94837957D02*
X143659175Y-99356000D01*
X154607000Y-95530000D02*
X154607000Y-90993000D01*
D58*
%TO.N,/SWCLK*%
X143557281Y-88053000D02*
X157486000Y-88053000D01*
X157486000Y-88053000D02*
X157940000Y-88507000D01*
X140201792Y-91408489D02*
X143557281Y-88053000D01*
X157940000Y-88507000D02*
X157940000Y-90200000D01*
%TO.N,/I2C1_SCL*%
X138826562Y-79348691D02*
X138826562Y-75851562D01*
X133484278Y-84690975D02*
X138826562Y-79348691D01*
%TO.N,/I2C1_SDA*%
X138182000Y-79286145D02*
X138182000Y-78274000D01*
X135515000Y-75607000D02*
X135515000Y-75571022D01*
X133130724Y-84337421D02*
X138182000Y-79286145D01*
X138182000Y-78274000D02*
X135515000Y-75607000D01*
X135515000Y-75571022D02*
X137030511Y-74055511D01*
%TO.N,/display_d*%
X137674000Y-87572321D02*
X137019812Y-88226509D01*
X137674000Y-84876000D02*
X137674000Y-87572321D01*
X139275000Y-83275000D02*
X137674000Y-84876000D01*
%TO.N,/display_c*%
X145238500Y-64867500D02*
X146105000Y-64867500D01*
X138124000Y-85815695D02*
X138124000Y-87829427D01*
X144532000Y-65574000D02*
X145238500Y-64867500D01*
X138124000Y-87829427D02*
X137373365Y-88580062D01*
X141564695Y-82375000D02*
X138124000Y-85815695D01*
X144532000Y-80179000D02*
X144532000Y-65574000D01*
X141700000Y-82375000D02*
X141564695Y-82375000D01*
%TO.N,/display_b*%
X138574000Y-88086533D02*
X137726918Y-88933615D01*
X139134500Y-85830500D02*
X138574000Y-86391000D01*
X138574000Y-86391000D02*
X138574000Y-88086533D01*
D57*
%TO.N,Net-(U10-Pad1)*%
X158187500Y-80107500D02*
X158995000Y-79300000D01*
X153725000Y-80107500D02*
X158187500Y-80107500D01*
%TO.N,Net-(U10-Pad2)*%
X161535000Y-78259000D02*
X161535000Y-79300000D01*
X160843500Y-77567500D02*
X161535000Y-78259000D01*
X153725000Y-77567500D02*
X160843500Y-77567500D01*
%TO.N,Net-(U10-Pad4)*%
X153725000Y-75027500D02*
X165542500Y-75027500D01*
X165542500Y-75027500D02*
X166615000Y-76100000D01*
X166615000Y-76100000D02*
X166615000Y-79300000D01*
%TO.N,Net-(U10-Pad6)*%
X169155000Y-64060000D02*
X169155000Y-64319000D01*
X160986500Y-72487500D02*
X153725000Y-72487500D01*
X169155000Y-64319000D02*
X160986500Y-72487500D01*
%TO.N,Net-(U10-Pad7)*%
X166615000Y-64060000D02*
X160727500Y-69947500D01*
X160727500Y-69947500D02*
X153725000Y-69947500D01*
%TO.N,Net-(U10-Pad10)*%
X153725000Y-67407500D02*
X155647500Y-67407500D01*
X155647500Y-67407500D02*
X158995000Y-64060000D01*
D58*
%TO.N,/display_a*%
X139024000Y-87211000D02*
X141484000Y-84751000D01*
X138080472Y-89287169D02*
X139024000Y-88343641D01*
X139024000Y-88343641D02*
X139024000Y-88180000D01*
X139024000Y-88180000D02*
X139024000Y-87211000D01*
%TO.N,/SWo*%
X136800000Y-85617893D02*
X135605598Y-86812295D01*
X136800000Y-84800000D02*
X136800000Y-85617893D01*
D59*
%TO.N,/mornsun_minus*%
X111160214Y-40301000D02*
X80651000Y-40301000D01*
X124339000Y-47540000D02*
X125355000Y-48556000D01*
X79872107Y-41079893D02*
X79872107Y-42913893D01*
X80651000Y-40301000D02*
X79872107Y-41079893D01*
X125340000Y-43999000D02*
X127768000Y-43999000D01*
X114152107Y-46243107D02*
X114152107Y-43292893D01*
X124339000Y-47540000D02*
X124339000Y-45000000D01*
X124339000Y-45000000D02*
X125340000Y-43999000D01*
X124339000Y-47540000D02*
X115449000Y-47540000D01*
X125355000Y-48556000D02*
X125355000Y-51350000D01*
X114152107Y-43292893D02*
X111160214Y-40301000D01*
X115449000Y-47540000D02*
X114152107Y-46243107D01*
%TO.N,/mornsun_Vin*%
X130689000Y-40047000D02*
X130689000Y-41952000D01*
X130689000Y-41952000D02*
X130689000Y-50334000D01*
X117227000Y-38396000D02*
X129038000Y-38396000D01*
X130689000Y-50334000D02*
X130054000Y-50969000D01*
D56*
X96526000Y-59478000D02*
X96512500Y-59464500D01*
X96512500Y-58150000D02*
X99325000Y-58150000D01*
D59*
X75698000Y-38396000D02*
X74792107Y-39301893D01*
X119259000Y-44044607D02*
X119232107Y-44071500D01*
D56*
X99325000Y-58150000D02*
X99625000Y-57850000D01*
D59*
X74792107Y-42913893D02*
X79037214Y-47159000D01*
X74792107Y-39301893D02*
X74792107Y-42913893D01*
X117227000Y-38396000D02*
X75698000Y-38396000D01*
X96566000Y-47159000D02*
X97472349Y-46252651D01*
X79037214Y-47159000D02*
X96566000Y-47159000D01*
X119259000Y-40428000D02*
X117227000Y-38396000D01*
X129038000Y-38396000D02*
X130689000Y-40047000D01*
X97472349Y-46252651D02*
X97472349Y-44200000D01*
D56*
X96512500Y-59464500D02*
X96512500Y-58150000D01*
X96399000Y-59605000D02*
X96526000Y-59478000D01*
D59*
X119259000Y-40428000D02*
X119259000Y-44044607D01*
D56*
%TO.N,Net-(C26-Pad1)*%
X88100000Y-74300000D02*
X88100000Y-73492000D01*
X95891000Y-50969000D02*
X96512500Y-51590500D01*
X88100000Y-73492000D02*
X88652000Y-72940000D01*
X91192000Y-52112000D02*
X92335000Y-50969000D01*
X82007000Y-78782000D02*
X85604000Y-78782000D01*
X71625000Y-71900000D02*
X73751041Y-69773959D01*
X88652000Y-72940000D02*
X90811000Y-72940000D01*
X96512500Y-51590500D02*
X96512500Y-52950000D01*
X96512500Y-54384500D02*
X97678000Y-55550000D01*
X99625000Y-55550000D02*
X105925000Y-55550000D01*
X69672349Y-71900000D02*
X71625000Y-71900000D01*
X67172107Y-60693893D02*
X72976893Y-60693893D01*
X87038000Y-74300000D02*
X88100000Y-74300000D01*
X72976893Y-60693893D02*
X73751041Y-61468041D01*
X73751041Y-68126041D02*
X73751041Y-68626041D01*
X90811000Y-72940000D02*
X91192000Y-72559000D01*
X92335000Y-50969000D02*
X95891000Y-50969000D01*
X86366000Y-74972000D02*
X87038000Y-74300000D01*
X81435000Y-76300000D02*
X81435000Y-78125000D01*
X85604000Y-78782000D02*
X86366000Y-78020000D01*
X73751041Y-68626041D02*
X80025000Y-74900000D01*
X91192000Y-72559000D02*
X91192000Y-52239000D01*
X73751041Y-61468041D02*
X73751041Y-68126041D01*
X96512500Y-52950000D02*
X96512500Y-54384500D01*
X80035000Y-74900000D02*
X81435000Y-76300000D01*
X97678000Y-55550000D02*
X99625000Y-55550000D01*
X86366000Y-78020000D02*
X86366000Y-74972000D01*
X81425000Y-78200000D02*
X82007000Y-78782000D01*
X80025000Y-74900000D02*
X80035000Y-74900000D01*
X73751041Y-69773959D02*
X73751041Y-68126041D01*
D60*
%TO.N,/CAN_N*%
X175422000Y-125349613D02*
X175422000Y-116721200D01*
X181251108Y-90991894D02*
X179038281Y-90991894D01*
X170706999Y-114948001D02*
X169932000Y-115723000D01*
X169932000Y-119168000D02*
X168535000Y-120565000D01*
X182032669Y-129626893D02*
X181202021Y-129626893D01*
X178764281Y-128691894D02*
X175422000Y-125349613D01*
X115181800Y-126900000D02*
X148068200Y-126900000D01*
X151987106Y-130327563D02*
X151987106Y-129809694D01*
X173648801Y-114948001D02*
X170706999Y-114948001D01*
X179038281Y-90991894D02*
X178724000Y-90677613D01*
X169932000Y-115723000D02*
X172075000Y-115723000D01*
X114887106Y-127194694D02*
X115181800Y-126900000D01*
X150100000Y-128931800D02*
X150100000Y-131129058D01*
X177708000Y-112216801D02*
X176081033Y-113843768D01*
X148068200Y-126900000D02*
X150100000Y-128931800D01*
X182186107Y-91926893D02*
X181251108Y-90991894D01*
D58*
X169567000Y-115358000D02*
X169932000Y-115723000D01*
D60*
X172075000Y-115723000D02*
X172926268Y-116574268D01*
X180125800Y-55316000D02*
X181816669Y-55316000D01*
X182032669Y-129626893D02*
X181097670Y-128691894D01*
X178724000Y-90677613D02*
X178724000Y-56717800D01*
X169932000Y-115723000D02*
X169932000Y-119168000D01*
X150100000Y-131129058D02*
X150233504Y-131262562D01*
X178785171Y-93035000D02*
X177708000Y-94112171D01*
X182186107Y-91926893D02*
X182186107Y-92745496D01*
X182186107Y-92745496D02*
X181896603Y-93035000D01*
X152302864Y-129493936D02*
X181069064Y-129493936D01*
X151052107Y-131262562D02*
X151987106Y-130327563D01*
X181816669Y-55316000D02*
X182705776Y-54426893D01*
X113952107Y-131212562D02*
X114887106Y-130277563D01*
X151987106Y-129809694D02*
X152302864Y-129493936D01*
X178724000Y-56717800D02*
X180125800Y-55316000D01*
X176081033Y-113843768D02*
X175656768Y-113843768D01*
X175422000Y-116721200D02*
X173648801Y-114948001D01*
X181097670Y-128691894D02*
X178764281Y-128691894D01*
X152119900Y-129676900D02*
X152302864Y-129493936D01*
X181896603Y-93035000D02*
X178785171Y-93035000D01*
X150233504Y-131262562D02*
X151052107Y-131262562D01*
X114887106Y-130277563D02*
X114887106Y-127194694D01*
D58*
X166438000Y-115358000D02*
X169567000Y-115358000D01*
D60*
X177708000Y-94112171D02*
X177708000Y-112216801D01*
X168535000Y-120565000D02*
X166503000Y-120565000D01*
X181202021Y-129626893D02*
X181069064Y-129493936D01*
%TO.N,/CAN_P*%
X149650000Y-129118200D02*
X149650000Y-131475000D01*
X176409000Y-115997800D02*
X175872000Y-116534800D01*
D55*
X185545776Y-53041893D02*
X185545776Y-53587224D01*
D58*
X169567000Y-114088000D02*
X169932000Y-113723000D01*
D60*
X182541107Y-93026893D02*
X182083000Y-93485000D01*
X152437107Y-134102562D02*
X152437107Y-129996093D01*
X176399232Y-114586232D02*
X176399232Y-115602232D01*
X185026107Y-90541893D02*
X183286107Y-92281893D01*
X178950680Y-128241893D02*
X175872000Y-125163213D01*
X179174000Y-90491213D02*
X179174000Y-56904200D01*
X175872000Y-125163213D02*
X175872000Y-116534800D01*
D58*
X166438000Y-114088000D02*
X169567000Y-114088000D01*
D60*
X152277562Y-134102562D02*
X152437107Y-134102562D01*
X147881800Y-127350000D02*
X149650000Y-129118200D01*
X169932000Y-113723000D02*
X169932000Y-107992000D01*
X185545776Y-53643224D02*
X185545776Y-53041893D01*
X152438100Y-129995100D02*
X152489264Y-129943936D01*
X180854000Y-130979000D02*
X182632000Y-130979000D01*
X115368200Y-127350000D02*
X147881800Y-127350000D01*
X176399232Y-115602232D02*
X176409000Y-115612000D01*
X183286107Y-92382528D02*
X182641742Y-93026893D01*
X178158000Y-94298571D02*
X178158000Y-112403199D01*
X185026107Y-90541893D02*
X179224680Y-90541893D01*
X176399232Y-114161967D02*
X176399232Y-114586232D01*
X180312200Y-55766000D02*
X183169000Y-55766000D01*
X179224680Y-90541893D02*
X179174000Y-90491213D01*
X173835199Y-114497999D02*
X170706999Y-114497999D01*
X185545776Y-53389224D02*
X185545776Y-53041893D01*
X179818936Y-129943936D02*
X180854000Y-130979000D01*
X184872669Y-128241893D02*
X178950680Y-128241893D01*
X182083000Y-93485000D02*
X178971571Y-93485000D01*
X183286107Y-92281893D02*
X183286107Y-92382528D01*
X152489264Y-129943936D02*
X179818936Y-129943936D01*
X175872000Y-116534800D02*
X173835199Y-114497999D01*
X115337107Y-134052562D02*
X115337107Y-127381093D01*
X179174000Y-56904200D02*
X180312200Y-55766000D01*
X169932000Y-107992000D02*
X168789000Y-106849000D01*
X178971571Y-93485000D02*
X178158000Y-94298571D01*
X170706999Y-114497999D02*
X169932000Y-113723000D01*
X149650000Y-131475000D02*
X152277562Y-134102562D01*
X168789000Y-106849000D02*
X166630000Y-106849000D01*
X115337107Y-127381093D02*
X115368200Y-127350000D01*
X152437107Y-129996093D02*
X152489264Y-129943936D01*
X178158000Y-112403199D02*
X176399232Y-114161967D01*
X184872669Y-128738331D02*
X184872669Y-128241893D01*
X183169000Y-55766000D02*
X185545776Y-53389224D01*
X182632000Y-130979000D02*
X184872669Y-128738331D01*
X176409000Y-115612000D02*
X176409000Y-115997800D01*
X182641742Y-93026893D02*
X182541107Y-93026893D01*
D55*
%TO.N,Net-(C30-Pad1)*%
X126462500Y-119762500D02*
X126462500Y-116400000D01*
X124650000Y-120265000D02*
X125960000Y-120265000D01*
X125960000Y-120265000D02*
X126462500Y-119762500D01*
%TO.N,Net-(R24-Pad1)*%
X123290000Y-121535000D02*
X124650000Y-121535000D01*
X122925000Y-121900000D02*
X123290000Y-121535000D01*
X122425000Y-122800000D02*
X122925000Y-122300000D01*
X121325000Y-122800000D02*
X122425000Y-122800000D01*
X122925000Y-122300000D02*
X122925000Y-121900000D01*
%TD*%
M02*
