M48
; DRILL file {KiCad 6.0.11-2627ca5db0~126~ubuntu20.04.1} date Wed May 10 16:13:08 2023
; FORMAT={-:-/ absolute / inch / decimal}
; #@! TF.CreationDate,2023-05-10T16:13:08+05:30
; #@! TF.GenerationSoftware,Kicad,Pcbnew,6.0.11-2627ca5db0~126~ubuntu20.04.1
; #@! TF.FileFunction,Plated,1,4,PTH
FMAT,2
INCH
; #@! TA.AperFunction,Plated,PTH,ViaDrill
T1C0.0157
; #@! TA.AperFunction,Plated,PTH,ComponentDrill
T2C0.0300
; #@! TA.AperFunction,Plated,PTH,ComponentDrill
T3C0.0314
; #@! TA.AperFunction,Plated,PTH,ComponentDrill
T4C0.0315
; #@! TA.AperFunction,Plated,PTH,ComponentDrill
T5C0.0394
; #@! TA.AperFunction,Plated,PTH,ComponentDrill
T6C0.0433
; #@! TA.AperFunction,Plated,PTH,ComponentDrill
T7C0.0551
; #@! TA.AperFunction,Plated,PTH,ComponentDrill
T8C0.0630
; #@! TA.AperFunction,Plated,PTH,ComponentDrill
T9C0.1260
%
G90
G05
T1
X2.5502Y-4.314
X2.5512Y-4.2047
X2.5512Y-4.2559
X2.6063Y-4.314
X2.6073Y-4.2047
X2.6073Y-4.2559
X2.6654Y-5.4803
X2.6663Y-5.3711
X2.6663Y-5.4222
X2.6693Y-4.314
X2.6703Y-4.2047
X2.6703Y-4.2559
X2.689Y-1.8967
X2.69Y-1.7874
X2.69Y-1.8386
X2.7215Y-5.4803
X2.7224Y-5.3711
X2.7224Y-5.4222
X2.7451Y-1.8967
X2.7461Y-1.7874
X2.7461Y-1.8386
X2.7844Y-5.4803
X2.7854Y-5.3711
X2.7854Y-5.4222
X2.8081Y-1.8967
X2.8091Y-1.7874
X2.8091Y-1.8386
X2.9419Y-3.6673
X2.9429Y-3.5581
X2.9429Y-3.6093
X2.998Y-3.6673
X2.999Y-3.5581
X2.999Y-3.6093
X3.0197Y-2.3543
X3.0207Y-2.2451
X3.0207Y-2.2963
X3.0452Y-4.4217
X3.061Y-3.6673
X3.062Y-3.5581
X3.062Y-3.6093
X3.0758Y-2.3543
X3.0768Y-2.2451
X3.0768Y-2.2963
X3.1388Y-2.3543
X3.1398Y-2.2451
X3.1398Y-2.2963
X3.4652Y-2.9817
X3.4702Y-4.9717
X3.5138Y-3.6722
X3.5148Y-3.563
X3.5148Y-3.6142
X3.5502Y-2.7667
X3.5699Y-3.6722
X3.5709Y-3.563
X3.5709Y-3.6142
X3.5902Y-3.9417
X3.6202Y-3.8467
X3.6302Y-1.8567
X3.6329Y-3.6722
X3.6339Y-3.563
X3.6339Y-3.6142
X3.6402Y-4.4317
X3.6502Y-2.6817
X3.6602Y-2.8367
X3.7752Y-2.1917
X3.7902Y-2.7667
X3.7952Y-2.3467
X3.8202Y-3.3517
X3.9252Y-2.7217
X3.9552Y-2.3717
X3.9602Y-5.3917
X4.0152Y-4.7817
X4.0402Y-2.0117
X4.0512Y-4.9793
X4.0522Y-4.8701
X4.0522Y-4.9213
X4.0549Y-3.4621
X4.0549Y-3.7021
X4.1073Y-4.9793
X4.1083Y-4.8701
X4.1083Y-4.9213
X4.1703Y-4.9793
X4.1713Y-4.8701
X4.1713Y-4.9213
X4.3252Y-3.2467
X4.3302Y-3.8117
X4.4144Y-3.9094
X4.4213Y-2.3622
X4.4246Y-3.0039
X4.4402Y-3.4167
X4.4452Y-3.2817
X4.5089Y-3.9055
X4.5402Y-2.7467
X4.6552Y-2.7417
X4.6555Y-2.3563
X4.6624Y-3.7047
X4.6644Y-3.1378
X4.7096Y-4.5945
X4.7175Y-3.7923
X4.7215Y-5.437
X4.7648Y-4.0433
X4.7726Y-4.5906
X4.7802Y-3.4567
X4.8257Y-5.3917
X4.8302Y-2.9117
X4.8602Y-3.2917
X4.8691Y-4.0246
X4.875Y-4.252
X4.8752Y-3.9367
X4.8852Y-5.4467
X4.8917Y-2.3642
X4.9349Y-3.302
X4.9941Y-3.7047
X4.9941Y-3.7559
X4.9951Y-3.6467
X5.0571Y-3.7047
X5.0571Y-3.7559
X5.0581Y-3.6467
X5.0902Y-3.4967
X5.1132Y-3.7047
X5.1132Y-3.7559
X5.1142Y-3.6467
X5.1152Y-3.4467
X5.128Y-2.3652
X5.1552Y-3.3567
X5.1978Y-4.6535
X5.2002Y-2.9867
X5.2578Y-3.2343
X5.2648Y-5.2795
X5.2657Y-5.1703
X5.2657Y-5.2215
X5.3002Y-2.7917
X5.3209Y-5.2795
X5.3219Y-5.1703
X5.3219Y-5.2215
X5.3388Y-4.7028
X5.3632Y-2.3622
X5.3752Y-3.6817
X5.3839Y-5.2795
X5.3848Y-5.1703
X5.3848Y-5.2215
X5.3858Y-3.3386
X5.3957Y-4.6152
X5.4409Y-4.5108
X5.4744Y-1.6841
X5.4777Y-3.3792
X5.4803Y-4.436
X5.4833Y-3.2785
X5.5202Y-4.3517
X5.5252Y-4.5667
X5.5402Y-2.4367
X5.5452Y-4.0567
X5.5702Y-3.3367
X5.5702Y-4.8867
X5.5752Y-3.4217
X5.5787Y-3.2431
X5.6202Y-2.3317
X5.6352Y-4.1017
X5.6602Y-4.8867
X5.6902Y-3.1567
X5.7352Y-4.7617
X5.7431Y-2.3061
X5.7802Y-3.8717
X5.7852Y-3.7217
X5.7931Y-2.0361
X5.8306Y-2.0811
X5.8781Y-2.0461
X5.8802Y-3.8617
X5.8852Y-3.4067
X5.9131Y-2.0861
X5.9823Y-4.7628
X5.9833Y-4.6535
X5.9833Y-4.7047
X6.0281Y-2.0811
X6.0302Y-3.6817
X6.0325Y-1.9767
X6.0384Y-4.7628
X6.0394Y-4.6535
X6.0394Y-4.7047
X6.1014Y-4.7628
X6.1024Y-4.6535
X6.1024Y-4.7047
X6.1978Y-5.4801
X6.2552Y-4.5017
X6.4552Y-4.9567
X6.625Y-2.8504
X6.626Y-2.7411
X6.626Y-2.7923
X6.6452Y-4.3464
X6.6703Y-3.7923
X6.6713Y-3.6831
X6.6713Y-3.7343
X6.6811Y-2.8504
X6.6821Y-2.7411
X6.6821Y-2.7923
X6.7254Y-4.8553
X6.7264Y-3.7923
X6.7264Y-4.7461
X6.7264Y-4.7972
X6.7274Y-3.6831
X6.7274Y-3.7343
X6.7441Y-2.8504
X6.7451Y-2.7411
X6.7451Y-2.7923
X6.7702Y-5.0067
X6.7815Y-4.8553
X6.7825Y-4.7461
X6.7825Y-4.7972
X6.7894Y-3.7923
X6.7904Y-3.6831
X6.7904Y-3.7343
X6.8081Y-4.5895
X6.8445Y-4.8553
X6.8455Y-4.7461
X6.8455Y-4.7972
X6.8652Y-4.0467
X6.8781Y-2.0761
X6.9052Y-4.1817
X6.9156Y-4.482
X7.0952Y-3.0967
X7.1673Y-2.8179
X7.1683Y-2.7087
X7.1683Y-2.7598
X7.2234Y-2.8179
X7.2244Y-2.7087
X7.2244Y-2.7598
X7.2864Y-2.8179
X7.2874Y-2.7087
X7.2874Y-2.7598
X7.3996Y-1.7825
X7.4006Y-1.6732
X7.4006Y-1.7244
X7.4102Y-3.3467
X7.4152Y-3.4067
X7.4152Y-3.4767
X7.4352Y-4.9767
X7.4557Y-1.7825
X7.4567Y-1.6732
X7.4567Y-1.7244
X7.4836Y-4.8783
X7.5187Y-1.7825
X7.5197Y-1.6732
X7.5197Y-1.7244
X7.5652Y-4.7217
T2
X2.6446Y-2.3895
X2.9446Y-1.6895
X3.1446Y-1.6895
X3.4446Y-2.3895
T3
X2.9567Y-3.3327
X2.9567Y-4.1987
X3.0355Y-3.3327
X3.0355Y-4.1987
X3.1142Y-3.3327
X3.1142Y-4.1987
X3.193Y-3.3327
X3.193Y-4.1987
X3.2717Y-3.3327
X3.2717Y-4.1987
X3.3504Y-3.3327
X3.3504Y-4.1987
X3.4292Y-3.3327
X3.4292Y-4.1987
X3.5079Y-3.3327
X3.5079Y-4.1987
X3.5867Y-3.3327
X3.5867Y-4.1987
X3.6654Y-3.3327
X3.6654Y-4.1987
T4
X2.6446Y-2.8307
X2.743Y-2.8307
X3.8375Y-1.7402
X3.9359Y-1.7402
X5.7522Y-2.4538
X5.7522Y-2.5538
X5.7522Y-2.6538
X5.7522Y-2.7538
X5.7522Y-2.8538
X5.7522Y-2.9538
X5.7522Y-3.0538
X5.7522Y-3.1538
X6.0522Y-2.4538
X6.0522Y-2.5538
X6.0522Y-2.6538
X6.0522Y-2.7538
X6.0522Y-2.8538
X6.0522Y-2.9538
X6.0522Y-3.0538
X6.0522Y-3.1538
X6.2596Y-2.522
X6.2596Y-3.122
X6.3596Y-2.522
X6.3596Y-3.122
X6.3926Y-1.5116
X6.3926Y-1.6116
X6.3926Y-1.7116
X6.3926Y-1.8116
X6.3926Y-1.9116
X6.3926Y-2.0116
X6.3926Y-2.1116
X6.4596Y-2.522
X6.4596Y-3.122
X6.5596Y-2.522
X6.5596Y-3.122
X6.6596Y-2.522
X6.6596Y-3.122
X6.6926Y-1.5116
X6.6926Y-1.6116
X6.6926Y-1.7116
X6.6926Y-1.8116
X6.6926Y-1.9116
X6.6926Y-2.0116
X6.6926Y-2.1116
T5
X2.9501Y-5.1462
X3.0046Y-5.258
X3.0591Y-5.1462
X3.1061Y-3.0039
X3.1137Y-5.258
X3.1682Y-5.1462
X3.2061Y-3.0039
X3.2227Y-5.258
X3.2754Y-2.6673
X3.2754Y-2.7673
X3.2772Y-5.1462
X3.3061Y-3.0039
X3.3318Y-5.258
X3.3754Y-2.6673
X3.3754Y-2.7673
X3.3863Y-5.1462
X3.4754Y-2.6673
X3.4754Y-2.7673
X4.1191Y-4.1535
X4.1191Y-4.2535
X4.1191Y-4.3535
X4.1191Y-4.4535
X4.3238Y-4.2545
X4.3238Y-4.3545
X4.3772Y-5.1658
X4.4318Y-5.2777
X4.4863Y-5.1658
X4.5049Y-4.0758
X4.5049Y-4.1758
X4.5049Y-4.2758
X4.5049Y-4.3758
X4.5049Y-4.4758
X4.5408Y-5.2777
X4.5954Y-5.1658
X4.6499Y-5.2777
X4.7044Y-5.1658
X4.7589Y-5.2777
X4.8135Y-5.1658
X4.8396Y-4.437
X4.9396Y-4.437
X5.0302Y-1.6322
X5.0302Y-1.7322
X5.0302Y-1.8322
X5.0396Y-4.437
X5.1396Y-4.437
X5.3602Y-1.8612
X5.3602Y-1.9612
X5.3602Y-2.0612
X5.3949Y-2.9156
X5.4656Y-2.9863
X5.8379Y-5.1678
X5.8924Y-5.2796
X5.9469Y-5.1678
X6.0015Y-5.2796
X6.056Y-5.1678
X6.1105Y-5.2796
X6.1181Y-3.5512
X6.165Y-5.1678
X6.2181Y-3.5512
X6.2196Y-5.2796
X6.2741Y-5.1678
X6.3181Y-3.5512
X6.3585Y-4.2335
X6.3652Y-4.7467
X6.4181Y-3.5512
X6.5181Y-3.5512
X6.5552Y-4.7467
X6.5613Y-4.2305
X7.1666Y-4.7763
X7.1666Y-4.8853
X7.1666Y-4.9944
X7.1666Y-5.1034
X7.1666Y-5.2125
X7.1727Y-3.292
X7.1727Y-3.4011
X7.1727Y-3.5101
X7.1727Y-3.6192
X7.1727Y-3.7282
X7.1931Y-1.8156
X7.1931Y-1.9247
X7.1931Y-2.0337
X7.1931Y-2.1428
X7.1931Y-2.2518
X7.2785Y-4.8308
X7.2785Y-4.9398
X7.2785Y-5.0489
X7.2785Y-5.1579
X7.2845Y-3.3465
X7.2845Y-3.4556
X7.2845Y-3.5646
X7.2845Y-3.6737
X7.305Y-1.8702
X7.305Y-1.9792
X7.305Y-2.0883
X7.305Y-2.1973
T6
X3.8969Y-2.8442
X3.8969Y-3.0214
X4.1528Y-2.8442
X4.1528Y-3.0214
T7
X4.4942Y-1.7351
X4.691Y-1.7351
T8
X4.3802Y-2.0217
X4.5702Y-2.0217
X4.7502Y-2.0217
X4.9352Y-2.0217
X5.1202Y-2.0167
T9
X2.6171Y-3.3465
X2.6351Y-4.6769
X2.6761Y-5.2021
X3.6603Y-5.2021
X4.1032Y-5.2218
X5.0875Y-5.2218
X5.5639Y-5.2237
X6.5481Y-5.2237
X6.8671Y-5.2795
X6.9352Y-1.6317
X7.2225Y-4.5022
X7.2225Y-5.4865
X7.2286Y-3.018
X7.2286Y-4.0022
X7.249Y-1.5416
X7.249Y-2.5259
T0
M30
