%TF.GenerationSoftware,KiCad,Pcbnew,6.0.11-2627ca5db0~126~ubuntu20.04.1*%
%TF.CreationDate,2023-05-10T16:13:11+05:30*%
%TF.ProjectId,MVCU_F407,4d564355-5f46-4343-9037-2e6b69636164,rev?*%
%TF.SameCoordinates,Original*%
%TF.FileFunction,Legend,Top*%
%TF.FilePolarity,Positive*%
%FSLAX46Y46*%
G04 Gerber Fmt 4.6, Leading zero omitted, Abs format (unit mm)*
G04 Created by KiCad (PCBNEW 6.0.11-2627ca5db0~126~ubuntu20.04.1) date 2023-05-10 16:13:11*
%MOMM*%
%LPD*%
G01*
G04 APERTURE LIST*
%ADD10C,0.120000*%
%ADD11C,0.150000*%
%ADD12C,0.100000*%
%ADD13C,0.152400*%
%ADD14C,0.080000*%
%ADD15C,0.090000*%
%ADD16C,0.203200*%
G04 APERTURE END LIST*
D10*
X95125000Y-83450000D02*
X95125000Y-107850000D01*
X67525000Y-90550000D02*
X67525000Y-100650000D01*
X67525000Y-90550000D02*
X73850980Y-83402120D01*
X94351320Y-107897880D02*
X101325000Y-107850000D01*
X62625000Y-36300000D02*
X108425000Y-36300000D01*
X108425000Y-36300000D02*
X108425000Y-80600000D01*
X108425000Y-80600000D02*
X62625000Y-80600000D01*
X62625000Y-80600000D02*
X62625000Y-36300000D01*
X101325000Y-107850000D02*
X101325000Y-83450000D01*
X94351320Y-83402120D02*
X101325000Y-83450000D01*
X67525000Y-100650000D02*
X73850980Y-107897880D01*
D11*
X112298000Y-37832428D02*
X113059904Y-37832428D01*
X113393238Y-37213380D02*
X113726571Y-38213380D01*
X114059904Y-37213380D01*
X114393238Y-38213380D02*
X114393238Y-37546714D01*
X114393238Y-37213380D02*
X114345619Y-37261000D01*
X114393238Y-37308619D01*
X114440857Y-37261000D01*
X114393238Y-37213380D01*
X114393238Y-37308619D01*
X114869428Y-37546714D02*
X114869428Y-38213380D01*
X114869428Y-37641952D02*
X114917047Y-37594333D01*
X115012285Y-37546714D01*
X115155142Y-37546714D01*
X115250380Y-37594333D01*
X115298000Y-37689571D01*
X115298000Y-38213380D01*
X130521285Y-57775000D02*
X130407000Y-57717857D01*
X130235571Y-57717857D01*
X130064142Y-57775000D01*
X129949857Y-57889285D01*
X129892714Y-58003571D01*
X129835571Y-58232142D01*
X129835571Y-58403571D01*
X129892714Y-58632142D01*
X129949857Y-58746428D01*
X130064142Y-58860714D01*
X130235571Y-58917857D01*
X130349857Y-58917857D01*
X130521285Y-58860714D01*
X130578428Y-58803571D01*
X130578428Y-58403571D01*
X130349857Y-58403571D01*
D12*
X156210571Y-93434761D02*
X156317714Y-93482380D01*
X156496285Y-93482380D01*
X156567714Y-93434761D01*
X156603428Y-93387142D01*
X156639142Y-93291904D01*
X156639142Y-93196666D01*
X156603428Y-93101428D01*
X156567714Y-93053809D01*
X156496285Y-93006190D01*
X156353428Y-92958571D01*
X156282000Y-92910952D01*
X156246285Y-92863333D01*
X156210571Y-92768095D01*
X156210571Y-92672857D01*
X156246285Y-92577619D01*
X156282000Y-92530000D01*
X156353428Y-92482380D01*
X156532000Y-92482380D01*
X156639142Y-92530000D01*
X156889142Y-92482380D02*
X157067714Y-93482380D01*
X157210571Y-92768095D01*
X157353428Y-93482380D01*
X157532000Y-92482380D01*
X158246285Y-93387142D02*
X158210571Y-93434761D01*
X158103428Y-93482380D01*
X158032000Y-93482380D01*
X157924857Y-93434761D01*
X157853428Y-93339523D01*
X157817714Y-93244285D01*
X157782000Y-93053809D01*
X157782000Y-92910952D01*
X157817714Y-92720476D01*
X157853428Y-92625238D01*
X157924857Y-92530000D01*
X158032000Y-92482380D01*
X158103428Y-92482380D01*
X158210571Y-92530000D01*
X158246285Y-92577619D01*
X158924857Y-93482380D02*
X158567714Y-93482380D01*
X158567714Y-92482380D01*
X159174857Y-93482380D02*
X159174857Y-92482380D01*
X159603428Y-93482380D02*
X159282000Y-92910952D01*
X159603428Y-92482380D02*
X159174857Y-93053809D01*
X82042857Y-65202380D02*
X82042857Y-64535714D01*
X82042857Y-64202380D02*
X82007142Y-64250000D01*
X82042857Y-64297619D01*
X82078571Y-64250000D01*
X82042857Y-64202380D01*
X82042857Y-64297619D01*
X82935714Y-64154761D02*
X82292857Y-65440476D01*
X83185714Y-64535714D02*
X83185714Y-65535714D01*
X83185714Y-64583333D02*
X83257142Y-64535714D01*
X83400000Y-64535714D01*
X83471428Y-64583333D01*
X83507142Y-64630952D01*
X83542857Y-64726190D01*
X83542857Y-65011904D01*
X83507142Y-65107142D01*
X83471428Y-65154761D01*
X83400000Y-65202380D01*
X83257142Y-65202380D01*
X83185714Y-65154761D01*
D11*
X133808666Y-55596571D02*
X133951523Y-55644190D01*
X133999142Y-55691809D01*
X134046761Y-55787047D01*
X134046761Y-55929904D01*
X133999142Y-56025142D01*
X133951523Y-56072761D01*
X133856285Y-56120380D01*
X133475333Y-56120380D01*
X133475333Y-55120380D01*
X133808666Y-55120380D01*
X133903904Y-55168000D01*
X133951523Y-55215619D01*
X133999142Y-55310857D01*
X133999142Y-55406095D01*
X133951523Y-55501333D01*
X133903904Y-55548952D01*
X133808666Y-55596571D01*
X133475333Y-55596571D01*
X134665809Y-55120380D02*
X134856285Y-55120380D01*
X134951523Y-55168000D01*
X135046761Y-55263238D01*
X135094380Y-55453714D01*
X135094380Y-55787047D01*
X135046761Y-55977523D01*
X134951523Y-56072761D01*
X134856285Y-56120380D01*
X134665809Y-56120380D01*
X134570571Y-56072761D01*
X134475333Y-55977523D01*
X134427714Y-55787047D01*
X134427714Y-55453714D01*
X134475333Y-55263238D01*
X134570571Y-55168000D01*
X134665809Y-55120380D01*
X135713428Y-55120380D02*
X135903904Y-55120380D01*
X135999142Y-55168000D01*
X136094380Y-55263238D01*
X136142000Y-55453714D01*
X136142000Y-55787047D01*
X136094380Y-55977523D01*
X135999142Y-56072761D01*
X135903904Y-56120380D01*
X135713428Y-56120380D01*
X135618190Y-56072761D01*
X135522952Y-55977523D01*
X135475333Y-55787047D01*
X135475333Y-55453714D01*
X135522952Y-55263238D01*
X135618190Y-55168000D01*
X135713428Y-55120380D01*
X136427714Y-55120380D02*
X136999142Y-55120380D01*
X136713428Y-56120380D02*
X136713428Y-55120380D01*
X137522952Y-55120380D02*
X137618190Y-55120380D01*
X137713428Y-55168000D01*
X137761047Y-55215619D01*
X137808666Y-55310857D01*
X137856285Y-55501333D01*
X137856285Y-55739428D01*
X137808666Y-55929904D01*
X137761047Y-56025142D01*
X137713428Y-56072761D01*
X137618190Y-56120380D01*
X137522952Y-56120380D01*
X137427714Y-56072761D01*
X137380095Y-56025142D01*
X137332476Y-55929904D01*
X137284857Y-55739428D01*
X137284857Y-55501333D01*
X137332476Y-55310857D01*
X137380095Y-55215619D01*
X137427714Y-55168000D01*
X137522952Y-55120380D01*
D12*
X153356714Y-87695761D02*
X153463857Y-87743380D01*
X153642428Y-87743380D01*
X153713857Y-87695761D01*
X153749571Y-87648142D01*
X153785285Y-87552904D01*
X153785285Y-87457666D01*
X153749571Y-87362428D01*
X153713857Y-87314809D01*
X153642428Y-87267190D01*
X153499571Y-87219571D01*
X153428142Y-87171952D01*
X153392428Y-87124333D01*
X153356714Y-87029095D01*
X153356714Y-86933857D01*
X153392428Y-86838619D01*
X153428142Y-86791000D01*
X153499571Y-86743380D01*
X153678142Y-86743380D01*
X153785285Y-86791000D01*
X154035285Y-86743380D02*
X154213857Y-87743380D01*
X154356714Y-87029095D01*
X154499571Y-87743380D01*
X154678142Y-86743380D01*
X154963857Y-87743380D02*
X154963857Y-86743380D01*
X155142428Y-86743380D01*
X155249571Y-86791000D01*
X155321000Y-86886238D01*
X155356714Y-86981476D01*
X155392428Y-87171952D01*
X155392428Y-87314809D01*
X155356714Y-87505285D01*
X155321000Y-87600523D01*
X155249571Y-87695761D01*
X155142428Y-87743380D01*
X154963857Y-87743380D01*
X155713857Y-87743380D02*
X155713857Y-86743380D01*
X156213857Y-86743380D02*
X156356714Y-86743380D01*
X156428142Y-86791000D01*
X156499571Y-86886238D01*
X156535285Y-87076714D01*
X156535285Y-87410047D01*
X156499571Y-87600523D01*
X156428142Y-87695761D01*
X156356714Y-87743380D01*
X156213857Y-87743380D01*
X156142428Y-87695761D01*
X156071000Y-87600523D01*
X156035285Y-87410047D01*
X156035285Y-87076714D01*
X156071000Y-86886238D01*
X156142428Y-86791000D01*
X156213857Y-86743380D01*
D11*
X165233095Y-86664000D02*
X165137857Y-86616380D01*
X164995000Y-86616380D01*
X164852142Y-86664000D01*
X164756904Y-86759238D01*
X164709285Y-86854476D01*
X164661666Y-87044952D01*
X164661666Y-87187809D01*
X164709285Y-87378285D01*
X164756904Y-87473523D01*
X164852142Y-87568761D01*
X164995000Y-87616380D01*
X165090238Y-87616380D01*
X165233095Y-87568761D01*
X165280714Y-87521142D01*
X165280714Y-87187809D01*
X165090238Y-87187809D01*
X165709285Y-87616380D02*
X165709285Y-86616380D01*
X166280714Y-87616380D01*
X166280714Y-86616380D01*
X166756904Y-87616380D02*
X166756904Y-86616380D01*
X166995000Y-86616380D01*
X167137857Y-86664000D01*
X167233095Y-86759238D01*
X167280714Y-86854476D01*
X167328333Y-87044952D01*
X167328333Y-87187809D01*
X167280714Y-87378285D01*
X167233095Y-87473523D01*
X167137857Y-87568761D01*
X166995000Y-87616380D01*
X166756904Y-87616380D01*
D10*
X108278571Y-90771214D02*
X107707142Y-91056928D01*
X108278571Y-91342642D01*
X108635714Y-91056928D02*
X109207142Y-91056928D01*
X109992857Y-91437880D02*
X109742857Y-90961690D01*
X109564285Y-91437880D02*
X109564285Y-90437880D01*
X109850000Y-90437880D01*
X109921428Y-90485500D01*
X109957142Y-90533119D01*
X109992857Y-90628357D01*
X109992857Y-90771214D01*
X109957142Y-90866452D01*
X109921428Y-90914071D01*
X109850000Y-90961690D01*
X109564285Y-90961690D01*
X110278571Y-91390261D02*
X110385714Y-91437880D01*
X110564285Y-91437880D01*
X110635714Y-91390261D01*
X110671428Y-91342642D01*
X110707142Y-91247404D01*
X110707142Y-91152166D01*
X110671428Y-91056928D01*
X110635714Y-91009309D01*
X110564285Y-90961690D01*
X110421428Y-90914071D01*
X110350000Y-90866452D01*
X110314285Y-90818833D01*
X110278571Y-90723595D01*
X110278571Y-90628357D01*
X110314285Y-90533119D01*
X110350000Y-90485500D01*
X110421428Y-90437880D01*
X110600000Y-90437880D01*
X110707142Y-90485500D01*
X110992857Y-91390261D02*
X111100000Y-91437880D01*
X111278571Y-91437880D01*
X111350000Y-91390261D01*
X111385714Y-91342642D01*
X111421428Y-91247404D01*
X111421428Y-91152166D01*
X111385714Y-91056928D01*
X111350000Y-91009309D01*
X111278571Y-90961690D01*
X111135714Y-90914071D01*
X111064285Y-90866452D01*
X111028571Y-90818833D01*
X110992857Y-90723595D01*
X110992857Y-90628357D01*
X111028571Y-90533119D01*
X111064285Y-90485500D01*
X111135714Y-90437880D01*
X111314285Y-90437880D01*
X111421428Y-90485500D01*
X111742857Y-91437880D02*
X111742857Y-90437880D01*
D11*
X117886000Y-37832428D02*
X118647904Y-37832428D01*
X118266952Y-38213380D02*
X118266952Y-37451476D01*
X118981238Y-37213380D02*
X119314571Y-38213380D01*
X119647904Y-37213380D01*
X119981238Y-38213380D02*
X119981238Y-37546714D01*
X119981238Y-37213380D02*
X119933619Y-37261000D01*
X119981238Y-37308619D01*
X120028857Y-37261000D01*
X119981238Y-37213380D01*
X119981238Y-37308619D01*
X120457428Y-37546714D02*
X120457428Y-38213380D01*
X120457428Y-37641952D02*
X120505047Y-37594333D01*
X120600285Y-37546714D01*
X120743142Y-37546714D01*
X120838380Y-37594333D01*
X120886000Y-37689571D01*
X120886000Y-38213380D01*
X127457428Y-58289285D02*
X127057428Y-58289285D01*
X127057428Y-58917857D02*
X127057428Y-57717857D01*
X127628857Y-57717857D01*
X132912142Y-59044857D02*
X132912142Y-57844857D01*
X132912142Y-58416285D02*
X133597857Y-58416285D01*
X133597857Y-59044857D02*
X133597857Y-57844857D01*
D12*
X137634279Y-71313699D02*
X137676369Y-71423132D01*
X137802638Y-71549401D01*
X137886817Y-71566237D01*
X137945743Y-71557819D01*
X138038340Y-71515730D01*
X138105684Y-71448386D01*
X138147773Y-71355789D01*
X138156191Y-71296863D01*
X138139356Y-71212684D01*
X138072012Y-71077997D01*
X138055176Y-70993817D01*
X138063594Y-70934892D01*
X138105684Y-70842294D01*
X138173027Y-70774951D01*
X138265625Y-70732861D01*
X138324550Y-70724443D01*
X138408730Y-70741279D01*
X138534999Y-70867548D01*
X138577088Y-70976981D01*
X138130938Y-71877701D02*
X138838044Y-71170594D01*
X138964313Y-71296863D01*
X139006403Y-71406296D01*
X138989567Y-71524147D01*
X138947478Y-71616745D01*
X138838044Y-71776686D01*
X138737029Y-71877701D01*
X138577088Y-71987134D01*
X138484491Y-72029224D01*
X138366640Y-72046060D01*
X138257207Y-72003970D01*
X138130938Y-71877701D01*
X138838044Y-72180747D02*
X139090582Y-72433285D01*
X138585506Y-72332269D02*
X139469390Y-71801939D01*
X138939060Y-72685823D01*
X139393628Y-73140392D02*
X139090582Y-72837346D01*
X139242105Y-72988869D02*
X139949212Y-72281762D01*
X139797689Y-72332269D01*
X139679838Y-72349105D01*
X139595659Y-72332269D01*
D11*
X118640428Y-58803571D02*
X118583285Y-58860714D01*
X118411857Y-58917857D01*
X118297571Y-58917857D01*
X118126142Y-58860714D01*
X118011857Y-58746428D01*
X117954714Y-58632142D01*
X117897571Y-58403571D01*
X117897571Y-58232142D01*
X117954714Y-58003571D01*
X118011857Y-57889285D01*
X118126142Y-57775000D01*
X118297571Y-57717857D01*
X118411857Y-57717857D01*
X118583285Y-57775000D01*
X118640428Y-57832142D01*
X112014285Y-58575000D02*
X112585714Y-58575000D01*
X111900000Y-58917857D02*
X112300000Y-57717857D01*
X112700000Y-58917857D01*
X133387714Y-47312380D02*
X132816285Y-47312380D01*
X133102000Y-47312380D02*
X133102000Y-46312380D01*
X133006761Y-46455238D01*
X132911523Y-46550476D01*
X132816285Y-46598095D01*
X133102000Y-49255714D02*
X133102000Y-47827142D01*
X133102000Y-50865714D02*
X133102000Y-49437142D01*
X133102000Y-52475714D02*
X133102000Y-51047142D01*
X133054380Y-52752380D02*
X133149619Y-52752380D01*
X133244857Y-52800000D01*
X133292476Y-52847619D01*
X133340095Y-52942857D01*
X133387714Y-53133333D01*
X133387714Y-53371428D01*
X133340095Y-53561904D01*
X133292476Y-53657142D01*
X133244857Y-53704761D01*
X133149619Y-53752380D01*
X133054380Y-53752380D01*
X132959142Y-53704761D01*
X132911523Y-53657142D01*
X132863904Y-53561904D01*
X132816285Y-53371428D01*
X132816285Y-53133333D01*
X132863904Y-52942857D01*
X132911523Y-52847619D01*
X132959142Y-52800000D01*
X133054380Y-52752380D01*
D12*
X139932906Y-73485326D02*
X139974996Y-73594759D01*
X140101265Y-73721028D01*
X140185444Y-73737864D01*
X140244370Y-73729446D01*
X140336967Y-73687356D01*
X140404311Y-73620013D01*
X140446400Y-73527416D01*
X140454818Y-73468490D01*
X140437982Y-73384311D01*
X140370639Y-73249624D01*
X140353803Y-73165444D01*
X140362221Y-73106519D01*
X140404311Y-73013921D01*
X140471654Y-72946578D01*
X140564251Y-72904488D01*
X140623177Y-72896070D01*
X140707356Y-72912906D01*
X140833625Y-73039175D01*
X140875715Y-73148608D01*
X140799954Y-74285030D02*
X140741028Y-74293448D01*
X140631595Y-74251358D01*
X140581087Y-74200851D01*
X140538998Y-74091417D01*
X140555834Y-73973566D01*
X140597923Y-73880969D01*
X140707356Y-73721028D01*
X140808372Y-73620013D01*
X140968312Y-73510580D01*
X141060910Y-73468490D01*
X141178761Y-73451654D01*
X141288194Y-73493744D01*
X141338702Y-73544251D01*
X141380791Y-73653685D01*
X141372374Y-73712610D01*
X141212433Y-74832196D02*
X140959895Y-74579658D01*
X141667001Y-73872551D01*
X141667001Y-75286765D02*
X141363956Y-74983719D01*
X141515478Y-75135242D02*
X142222585Y-74428135D01*
X142071062Y-74478643D01*
X141953211Y-74495478D01*
X141869032Y-74478643D01*
D10*
X87217857Y-79002380D02*
X86860714Y-79002380D01*
X86825000Y-79478571D01*
X86860714Y-79430952D01*
X86932142Y-79383333D01*
X87110714Y-79383333D01*
X87182142Y-79430952D01*
X87217857Y-79478571D01*
X87253571Y-79573809D01*
X87253571Y-79811904D01*
X87217857Y-79907142D01*
X87182142Y-79954761D01*
X87110714Y-80002380D01*
X86932142Y-80002380D01*
X86860714Y-79954761D01*
X86825000Y-79907142D01*
X87467857Y-79002380D02*
X87717857Y-80002380D01*
X87967857Y-79002380D01*
X88039285Y-80097619D02*
X88610714Y-80097619D01*
X88789285Y-80002380D02*
X88789285Y-79002380D01*
X89075000Y-79002380D01*
X89146428Y-79050000D01*
X89182142Y-79097619D01*
X89217857Y-79192857D01*
X89217857Y-79335714D01*
X89182142Y-79430952D01*
X89146428Y-79478571D01*
X89075000Y-79526190D01*
X88789285Y-79526190D01*
X89467857Y-79002380D02*
X89646428Y-80002380D01*
X89789285Y-79288095D01*
X89932142Y-80002380D01*
X90110714Y-79002380D01*
X90825000Y-80002380D02*
X90575000Y-79526190D01*
X90396428Y-80002380D02*
X90396428Y-79002380D01*
X90682142Y-79002380D01*
X90753571Y-79050000D01*
X90789285Y-79097619D01*
X90825000Y-79192857D01*
X90825000Y-79335714D01*
X90789285Y-79430952D01*
X90753571Y-79478571D01*
X90682142Y-79526190D01*
X90396428Y-79526190D01*
D11*
X136303000Y-59044857D02*
X136303000Y-57844857D01*
X124107857Y-58416285D02*
X124507857Y-58416285D01*
X124679285Y-59044857D02*
X124107857Y-59044857D01*
X124107857Y-57844857D01*
X124679285Y-57844857D01*
D12*
X87496428Y-64302380D02*
X87960714Y-64302380D01*
X87710714Y-64683333D01*
X87817857Y-64683333D01*
X87889285Y-64730952D01*
X87925000Y-64778571D01*
X87960714Y-64873809D01*
X87960714Y-65111904D01*
X87925000Y-65207142D01*
X87889285Y-65254761D01*
X87817857Y-65302380D01*
X87603571Y-65302380D01*
X87532142Y-65254761D01*
X87496428Y-65207142D01*
X88175000Y-64302380D02*
X88425000Y-65302380D01*
X88675000Y-64302380D01*
X88853571Y-64302380D02*
X89317857Y-64302380D01*
X89067857Y-64683333D01*
X89175000Y-64683333D01*
X89246428Y-64730952D01*
X89282142Y-64778571D01*
X89317857Y-64873809D01*
X89317857Y-65111904D01*
X89282142Y-65207142D01*
X89246428Y-65254761D01*
X89175000Y-65302380D01*
X88960714Y-65302380D01*
X88889285Y-65254761D01*
X88853571Y-65207142D01*
D11*
X139471428Y-57842857D02*
X139471428Y-58700000D01*
X139414285Y-58871428D01*
X139300000Y-58985714D01*
X139128571Y-59042857D01*
X139014285Y-59042857D01*
X159280047Y-87695761D02*
X159422904Y-87743380D01*
X159661000Y-87743380D01*
X159756238Y-87695761D01*
X159803857Y-87648142D01*
X159851476Y-87552904D01*
X159851476Y-87457666D01*
X159803857Y-87362428D01*
X159756238Y-87314809D01*
X159661000Y-87267190D01*
X159470523Y-87219571D01*
X159375285Y-87171952D01*
X159327666Y-87124333D01*
X159280047Y-87029095D01*
X159280047Y-86933857D01*
X159327666Y-86838619D01*
X159375285Y-86791000D01*
X159470523Y-86743380D01*
X159708619Y-86743380D01*
X159851476Y-86791000D01*
X160184809Y-86743380D02*
X160422904Y-87743380D01*
X160613380Y-87029095D01*
X160803857Y-87743380D01*
X161041952Y-86743380D01*
X161613380Y-86743380D02*
X161803857Y-86743380D01*
X161899095Y-86791000D01*
X161994333Y-86886238D01*
X162041952Y-87076714D01*
X162041952Y-87410047D01*
X161994333Y-87600523D01*
X161899095Y-87695761D01*
X161803857Y-87743380D01*
X161613380Y-87743380D01*
X161518142Y-87695761D01*
X161422904Y-87600523D01*
X161375285Y-87410047D01*
X161375285Y-87076714D01*
X161422904Y-86886238D01*
X161518142Y-86791000D01*
X161613380Y-86743380D01*
X120875714Y-59044857D02*
X120875714Y-57844857D01*
X121161428Y-57844857D01*
X121332857Y-57902000D01*
X121447142Y-58016285D01*
X121504285Y-58130571D01*
X121561428Y-58359142D01*
X121561428Y-58530571D01*
X121504285Y-58759142D01*
X121447142Y-58873428D01*
X121332857Y-58987714D01*
X121161428Y-59044857D01*
X120875714Y-59044857D01*
D12*
X65452380Y-102428571D02*
X66452380Y-101928571D01*
X65452380Y-101928571D02*
X66452380Y-102428571D01*
X65928571Y-101392857D02*
X65976190Y-101285714D01*
X66023809Y-101250000D01*
X66119047Y-101214285D01*
X66261904Y-101214285D01*
X66357142Y-101250000D01*
X66404761Y-101285714D01*
X66452380Y-101357142D01*
X66452380Y-101642857D01*
X65452380Y-101642857D01*
X65452380Y-101392857D01*
X65500000Y-101321428D01*
X65547619Y-101285714D01*
X65642857Y-101250000D01*
X65738095Y-101250000D01*
X65833333Y-101285714D01*
X65880952Y-101321428D01*
X65928571Y-101392857D01*
X65928571Y-101642857D01*
X65928571Y-100892857D02*
X65928571Y-100642857D01*
X66452380Y-100535714D02*
X66452380Y-100892857D01*
X65452380Y-100892857D01*
X65452380Y-100535714D01*
X65928571Y-100214285D02*
X65928571Y-99964285D01*
X66452380Y-99857142D02*
X66452380Y-100214285D01*
X65452380Y-100214285D01*
X65452380Y-99857142D01*
D11*
X115306714Y-58289285D02*
X115478142Y-58346428D01*
X115535285Y-58403571D01*
X115592428Y-58517857D01*
X115592428Y-58689285D01*
X115535285Y-58803571D01*
X115478142Y-58860714D01*
X115363857Y-58917857D01*
X114906714Y-58917857D01*
X114906714Y-57717857D01*
X115306714Y-57717857D01*
X115421000Y-57775000D01*
X115478142Y-57832142D01*
X115535285Y-57946428D01*
X115535285Y-58060714D01*
X115478142Y-58175000D01*
X115421000Y-58232142D01*
X115306714Y-58289285D01*
X114906714Y-58289285D01*
D10*
X92167857Y-78952380D02*
X92632142Y-78952380D01*
X92382142Y-79333333D01*
X92489285Y-79333333D01*
X92560714Y-79380952D01*
X92596428Y-79428571D01*
X92632142Y-79523809D01*
X92632142Y-79761904D01*
X92596428Y-79857142D01*
X92560714Y-79904761D01*
X92489285Y-79952380D01*
X92275000Y-79952380D01*
X92203571Y-79904761D01*
X92167857Y-79857142D01*
X92882142Y-79285714D02*
X93060714Y-79952380D01*
X93239285Y-79285714D01*
X93453571Y-78952380D02*
X93917857Y-78952380D01*
X93667857Y-79333333D01*
X93775000Y-79333333D01*
X93846428Y-79380952D01*
X93882142Y-79428571D01*
X93917857Y-79523809D01*
X93917857Y-79761904D01*
X93882142Y-79857142D01*
X93846428Y-79904761D01*
X93775000Y-79952380D01*
X93560714Y-79952380D01*
X93489285Y-79904761D01*
X93453571Y-79857142D01*
X94060714Y-80047619D02*
X94632142Y-80047619D01*
X94810714Y-79952380D02*
X94810714Y-78952380D01*
X95096428Y-78952380D01*
X95167857Y-79000000D01*
X95203571Y-79047619D01*
X95239285Y-79142857D01*
X95239285Y-79285714D01*
X95203571Y-79380952D01*
X95167857Y-79428571D01*
X95096428Y-79476190D01*
X94810714Y-79476190D01*
X95489285Y-78952380D02*
X95667857Y-79952380D01*
X95810714Y-79238095D01*
X95953571Y-79952380D01*
X96132142Y-78952380D01*
X96846428Y-79952380D02*
X96596428Y-79476190D01*
X96417857Y-79952380D02*
X96417857Y-78952380D01*
X96703571Y-78952380D01*
X96775000Y-79000000D01*
X96810714Y-79047619D01*
X96846428Y-79142857D01*
X96846428Y-79285714D01*
X96810714Y-79380952D01*
X96775000Y-79428571D01*
X96703571Y-79476190D01*
X96417857Y-79476190D01*
D12*
X85582142Y-64352380D02*
X85225000Y-64352380D01*
X85189285Y-64828571D01*
X85225000Y-64780952D01*
X85296428Y-64733333D01*
X85475000Y-64733333D01*
X85546428Y-64780952D01*
X85582142Y-64828571D01*
X85617857Y-64923809D01*
X85617857Y-65161904D01*
X85582142Y-65257142D01*
X85546428Y-65304761D01*
X85475000Y-65352380D01*
X85296428Y-65352380D01*
X85225000Y-65304761D01*
X85189285Y-65257142D01*
X85832142Y-64352380D02*
X86082142Y-65352380D01*
X86332142Y-64352380D01*
D11*
X126768000Y-39102380D02*
X126768000Y-38102380D01*
X127196571Y-39054761D02*
X127339428Y-39102380D01*
X127577523Y-39102380D01*
X127672761Y-39054761D01*
X127720380Y-39007142D01*
X127768000Y-38911904D01*
X127768000Y-38816666D01*
X127720380Y-38721428D01*
X127672761Y-38673809D01*
X127577523Y-38626190D01*
X127387047Y-38578571D01*
X127291809Y-38530952D01*
X127244190Y-38483333D01*
X127196571Y-38388095D01*
X127196571Y-38292857D01*
X127244190Y-38197619D01*
X127291809Y-38150000D01*
X127387047Y-38102380D01*
X127625142Y-38102380D01*
X127768000Y-38150000D01*
X128387047Y-38102380D02*
X128577523Y-38102380D01*
X128672761Y-38150000D01*
X128768000Y-38245238D01*
X128815619Y-38435714D01*
X128815619Y-38769047D01*
X128768000Y-38959523D01*
X128672761Y-39054761D01*
X128577523Y-39102380D01*
X128387047Y-39102380D01*
X128291809Y-39054761D01*
X128196571Y-38959523D01*
X128148952Y-38769047D01*
X128148952Y-38435714D01*
X128196571Y-38245238D01*
X128291809Y-38150000D01*
X128387047Y-38102380D01*
D10*
X108352000Y-87723214D02*
X107818666Y-88008928D01*
X108352000Y-88294642D01*
X108685333Y-88008928D02*
X109218666Y-88008928D01*
X109518666Y-88104166D02*
X109852000Y-88104166D01*
X109452000Y-88389880D02*
X109685333Y-87389880D01*
X109918666Y-88389880D01*
X110118666Y-88342261D02*
X110218666Y-88389880D01*
X110385333Y-88389880D01*
X110452000Y-88342261D01*
X110485333Y-88294642D01*
X110518666Y-88199404D01*
X110518666Y-88104166D01*
X110485333Y-88008928D01*
X110452000Y-87961309D01*
X110385333Y-87913690D01*
X110252000Y-87866071D01*
X110185333Y-87818452D01*
X110152000Y-87770833D01*
X110118666Y-87675595D01*
X110118666Y-87580357D01*
X110152000Y-87485119D01*
X110185333Y-87437500D01*
X110252000Y-87389880D01*
X110418666Y-87389880D01*
X110518666Y-87437500D01*
X110785333Y-88342261D02*
X110885333Y-88389880D01*
X111052000Y-88389880D01*
X111118666Y-88342261D01*
X111152000Y-88294642D01*
X111185333Y-88199404D01*
X111185333Y-88104166D01*
X111152000Y-88008928D01*
X111118666Y-87961309D01*
X111052000Y-87913690D01*
X110918666Y-87866071D01*
X110852000Y-87818452D01*
X110818666Y-87770833D01*
X110785333Y-87675595D01*
X110785333Y-87580357D01*
X110818666Y-87485119D01*
X110852000Y-87437500D01*
X110918666Y-87389880D01*
X111085333Y-87389880D01*
X111185333Y-87437500D01*
X111618666Y-87389880D02*
X111752000Y-87389880D01*
X111818666Y-87437500D01*
X111885333Y-87532738D01*
X111918666Y-87723214D01*
X111918666Y-88056547D01*
X111885333Y-88247023D01*
X111818666Y-88342261D01*
X111752000Y-88389880D01*
X111618666Y-88389880D01*
X111552000Y-88342261D01*
X111485333Y-88247023D01*
X111452000Y-88056547D01*
X111452000Y-87723214D01*
X111485333Y-87532738D01*
X111552000Y-87437500D01*
X111618666Y-87389880D01*
X79003571Y-74252380D02*
X79003571Y-73252380D01*
X79253571Y-73966666D01*
X79503571Y-73252380D01*
X79503571Y-74252380D01*
X80182142Y-74252380D02*
X80182142Y-73728571D01*
X80146428Y-73633333D01*
X80075000Y-73585714D01*
X79932142Y-73585714D01*
X79860714Y-73633333D01*
X80182142Y-74204761D02*
X80110714Y-74252380D01*
X79932142Y-74252380D01*
X79860714Y-74204761D01*
X79825000Y-74109523D01*
X79825000Y-74014285D01*
X79860714Y-73919047D01*
X79932142Y-73871428D01*
X80110714Y-73871428D01*
X80182142Y-73823809D01*
X80539285Y-74252380D02*
X80539285Y-73585714D01*
X80539285Y-73252380D02*
X80503571Y-73300000D01*
X80539285Y-73347619D01*
X80575000Y-73300000D01*
X80539285Y-73252380D01*
X80539285Y-73347619D01*
X80896428Y-73585714D02*
X80896428Y-74252380D01*
X80896428Y-73680952D02*
X80932142Y-73633333D01*
X81003571Y-73585714D01*
X81110714Y-73585714D01*
X81182142Y-73633333D01*
X81217857Y-73728571D01*
X81217857Y-74252380D01*
X81396428Y-74347619D02*
X81967857Y-74347619D01*
X82146428Y-74252380D02*
X82146428Y-73252380D01*
X82432142Y-73252380D01*
X82503571Y-73300000D01*
X82539285Y-73347619D01*
X82575000Y-73442857D01*
X82575000Y-73585714D01*
X82539285Y-73680952D01*
X82503571Y-73728571D01*
X82432142Y-73776190D01*
X82146428Y-73776190D01*
X82825000Y-73252380D02*
X83003571Y-74252380D01*
X83146428Y-73538095D01*
X83289285Y-74252380D01*
X83467857Y-73252380D01*
X84182142Y-74252380D02*
X83932142Y-73776190D01*
X83753571Y-74252380D02*
X83753571Y-73252380D01*
X84039285Y-73252380D01*
X84110714Y-73300000D01*
X84146428Y-73347619D01*
X84182142Y-73442857D01*
X84182142Y-73585714D01*
X84146428Y-73680952D01*
X84110714Y-73728571D01*
X84039285Y-73776190D01*
X83753571Y-73776190D01*
D11*
X130405404Y-40518000D02*
X130310166Y-40470380D01*
X130167309Y-40470380D01*
X130024452Y-40518000D01*
X129929214Y-40613238D01*
X129881595Y-40708476D01*
X129833976Y-40898952D01*
X129833976Y-41041809D01*
X129881595Y-41232285D01*
X129929214Y-41327523D01*
X130024452Y-41422761D01*
X130167309Y-41470380D01*
X130262547Y-41470380D01*
X130405404Y-41422761D01*
X130453023Y-41375142D01*
X130453023Y-41041809D01*
X130262547Y-41041809D01*
X130881595Y-41470380D02*
X130881595Y-40470380D01*
X131453023Y-41470380D01*
X131453023Y-40470380D01*
X131929214Y-41470380D02*
X131929214Y-40470380D01*
X132167309Y-40470380D01*
X132310166Y-40518000D01*
X132405404Y-40613238D01*
X132453023Y-40708476D01*
X132500642Y-40898952D01*
X132500642Y-41041809D01*
X132453023Y-41232285D01*
X132405404Y-41327523D01*
X132310166Y-41422761D01*
X132167309Y-41470380D01*
X131929214Y-41470380D01*
X130119690Y-43413714D02*
X130119690Y-41985142D01*
X130119690Y-45023714D02*
X130119690Y-43595142D01*
X130119690Y-46633714D02*
X130119690Y-45205142D01*
X129786357Y-46910380D02*
X130453023Y-47910380D01*
X130453023Y-46910380D02*
X129786357Y-47910380D01*
D12*
X162003428Y-92357380D02*
X162467714Y-92357380D01*
X162217714Y-92738333D01*
X162324857Y-92738333D01*
X162396285Y-92785952D01*
X162432000Y-92833571D01*
X162467714Y-92928809D01*
X162467714Y-93166904D01*
X162432000Y-93262142D01*
X162396285Y-93309761D01*
X162324857Y-93357380D01*
X162110571Y-93357380D01*
X162039142Y-93309761D01*
X162003428Y-93262142D01*
X162682000Y-92357380D02*
X162932000Y-93357380D01*
X163182000Y-92357380D01*
X163360571Y-92357380D02*
X163824857Y-92357380D01*
X163574857Y-92738333D01*
X163682000Y-92738333D01*
X163753428Y-92785952D01*
X163789142Y-92833571D01*
X163824857Y-92928809D01*
X163824857Y-93166904D01*
X163789142Y-93262142D01*
X163753428Y-93309761D01*
X163682000Y-93357380D01*
X163467714Y-93357380D01*
X163396285Y-93309761D01*
X163360571Y-93262142D01*
D11*
X150412952Y-104432380D02*
X150746285Y-105432380D01*
X151079619Y-104432380D01*
X151793904Y-105384761D02*
X151698666Y-105432380D01*
X151508190Y-105432380D01*
X151412952Y-105384761D01*
X151365333Y-105289523D01*
X151365333Y-104908571D01*
X151412952Y-104813333D01*
X151508190Y-104765714D01*
X151698666Y-104765714D01*
X151793904Y-104813333D01*
X151841523Y-104908571D01*
X151841523Y-105003809D01*
X151365333Y-105099047D01*
X152698666Y-104765714D02*
X152698666Y-105575238D01*
X152651047Y-105670476D01*
X152603428Y-105718095D01*
X152508190Y-105765714D01*
X152365333Y-105765714D01*
X152270095Y-105718095D01*
X152698666Y-105384761D02*
X152603428Y-105432380D01*
X152412952Y-105432380D01*
X152317714Y-105384761D01*
X152270095Y-105337142D01*
X152222476Y-105241904D01*
X152222476Y-104956190D01*
X152270095Y-104860952D01*
X152317714Y-104813333D01*
X152412952Y-104765714D01*
X152603428Y-104765714D01*
X152698666Y-104813333D01*
X153603428Y-105432380D02*
X153603428Y-104908571D01*
X153555809Y-104813333D01*
X153460571Y-104765714D01*
X153270095Y-104765714D01*
X153174857Y-104813333D01*
X153603428Y-105384761D02*
X153508190Y-105432380D01*
X153270095Y-105432380D01*
X153174857Y-105384761D01*
X153127238Y-105289523D01*
X153127238Y-105194285D01*
X153174857Y-105099047D01*
X153270095Y-105051428D01*
X153508190Y-105051428D01*
X153603428Y-105003809D01*
X154079619Y-104765714D02*
X154079619Y-105765714D01*
X154079619Y-104813333D02*
X154174857Y-104765714D01*
X154365333Y-104765714D01*
X154460571Y-104813333D01*
X154508190Y-104860952D01*
X154555809Y-104956190D01*
X154555809Y-105241904D01*
X154508190Y-105337142D01*
X154460571Y-105384761D01*
X154365333Y-105432380D01*
X154174857Y-105432380D01*
X154079619Y-105384761D01*
X155127238Y-105432380D02*
X155032000Y-105384761D01*
X154984380Y-105337142D01*
X154936761Y-105241904D01*
X154936761Y-104956190D01*
X154984380Y-104860952D01*
X155032000Y-104813333D01*
X155127238Y-104765714D01*
X155270095Y-104765714D01*
X155365333Y-104813333D01*
X155412952Y-104860952D01*
X155460571Y-104956190D01*
X155460571Y-105241904D01*
X155412952Y-105337142D01*
X155365333Y-105384761D01*
X155270095Y-105432380D01*
X155127238Y-105432380D01*
X156317714Y-105432380D02*
X156317714Y-104432380D01*
X156317714Y-105384761D02*
X156222476Y-105432380D01*
X156032000Y-105432380D01*
X155936761Y-105384761D01*
X155889142Y-105337142D01*
X155841523Y-105241904D01*
X155841523Y-104956190D01*
X155889142Y-104860952D01*
X155936761Y-104813333D01*
X156032000Y-104765714D01*
X156222476Y-104765714D01*
X156317714Y-104813333D01*
X157555809Y-105432380D02*
X157555809Y-104432380D01*
X157555809Y-104908571D02*
X158127238Y-104908571D01*
X158127238Y-105432380D02*
X158127238Y-104432380D01*
X158508190Y-104765714D02*
X158746285Y-105432380D01*
X158984380Y-104765714D02*
X158746285Y-105432380D01*
X158651047Y-105670476D01*
X158603428Y-105718095D01*
X158508190Y-105765714D01*
X159365333Y-104765714D02*
X159365333Y-105765714D01*
X159365333Y-104813333D02*
X159460571Y-104765714D01*
X159651047Y-104765714D01*
X159746285Y-104813333D01*
X159793904Y-104860952D01*
X159841523Y-104956190D01*
X159841523Y-105241904D01*
X159793904Y-105337142D01*
X159746285Y-105384761D01*
X159651047Y-105432380D01*
X159460571Y-105432380D01*
X159365333Y-105384761D01*
X160651047Y-105384761D02*
X160555809Y-105432380D01*
X160365333Y-105432380D01*
X160270095Y-105384761D01*
X160222476Y-105289523D01*
X160222476Y-104908571D01*
X160270095Y-104813333D01*
X160365333Y-104765714D01*
X160555809Y-104765714D01*
X160651047Y-104813333D01*
X160698666Y-104908571D01*
X160698666Y-105003809D01*
X160222476Y-105099047D01*
X161127238Y-105432380D02*
X161127238Y-104765714D01*
X161127238Y-104956190D02*
X161174857Y-104860952D01*
X161222476Y-104813333D01*
X161317714Y-104765714D01*
X161412952Y-104765714D01*
X161889142Y-105432380D02*
X161793904Y-105384761D01*
X161746285Y-105289523D01*
X161746285Y-104432380D01*
X162412952Y-105432380D02*
X162317714Y-105384761D01*
X162270095Y-105337142D01*
X162222476Y-105241904D01*
X162222476Y-104956190D01*
X162270095Y-104860952D01*
X162317714Y-104813333D01*
X162412952Y-104765714D01*
X162555809Y-104765714D01*
X162651047Y-104813333D01*
X162698666Y-104860952D01*
X162746285Y-104956190D01*
X162746285Y-105241904D01*
X162698666Y-105337142D01*
X162651047Y-105384761D01*
X162555809Y-105432380D01*
X162412952Y-105432380D01*
X163317714Y-105432380D02*
X163222476Y-105384761D01*
X163174857Y-105337142D01*
X163127238Y-105241904D01*
X163127238Y-104956190D01*
X163174857Y-104860952D01*
X163222476Y-104813333D01*
X163317714Y-104765714D01*
X163460571Y-104765714D01*
X163555809Y-104813333D01*
X163603428Y-104860952D01*
X163651047Y-104956190D01*
X163651047Y-105241904D01*
X163603428Y-105337142D01*
X163555809Y-105384761D01*
X163460571Y-105432380D01*
X163317714Y-105432380D01*
X164079619Y-104765714D02*
X164079619Y-105765714D01*
X164079619Y-104813333D02*
X164174857Y-104765714D01*
X164365333Y-104765714D01*
X164460571Y-104813333D01*
X164508190Y-104860952D01*
X164555809Y-104956190D01*
X164555809Y-105241904D01*
X164508190Y-105337142D01*
X164460571Y-105384761D01*
X164365333Y-105432380D01*
X164174857Y-105432380D01*
X164079619Y-105384761D01*
X78413000Y-78488380D02*
X78508238Y-78488380D01*
X78603476Y-78536000D01*
X78651095Y-78583619D01*
X78698714Y-78678857D01*
X78746333Y-78869333D01*
X78746333Y-79107428D01*
X78698714Y-79297904D01*
X78651095Y-79393142D01*
X78603476Y-79440761D01*
X78508238Y-79488380D01*
X78413000Y-79488380D01*
X78317761Y-79440761D01*
X78270142Y-79393142D01*
X78222523Y-79297904D01*
X78174904Y-79107428D01*
X78174904Y-78869333D01*
X78222523Y-78678857D01*
X78270142Y-78583619D01*
X78317761Y-78536000D01*
X78413000Y-78488380D01*
X79174904Y-79107428D02*
X79936809Y-79107428D01*
X80413000Y-79107428D02*
X81174904Y-79107428D01*
X81651095Y-79107428D02*
X82413000Y-79107428D01*
X82889190Y-79107428D02*
X83651095Y-79107428D01*
X84651095Y-79488380D02*
X84079666Y-79488380D01*
X84365380Y-79488380D02*
X84365380Y-78488380D01*
X84270142Y-78631238D01*
X84174904Y-78726476D01*
X84079666Y-78774095D01*
D12*
%TO.C,R17*%
X115827380Y-71771142D02*
X115351190Y-72021142D01*
X115827380Y-72199714D02*
X114827380Y-72199714D01*
X114827380Y-71914000D01*
X114875000Y-71842571D01*
X114922619Y-71806857D01*
X115017857Y-71771142D01*
X115160714Y-71771142D01*
X115255952Y-71806857D01*
X115303571Y-71842571D01*
X115351190Y-71914000D01*
X115351190Y-72199714D01*
X115827380Y-71056857D02*
X115827380Y-71485428D01*
X115827380Y-71271142D02*
X114827380Y-71271142D01*
X114970238Y-71342571D01*
X115065476Y-71414000D01*
X115113095Y-71485428D01*
X114827380Y-70806857D02*
X114827380Y-70306857D01*
X115827380Y-70628285D01*
D11*
%TO.C,U1*%
X165419095Y-35516380D02*
X165419095Y-36325904D01*
X165466714Y-36421142D01*
X165514333Y-36468761D01*
X165609571Y-36516380D01*
X165800047Y-36516380D01*
X165895285Y-36468761D01*
X165942904Y-36421142D01*
X165990523Y-36325904D01*
X165990523Y-35516380D01*
X166990523Y-36516380D02*
X166419095Y-36516380D01*
X166704809Y-36516380D02*
X166704809Y-35516380D01*
X166609571Y-35659238D01*
X166514333Y-35754476D01*
X166419095Y-35802095D01*
%TO.C,R1*%
X140202030Y-80787732D02*
X139629610Y-80686717D01*
X139797969Y-81191793D02*
X139090862Y-80484687D01*
X139360236Y-80215312D01*
X139461251Y-80181641D01*
X139528595Y-80181641D01*
X139629610Y-80215312D01*
X139730625Y-80316328D01*
X139764297Y-80417343D01*
X139764297Y-80484687D01*
X139730625Y-80585702D01*
X139461251Y-80855076D01*
X140875465Y-80114297D02*
X140471404Y-80518358D01*
X140673435Y-80316328D02*
X139966328Y-79609221D01*
X140000000Y-79777580D01*
X140000000Y-79912267D01*
X139966328Y-80013282D01*
D12*
%TO.C,C13*%
X121078535Y-77423611D02*
X121019609Y-77432029D01*
X120910176Y-77389939D01*
X120859668Y-77339432D01*
X120817579Y-77229999D01*
X120834415Y-77112147D01*
X120876504Y-77019550D01*
X120985938Y-76859609D01*
X121086953Y-76758594D01*
X121246894Y-76649161D01*
X121339491Y-76607071D01*
X121457342Y-76590235D01*
X121566775Y-76632325D01*
X121617283Y-76682833D01*
X121659373Y-76792266D01*
X121650955Y-76851191D01*
X121516268Y-77996031D02*
X121213222Y-77692985D01*
X121364745Y-77844508D02*
X122071852Y-77137401D01*
X121920329Y-77187909D01*
X121802478Y-77204745D01*
X121718298Y-77187909D01*
X122400151Y-77465701D02*
X122728451Y-77794000D01*
X122282300Y-77886598D01*
X122358061Y-77962359D01*
X122374897Y-78046539D01*
X122366479Y-78105464D01*
X122324390Y-78198061D01*
X122156031Y-78366420D01*
X122063434Y-78408510D01*
X122004508Y-78416928D01*
X121920329Y-78400092D01*
X121768806Y-78248569D01*
X121751970Y-78164390D01*
X121760388Y-78105464D01*
D11*
%TO.C,+Vin*%
X128300000Y-54469428D02*
X129061904Y-54469428D01*
X128680952Y-54850380D02*
X128680952Y-54088476D01*
X129395238Y-53850380D02*
X129728571Y-54850380D01*
X130061904Y-53850380D01*
X130395238Y-54850380D02*
X130395238Y-54183714D01*
X130395238Y-53850380D02*
X130347619Y-53898000D01*
X130395238Y-53945619D01*
X130442857Y-53898000D01*
X130395238Y-53850380D01*
X130395238Y-53945619D01*
X130871428Y-54183714D02*
X130871428Y-54850380D01*
X130871428Y-54278952D02*
X130919047Y-54231333D01*
X131014285Y-54183714D01*
X131157142Y-54183714D01*
X131252380Y-54231333D01*
X131300000Y-54326571D01*
X131300000Y-54850380D01*
D12*
%TO.C,R5*%
X176357000Y-51407380D02*
X176107000Y-50931190D01*
X175928428Y-51407380D02*
X175928428Y-50407380D01*
X176214142Y-50407380D01*
X176285571Y-50455000D01*
X176321285Y-50502619D01*
X176357000Y-50597857D01*
X176357000Y-50740714D01*
X176321285Y-50835952D01*
X176285571Y-50883571D01*
X176214142Y-50931190D01*
X175928428Y-50931190D01*
X177035571Y-50407380D02*
X176678428Y-50407380D01*
X176642714Y-50883571D01*
X176678428Y-50835952D01*
X176749857Y-50788333D01*
X176928428Y-50788333D01*
X176999857Y-50835952D01*
X177035571Y-50883571D01*
X177071285Y-50978809D01*
X177071285Y-51216904D01*
X177035571Y-51312142D01*
X176999857Y-51359761D01*
X176928428Y-51407380D01*
X176749857Y-51407380D01*
X176678428Y-51359761D01*
X176642714Y-51312142D01*
D11*
%TO.C,-Vin*%
X123474000Y-54469428D02*
X124235904Y-54469428D01*
X124569238Y-53850380D02*
X124902571Y-54850380D01*
X125235904Y-53850380D01*
X125569238Y-54850380D02*
X125569238Y-54183714D01*
X125569238Y-53850380D02*
X125521619Y-53898000D01*
X125569238Y-53945619D01*
X125616857Y-53898000D01*
X125569238Y-53850380D01*
X125569238Y-53945619D01*
X126045428Y-54183714D02*
X126045428Y-54850380D01*
X126045428Y-54278952D02*
X126093047Y-54231333D01*
X126188285Y-54183714D01*
X126331142Y-54183714D01*
X126426380Y-54231333D01*
X126474000Y-54326571D01*
X126474000Y-54850380D01*
%TO.C,J6*%
X178838487Y-89490226D02*
X179552773Y-89490226D01*
X179695630Y-89537845D01*
X179790868Y-89633083D01*
X179838487Y-89775940D01*
X179838487Y-89871178D01*
X178838487Y-88585464D02*
X178838487Y-88775940D01*
X178886107Y-88871178D01*
X178933726Y-88918797D01*
X179076583Y-89014035D01*
X179267059Y-89061654D01*
X179648011Y-89061654D01*
X179743249Y-89014035D01*
X179790868Y-88966416D01*
X179838487Y-88871178D01*
X179838487Y-88680702D01*
X179790868Y-88585464D01*
X179743249Y-88537845D01*
X179648011Y-88490226D01*
X179409916Y-88490226D01*
X179314678Y-88537845D01*
X179267059Y-88585464D01*
X179219440Y-88680702D01*
X179219440Y-88871178D01*
X179267059Y-88966416D01*
X179314678Y-89014035D01*
X179409916Y-89061654D01*
D12*
%TO.C,R12*%
X130760380Y-71644142D02*
X130284190Y-71894142D01*
X130760380Y-72072714D02*
X129760380Y-72072714D01*
X129760380Y-71787000D01*
X129808000Y-71715571D01*
X129855619Y-71679857D01*
X129950857Y-71644142D01*
X130093714Y-71644142D01*
X130188952Y-71679857D01*
X130236571Y-71715571D01*
X130284190Y-71787000D01*
X130284190Y-72072714D01*
X130760380Y-70929857D02*
X130760380Y-71358428D01*
X130760380Y-71144142D02*
X129760380Y-71144142D01*
X129903238Y-71215571D01*
X129998476Y-71287000D01*
X130046095Y-71358428D01*
X129855619Y-70644142D02*
X129808000Y-70608428D01*
X129760380Y-70537000D01*
X129760380Y-70358428D01*
X129808000Y-70287000D01*
X129855619Y-70251285D01*
X129950857Y-70215571D01*
X130046095Y-70215571D01*
X130188952Y-70251285D01*
X130760380Y-70679857D01*
X130760380Y-70215571D01*
%TO.C,R19*%
X94011857Y-73039285D02*
X93761857Y-72682142D01*
X93583285Y-73039285D02*
X93583285Y-72289285D01*
X93869000Y-72289285D01*
X93940428Y-72325000D01*
X93976142Y-72360714D01*
X94011857Y-72432142D01*
X94011857Y-72539285D01*
X93976142Y-72610714D01*
X93940428Y-72646428D01*
X93869000Y-72682142D01*
X93583285Y-72682142D01*
X94726142Y-73039285D02*
X94297571Y-73039285D01*
X94511857Y-73039285D02*
X94511857Y-72289285D01*
X94440428Y-72396428D01*
X94369000Y-72467857D01*
X94297571Y-72503571D01*
X95083285Y-73039285D02*
X95226142Y-73039285D01*
X95297571Y-73003571D01*
X95333285Y-72967857D01*
X95404714Y-72860714D01*
X95440428Y-72717857D01*
X95440428Y-72432142D01*
X95404714Y-72360714D01*
X95369000Y-72325000D01*
X95297571Y-72289285D01*
X95154714Y-72289285D01*
X95083285Y-72325000D01*
X95047571Y-72360714D01*
X95011857Y-72432142D01*
X95011857Y-72610714D01*
X95047571Y-72682142D01*
X95083285Y-72717857D01*
X95154714Y-72753571D01*
X95297571Y-72753571D01*
X95369000Y-72717857D01*
X95404714Y-72682142D01*
X95440428Y-72610714D01*
%TO.C,C6*%
X130737309Y-105424926D02*
X130745727Y-105483852D01*
X130703638Y-105593285D01*
X130653130Y-105643792D01*
X130543697Y-105685882D01*
X130425846Y-105669046D01*
X130333248Y-105626956D01*
X130173307Y-105517523D01*
X130072292Y-105416508D01*
X129962859Y-105256567D01*
X129920769Y-105163970D01*
X129903933Y-105046119D01*
X129946023Y-104936686D01*
X129996531Y-104886178D01*
X130105964Y-104844088D01*
X130164890Y-104852506D01*
X130552115Y-104330594D02*
X130451099Y-104431609D01*
X130434264Y-104515789D01*
X130442681Y-104574714D01*
X130493189Y-104726237D01*
X130602622Y-104886178D01*
X130871996Y-105155552D01*
X130964594Y-105197642D01*
X131023519Y-105206060D01*
X131107699Y-105189224D01*
X131208714Y-105088208D01*
X131225550Y-105004029D01*
X131217132Y-104945104D01*
X131175042Y-104852506D01*
X131006683Y-104684147D01*
X130914086Y-104642058D01*
X130855160Y-104633640D01*
X130770981Y-104650476D01*
X130669966Y-104751491D01*
X130653130Y-104835670D01*
X130661548Y-104894596D01*
X130703638Y-104987193D01*
%TO.C,R22*%
X108226857Y-94612880D02*
X107976857Y-94136690D01*
X107798285Y-94612880D02*
X107798285Y-93612880D01*
X108084000Y-93612880D01*
X108155428Y-93660500D01*
X108191142Y-93708119D01*
X108226857Y-93803357D01*
X108226857Y-93946214D01*
X108191142Y-94041452D01*
X108155428Y-94089071D01*
X108084000Y-94136690D01*
X107798285Y-94136690D01*
X108512571Y-93708119D02*
X108548285Y-93660500D01*
X108619714Y-93612880D01*
X108798285Y-93612880D01*
X108869714Y-93660500D01*
X108905428Y-93708119D01*
X108941142Y-93803357D01*
X108941142Y-93898595D01*
X108905428Y-94041452D01*
X108476857Y-94612880D01*
X108941142Y-94612880D01*
X109226857Y-93708119D02*
X109262571Y-93660500D01*
X109334000Y-93612880D01*
X109512571Y-93612880D01*
X109584000Y-93660500D01*
X109619714Y-93708119D01*
X109655428Y-93803357D01*
X109655428Y-93898595D01*
X109619714Y-94041452D01*
X109191142Y-94612880D01*
X109655428Y-94612880D01*
D13*
%TO.C,U9*%
X75052279Y-104351314D02*
X75052279Y-104931885D01*
X75052279Y-104641600D02*
X74036279Y-104641600D01*
X74181421Y-104738361D01*
X74278183Y-104835123D01*
X74326564Y-104931885D01*
D12*
%TO.C,R11*%
X133681380Y-71517142D02*
X133205190Y-71767142D01*
X133681380Y-71945714D02*
X132681380Y-71945714D01*
X132681380Y-71660000D01*
X132729000Y-71588571D01*
X132776619Y-71552857D01*
X132871857Y-71517142D01*
X133014714Y-71517142D01*
X133109952Y-71552857D01*
X133157571Y-71588571D01*
X133205190Y-71660000D01*
X133205190Y-71945714D01*
X133681380Y-70802857D02*
X133681380Y-71231428D01*
X133681380Y-71017142D02*
X132681380Y-71017142D01*
X132824238Y-71088571D01*
X132919476Y-71160000D01*
X132967095Y-71231428D01*
X133681380Y-70088571D02*
X133681380Y-70517142D01*
X133681380Y-70302857D02*
X132681380Y-70302857D01*
X132824238Y-70374285D01*
X132919476Y-70445714D01*
X132967095Y-70517142D01*
D11*
%TO.C,U10*%
X170852904Y-62232380D02*
X170852904Y-63041904D01*
X170900523Y-63137142D01*
X170948142Y-63184761D01*
X171043380Y-63232380D01*
X171233857Y-63232380D01*
X171329095Y-63184761D01*
X171376714Y-63137142D01*
X171424333Y-63041904D01*
X171424333Y-62232380D01*
X172424333Y-63232380D02*
X171852904Y-63232380D01*
X172138619Y-63232380D02*
X172138619Y-62232380D01*
X172043380Y-62375238D01*
X171948142Y-62470476D01*
X171852904Y-62518095D01*
X173043380Y-62232380D02*
X173138619Y-62232380D01*
X173233857Y-62280000D01*
X173281476Y-62327619D01*
X173329095Y-62422857D01*
X173376714Y-62613333D01*
X173376714Y-62851428D01*
X173329095Y-63041904D01*
X173281476Y-63137142D01*
X173233857Y-63184761D01*
X173138619Y-63232380D01*
X173043380Y-63232380D01*
X172948142Y-63184761D01*
X172900523Y-63137142D01*
X172852904Y-63041904D01*
X172805285Y-62851428D01*
X172805285Y-62613333D01*
X172852904Y-62422857D01*
X172900523Y-62327619D01*
X172948142Y-62280000D01*
X173043380Y-62232380D01*
D12*
%TO.C,C26*%
X91892857Y-53217857D02*
X91857142Y-53253571D01*
X91750000Y-53289285D01*
X91678571Y-53289285D01*
X91571428Y-53253571D01*
X91500000Y-53182142D01*
X91464285Y-53110714D01*
X91428571Y-52967857D01*
X91428571Y-52860714D01*
X91464285Y-52717857D01*
X91500000Y-52646428D01*
X91571428Y-52575000D01*
X91678571Y-52539285D01*
X91750000Y-52539285D01*
X91857142Y-52575000D01*
X91892857Y-52610714D01*
X92178571Y-52610714D02*
X92214285Y-52575000D01*
X92285714Y-52539285D01*
X92464285Y-52539285D01*
X92535714Y-52575000D01*
X92571428Y-52610714D01*
X92607142Y-52682142D01*
X92607142Y-52753571D01*
X92571428Y-52860714D01*
X92142857Y-53289285D01*
X92607142Y-53289285D01*
X93250000Y-52539285D02*
X93107142Y-52539285D01*
X93035714Y-52575000D01*
X93000000Y-52610714D01*
X92928571Y-52717857D01*
X92892857Y-52860714D01*
X92892857Y-53146428D01*
X92928571Y-53217857D01*
X92964285Y-53253571D01*
X93035714Y-53289285D01*
X93178571Y-53289285D01*
X93250000Y-53253571D01*
X93285714Y-53217857D01*
X93321428Y-53146428D01*
X93321428Y-52967857D01*
X93285714Y-52896428D01*
X93250000Y-52860714D01*
X93178571Y-52825000D01*
X93035714Y-52825000D01*
X92964285Y-52860714D01*
X92928571Y-52896428D01*
X92892857Y-52967857D01*
%TO.C,R18*%
X112599380Y-71517142D02*
X112123190Y-71767142D01*
X112599380Y-71945714D02*
X111599380Y-71945714D01*
X111599380Y-71660000D01*
X111647000Y-71588571D01*
X111694619Y-71552857D01*
X111789857Y-71517142D01*
X111932714Y-71517142D01*
X112027952Y-71552857D01*
X112075571Y-71588571D01*
X112123190Y-71660000D01*
X112123190Y-71945714D01*
X112599380Y-70802857D02*
X112599380Y-71231428D01*
X112599380Y-71017142D02*
X111599380Y-71017142D01*
X111742238Y-71088571D01*
X111837476Y-71160000D01*
X111885095Y-71231428D01*
X112027952Y-70374285D02*
X111980333Y-70445714D01*
X111932714Y-70481428D01*
X111837476Y-70517142D01*
X111789857Y-70517142D01*
X111694619Y-70481428D01*
X111647000Y-70445714D01*
X111599380Y-70374285D01*
X111599380Y-70231428D01*
X111647000Y-70160000D01*
X111694619Y-70124285D01*
X111789857Y-70088571D01*
X111837476Y-70088571D01*
X111932714Y-70124285D01*
X111980333Y-70160000D01*
X112027952Y-70231428D01*
X112027952Y-70374285D01*
X112075571Y-70445714D01*
X112123190Y-70481428D01*
X112218428Y-70517142D01*
X112408904Y-70517142D01*
X112504142Y-70481428D01*
X112551761Y-70445714D01*
X112599380Y-70374285D01*
X112599380Y-70231428D01*
X112551761Y-70160000D01*
X112504142Y-70124285D01*
X112408904Y-70088571D01*
X112218428Y-70088571D01*
X112123190Y-70124285D01*
X112075571Y-70160000D01*
X112027952Y-70231428D01*
%TO.C,C19*%
X85502857Y-112413142D02*
X85467142Y-112460761D01*
X85360000Y-112508380D01*
X85288571Y-112508380D01*
X85181428Y-112460761D01*
X85110000Y-112365523D01*
X85074285Y-112270285D01*
X85038571Y-112079809D01*
X85038571Y-111936952D01*
X85074285Y-111746476D01*
X85110000Y-111651238D01*
X85181428Y-111556000D01*
X85288571Y-111508380D01*
X85360000Y-111508380D01*
X85467142Y-111556000D01*
X85502857Y-111603619D01*
X86217142Y-112508380D02*
X85788571Y-112508380D01*
X86002857Y-112508380D02*
X86002857Y-111508380D01*
X85931428Y-111651238D01*
X85860000Y-111746476D01*
X85788571Y-111794095D01*
X86574285Y-112508380D02*
X86717142Y-112508380D01*
X86788571Y-112460761D01*
X86824285Y-112413142D01*
X86895714Y-112270285D01*
X86931428Y-112079809D01*
X86931428Y-111698857D01*
X86895714Y-111603619D01*
X86860000Y-111556000D01*
X86788571Y-111508380D01*
X86645714Y-111508380D01*
X86574285Y-111556000D01*
X86538571Y-111603619D01*
X86502857Y-111698857D01*
X86502857Y-111936952D01*
X86538571Y-112032190D01*
X86574285Y-112079809D01*
X86645714Y-112127428D01*
X86788571Y-112127428D01*
X86860000Y-112079809D01*
X86895714Y-112032190D01*
X86931428Y-111936952D01*
%TO.C,C23*%
X91692857Y-58467857D02*
X91657142Y-58503571D01*
X91550000Y-58539285D01*
X91478571Y-58539285D01*
X91371428Y-58503571D01*
X91300000Y-58432142D01*
X91264285Y-58360714D01*
X91228571Y-58217857D01*
X91228571Y-58110714D01*
X91264285Y-57967857D01*
X91300000Y-57896428D01*
X91371428Y-57825000D01*
X91478571Y-57789285D01*
X91550000Y-57789285D01*
X91657142Y-57825000D01*
X91692857Y-57860714D01*
X91978571Y-57860714D02*
X92014285Y-57825000D01*
X92085714Y-57789285D01*
X92264285Y-57789285D01*
X92335714Y-57825000D01*
X92371428Y-57860714D01*
X92407142Y-57932142D01*
X92407142Y-58003571D01*
X92371428Y-58110714D01*
X91942857Y-58539285D01*
X92407142Y-58539285D01*
X92657142Y-57789285D02*
X93121428Y-57789285D01*
X92871428Y-58075000D01*
X92978571Y-58075000D01*
X93050000Y-58110714D01*
X93085714Y-58146428D01*
X93121428Y-58217857D01*
X93121428Y-58396428D01*
X93085714Y-58467857D01*
X93050000Y-58503571D01*
X92978571Y-58539285D01*
X92764285Y-58539285D01*
X92692857Y-58503571D01*
X92657142Y-58467857D01*
%TO.C,C25*%
X168431857Y-109994642D02*
X168396142Y-110042261D01*
X168289000Y-110089880D01*
X168217571Y-110089880D01*
X168110428Y-110042261D01*
X168039000Y-109947023D01*
X168003285Y-109851785D01*
X167967571Y-109661309D01*
X167967571Y-109518452D01*
X168003285Y-109327976D01*
X168039000Y-109232738D01*
X168110428Y-109137500D01*
X168217571Y-109089880D01*
X168289000Y-109089880D01*
X168396142Y-109137500D01*
X168431857Y-109185119D01*
X168717571Y-109185119D02*
X168753285Y-109137500D01*
X168824714Y-109089880D01*
X169003285Y-109089880D01*
X169074714Y-109137500D01*
X169110428Y-109185119D01*
X169146142Y-109280357D01*
X169146142Y-109375595D01*
X169110428Y-109518452D01*
X168681857Y-110089880D01*
X169146142Y-110089880D01*
X169824714Y-109089880D02*
X169467571Y-109089880D01*
X169431857Y-109566071D01*
X169467571Y-109518452D01*
X169539000Y-109470833D01*
X169717571Y-109470833D01*
X169789000Y-109518452D01*
X169824714Y-109566071D01*
X169860428Y-109661309D01*
X169860428Y-109899404D01*
X169824714Y-109994642D01*
X169789000Y-110042261D01*
X169717571Y-110089880D01*
X169539000Y-110089880D01*
X169467571Y-110042261D01*
X169431857Y-109994642D01*
D11*
%TO.C,H4*%
X175393095Y-38096380D02*
X175393095Y-37096380D01*
X175393095Y-37572571D02*
X175964523Y-37572571D01*
X175964523Y-38096380D02*
X175964523Y-37096380D01*
X176869285Y-37429714D02*
X176869285Y-38096380D01*
X176631190Y-37048761D02*
X176393095Y-37763047D01*
X177012142Y-37763047D01*
D12*
%TO.C,C10*%
X144977263Y-98909340D02*
X144920021Y-98919441D01*
X144815639Y-98882402D01*
X144768498Y-98835262D01*
X144731460Y-98730879D01*
X144751663Y-98616395D01*
X144795436Y-98525482D01*
X144906553Y-98367224D01*
X145007568Y-98266209D01*
X145165825Y-98155092D01*
X145256739Y-98111319D01*
X145371223Y-98091116D01*
X145475605Y-98128155D01*
X145522746Y-98175295D01*
X145559785Y-98279678D01*
X145549683Y-98336920D01*
X145381324Y-99448088D02*
X145098482Y-99165245D01*
X145239903Y-99306666D02*
X145947010Y-98599559D01*
X145798854Y-98653434D01*
X145684370Y-98673637D01*
X145603558Y-98660169D01*
X146394844Y-99047394D02*
X146441985Y-99094534D01*
X146455453Y-99175346D01*
X146445352Y-99232588D01*
X146401578Y-99323502D01*
X146290462Y-99481759D01*
X146122103Y-99650118D01*
X145963846Y-99761235D01*
X145872932Y-99805008D01*
X145815690Y-99815110D01*
X145734878Y-99801641D01*
X145687737Y-99754501D01*
X145674269Y-99673688D01*
X145684370Y-99616446D01*
X145728143Y-99525533D01*
X145839260Y-99367275D01*
X146007619Y-99198917D01*
X146165876Y-99087800D01*
X146256790Y-99044027D01*
X146314032Y-99033925D01*
X146394844Y-99047394D01*
D11*
%TO.C,H2*%
X66170202Y-115445273D02*
X66170202Y-114445273D01*
X66170202Y-114921464D02*
X66741630Y-114921464D01*
X66741630Y-115445273D02*
X66741630Y-114445273D01*
X67170202Y-114540512D02*
X67217821Y-114492893D01*
X67313059Y-114445273D01*
X67551154Y-114445273D01*
X67646392Y-114492893D01*
X67694011Y-114540512D01*
X67741630Y-114635750D01*
X67741630Y-114730988D01*
X67694011Y-114873845D01*
X67122583Y-115445273D01*
X67741630Y-115445273D01*
D12*
%TO.C,C2*%
X123363073Y-76025150D02*
X123304147Y-76033568D01*
X123194714Y-75991479D01*
X123144207Y-75940971D01*
X123102117Y-75831538D01*
X123118953Y-75713687D01*
X123161043Y-75621089D01*
X123270476Y-75461148D01*
X123371491Y-75360133D01*
X123531432Y-75250700D01*
X123624029Y-75208610D01*
X123741880Y-75191774D01*
X123851313Y-75233864D01*
X123901821Y-75284372D01*
X123943911Y-75393805D01*
X123935493Y-75452731D01*
X124137523Y-75654761D02*
X124196449Y-75646343D01*
X124280628Y-75663179D01*
X124406897Y-75789448D01*
X124423733Y-75873627D01*
X124415315Y-75932553D01*
X124373226Y-76025150D01*
X124305882Y-76092494D01*
X124179613Y-76168255D01*
X123472506Y-76269270D01*
X123800806Y-76597570D01*
%TO.C,R4*%
X156164000Y-49248380D02*
X155914000Y-48772190D01*
X155735428Y-49248380D02*
X155735428Y-48248380D01*
X156021142Y-48248380D01*
X156092571Y-48296000D01*
X156128285Y-48343619D01*
X156164000Y-48438857D01*
X156164000Y-48581714D01*
X156128285Y-48676952D01*
X156092571Y-48724571D01*
X156021142Y-48772190D01*
X155735428Y-48772190D01*
X156806857Y-48581714D02*
X156806857Y-49248380D01*
X156628285Y-48200761D02*
X156449714Y-48915047D01*
X156914000Y-48915047D01*
%TO.C,R2*%
X156164000Y-41628380D02*
X155914000Y-41152190D01*
X155735428Y-41628380D02*
X155735428Y-40628380D01*
X156021142Y-40628380D01*
X156092571Y-40676000D01*
X156128285Y-40723619D01*
X156164000Y-40818857D01*
X156164000Y-40961714D01*
X156128285Y-41056952D01*
X156092571Y-41104571D01*
X156021142Y-41152190D01*
X155735428Y-41152190D01*
X156449714Y-40723619D02*
X156485428Y-40676000D01*
X156556857Y-40628380D01*
X156735428Y-40628380D01*
X156806857Y-40676000D01*
X156842571Y-40723619D01*
X156878285Y-40818857D01*
X156878285Y-40914095D01*
X156842571Y-41056952D01*
X156414000Y-41628380D01*
X156878285Y-41628380D01*
D11*
%TO.C,J2*%
X113816666Y-115702380D02*
X113816666Y-116416666D01*
X113769047Y-116559523D01*
X113673809Y-116654761D01*
X113530952Y-116702380D01*
X113435714Y-116702380D01*
X114245238Y-115797619D02*
X114292857Y-115750000D01*
X114388095Y-115702380D01*
X114626190Y-115702380D01*
X114721428Y-115750000D01*
X114769047Y-115797619D01*
X114816666Y-115892857D01*
X114816666Y-115988095D01*
X114769047Y-116130952D01*
X114197619Y-116702380D01*
X114816666Y-116702380D01*
%TO.C,J7*%
X116388773Y-127864942D02*
X116388773Y-128579228D01*
X116341154Y-128722085D01*
X116245916Y-128817323D01*
X116103059Y-128864942D01*
X116007821Y-128864942D01*
X116769726Y-127864942D02*
X117436392Y-127864942D01*
X117007821Y-128864942D01*
D12*
%TO.C,C17*%
X91852857Y-67365857D02*
X91817142Y-67401571D01*
X91710000Y-67437285D01*
X91638571Y-67437285D01*
X91531428Y-67401571D01*
X91460000Y-67330142D01*
X91424285Y-67258714D01*
X91388571Y-67115857D01*
X91388571Y-67008714D01*
X91424285Y-66865857D01*
X91460000Y-66794428D01*
X91531428Y-66723000D01*
X91638571Y-66687285D01*
X91710000Y-66687285D01*
X91817142Y-66723000D01*
X91852857Y-66758714D01*
X92567142Y-67437285D02*
X92138571Y-67437285D01*
X92352857Y-67437285D02*
X92352857Y-66687285D01*
X92281428Y-66794428D01*
X92210000Y-66865857D01*
X92138571Y-66901571D01*
X92817142Y-66687285D02*
X93317142Y-66687285D01*
X92995714Y-67437285D01*
D11*
%TO.C,U6*%
X101963095Y-59452380D02*
X101963095Y-60261904D01*
X102010714Y-60357142D01*
X102058333Y-60404761D01*
X102153571Y-60452380D01*
X102344047Y-60452380D01*
X102439285Y-60404761D01*
X102486904Y-60357142D01*
X102534523Y-60261904D01*
X102534523Y-59452380D01*
X103439285Y-59452380D02*
X103248809Y-59452380D01*
X103153571Y-59500000D01*
X103105952Y-59547619D01*
X103010714Y-59690476D01*
X102963095Y-59880952D01*
X102963095Y-60261904D01*
X103010714Y-60357142D01*
X103058333Y-60404761D01*
X103153571Y-60452380D01*
X103344047Y-60452380D01*
X103439285Y-60404761D01*
X103486904Y-60357142D01*
X103534523Y-60261904D01*
X103534523Y-60023809D01*
X103486904Y-59928571D01*
X103439285Y-59880952D01*
X103344047Y-59833333D01*
X103153571Y-59833333D01*
X103058333Y-59880952D01*
X103010714Y-59928571D01*
X102963095Y-60023809D01*
D12*
%TO.C,R7*%
X149556380Y-91988000D02*
X149080190Y-92238000D01*
X149556380Y-92416571D02*
X148556380Y-92416571D01*
X148556380Y-92130857D01*
X148604000Y-92059428D01*
X148651619Y-92023714D01*
X148746857Y-91988000D01*
X148889714Y-91988000D01*
X148984952Y-92023714D01*
X149032571Y-92059428D01*
X149080190Y-92130857D01*
X149080190Y-92416571D01*
X148556380Y-91738000D02*
X148556380Y-91238000D01*
X149556380Y-91559428D01*
%TO.C,R13*%
X127585380Y-71644142D02*
X127109190Y-71894142D01*
X127585380Y-72072714D02*
X126585380Y-72072714D01*
X126585380Y-71787000D01*
X126633000Y-71715571D01*
X126680619Y-71679857D01*
X126775857Y-71644142D01*
X126918714Y-71644142D01*
X127013952Y-71679857D01*
X127061571Y-71715571D01*
X127109190Y-71787000D01*
X127109190Y-72072714D01*
X127585380Y-70929857D02*
X127585380Y-71358428D01*
X127585380Y-71144142D02*
X126585380Y-71144142D01*
X126728238Y-71215571D01*
X126823476Y-71287000D01*
X126871095Y-71358428D01*
X126585380Y-70679857D02*
X126585380Y-70215571D01*
X126966333Y-70465571D01*
X126966333Y-70358428D01*
X127013952Y-70287000D01*
X127061571Y-70251285D01*
X127156809Y-70215571D01*
X127394904Y-70215571D01*
X127490142Y-70251285D01*
X127537761Y-70287000D01*
X127585380Y-70358428D01*
X127585380Y-70572714D01*
X127537761Y-70644142D01*
X127490142Y-70679857D01*
D11*
%TO.C,J11*%
X179358156Y-52466416D02*
X180072442Y-52466416D01*
X180215299Y-52514035D01*
X180310537Y-52609273D01*
X180358156Y-52752131D01*
X180358156Y-52847369D01*
X180358156Y-51466416D02*
X180358156Y-52037845D01*
X180358156Y-51752131D02*
X179358156Y-51752131D01*
X179501014Y-51847369D01*
X179596252Y-51942607D01*
X179643871Y-52037845D01*
X180358156Y-50514035D02*
X180358156Y-51085464D01*
X180358156Y-50799750D02*
X179358156Y-50799750D01*
X179501014Y-50894988D01*
X179596252Y-50990226D01*
X179643871Y-51085464D01*
%TO.C,J20*%
X160867476Y-122684380D02*
X160867476Y-123398666D01*
X160819857Y-123541523D01*
X160724619Y-123636761D01*
X160581761Y-123684380D01*
X160486523Y-123684380D01*
X161296047Y-122779619D02*
X161343666Y-122732000D01*
X161438904Y-122684380D01*
X161677000Y-122684380D01*
X161772238Y-122732000D01*
X161819857Y-122779619D01*
X161867476Y-122874857D01*
X161867476Y-122970095D01*
X161819857Y-123112952D01*
X161248428Y-123684380D01*
X161867476Y-123684380D01*
X162486523Y-122684380D02*
X162581761Y-122684380D01*
X162677000Y-122732000D01*
X162724619Y-122779619D01*
X162772238Y-122874857D01*
X162819857Y-123065333D01*
X162819857Y-123303428D01*
X162772238Y-123493904D01*
X162724619Y-123589142D01*
X162677000Y-123636761D01*
X162581761Y-123684380D01*
X162486523Y-123684380D01*
X162391285Y-123636761D01*
X162343666Y-123589142D01*
X162296047Y-123493904D01*
X162248428Y-123303428D01*
X162248428Y-123065333D01*
X162296047Y-122874857D01*
X162343666Y-122779619D01*
X162391285Y-122732000D01*
X162486523Y-122684380D01*
%TO.C,J13*%
X152522380Y-91009523D02*
X153236666Y-91009523D01*
X153379523Y-91057142D01*
X153474761Y-91152380D01*
X153522380Y-91295238D01*
X153522380Y-91390476D01*
X153522380Y-90009523D02*
X153522380Y-90580952D01*
X153522380Y-90295238D02*
X152522380Y-90295238D01*
X152665238Y-90390476D01*
X152760476Y-90485714D01*
X152808095Y-90580952D01*
X152522380Y-89676190D02*
X152522380Y-89057142D01*
X152903333Y-89390476D01*
X152903333Y-89247619D01*
X152950952Y-89152380D01*
X152998571Y-89104761D01*
X153093809Y-89057142D01*
X153331904Y-89057142D01*
X153427142Y-89104761D01*
X153474761Y-89152380D01*
X153522380Y-89247619D01*
X153522380Y-89533333D01*
X153474761Y-89628571D01*
X153427142Y-89676190D01*
%TO.C,U3*%
X81373380Y-119675904D02*
X82182904Y-119675904D01*
X82278142Y-119628285D01*
X82325761Y-119580666D01*
X82373380Y-119485428D01*
X82373380Y-119294952D01*
X82325761Y-119199714D01*
X82278142Y-119152095D01*
X82182904Y-119104476D01*
X81373380Y-119104476D01*
X81373380Y-118723523D02*
X81373380Y-118104476D01*
X81754333Y-118437809D01*
X81754333Y-118294952D01*
X81801952Y-118199714D01*
X81849571Y-118152095D01*
X81944809Y-118104476D01*
X82182904Y-118104476D01*
X82278142Y-118152095D01*
X82325761Y-118199714D01*
X82373380Y-118294952D01*
X82373380Y-118580666D01*
X82325761Y-118675904D01*
X82278142Y-118723523D01*
D14*
%TO.C,J16*%
X127007857Y-48702285D02*
X127007857Y-49238000D01*
X126972142Y-49345142D01*
X126900714Y-49416571D01*
X126793571Y-49452285D01*
X126722142Y-49452285D01*
X127757857Y-49452285D02*
X127329285Y-49452285D01*
X127543571Y-49452285D02*
X127543571Y-48702285D01*
X127472142Y-48809428D01*
X127400714Y-48880857D01*
X127329285Y-48916571D01*
X128400714Y-48702285D02*
X128257857Y-48702285D01*
X128186428Y-48738000D01*
X128150714Y-48773714D01*
X128079285Y-48880857D01*
X128043571Y-49023714D01*
X128043571Y-49309428D01*
X128079285Y-49380857D01*
X128115000Y-49416571D01*
X128186428Y-49452285D01*
X128329285Y-49452285D01*
X128400714Y-49416571D01*
X128436428Y-49380857D01*
X128472142Y-49309428D01*
X128472142Y-49130857D01*
X128436428Y-49059428D01*
X128400714Y-49023714D01*
X128329285Y-48988000D01*
X128186428Y-48988000D01*
X128115000Y-49023714D01*
X128079285Y-49059428D01*
X128043571Y-49130857D01*
D11*
%TO.C,J10*%
X103715476Y-115527380D02*
X103715476Y-116241666D01*
X103667857Y-116384523D01*
X103572619Y-116479761D01*
X103429761Y-116527380D01*
X103334523Y-116527380D01*
X104715476Y-116527380D02*
X104144047Y-116527380D01*
X104429761Y-116527380D02*
X104429761Y-115527380D01*
X104334523Y-115670238D01*
X104239285Y-115765476D01*
X104144047Y-115813095D01*
X105334523Y-115527380D02*
X105429761Y-115527380D01*
X105525000Y-115575000D01*
X105572619Y-115622619D01*
X105620238Y-115717857D01*
X105667857Y-115908333D01*
X105667857Y-116146428D01*
X105620238Y-116336904D01*
X105572619Y-116432142D01*
X105525000Y-116479761D01*
X105429761Y-116527380D01*
X105334523Y-116527380D01*
X105239285Y-116479761D01*
X105191666Y-116432142D01*
X105144047Y-116336904D01*
X105096428Y-116146428D01*
X105096428Y-115908333D01*
X105144047Y-115717857D01*
X105191666Y-115622619D01*
X105239285Y-115575000D01*
X105334523Y-115527380D01*
X102522619Y-101627380D02*
X102522619Y-102436904D01*
X102570238Y-102532142D01*
X102617857Y-102579761D01*
X102713095Y-102627380D01*
X102903571Y-102627380D01*
X102998809Y-102579761D01*
X103046428Y-102532142D01*
X103094047Y-102436904D01*
X103094047Y-101627380D01*
X103522619Y-102341666D02*
X103998809Y-102341666D01*
X103427380Y-102627380D02*
X103760714Y-101627380D01*
X104094047Y-102627380D01*
X104998809Y-102627380D02*
X104665476Y-102151190D01*
X104427380Y-102627380D02*
X104427380Y-101627380D01*
X104808333Y-101627380D01*
X104903571Y-101675000D01*
X104951190Y-101722619D01*
X104998809Y-101817857D01*
X104998809Y-101960714D01*
X104951190Y-102055952D01*
X104903571Y-102103571D01*
X104808333Y-102151190D01*
X104427380Y-102151190D01*
X105284523Y-101627380D02*
X105855952Y-101627380D01*
X105570238Y-102627380D02*
X105570238Y-101627380D01*
X105951190Y-102722619D02*
X106713095Y-102722619D01*
X106903571Y-101722619D02*
X106951190Y-101675000D01*
X107046428Y-101627380D01*
X107284523Y-101627380D01*
X107379761Y-101675000D01*
X107427380Y-101722619D01*
X107475000Y-101817857D01*
X107475000Y-101913095D01*
X107427380Y-102055952D01*
X106855952Y-102627380D01*
X107475000Y-102627380D01*
%TO.C,J3*%
X140588666Y-36183380D02*
X140588666Y-36897666D01*
X140541047Y-37040523D01*
X140445809Y-37135761D01*
X140302952Y-37183380D01*
X140207714Y-37183380D01*
X140969619Y-36183380D02*
X141588666Y-36183380D01*
X141255333Y-36564333D01*
X141398190Y-36564333D01*
X141493428Y-36611952D01*
X141541047Y-36659571D01*
X141588666Y-36754809D01*
X141588666Y-36992904D01*
X141541047Y-37088142D01*
X141493428Y-37135761D01*
X141398190Y-37183380D01*
X141112476Y-37183380D01*
X141017238Y-37135761D01*
X140969619Y-37088142D01*
D12*
%TO.C,C7*%
X125022309Y-107837926D02*
X125030727Y-107896852D01*
X124988638Y-108006285D01*
X124938130Y-108056792D01*
X124828697Y-108098882D01*
X124710846Y-108082046D01*
X124618248Y-108039956D01*
X124458307Y-107930523D01*
X124357292Y-107829508D01*
X124247859Y-107669567D01*
X124205769Y-107576970D01*
X124188933Y-107459119D01*
X124231023Y-107349686D01*
X124281531Y-107299178D01*
X124390964Y-107257088D01*
X124449890Y-107265506D01*
X124559323Y-107021386D02*
X124912876Y-106667833D01*
X125392699Y-107602224D01*
D11*
%TO.C,J12*%
X178685049Y-127666416D02*
X179399335Y-127666416D01*
X179542192Y-127714035D01*
X179637430Y-127809273D01*
X179685049Y-127952131D01*
X179685049Y-128047369D01*
X179685049Y-126666416D02*
X179685049Y-127237845D01*
X179685049Y-126952131D02*
X178685049Y-126952131D01*
X178827907Y-127047369D01*
X178923145Y-127142607D01*
X178970764Y-127237845D01*
X178780288Y-126285464D02*
X178732669Y-126237845D01*
X178685049Y-126142607D01*
X178685049Y-125904512D01*
X178732669Y-125809273D01*
X178780288Y-125761654D01*
X178875526Y-125714035D01*
X178970764Y-125714035D01*
X179113621Y-125761654D01*
X179685049Y-126333083D01*
X179685049Y-125714035D01*
D12*
%TO.C,C18*%
X89472000Y-127018142D02*
X89438666Y-127065761D01*
X89338666Y-127113380D01*
X89272000Y-127113380D01*
X89172000Y-127065761D01*
X89105333Y-126970523D01*
X89072000Y-126875285D01*
X89038666Y-126684809D01*
X89038666Y-126541952D01*
X89072000Y-126351476D01*
X89105333Y-126256238D01*
X89172000Y-126161000D01*
X89272000Y-126113380D01*
X89338666Y-126113380D01*
X89438666Y-126161000D01*
X89472000Y-126208619D01*
X90138666Y-127113380D02*
X89738666Y-127113380D01*
X89938666Y-127113380D02*
X89938666Y-126113380D01*
X89872000Y-126256238D01*
X89805333Y-126351476D01*
X89738666Y-126399095D01*
X90538666Y-126541952D02*
X90472000Y-126494333D01*
X90438666Y-126446714D01*
X90405333Y-126351476D01*
X90405333Y-126303857D01*
X90438666Y-126208619D01*
X90472000Y-126161000D01*
X90538666Y-126113380D01*
X90672000Y-126113380D01*
X90738666Y-126161000D01*
X90772000Y-126208619D01*
X90805333Y-126303857D01*
X90805333Y-126351476D01*
X90772000Y-126446714D01*
X90738666Y-126494333D01*
X90672000Y-126541952D01*
X90538666Y-126541952D01*
X90472000Y-126589571D01*
X90438666Y-126637190D01*
X90405333Y-126732428D01*
X90405333Y-126922904D01*
X90438666Y-127018142D01*
X90472000Y-127065761D01*
X90538666Y-127113380D01*
X90672000Y-127113380D01*
X90738666Y-127065761D01*
X90772000Y-127018142D01*
X90805333Y-126922904D01*
X90805333Y-126732428D01*
X90772000Y-126637190D01*
X90738666Y-126589571D01*
X90672000Y-126541952D01*
%TO.C,C22*%
X80328000Y-112413142D02*
X80294666Y-112460761D01*
X80194666Y-112508380D01*
X80128000Y-112508380D01*
X80028000Y-112460761D01*
X79961333Y-112365523D01*
X79928000Y-112270285D01*
X79894666Y-112079809D01*
X79894666Y-111936952D01*
X79928000Y-111746476D01*
X79961333Y-111651238D01*
X80028000Y-111556000D01*
X80128000Y-111508380D01*
X80194666Y-111508380D01*
X80294666Y-111556000D01*
X80328000Y-111603619D01*
X80594666Y-111603619D02*
X80628000Y-111556000D01*
X80694666Y-111508380D01*
X80861333Y-111508380D01*
X80928000Y-111556000D01*
X80961333Y-111603619D01*
X80994666Y-111698857D01*
X80994666Y-111794095D01*
X80961333Y-111936952D01*
X80561333Y-112508380D01*
X80994666Y-112508380D01*
X81261333Y-111603619D02*
X81294666Y-111556000D01*
X81361333Y-111508380D01*
X81528000Y-111508380D01*
X81594666Y-111556000D01*
X81628000Y-111603619D01*
X81661333Y-111698857D01*
X81661333Y-111794095D01*
X81628000Y-111936952D01*
X81228000Y-112508380D01*
X81661333Y-112508380D01*
%TO.C,R16*%
X118695380Y-71771142D02*
X118219190Y-72021142D01*
X118695380Y-72199714D02*
X117695380Y-72199714D01*
X117695380Y-71914000D01*
X117743000Y-71842571D01*
X117790619Y-71806857D01*
X117885857Y-71771142D01*
X118028714Y-71771142D01*
X118123952Y-71806857D01*
X118171571Y-71842571D01*
X118219190Y-71914000D01*
X118219190Y-72199714D01*
X118695380Y-71056857D02*
X118695380Y-71485428D01*
X118695380Y-71271142D02*
X117695380Y-71271142D01*
X117838238Y-71342571D01*
X117933476Y-71414000D01*
X117981095Y-71485428D01*
X117695380Y-70414000D02*
X117695380Y-70556857D01*
X117743000Y-70628285D01*
X117790619Y-70664000D01*
X117933476Y-70735428D01*
X118123952Y-70771142D01*
X118504904Y-70771142D01*
X118600142Y-70735428D01*
X118647761Y-70699714D01*
X118695380Y-70628285D01*
X118695380Y-70485428D01*
X118647761Y-70414000D01*
X118600142Y-70378285D01*
X118504904Y-70342571D01*
X118266809Y-70342571D01*
X118171571Y-70378285D01*
X118123952Y-70414000D01*
X118076333Y-70485428D01*
X118076333Y-70628285D01*
X118123952Y-70699714D01*
X118171571Y-70735428D01*
X118266809Y-70771142D01*
%TO.C,C16*%
X90582857Y-112413142D02*
X90547142Y-112460761D01*
X90440000Y-112508380D01*
X90368571Y-112508380D01*
X90261428Y-112460761D01*
X90190000Y-112365523D01*
X90154285Y-112270285D01*
X90118571Y-112079809D01*
X90118571Y-111936952D01*
X90154285Y-111746476D01*
X90190000Y-111651238D01*
X90261428Y-111556000D01*
X90368571Y-111508380D01*
X90440000Y-111508380D01*
X90547142Y-111556000D01*
X90582857Y-111603619D01*
X91297142Y-112508380D02*
X90868571Y-112508380D01*
X91082857Y-112508380D02*
X91082857Y-111508380D01*
X91011428Y-111651238D01*
X90940000Y-111746476D01*
X90868571Y-111794095D01*
X91940000Y-111508380D02*
X91797142Y-111508380D01*
X91725714Y-111556000D01*
X91690000Y-111603619D01*
X91618571Y-111746476D01*
X91582857Y-111936952D01*
X91582857Y-112317904D01*
X91618571Y-112413142D01*
X91654285Y-112460761D01*
X91725714Y-112508380D01*
X91868571Y-112508380D01*
X91940000Y-112460761D01*
X91975714Y-112413142D01*
X92011428Y-112317904D01*
X92011428Y-112079809D01*
X91975714Y-111984571D01*
X91940000Y-111936952D01*
X91868571Y-111889333D01*
X91725714Y-111889333D01*
X91654285Y-111936952D01*
X91618571Y-111984571D01*
X91582857Y-112079809D01*
D11*
%TO.C,U8*%
X149153095Y-59449880D02*
X149153095Y-60259404D01*
X149200714Y-60354642D01*
X149248333Y-60402261D01*
X149343571Y-60449880D01*
X149534047Y-60449880D01*
X149629285Y-60402261D01*
X149676904Y-60354642D01*
X149724523Y-60259404D01*
X149724523Y-59449880D01*
X150343571Y-59878452D02*
X150248333Y-59830833D01*
X150200714Y-59783214D01*
X150153095Y-59687976D01*
X150153095Y-59640357D01*
X150200714Y-59545119D01*
X150248333Y-59497500D01*
X150343571Y-59449880D01*
X150534047Y-59449880D01*
X150629285Y-59497500D01*
X150676904Y-59545119D01*
X150724523Y-59640357D01*
X150724523Y-59687976D01*
X150676904Y-59783214D01*
X150629285Y-59830833D01*
X150534047Y-59878452D01*
X150343571Y-59878452D01*
X150248333Y-59926071D01*
X150200714Y-59973690D01*
X150153095Y-60068928D01*
X150153095Y-60259404D01*
X150200714Y-60354642D01*
X150248333Y-60402261D01*
X150343571Y-60449880D01*
X150534047Y-60449880D01*
X150629285Y-60402261D01*
X150676904Y-60354642D01*
X150724523Y-60259404D01*
X150724523Y-60068928D01*
X150676904Y-59973690D01*
X150629285Y-59926071D01*
X150534047Y-59878452D01*
%TO.C,H3*%
X64663095Y-89902380D02*
X64663095Y-88902380D01*
X64663095Y-89378571D02*
X65234523Y-89378571D01*
X65234523Y-89902380D02*
X65234523Y-88902380D01*
X65615476Y-88902380D02*
X66234523Y-88902380D01*
X65901190Y-89283333D01*
X66044047Y-89283333D01*
X66139285Y-89330952D01*
X66186904Y-89378571D01*
X66234523Y-89473809D01*
X66234523Y-89711904D01*
X66186904Y-89807142D01*
X66139285Y-89854761D01*
X66044047Y-89902380D01*
X65758333Y-89902380D01*
X65663095Y-89854761D01*
X65615476Y-89807142D01*
%TO.C,+5V*%
X109591285Y-54596428D02*
X110353190Y-54596428D01*
X109972238Y-54977380D02*
X109972238Y-54215476D01*
X111305571Y-53977380D02*
X110829380Y-53977380D01*
X110781761Y-54453571D01*
X110829380Y-54405952D01*
X110924619Y-54358333D01*
X111162714Y-54358333D01*
X111257952Y-54405952D01*
X111305571Y-54453571D01*
X111353190Y-54548809D01*
X111353190Y-54786904D01*
X111305571Y-54882142D01*
X111257952Y-54929761D01*
X111162714Y-54977380D01*
X110924619Y-54977380D01*
X110829380Y-54929761D01*
X110781761Y-54882142D01*
X111638904Y-53977380D02*
X111972238Y-54977380D01*
X112305571Y-53977380D01*
%TO.C,C3*%
X110257142Y-79566666D02*
X110304761Y-79614285D01*
X110352380Y-79757142D01*
X110352380Y-79852380D01*
X110304761Y-79995238D01*
X110209523Y-80090476D01*
X110114285Y-80138095D01*
X109923809Y-80185714D01*
X109780952Y-80185714D01*
X109590476Y-80138095D01*
X109495238Y-80090476D01*
X109400000Y-79995238D01*
X109352380Y-79852380D01*
X109352380Y-79757142D01*
X109400000Y-79614285D01*
X109447619Y-79566666D01*
X109352380Y-79233333D02*
X109352380Y-78614285D01*
X109733333Y-78947619D01*
X109733333Y-78804761D01*
X109780952Y-78709523D01*
X109828571Y-78661904D01*
X109923809Y-78614285D01*
X110161904Y-78614285D01*
X110257142Y-78661904D01*
X110304761Y-78709523D01*
X110352380Y-78804761D01*
X110352380Y-79090476D01*
X110304761Y-79185714D01*
X110257142Y-79233333D01*
%TO.C,U4*%
X101963095Y-68852380D02*
X101963095Y-69661904D01*
X102010714Y-69757142D01*
X102058333Y-69804761D01*
X102153571Y-69852380D01*
X102344047Y-69852380D01*
X102439285Y-69804761D01*
X102486904Y-69757142D01*
X102534523Y-69661904D01*
X102534523Y-68852380D01*
X103439285Y-69185714D02*
X103439285Y-69852380D01*
X103201190Y-68804761D02*
X102963095Y-69519047D01*
X103582142Y-69519047D01*
%TO.C,J5*%
X108991666Y-47302380D02*
X108991666Y-48016666D01*
X108944047Y-48159523D01*
X108848809Y-48254761D01*
X108705952Y-48302380D01*
X108610714Y-48302380D01*
X109944047Y-47302380D02*
X109467857Y-47302380D01*
X109420238Y-47778571D01*
X109467857Y-47730952D01*
X109563095Y-47683333D01*
X109801190Y-47683333D01*
X109896428Y-47730952D01*
X109944047Y-47778571D01*
X109991666Y-47873809D01*
X109991666Y-48111904D01*
X109944047Y-48207142D01*
X109896428Y-48254761D01*
X109801190Y-48302380D01*
X109563095Y-48302380D01*
X109467857Y-48254761D01*
X109420238Y-48207142D01*
%TO.C,C8*%
X113145389Y-81415313D02*
X113212732Y-81415313D01*
X113347419Y-81482657D01*
X113414763Y-81550001D01*
X113482106Y-81684688D01*
X113482106Y-81819375D01*
X113448435Y-81920390D01*
X113347419Y-82088749D01*
X113246404Y-82189764D01*
X113078045Y-82290779D01*
X112977030Y-82324451D01*
X112842343Y-82324451D01*
X112707656Y-82257107D01*
X112640312Y-82189764D01*
X112572969Y-82055077D01*
X112572969Y-81987733D01*
X112404610Y-81347970D02*
X112438282Y-81448985D01*
X112438282Y-81516329D01*
X112404610Y-81617344D01*
X112370938Y-81651016D01*
X112269923Y-81684688D01*
X112202580Y-81684688D01*
X112101564Y-81651016D01*
X111966877Y-81516329D01*
X111933206Y-81415313D01*
X111933206Y-81347970D01*
X111966877Y-81246955D01*
X112000549Y-81213283D01*
X112101564Y-81179611D01*
X112168908Y-81179611D01*
X112269923Y-81213283D01*
X112404610Y-81347970D01*
X112505625Y-81381642D01*
X112572969Y-81381642D01*
X112673984Y-81347970D01*
X112808671Y-81213283D01*
X112842343Y-81112268D01*
X112842343Y-81044924D01*
X112808671Y-80943909D01*
X112673984Y-80809222D01*
X112572969Y-80775550D01*
X112505625Y-80775550D01*
X112404610Y-80809222D01*
X112269923Y-80943909D01*
X112236251Y-81044924D01*
X112236251Y-81112268D01*
X112269923Y-81213283D01*
D12*
%TO.C,C1*%
X119680073Y-79835150D02*
X119621147Y-79843568D01*
X119511714Y-79801479D01*
X119461207Y-79750971D01*
X119419117Y-79641538D01*
X119435953Y-79523687D01*
X119478043Y-79431089D01*
X119587476Y-79271148D01*
X119688491Y-79170133D01*
X119848432Y-79060700D01*
X119941029Y-79018610D01*
X120058880Y-79001774D01*
X120168313Y-79043864D01*
X120218821Y-79094372D01*
X120260911Y-79203805D01*
X120252493Y-79262731D01*
X120117806Y-80407570D02*
X119814760Y-80104524D01*
X119966283Y-80256047D02*
X120673390Y-79548940D01*
X120521867Y-79599448D01*
X120404016Y-79616284D01*
X120319836Y-79599448D01*
%TO.C,C14*%
X113336611Y-99093464D02*
X113345029Y-99152390D01*
X113302939Y-99261823D01*
X113252432Y-99312331D01*
X113142999Y-99354420D01*
X113025147Y-99337584D01*
X112932550Y-99295495D01*
X112772609Y-99186061D01*
X112671594Y-99085046D01*
X112562161Y-98925105D01*
X112520071Y-98832508D01*
X112503235Y-98714657D01*
X112545325Y-98605224D01*
X112595833Y-98554716D01*
X112705266Y-98512626D01*
X112764191Y-98521044D01*
X113909031Y-98655731D02*
X113605985Y-98958777D01*
X113757508Y-98807254D02*
X113050401Y-98100147D01*
X113100909Y-98251670D01*
X113117745Y-98369521D01*
X113100909Y-98453701D01*
X113892195Y-97729758D02*
X114363600Y-98201163D01*
X113496552Y-97586653D02*
X113875359Y-98217999D01*
X114203659Y-97889699D01*
D11*
%TO.C,J17*%
X78915476Y-68402380D02*
X78915476Y-69116666D01*
X78867857Y-69259523D01*
X78772619Y-69354761D01*
X78629761Y-69402380D01*
X78534523Y-69402380D01*
X79915476Y-69402380D02*
X79344047Y-69402380D01*
X79629761Y-69402380D02*
X79629761Y-68402380D01*
X79534523Y-68545238D01*
X79439285Y-68640476D01*
X79344047Y-68688095D01*
X80248809Y-68402380D02*
X80915476Y-68402380D01*
X80486904Y-69402380D01*
D12*
%TO.C,R20*%
X169449857Y-112381380D02*
X169199857Y-111905190D01*
X169021285Y-112381380D02*
X169021285Y-111381380D01*
X169307000Y-111381380D01*
X169378428Y-111429000D01*
X169414142Y-111476619D01*
X169449857Y-111571857D01*
X169449857Y-111714714D01*
X169414142Y-111809952D01*
X169378428Y-111857571D01*
X169307000Y-111905190D01*
X169021285Y-111905190D01*
X169735571Y-111476619D02*
X169771285Y-111429000D01*
X169842714Y-111381380D01*
X170021285Y-111381380D01*
X170092714Y-111429000D01*
X170128428Y-111476619D01*
X170164142Y-111571857D01*
X170164142Y-111667095D01*
X170128428Y-111809952D01*
X169699857Y-112381380D01*
X170164142Y-112381380D01*
X170628428Y-111381380D02*
X170699857Y-111381380D01*
X170771285Y-111429000D01*
X170807000Y-111476619D01*
X170842714Y-111571857D01*
X170878428Y-111762333D01*
X170878428Y-112000428D01*
X170842714Y-112190904D01*
X170807000Y-112286142D01*
X170771285Y-112333761D01*
X170699857Y-112381380D01*
X170628428Y-112381380D01*
X170557000Y-112333761D01*
X170521285Y-112286142D01*
X170485571Y-112190904D01*
X170449857Y-112000428D01*
X170449857Y-111762333D01*
X170485571Y-111571857D01*
X170521285Y-111476619D01*
X170557000Y-111429000D01*
X170628428Y-111381380D01*
%TO.C,C21*%
X98788142Y-126232642D02*
X98835761Y-126268357D01*
X98883380Y-126375500D01*
X98883380Y-126446928D01*
X98835761Y-126554071D01*
X98740523Y-126625500D01*
X98645285Y-126661214D01*
X98454809Y-126696928D01*
X98311952Y-126696928D01*
X98121476Y-126661214D01*
X98026238Y-126625500D01*
X97931000Y-126554071D01*
X97883380Y-126446928D01*
X97883380Y-126375500D01*
X97931000Y-126268357D01*
X97978619Y-126232642D01*
X97978619Y-125946928D02*
X97931000Y-125911214D01*
X97883380Y-125839785D01*
X97883380Y-125661214D01*
X97931000Y-125589785D01*
X97978619Y-125554071D01*
X98073857Y-125518357D01*
X98169095Y-125518357D01*
X98311952Y-125554071D01*
X98883380Y-125982642D01*
X98883380Y-125518357D01*
X98883380Y-124804071D02*
X98883380Y-125232642D01*
X98883380Y-125018357D02*
X97883380Y-125018357D01*
X98026238Y-125089785D01*
X98121476Y-125161214D01*
X98169095Y-125232642D01*
%TO.C,C11*%
X115036611Y-100818464D02*
X115045029Y-100877390D01*
X115002939Y-100986823D01*
X114952432Y-101037331D01*
X114842999Y-101079420D01*
X114725147Y-101062584D01*
X114632550Y-101020495D01*
X114472609Y-100911061D01*
X114371594Y-100810046D01*
X114262161Y-100650105D01*
X114220071Y-100557508D01*
X114203235Y-100439657D01*
X114245325Y-100330224D01*
X114295833Y-100279716D01*
X114405266Y-100237626D01*
X114464191Y-100246044D01*
X115609031Y-100380731D02*
X115305985Y-100683777D01*
X115457508Y-100532254D02*
X114750401Y-99825147D01*
X114800909Y-99976670D01*
X114817745Y-100094521D01*
X114800909Y-100178701D01*
X116114107Y-99875655D02*
X115811061Y-100178701D01*
X115962584Y-100027178D02*
X115255478Y-99320071D01*
X115305985Y-99471594D01*
X115322821Y-99589445D01*
X115305985Y-99673625D01*
D11*
%TO.C,J22*%
X165566476Y-122557380D02*
X165566476Y-123271666D01*
X165518857Y-123414523D01*
X165423619Y-123509761D01*
X165280761Y-123557380D01*
X165185523Y-123557380D01*
X165995047Y-122652619D02*
X166042666Y-122605000D01*
X166137904Y-122557380D01*
X166376000Y-122557380D01*
X166471238Y-122605000D01*
X166518857Y-122652619D01*
X166566476Y-122747857D01*
X166566476Y-122843095D01*
X166518857Y-122985952D01*
X165947428Y-123557380D01*
X166566476Y-123557380D01*
X166947428Y-122652619D02*
X166995047Y-122605000D01*
X167090285Y-122557380D01*
X167328380Y-122557380D01*
X167423619Y-122605000D01*
X167471238Y-122652619D01*
X167518857Y-122747857D01*
X167518857Y-122843095D01*
X167471238Y-122985952D01*
X166899809Y-123557380D01*
X167518857Y-123557380D01*
D12*
%TO.C,C28*%
X72581000Y-110508142D02*
X72547666Y-110555761D01*
X72447666Y-110603380D01*
X72381000Y-110603380D01*
X72281000Y-110555761D01*
X72214333Y-110460523D01*
X72181000Y-110365285D01*
X72147666Y-110174809D01*
X72147666Y-110031952D01*
X72181000Y-109841476D01*
X72214333Y-109746238D01*
X72281000Y-109651000D01*
X72381000Y-109603380D01*
X72447666Y-109603380D01*
X72547666Y-109651000D01*
X72581000Y-109698619D01*
X72847666Y-109698619D02*
X72881000Y-109651000D01*
X72947666Y-109603380D01*
X73114333Y-109603380D01*
X73181000Y-109651000D01*
X73214333Y-109698619D01*
X73247666Y-109793857D01*
X73247666Y-109889095D01*
X73214333Y-110031952D01*
X72814333Y-110603380D01*
X73247666Y-110603380D01*
X73647666Y-110031952D02*
X73581000Y-109984333D01*
X73547666Y-109936714D01*
X73514333Y-109841476D01*
X73514333Y-109793857D01*
X73547666Y-109698619D01*
X73581000Y-109651000D01*
X73647666Y-109603380D01*
X73781000Y-109603380D01*
X73847666Y-109651000D01*
X73881000Y-109698619D01*
X73914333Y-109793857D01*
X73914333Y-109841476D01*
X73881000Y-109936714D01*
X73847666Y-109984333D01*
X73781000Y-110031952D01*
X73647666Y-110031952D01*
X73581000Y-110079571D01*
X73547666Y-110127190D01*
X73514333Y-110222428D01*
X73514333Y-110412904D01*
X73547666Y-110508142D01*
X73581000Y-110555761D01*
X73647666Y-110603380D01*
X73781000Y-110603380D01*
X73847666Y-110555761D01*
X73881000Y-110508142D01*
X73914333Y-110412904D01*
X73914333Y-110222428D01*
X73881000Y-110127190D01*
X73847666Y-110079571D01*
X73781000Y-110031952D01*
%TO.C,C5*%
X146731073Y-97234149D02*
X146672147Y-97242567D01*
X146562714Y-97200478D01*
X146512207Y-97149970D01*
X146470117Y-97040537D01*
X146486953Y-96922686D01*
X146529043Y-96830088D01*
X146638476Y-96670147D01*
X146739491Y-96569132D01*
X146899432Y-96459699D01*
X146992029Y-96417609D01*
X147109880Y-96400773D01*
X147219313Y-96442863D01*
X147269821Y-96493371D01*
X147311911Y-96602804D01*
X147303493Y-96661730D01*
X147850659Y-97074208D02*
X147598121Y-96821670D01*
X147236149Y-97133134D01*
X147295075Y-97124716D01*
X147379254Y-97141552D01*
X147505523Y-97267821D01*
X147522359Y-97352000D01*
X147513941Y-97410926D01*
X147471852Y-97503523D01*
X147303493Y-97671882D01*
X147210895Y-97713972D01*
X147151970Y-97722390D01*
X147067791Y-97705554D01*
X146941521Y-97579285D01*
X146924686Y-97495105D01*
X146933104Y-97436180D01*
D11*
%TO.C,J4*%
X80138773Y-127364942D02*
X80138773Y-128079228D01*
X80091154Y-128222085D01*
X79995916Y-128317323D01*
X79853059Y-128364942D01*
X79757821Y-128364942D01*
X81043535Y-127698276D02*
X81043535Y-128364942D01*
X80805440Y-127317323D02*
X80567345Y-128031609D01*
X81186392Y-128031609D01*
%TO.C,J14*%
X120047380Y-113509523D02*
X120761666Y-113509523D01*
X120904523Y-113557142D01*
X120999761Y-113652380D01*
X121047380Y-113795238D01*
X121047380Y-113890476D01*
X121047380Y-112509523D02*
X121047380Y-113080952D01*
X121047380Y-112795238D02*
X120047380Y-112795238D01*
X120190238Y-112890476D01*
X120285476Y-112985714D01*
X120333095Y-113080952D01*
X120380714Y-111652380D02*
X121047380Y-111652380D01*
X119999761Y-111890476D02*
X120714047Y-112128571D01*
X120714047Y-111509523D01*
X124944047Y-110304761D02*
X125086904Y-110352380D01*
X125325000Y-110352380D01*
X125420238Y-110304761D01*
X125467857Y-110257142D01*
X125515476Y-110161904D01*
X125515476Y-110066666D01*
X125467857Y-109971428D01*
X125420238Y-109923809D01*
X125325000Y-109876190D01*
X125134523Y-109828571D01*
X125039285Y-109780952D01*
X124991666Y-109733333D01*
X124944047Y-109638095D01*
X124944047Y-109542857D01*
X124991666Y-109447619D01*
X125039285Y-109400000D01*
X125134523Y-109352380D01*
X125372619Y-109352380D01*
X125515476Y-109400000D01*
X125944047Y-110352380D02*
X125944047Y-109352380D01*
X126325000Y-109352380D01*
X126420238Y-109400000D01*
X126467857Y-109447619D01*
X126515476Y-109542857D01*
X126515476Y-109685714D01*
X126467857Y-109780952D01*
X126420238Y-109828571D01*
X126325000Y-109876190D01*
X125944047Y-109876190D01*
X126944047Y-110352380D02*
X126944047Y-109352380D01*
X127182142Y-110447619D02*
X127944047Y-110447619D01*
X128134523Y-109447619D02*
X128182142Y-109400000D01*
X128277380Y-109352380D01*
X128515476Y-109352380D01*
X128610714Y-109400000D01*
X128658333Y-109447619D01*
X128705952Y-109542857D01*
X128705952Y-109638095D01*
X128658333Y-109780952D01*
X128086904Y-110352380D01*
X128705952Y-110352380D01*
%TO.C,R25*%
X117977380Y-120642857D02*
X117501190Y-120976190D01*
X117977380Y-121214285D02*
X116977380Y-121214285D01*
X116977380Y-120833333D01*
X117025000Y-120738095D01*
X117072619Y-120690476D01*
X117167857Y-120642857D01*
X117310714Y-120642857D01*
X117405952Y-120690476D01*
X117453571Y-120738095D01*
X117501190Y-120833333D01*
X117501190Y-121214285D01*
X117072619Y-120261904D02*
X117025000Y-120214285D01*
X116977380Y-120119047D01*
X116977380Y-119880952D01*
X117025000Y-119785714D01*
X117072619Y-119738095D01*
X117167857Y-119690476D01*
X117263095Y-119690476D01*
X117405952Y-119738095D01*
X117977380Y-120309523D01*
X117977380Y-119690476D01*
X116977380Y-118785714D02*
X116977380Y-119261904D01*
X117453571Y-119309523D01*
X117405952Y-119261904D01*
X117358333Y-119166666D01*
X117358333Y-118928571D01*
X117405952Y-118833333D01*
X117453571Y-118785714D01*
X117548809Y-118738095D01*
X117786904Y-118738095D01*
X117882142Y-118785714D01*
X117929761Y-118833333D01*
X117977380Y-118928571D01*
X117977380Y-119166666D01*
X117929761Y-119261904D01*
X117882142Y-119309523D01*
%TO.C,H1*%
X177092095Y-137473380D02*
X177092095Y-136473380D01*
X177092095Y-136949571D02*
X177663523Y-136949571D01*
X177663523Y-137473380D02*
X177663523Y-136473380D01*
X178663523Y-137473380D02*
X178092095Y-137473380D01*
X178377809Y-137473380D02*
X178377809Y-136473380D01*
X178282571Y-136616238D01*
X178187333Y-136711476D01*
X178092095Y-136759095D01*
%TO.C,J18*%
X74415476Y-76802380D02*
X74415476Y-77516666D01*
X74367857Y-77659523D01*
X74272619Y-77754761D01*
X74129761Y-77802380D01*
X74034523Y-77802380D01*
X75415476Y-77802380D02*
X74844047Y-77802380D01*
X75129761Y-77802380D02*
X75129761Y-76802380D01*
X75034523Y-76945238D01*
X74939285Y-77040476D01*
X74844047Y-77088095D01*
X75986904Y-77230952D02*
X75891666Y-77183333D01*
X75844047Y-77135714D01*
X75796428Y-77040476D01*
X75796428Y-76992857D01*
X75844047Y-76897619D01*
X75891666Y-76850000D01*
X75986904Y-76802380D01*
X76177380Y-76802380D01*
X76272619Y-76850000D01*
X76320238Y-76897619D01*
X76367857Y-76992857D01*
X76367857Y-77040476D01*
X76320238Y-77135714D01*
X76272619Y-77183333D01*
X76177380Y-77230952D01*
X75986904Y-77230952D01*
X75891666Y-77278571D01*
X75844047Y-77326190D01*
X75796428Y-77421428D01*
X75796428Y-77611904D01*
X75844047Y-77707142D01*
X75891666Y-77754761D01*
X75986904Y-77802380D01*
X76177380Y-77802380D01*
X76272619Y-77754761D01*
X76320238Y-77707142D01*
X76367857Y-77611904D01*
X76367857Y-77421428D01*
X76320238Y-77326190D01*
X76272619Y-77278571D01*
X76177380Y-77230952D01*
%TO.C,3V3*%
X114718904Y-53977380D02*
X115337952Y-53977380D01*
X115004619Y-54358333D01*
X115147476Y-54358333D01*
X115242714Y-54405952D01*
X115290333Y-54453571D01*
X115337952Y-54548809D01*
X115337952Y-54786904D01*
X115290333Y-54882142D01*
X115242714Y-54929761D01*
X115147476Y-54977380D01*
X114861761Y-54977380D01*
X114766523Y-54929761D01*
X114718904Y-54882142D01*
X115623666Y-53977380D02*
X115957000Y-54977380D01*
X116290333Y-53977380D01*
X116528428Y-53977380D02*
X117147476Y-53977380D01*
X116814142Y-54358333D01*
X116957000Y-54358333D01*
X117052238Y-54405952D01*
X117099857Y-54453571D01*
X117147476Y-54548809D01*
X117147476Y-54786904D01*
X117099857Y-54882142D01*
X117052238Y-54929761D01*
X116957000Y-54977380D01*
X116671285Y-54977380D01*
X116576047Y-54929761D01*
X116528428Y-54882142D01*
D12*
%TO.C,C20*%
X91742857Y-62467857D02*
X91707142Y-62503571D01*
X91600000Y-62539285D01*
X91528571Y-62539285D01*
X91421428Y-62503571D01*
X91350000Y-62432142D01*
X91314285Y-62360714D01*
X91278571Y-62217857D01*
X91278571Y-62110714D01*
X91314285Y-61967857D01*
X91350000Y-61896428D01*
X91421428Y-61825000D01*
X91528571Y-61789285D01*
X91600000Y-61789285D01*
X91707142Y-61825000D01*
X91742857Y-61860714D01*
X92028571Y-61860714D02*
X92064285Y-61825000D01*
X92135714Y-61789285D01*
X92314285Y-61789285D01*
X92385714Y-61825000D01*
X92421428Y-61860714D01*
X92457142Y-61932142D01*
X92457142Y-62003571D01*
X92421428Y-62110714D01*
X91992857Y-62539285D01*
X92457142Y-62539285D01*
X92921428Y-61789285D02*
X92992857Y-61789285D01*
X93064285Y-61825000D01*
X93100000Y-61860714D01*
X93135714Y-61932142D01*
X93171428Y-62075000D01*
X93171428Y-62253571D01*
X93135714Y-62396428D01*
X93100000Y-62467857D01*
X93064285Y-62503571D01*
X92992857Y-62539285D01*
X92921428Y-62539285D01*
X92850000Y-62503571D01*
X92814285Y-62467857D01*
X92778571Y-62396428D01*
X92742857Y-62253571D01*
X92742857Y-62075000D01*
X92778571Y-61932142D01*
X92814285Y-61860714D01*
X92850000Y-61825000D01*
X92921428Y-61789285D01*
%TO.C,R3*%
X117580730Y-81934493D02*
X117740670Y-81420999D01*
X117277684Y-81631447D02*
X117984791Y-80924340D01*
X118186821Y-81126371D01*
X118203657Y-81210550D01*
X118195239Y-81269476D01*
X118153149Y-81362073D01*
X118052134Y-81463088D01*
X117959537Y-81505178D01*
X117900611Y-81513596D01*
X117816432Y-81496760D01*
X117614401Y-81294730D01*
X118464613Y-81404163D02*
X118792913Y-81732462D01*
X118346762Y-81825060D01*
X118422523Y-81900821D01*
X118439359Y-81985000D01*
X118430941Y-82043926D01*
X118388852Y-82136523D01*
X118220493Y-82304882D01*
X118127895Y-82346972D01*
X118068970Y-82355390D01*
X117984791Y-82338554D01*
X117833268Y-82187031D01*
X117816432Y-82102852D01*
X117824850Y-82043926D01*
D15*
%TO.C,R9*%
X139827380Y-69992000D02*
X139351190Y-70192000D01*
X139827380Y-70334857D02*
X138827380Y-70334857D01*
X138827380Y-70106285D01*
X138875000Y-70049142D01*
X138922619Y-70020571D01*
X139017857Y-69992000D01*
X139160714Y-69992000D01*
X139255952Y-70020571D01*
X139303571Y-70049142D01*
X139351190Y-70106285D01*
X139351190Y-70334857D01*
X139827380Y-69706285D02*
X139827380Y-69592000D01*
X139779761Y-69534857D01*
X139732142Y-69506285D01*
X139589285Y-69449142D01*
X139398809Y-69420571D01*
X139017857Y-69420571D01*
X138922619Y-69449142D01*
X138875000Y-69477714D01*
X138827380Y-69534857D01*
X138827380Y-69649142D01*
X138875000Y-69706285D01*
X138922619Y-69734857D01*
X139017857Y-69763428D01*
X139255952Y-69763428D01*
X139351190Y-69734857D01*
X139398809Y-69706285D01*
X139446428Y-69649142D01*
X139446428Y-69534857D01*
X139398809Y-69477714D01*
X139351190Y-69449142D01*
X139255952Y-69420571D01*
D12*
%TO.C,R14*%
X124664380Y-71644142D02*
X124188190Y-71894142D01*
X124664380Y-72072714D02*
X123664380Y-72072714D01*
X123664380Y-71787000D01*
X123712000Y-71715571D01*
X123759619Y-71679857D01*
X123854857Y-71644142D01*
X123997714Y-71644142D01*
X124092952Y-71679857D01*
X124140571Y-71715571D01*
X124188190Y-71787000D01*
X124188190Y-72072714D01*
X124664380Y-70929857D02*
X124664380Y-71358428D01*
X124664380Y-71144142D02*
X123664380Y-71144142D01*
X123807238Y-71215571D01*
X123902476Y-71287000D01*
X123950095Y-71358428D01*
X123997714Y-70287000D02*
X124664380Y-70287000D01*
X123616761Y-70465571D02*
X124331047Y-70644142D01*
X124331047Y-70179857D01*
D11*
%TO.C,J8*%
X153841666Y-136252380D02*
X153841666Y-136966666D01*
X153794047Y-137109523D01*
X153698809Y-137204761D01*
X153555952Y-137252380D01*
X153460714Y-137252380D01*
X154460714Y-136680952D02*
X154365476Y-136633333D01*
X154317857Y-136585714D01*
X154270238Y-136490476D01*
X154270238Y-136442857D01*
X154317857Y-136347619D01*
X154365476Y-136300000D01*
X154460714Y-136252380D01*
X154651190Y-136252380D01*
X154746428Y-136300000D01*
X154794047Y-136347619D01*
X154841666Y-136442857D01*
X154841666Y-136490476D01*
X154794047Y-136585714D01*
X154746428Y-136633333D01*
X154651190Y-136680952D01*
X154460714Y-136680952D01*
X154365476Y-136728571D01*
X154317857Y-136776190D01*
X154270238Y-136871428D01*
X154270238Y-137061904D01*
X154317857Y-137157142D01*
X154365476Y-137204761D01*
X154460714Y-137252380D01*
X154651190Y-137252380D01*
X154746428Y-137204761D01*
X154794047Y-137157142D01*
X154841666Y-137061904D01*
X154841666Y-136871428D01*
X154794047Y-136776190D01*
X154746428Y-136728571D01*
X154651190Y-136680952D01*
D12*
%TO.C,R8*%
X152223380Y-92115000D02*
X151747190Y-92365000D01*
X152223380Y-92543571D02*
X151223380Y-92543571D01*
X151223380Y-92257857D01*
X151271000Y-92186428D01*
X151318619Y-92150714D01*
X151413857Y-92115000D01*
X151556714Y-92115000D01*
X151651952Y-92150714D01*
X151699571Y-92186428D01*
X151747190Y-92257857D01*
X151747190Y-92543571D01*
X151651952Y-91686428D02*
X151604333Y-91757857D01*
X151556714Y-91793571D01*
X151461476Y-91829285D01*
X151413857Y-91829285D01*
X151318619Y-91793571D01*
X151271000Y-91757857D01*
X151223380Y-91686428D01*
X151223380Y-91543571D01*
X151271000Y-91472142D01*
X151318619Y-91436428D01*
X151413857Y-91400714D01*
X151461476Y-91400714D01*
X151556714Y-91436428D01*
X151604333Y-91472142D01*
X151651952Y-91543571D01*
X151651952Y-91686428D01*
X151699571Y-91757857D01*
X151747190Y-91793571D01*
X151842428Y-91829285D01*
X152032904Y-91829285D01*
X152128142Y-91793571D01*
X152175761Y-91757857D01*
X152223380Y-91686428D01*
X152223380Y-91543571D01*
X152175761Y-91472142D01*
X152128142Y-91436428D01*
X152032904Y-91400714D01*
X151842428Y-91400714D01*
X151747190Y-91436428D01*
X151699571Y-91472142D01*
X151651952Y-91543571D01*
D11*
%TO.C,Y1*%
X115237957Y-75834263D02*
X114901239Y-75497545D01*
X115844048Y-75968950D02*
X115237957Y-75834263D01*
X115372644Y-76440354D01*
X114059446Y-76339339D02*
X114463507Y-75935278D01*
X114261476Y-76137309D02*
X114968583Y-76844415D01*
X114934911Y-76676057D01*
X114934911Y-76541370D01*
X114968583Y-76440354D01*
%TO.C,U2*%
X141074026Y-92576522D02*
X141646446Y-93148942D01*
X141747461Y-93182614D01*
X141814805Y-93182614D01*
X141915820Y-93148942D01*
X142050507Y-93014255D01*
X142084179Y-92913240D01*
X142084179Y-92845896D01*
X142050507Y-92744881D01*
X141478087Y-92172461D01*
X141848477Y-91936759D02*
X141848477Y-91869416D01*
X141882148Y-91768400D01*
X142050507Y-91600042D01*
X142151522Y-91566370D01*
X142218866Y-91566370D01*
X142319881Y-91600042D01*
X142387225Y-91667385D01*
X142454568Y-91802072D01*
X142454568Y-92610194D01*
X142892301Y-92172461D01*
D12*
%TO.C,C15*%
X112950535Y-85551611D02*
X112891609Y-85560029D01*
X112782176Y-85517939D01*
X112731668Y-85467432D01*
X112689579Y-85357999D01*
X112706415Y-85240147D01*
X112748504Y-85147550D01*
X112857938Y-84987609D01*
X112958953Y-84886594D01*
X113118894Y-84777161D01*
X113211491Y-84735071D01*
X113329342Y-84718235D01*
X113438775Y-84760325D01*
X113489283Y-84810833D01*
X113531373Y-84920266D01*
X113522955Y-84979191D01*
X113388268Y-86124031D02*
X113085222Y-85820985D01*
X113236745Y-85972508D02*
X113943852Y-85265401D01*
X113792329Y-85315909D01*
X113674478Y-85332745D01*
X113590298Y-85315909D01*
X114575197Y-85896747D02*
X114322659Y-85644208D01*
X113960687Y-85955672D01*
X114019613Y-85947254D01*
X114103792Y-85964090D01*
X114230061Y-86090359D01*
X114246897Y-86174539D01*
X114238479Y-86233464D01*
X114196390Y-86326061D01*
X114028031Y-86494420D01*
X113935434Y-86536510D01*
X113876508Y-86544928D01*
X113792329Y-86528092D01*
X113666060Y-86401823D01*
X113649224Y-86317643D01*
X113657642Y-86258718D01*
D11*
%TO.C,SW1*%
X101041666Y-80004761D02*
X101184523Y-80052380D01*
X101422619Y-80052380D01*
X101517857Y-80004761D01*
X101565476Y-79957142D01*
X101613095Y-79861904D01*
X101613095Y-79766666D01*
X101565476Y-79671428D01*
X101517857Y-79623809D01*
X101422619Y-79576190D01*
X101232142Y-79528571D01*
X101136904Y-79480952D01*
X101089285Y-79433333D01*
X101041666Y-79338095D01*
X101041666Y-79242857D01*
X101089285Y-79147619D01*
X101136904Y-79100000D01*
X101232142Y-79052380D01*
X101470238Y-79052380D01*
X101613095Y-79100000D01*
X101946428Y-79052380D02*
X102184523Y-80052380D01*
X102375000Y-79338095D01*
X102565476Y-80052380D01*
X102803571Y-79052380D01*
X103708333Y-80052380D02*
X103136904Y-80052380D01*
X103422619Y-80052380D02*
X103422619Y-79052380D01*
X103327380Y-79195238D01*
X103232142Y-79290476D01*
X103136904Y-79338095D01*
D12*
%TO.C,R15*%
X121489380Y-71644142D02*
X121013190Y-71894142D01*
X121489380Y-72072714D02*
X120489380Y-72072714D01*
X120489380Y-71787000D01*
X120537000Y-71715571D01*
X120584619Y-71679857D01*
X120679857Y-71644142D01*
X120822714Y-71644142D01*
X120917952Y-71679857D01*
X120965571Y-71715571D01*
X121013190Y-71787000D01*
X121013190Y-72072714D01*
X121489380Y-70929857D02*
X121489380Y-71358428D01*
X121489380Y-71144142D02*
X120489380Y-71144142D01*
X120632238Y-71215571D01*
X120727476Y-71287000D01*
X120775095Y-71358428D01*
X120489380Y-70251285D02*
X120489380Y-70608428D01*
X120965571Y-70644142D01*
X120917952Y-70608428D01*
X120870333Y-70537000D01*
X120870333Y-70358428D01*
X120917952Y-70287000D01*
X120965571Y-70251285D01*
X121060809Y-70215571D01*
X121298904Y-70215571D01*
X121394142Y-70251285D01*
X121441761Y-70287000D01*
X121489380Y-70358428D01*
X121489380Y-70537000D01*
X121441761Y-70608428D01*
X121394142Y-70644142D01*
D11*
%TO.C,C27*%
X67779491Y-67007142D02*
X67731872Y-67054761D01*
X67589015Y-67102380D01*
X67493777Y-67102380D01*
X67350920Y-67054761D01*
X67255682Y-66959523D01*
X67208063Y-66864285D01*
X67160444Y-66673809D01*
X67160444Y-66530952D01*
X67208063Y-66340476D01*
X67255682Y-66245238D01*
X67350920Y-66150000D01*
X67493777Y-66102380D01*
X67589015Y-66102380D01*
X67731872Y-66150000D01*
X67779491Y-66197619D01*
X68160444Y-66197619D02*
X68208063Y-66150000D01*
X68303301Y-66102380D01*
X68541396Y-66102380D01*
X68636634Y-66150000D01*
X68684253Y-66197619D01*
X68731872Y-66292857D01*
X68731872Y-66388095D01*
X68684253Y-66530952D01*
X68112825Y-67102380D01*
X68731872Y-67102380D01*
X69065206Y-66102380D02*
X69731872Y-66102380D01*
X69303301Y-67102380D01*
D12*
%TO.C,R21*%
X88692857Y-73139285D02*
X88442857Y-72782142D01*
X88264285Y-73139285D02*
X88264285Y-72389285D01*
X88550000Y-72389285D01*
X88621428Y-72425000D01*
X88657142Y-72460714D01*
X88692857Y-72532142D01*
X88692857Y-72639285D01*
X88657142Y-72710714D01*
X88621428Y-72746428D01*
X88550000Y-72782142D01*
X88264285Y-72782142D01*
X88978571Y-72460714D02*
X89014285Y-72425000D01*
X89085714Y-72389285D01*
X89264285Y-72389285D01*
X89335714Y-72425000D01*
X89371428Y-72460714D01*
X89407142Y-72532142D01*
X89407142Y-72603571D01*
X89371428Y-72710714D01*
X88942857Y-73139285D01*
X89407142Y-73139285D01*
X90121428Y-73139285D02*
X89692857Y-73139285D01*
X89907142Y-73139285D02*
X89907142Y-72389285D01*
X89835714Y-72496428D01*
X89764285Y-72567857D01*
X89692857Y-72603571D01*
%TO.C,J15*%
X139651460Y-77935089D02*
X140156536Y-78440165D01*
X140232297Y-78566435D01*
X140249133Y-78684286D01*
X140207043Y-78793719D01*
X140156536Y-78844226D01*
X140888896Y-78111866D02*
X140585851Y-78414912D01*
X140737374Y-78263389D02*
X140030267Y-77556282D01*
X140080774Y-77707805D01*
X140097610Y-77825656D01*
X140080774Y-77909835D01*
X140661612Y-76924937D02*
X140409074Y-77177475D01*
X140720538Y-77539446D01*
X140712120Y-77480521D01*
X140728956Y-77396341D01*
X140855225Y-77270072D01*
X140939404Y-77253236D01*
X140998330Y-77261654D01*
X141090927Y-77303744D01*
X141259286Y-77472103D01*
X141301375Y-77564700D01*
X141309793Y-77623625D01*
X141292957Y-77707805D01*
X141166688Y-77834074D01*
X141082509Y-77850910D01*
X141023583Y-77842492D01*
%TO.C,C9*%
X115362073Y-84153149D02*
X115303147Y-84161567D01*
X115193714Y-84119478D01*
X115143207Y-84068970D01*
X115101117Y-83959537D01*
X115117953Y-83841686D01*
X115160043Y-83749088D01*
X115269476Y-83589147D01*
X115370491Y-83488132D01*
X115530432Y-83378699D01*
X115623029Y-83336609D01*
X115740880Y-83319773D01*
X115850313Y-83361863D01*
X115900821Y-83412371D01*
X115942911Y-83521804D01*
X115934493Y-83580730D01*
X115547268Y-84473031D02*
X115648283Y-84574046D01*
X115732462Y-84590882D01*
X115791388Y-84582464D01*
X115942911Y-84531956D01*
X116102852Y-84422523D01*
X116372226Y-84153149D01*
X116414315Y-84060552D01*
X116422733Y-84001626D01*
X116405897Y-83917447D01*
X116304882Y-83816432D01*
X116220703Y-83799596D01*
X116161777Y-83808014D01*
X116069180Y-83850104D01*
X115900821Y-84018462D01*
X115858731Y-84111060D01*
X115850313Y-84169985D01*
X115867149Y-84254165D01*
X115968165Y-84355180D01*
X116052344Y-84372016D01*
X116111269Y-84363598D01*
X116203867Y-84321508D01*
%TO.C,R10*%
X136727380Y-71263142D02*
X136251190Y-71513142D01*
X136727380Y-71691714D02*
X135727380Y-71691714D01*
X135727380Y-71406000D01*
X135775000Y-71334571D01*
X135822619Y-71298857D01*
X135917857Y-71263142D01*
X136060714Y-71263142D01*
X136155952Y-71298857D01*
X136203571Y-71334571D01*
X136251190Y-71406000D01*
X136251190Y-71691714D01*
X136727380Y-70548857D02*
X136727380Y-70977428D01*
X136727380Y-70763142D02*
X135727380Y-70763142D01*
X135870238Y-70834571D01*
X135965476Y-70906000D01*
X136013095Y-70977428D01*
X135727380Y-70084571D02*
X135727380Y-70013142D01*
X135775000Y-69941714D01*
X135822619Y-69906000D01*
X135917857Y-69870285D01*
X136108333Y-69834571D01*
X136346428Y-69834571D01*
X136536904Y-69870285D01*
X136632142Y-69906000D01*
X136679761Y-69941714D01*
X136727380Y-70013142D01*
X136727380Y-70084571D01*
X136679761Y-70156000D01*
X136632142Y-70191714D01*
X136536904Y-70227428D01*
X136346428Y-70263142D01*
X136108333Y-70263142D01*
X135917857Y-70227428D01*
X135822619Y-70191714D01*
X135775000Y-70156000D01*
X135727380Y-70084571D01*
D11*
%TO.C,U7*%
X76570202Y-52986273D02*
X76570202Y-53795797D01*
X76617821Y-53891035D01*
X76665440Y-53938654D01*
X76760678Y-53986273D01*
X76951154Y-53986273D01*
X77046392Y-53938654D01*
X77094011Y-53891035D01*
X77141630Y-53795797D01*
X77141630Y-52986273D01*
X77522583Y-52986273D02*
X78189249Y-52986273D01*
X77760678Y-53986273D01*
X79110202Y-39873893D02*
X79014964Y-39826273D01*
X78872107Y-39826273D01*
X78729249Y-39873893D01*
X78634011Y-39969131D01*
X78586392Y-40064369D01*
X78538773Y-40254845D01*
X78538773Y-40397702D01*
X78586392Y-40588178D01*
X78634011Y-40683416D01*
X78729249Y-40778654D01*
X78872107Y-40826273D01*
X78967345Y-40826273D01*
X79110202Y-40778654D01*
X79157821Y-40731035D01*
X79157821Y-40397702D01*
X78967345Y-40397702D01*
X79586392Y-40826273D02*
X79586392Y-39826273D01*
X80157821Y-40826273D01*
X80157821Y-39826273D01*
X80634011Y-40826273D02*
X80634011Y-39826273D01*
X80872107Y-39826273D01*
X81014964Y-39873893D01*
X81110202Y-39969131D01*
X81157821Y-40064369D01*
X81205440Y-40254845D01*
X81205440Y-40397702D01*
X81157821Y-40588178D01*
X81110202Y-40683416D01*
X81014964Y-40778654D01*
X80872107Y-40826273D01*
X80634011Y-40826273D01*
X87015916Y-57606273D02*
X87111154Y-57606273D01*
X87206392Y-57653893D01*
X87254011Y-57701512D01*
X87301630Y-57796750D01*
X87349249Y-57987226D01*
X87349249Y-58225321D01*
X87301630Y-58415797D01*
X87254011Y-58511035D01*
X87206392Y-58558654D01*
X87111154Y-58606273D01*
X87015916Y-58606273D01*
X86920678Y-58558654D01*
X86873059Y-58511035D01*
X86825440Y-58415797D01*
X86777821Y-58225321D01*
X86777821Y-57987226D01*
X86825440Y-57796750D01*
X86873059Y-57701512D01*
X86920678Y-57653893D01*
X87015916Y-57606273D01*
X87634964Y-57606273D02*
X87968297Y-58606273D01*
X88301630Y-57606273D01*
X73768297Y-39826273D02*
X74101630Y-40826273D01*
X74434964Y-39826273D01*
X74768297Y-40826273D02*
X74768297Y-40159607D01*
X74768297Y-39826273D02*
X74720678Y-39873893D01*
X74768297Y-39921512D01*
X74815916Y-39873893D01*
X74768297Y-39826273D01*
X74768297Y-39921512D01*
X75244487Y-40159607D02*
X75244487Y-40826273D01*
X75244487Y-40254845D02*
X75292107Y-40207226D01*
X75387345Y-40159607D01*
X75530202Y-40159607D01*
X75625440Y-40207226D01*
X75673059Y-40302464D01*
X75673059Y-40826273D01*
X65910202Y-58225321D02*
X66672107Y-58225321D01*
X66291154Y-58606273D02*
X66291154Y-57844369D01*
X67005440Y-57606273D02*
X67338773Y-58606273D01*
X67672107Y-57606273D01*
X68148297Y-58606273D02*
X68053059Y-58558654D01*
X68005440Y-58511035D01*
X67957821Y-58415797D01*
X67957821Y-58130083D01*
X68005440Y-58034845D01*
X68053059Y-57987226D01*
X68148297Y-57939607D01*
X68291154Y-57939607D01*
X68386392Y-57987226D01*
X68434011Y-58034845D01*
X68481630Y-58130083D01*
X68481630Y-58415797D01*
X68434011Y-58511035D01*
X68386392Y-58558654D01*
X68291154Y-58606273D01*
X68148297Y-58606273D01*
%TO.C,U5*%
X160796225Y-110579893D02*
X160796225Y-111389417D01*
X160843844Y-111484655D01*
X160891463Y-111532274D01*
X160986701Y-111579893D01*
X161177177Y-111579893D01*
X161272415Y-111532274D01*
X161320034Y-111484655D01*
X161367653Y-111389417D01*
X161367653Y-110579893D01*
X162320034Y-110579893D02*
X161843844Y-110579893D01*
X161796225Y-111056084D01*
X161843844Y-111008465D01*
X161939082Y-110960846D01*
X162177177Y-110960846D01*
X162272415Y-111008465D01*
X162320034Y-111056084D01*
X162367653Y-111151322D01*
X162367653Y-111389417D01*
X162320034Y-111484655D01*
X162272415Y-111532274D01*
X162177177Y-111579893D01*
X161939082Y-111579893D01*
X161843844Y-111532274D01*
X161796225Y-111484655D01*
%TO.C,U11*%
X125886904Y-123752380D02*
X125886904Y-124561904D01*
X125934523Y-124657142D01*
X125982142Y-124704761D01*
X126077380Y-124752380D01*
X126267857Y-124752380D01*
X126363095Y-124704761D01*
X126410714Y-124657142D01*
X126458333Y-124561904D01*
X126458333Y-123752380D01*
X127458333Y-124752380D02*
X126886904Y-124752380D01*
X127172619Y-124752380D02*
X127172619Y-123752380D01*
X127077380Y-123895238D01*
X126982142Y-123990476D01*
X126886904Y-124038095D01*
X128410714Y-124752380D02*
X127839285Y-124752380D01*
X128125000Y-124752380D02*
X128125000Y-123752380D01*
X128029761Y-123895238D01*
X127934523Y-123990476D01*
X127839285Y-124038095D01*
D12*
%TO.C,C12*%
X131108611Y-80772465D02*
X131117029Y-80831391D01*
X131074939Y-80940824D01*
X131024432Y-80991332D01*
X130914999Y-81033421D01*
X130797147Y-81016585D01*
X130704550Y-80974496D01*
X130544609Y-80865062D01*
X130443594Y-80764047D01*
X130334161Y-80604106D01*
X130292071Y-80511509D01*
X130275235Y-80393658D01*
X130317325Y-80284225D01*
X130367833Y-80233717D01*
X130477266Y-80191627D01*
X130536191Y-80200045D01*
X131681031Y-80334732D02*
X131377985Y-80637778D01*
X131529508Y-80486255D02*
X130822401Y-79779148D01*
X130872909Y-79930671D01*
X130889745Y-80048522D01*
X130872909Y-80132702D01*
X131243298Y-79492939D02*
X131234880Y-79434013D01*
X131251716Y-79349834D01*
X131377985Y-79223565D01*
X131462165Y-79206729D01*
X131521090Y-79215147D01*
X131613687Y-79257236D01*
X131681031Y-79324580D01*
X131756792Y-79450849D01*
X131857808Y-80157956D01*
X132186107Y-79829656D01*
%TO.C,R6*%
X176484000Y-48486380D02*
X176234000Y-48010190D01*
X176055428Y-48486380D02*
X176055428Y-47486380D01*
X176341142Y-47486380D01*
X176412571Y-47534000D01*
X176448285Y-47581619D01*
X176484000Y-47676857D01*
X176484000Y-47819714D01*
X176448285Y-47914952D01*
X176412571Y-47962571D01*
X176341142Y-48010190D01*
X176055428Y-48010190D01*
X177126857Y-47486380D02*
X176984000Y-47486380D01*
X176912571Y-47534000D01*
X176876857Y-47581619D01*
X176805428Y-47724476D01*
X176769714Y-47914952D01*
X176769714Y-48295904D01*
X176805428Y-48391142D01*
X176841142Y-48438761D01*
X176912571Y-48486380D01*
X177055428Y-48486380D01*
X177126857Y-48438761D01*
X177162571Y-48391142D01*
X177198285Y-48295904D01*
X177198285Y-48057809D01*
X177162571Y-47962571D01*
X177126857Y-47914952D01*
X177055428Y-47867333D01*
X176912571Y-47867333D01*
X176841142Y-47914952D01*
X176805428Y-47962571D01*
X176769714Y-48057809D01*
D11*
%TO.C,C30*%
X128282142Y-116657142D02*
X128234523Y-116704761D01*
X128091666Y-116752380D01*
X127996428Y-116752380D01*
X127853571Y-116704761D01*
X127758333Y-116609523D01*
X127710714Y-116514285D01*
X127663095Y-116323809D01*
X127663095Y-116180952D01*
X127710714Y-115990476D01*
X127758333Y-115895238D01*
X127853571Y-115800000D01*
X127996428Y-115752380D01*
X128091666Y-115752380D01*
X128234523Y-115800000D01*
X128282142Y-115847619D01*
X128615476Y-115752380D02*
X129234523Y-115752380D01*
X128901190Y-116133333D01*
X129044047Y-116133333D01*
X129139285Y-116180952D01*
X129186904Y-116228571D01*
X129234523Y-116323809D01*
X129234523Y-116561904D01*
X129186904Y-116657142D01*
X129139285Y-116704761D01*
X129044047Y-116752380D01*
X128758333Y-116752380D01*
X128663095Y-116704761D01*
X128615476Y-116657142D01*
X129853571Y-115752380D02*
X129948809Y-115752380D01*
X130044047Y-115800000D01*
X130091666Y-115847619D01*
X130139285Y-115942857D01*
X130186904Y-116133333D01*
X130186904Y-116371428D01*
X130139285Y-116561904D01*
X130091666Y-116657142D01*
X130044047Y-116704761D01*
X129948809Y-116752380D01*
X129853571Y-116752380D01*
X129758333Y-116704761D01*
X129710714Y-116657142D01*
X129663095Y-116561904D01*
X129615476Y-116371428D01*
X129615476Y-116133333D01*
X129663095Y-115942857D01*
X129710714Y-115847619D01*
X129758333Y-115800000D01*
X129853571Y-115752380D01*
%TO.C,GND*%
X119767095Y-54025000D02*
X119671857Y-53977380D01*
X119529000Y-53977380D01*
X119386142Y-54025000D01*
X119290904Y-54120238D01*
X119243285Y-54215476D01*
X119195666Y-54405952D01*
X119195666Y-54548809D01*
X119243285Y-54739285D01*
X119290904Y-54834523D01*
X119386142Y-54929761D01*
X119529000Y-54977380D01*
X119624238Y-54977380D01*
X119767095Y-54929761D01*
X119814714Y-54882142D01*
X119814714Y-54548809D01*
X119624238Y-54548809D01*
X120243285Y-54977380D02*
X120243285Y-53977380D01*
X120814714Y-54977380D01*
X120814714Y-53977380D01*
X121290904Y-54977380D02*
X121290904Y-53977380D01*
X121529000Y-53977380D01*
X121671857Y-54025000D01*
X121767095Y-54120238D01*
X121814714Y-54215476D01*
X121862333Y-54405952D01*
X121862333Y-54548809D01*
X121814714Y-54739285D01*
X121767095Y-54834523D01*
X121671857Y-54929761D01*
X121529000Y-54977380D01*
X121290904Y-54977380D01*
%TO.C,J1*%
X135816666Y-44397380D02*
X135816666Y-45111666D01*
X135769047Y-45254523D01*
X135673809Y-45349761D01*
X135530952Y-45397380D01*
X135435714Y-45397380D01*
X136816666Y-45397380D02*
X136245238Y-45397380D01*
X136530952Y-45397380D02*
X136530952Y-44397380D01*
X136435714Y-44540238D01*
X136340476Y-44635476D01*
X136245238Y-44683095D01*
D12*
%TO.C,R23*%
X108226857Y-85013880D02*
X107976857Y-84537690D01*
X107798285Y-85013880D02*
X107798285Y-84013880D01*
X108084000Y-84013880D01*
X108155428Y-84061500D01*
X108191142Y-84109119D01*
X108226857Y-84204357D01*
X108226857Y-84347214D01*
X108191142Y-84442452D01*
X108155428Y-84490071D01*
X108084000Y-84537690D01*
X107798285Y-84537690D01*
X108512571Y-84109119D02*
X108548285Y-84061500D01*
X108619714Y-84013880D01*
X108798285Y-84013880D01*
X108869714Y-84061500D01*
X108905428Y-84109119D01*
X108941142Y-84204357D01*
X108941142Y-84299595D01*
X108905428Y-84442452D01*
X108476857Y-85013880D01*
X108941142Y-85013880D01*
X109191142Y-84013880D02*
X109655428Y-84013880D01*
X109405428Y-84394833D01*
X109512571Y-84394833D01*
X109584000Y-84442452D01*
X109619714Y-84490071D01*
X109655428Y-84585309D01*
X109655428Y-84823404D01*
X109619714Y-84918642D01*
X109584000Y-84966261D01*
X109512571Y-85013880D01*
X109298285Y-85013880D01*
X109226857Y-84966261D01*
X109191142Y-84918642D01*
D11*
%TO.C,R24*%
X120127380Y-122442857D02*
X119651190Y-122776190D01*
X120127380Y-123014285D02*
X119127380Y-123014285D01*
X119127380Y-122633333D01*
X119175000Y-122538095D01*
X119222619Y-122490476D01*
X119317857Y-122442857D01*
X119460714Y-122442857D01*
X119555952Y-122490476D01*
X119603571Y-122538095D01*
X119651190Y-122633333D01*
X119651190Y-123014285D01*
X119222619Y-122061904D02*
X119175000Y-122014285D01*
X119127380Y-121919047D01*
X119127380Y-121680952D01*
X119175000Y-121585714D01*
X119222619Y-121538095D01*
X119317857Y-121490476D01*
X119413095Y-121490476D01*
X119555952Y-121538095D01*
X120127380Y-122109523D01*
X120127380Y-121490476D01*
X119460714Y-120633333D02*
X120127380Y-120633333D01*
X119079761Y-120871428D02*
X119794047Y-121109523D01*
X119794047Y-120490476D01*
%TO.C,C24*%
X98079491Y-39307142D02*
X98031872Y-39354761D01*
X97889015Y-39402380D01*
X97793777Y-39402380D01*
X97650920Y-39354761D01*
X97555682Y-39259523D01*
X97508063Y-39164285D01*
X97460444Y-38973809D01*
X97460444Y-38830952D01*
X97508063Y-38640476D01*
X97555682Y-38545238D01*
X97650920Y-38450000D01*
X97793777Y-38402380D01*
X97889015Y-38402380D01*
X98031872Y-38450000D01*
X98079491Y-38497619D01*
X98460444Y-38497619D02*
X98508063Y-38450000D01*
X98603301Y-38402380D01*
X98841396Y-38402380D01*
X98936634Y-38450000D01*
X98984253Y-38497619D01*
X99031872Y-38592857D01*
X99031872Y-38688095D01*
X98984253Y-38830952D01*
X98412825Y-39402380D01*
X99031872Y-39402380D01*
X99889015Y-38735714D02*
X99889015Y-39402380D01*
X99650920Y-38354761D02*
X99412825Y-39069047D01*
X100031872Y-39069047D01*
%TO.C,C29*%
X133382142Y-118642857D02*
X133429761Y-118690476D01*
X133477380Y-118833333D01*
X133477380Y-118928571D01*
X133429761Y-119071428D01*
X133334523Y-119166666D01*
X133239285Y-119214285D01*
X133048809Y-119261904D01*
X132905952Y-119261904D01*
X132715476Y-119214285D01*
X132620238Y-119166666D01*
X132525000Y-119071428D01*
X132477380Y-118928571D01*
X132477380Y-118833333D01*
X132525000Y-118690476D01*
X132572619Y-118642857D01*
X132572619Y-118261904D02*
X132525000Y-118214285D01*
X132477380Y-118119047D01*
X132477380Y-117880952D01*
X132525000Y-117785714D01*
X132572619Y-117738095D01*
X132667857Y-117690476D01*
X132763095Y-117690476D01*
X132905952Y-117738095D01*
X133477380Y-118309523D01*
X133477380Y-117690476D01*
X133477380Y-117214285D02*
X133477380Y-117023809D01*
X133429761Y-116928571D01*
X133382142Y-116880952D01*
X133239285Y-116785714D01*
X133048809Y-116738095D01*
X132667857Y-116738095D01*
X132572619Y-116785714D01*
X132525000Y-116833333D01*
X132477380Y-116928571D01*
X132477380Y-117119047D01*
X132525000Y-117214285D01*
X132572619Y-117261904D01*
X132667857Y-117309523D01*
X132905952Y-117309523D01*
X133001190Y-117261904D01*
X133048809Y-117214285D01*
X133096428Y-117119047D01*
X133096428Y-116928571D01*
X133048809Y-116833333D01*
X133001190Y-116785714D01*
X132905952Y-116738095D01*
D14*
%TO.C,C4*%
X137093827Y-78343249D02*
X137107296Y-78397124D01*
X137080358Y-78491405D01*
X137039952Y-78531811D01*
X136945671Y-78558749D01*
X136837922Y-78531811D01*
X136750375Y-78484671D01*
X136595485Y-78370187D01*
X136494470Y-78269171D01*
X136379986Y-78114281D01*
X136332845Y-78026735D01*
X136305908Y-77918985D01*
X136332845Y-77824704D01*
X136373251Y-77784298D01*
X136467532Y-77757361D01*
X136521407Y-77770830D01*
X137053421Y-77575533D02*
X137524825Y-78046938D01*
X136683032Y-77407175D02*
X137087093Y-78013266D01*
X137349732Y-77750626D01*
D11*
%TO.C,J23*%
X109040476Y-112827380D02*
X109040476Y-113541666D01*
X108992857Y-113684523D01*
X108897619Y-113779761D01*
X108754761Y-113827380D01*
X108659523Y-113827380D01*
X109469047Y-112922619D02*
X109516666Y-112875000D01*
X109611904Y-112827380D01*
X109850000Y-112827380D01*
X109945238Y-112875000D01*
X109992857Y-112922619D01*
X110040476Y-113017857D01*
X110040476Y-113113095D01*
X109992857Y-113255952D01*
X109421428Y-113827380D01*
X110040476Y-113827380D01*
X110373809Y-112827380D02*
X110992857Y-112827380D01*
X110659523Y-113208333D01*
X110802380Y-113208333D01*
X110897619Y-113255952D01*
X110945238Y-113303571D01*
X110992857Y-113398809D01*
X110992857Y-113636904D01*
X110945238Y-113732142D01*
X110897619Y-113779761D01*
X110802380Y-113827380D01*
X110516666Y-113827380D01*
X110421428Y-113779761D01*
X110373809Y-113732142D01*
D10*
%TO.C,D5*%
X126315000Y-60840000D02*
X126315000Y-63700000D01*
X128235000Y-60840000D02*
X126315000Y-60840000D01*
X128235000Y-63700000D02*
X128235000Y-60840000D01*
%TO.C,R17*%
X116010000Y-66972936D02*
X116010000Y-67427064D01*
X114540000Y-66972936D02*
X114540000Y-67427064D01*
%TO.C,D11*%
X96260000Y-76190000D02*
X93400000Y-76190000D01*
X93400000Y-78110000D02*
X96260000Y-78110000D01*
X96260000Y-78110000D02*
X96260000Y-76190000D01*
%TO.C,U1*%
X168831000Y-54964000D02*
X168831000Y-37064000D01*
X163531000Y-54964000D02*
X168831000Y-54964000D01*
X163531000Y-37064000D02*
X163531000Y-54964000D01*
X168831000Y-37064000D02*
X167181000Y-37064000D01*
X165181000Y-37064000D02*
X163531000Y-37064000D01*
X165181000Y-37064000D02*
G75*
G03*
X167181000Y-37064000I1000000J0D01*
G01*
%TO.C,R1*%
X138481282Y-82824165D02*
X138160165Y-83145282D01*
X137441835Y-81784718D02*
X137120718Y-82105835D01*
%TO.C,C13*%
X124571973Y-79289740D02*
X124202506Y-78920273D01*
X123532526Y-80329187D02*
X123163059Y-79959720D01*
D11*
%TO.C,+Vin*%
X131804000Y-51223000D02*
G75*
G03*
X131804000Y-51223000I-1750000J0D01*
G01*
D10*
%TO.C,R5*%
X173443936Y-50184000D02*
X173898064Y-50184000D01*
X173443936Y-51654000D02*
X173898064Y-51654000D01*
D11*
%TO.C,-Vin*%
X127105000Y-51350000D02*
G75*
G03*
X127105000Y-51350000I-1750000J0D01*
G01*
D10*
%TO.C,D2*%
X135315000Y-60840000D02*
X135315000Y-63700000D01*
X137235000Y-60840000D02*
X135315000Y-60840000D01*
X137235000Y-63700000D02*
X137235000Y-60840000D01*
%TO.C,J6*%
X179431769Y-94946893D02*
X179431769Y-94446893D01*
X180326107Y-104641893D02*
X180326107Y-73671893D01*
X179431769Y-94446893D02*
X179864782Y-94696893D01*
X192666107Y-104641893D02*
X180326107Y-104641893D01*
X180326107Y-73671893D02*
X192666107Y-73671893D01*
X179864782Y-94696893D02*
X179431769Y-94946893D01*
%TO.C,R12*%
X129540000Y-66972936D02*
X129540000Y-67427064D01*
X131010000Y-66972936D02*
X131010000Y-67427064D01*
%TO.C,R19*%
X94172936Y-73615000D02*
X94627064Y-73615000D01*
X94172936Y-75085000D02*
X94627064Y-75085000D01*
%TO.C,D13*%
X103674000Y-93025500D02*
X103674000Y-94945500D01*
X106534000Y-93025500D02*
X103674000Y-93025500D01*
X103674000Y-94945500D02*
X106534000Y-94945500D01*
%TO.C,C6*%
X128177793Y-106185920D02*
X127808326Y-106555387D01*
X129217240Y-107225367D02*
X128847773Y-107594834D01*
%TO.C,R22*%
X105761064Y-90250500D02*
X105306936Y-90250500D01*
X105761064Y-91720500D02*
X105306936Y-91720500D01*
D16*
%TO.C,U9*%
X94351320Y-107897880D02*
X94351320Y-105398520D01*
X73850980Y-107897880D02*
X94351320Y-107897880D01*
X73850980Y-105398520D02*
X94351320Y-105398520D01*
X73850980Y-85901480D02*
X73850980Y-83402120D01*
X94351320Y-83402120D02*
X94351320Y-85901480D01*
X73850980Y-83402120D02*
X94351320Y-83402120D01*
X73850980Y-85901480D02*
X94351320Y-85901480D01*
X73850980Y-105398520D02*
X73850980Y-107897880D01*
D10*
%TO.C,R11*%
X134010000Y-66972936D02*
X134010000Y-67427064D01*
X132540000Y-66972936D02*
X132540000Y-67427064D01*
%TO.C,U10*%
X157715000Y-62070000D02*
X157715000Y-81290000D01*
X170435000Y-62070000D02*
X170435000Y-81290000D01*
X157715000Y-81290000D02*
X170435000Y-81290000D01*
X158195000Y-81640000D02*
X159805000Y-81640000D01*
X157715000Y-62070000D02*
X170435000Y-62070000D01*
X162154400Y-71654000D02*
X162154400Y-76556200D01*
X162332200Y-71552400D02*
X166015200Y-71552400D01*
X166193000Y-66116800D02*
X166193000Y-71476200D01*
X162332200Y-66091400D02*
X166015200Y-66091400D01*
X162332200Y-76556200D02*
X166015200Y-76556200D01*
X166193000Y-71654000D02*
X166193000Y-76556200D01*
X162154400Y-66116800D02*
X162154400Y-71476200D01*
X167537467Y-76742467D02*
G75*
G03*
X167537467Y-76742467I-472467J0D01*
G01*
%TO.C,C26*%
X95736252Y-53685000D02*
X95213748Y-53685000D01*
X95736252Y-52215000D02*
X95213748Y-52215000D01*
%TO.C,R18*%
X113010000Y-66972936D02*
X113010000Y-67427064D01*
X111540000Y-66972936D02*
X111540000Y-67427064D01*
%TO.C,C19*%
X85850748Y-110935000D02*
X86373252Y-110935000D01*
X85850748Y-109465000D02*
X86373252Y-109465000D01*
%TO.C,C23*%
X95736252Y-57415000D02*
X95213748Y-57415000D01*
X95736252Y-58885000D02*
X95213748Y-58885000D01*
%TO.C,C25*%
X165477748Y-109664500D02*
X166000252Y-109664500D01*
X165477748Y-111134500D02*
X166000252Y-111134500D01*
%TO.C,D3*%
X134235000Y-60840000D02*
X132315000Y-60840000D01*
X132315000Y-60840000D02*
X132315000Y-63700000D01*
X134235000Y-63700000D02*
X134235000Y-60840000D01*
%TO.C,C10*%
X144132564Y-96472903D02*
X143763097Y-96103436D01*
X143093117Y-97512350D02*
X142723650Y-97142883D01*
%TO.C,C2*%
X125401010Y-78470457D02*
X125031543Y-78100990D01*
X126440457Y-77431010D02*
X126070990Y-77061543D01*
%TO.C,R4*%
X158998064Y-47984000D02*
X158543936Y-47984000D01*
X158998064Y-49454000D02*
X158543936Y-49454000D01*
%TO.C,R2*%
X159098064Y-40384000D02*
X158643936Y-40384000D01*
X159098064Y-41854000D02*
X158643936Y-41854000D01*
%TO.C,J2*%
X113095000Y-104795000D02*
X113095000Y-115015000D01*
X113095000Y-115015000D02*
X115755000Y-115015000D01*
X113095000Y-103525000D02*
X113095000Y-102195000D01*
X115755000Y-104795000D02*
X115755000Y-115015000D01*
X113095000Y-102195000D02*
X114425000Y-102195000D01*
X113095000Y-104795000D02*
X115755000Y-104795000D01*
%TO.C,J7*%
X132207107Y-129352562D02*
X132207107Y-141692562D01*
X111432107Y-128458224D02*
X111182107Y-128891237D01*
X101237107Y-129352562D02*
X132207107Y-129352562D01*
X101237107Y-141692562D02*
X101237107Y-129352562D01*
X111182107Y-128891237D02*
X110932107Y-128458224D01*
X110932107Y-128458224D02*
X111432107Y-128458224D01*
%TO.C,D6*%
X125235000Y-63700000D02*
X125235000Y-60840000D01*
X123315000Y-60840000D02*
X123315000Y-63700000D01*
X125235000Y-60840000D02*
X123315000Y-60840000D01*
%TO.C,G\u002A\u002A\u002A*%
G36*
X151830216Y-101543612D02*
G01*
X152140667Y-101040898D01*
X152554563Y-100526349D01*
X153066285Y-100007961D01*
X153670212Y-99493730D01*
X154289324Y-99040136D01*
X154521391Y-98875974D01*
X154705061Y-98735771D01*
X154816655Y-98638201D01*
X154839324Y-98606389D01*
X154820037Y-98530164D01*
X154768134Y-98355393D01*
X154692552Y-98110226D01*
X154602229Y-97822809D01*
X154506101Y-97521291D01*
X154413106Y-97233819D01*
X154332182Y-96988542D01*
X154272265Y-96813607D01*
X154255907Y-96768914D01*
X154268892Y-96730589D01*
X154355162Y-96707362D01*
X154532590Y-96697505D01*
X154819054Y-96699286D01*
X154944890Y-96702247D01*
X155666515Y-96721251D01*
X156464310Y-99273194D01*
X156638888Y-99826998D01*
X156802427Y-100336907D01*
X156950510Y-100789804D01*
X157078718Y-101172570D01*
X157182634Y-101472088D01*
X157257840Y-101675239D01*
X157299919Y-101768905D01*
X157306202Y-101773194D01*
X157334703Y-101699622D01*
X157396734Y-101512614D01*
X157487820Y-101226535D01*
X157603481Y-100855751D01*
X157739242Y-100414626D01*
X157890623Y-99917526D01*
X158053149Y-99378815D01*
X158070430Y-99321251D01*
X158233716Y-98777622D01*
X158385691Y-98272729D01*
X158521934Y-97821173D01*
X158638026Y-97437556D01*
X158729548Y-97136476D01*
X158792081Y-96932536D01*
X158821205Y-96840336D01*
X158822075Y-96837917D01*
X158791584Y-96775017D01*
X158635807Y-96751444D01*
X158629790Y-96751342D01*
X158538977Y-96743625D01*
X158535178Y-96719100D01*
X158630162Y-96670039D01*
X158835703Y-96588715D01*
X158933070Y-96552266D01*
X159743213Y-96286600D01*
X160515171Y-96103438D01*
X161226402Y-96007608D01*
X161539324Y-95994050D01*
X161978123Y-96003714D01*
X162317579Y-96047571D01*
X162589188Y-96134146D01*
X162824446Y-96271966D01*
X162954972Y-96377266D01*
X163194405Y-96648698D01*
X163328911Y-96963794D01*
X163371856Y-97354346D01*
X163371866Y-97369109D01*
X163309495Y-97929476D01*
X163131429Y-98522467D01*
X162847598Y-99136028D01*
X162467932Y-99758105D01*
X162002361Y-100376643D01*
X161460816Y-100979589D01*
X160853225Y-101554889D01*
X160189519Y-102090488D01*
X159479628Y-102574332D01*
X158740993Y-102990572D01*
X158442770Y-103145489D01*
X158243256Y-103262344D01*
X158119798Y-103358297D01*
X158049745Y-103450507D01*
X158014682Y-103540798D01*
X157953369Y-103754584D01*
X157340275Y-103754584D01*
X156975239Y-103767882D01*
X156642785Y-103804121D01*
X156399919Y-103855900D01*
X156041868Y-103949432D01*
X155602004Y-104038419D01*
X155125336Y-104116062D01*
X154656870Y-104175563D01*
X154241614Y-104210126D01*
X154016032Y-104215951D01*
X153686558Y-104200876D01*
X153341469Y-104166387D01*
X153054540Y-104119891D01*
X153050369Y-104118991D01*
X152551457Y-103960134D01*
X152139740Y-103723604D01*
X151826383Y-103418625D01*
X151622552Y-103054420D01*
X151575743Y-102900779D01*
X151542134Y-102481548D01*
X151551850Y-102430549D01*
X152468268Y-102430549D01*
X152504223Y-102576198D01*
X152539349Y-102664927D01*
X152730421Y-103003038D01*
X152989998Y-103245675D01*
X153337094Y-103406759D01*
X153652873Y-103480223D01*
X153848970Y-103511351D01*
X154017798Y-103531885D01*
X154186466Y-103541784D01*
X154382085Y-103541011D01*
X154631767Y-103529524D01*
X154962620Y-103507286D01*
X155355991Y-103477757D01*
X155744388Y-103443742D01*
X156053124Y-103407876D01*
X156265976Y-103372500D01*
X156366720Y-103339954D01*
X156372657Y-103331080D01*
X156352675Y-103244674D01*
X156296709Y-103053388D01*
X156210730Y-102775296D01*
X156161844Y-102621190D01*
X158369481Y-102621190D01*
X158369815Y-102621251D01*
X158442647Y-102585410D01*
X158596652Y-102489477D01*
X158804491Y-102350834D01*
X158912202Y-102276415D01*
X159668841Y-101711294D01*
X160354052Y-101125484D01*
X160960649Y-100528322D01*
X161481448Y-99929144D01*
X161909264Y-99337287D01*
X162236911Y-98762086D01*
X162457204Y-98212879D01*
X162562958Y-97699003D01*
X162571617Y-97521251D01*
X162515476Y-97207259D01*
X162360957Y-96936106D01*
X162130885Y-96744623D01*
X162073339Y-96717239D01*
X161864796Y-96664631D01*
X161563528Y-96632337D01*
X161208799Y-96621765D01*
X160839869Y-96634324D01*
X160554951Y-96662779D01*
X160251969Y-96704307D01*
X160045764Y-97346112D01*
X159976066Y-97561747D01*
X159871228Y-97884372D01*
X159737677Y-98294286D01*
X159581840Y-98771792D01*
X159410146Y-99297190D01*
X159229023Y-99850781D01*
X159080388Y-100304584D01*
X158908880Y-100831852D01*
X158753534Y-101317006D01*
X158618643Y-101746050D01*
X158508498Y-102104987D01*
X158427395Y-102379820D01*
X158379625Y-102556553D01*
X158369481Y-102621190D01*
X156161844Y-102621190D01*
X156100710Y-102428474D01*
X155972620Y-102030996D01*
X155832431Y-101600936D01*
X155686114Y-101156370D01*
X155539641Y-100715370D01*
X155398982Y-100296012D01*
X155270109Y-99916371D01*
X155158994Y-99594520D01*
X155071607Y-99348535D01*
X155013919Y-99196490D01*
X154992882Y-99154584D01*
X154933921Y-99199110D01*
X154796624Y-99322609D01*
X154597127Y-99509965D01*
X154351565Y-99746059D01*
X154121227Y-99971251D01*
X153591652Y-100514524D01*
X153171336Y-100994873D01*
X152855545Y-101418536D01*
X152639546Y-101791749D01*
X152534159Y-102062485D01*
X152478419Y-102279290D01*
X152468268Y-102430549D01*
X151551850Y-102430549D01*
X151628832Y-102026494D01*
X151830216Y-101543612D01*
G37*
%TO.C,C17*%
X95636252Y-66615000D02*
X95113748Y-66615000D01*
X95636252Y-68085000D02*
X95113748Y-68085000D01*
%TO.C,U6*%
X104685000Y-52140000D02*
X104685000Y-53400000D01*
X98675000Y-52140000D02*
X104685000Y-52140000D01*
X100925000Y-58960000D02*
X104685000Y-58960000D01*
X104685000Y-58960000D02*
X104685000Y-57700000D01*
%TO.C,R7*%
X149712000Y-94429936D02*
X149712000Y-94884064D01*
X148242000Y-94429936D02*
X148242000Y-94884064D01*
%TO.C,R13*%
X128010000Y-66972936D02*
X128010000Y-67427064D01*
X126540000Y-66972936D02*
X126540000Y-67427064D01*
%TO.C,J11*%
X180845776Y-67141893D02*
X180845776Y-36171893D01*
X180845776Y-36171893D02*
X193185776Y-36171893D01*
X179951438Y-56946893D02*
X180384451Y-57196893D01*
X180384451Y-57196893D02*
X179951438Y-57446893D01*
X193185776Y-67141893D02*
X180845776Y-67141893D01*
X179951438Y-57446893D02*
X179951438Y-56946893D01*
%TO.C,J20*%
X163007000Y-121835000D02*
X163007000Y-121895000D01*
X160347000Y-120565000D02*
X160347000Y-119235000D01*
X160347000Y-121835000D02*
X160347000Y-121895000D01*
X160347000Y-121835000D02*
X163007000Y-121835000D01*
X160347000Y-119235000D02*
X161677000Y-119235000D01*
X160347000Y-121895000D02*
X163007000Y-121895000D01*
%TO.C,J13*%
X155400000Y-91530000D02*
X154070000Y-91530000D01*
X166890000Y-91530000D02*
X166890000Y-88870000D01*
X156670000Y-88870000D02*
X166890000Y-88870000D01*
X156670000Y-91530000D02*
X166890000Y-91530000D01*
X156670000Y-91530000D02*
X156670000Y-88870000D01*
X154070000Y-91530000D02*
X154070000Y-90200000D01*
%TO.C,U3*%
X96252107Y-121742893D02*
X96252107Y-120092893D01*
X75752107Y-124232893D02*
X96312107Y-124232893D01*
X75752107Y-113952893D02*
X75752107Y-124232893D01*
X75812107Y-116442893D02*
X75812107Y-121742893D01*
X75812107Y-121742893D02*
X96252107Y-121742893D01*
X96252107Y-116442893D02*
X75812107Y-116442893D01*
X96252107Y-118092893D02*
X96252107Y-116442893D01*
X96312107Y-113952893D02*
X75752107Y-113952893D01*
X96312107Y-124232893D02*
X96312107Y-113952893D01*
X96252107Y-118092893D02*
G75*
G03*
X96252107Y-120092893I0J-1000000D01*
G01*
%TO.C,J16*%
X126438000Y-42729000D02*
X129098000Y-42729000D01*
X126438000Y-40129000D02*
X127768000Y-40129000D01*
X126438000Y-42729000D02*
X126438000Y-47869000D01*
X129098000Y-42729000D02*
X129098000Y-47869000D01*
X126438000Y-47869000D02*
X129098000Y-47869000D01*
X126438000Y-41459000D02*
X126438000Y-40129000D01*
%TO.C,J10*%
X103295000Y-106770000D02*
X103295000Y-114450000D01*
X103295000Y-114450000D02*
X105955000Y-114450000D01*
X103295000Y-105500000D02*
X103295000Y-104170000D01*
X103295000Y-104170000D02*
X104625000Y-104170000D01*
X105955000Y-106770000D02*
X105955000Y-114450000D01*
X103295000Y-106770000D02*
X105955000Y-106770000D01*
%TO.C,J3*%
X142626000Y-54669000D02*
X140706000Y-54669000D01*
X154676000Y-43359000D02*
X154676000Y-41559000D01*
X151576000Y-38749000D02*
X145206000Y-38749000D01*
X154676000Y-49359000D02*
X154676000Y-44659000D01*
X142186000Y-38599000D02*
X141926000Y-38599000D01*
X142386000Y-38399000D02*
X144696000Y-38399000D01*
X153646000Y-38399000D02*
X153846000Y-38599000D01*
X151576000Y-38749000D02*
X151576000Y-38599000D01*
X142386000Y-38399000D02*
X142186000Y-38599000D01*
X151786000Y-38399000D02*
X151576000Y-38599000D01*
X153646000Y-38399000D02*
X151786000Y-38399000D01*
X154226000Y-54669000D02*
X154676000Y-54669000D01*
X144696000Y-38399000D02*
X145206000Y-38749000D01*
X154676000Y-54669000D02*
X154676000Y-51059000D01*
X140706000Y-54669000D02*
X140706000Y-40659000D01*
%TO.C,C7*%
X126284326Y-105031387D02*
X126653793Y-104661920D01*
X127323773Y-106070834D02*
X127693240Y-105701367D01*
%TO.C,J12*%
X179278331Y-132146893D02*
X179711344Y-132396893D01*
X179278331Y-132646893D02*
X179278331Y-132146893D01*
X192512669Y-142341893D02*
X180172669Y-142341893D01*
X180172669Y-142341893D02*
X180172669Y-111371893D01*
X179711344Y-132396893D02*
X179278331Y-132646893D01*
X180172669Y-111371893D02*
X192512669Y-111371893D01*
%TO.C,C18*%
X93493359Y-125657893D02*
X92970855Y-125657893D01*
X93493359Y-127127893D02*
X92970855Y-127127893D01*
%TO.C,C22*%
X81024748Y-110886000D02*
X81547252Y-110886000D01*
X81024748Y-109416000D02*
X81547252Y-109416000D01*
%TO.C,J21*%
X165327000Y-108725000D02*
X167987000Y-108725000D01*
X167987000Y-108725000D02*
X167987000Y-108785000D01*
X165327000Y-106125000D02*
X166657000Y-106125000D01*
X165327000Y-107455000D02*
X165327000Y-106125000D01*
X165327000Y-108725000D02*
X165327000Y-108785000D01*
X165327000Y-108785000D02*
X167987000Y-108785000D01*
%TO.C,R16*%
X117540000Y-66972936D02*
X117540000Y-67427064D01*
X119010000Y-66972936D02*
X119010000Y-67427064D01*
%TO.C,D9*%
X116235000Y-60840000D02*
X114315000Y-60840000D01*
X116235000Y-63700000D02*
X116235000Y-60840000D01*
X114315000Y-60840000D02*
X114315000Y-63700000D01*
%TO.C,C16*%
X91311748Y-109543000D02*
X91834252Y-109543000D01*
X91311748Y-111013000D02*
X91834252Y-111013000D01*
%TO.C,U8*%
X147265000Y-81437500D02*
X152565000Y-81437500D01*
X152565000Y-60997500D02*
X150915000Y-60997500D01*
X147265000Y-60997500D02*
X147265000Y-81437500D01*
X152565000Y-81437500D02*
X152565000Y-60997500D01*
X148915000Y-60997500D02*
X147265000Y-60997500D01*
X148915000Y-60997500D02*
G75*
G03*
X150915000Y-60997500I1000000J0D01*
G01*
D11*
%TO.C,+5V*%
X113008000Y-51350000D02*
G75*
G03*
X113008000Y-51350000I-1750000J0D01*
G01*
D10*
%TO.C,C3*%
X109126000Y-76376252D02*
X109126000Y-75853748D01*
X110596000Y-76376252D02*
X110596000Y-75853748D01*
%TO.C,U4*%
X98725000Y-61390000D02*
X104735000Y-61390000D01*
X100975000Y-68210000D02*
X104735000Y-68210000D01*
X104735000Y-68210000D02*
X104735000Y-66950000D01*
X104735000Y-61390000D02*
X104735000Y-62650000D01*
%TO.C,D4*%
X131235000Y-63700000D02*
X131235000Y-60840000D01*
X129315000Y-60840000D02*
X129315000Y-63700000D01*
X131235000Y-60840000D02*
X129315000Y-60840000D01*
%TO.C,J5*%
X116152107Y-46271500D02*
X117152107Y-46271500D01*
X115152107Y-39971500D02*
X118152107Y-39971500D01*
X114452107Y-38361500D02*
X114152107Y-38961500D01*
X112152107Y-46271500D02*
X111452107Y-46271500D01*
X122762107Y-39971500D02*
X120262107Y-39971500D01*
X115152107Y-40971500D02*
X113152107Y-40971500D01*
X122762107Y-47981500D02*
X122762107Y-39161500D01*
X113152107Y-39161500D02*
X115152107Y-39161500D01*
X110542107Y-47981500D02*
X122762107Y-47981500D01*
X115152107Y-39161500D02*
X115152107Y-40971500D01*
X121852107Y-40971500D02*
X121852107Y-46271500D01*
X111452107Y-46271500D02*
X111452107Y-40971500D01*
X120152107Y-39161500D02*
X120152107Y-40971500D01*
X110542107Y-39161500D02*
X110542107Y-47981500D01*
X122762107Y-39161500D02*
X110542107Y-39161500D01*
X113852107Y-38361500D02*
X114452107Y-38361500D01*
X110542107Y-39971500D02*
X113042107Y-39971500D01*
X114152107Y-38961500D02*
X113852107Y-38361500D01*
X121852107Y-46271500D02*
X121152107Y-46271500D01*
X118152107Y-39161500D02*
X120152107Y-39161500D01*
X113152107Y-40971500D02*
X113152107Y-39161500D01*
X111452107Y-40971500D02*
X121852107Y-40971500D01*
X118152107Y-40971500D02*
X118152107Y-39161500D01*
X120152107Y-40971500D02*
X118152107Y-40971500D01*
X112152107Y-46271500D02*
G75*
G03*
X116138949Y-46287321I2000000J1650000D01*
G01*
X117152107Y-46271500D02*
G75*
G03*
X121138949Y-46287321I2000000J1650000D01*
G01*
%TO.C,C8*%
X113320543Y-80834990D02*
X113690010Y-81204457D01*
X114359990Y-79795543D02*
X114729457Y-80165010D01*
%TO.C,C1*%
X121591010Y-82153457D02*
X121221543Y-81783990D01*
X122630457Y-81114010D02*
X122260990Y-80744543D01*
%TO.C,C14*%
X115290010Y-95695543D02*
X114920543Y-96065010D01*
X116329457Y-96734990D02*
X115959990Y-97104457D01*
%TO.C,J17*%
X87005000Y-66420000D02*
X87005000Y-69020000D01*
X81865000Y-66420000D02*
X81865000Y-71620000D01*
X89605000Y-71620000D02*
X81865000Y-71620000D01*
X89605000Y-69020000D02*
X89605000Y-71620000D01*
X87005000Y-66420000D02*
X81865000Y-66420000D01*
X88275000Y-66420000D02*
X89605000Y-66420000D01*
X89605000Y-66420000D02*
X89605000Y-67750000D01*
X87005000Y-69020000D02*
X89605000Y-69020000D01*
%TO.C,R20*%
X170667000Y-114495936D02*
X170667000Y-114950064D01*
X169197000Y-114495936D02*
X169197000Y-114950064D01*
%TO.C,C21*%
X98077000Y-122836752D02*
X98077000Y-122314248D01*
X99547000Y-122836752D02*
X99547000Y-122314248D01*
%TO.C,C11*%
X118107457Y-98385990D02*
X117737990Y-98755457D01*
X117068010Y-97346543D02*
X116698543Y-97716010D01*
%TO.C,J22*%
X165173000Y-119235000D02*
X166503000Y-119235000D01*
X165173000Y-121835000D02*
X167833000Y-121835000D01*
X165173000Y-121835000D02*
X165173000Y-121895000D01*
X165173000Y-120565000D02*
X165173000Y-119235000D01*
X167833000Y-121835000D02*
X167833000Y-121895000D01*
X165173000Y-121895000D02*
X167833000Y-121895000D01*
%TO.C,D1*%
X138315000Y-60840000D02*
X138315000Y-63700000D01*
X140235000Y-60840000D02*
X138315000Y-60840000D01*
X140235000Y-63700000D02*
X140235000Y-60840000D01*
%TO.C,C28*%
X76013748Y-110835000D02*
X76536252Y-110835000D01*
X76013748Y-109365000D02*
X76536252Y-109365000D01*
%TO.C,C5*%
X144247650Y-95491883D02*
X144617117Y-95861350D01*
X145287097Y-94452436D02*
X145656564Y-94821903D01*
%TO.C,J4*%
X74682107Y-127958224D02*
X75182107Y-127958224D01*
X75182107Y-127958224D02*
X74932107Y-128391237D01*
X64987107Y-141192562D02*
X64987107Y-128852562D01*
X95957107Y-128852562D02*
X95957107Y-141192562D01*
X64987107Y-128852562D02*
X95957107Y-128852562D01*
X74932107Y-128391237D02*
X74682107Y-127958224D01*
%TO.C,J14*%
X121595000Y-114030000D02*
X121595000Y-112700000D01*
X122925000Y-114030000D02*
X121595000Y-114030000D01*
X124195000Y-111370000D02*
X131875000Y-111370000D01*
X124195000Y-114030000D02*
X131875000Y-114030000D01*
X124195000Y-114030000D02*
X124195000Y-111370000D01*
X131875000Y-114030000D02*
X131875000Y-111370000D01*
%TO.C,R25*%
X120552064Y-117665000D02*
X120097936Y-117665000D01*
X120552064Y-119135000D02*
X120097936Y-119135000D01*
%TO.C,D12*%
X90000000Y-76240000D02*
X87140000Y-76240000D01*
X87140000Y-78160000D02*
X90000000Y-78160000D01*
X87140000Y-76240000D02*
X87140000Y-78160000D01*
%TO.C,J18*%
X82705000Y-74970000D02*
X77565000Y-74970000D01*
X83975000Y-74970000D02*
X85305000Y-74970000D01*
X85305000Y-74970000D02*
X85305000Y-76300000D01*
X82705000Y-77630000D02*
X77565000Y-77630000D01*
X77565000Y-74970000D02*
X77565000Y-77630000D01*
X82705000Y-74970000D02*
X82705000Y-77630000D01*
D11*
%TO.C,3V3*%
X117834000Y-51350000D02*
G75*
G03*
X117834000Y-51350000I-1750000J0D01*
G01*
D10*
%TO.C,C20*%
X95636252Y-62935000D02*
X95113748Y-62935000D01*
X95636252Y-61465000D02*
X95113748Y-61465000D01*
%TO.C,R3*%
X119661835Y-84161282D02*
X119340718Y-83840165D01*
X120701282Y-83121835D02*
X120380165Y-82800718D01*
%TO.C,R9*%
X140010000Y-66972936D02*
X140010000Y-67427064D01*
X138540000Y-66972936D02*
X138540000Y-67427064D01*
%TO.C,R14*%
X125010000Y-66972936D02*
X125010000Y-67427064D01*
X123540000Y-66972936D02*
X123540000Y-67427064D01*
%TO.C,J8*%
X169307107Y-129402562D02*
X169307107Y-141742562D01*
X148282107Y-128941237D02*
X148032107Y-128508224D01*
X148032107Y-128508224D02*
X148532107Y-128508224D01*
X138337107Y-129402562D02*
X169307107Y-129402562D01*
X148532107Y-128508224D02*
X148282107Y-128941237D01*
X138337107Y-141742562D02*
X138337107Y-129402562D01*
%TO.C,D10*%
X113235000Y-60840000D02*
X111315000Y-60840000D01*
X111315000Y-60840000D02*
X111315000Y-63700000D01*
X113235000Y-63700000D02*
X113235000Y-60840000D01*
%TO.C,R8*%
X152379000Y-94429936D02*
X152379000Y-94884064D01*
X150909000Y-94429936D02*
X150909000Y-94884064D01*
%TO.C,Y1*%
X118051346Y-77888623D02*
X116248223Y-79691745D01*
X116248223Y-79691745D02*
X114780977Y-78224499D01*
X114780977Y-78224499D02*
X116584099Y-76421376D01*
X116584099Y-76421376D02*
X118051346Y-77888623D01*
%TO.C,D14*%
X103757786Y-86965714D02*
X103757786Y-88885714D01*
X106617786Y-86965714D02*
X103757786Y-86965714D01*
X103757786Y-88885714D02*
X106617786Y-88885714D01*
%TO.C,U2*%
X130532107Y-102647951D02*
X131027082Y-102152977D01*
X120972023Y-93087868D02*
X120477049Y-92592893D01*
X140092191Y-92097918D02*
X140587165Y-92592893D01*
X130037132Y-102152977D02*
X130532107Y-102647951D01*
X120477049Y-92592893D02*
X120972023Y-92097918D01*
X130037132Y-83032809D02*
X129071931Y-82067609D01*
X130532107Y-82537835D02*
X130037132Y-83032809D01*
X140587165Y-92592893D02*
X140092191Y-93087868D01*
X131027082Y-83032809D02*
X130532107Y-82537835D01*
%TO.C,C15*%
X116472350Y-87446117D02*
X116102883Y-87076650D01*
X115432903Y-88485564D02*
X115063436Y-88116097D01*
%TO.C,SW1*%
X98732107Y-73742893D02*
X98732107Y-75242893D01*
X105732107Y-75242893D02*
X105732107Y-73742893D01*
X104482107Y-71242893D02*
X99982107Y-71242893D01*
X99982107Y-77742893D02*
X104482107Y-77742893D01*
%TO.C,R15*%
X120540000Y-66972936D02*
X120540000Y-67427064D01*
X122010000Y-66972936D02*
X122010000Y-67427064D01*
%TO.C,J19*%
X160177000Y-106200000D02*
X161507000Y-106200000D01*
X162837000Y-108800000D02*
X162837000Y-108860000D01*
X160177000Y-108800000D02*
X160177000Y-108860000D01*
X160177000Y-107530000D02*
X160177000Y-106200000D01*
X160177000Y-108800000D02*
X162837000Y-108800000D01*
X160177000Y-108860000D02*
X162837000Y-108860000D01*
%TO.C,C27*%
X69343349Y-67924000D02*
X69343349Y-70860000D01*
X70583349Y-72940000D02*
X70583349Y-75369000D01*
X69783349Y-72940000D02*
X69783349Y-75750000D01*
X69383349Y-67933000D02*
X69383349Y-70860000D01*
X71183349Y-68881000D02*
X71183349Y-74919000D01*
X70983349Y-68711000D02*
X70983349Y-75089000D01*
X69062349Y-67870000D02*
X69062349Y-70860000D01*
X72423349Y-70952000D02*
X72423349Y-72848000D01*
X72343349Y-70671000D02*
X72343349Y-73129000D01*
X71223349Y-68917000D02*
X71223349Y-74883000D01*
X69583349Y-72940000D02*
X69583349Y-75814000D01*
X64412651Y-69185000D02*
X64412651Y-69985000D01*
X69703349Y-72940000D02*
X69703349Y-75777000D01*
X71503349Y-69203000D02*
X71503349Y-74597000D01*
X71583349Y-69296000D02*
X71583349Y-74504000D01*
X69503349Y-67964000D02*
X69503349Y-70860000D01*
X71383349Y-69074000D02*
X71383349Y-74726000D01*
X70863349Y-68620000D02*
X70863349Y-75180000D01*
X69903349Y-72940000D02*
X69903349Y-75705000D01*
X68782349Y-67835000D02*
X68782349Y-70860000D01*
X68902349Y-67848000D02*
X68902349Y-70860000D01*
X71663349Y-69395000D02*
X71663349Y-74405000D01*
X69783349Y-68050000D02*
X69783349Y-70860000D01*
X69623349Y-67998000D02*
X69623349Y-70860000D01*
X69102349Y-72940000D02*
X69102349Y-75924000D01*
X69663349Y-72940000D02*
X69663349Y-75789000D01*
X69463349Y-67953000D02*
X69463349Y-70860000D01*
X70463349Y-72940000D02*
X70463349Y-75440000D01*
X72303349Y-70554000D02*
X72303349Y-73246000D01*
X71863349Y-69672000D02*
X71863349Y-74128000D01*
X68662349Y-72940000D02*
X68662349Y-75974000D01*
X70023349Y-68143000D02*
X70023349Y-70860000D01*
X70543349Y-68407000D02*
X70543349Y-70860000D01*
X69823349Y-68065000D02*
X69823349Y-70860000D01*
X68782349Y-72940000D02*
X68782349Y-75965000D01*
X71263349Y-68955000D02*
X71263349Y-74845000D01*
X72023349Y-69936000D02*
X72023349Y-73864000D01*
X68822349Y-72940000D02*
X68822349Y-75961000D01*
X68542349Y-67821000D02*
X68542349Y-75979000D01*
X69303349Y-67915000D02*
X69303349Y-70860000D01*
X70423349Y-72940000D02*
X70423349Y-75462000D01*
X70703349Y-72940000D02*
X70703349Y-75292000D01*
X70063349Y-72940000D02*
X70063349Y-75640000D01*
X69223349Y-72940000D02*
X69223349Y-75902000D01*
X70663349Y-68482000D02*
X70663349Y-70860000D01*
X68462349Y-67820000D02*
X68462349Y-75980000D01*
X70303349Y-68273000D02*
X70303349Y-70860000D01*
X69343349Y-72940000D02*
X69343349Y-75876000D01*
X71463349Y-69159000D02*
X71463349Y-74641000D01*
X71063349Y-68776000D02*
X71063349Y-75024000D01*
X70343349Y-72940000D02*
X70343349Y-75506000D01*
X69983349Y-72940000D02*
X69983349Y-75674000D01*
X69943349Y-68110000D02*
X69943349Y-70860000D01*
X72183349Y-70255000D02*
X72183349Y-73545000D01*
X69743349Y-68037000D02*
X69743349Y-70860000D01*
X70623349Y-72940000D02*
X70623349Y-75344000D01*
X71143349Y-68845000D02*
X71143349Y-74955000D01*
X70143349Y-72940000D02*
X70143349Y-75604000D01*
X69863349Y-68079000D02*
X69863349Y-70860000D01*
X70823349Y-68591000D02*
X70823349Y-75209000D01*
X71943349Y-69798000D02*
X71943349Y-74002000D01*
X70183349Y-72940000D02*
X70183349Y-75586000D01*
X72223349Y-70348000D02*
X72223349Y-73452000D01*
X69383349Y-72940000D02*
X69383349Y-75867000D01*
X70663349Y-72940000D02*
X70663349Y-75318000D01*
X72503349Y-71367000D02*
X72503349Y-72433000D01*
X69983349Y-68126000D02*
X69983349Y-70860000D01*
X71623349Y-69344000D02*
X71623349Y-74456000D01*
X70943349Y-68680000D02*
X70943349Y-75120000D01*
X72063349Y-70010000D02*
X72063349Y-73790000D01*
X71743349Y-69500000D02*
X71743349Y-74300000D01*
X71023349Y-68744000D02*
X71023349Y-75056000D01*
X68622349Y-67824000D02*
X68622349Y-75976000D01*
X64012651Y-69585000D02*
X64812651Y-69585000D01*
X71823349Y-69613000D02*
X71823349Y-74187000D01*
X70783349Y-68562000D02*
X70783349Y-75238000D01*
X69823349Y-72940000D02*
X69823349Y-75735000D01*
X69863349Y-72940000D02*
X69863349Y-75721000D01*
X69943349Y-72940000D02*
X69943349Y-75690000D01*
X68742349Y-72940000D02*
X68742349Y-75968000D01*
X70103349Y-68178000D02*
X70103349Y-70860000D01*
X71543349Y-69249000D02*
X71543349Y-74551000D01*
X70063349Y-68160000D02*
X70063349Y-70860000D01*
X69263349Y-72940000D02*
X69263349Y-75894000D01*
X69543349Y-67975000D02*
X69543349Y-70860000D01*
X69903349Y-68095000D02*
X69903349Y-70860000D01*
X71343349Y-69033000D02*
X71343349Y-74767000D01*
X70383349Y-72940000D02*
X70383349Y-75484000D01*
X69022349Y-72940000D02*
X69022349Y-75937000D01*
X69623349Y-72940000D02*
X69623349Y-75802000D01*
X69663349Y-68011000D02*
X69663349Y-70860000D01*
X68862349Y-72940000D02*
X68862349Y-75957000D01*
X70503349Y-68383000D02*
X70503349Y-70860000D01*
X70583349Y-68431000D02*
X70583349Y-70860000D01*
X68662349Y-67826000D02*
X68662349Y-70860000D01*
X71423349Y-69116000D02*
X71423349Y-74684000D01*
X69022349Y-67863000D02*
X69022349Y-70860000D01*
X70143349Y-68196000D02*
X70143349Y-70860000D01*
X68502349Y-67820000D02*
X68502349Y-75980000D01*
X68862349Y-67843000D02*
X68862349Y-70860000D01*
X69143349Y-67883000D02*
X69143349Y-70860000D01*
X68742349Y-67832000D02*
X68742349Y-70860000D01*
X69062349Y-72940000D02*
X69062349Y-75930000D01*
X69102349Y-67876000D02*
X69102349Y-70860000D01*
X68942349Y-67852000D02*
X68942349Y-70860000D01*
X71303349Y-68993000D02*
X71303349Y-74807000D01*
X70023349Y-72940000D02*
X70023349Y-75657000D01*
X70343349Y-68294000D02*
X70343349Y-70860000D01*
X70503349Y-72940000D02*
X70503349Y-75417000D01*
X69423349Y-72940000D02*
X69423349Y-75857000D01*
X71903349Y-69734000D02*
X71903349Y-74066000D01*
X71703349Y-69446000D02*
X71703349Y-74354000D01*
X70383349Y-68316000D02*
X70383349Y-70860000D01*
X69423349Y-67943000D02*
X69423349Y-70860000D01*
X69543349Y-72940000D02*
X69543349Y-75825000D01*
X70543349Y-72940000D02*
X70543349Y-75393000D01*
X68942349Y-72940000D02*
X68942349Y-75948000D01*
X69503349Y-72940000D02*
X69503349Y-75836000D01*
X68582349Y-67823000D02*
X68582349Y-75977000D01*
X69143349Y-72940000D02*
X69143349Y-75917000D01*
X69743349Y-72940000D02*
X69743349Y-75763000D01*
X68702349Y-72940000D02*
X68702349Y-75971000D01*
X70743349Y-68535000D02*
X70743349Y-75265000D01*
X69303349Y-72940000D02*
X69303349Y-75885000D01*
X69703349Y-68023000D02*
X69703349Y-70860000D01*
X71983349Y-69866000D02*
X71983349Y-73934000D01*
X72263349Y-70447000D02*
X72263349Y-73353000D01*
X68902349Y-72940000D02*
X68902349Y-75952000D01*
X72143349Y-70169000D02*
X72143349Y-73631000D01*
X68822349Y-67839000D02*
X68822349Y-70860000D01*
X70263349Y-68253000D02*
X70263349Y-70860000D01*
X70263349Y-72940000D02*
X70263349Y-75547000D01*
X72383349Y-70802000D02*
X72383349Y-72998000D01*
X69263349Y-67906000D02*
X69263349Y-70860000D01*
X71103349Y-68810000D02*
X71103349Y-74990000D01*
X69223349Y-67898000D02*
X69223349Y-70860000D01*
X70463349Y-68360000D02*
X70463349Y-70860000D01*
X68422349Y-67820000D02*
X68422349Y-75980000D01*
X72103349Y-70087000D02*
X72103349Y-73713000D01*
X70223349Y-68234000D02*
X70223349Y-70860000D01*
X68982349Y-67858000D02*
X68982349Y-70860000D01*
X68702349Y-67829000D02*
X68702349Y-70860000D01*
X70903349Y-68650000D02*
X70903349Y-75150000D01*
X70623349Y-68456000D02*
X70623349Y-70860000D01*
X70183349Y-68214000D02*
X70183349Y-70860000D01*
X69183349Y-72940000D02*
X69183349Y-75910000D01*
X70103349Y-72940000D02*
X70103349Y-75622000D01*
X70703349Y-68508000D02*
X70703349Y-70860000D01*
X69583349Y-67986000D02*
X69583349Y-70860000D01*
X68982349Y-72940000D02*
X68982349Y-75942000D01*
X69463349Y-72940000D02*
X69463349Y-75847000D01*
X69183349Y-67890000D02*
X69183349Y-70860000D01*
X72463349Y-71132000D02*
X72463349Y-72668000D01*
X70223349Y-72940000D02*
X70223349Y-75566000D01*
X70303349Y-72940000D02*
X70303349Y-75527000D01*
X71783349Y-69555000D02*
X71783349Y-74245000D01*
X70423349Y-68338000D02*
X70423349Y-70860000D01*
X72542349Y-71900000D02*
G75*
G03*
X72542349Y-71900000I-4120000J0D01*
G01*
%TO.C,R21*%
X89327064Y-73565000D02*
X88872936Y-73565000D01*
X89327064Y-75035000D02*
X88872936Y-75035000D01*
%TO.C,J15*%
X139767014Y-74911110D02*
X140707466Y-75851562D01*
X140707466Y-75851562D02*
X139767014Y-76792014D01*
X138868988Y-74013084D02*
X136988084Y-75893988D01*
X136988084Y-75893988D02*
X135149607Y-74055511D01*
X137030511Y-72174607D02*
X135149607Y-74055511D01*
X138868988Y-74013084D02*
X137030511Y-72174607D01*
%TO.C,C9*%
X117436526Y-86552187D02*
X117067059Y-86182720D01*
X118475973Y-85512740D02*
X118106506Y-85143273D01*
%TO.C,R10*%
X135540000Y-66972936D02*
X135540000Y-67427064D01*
X137010000Y-66972936D02*
X137010000Y-67427064D01*
%TO.C,U7*%
X90032107Y-63233893D02*
X64632107Y-63233893D01*
X64632107Y-37833893D02*
X90032107Y-37833893D01*
X90032107Y-37833893D02*
X90032107Y-63233893D01*
X64632107Y-63233893D02*
X64632107Y-37833893D01*
%TO.C,U5*%
X163963000Y-112163000D02*
X165913000Y-112163000D01*
X163963000Y-112163000D02*
X160513000Y-112163000D01*
X163963000Y-117283000D02*
X162013000Y-117283000D01*
X163963000Y-117283000D02*
X165913000Y-117283000D01*
%TO.C,U11*%
X127125000Y-118340000D02*
X125175000Y-118340000D01*
X127125000Y-123460000D02*
X125175000Y-123460000D01*
X127125000Y-123460000D02*
X130575000Y-123460000D01*
X127125000Y-118340000D02*
X129075000Y-118340000D01*
%TO.C,C12*%
X132570920Y-77656633D02*
X132940387Y-77287166D01*
X133610367Y-78696080D02*
X133979834Y-78326613D01*
%TO.C,R6*%
X173493936Y-47284000D02*
X173948064Y-47284000D01*
X173493936Y-48754000D02*
X173948064Y-48754000D01*
%TO.C,C30*%
X125686252Y-115665000D02*
X125163748Y-115665000D01*
X125686252Y-117135000D02*
X125163748Y-117135000D01*
D11*
%TO.C,GND*%
X122406000Y-51350000D02*
G75*
G03*
X122406000Y-51350000I-1750000J0D01*
G01*
D10*
%TO.C,J1*%
X134820000Y-45945000D02*
X136150000Y-45945000D01*
X134820000Y-48545000D02*
X134820000Y-53685000D01*
X137480000Y-48545000D02*
X137480000Y-53685000D01*
X134820000Y-53685000D02*
X137480000Y-53685000D01*
X134820000Y-48545000D02*
X137480000Y-48545000D01*
X134820000Y-47275000D02*
X134820000Y-45945000D01*
%TO.C,R23*%
X105844850Y-85260714D02*
X105390722Y-85260714D01*
X105844850Y-83790714D02*
X105390722Y-83790714D01*
%TO.C,R24*%
X120590000Y-122027064D02*
X120590000Y-121572936D01*
X122060000Y-122027064D02*
X122060000Y-121572936D01*
%TO.C,C24*%
X100803349Y-40683000D02*
X100803349Y-43160000D01*
X102643349Y-42971000D02*
X102643349Y-45429000D01*
X99643349Y-45240000D02*
X99643349Y-48176000D01*
X101963349Y-41695000D02*
X101963349Y-46705000D01*
X100643349Y-45240000D02*
X100643349Y-47806000D01*
X102003349Y-41746000D02*
X102003349Y-46654000D01*
X100163349Y-45240000D02*
X100163349Y-48021000D01*
X100963349Y-40782000D02*
X100963349Y-43160000D01*
X100563349Y-45240000D02*
X100563349Y-47847000D01*
X101523349Y-41217000D02*
X101523349Y-47183000D01*
X102483349Y-42555000D02*
X102483349Y-45845000D01*
X102043349Y-41800000D02*
X102043349Y-46600000D01*
X100563349Y-40553000D02*
X100563349Y-43160000D01*
X100803349Y-45240000D02*
X100803349Y-47717000D01*
X99402349Y-40176000D02*
X99402349Y-43160000D01*
X100243349Y-45240000D02*
X100243349Y-47990000D01*
X100963349Y-45240000D02*
X100963349Y-47618000D01*
X99162349Y-40143000D02*
X99162349Y-43160000D01*
X99162349Y-45240000D02*
X99162349Y-48257000D01*
X100203349Y-40395000D02*
X100203349Y-43160000D01*
X102243349Y-42098000D02*
X102243349Y-46302000D01*
X100763349Y-40660000D02*
X100763349Y-43160000D01*
X99523349Y-45240000D02*
X99523349Y-48202000D01*
X102443349Y-42469000D02*
X102443349Y-45931000D01*
X99883349Y-45240000D02*
X99883349Y-48114000D01*
X100003349Y-40323000D02*
X100003349Y-43160000D01*
X100883349Y-40731000D02*
X100883349Y-43160000D01*
X101403349Y-41110000D02*
X101403349Y-47290000D01*
X99563349Y-40206000D02*
X99563349Y-43160000D01*
X99362349Y-40170000D02*
X99362349Y-43160000D01*
X99483349Y-40190000D02*
X99483349Y-43160000D01*
X102683349Y-43102000D02*
X102683349Y-45298000D01*
X100363349Y-45240000D02*
X100363349Y-47940000D01*
X99843349Y-45240000D02*
X99843349Y-48125000D01*
X100323349Y-40443000D02*
X100323349Y-43160000D01*
X99603349Y-45240000D02*
X99603349Y-48185000D01*
X100043349Y-45240000D02*
X100043349Y-48063000D01*
X102523349Y-42648000D02*
X102523349Y-45752000D01*
X99443349Y-45240000D02*
X99443349Y-48217000D01*
X100483349Y-45240000D02*
X100483349Y-47886000D01*
X99242349Y-40152000D02*
X99242349Y-43160000D01*
X94712651Y-41485000D02*
X94712651Y-42285000D01*
X99202349Y-40148000D02*
X99202349Y-43160000D01*
X99963349Y-45240000D02*
X99963349Y-48089000D01*
X99923349Y-45240000D02*
X99923349Y-48102000D01*
X99643349Y-40224000D02*
X99643349Y-43160000D01*
X101003349Y-45240000D02*
X101003349Y-47592000D01*
X100323349Y-45240000D02*
X100323349Y-47957000D01*
X101443349Y-41145000D02*
X101443349Y-47255000D01*
X100163349Y-40379000D02*
X100163349Y-43160000D01*
X102283349Y-42166000D02*
X102283349Y-46234000D01*
X99523349Y-40198000D02*
X99523349Y-43160000D01*
X99322349Y-45240000D02*
X99322349Y-48237000D01*
X99402349Y-45240000D02*
X99402349Y-48224000D01*
X100523349Y-40534000D02*
X100523349Y-43160000D01*
X98722349Y-40120000D02*
X98722349Y-48280000D01*
X100483349Y-40514000D02*
X100483349Y-43160000D01*
X100643349Y-40594000D02*
X100643349Y-43160000D01*
X100123349Y-45240000D02*
X100123349Y-48035000D01*
X98922349Y-40124000D02*
X98922349Y-48276000D01*
X100283349Y-45240000D02*
X100283349Y-47974000D01*
X101243349Y-40980000D02*
X101243349Y-47420000D01*
X101843349Y-41549000D02*
X101843349Y-46851000D01*
X101203349Y-40950000D02*
X101203349Y-47450000D01*
X99603349Y-40215000D02*
X99603349Y-43160000D01*
X99763349Y-40253000D02*
X99763349Y-43160000D01*
X101803349Y-41503000D02*
X101803349Y-46897000D01*
X99683349Y-40233000D02*
X99683349Y-43160000D01*
X98842349Y-40121000D02*
X98842349Y-48279000D01*
X102203349Y-42034000D02*
X102203349Y-46366000D01*
X101083349Y-40862000D02*
X101083349Y-47538000D01*
X102603349Y-42854000D02*
X102603349Y-45546000D01*
X100123349Y-40365000D02*
X100123349Y-43160000D01*
X101763349Y-41459000D02*
X101763349Y-46941000D01*
X100843349Y-45240000D02*
X100843349Y-47693000D01*
X102083349Y-41855000D02*
X102083349Y-46545000D01*
X99202349Y-45240000D02*
X99202349Y-48252000D01*
X99803349Y-45240000D02*
X99803349Y-48136000D01*
X102363349Y-42310000D02*
X102363349Y-46090000D01*
X100243349Y-40410000D02*
X100243349Y-43160000D01*
X100923349Y-45240000D02*
X100923349Y-47644000D01*
X99883349Y-40286000D02*
X99883349Y-43160000D01*
X100683349Y-45240000D02*
X100683349Y-47784000D01*
X101323349Y-41044000D02*
X101323349Y-47356000D01*
X99723349Y-45240000D02*
X99723349Y-48157000D01*
X101163349Y-40920000D02*
X101163349Y-47480000D01*
X99042349Y-40132000D02*
X99042349Y-43160000D01*
X102563349Y-42747000D02*
X102563349Y-45653000D01*
X100443349Y-45240000D02*
X100443349Y-47904000D01*
X100883349Y-45240000D02*
X100883349Y-47669000D01*
X100003349Y-45240000D02*
X100003349Y-48077000D01*
X98802349Y-40120000D02*
X98802349Y-48280000D01*
X101723349Y-41416000D02*
X101723349Y-46984000D01*
X99563349Y-45240000D02*
X99563349Y-48194000D01*
X102763349Y-43432000D02*
X102763349Y-44968000D01*
X100683349Y-40616000D02*
X100683349Y-43160000D01*
X98962349Y-45240000D02*
X98962349Y-48274000D01*
X99443349Y-40183000D02*
X99443349Y-43160000D01*
X99923349Y-40298000D02*
X99923349Y-43160000D01*
X100523349Y-45240000D02*
X100523349Y-47866000D01*
X100723349Y-45240000D02*
X100723349Y-47762000D01*
X99763349Y-45240000D02*
X99763349Y-48147000D01*
X102323349Y-42236000D02*
X102323349Y-46164000D01*
X99082349Y-45240000D02*
X99082349Y-48265000D01*
X99963349Y-40311000D02*
X99963349Y-43160000D01*
X102123349Y-41913000D02*
X102123349Y-46487000D01*
X99122349Y-40139000D02*
X99122349Y-43160000D01*
X99242349Y-45240000D02*
X99242349Y-48248000D01*
X100283349Y-40426000D02*
X100283349Y-43160000D01*
X99082349Y-40135000D02*
X99082349Y-43160000D01*
X100843349Y-40707000D02*
X100843349Y-43160000D01*
X98762349Y-40120000D02*
X98762349Y-48280000D01*
X99483349Y-45240000D02*
X99483349Y-48210000D01*
X100403349Y-45240000D02*
X100403349Y-47922000D01*
X99122349Y-45240000D02*
X99122349Y-48261000D01*
X101003349Y-40808000D02*
X101003349Y-43160000D01*
X94312651Y-41885000D02*
X95112651Y-41885000D01*
X100363349Y-40460000D02*
X100363349Y-43160000D01*
X102163349Y-41972000D02*
X102163349Y-46428000D01*
X99803349Y-40264000D02*
X99803349Y-43160000D01*
X99002349Y-45240000D02*
X99002349Y-48271000D01*
X102803349Y-43667000D02*
X102803349Y-44733000D01*
X102723349Y-43252000D02*
X102723349Y-45148000D01*
X101923349Y-41644000D02*
X101923349Y-46756000D01*
X100923349Y-40756000D02*
X100923349Y-43160000D01*
X100043349Y-40337000D02*
X100043349Y-43160000D01*
X100403349Y-40478000D02*
X100403349Y-43160000D01*
X98882349Y-40123000D02*
X98882349Y-48277000D01*
X99843349Y-40275000D02*
X99843349Y-43160000D01*
X100723349Y-40638000D02*
X100723349Y-43160000D01*
X101363349Y-41076000D02*
X101363349Y-47324000D01*
X99362349Y-45240000D02*
X99362349Y-48230000D01*
X99723349Y-40243000D02*
X99723349Y-43160000D01*
X101883349Y-41596000D02*
X101883349Y-46804000D01*
X101563349Y-41255000D02*
X101563349Y-47145000D01*
X101683349Y-41374000D02*
X101683349Y-47026000D01*
X100203349Y-45240000D02*
X100203349Y-48005000D01*
X102403349Y-42387000D02*
X102403349Y-46013000D01*
X100443349Y-40496000D02*
X100443349Y-43160000D01*
X99282349Y-45240000D02*
X99282349Y-48242000D01*
X99042349Y-45240000D02*
X99042349Y-48268000D01*
X99683349Y-45240000D02*
X99683349Y-48167000D01*
X98962349Y-40126000D02*
X98962349Y-43160000D01*
X101043349Y-40835000D02*
X101043349Y-47565000D01*
X101123349Y-40891000D02*
X101123349Y-47509000D01*
X101283349Y-41011000D02*
X101283349Y-47389000D01*
X101603349Y-41293000D02*
X101603349Y-47107000D01*
X99322349Y-40163000D02*
X99322349Y-43160000D01*
X101643349Y-41333000D02*
X101643349Y-47067000D01*
X100603349Y-45240000D02*
X100603349Y-47827000D01*
X100603349Y-40573000D02*
X100603349Y-43160000D01*
X100083349Y-40350000D02*
X100083349Y-43160000D01*
X100083349Y-45240000D02*
X100083349Y-48050000D01*
X99002349Y-40129000D02*
X99002349Y-43160000D01*
X100763349Y-45240000D02*
X100763349Y-47740000D01*
X101483349Y-41181000D02*
X101483349Y-47219000D01*
X99282349Y-40158000D02*
X99282349Y-43160000D01*
X102842349Y-44200000D02*
G75*
G03*
X102842349Y-44200000I-4120000J0D01*
G01*
%TO.C,D8*%
X117315000Y-60840000D02*
X117315000Y-63700000D01*
X119235000Y-60840000D02*
X117315000Y-60840000D01*
X119235000Y-63700000D02*
X119235000Y-60840000D01*
%TO.C,D7*%
X122235000Y-63700000D02*
X122235000Y-60840000D01*
X122235000Y-60840000D02*
X120315000Y-60840000D01*
X120315000Y-60840000D02*
X120315000Y-63700000D01*
%TO.C,C29*%
X133560000Y-121961252D02*
X133560000Y-121438748D01*
X132090000Y-121961252D02*
X132090000Y-121438748D01*
%TO.C,C4*%
X135341990Y-80502457D02*
X135711457Y-80132990D01*
X134302543Y-79463010D02*
X134672010Y-79093543D01*
%TO.C,J23*%
X108495000Y-108065000D02*
X108495000Y-106735000D01*
X108495000Y-106735000D02*
X109825000Y-106735000D01*
X108495000Y-109335000D02*
X111155000Y-109335000D01*
X111155000Y-109335000D02*
X111155000Y-111935000D01*
X108495000Y-109335000D02*
X108495000Y-111935000D01*
X108495000Y-111935000D02*
X111155000Y-111935000D01*
%TD*%
M02*
