M48
; DRILL file {KiCad 6.0.11-2627ca5db0~126~ubuntu20.04.1} date Wed May 10 15:40:15 2023
; FORMAT={-:-/ absolute / inch / decimal}
; #@! TF.CreationDate,2023-05-10T15:40:15+05:30
; #@! TF.GenerationSoftware,Kicad,Pcbnew,6.0.11-2627ca5db0~126~ubuntu20.04.1
; #@! TF.FileFunction,Plated,1,4,PTH
FMAT,2
INCH
; #@! TA.AperFunction,Plated,PTH,ViaDrill
T1C0.0157
; #@! TA.AperFunction,Plated,PTH,ComponentDrill
T2C0.0300
; #@! TA.AperFunction,Plated,PTH,ComponentDrill
T3C0.0314
; #@! TA.AperFunction,Plated,PTH,ComponentDrill
T4C0.0315
; #@! TA.AperFunction,Plated,PTH,ComponentDrill
T5C0.0394
; #@! TA.AperFunction,Plated,PTH,ComponentDrill
T6C0.0433
; #@! TA.AperFunction,Plated,PTH,ComponentDrill
T7C0.0551
; #@! TA.AperFunction,Plated,PTH,ComponentDrill
T8C0.0630
; #@! TA.AperFunction,Plated,PTH,ComponentDrill
T9C0.1260
%
G90
G05
T1
X1.978Y-6.2285
X1.9796Y-1.8419
X2.398Y-4.7885
X2.3996Y-0.4019
X2.403Y-6.7785
X2.4046Y-2.3919
X2.483Y-4.5735
X2.4846Y-0.1869
X2.523Y-5.7485
X2.5246Y-1.3619
X2.553Y-5.6535
X2.5546Y-1.2669
X2.563Y-3.6635
X2.5646Y0.7231
X2.573Y-6.2385
X2.5746Y-1.8519
X2.583Y-4.4885
X2.5846Y-0.1019
X2.593Y-4.6435
X2.5946Y-0.2569
X2.708Y-3.9985
X2.7096Y0.3881
X2.723Y-4.5735
X2.7246Y-0.1869
X2.728Y-4.1535
X2.7296Y0.2331
X2.753Y-5.1585
X2.7546Y-0.7719
X2.858Y-4.5285
X2.8596Y-0.1419
X2.888Y-4.1785
X2.8896Y0.2081
X2.893Y-7.1985
X2.8946Y-2.8119
X2.948Y-6.5885
X2.9496Y-2.2019
X2.973Y-3.8185
X2.9746Y0.5681
X2.9877Y-5.269
X2.9877Y-5.509
X2.9892Y-0.8824
X2.9892Y-1.1224
X3.258Y-5.0535
X3.2596Y-0.6669
X3.263Y-5.6185
X3.2646Y-1.2319
X3.3472Y-5.7163
X3.3487Y-1.3297
X3.3541Y-4.1691
X3.3556Y0.2175
X3.3574Y-4.8108
X3.359Y-0.4242
X3.373Y-5.2235
X3.3746Y-0.8369
X3.378Y-5.0885
X3.3796Y-0.7019
X3.4417Y-5.7124
X3.4432Y-1.3258
X3.473Y-4.5535
X3.4746Y-0.1669
X3.588Y-4.5485
X3.5883Y-4.1632
X3.5896Y-0.1619
X3.5898Y0.2234
X3.5952Y-5.5116
X3.5967Y-1.125
X3.5972Y-4.9447
X3.5987Y-0.5581
X3.6424Y-6.4014
X3.644Y-2.0148
X3.6503Y-5.5992
X3.6519Y-1.2126
X3.6543Y-7.2439
X3.6558Y-2.8573
X3.6976Y-5.8502
X3.6991Y-1.4636
X3.7054Y-6.3974
X3.707Y-2.0108
X3.713Y-5.2635
X3.7146Y-0.8769
X3.7585Y-7.1985
X3.76Y-2.8119
X3.763Y-4.7185
X3.7646Y-0.3319
X3.793Y-5.0985
X3.7946Y-0.7119
X3.8019Y-5.8315
X3.8034Y-1.4449
X3.8078Y-6.0589
X3.808Y-5.7435
X3.8093Y-1.6722
X3.8096Y-1.3569
X3.818Y-7.2535
X3.8196Y-2.8669
X3.8245Y-4.1711
X3.8261Y0.2156
X3.8677Y-5.1089
X3.8692Y-0.7223
X4.023Y-5.3035
X4.0246Y-0.9169
X4.048Y-5.2535
X4.0496Y-0.8669
X4.0607Y-4.172
X4.0623Y0.2146
X4.088Y-5.1635
X4.0896Y-0.7769
X4.1306Y-6.4604
X4.1322Y-2.0738
X4.133Y-4.7935
X4.1346Y-0.4069
X4.1906Y-5.0412
X4.1922Y-0.6545
X4.233Y-4.5985
X4.2346Y-0.2119
X4.2716Y-6.5096
X4.2731Y-2.123
X4.296Y-4.1691
X4.2975Y0.2175
X4.308Y-5.4885
X4.3096Y-1.1019
X4.3186Y-5.1455
X4.3202Y-0.7589
X4.3285Y-6.422
X4.33Y-2.0354
X4.3737Y-6.3177
X4.3753Y-1.9311
X4.4072Y-3.4909
X4.4087Y0.8957
X4.4105Y-5.186
X4.4121Y-0.7994
X4.4131Y-6.2429
X4.4146Y-1.8563
X4.4161Y-5.0854
X4.4176Y-0.6988
X4.453Y-6.1585
X4.4546Y-1.7719
X4.458Y-6.3735
X4.4596Y-1.9869
X4.473Y-4.2435
X4.4746Y0.1431
X4.478Y-5.8635
X4.4796Y-1.4769
X4.503Y-5.1435
X4.503Y-6.6935
X4.5046Y-0.7569
X4.5046Y-2.3069
X4.508Y-5.2285
X4.5096Y-0.8419
X4.5115Y-5.05
X4.5131Y-0.6634
X4.553Y-4.1385
X4.5546Y0.2481
X4.568Y-5.9085
X4.5696Y-1.5219
X4.593Y-6.6935
X4.5946Y-2.3069
X4.623Y-4.9635
X4.6246Y-0.5769
X4.668Y-6.5685
X4.6696Y-2.1819
X4.6759Y-4.113
X4.6774Y0.2736
X4.713Y-5.6785
X4.7146Y-1.2919
X4.718Y-5.5285
X4.7196Y-1.1419
X4.7259Y-3.843
X4.7274Y0.5436
X4.7633Y-3.888
X4.7649Y0.4986
X4.8109Y-3.853
X4.8124Y0.5336
X4.813Y-5.6685
X4.8146Y-1.2819
X4.818Y-5.2135
X4.8196Y-0.8269
X4.8459Y-3.893
X4.8474Y0.4936
X4.9609Y-3.888
X4.9624Y0.4986
X4.963Y-5.4885
X4.9645Y-1.1019
X4.9653Y-3.7836
X4.9668Y0.603
X5.1306Y-7.287
X5.1322Y-2.9004
X5.188Y-6.3085
X5.1896Y-1.9219
X5.388Y-6.7635
X5.3896Y-2.3769
X5.578Y-6.1533
X5.5795Y-1.7667
X5.703Y-6.8135
X5.7046Y-2.4269
X5.7409Y-6.3964
X5.7425Y-2.0098
X5.798Y-5.8535
X5.7996Y-1.4669
X5.8109Y-3.883
X5.8124Y0.5036
X5.838Y-5.9885
X5.8396Y-1.6019
X5.8484Y-6.2889
X5.85Y-1.9023
X6.028Y-4.9035
X6.0296Y-0.5169
X6.343Y-5.1535
X6.3446Y-0.7669
X6.348Y-5.2135
X6.348Y-5.2835
X6.3496Y-0.8269
X6.3496Y-0.8969
X6.368Y-6.7835
X6.3696Y-2.3969
X6.4164Y-6.6852
X6.4179Y-2.2986
X6.498Y-6.5285
X6.4996Y-2.1419
T2
X1.5774Y-4.1964
X1.5789Y0.1902
X1.8774Y-3.4964
X1.8789Y0.8902
X2.0774Y-3.4964
X2.0789Y0.8902
X2.3774Y-4.1964
X2.3789Y0.1902
T3
X1.8895Y-5.1396
X1.8895Y-6.0056
X1.891Y-0.753
X1.891Y-1.619
X1.9683Y-5.1396
X1.9683Y-6.0056
X1.9698Y-0.753
X1.9698Y-1.619
X2.047Y-5.1396
X2.047Y-6.0056
X2.0485Y-0.753
X2.0485Y-1.619
X2.1258Y-5.1396
X2.1258Y-6.0056
X2.1273Y-0.753
X2.1273Y-1.619
X2.2045Y-5.1396
X2.2045Y-6.0056
X2.206Y-0.753
X2.206Y-1.619
X2.2832Y-5.1396
X2.2832Y-6.0056
X2.2847Y-0.753
X2.2847Y-1.619
X2.362Y-5.1396
X2.362Y-6.0056
X2.3635Y-0.753
X2.3635Y-1.619
X2.4407Y-5.1396
X2.4407Y-6.0056
X2.4422Y-0.753
X2.4422Y-1.619
X2.5195Y-5.1396
X2.5195Y-6.0056
X2.521Y-0.753
X2.521Y-1.619
X2.5982Y-5.1396
X2.5982Y-6.0056
X2.5997Y-0.753
X2.5997Y-1.619
T4
X1.5774Y-4.6376
X1.5789Y-0.251
X1.6758Y-4.6376
X1.6773Y-0.251
X2.7703Y-3.547
X2.7718Y0.8396
X2.8687Y-3.547
X2.8702Y0.8396
X4.685Y-4.2607
X4.685Y-4.3607
X4.685Y-4.4607
X4.685Y-4.5607
X4.685Y-4.6607
X4.685Y-4.7607
X4.685Y-4.8607
X4.685Y-4.9607
X4.6865Y0.1259
X4.6865Y0.0259
X4.6865Y-0.0741
X4.6865Y-0.1741
X4.6865Y-0.2741
X4.6865Y-0.3741
X4.6865Y-0.4741
X4.6865Y-0.5741
X4.985Y-4.2607
X4.985Y-4.3607
X4.985Y-4.4607
X4.985Y-4.5607
X4.985Y-4.6607
X4.985Y-4.7607
X4.985Y-4.8607
X4.985Y-4.9607
X4.9865Y0.1259
X4.9865Y0.0259
X4.9865Y-0.0741
X4.9865Y-0.1741
X4.9865Y-0.2741
X4.9865Y-0.3741
X4.9865Y-0.4741
X4.9865Y-0.5741
X5.1924Y-4.3289
X5.1924Y-4.9289
X5.194Y0.0577
X5.194Y-0.5423
X5.2924Y-4.3289
X5.2924Y-4.9289
X5.294Y0.0577
X5.294Y-0.5423
X5.3254Y-3.3185
X5.3254Y-3.4185
X5.3254Y-3.5185
X5.3254Y-3.6185
X5.3254Y-3.7185
X5.3254Y-3.8185
X5.3254Y-3.9185
X5.3269Y1.0681
X5.3269Y0.9681
X5.3269Y0.8681
X5.3269Y0.7681
X5.3269Y0.6681
X5.3269Y0.5681
X5.3269Y0.4681
X5.3924Y-4.3289
X5.3924Y-4.9289
X5.394Y0.0577
X5.394Y-0.5423
X5.4924Y-4.3289
X5.4924Y-4.9289
X5.494Y0.0577
X5.494Y-0.5423
X5.5924Y-4.3289
X5.5924Y-4.9289
X5.594Y0.0577
X5.594Y-0.5423
X5.6254Y-3.3185
X5.6254Y-3.4185
X5.6254Y-3.5185
X5.6254Y-3.6185
X5.6254Y-3.7185
X5.6254Y-3.8185
X5.6254Y-3.9185
X5.6269Y1.0681
X5.6269Y0.9681
X5.6269Y0.8681
X5.6269Y0.7681
X5.6269Y0.6681
X5.6269Y0.5681
X5.6269Y0.4681
T5
X1.8829Y-6.9531
X1.8844Y-2.5664
X1.9374Y-7.0649
X1.9389Y-2.6783
X1.9919Y-6.9531
X1.9935Y-2.5664
X2.0389Y-4.8108
X2.0404Y-0.4242
X2.0465Y-7.0649
X2.048Y-2.6783
X2.101Y-6.9531
X2.1025Y-2.5664
X2.1389Y-4.8108
X2.1404Y-0.4242
X2.1555Y-7.0649
X2.1571Y-2.6783
X2.2082Y-4.4742
X2.2082Y-4.5742
X2.2097Y-0.0876
X2.2097Y-0.1876
X2.21Y-6.9531
X2.2116Y-2.5664
X2.2389Y-4.8108
X2.2404Y-0.4242
X2.2646Y-7.0649
X2.2661Y-2.6783
X2.3082Y-4.4742
X2.3082Y-4.5742
X2.3097Y-0.0876
X2.3097Y-0.1876
X2.3191Y-6.9531
X2.3206Y-2.5664
X2.4082Y-4.4742
X2.4082Y-4.5742
X2.4097Y-0.0876
X2.4097Y-0.1876
X3.0519Y-5.9604
X3.0519Y-6.0604
X3.0519Y-6.1604
X3.0519Y-6.2604
X3.0534Y-1.5738
X3.0534Y-1.6738
X3.0534Y-1.7738
X3.0534Y-1.8738
X3.2566Y-6.0614
X3.2566Y-6.1614
X3.2581Y-1.6748
X3.2581Y-1.7748
X3.31Y-6.9727
X3.3116Y-2.5861
X3.3646Y-7.0845
X3.3661Y-2.6979
X3.4191Y-6.9727
X3.4206Y-2.5861
X3.4377Y-5.8827
X3.4377Y-5.9827
X3.4377Y-6.0827
X3.4377Y-6.1827
X3.4377Y-6.2827
X3.4393Y-1.4961
X3.4393Y-1.5961
X3.4393Y-1.6961
X3.4393Y-1.7961
X3.4393Y-1.8961
X3.4736Y-7.0845
X3.4752Y-2.6979
X3.5282Y-6.9727
X3.5297Y-2.5861
X3.5827Y-7.0845
X3.5842Y-2.6979
X3.6372Y-6.9727
X3.6387Y-2.5861
X3.6917Y-7.0845
X3.6933Y-2.6979
X3.7463Y-6.9727
X3.7478Y-2.5861
X3.7724Y-6.2439
X3.7739Y-1.8573
X3.8724Y-6.2439
X3.8739Y-1.8573
X3.963Y-3.4391
X3.963Y-3.5391
X3.963Y-3.6391
X3.9646Y0.9475
X3.9646Y0.8475
X3.9646Y0.7475
X3.9724Y-6.2439
X3.9739Y-1.8573
X4.0724Y-6.2439
X4.0739Y-1.8573
X4.293Y-3.6681
X4.293Y-3.7681
X4.293Y-3.8681
X4.2946Y0.7185
X4.2946Y0.6185
X4.2946Y0.5185
X4.3277Y-4.7225
X4.3292Y-0.3358
X4.3984Y-4.7932
X4.3999Y-0.4066
X4.7707Y-6.9747
X4.7722Y-2.5881
X4.8252Y-7.0865
X4.8267Y-2.6999
X4.8797Y-6.9747
X4.8813Y-2.5881
X4.9343Y-7.0865
X4.9358Y-2.6999
X4.9888Y-6.9747
X4.9903Y-2.5881
X5.0433Y-7.0865
X5.0448Y-2.6999
X5.0509Y-5.3581
X5.0524Y-0.9715
X5.0978Y-6.9747
X5.0994Y-2.5881
X5.1509Y-5.3581
X5.1524Y-7.0865
X5.1524Y-0.9715
X5.1539Y-2.6999
X5.2069Y-6.9747
X5.2084Y-2.5881
X5.2509Y-5.3581
X5.2524Y-0.9715
X5.2913Y-6.0404
X5.2929Y-1.6537
X5.298Y-6.5535
X5.2996Y-2.1669
X5.3509Y-5.3581
X5.3524Y-0.9715
X5.4509Y-5.3581
X5.4524Y-0.9715
X5.488Y-6.5535
X5.4896Y-2.1669
X5.4941Y-6.0374
X5.4956Y-1.6508
X6.0994Y-6.5831
X6.0994Y-6.6922
X6.0994Y-6.8013
X6.0994Y-6.9103
X6.0994Y-7.0194
X6.101Y-2.1965
X6.101Y-2.3056
X6.101Y-2.4146
X6.101Y-2.5237
X6.101Y-2.6328
X6.1055Y-5.0989
X6.1055Y-5.2079
X6.1055Y-5.317
X6.1055Y-5.4261
X6.1055Y-5.5351
X6.107Y-0.7123
X6.107Y-0.8213
X6.107Y-0.9304
X6.107Y-1.0394
X6.107Y-1.1485
X6.1259Y-3.6225
X6.1259Y-3.7316
X6.1259Y-3.8406
X6.1259Y-3.9497
X6.1259Y-4.0587
X6.1275Y0.7641
X6.1275Y0.655
X6.1275Y0.546
X6.1275Y0.4369
X6.1275Y0.3279
X6.2112Y-6.6377
X6.2112Y-6.7467
X6.2112Y-6.8558
X6.2112Y-6.9648
X6.2128Y-2.2511
X6.2128Y-2.3601
X6.2128Y-2.4692
X6.2128Y-2.5782
X6.2173Y-5.1534
X6.2173Y-5.2625
X6.2173Y-5.3715
X6.2173Y-5.4806
X6.2188Y-0.7668
X6.2188Y-0.8759
X6.2188Y-0.9849
X6.2188Y-1.094
X6.2377Y-3.677
X6.2377Y-3.7861
X6.2377Y-3.8952
X6.2377Y-4.0042
X6.2393Y0.7096
X6.2393Y0.6005
X6.2393Y0.4915
X6.2393Y0.3824
T6
X2.8297Y-4.6511
X2.8297Y-4.8283
X2.8313Y-0.2645
X2.8313Y-0.4416
X3.0856Y-4.6511
X3.0856Y-4.8283
X3.0872Y-0.2645
X3.0872Y-0.4416
T7
X3.427Y-3.542
X3.4285Y0.8446
X3.6238Y-3.542
X3.6254Y0.8446
T8
X3.313Y-3.8285
X3.3146Y0.5581
X3.503Y-3.8285
X3.5046Y0.5581
X3.683Y-3.8285
X3.6846Y0.5581
X3.868Y-3.8285
X3.8696Y0.5581
X4.053Y-3.8235
X4.0546Y0.5631
T9
X1.5499Y-5.1533
X1.5515Y-0.7667
X1.5679Y-6.4838
X1.5695Y-2.0972
X1.6089Y-7.009
X1.6104Y-2.6223
X2.5931Y-7.009
X2.5946Y-2.6223
X3.036Y-7.0286
X3.0376Y-2.642
X4.0203Y-7.0286
X4.0218Y-2.642
X4.4967Y-7.0306
X4.4982Y-2.644
X5.4809Y-7.0306
X5.4824Y-2.644
X5.7999Y-7.0864
X5.8015Y-2.6998
X5.868Y-3.4385
X5.8696Y0.9481
X6.1553Y-6.3091
X6.1553Y-7.2934
X6.1569Y-1.9225
X6.1569Y-2.9068
X6.1614Y-4.8249
X6.1614Y-5.8091
X6.1629Y-0.4383
X6.1629Y-1.4225
X6.1818Y-3.3485
X6.1818Y-4.3328
X6.1834Y1.0381
X6.1834Y0.0539
T0
M30
