M48
; DRILL file {KiCad 6.0.11-2627ca5db0~126~ubuntu20.04.1} date Wed May 10 15:40:15 2023
; FORMAT={-:-/ absolute / inch / decimal}
; #@! TF.CreationDate,2023-05-10T15:40:15+05:30
; #@! TF.GenerationSoftware,Kicad,Pcbnew,6.0.11-2627ca5db0~126~ubuntu20.04.1
; #@! TF.FileFunction,Plated,2,3,Buried
FMAT,2
INCH
; #@! TA.AperFunction,Plated,Buried,ViaDrill
T1C0.0157
%
G90
G05
T1
X1.4771Y-5.5687
X1.4771Y-5.6209
X1.478Y-5.5185
X1.4786Y-1.1821
X1.4786Y-1.2343
X1.4796Y-1.1319
X1.5273Y-5.5707
X1.5283Y-5.6238
X1.5288Y-1.1841
X1.5298Y-1.2372
X1.5302Y-5.5185
X1.5318Y-1.1319
X1.5804Y-6.0933
X1.5804Y-6.1455
X1.5814Y-6.0431
X1.582Y-1.7067
X1.582Y-1.7589
X1.5829Y-1.6565
X1.6306Y-6.0953
X1.6316Y-6.1484
X1.6322Y-1.7087
X1.6331Y-1.7618
X1.6336Y-6.0431
X1.6351Y-1.6565
X1.6651Y-4.8541
X1.6651Y-4.9063
X1.6666Y-0.4675
X1.6667Y-0.5197
X1.672Y-3.6386
X1.672Y-3.6908
X1.6735Y0.748
X1.6735Y0.6958
X1.7153Y-4.9073
X1.7168Y-0.5207
X1.7172Y-4.8571
X1.7188Y-0.4705
X1.7222Y-3.6917
X1.7237Y0.6949
X1.7241Y-3.6415
X1.7257Y0.7451
X1.7674Y-4.9073
X1.769Y-0.5207
X1.7704Y-4.8561
X1.7719Y-0.4695
X1.7743Y-3.6917
X1.7759Y0.6949
X1.7773Y-3.6406
X1.7788Y0.7461
X1.793Y-7.2547
X1.7931Y-7.3069
X1.7946Y-2.8681
X1.7946Y-2.9203
X1.8432Y-7.3079
X1.8448Y-2.9213
X1.8452Y-7.2577
X1.8467Y-2.8711
X1.8747Y-5.4496
X1.8748Y-5.5018
X1.8763Y-1.063
X1.8763Y-1.1152
X1.8954Y-7.3079
X1.8969Y-2.9213
X1.8983Y-7.2567
X1.8999Y-2.8701
X1.919Y-4.3531
X1.9191Y-4.4054
X1.9206Y0.0335
X1.9206Y-0.0187
X1.9249Y-5.5028
X1.9265Y-1.1161
X1.9269Y-5.4526
X1.9284Y-1.0659
X1.9338Y-4.0323
X1.9338Y-4.0845
X1.9353Y0.3543
X1.9354Y0.3021
X1.9692Y-4.4063
X1.9707Y-0.0197
X1.9712Y-4.3561
X1.9727Y0.0305
X1.9771Y-5.5028
X1.9786Y-1.1161
X1.98Y-5.4516
X1.9816Y-1.065
X1.984Y-4.0854
X1.9855Y0.3012
X1.9859Y-4.0352
X1.9875Y0.3514
X2.0214Y-4.4063
X2.0229Y-0.0197
X2.0243Y-4.3551
X2.0259Y0.0315
X2.0361Y-4.0854
X2.0377Y0.3012
X2.0391Y-4.0343
X2.0406Y0.3524
X2.2291Y-7.2557
X2.2291Y-7.3079
X2.2306Y-2.8691
X2.2306Y-2.9213
X2.2793Y-7.3089
X2.2808Y-2.9222
X2.2812Y-7.2587
X2.2828Y-2.872
X2.3314Y-7.3089
X2.333Y-2.9222
X2.3344Y-7.2577
X2.3359Y-2.8711
X2.3974Y-5.4467
X2.3974Y-5.4989
X2.3989Y-1.06
X2.3989Y-1.1122
X2.4476Y-5.4998
X2.4491Y-1.1132
X2.4495Y-5.4496
X2.4511Y-1.063
X2.4997Y-5.4998
X2.5013Y-1.1132
X2.5027Y-5.4486
X2.5042Y-1.062
X3.1336Y-6.6081
X3.1336Y-6.6603
X3.1351Y-2.2215
X3.1352Y-2.2737
X3.1838Y-6.6612
X3.1853Y-2.2746
X3.1857Y-6.611
X3.1873Y-2.2244
X3.2359Y-6.6612
X3.2375Y-2.2746
X3.2389Y-6.61
X3.2404Y-2.2234
X3.3865Y-7.2646
X3.3866Y-7.3168
X3.3881Y-2.878
X3.3881Y-2.9302
X3.4367Y-7.3177
X3.4383Y-2.9311
X3.4387Y-7.2675
X3.4402Y-2.8809
X3.4889Y-7.3177
X3.4904Y-2.9311
X3.4919Y-7.2665
X3.4934Y-2.8799
X3.8639Y-5.5037
X3.8654Y-1.1171
X3.9092Y-5.5539
X3.9107Y-1.1673
X3.9111Y-5.4604
X3.9127Y-1.0738
X3.9505Y-5.5953
X3.952Y-1.2087
X3.9564Y-5.4142
X3.9564Y-5.5077
X3.958Y-1.0276
X3.958Y-1.1211
X3.9919Y-5.6386
X3.9934Y-1.252
X3.9968Y-5.547
X3.9983Y-1.1604
X4.0106Y-5.4614
X4.0121Y-1.0748
X4.0411Y-5.5953
X4.0426Y-1.2087
X4.046Y-5.5047
X4.0475Y-1.1181
X4.0696Y-5.4122
X4.0711Y-1.0256
X4.0834Y-5.5421
X4.0849Y-1.1555
X4.109Y-5.4516
X4.1105Y-1.065
X4.1257Y-5.361
X4.1272Y-0.9744
X4.1444Y-5.4909
X4.1459Y-1.1043
X4.1543Y-5.4024
X4.1558Y-1.0157
X4.1936Y-5.4457
X4.1952Y-1.0591
X4.7074Y-7.1583
X4.7074Y-7.2105
X4.7089Y-2.7717
X4.709Y-2.8239
X4.7576Y-7.2114
X4.7591Y-2.8248
X4.7596Y-7.1612
X4.7611Y-2.7746
X4.815Y-5.7992
X4.815Y-5.8514
X4.8165Y-1.4126
X4.8165Y-1.4648
X4.8652Y-5.8524
X4.8667Y-1.4657
X4.8671Y-5.8022
X4.8687Y-1.4156
X4.9173Y-5.8524
X4.9189Y-1.4657
X4.9203Y-5.8012
X4.9218Y-1.4146
X4.9702Y-6.5313
X4.9702Y-6.5835
X4.9717Y-2.1447
X4.9718Y-2.1969
X5.0204Y-6.5844
X5.0219Y-2.1978
X5.0224Y-6.5343
X5.0239Y-2.1476
X5.0726Y-6.5844
X5.0741Y-2.1978
X5.0755Y-6.5333
X5.077Y-2.1467
X5.2763Y-7.1435
X5.2763Y-7.1957
X5.2778Y-2.7569
X5.2779Y-2.8091
X5.3265Y-7.1967
X5.328Y-2.81
X5.3285Y-7.1465
X5.33Y-2.7598
X5.4426Y-5.5864
X5.4427Y-5.6386
X5.4442Y-1.1998
X5.4442Y-1.252
X5.4928Y-5.6396
X5.4944Y-1.253
X5.4948Y-5.5894
X5.4963Y-1.2028
X5.545Y-5.6396
X5.5465Y-1.253
X5.548Y-5.5884
X5.5495Y-1.2018
X5.7379Y-5.3453
X5.7379Y-5.3974
X5.7389Y-5.2951
X5.7394Y-0.9587
X5.7394Y-1.0108
X5.7404Y-0.9085
X5.7881Y-5.3472
X5.7891Y-5.4004
X5.7896Y-0.9606
X5.7906Y-1.0138
X5.7911Y-5.2951
X5.7926Y-0.9085
X6.1602Y-4.9614
X6.1602Y-5.0136
X6.1611Y-6.4526
X6.1612Y-6.5048
X6.1617Y-0.5748
X6.1617Y-0.627
X6.1627Y-2.0659
X6.1627Y-2.1181
X6.2104Y-5.0146
X6.2113Y-6.5057
X6.2119Y-0.628
X6.2123Y-4.9644
X6.2129Y-2.1191
X6.2133Y-6.4555
X6.2139Y-0.5778
X6.2148Y-2.0689
X6.2231Y-3.4919
X6.2232Y-3.5441
X6.2247Y0.8947
X6.2247Y0.8425
X6.2625Y-5.0146
X6.2635Y-6.5057
X6.2641Y-0.628
X6.265Y-2.1191
X6.2655Y-4.9634
X6.2665Y-6.4545
X6.267Y-0.5768
X6.268Y-2.0679
X6.2733Y-3.5451
X6.2749Y0.8415
X6.2753Y-3.4949
X6.2769Y0.8917
X6.3255Y-3.5451
X6.327Y0.8415
X6.3285Y-3.4939
X6.33Y0.8927
T0
M30
