%TF.GenerationSoftware,KiCad,Pcbnew,6.0.11-2627ca5db0~126~ubuntu20.04.1*%
%TF.CreationDate,2023-05-10T15:40:20+05:30*%
%TF.ProjectId,MVCU_F407,4d564355-5f46-4343-9037-2e6b69636164,rev?*%
%TF.SameCoordinates,Original*%
%TF.FileFunction,Paste,Top*%
%TF.FilePolarity,Positive*%
%FSLAX46Y46*%
G04 Gerber Fmt 4.6, Leading zero omitted, Abs format (unit mm)*
G04 Created by KiCad (PCBNEW 6.0.11-2627ca5db0~126~ubuntu20.04.1) date 2023-05-10 15:40:20*
%MOMM*%
%LPD*%
G01*
G04 APERTURE LIST*
G04 Aperture macros list*
%AMRoundRect*
0 Rectangle with rounded corners*
0 $1 Rounding radius*
0 $2 $3 $4 $5 $6 $7 $8 $9 X,Y pos of 4 corners*
0 Add a 4 corners polygon primitive as box body*
4,1,4,$2,$3,$4,$5,$6,$7,$8,$9,$2,$3,0*
0 Add four circle primitives for the rounded corners*
1,1,$1+$1,$2,$3*
1,1,$1+$1,$4,$5*
1,1,$1+$1,$6,$7*
1,1,$1+$1,$8,$9*
0 Add four rect primitives between the rounded corners*
20,1,$1+$1,$2,$3,$4,$5,0*
20,1,$1+$1,$4,$5,$6,$7,0*
20,1,$1+$1,$6,$7,$8,$9,0*
20,1,$1+$1,$8,$9,$2,$3,0*%
%AMRotRect*
0 Rectangle, with rotation*
0 The origin of the aperture is its center*
0 $1 length*
0 $2 width*
0 $3 Rotation angle, in degrees counterclockwise*
0 Add horizontal line*
21,1,$1,$2,0,0,$3*%
%AMOutline5P*
0 Free polygon, 5 corners , with rotation*
0 The origin of the aperture is its center*
0 number of corners: always 5*
0 $1 to $10 corner X, Y*
0 $11 Rotation angle, in degrees counterclockwise*
0 create outline with 5 corners*
4,1,5,$1,$2,$3,$4,$5,$6,$7,$8,$9,$10,$1,$2,$11*%
%AMOutline6P*
0 Free polygon, 6 corners , with rotation*
0 The origin of the aperture is its center*
0 number of corners: always 6*
0 $1 to $12 corner X, Y*
0 $13 Rotation angle, in degrees counterclockwise*
0 create outline with 6 corners*
4,1,6,$1,$2,$3,$4,$5,$6,$7,$8,$9,$10,$11,$12,$1,$2,$13*%
%AMOutline7P*
0 Free polygon, 7 corners , with rotation*
0 The origin of the aperture is its center*
0 number of corners: always 7*
0 $1 to $14 corner X, Y*
0 $15 Rotation angle, in degrees counterclockwise*
0 create outline with 7 corners*
4,1,7,$1,$2,$3,$4,$5,$6,$7,$8,$9,$10,$11,$12,$13,$14,$1,$2,$15*%
%AMOutline8P*
0 Free polygon, 8 corners , with rotation*
0 The origin of the aperture is its center*
0 number of corners: always 8*
0 $1 to $16 corner X, Y*
0 $17 Rotation angle, in degrees counterclockwise*
0 create outline with 8 corners*
4,1,8,$1,$2,$3,$4,$5,$6,$7,$8,$9,$10,$11,$12,$13,$14,$15,$16,$1,$2,$17*%
G04 Aperture macros list end*
%ADD10RoundRect,0.250000X-0.450000X0.325000X-0.450000X-0.325000X0.450000X-0.325000X0.450000X0.325000X0*%
%ADD11RoundRect,0.250000X-0.450000X0.350000X-0.450000X-0.350000X0.450000X-0.350000X0.450000X0.350000X0*%
%ADD12RoundRect,0.250000X0.325000X0.450000X-0.325000X0.450000X-0.325000X-0.450000X0.325000X-0.450000X0*%
%ADD13RoundRect,0.250000X-0.070711X0.565685X-0.565685X0.070711X0.070711X-0.565685X0.565685X-0.070711X0*%
%ADD14R,1.600000X1.600000*%
%ADD15RoundRect,0.250000X-0.337500X-0.475000X0.337500X-0.475000X0.337500X0.475000X-0.337500X0.475000X0*%
%ADD16RoundRect,0.250000X-0.350000X-0.450000X0.350000X-0.450000X0.350000X0.450000X-0.350000X0.450000X0*%
%ADD17RoundRect,0.250000X0.574524X0.097227X0.097227X0.574524X-0.574524X-0.097227X-0.097227X-0.574524X0*%
%ADD18RoundRect,0.250000X-0.325000X-0.450000X0.325000X-0.450000X0.325000X0.450000X-0.325000X0.450000X0*%
%ADD19RoundRect,0.250000X0.097227X-0.574524X0.574524X-0.097227X-0.097227X0.574524X-0.574524X0.097227X0*%
%ADD20RoundRect,0.250000X0.350000X0.450000X-0.350000X0.450000X-0.350000X-0.450000X0.350000X-0.450000X0*%
%ADD21RoundRect,0.250000X-0.097227X0.574524X-0.574524X0.097227X0.097227X-0.574524X0.574524X-0.097227X0*%
%ADD22R,2.000000X1.500000*%
%ADD23R,2.000000X3.800000*%
%ADD24RoundRect,0.250000X0.337500X0.475000X-0.337500X0.475000X-0.337500X-0.475000X0.337500X-0.475000X0*%
%ADD25RoundRect,0.250000X0.475000X-0.337500X0.475000X0.337500X-0.475000X0.337500X-0.475000X-0.337500X0*%
%ADD26R,0.700000X1.200000*%
%ADD27R,1.000000X0.800000*%
%ADD28R,1.300000X1.900000*%
%ADD29R,1.000000X1.200000*%
%ADD30R,1.000000X2.800000*%
%ADD31RoundRect,0.250000X-0.574524X-0.097227X-0.097227X-0.574524X0.574524X0.097227X0.097227X0.574524X0*%
%ADD32RoundRect,0.250000X0.565685X0.070711X0.070711X0.565685X-0.565685X-0.070711X-0.070711X-0.565685X0*%
%ADD33RoundRect,0.075000X-0.565685X0.459619X0.459619X-0.565685X0.565685X-0.459619X-0.459619X0.565685X0*%
%ADD34RoundRect,0.075000X-0.565685X-0.459619X-0.459619X-0.565685X0.565685X0.459619X0.459619X0.565685X0*%
%ADD35Outline5P,-0.500000X0.450000X0.230000X0.450000X0.500000X0.180000X0.500000X-0.450000X-0.500000X-0.450000X225.000000*%
%ADD36RotRect,1.000000X0.900000X225.000000*%
%ADD37RoundRect,0.250000X0.450000X-0.350000X0.450000X0.350000X-0.450000X0.350000X-0.450000X-0.350000X0*%
%ADD38RoundRect,0.150000X-0.825000X-0.150000X0.825000X-0.150000X0.825000X0.150000X-0.825000X0.150000X0*%
%ADD39RoundRect,0.150000X0.825000X0.150000X-0.825000X0.150000X-0.825000X-0.150000X0.825000X-0.150000X0*%
G04 APERTURE END LIST*
D10*
%TO.C,D5*%
X100168000Y-107570000D03*
X100168000Y-109620000D03*
%TD*%
D11*
%TO.C,R17*%
X88168000Y-112095000D03*
X88168000Y-114095000D03*
%TD*%
D12*
%TO.C,D11*%
X68318000Y-123045000D03*
X66268000Y-123045000D03*
%TD*%
D13*
%TO.C,R1*%
X111401107Y-127652893D03*
X109986893Y-129067107D03*
%TD*%
D14*
%TO.C,U14*%
X67854107Y-49757893D03*
X65314107Y-49757893D03*
X62774107Y-49757893D03*
X60234107Y-49757893D03*
X57694107Y-49757893D03*
X55154107Y-49757893D03*
X52614107Y-49757893D03*
X50074107Y-49757893D03*
X50074107Y-57377893D03*
X52614107Y-57377893D03*
X55154107Y-57377893D03*
X57694107Y-57377893D03*
X60234107Y-57377893D03*
X62774107Y-57377893D03*
X65314107Y-57377893D03*
X67854107Y-57377893D03*
%TD*%
D15*
%TO.C,C46*%
X63467500Y-44753000D03*
X65542500Y-44753000D03*
%TD*%
D16*
%TO.C,R44*%
X66332000Y-8825000D03*
X68332000Y-8825000D03*
%TD*%
D17*
%TO.C,C13*%
X97494139Y-126253353D03*
X96026893Y-124786107D03*
%TD*%
D18*
%TO.C,D26*%
X60907000Y-11675000D03*
X62957000Y-11675000D03*
%TD*%
D16*
%TO.C,R5*%
X145564000Y-96814000D03*
X147564000Y-96814000D03*
%TD*%
D19*
%TO.C,C37*%
X99187160Y-40575000D03*
X100654406Y-39107754D03*
%TD*%
D20*
%TO.C,R29*%
X132703000Y16806000D03*
X130703000Y16806000D03*
%TD*%
D10*
%TO.C,D2*%
X109168000Y-107570000D03*
X109168000Y-109620000D03*
%TD*%
D15*
%TO.C,C49*%
X58006500Y-44675000D03*
X60081500Y-44675000D03*
%TD*%
D20*
%TO.C,R46*%
X63032000Y-8775000D03*
X61032000Y-8775000D03*
%TD*%
D11*
%TO.C,R12*%
X103168000Y-112095000D03*
X103168000Y-114095000D03*
%TD*%
D21*
%TO.C,C41*%
X91068623Y-31792377D03*
X89601377Y-33259623D03*
%TD*%
D16*
%TO.C,R19*%
X66293000Y-120245000D03*
X68293000Y-120245000D03*
%TD*%
D15*
%TO.C,C58*%
X48169500Y-44575000D03*
X50244500Y-44575000D03*
%TD*%
D20*
%TO.C,R48*%
X79549786Y-19000714D03*
X77549786Y-19000714D03*
%TD*%
D18*
%TO.C,D13*%
X77402000Y-139880500D03*
X79452000Y-139880500D03*
%TD*%
D21*
%TO.C,C6*%
X102139406Y-152051754D03*
X100672160Y-153519000D03*
%TD*%
D20*
%TO.C,R22*%
X79427000Y-136880500D03*
X77427000Y-136880500D03*
%TD*%
D22*
%TO.C,U15*%
X72607000Y3025000D03*
X72607000Y725000D03*
D23*
X78907000Y725000D03*
D22*
X72607000Y-1575000D03*
%TD*%
D10*
%TO.C,D22*%
X91207000Y3850000D03*
X91207000Y1800000D03*
%TD*%
D11*
%TO.C,R11*%
X106168000Y-112095000D03*
X106168000Y-114095000D03*
%TD*%
D20*
%TO.C,R50*%
X94257000Y-52875000D03*
X92257000Y-52875000D03*
%TD*%
D24*
%TO.C,C26*%
X69405500Y-98845000D03*
X67330500Y-98845000D03*
%TD*%
D10*
%TO.C,D20*%
X97207000Y3850000D03*
X97207000Y1800000D03*
%TD*%
D11*
%TO.C,R18*%
X85168000Y-112095000D03*
X85168000Y-114095000D03*
%TD*%
D15*
%TO.C,C19*%
X57967500Y-156095000D03*
X60042500Y-156095000D03*
%TD*%
D24*
%TO.C,C23*%
X69405500Y-104045000D03*
X67330500Y-104045000D03*
%TD*%
D15*
%TO.C,C25*%
X137594500Y-156294500D03*
X139669500Y-156294500D03*
%TD*%
D10*
%TO.C,D3*%
X106168000Y-107570000D03*
X106168000Y-109620000D03*
%TD*%
D24*
%TO.C,C48*%
X67201607Y-60867893D03*
X65126607Y-60867893D03*
%TD*%
D20*
%TO.C,R27*%
X132803000Y24406000D03*
X130803000Y24406000D03*
%TD*%
D17*
%TO.C,C10*%
X117054730Y-143436516D03*
X115587484Y-141969270D03*
%TD*%
D18*
%TO.C,D27*%
X77441000Y-28460500D03*
X79491000Y-28460500D03*
%TD*%
D10*
%TO.C,D23*%
X88207000Y3850000D03*
X88207000Y1800000D03*
%TD*%
D17*
%TO.C,C2*%
X99362623Y-124394623D03*
X97895377Y-122927377D03*
%TD*%
D10*
%TO.C,D21*%
X94207000Y3850000D03*
X94207000Y1800000D03*
%TD*%
D20*
%TO.C,R4*%
X132664000Y-94614000D03*
X130664000Y-94614000D03*
%TD*%
%TO.C,R2*%
X132764000Y-87014000D03*
X130764000Y-87014000D03*
%TD*%
D11*
%TO.C,R33*%
X124576000Y-28132000D03*
X124576000Y-30132000D03*
%TD*%
D10*
%TO.C,D6*%
X97168000Y-107570000D03*
X97168000Y-109620000D03*
%TD*%
D24*
%TO.C,C17*%
X69305500Y-113245000D03*
X67230500Y-113245000D03*
%TD*%
D22*
%TO.C,U6*%
X72518000Y-99145000D03*
X72518000Y-101445000D03*
D23*
X78818000Y-101445000D03*
D22*
X72518000Y-103745000D03*
%TD*%
D19*
%TO.C,C34*%
X107205377Y-15006623D03*
X108672623Y-13539377D03*
%TD*%
D12*
%TO.C,D25*%
X68357000Y-11625000D03*
X66307000Y-11625000D03*
%TD*%
D11*
%TO.C,R7*%
X121870000Y-139552000D03*
X121870000Y-141552000D03*
%TD*%
%TO.C,R13*%
X100168000Y-112095000D03*
X100168000Y-114095000D03*
%TD*%
D10*
%TO.C,D15*%
X112207000Y3850000D03*
X112207000Y1800000D03*
%TD*%
D25*
%TO.C,C59*%
X105757000Y-57212500D03*
X105757000Y-55137500D03*
%TD*%
D20*
%TO.C,R47*%
X79466000Y-25460500D03*
X77466000Y-25460500D03*
%TD*%
D21*
%TO.C,C44*%
X89290623Y-30141377D03*
X87823377Y-31608623D03*
%TD*%
D17*
%TO.C,C43*%
X97533139Y-14833353D03*
X96065893Y-13366107D03*
%TD*%
D14*
%TO.C,U3*%
X67815107Y-161177893D03*
X65275107Y-161177893D03*
X62735107Y-161177893D03*
X60195107Y-161177893D03*
X57655107Y-161177893D03*
X55115107Y-161177893D03*
X52575107Y-161177893D03*
X50035107Y-161177893D03*
X50035107Y-168797893D03*
X52575107Y-168797893D03*
X55115107Y-168797893D03*
X57655107Y-168797893D03*
X60195107Y-168797893D03*
X62735107Y-168797893D03*
X65275107Y-168797893D03*
X67815107Y-168797893D03*
%TD*%
D24*
%TO.C,C56*%
X69444500Y12575000D03*
X67369500Y12575000D03*
%TD*%
D10*
%TO.C,D18*%
X103207000Y3850000D03*
X103207000Y1800000D03*
%TD*%
D26*
%TO.C,J3*%
X117819000Y-100404000D03*
X118919000Y-100404000D03*
X120019000Y-100404000D03*
X121119000Y-100404000D03*
X122219000Y-100404000D03*
X123319000Y-100404000D03*
X124419000Y-100404000D03*
X125519000Y-100404000D03*
X126469000Y-100404000D03*
D27*
X127419000Y-89904000D03*
D28*
X113919000Y-85304000D03*
D29*
X116269000Y-100404000D03*
X127419000Y-96104000D03*
D30*
X127419000Y-85754000D03*
%TD*%
D19*
%TO.C,C7*%
X99148160Y-151995000D03*
X100615406Y-150527754D03*
%TD*%
D24*
%TO.C,C53*%
X69444500Y7375000D03*
X67369500Y7375000D03*
%TD*%
%TO.C,C18*%
X67162607Y-172287893D03*
X65087607Y-172287893D03*
%TD*%
D13*
%TO.C,R26*%
X111440107Y-16232893D03*
X110025893Y-17647107D03*
%TD*%
D15*
%TO.C,C22*%
X53141500Y-156046000D03*
X55216500Y-156046000D03*
%TD*%
D11*
%TO.C,R16*%
X91168000Y-112095000D03*
X91168000Y-114095000D03*
%TD*%
D10*
%TO.C,D9*%
X88168000Y-107570000D03*
X88168000Y-109620000D03*
%TD*%
D22*
%TO.C,U17*%
X72557000Y12275000D03*
X72557000Y9975000D03*
D23*
X78857000Y9975000D03*
D22*
X72557000Y7675000D03*
%TD*%
D15*
%TO.C,C16*%
X63428500Y-156173000D03*
X65503500Y-156173000D03*
%TD*%
D31*
%TO.C,C35*%
X117150484Y-28898270D03*
X118617730Y-30365516D03*
%TD*%
D25*
%TO.C,C3*%
X82754000Y-123047500D03*
X82754000Y-120972500D03*
%TD*%
D22*
%TO.C,U4*%
X72568000Y-108395000D03*
X72568000Y-110695000D03*
D23*
X78868000Y-110695000D03*
D22*
X72568000Y-112995000D03*
%TD*%
D10*
%TO.C,D4*%
X103168000Y-107570000D03*
X103168000Y-109620000D03*
%TD*%
D15*
%TO.C,C52*%
X53180500Y-44626000D03*
X55255500Y-44626000D03*
%TD*%
D17*
%TO.C,C45*%
X89433516Y-22989730D03*
X87966270Y-21522484D03*
%TD*%
D32*
%TO.C,R28*%
X93660107Y-18663107D03*
X92245893Y-17248893D03*
%TD*%
D33*
%TO.C,U13*%
X102279703Y-17398208D03*
X101926150Y-17751761D03*
X101572596Y-18105315D03*
X101219043Y-18458868D03*
X100865490Y-18812421D03*
X100511936Y-19165975D03*
X100158383Y-19519528D03*
X99804829Y-19873082D03*
X99451276Y-20226635D03*
X99097723Y-20580188D03*
X98744169Y-20933742D03*
X98390616Y-21287295D03*
X98037062Y-21640848D03*
X97683509Y-21994402D03*
X97329956Y-22347955D03*
X96976402Y-22701509D03*
X96622849Y-23055062D03*
X96269296Y-23408615D03*
X95915742Y-23762169D03*
X95562189Y-24115722D03*
X95208635Y-24469276D03*
X94855082Y-24822829D03*
X94501529Y-25176382D03*
X94147975Y-25529936D03*
X93794422Y-25883489D03*
D34*
X93794422Y-28252297D03*
X94147975Y-28605850D03*
X94501529Y-28959404D03*
X94855082Y-29312957D03*
X95208635Y-29666510D03*
X95562189Y-30020064D03*
X95915742Y-30373617D03*
X96269296Y-30727171D03*
X96622849Y-31080724D03*
X96976402Y-31434277D03*
X97329956Y-31787831D03*
X97683509Y-32141384D03*
X98037062Y-32494938D03*
X98390616Y-32848491D03*
X98744169Y-33202044D03*
X99097723Y-33555598D03*
X99451276Y-33909151D03*
X99804829Y-34262704D03*
X100158383Y-34616258D03*
X100511936Y-34969811D03*
X100865490Y-35323365D03*
X101219043Y-35676918D03*
X101572596Y-36030471D03*
X101926150Y-36384025D03*
X102279703Y-36737578D03*
D33*
X104648511Y-36737578D03*
X105002064Y-36384025D03*
X105355618Y-36030471D03*
X105709171Y-35676918D03*
X106062724Y-35323365D03*
X106416278Y-34969811D03*
X106769831Y-34616258D03*
X107123385Y-34262704D03*
X107476938Y-33909151D03*
X107830491Y-33555598D03*
X108184045Y-33202044D03*
X108537598Y-32848491D03*
X108891152Y-32494938D03*
X109244705Y-32141384D03*
X109598258Y-31787831D03*
X109951812Y-31434277D03*
X110305365Y-31080724D03*
X110658918Y-30727171D03*
X111012472Y-30373617D03*
X111366025Y-30020064D03*
X111719579Y-29666510D03*
X112073132Y-29312957D03*
X112426685Y-28959404D03*
X112780239Y-28605850D03*
X113133792Y-28252297D03*
D34*
X113133792Y-25883489D03*
X112780239Y-25529936D03*
X112426685Y-25176382D03*
X112073132Y-24822829D03*
X111719579Y-24469276D03*
X111366025Y-24115722D03*
X111012472Y-23762169D03*
X110658918Y-23408615D03*
X110305365Y-23055062D03*
X109951812Y-22701509D03*
X109598258Y-22347955D03*
X109244705Y-21994402D03*
X108891152Y-21640848D03*
X108537598Y-21287295D03*
X108184045Y-20933742D03*
X107830491Y-20580188D03*
X107476938Y-20226635D03*
X107123385Y-19873082D03*
X106769831Y-19519528D03*
X106416278Y-19165975D03*
X106062724Y-18812421D03*
X105709171Y-18458868D03*
X105355618Y-18105315D03*
X105002064Y-17751761D03*
X104648511Y-17398208D03*
%TD*%
D31*
%TO.C,C8*%
X86184377Y-125661377D03*
X87651623Y-127128623D03*
%TD*%
D17*
%TO.C,C1*%
X95552623Y-128077623D03*
X94085377Y-126610377D03*
%TD*%
D21*
%TO.C,C14*%
X89251623Y-141561377D03*
X87784377Y-143028623D03*
%TD*%
D35*
%TO.C,Y2*%
X89445388Y-11355996D03*
D36*
X88172596Y-12628788D03*
X89268612Y-13724803D03*
X90541404Y-12444940D03*
%TD*%
D37*
%TO.C,R49*%
X94257000Y-57275000D03*
X94257000Y-55275000D03*
%TD*%
D11*
%TO.C,R20*%
X142825000Y-159618000D03*
X142825000Y-161618000D03*
%TD*%
D25*
%TO.C,C21*%
X71705000Y-169508000D03*
X71705000Y-167433000D03*
%TD*%
D21*
%TO.C,C11*%
X91029623Y-143212377D03*
X89562377Y-144679623D03*
%TD*%
D16*
%TO.C,R31*%
X145653000Y17506000D03*
X147653000Y17506000D03*
%TD*%
D10*
%TO.C,D1*%
X112168000Y-107570000D03*
X112168000Y-109620000D03*
%TD*%
D17*
%TO.C,C40*%
X117093730Y-32016516D03*
X115626484Y-30549270D03*
%TD*%
D15*
%TO.C,C28*%
X48130500Y-155995000D03*
X50205500Y-155995000D03*
%TD*%
D11*
%TO.C,R38*%
X100207000Y-675000D03*
X100207000Y-2675000D03*
%TD*%
D31*
%TO.C,C5*%
X117111484Y-140318270D03*
X118578730Y-141785516D03*
%TD*%
%TO.C,C38*%
X86223377Y-14241377D03*
X87690623Y-15708623D03*
%TD*%
D20*
%TO.C,R25*%
X94218000Y-164295000D03*
X92218000Y-164295000D03*
%TD*%
D17*
%TO.C,C39*%
X91437139Y-21056353D03*
X89969893Y-19589107D03*
%TD*%
D18*
%TO.C,D12*%
X60868000Y-123095000D03*
X62918000Y-123095000D03*
%TD*%
D11*
%TO.C,R40*%
X94207000Y-675000D03*
X94207000Y-2675000D03*
%TD*%
D38*
%TO.C,U16*%
X134420000Y-47293000D03*
X134420000Y-48563000D03*
X134420000Y-49833000D03*
X134420000Y-51103000D03*
X139370000Y-51103000D03*
X139370000Y-49833000D03*
X139370000Y-48563000D03*
X139370000Y-47293000D03*
%TD*%
D24*
%TO.C,C20*%
X69305500Y-108095000D03*
X67230500Y-108095000D03*
%TD*%
D10*
%TO.C,D16*%
X109207000Y3850000D03*
X109207000Y1800000D03*
%TD*%
D32*
%TO.C,R3*%
X93621107Y-130083107D03*
X92206893Y-128668893D03*
%TD*%
D11*
%TO.C,R9*%
X112168000Y-112095000D03*
X112168000Y-114095000D03*
%TD*%
D15*
%TO.C,C55*%
X137633500Y-44874500D03*
X139708500Y-44874500D03*
%TD*%
D11*
%TO.C,R14*%
X97168000Y-112095000D03*
X97168000Y-114095000D03*
%TD*%
%TO.C,R37*%
X103207000Y-675000D03*
X103207000Y-2675000D03*
%TD*%
D17*
%TO.C,C31*%
X95591623Y-16657623D03*
X94124377Y-15190377D03*
%TD*%
D10*
%TO.C,D10*%
X85168000Y-107570000D03*
X85168000Y-109620000D03*
%TD*%
D11*
%TO.C,R8*%
X124537000Y-139552000D03*
X124537000Y-141552000D03*
%TD*%
D35*
%TO.C,Y1*%
X89406388Y-122775996D03*
D36*
X88133596Y-124048788D03*
X89229612Y-125144803D03*
X90502404Y-123864940D03*
%TD*%
D10*
%TO.C,D17*%
X106207000Y3850000D03*
X106207000Y1800000D03*
%TD*%
D24*
%TO.C,C60*%
X99394500Y-50875000D03*
X97319500Y-50875000D03*
%TD*%
D11*
%TO.C,R41*%
X91207000Y-675000D03*
X91207000Y-2675000D03*
%TD*%
D18*
%TO.C,D14*%
X77485786Y-133820714D03*
X79535786Y-133820714D03*
%TD*%
D19*
%TO.C,C42*%
X105473754Y-13200246D03*
X106941000Y-11733000D03*
%TD*%
D33*
%TO.C,U2*%
X102240703Y-128818208D03*
X101887150Y-129171761D03*
X101533596Y-129525315D03*
X101180043Y-129878868D03*
X100826490Y-130232421D03*
X100472936Y-130585975D03*
X100119383Y-130939528D03*
X99765829Y-131293082D03*
X99412276Y-131646635D03*
X99058723Y-132000188D03*
X98705169Y-132353742D03*
X98351616Y-132707295D03*
X97998062Y-133060848D03*
X97644509Y-133414402D03*
X97290956Y-133767955D03*
X96937402Y-134121509D03*
X96583849Y-134475062D03*
X96230296Y-134828615D03*
X95876742Y-135182169D03*
X95523189Y-135535722D03*
X95169635Y-135889276D03*
X94816082Y-136242829D03*
X94462529Y-136596382D03*
X94108975Y-136949936D03*
X93755422Y-137303489D03*
D34*
X93755422Y-139672297D03*
X94108975Y-140025850D03*
X94462529Y-140379404D03*
X94816082Y-140732957D03*
X95169635Y-141086510D03*
X95523189Y-141440064D03*
X95876742Y-141793617D03*
X96230296Y-142147171D03*
X96583849Y-142500724D03*
X96937402Y-142854277D03*
X97290956Y-143207831D03*
X97644509Y-143561384D03*
X97998062Y-143914938D03*
X98351616Y-144268491D03*
X98705169Y-144622044D03*
X99058723Y-144975598D03*
X99412276Y-145329151D03*
X99765829Y-145682704D03*
X100119383Y-146036258D03*
X100472936Y-146389811D03*
X100826490Y-146743365D03*
X101180043Y-147096918D03*
X101533596Y-147450471D03*
X101887150Y-147804025D03*
X102240703Y-148157578D03*
D33*
X104609511Y-148157578D03*
X104963064Y-147804025D03*
X105316618Y-147450471D03*
X105670171Y-147096918D03*
X106023724Y-146743365D03*
X106377278Y-146389811D03*
X106730831Y-146036258D03*
X107084385Y-145682704D03*
X107437938Y-145329151D03*
X107791491Y-144975598D03*
X108145045Y-144622044D03*
X108498598Y-144268491D03*
X108852152Y-143914938D03*
X109205705Y-143561384D03*
X109559258Y-143207831D03*
X109912812Y-142854277D03*
X110266365Y-142500724D03*
X110619918Y-142147171D03*
X110973472Y-141793617D03*
X111327025Y-141440064D03*
X111680579Y-141086510D03*
X112034132Y-140732957D03*
X112387685Y-140379404D03*
X112741239Y-140025850D03*
X113094792Y-139672297D03*
D34*
X113094792Y-137303489D03*
X112741239Y-136949936D03*
X112387685Y-136596382D03*
X112034132Y-136242829D03*
X111680579Y-135889276D03*
X111327025Y-135535722D03*
X110973472Y-135182169D03*
X110619918Y-134828615D03*
X110266365Y-134475062D03*
X109912812Y-134121509D03*
X109559258Y-133767955D03*
X109205705Y-133414402D03*
X108852152Y-133060848D03*
X108498598Y-132707295D03*
X108145045Y-132353742D03*
X107791491Y-132000188D03*
X107437938Y-131646635D03*
X107084385Y-131293082D03*
X106730831Y-130939528D03*
X106377278Y-130585975D03*
X106023724Y-130232421D03*
X105670171Y-129878868D03*
X105316618Y-129525315D03*
X104963064Y-129171761D03*
X104609511Y-128818208D03*
%TD*%
D17*
%TO.C,C15*%
X89394516Y-134409730D03*
X87927270Y-132942484D03*
%TD*%
D11*
%TO.C,R42*%
X88207000Y-675000D03*
X88207000Y-2675000D03*
%TD*%
D24*
%TO.C,C50*%
X69344500Y3325000D03*
X67269500Y3325000D03*
%TD*%
D39*
%TO.C,U22*%
X102532000Y-57280000D03*
X102532000Y-56010000D03*
X102532000Y-54740000D03*
X102532000Y-53470000D03*
X97582000Y-53470000D03*
X97582000Y-54740000D03*
X97582000Y-56010000D03*
X97582000Y-57280000D03*
%TD*%
D11*
%TO.C,R39*%
X97207000Y-675000D03*
X97207000Y-2675000D03*
%TD*%
D10*
%TO.C,D19*%
X100207000Y3850000D03*
X100207000Y1800000D03*
%TD*%
D11*
%TO.C,R15*%
X94168000Y-112095000D03*
X94168000Y-114095000D03*
%TD*%
D16*
%TO.C,R30*%
X145603000Y14606000D03*
X147603000Y14606000D03*
%TD*%
D20*
%TO.C,R21*%
X62993000Y-120195000D03*
X60993000Y-120195000D03*
%TD*%
D17*
%TO.C,C9*%
X91398139Y-132476353D03*
X89930893Y-131009107D03*
%TD*%
D11*
%TO.C,R10*%
X109168000Y-112095000D03*
X109168000Y-114095000D03*
%TD*%
D38*
%TO.C,U5*%
X134381000Y-158713000D03*
X134381000Y-159983000D03*
X134381000Y-161253000D03*
X134381000Y-162523000D03*
X139331000Y-162523000D03*
X139331000Y-161253000D03*
X139331000Y-159983000D03*
X139331000Y-158713000D03*
%TD*%
D11*
%TO.C,R34*%
X112207000Y-675000D03*
X112207000Y-2675000D03*
%TD*%
D39*
%TO.C,U11*%
X102493000Y-168700000D03*
X102493000Y-167430000D03*
X102493000Y-166160000D03*
X102493000Y-164890000D03*
X97543000Y-164890000D03*
X97543000Y-166160000D03*
X97543000Y-167430000D03*
X97543000Y-168700000D03*
%TD*%
D21*
%TO.C,C36*%
X102178406Y-40631754D03*
X100711160Y-42099000D03*
%TD*%
D10*
%TO.C,D24*%
X85207000Y3850000D03*
X85207000Y1800000D03*
%TD*%
D19*
%TO.C,C12*%
X105434754Y-124620246D03*
X106902000Y-123153000D03*
%TD*%
D11*
%TO.C,R43*%
X85207000Y-675000D03*
X85207000Y-2675000D03*
%TD*%
D16*
%TO.C,R6*%
X145614000Y-93914000D03*
X147614000Y-93914000D03*
%TD*%
D24*
%TO.C,C30*%
X99355500Y-162295000D03*
X97280500Y-162295000D03*
%TD*%
D11*
%TO.C,R32*%
X121909000Y-28132000D03*
X121909000Y-30132000D03*
%TD*%
D25*
%TO.C,C51*%
X71744000Y-58088000D03*
X71744000Y-56013000D03*
%TD*%
D20*
%TO.C,R23*%
X79510786Y-130420714D03*
X77510786Y-130420714D03*
%TD*%
D18*
%TO.C,D28*%
X77524786Y-22400714D03*
X79574786Y-22400714D03*
%TD*%
D37*
%TO.C,R24*%
X94218000Y-168695000D03*
X94218000Y-166695000D03*
%TD*%
D25*
%TO.C,C33*%
X82793000Y-11627500D03*
X82793000Y-9552500D03*
%TD*%
D17*
%TO.C,C32*%
X99401623Y-12974623D03*
X97934377Y-11507377D03*
%TD*%
D10*
%TO.C,D8*%
X91168000Y-107570000D03*
X91168000Y-109620000D03*
%TD*%
%TO.C,D7*%
X94168000Y-107570000D03*
X94168000Y-109620000D03*
%TD*%
D25*
%TO.C,C29*%
X105718000Y-168632500D03*
X105718000Y-166557500D03*
%TD*%
D26*
%TO.C,J25*%
X117858000Y11016000D03*
X118958000Y11016000D03*
X120058000Y11016000D03*
X121158000Y11016000D03*
X122258000Y11016000D03*
X123358000Y11016000D03*
X124458000Y11016000D03*
X125558000Y11016000D03*
X126508000Y11016000D03*
D27*
X127458000Y21516000D03*
D30*
X127458000Y25666000D03*
D29*
X116308000Y11016000D03*
D28*
X113958000Y26116000D03*
D29*
X127458000Y15316000D03*
%TD*%
D11*
%TO.C,R45*%
X142864000Y-48198000D03*
X142864000Y-50198000D03*
%TD*%
D19*
%TO.C,C4*%
X107166377Y-126426623D03*
X108633623Y-124959377D03*
%TD*%
D11*
%TO.C,R36*%
X106207000Y-675000D03*
X106207000Y-2675000D03*
%TD*%
%TO.C,R35*%
X109207000Y-675000D03*
X109207000Y-2675000D03*
%TD*%
D24*
%TO.C,C47*%
X69344500Y-1825000D03*
X67269500Y-1825000D03*
%TD*%
M02*
