%TF.GenerationSoftware,KiCad,Pcbnew,6.0.11-2627ca5db0~126~ubuntu20.04.1*%
%TF.CreationDate,2023-05-10T15:40:14+05:30*%
%TF.ProjectId,MVCU_F407,4d564355-5f46-4343-9037-2e6b69636164,rev?*%
%TF.SameCoordinates,Original*%
%TF.FileFunction,Drillmap*%
%TF.FilePolarity,Positive*%
%FSLAX45Y45*%
G04 Gerber Fmt 4.5, Leading zero omitted, Abs format (unit mm)*
G04 Created by KiCad (PCBNEW 6.0.11-2627ca5db0~126~ubuntu20.04.1) date 2023-05-10 15:40:14*
%MOMM*%
%LPD*%
G01*
G04 APERTURE LIST*
%ADD10C,0.050000*%
%ADD11C,0.120000*%
%ADD12C,0.200000*%
%ADD13C,0.040000*%
%ADD14C,0.076200*%
%ADD15C,0.079756*%
%ADD16C,0.080000*%
%ADD17C,0.100000*%
%ADD18C,0.110000*%
%ADD19C,0.140000*%
%ADD20C,0.160000*%
%ADD21C,0.320000*%
G04 APERTURE END LIST*
D10*
X16039000Y3119300D02*
X3974000Y3119300D01*
X16644700Y-8632300D02*
X16601800Y-18209500D01*
X14169300Y-7719500D02*
X10214300Y-7719500D01*
X14769300Y-7719500D02*
X15995700Y-7717500D01*
X5639300Y-8019500D02*
X9614300Y-8019500D01*
X9614300Y-7719500D02*
X5639300Y-7719500D01*
D11*
X14169300Y-8019500D02*
G75*
G03*
X14169300Y-7719500I0J150000D01*
G01*
D10*
X10214300Y-8019500D02*
X14169300Y-8019500D01*
D11*
X10214300Y-7719500D02*
G75*
G03*
X10214300Y-8019500I0J-150000D01*
G01*
D10*
X3970100Y-8022700D02*
G75*
G03*
X3360500Y-8632300I0J-609600D01*
G01*
X3365702Y-7067500D02*
G75*
G03*
X3965700Y-7707500I590368J-47780D01*
G01*
X15995700Y-7717499D02*
G75*
G03*
X16605700Y-7067500I-41310J649999D01*
G01*
X16648600Y2509700D02*
X16605700Y-7067500D01*
X3970100Y-8022700D02*
X5039300Y-8015500D01*
X3361802Y-18209500D02*
G75*
G03*
X3961800Y-18849500I590368J-47780D01*
G01*
X3361800Y-18209500D02*
X3360500Y-8632300D01*
D11*
X5639300Y-7719500D02*
G75*
G03*
X5639300Y-8019500I0J-150000D01*
G01*
D10*
X16644700Y-8632300D02*
G75*
G03*
X16035100Y-8022700I-609600J0D01*
G01*
X14769300Y-8019500D02*
X16035100Y-8022700D01*
X16648600Y2509700D02*
G75*
G03*
X16039000Y3119300I-609600J0D01*
G01*
X5039300Y-7719500D02*
X3965700Y-7707500D01*
X3974000Y3119300D02*
G75*
G03*
X3364400Y2509700I0J-609600D01*
G01*
X15991800Y-18859500D02*
X3961800Y-18849500D01*
D11*
X14769300Y-7719500D02*
G75*
G03*
X14769300Y-8019500I0J-150000D01*
G01*
D10*
X15991800Y-18859499D02*
G75*
G03*
X16601800Y-18209500I-41310J649999D01*
G01*
X3365700Y-7067500D02*
X3364400Y2509700D01*
D11*
X5039300Y-8015500D02*
G75*
G03*
X5039300Y-7719500I0J148000D01*
G01*
X9614300Y-8019500D02*
G75*
G03*
X9614300Y-7719500I0J150000D01*
G01*
D12*
D13*
X5004200Y-15800500D02*
X5044200Y-15840500D01*
X5044200Y-15800500D02*
X5004200Y-15840500D01*
X5008100Y-4658500D02*
X5048100Y-4698500D01*
X5048100Y-4658500D02*
X5008100Y-4698500D01*
X6071000Y-12142900D02*
X6111000Y-12182900D01*
X6111000Y-12142900D02*
X6071000Y-12182900D01*
X6074900Y-1000900D02*
X6114900Y-1040900D01*
X6114900Y-1000900D02*
X6074900Y-1040900D01*
X6083700Y-17197500D02*
X6123700Y-17237500D01*
X6123700Y-17197500D02*
X6083700Y-17237500D01*
X6087600Y-6055500D02*
X6127600Y-6095500D01*
X6127600Y-6055500D02*
X6087600Y-6095500D01*
X6286900Y-11596800D02*
X6326900Y-11636800D01*
X6326900Y-11596800D02*
X6286900Y-11636800D01*
X6290800Y-454800D02*
X6330800Y-494800D01*
X6330800Y-454800D02*
X6290800Y-494800D01*
X6388500Y-14581300D02*
X6428500Y-14621300D01*
X6428500Y-14581300D02*
X6388500Y-14621300D01*
X6392400Y-3439300D02*
X6432400Y-3479300D01*
X6432400Y-3439300D02*
X6392400Y-3479300D01*
X6464700Y-14340000D02*
X6504700Y-14380000D01*
X6504700Y-14340000D02*
X6464700Y-14380000D01*
X6468600Y-3198000D02*
X6508600Y-3238000D01*
X6508600Y-3198000D02*
X6468600Y-3238000D01*
X6490100Y-9285400D02*
X6530100Y-9325400D01*
X6530100Y-9285400D02*
X6490100Y-9325400D01*
X6494000Y1856600D02*
X6534000Y1816600D01*
X6534000Y1856600D02*
X6494000Y1816600D01*
X6515500Y-15825900D02*
X6555500Y-15865900D01*
X6555500Y-15825900D02*
X6515500Y-15865900D01*
X6519400Y-4683900D02*
X6559400Y-4723900D01*
X6559400Y-4683900D02*
X6519400Y-4723900D01*
X6540900Y-11380900D02*
X6580900Y-11420900D01*
X6580900Y-11380900D02*
X6540900Y-11420900D01*
X6544800Y-238900D02*
X6584800Y-278900D01*
X6584800Y-238900D02*
X6544800Y-278900D01*
X6566300Y-11774600D02*
X6606300Y-11814600D01*
X6606300Y-11774600D02*
X6566300Y-11814600D01*
X6570200Y-632600D02*
X6610200Y-672600D01*
X6610200Y-632600D02*
X6570200Y-672600D01*
X6858400Y-10136300D02*
X6898400Y-10176300D01*
X6898400Y-10136300D02*
X6858400Y-10176300D01*
X6862300Y1005700D02*
X6902300Y965700D01*
X6902300Y1005700D02*
X6862300Y965700D01*
X6896500Y-11596800D02*
X6936500Y-11636800D01*
X6936500Y-11596800D02*
X6896500Y-11636800D01*
X6900400Y-454800D02*
X6940400Y-494800D01*
X6940400Y-454800D02*
X6900400Y-494800D01*
X6909200Y-10530000D02*
X6949200Y-10570000D01*
X6949200Y-10530000D02*
X6909200Y-10570000D01*
X6913100Y612000D02*
X6953100Y572000D01*
X6953100Y612000D02*
X6913100Y572000D01*
X6972700Y-13082700D02*
X7012700Y-13122700D01*
X7012700Y-13082700D02*
X6972700Y-13122700D01*
X6976600Y-1940700D02*
X7016600Y-1980700D01*
X7016600Y-1940700D02*
X6976600Y-1980700D01*
X7239400Y-11482500D02*
X7279400Y-11522500D01*
X7279400Y-11482500D02*
X7239400Y-11522500D01*
X7243300Y-340500D02*
X7283300Y-380500D01*
X7283300Y-340500D02*
X7243300Y-380500D01*
X7315600Y-10593500D02*
X7355600Y-10633500D01*
X7355600Y-10593500D02*
X7315600Y-10633500D01*
X7319500Y548500D02*
X7359500Y508500D01*
X7359500Y548500D02*
X7319500Y508500D01*
X7328300Y-18264300D02*
X7368300Y-18304300D01*
X7368300Y-18264300D02*
X7328300Y-18304300D01*
X7332200Y-7122300D02*
X7372200Y-7162300D01*
X7372200Y-7122300D02*
X7332200Y-7162300D01*
X7468000Y-16714900D02*
X7508000Y-16754900D01*
X7508000Y-16714900D02*
X7468000Y-16754900D01*
X7471900Y-5572900D02*
X7511900Y-5612900D01*
X7511900Y-5572900D02*
X7471900Y-5612900D01*
X7531500Y-9679100D02*
X7571500Y-9719100D01*
X7571500Y-9679100D02*
X7531500Y-9719100D01*
X7535400Y1462900D02*
X7575400Y1422900D01*
X7575400Y1462900D02*
X7535400Y1422900D01*
X7568700Y-13363250D02*
X7608700Y-13403250D01*
X7608700Y-13363250D02*
X7568700Y-13403250D01*
X7568700Y-13972850D02*
X7608700Y-14012850D01*
X7608700Y-13972850D02*
X7568700Y-14012850D01*
X7572600Y-2221250D02*
X7612600Y-2261250D01*
X7612600Y-2221250D02*
X7572600Y-2261250D01*
X7572600Y-2830850D02*
X7612600Y-2870850D01*
X7612600Y-2830850D02*
X7572600Y-2870850D01*
X8255400Y-12816000D02*
X8295400Y-12856000D01*
X8295400Y-12816000D02*
X8255400Y-12856000D01*
X8259300Y-1674000D02*
X8299300Y-1714000D01*
X8299300Y-1674000D02*
X8259300Y-1714000D01*
X8268100Y-14251100D02*
X8308100Y-14291100D01*
X8308100Y-14251100D02*
X8268100Y-14291100D01*
X8272000Y-3109100D02*
X8312000Y-3149100D01*
X8312000Y-3109100D02*
X8272000Y-3149100D01*
X8481800Y-14499500D02*
X8521800Y-14539500D01*
X8521800Y-14499500D02*
X8481800Y-14539500D01*
X8485700Y-3357500D02*
X8525700Y-3397500D01*
X8525700Y-3357500D02*
X8485700Y-3397500D01*
X8499300Y-10569500D02*
X8539300Y-10609500D01*
X8539300Y-10569500D02*
X8499300Y-10609500D01*
X8503200Y572500D02*
X8543200Y532500D01*
X8543200Y572500D02*
X8503200Y532500D01*
X8507835Y-12199500D02*
X8547835Y-12239500D01*
X8547835Y-12199500D02*
X8507835Y-12239500D01*
X8511735Y-1057500D02*
X8551735Y-1097500D01*
X8551735Y-1057500D02*
X8511735Y-1097500D01*
X8547500Y-13247800D02*
X8587500Y-13287800D01*
X8587500Y-13247800D02*
X8547500Y-13287800D01*
X8551400Y-2105800D02*
X8591400Y-2145800D01*
X8591400Y-2105800D02*
X8551400Y-2145800D01*
X8560200Y-12904900D02*
X8600200Y-12944900D01*
X8600200Y-12904900D02*
X8560200Y-12944900D01*
X8564100Y-1762900D02*
X8604100Y-1802900D01*
X8604100Y-1762900D02*
X8564100Y-1802900D01*
X8721800Y-14489500D02*
X8761800Y-14529500D01*
X8761800Y-14489500D02*
X8721800Y-14529500D01*
X8725700Y-3347500D02*
X8765700Y-3387500D01*
X8765700Y-3347500D02*
X8725700Y-3387500D01*
X8801500Y-11546000D02*
X8841500Y-11586000D01*
X8841500Y-11546000D02*
X8801500Y-11586000D01*
X8805400Y-404000D02*
X8845400Y-444000D01*
X8845400Y-404000D02*
X8805400Y-444000D01*
X9093600Y-11533300D02*
X9133600Y-11573300D01*
X9133600Y-11533300D02*
X9093600Y-11573300D01*
X9094300Y-10554500D02*
X9134300Y-10594500D01*
X9134300Y-10554500D02*
X9094300Y-10594500D01*
X9097500Y-391300D02*
X9137500Y-431300D01*
X9137500Y-391300D02*
X9097500Y-431300D01*
X9098200Y587500D02*
X9138200Y547500D01*
X9138200Y587500D02*
X9098200Y547500D01*
X9111800Y-13979500D02*
X9151800Y-14019500D01*
X9151800Y-13979500D02*
X9111800Y-14019500D01*
X9115700Y-2837500D02*
X9155700Y-2877500D01*
X9155700Y-2837500D02*
X9115700Y-2877500D01*
X9116800Y-12539500D02*
X9156800Y-12579500D01*
X9156800Y-12539500D02*
X9116800Y-12579500D01*
X9120700Y-1397500D02*
X9160700Y-1437500D01*
X9160700Y-1397500D02*
X9120700Y-1437500D01*
X9231800Y-16239500D02*
X9271800Y-16279500D01*
X9271800Y-16239500D02*
X9231800Y-16279500D01*
X9235700Y-5097500D02*
X9275700Y-5137500D01*
X9275700Y-5097500D02*
X9235700Y-5137500D01*
X9251800Y-14201950D02*
X9291800Y-14241950D01*
X9291800Y-14201950D02*
X9251800Y-14241950D01*
X9255700Y-3059950D02*
X9295700Y-3099950D01*
X9295700Y-3059950D02*
X9255700Y-3099950D01*
X9261800Y-18379500D02*
X9301800Y-18419500D01*
X9301800Y-18379500D02*
X9261800Y-18419500D01*
X9265700Y-7237500D02*
X9305700Y-7277500D01*
X9305700Y-7237500D02*
X9265700Y-7277500D01*
X9371800Y-14839500D02*
X9411800Y-14879500D01*
X9411800Y-14839500D02*
X9371800Y-14879500D01*
X9375700Y-3697500D02*
X9415700Y-3737500D01*
X9415700Y-3697500D02*
X9375700Y-3737500D01*
X9391800Y-16229500D02*
X9431800Y-16269500D01*
X9431800Y-16229500D02*
X9391800Y-16269500D01*
X9395700Y-5087500D02*
X9435700Y-5127500D01*
X9435700Y-5087500D02*
X9395700Y-5127500D01*
X9411100Y-13349400D02*
X9451100Y-13389400D01*
X9451100Y-13349400D02*
X9411100Y-13389400D01*
X9415000Y-2207400D02*
X9455000Y-2247400D01*
X9455000Y-2207400D02*
X9415000Y-2247400D01*
X9526600Y-18264300D02*
X9566600Y-18304300D01*
X9566600Y-18264300D02*
X9526600Y-18304300D01*
X9530500Y-7122300D02*
X9570500Y-7162300D01*
X9570500Y-7122300D02*
X9530500Y-7162300D01*
X9538100Y-11965100D02*
X9578100Y-12005100D01*
X9578100Y-11965100D02*
X9538100Y-12005100D01*
X9542000Y-823100D02*
X9582000Y-863100D01*
X9582000Y-823100D02*
X9542000Y-863100D01*
X9614300Y-12930300D02*
X9654300Y-12970300D01*
X9654300Y-12930300D02*
X9614300Y-12970300D01*
X9618200Y-1788300D02*
X9658200Y-1828300D01*
X9658200Y-1788300D02*
X9618200Y-1828300D01*
X9636800Y-14792000D02*
X9676800Y-14832000D01*
X9676800Y-14792000D02*
X9636800Y-14832000D01*
X9640700Y-3650000D02*
X9680700Y-3690000D01*
X9680700Y-3650000D02*
X9640700Y-3690000D01*
X9651800Y-15369500D02*
X9691800Y-15409500D01*
X9691800Y-15369500D02*
X9651800Y-15409500D01*
X9652400Y-14568600D02*
X9692400Y-14608600D01*
X9692400Y-14568600D02*
X9652400Y-14608600D01*
X9655700Y-4227500D02*
X9695700Y-4267500D01*
X9695700Y-4227500D02*
X9655700Y-4267500D01*
X9656300Y-3426600D02*
X9696300Y-3466600D01*
X9696300Y-3426600D02*
X9656300Y-3466600D01*
X9677800Y-18404000D02*
X9717800Y-18444000D01*
X9717800Y-18404000D02*
X9677800Y-18444000D01*
X9681700Y-7262000D02*
X9721700Y-7302000D01*
X9721700Y-7262000D02*
X9681700Y-7302000D01*
X9694300Y-10574500D02*
X9734300Y-10614500D01*
X9734300Y-10574500D02*
X9694300Y-10614500D01*
X9698200Y567500D02*
X9738200Y527500D01*
X9738200Y567500D02*
X9698200Y527500D01*
X9803887Y-12956613D02*
X9843887Y-12996613D01*
X9843887Y-12956613D02*
X9803887Y-12996613D01*
X9807787Y-1814613D02*
X9847787Y-1854613D01*
X9847787Y-1814613D02*
X9807787Y-1854613D01*
X10198500Y-13451000D02*
X10238500Y-13491000D01*
X10238500Y-13451000D02*
X10198500Y-13491000D01*
X10202400Y-2309000D02*
X10242400Y-2349000D01*
X10242400Y-2309000D02*
X10202400Y-2349000D01*
X10262000Y-13324000D02*
X10302000Y-13364000D01*
X10302000Y-13324000D02*
X10262000Y-13364000D01*
X10265900Y-2182000D02*
X10305900Y-2222000D01*
X10305900Y-2182000D02*
X10265900Y-2222000D01*
X10294300Y-10577000D02*
X10334300Y-10617000D01*
X10334300Y-10577000D02*
X10294300Y-10617000D01*
X10298200Y565000D02*
X10338200Y525000D01*
X10338200Y565000D02*
X10298200Y525000D01*
X10363600Y-13095400D02*
X10403600Y-13135400D01*
X10403600Y-13095400D02*
X10363600Y-13135400D01*
X10367500Y-1953400D02*
X10407500Y-1993400D01*
X10407500Y-1953400D02*
X10367500Y-1993400D01*
X10471800Y-16389500D02*
X10511800Y-16429500D01*
X10511800Y-16389500D02*
X10471800Y-16429500D01*
X10475700Y-5247500D02*
X10515700Y-5287500D01*
X10515700Y-5247500D02*
X10475700Y-5287500D01*
X10477900Y-12155600D02*
X10517900Y-12195600D01*
X10517900Y-12155600D02*
X10477900Y-12195600D01*
X10481800Y-1013600D02*
X10521800Y-1053600D01*
X10521800Y-1013600D02*
X10481800Y-1053600D01*
X10624234Y-12784534D02*
X10664234Y-12824534D01*
X10664234Y-12784534D02*
X10624234Y-12824534D01*
X10628134Y-1642534D02*
X10668134Y-1682534D01*
X10668134Y-1642534D02*
X10628134Y-1682534D01*
X10731900Y-11660300D02*
X10771900Y-11700300D01*
X10771900Y-11660300D02*
X10731900Y-11700300D01*
X10735800Y-518300D02*
X10775800Y-558300D01*
X10775800Y-518300D02*
X10735800Y-558300D01*
X10829750Y-16514500D02*
X10869750Y-16554500D01*
X10869750Y-16514500D02*
X10829750Y-16554500D01*
X10833650Y-5372500D02*
X10873650Y-5412500D01*
X10873650Y-5372500D02*
X10833650Y-5412500D01*
X10891800Y-10569500D02*
X10931800Y-10609500D01*
X10931800Y-10569500D02*
X10891800Y-10609500D01*
X10895700Y572500D02*
X10935700Y532500D01*
X10935700Y572500D02*
X10895700Y532500D01*
X10922400Y-13920900D02*
X10962400Y-13960900D01*
X10962400Y-13920900D02*
X10922400Y-13960900D01*
X10926300Y-2778900D02*
X10966300Y-2818900D01*
X10966300Y-2778900D02*
X10926300Y-2818900D01*
X10949300Y-13049500D02*
X10989300Y-13089500D01*
X10989300Y-13049500D02*
X10949300Y-13089500D01*
X10953200Y-1907500D02*
X10993200Y-1947500D01*
X10993200Y-1907500D02*
X10953200Y-1947500D01*
X10974300Y-16292000D02*
X11014300Y-16332000D01*
X11014300Y-16292000D02*
X10974300Y-16332000D01*
X10978200Y-5150000D02*
X11018200Y-5190000D01*
X11018200Y-5150000D02*
X10978200Y-5190000D01*
X11089300Y-16027000D02*
X11129300Y-16067000D01*
X11129300Y-16027000D02*
X11089300Y-16067000D01*
X11093200Y-4885000D02*
X11133200Y-4925000D01*
X11133200Y-4885000D02*
X11093200Y-4925000D01*
X11174300Y-8847000D02*
X11214300Y-8887000D01*
X11214300Y-8847000D02*
X11174300Y-8887000D01*
X11178200Y2295000D02*
X11218200Y2255000D01*
X11218200Y2295000D02*
X11178200Y2255000D01*
X11182750Y-13152550D02*
X11222750Y-13192550D01*
X11222750Y-13152550D02*
X11182750Y-13192550D01*
X11186650Y-2010550D02*
X11226650Y-2050550D01*
X11226650Y-2010550D02*
X11186650Y-2050550D01*
X11189300Y-15837000D02*
X11229300Y-15877000D01*
X11229300Y-15837000D02*
X11189300Y-15877000D01*
X11193200Y-4695000D02*
X11233200Y-4735000D01*
X11233200Y-4695000D02*
X11193200Y-4735000D01*
X11196800Y-12897000D02*
X11236800Y-12937000D01*
X11236800Y-12897000D02*
X11196800Y-12937000D01*
X11200700Y-1755000D02*
X11240700Y-1795000D01*
X11240700Y-1755000D02*
X11200700Y-1795000D01*
X11290700Y-15622700D02*
X11330700Y-15662700D01*
X11330700Y-15622700D02*
X11290700Y-15662700D01*
X11294600Y-4480700D02*
X11334600Y-4520700D01*
X11334600Y-4480700D02*
X11294600Y-4520700D01*
X11303400Y-16168800D02*
X11343400Y-16208800D01*
X11343400Y-16168800D02*
X11303400Y-16208800D01*
X11307300Y-5026800D02*
X11347300Y-5066800D01*
X11347300Y-5026800D02*
X11307300Y-5066800D01*
X11341500Y-10758600D02*
X11381500Y-10798600D01*
X11381500Y-10758600D02*
X11341500Y-10798600D01*
X11345400Y383400D02*
X11385400Y343400D01*
X11385400Y383400D02*
X11345400Y343400D01*
X11354200Y-14873400D02*
X11394200Y-14913400D01*
X11394200Y-14873400D02*
X11354200Y-14913400D01*
X11358100Y-3731400D02*
X11398100Y-3771400D01*
X11398100Y-3731400D02*
X11358100Y-3771400D01*
X11417700Y-13044600D02*
X11457700Y-13084600D01*
X11457700Y-13044600D02*
X11417700Y-13084600D01*
X11417700Y-16981600D02*
X11457700Y-17021600D01*
X11457700Y-16981600D02*
X11417700Y-17021600D01*
X11421600Y-1902600D02*
X11461600Y-1942600D01*
X11461600Y-1902600D02*
X11421600Y-1942600D01*
X11421600Y-5839600D02*
X11461600Y-5879600D01*
X11461600Y-5839600D02*
X11421600Y-5879600D01*
X11430400Y-13260500D02*
X11470400Y-13300500D01*
X11470400Y-13260500D02*
X11430400Y-13300500D01*
X11434300Y-2118500D02*
X11474300Y-2158500D01*
X11474300Y-2118500D02*
X11434300Y-2158500D01*
X11439300Y-12807000D02*
X11479300Y-12847000D01*
X11479300Y-12807000D02*
X11439300Y-12847000D01*
X11443200Y-1665000D02*
X11483200Y-1705000D01*
X11483200Y-1665000D02*
X11443200Y-1705000D01*
X11544700Y-10491900D02*
X11584700Y-10531900D01*
X11584700Y-10491900D02*
X11544700Y-10531900D01*
X11548600Y650100D02*
X11588600Y610100D01*
X11588600Y650100D02*
X11548600Y610100D01*
X11582800Y-14987700D02*
X11622800Y-15027700D01*
X11622800Y-14987700D02*
X11582800Y-15027700D01*
X11586700Y-3845700D02*
X11626700Y-3885700D01*
X11626700Y-3845700D02*
X11586700Y-3885700D01*
X11646300Y-16981600D02*
X11686300Y-17021600D01*
X11686300Y-16981600D02*
X11646300Y-17021600D01*
X11650200Y-5839600D02*
X11690200Y-5879600D01*
X11690200Y-5839600D02*
X11650200Y-5879600D01*
X11722500Y-12587400D02*
X11762500Y-12627400D01*
X11762500Y-12587400D02*
X11722500Y-12627400D01*
X11726400Y-1445400D02*
X11766400Y-1485400D01*
X11766400Y-1445400D02*
X11726400Y-1485400D01*
X11836800Y-16664100D02*
X11876800Y-16704100D01*
X11876800Y-16664100D02*
X11836800Y-16704100D01*
X11840700Y-5522100D02*
X11880700Y-5562100D01*
X11880700Y-5522100D02*
X11840700Y-5562100D01*
X11856800Y-10427000D02*
X11896800Y-10467000D01*
X11896800Y-10427000D02*
X11856800Y-10467000D01*
X11860700Y715000D02*
X11900700Y675000D01*
X11900700Y715000D02*
X11860700Y675000D01*
X11951100Y-14403500D02*
X11991100Y-14443500D01*
X11991100Y-14403500D02*
X11951100Y-14443500D01*
X11955000Y-3261500D02*
X11995000Y-3301500D01*
X11995000Y-3261500D02*
X11955000Y-3301500D01*
X11963800Y-14022500D02*
X12003800Y-14062500D01*
X12003800Y-14022500D02*
X11963800Y-14062500D01*
X11967700Y-2880500D02*
X12007700Y-2920500D01*
X12007700Y-2880500D02*
X11967700Y-2920500D01*
X11983800Y-9741200D02*
X12023800Y-9781200D01*
X12023800Y-9741200D02*
X11983800Y-9781200D01*
X11987700Y1400800D02*
X12027700Y1360800D01*
X12027700Y1400800D02*
X11987700Y1360800D01*
X12078900Y-9855500D02*
X12118900Y-9895500D01*
X12118900Y-9855500D02*
X12078900Y-9895500D01*
X12082800Y1286500D02*
X12122800Y1246500D01*
X12122800Y1286500D02*
X12082800Y1246500D01*
X12199700Y-9766600D02*
X12239700Y-9806600D01*
X12239700Y-9766600D02*
X12199700Y-9806600D01*
X12203600Y1375400D02*
X12243600Y1335400D01*
X12243600Y1375400D02*
X12203600Y1335400D01*
X12205100Y-14378100D02*
X12245100Y-14418100D01*
X12245100Y-14378100D02*
X12205100Y-14418100D01*
X12209000Y-3236100D02*
X12249000Y-3276100D01*
X12249000Y-3236100D02*
X12209000Y-3276100D01*
X12217800Y-13222400D02*
X12257800Y-13262400D01*
X12257800Y-13222400D02*
X12217800Y-13262400D01*
X12221700Y-2080400D02*
X12261700Y-2120400D01*
X12261700Y-2080400D02*
X12221700Y-2120400D01*
X12288600Y-9868200D02*
X12328600Y-9908200D01*
X12328600Y-9868200D02*
X12288600Y-9908200D01*
X12292500Y1273800D02*
X12332500Y1233800D01*
X12332500Y1273800D02*
X12292500Y1233800D01*
X12580700Y-9855500D02*
X12620700Y-9895500D01*
X12620700Y-9855500D02*
X12580700Y-9895500D01*
X12584600Y1286500D02*
X12624600Y1246500D01*
X12624600Y1286500D02*
X12584600Y1246500D01*
X12585900Y-13920900D02*
X12625900Y-13960900D01*
X12625900Y-13920900D02*
X12585900Y-13960900D01*
X12589800Y-2778900D02*
X12629800Y-2818900D01*
X12629800Y-2778900D02*
X12589800Y-2818900D01*
X12591800Y-9590400D02*
X12631800Y-9630400D01*
X12631800Y-9590400D02*
X12591800Y-9630400D01*
X12595700Y1551600D02*
X12635700Y1511600D01*
X12635700Y1551600D02*
X12595700Y1511600D01*
X13011800Y-18488950D02*
X13051800Y-18528950D01*
X13051800Y-18488950D02*
X13011800Y-18528950D01*
X13015700Y-7346950D02*
X13055700Y-7386950D01*
X13055700Y-7346950D02*
X13015700Y-7386950D01*
X13157600Y-16003700D02*
X13197600Y-16043700D01*
X13197600Y-16003700D02*
X13157600Y-16043700D01*
X13161500Y-4861700D02*
X13201500Y-4901700D01*
X13201500Y-4861700D02*
X13161500Y-4901700D01*
X13665600Y-17159400D02*
X13705600Y-17199400D01*
X13705600Y-17159400D02*
X13665600Y-17199400D01*
X13669500Y-6017400D02*
X13709500Y-6057400D01*
X13709500Y-6017400D02*
X13669500Y-6057400D01*
X14148000Y-15609450D02*
X14188000Y-15649450D01*
X14188000Y-15609450D02*
X14148000Y-15649450D01*
X14151900Y-4467450D02*
X14191900Y-4507450D01*
X14191900Y-4467450D02*
X14151900Y-4507450D01*
X14465700Y-17286400D02*
X14505700Y-17326400D01*
X14505700Y-17286400D02*
X14465700Y-17326400D01*
X14469600Y-6144400D02*
X14509600Y-6184400D01*
X14509600Y-6144400D02*
X14469600Y-6184400D01*
X14561927Y-16226927D02*
X14601927Y-16266927D01*
X14601927Y-16226927D02*
X14561927Y-16266927D01*
X14565827Y-5084927D02*
X14605827Y-5124927D01*
X14605827Y-5084927D02*
X14565827Y-5124927D01*
X14707000Y-14848000D02*
X14747000Y-14888000D01*
X14747000Y-14848000D02*
X14707000Y-14888000D01*
X14710900Y-3706000D02*
X14750900Y-3746000D01*
X14750900Y-3706000D02*
X14710900Y-3746000D01*
X14739700Y-9842800D02*
X14779700Y-9882800D01*
X14779700Y-9842800D02*
X14739700Y-9882800D01*
X14743600Y1299200D02*
X14783600Y1259200D01*
X14783600Y1299200D02*
X14743600Y1259200D01*
X14808600Y-15190900D02*
X14848600Y-15230900D01*
X14848600Y-15190900D02*
X14808600Y-15230900D01*
X14812500Y-4048900D02*
X14852500Y-4088900D01*
X14852500Y-4048900D02*
X14812500Y-4088900D01*
X14834977Y-15953877D02*
X14874977Y-15993877D01*
X14874977Y-15953877D02*
X14834977Y-15993877D01*
X14838877Y-4811877D02*
X14878877Y-4851877D01*
X14878877Y-4811877D02*
X14838877Y-4851877D01*
X15291200Y-12435000D02*
X15331200Y-12475000D01*
X15331200Y-12435000D02*
X15291200Y-12475000D01*
X15295100Y-1293000D02*
X15335100Y-1333000D01*
X15335100Y-1293000D02*
X15295100Y-1333000D01*
X16091300Y-13070000D02*
X16131300Y-13110000D01*
X16131300Y-13070000D02*
X16091300Y-13110000D01*
X16095200Y-1928000D02*
X16135200Y-1968000D01*
X16135200Y-1928000D02*
X16095200Y-1968000D01*
X16104000Y-13222400D02*
X16144000Y-13262400D01*
X16144000Y-13222400D02*
X16104000Y-13262400D01*
X16104000Y-13400200D02*
X16144000Y-13440200D01*
X16144000Y-13400200D02*
X16104000Y-13440200D01*
X16107900Y-2080400D02*
X16147900Y-2120400D01*
X16147900Y-2080400D02*
X16107900Y-2120400D01*
X16107900Y-2258200D02*
X16147900Y-2298200D01*
X16147900Y-2258200D02*
X16107900Y-2298200D01*
X16154800Y-17210200D02*
X16194800Y-17250200D01*
X16194800Y-17210200D02*
X16154800Y-17250200D01*
X16158700Y-6068200D02*
X16198700Y-6108200D01*
X16198700Y-6068200D02*
X16158700Y-6108200D01*
X16277650Y-16960350D02*
X16317650Y-17000350D01*
X16317650Y-16960350D02*
X16277650Y-17000350D01*
X16281550Y-5818350D02*
X16321550Y-5858350D01*
X16321550Y-5818350D02*
X16281550Y-5858350D01*
X16485000Y-16562500D02*
X16525000Y-16602500D01*
X16525000Y-16562500D02*
X16485000Y-16602500D01*
X16488900Y-5420500D02*
X16528900Y-5460500D01*
X16528900Y-5420500D02*
X16488900Y-5460500D01*
D14*
X4044611Y-10658889D02*
G75*
G03*
X4044611Y-10658889I-38100J0D01*
G01*
X4048511Y483111D02*
G75*
G03*
X4048511Y483111I-38100J0D01*
G01*
X4806611Y-8880889D02*
G75*
G03*
X4806611Y-8880889I-38100J0D01*
G01*
X4810511Y2261111D02*
G75*
G03*
X4810511Y2261111I-38100J0D01*
G01*
X5314611Y-8880889D02*
G75*
G03*
X5314611Y-8880889I-38100J0D01*
G01*
X5318511Y2261111D02*
G75*
G03*
X5318511Y2261111I-38100J0D01*
G01*
X6076611Y-10658889D02*
G75*
G03*
X6076611Y-10658889I-38100J0D01*
G01*
X6080511Y483111D02*
G75*
G03*
X6080511Y483111I-38100J0D01*
G01*
D15*
X4799366Y-13014802D02*
X4799366Y-13094558D01*
X4759488Y-13054680D02*
X4839244Y-13054680D01*
X4799366Y-15214442D02*
X4799366Y-15294198D01*
X4759488Y-15254320D02*
X4839244Y-15254320D01*
X4803266Y-1872802D02*
X4803266Y-1952558D01*
X4763388Y-1912680D02*
X4843144Y-1912680D01*
X4803266Y-4072442D02*
X4803266Y-4152198D01*
X4763388Y-4112320D02*
X4843144Y-4112320D01*
X4999518Y-13014802D02*
X4999518Y-13094558D01*
X4959640Y-13054680D02*
X5039396Y-13054680D01*
X4999518Y-15214442D02*
X4999518Y-15294198D01*
X4959640Y-15254320D02*
X5039396Y-15254320D01*
X5003418Y-1872802D02*
X5003418Y-1952558D01*
X4963540Y-1912680D02*
X5043296Y-1912680D01*
X5003418Y-4072442D02*
X5003418Y-4152198D01*
X4963540Y-4112320D02*
X5043296Y-4112320D01*
X5199416Y-13014802D02*
X5199416Y-13094558D01*
X5159538Y-13054680D02*
X5239294Y-13054680D01*
X5199416Y-15214442D02*
X5199416Y-15294198D01*
X5159538Y-15254320D02*
X5239294Y-15254320D01*
X5203316Y-1872802D02*
X5203316Y-1952558D01*
X5163438Y-1912680D02*
X5243194Y-1912680D01*
X5203316Y-4072442D02*
X5203316Y-4152198D01*
X5163438Y-4112320D02*
X5243194Y-4112320D01*
X5399568Y-13014802D02*
X5399568Y-13094558D01*
X5359690Y-13054680D02*
X5439446Y-13054680D01*
X5399568Y-15214442D02*
X5399568Y-15294198D01*
X5359690Y-15254320D02*
X5439446Y-15254320D01*
X5403468Y-1872802D02*
X5403468Y-1952558D01*
X5363590Y-1912680D02*
X5443346Y-1912680D01*
X5403468Y-4072442D02*
X5403468Y-4152198D01*
X5363590Y-4112320D02*
X5443346Y-4112320D01*
X5599466Y-13014802D02*
X5599466Y-13094558D01*
X5559588Y-13054680D02*
X5639344Y-13054680D01*
X5599466Y-15214442D02*
X5599466Y-15294198D01*
X5559588Y-15254320D02*
X5639344Y-15254320D01*
X5603366Y-1872802D02*
X5603366Y-1952558D01*
X5563488Y-1912680D02*
X5643244Y-1912680D01*
X5603366Y-4072442D02*
X5603366Y-4152198D01*
X5563488Y-4112320D02*
X5643244Y-4112320D01*
X5799364Y-13014802D02*
X5799364Y-13094558D01*
X5759486Y-13054680D02*
X5839242Y-13054680D01*
X5799364Y-15214442D02*
X5799364Y-15294198D01*
X5759486Y-15254320D02*
X5839242Y-15254320D01*
X5803264Y-1872802D02*
X5803264Y-1952558D01*
X5763386Y-1912680D02*
X5843142Y-1912680D01*
X5803264Y-4072442D02*
X5803264Y-4152198D01*
X5763386Y-4112320D02*
X5843142Y-4112320D01*
X5999516Y-13014802D02*
X5999516Y-13094558D01*
X5959638Y-13054680D02*
X6039394Y-13054680D01*
X5999516Y-15214442D02*
X5999516Y-15294198D01*
X5959638Y-15254320D02*
X6039394Y-15254320D01*
X6003416Y-1872802D02*
X6003416Y-1952558D01*
X5963538Y-1912680D02*
X6043294Y-1912680D01*
X6003416Y-4072442D02*
X6003416Y-4152198D01*
X5963538Y-4112320D02*
X6043294Y-4112320D01*
X6199414Y-13014802D02*
X6199414Y-13094558D01*
X6159536Y-13054680D02*
X6239292Y-13054680D01*
X6199414Y-15214442D02*
X6199414Y-15294198D01*
X6159536Y-15254320D02*
X6239292Y-15254320D01*
X6203314Y-1872802D02*
X6203314Y-1952558D01*
X6163436Y-1912680D02*
X6243192Y-1912680D01*
X6203314Y-4072442D02*
X6203314Y-4152198D01*
X6163436Y-4112320D02*
X6243192Y-4112320D01*
X6399566Y-13014802D02*
X6399566Y-13094558D01*
X6359688Y-13054680D02*
X6439444Y-13054680D01*
X6399566Y-15214442D02*
X6399566Y-15294198D01*
X6359688Y-15254320D02*
X6439444Y-15254320D01*
X6403466Y-1872802D02*
X6403466Y-1952558D01*
X6363588Y-1912680D02*
X6443344Y-1912680D01*
X6403466Y-4072442D02*
X6403466Y-4152198D01*
X6363588Y-4112320D02*
X6443344Y-4112320D01*
X6599464Y-13014802D02*
X6599464Y-13094558D01*
X6559586Y-13054680D02*
X6639342Y-13054680D01*
X6599464Y-15214442D02*
X6599464Y-15294198D01*
X6559586Y-15254320D02*
X6639342Y-15254320D01*
X6603364Y-1872802D02*
X6603364Y-1952558D01*
X6563486Y-1912680D02*
X6643242Y-1912680D01*
X6603364Y-4072442D02*
X6603364Y-4152198D01*
X6563486Y-4112320D02*
X6643242Y-4112320D01*
D16*
X4034819Y-11807784D02*
X4034819Y-11751215D01*
X3978250Y-11751215D01*
X3978250Y-11807784D01*
X4034819Y-11807784D01*
X4038719Y-665785D02*
X4038719Y-609216D01*
X3982150Y-609216D01*
X3982150Y-665785D01*
X4038719Y-665785D01*
X4284819Y-11807784D02*
X4284819Y-11751215D01*
X4228250Y-11751215D01*
X4228250Y-11807784D01*
X4284819Y-11807784D01*
X4288719Y-665785D02*
X4288719Y-609216D01*
X4232150Y-609216D01*
X4232150Y-665785D01*
X4288719Y-665785D01*
X7064819Y-9037785D02*
X7064819Y-8981216D01*
X7008250Y-8981216D01*
X7008250Y-9037785D01*
X7064819Y-9037785D01*
X7068719Y2104216D02*
X7068719Y2160785D01*
X7012150Y2160785D01*
X7012150Y2104216D01*
X7068719Y2104216D01*
X7314819Y-9037785D02*
X7314819Y-8981216D01*
X7258250Y-8981216D01*
X7258250Y-9037785D01*
X7314819Y-9037785D01*
X7318719Y2104216D02*
X7318719Y2160785D01*
X7262150Y2160785D01*
X7262150Y2104216D01*
X7318719Y2104216D01*
X11928084Y-10850535D02*
X11928084Y-10793966D01*
X11871515Y-10793966D01*
X11871515Y-10850535D01*
X11928084Y-10850535D01*
X11928084Y-11104535D02*
X11928084Y-11047966D01*
X11871515Y-11047966D01*
X11871515Y-11104535D01*
X11928084Y-11104535D01*
X11928084Y-11358534D02*
X11928084Y-11301965D01*
X11871515Y-11301965D01*
X11871515Y-11358534D01*
X11928084Y-11358534D01*
X11928084Y-11612534D02*
X11928084Y-11555965D01*
X11871515Y-11555965D01*
X11871515Y-11612534D01*
X11928084Y-11612534D01*
X11928084Y-11866534D02*
X11928084Y-11809965D01*
X11871515Y-11809965D01*
X11871515Y-11866534D01*
X11928084Y-11866534D01*
X11928084Y-12120534D02*
X11928084Y-12063965D01*
X11871515Y-12063965D01*
X11871515Y-12120534D01*
X11928084Y-12120534D01*
X11928084Y-12374534D02*
X11928084Y-12317965D01*
X11871515Y-12317965D01*
X11871515Y-12374534D01*
X11928084Y-12374534D01*
X11928084Y-12628534D02*
X11928084Y-12571965D01*
X11871515Y-12571965D01*
X11871515Y-12628534D01*
X11928084Y-12628534D01*
X11931984Y291466D02*
X11931984Y348035D01*
X11875415Y348035D01*
X11875415Y291466D01*
X11931984Y291466D01*
X11931984Y37466D02*
X11931984Y94034D01*
X11875415Y94034D01*
X11875415Y37466D01*
X11931984Y37466D01*
X11931984Y-216534D02*
X11931984Y-159966D01*
X11875415Y-159966D01*
X11875415Y-216534D01*
X11931984Y-216534D01*
X11931984Y-470534D02*
X11931984Y-413965D01*
X11875415Y-413965D01*
X11875415Y-470534D01*
X11931984Y-470534D01*
X11931984Y-724534D02*
X11931984Y-667966D01*
X11875415Y-667966D01*
X11875415Y-724534D01*
X11931984Y-724534D01*
X11931984Y-978534D02*
X11931984Y-921965D01*
X11875415Y-921965D01*
X11875415Y-978534D01*
X11931984Y-978534D01*
X11931984Y-1232535D02*
X11931984Y-1175966D01*
X11875415Y-1175966D01*
X11875415Y-1232535D01*
X11931984Y-1232535D01*
X11931984Y-1486534D02*
X11931984Y-1429965D01*
X11875415Y-1429965D01*
X11875415Y-1486534D01*
X11931984Y-1486534D01*
X12690084Y-10850535D02*
X12690084Y-10793966D01*
X12633515Y-10793966D01*
X12633515Y-10850535D01*
X12690084Y-10850535D01*
X12690084Y-11104535D02*
X12690084Y-11047966D01*
X12633515Y-11047966D01*
X12633515Y-11104535D01*
X12690084Y-11104535D01*
X12690084Y-11358534D02*
X12690084Y-11301965D01*
X12633515Y-11301965D01*
X12633515Y-11358534D01*
X12690084Y-11358534D01*
X12690084Y-11612534D02*
X12690084Y-11555965D01*
X12633515Y-11555965D01*
X12633515Y-11612534D01*
X12690084Y-11612534D01*
X12690084Y-11866534D02*
X12690084Y-11809965D01*
X12633515Y-11809965D01*
X12633515Y-11866534D01*
X12690084Y-11866534D01*
X12690084Y-12120534D02*
X12690084Y-12063965D01*
X12633515Y-12063965D01*
X12633515Y-12120534D01*
X12690084Y-12120534D01*
X12690084Y-12374534D02*
X12690084Y-12317965D01*
X12633515Y-12317965D01*
X12633515Y-12374534D01*
X12690084Y-12374534D01*
X12690084Y-12628534D02*
X12690084Y-12571965D01*
X12633515Y-12571965D01*
X12633515Y-12628534D01*
X12690084Y-12628534D01*
X12693984Y291466D02*
X12693984Y348035D01*
X12637415Y348035D01*
X12637415Y291466D01*
X12693984Y291466D01*
X12693984Y37466D02*
X12693984Y94034D01*
X12637415Y94034D01*
X12637415Y37466D01*
X12693984Y37466D01*
X12693984Y-216534D02*
X12693984Y-159966D01*
X12637415Y-159966D01*
X12637415Y-216534D01*
X12693984Y-216534D01*
X12693984Y-470534D02*
X12693984Y-413965D01*
X12637415Y-413965D01*
X12637415Y-470534D01*
X12693984Y-470534D01*
X12693984Y-724534D02*
X12693984Y-667966D01*
X12637415Y-667966D01*
X12637415Y-724534D01*
X12693984Y-724534D01*
X12693984Y-978534D02*
X12693984Y-921965D01*
X12637415Y-921965D01*
X12637415Y-978534D01*
X12693984Y-978534D01*
X12693984Y-1232535D02*
X12693984Y-1175966D01*
X12637415Y-1175966D01*
X12637415Y-1232535D01*
X12693984Y-1232535D01*
X12693984Y-1486534D02*
X12693984Y-1429965D01*
X12637415Y-1429965D01*
X12637415Y-1486534D01*
X12693984Y-1486534D01*
X13217084Y-11023785D02*
X13217084Y-10967216D01*
X13160515Y-10967216D01*
X13160515Y-11023785D01*
X13217084Y-11023785D01*
X13217084Y-12547784D02*
X13217084Y-12491215D01*
X13160515Y-12491215D01*
X13160515Y-12547784D01*
X13217084Y-12547784D01*
X13220984Y118215D02*
X13220984Y174784D01*
X13164415Y174784D01*
X13164415Y118215D01*
X13220984Y118215D01*
X13220984Y-1405784D02*
X13220984Y-1349216D01*
X13164415Y-1349216D01*
X13164415Y-1405784D01*
X13220984Y-1405784D01*
X13471084Y-11023785D02*
X13471084Y-10967216D01*
X13414515Y-10967216D01*
X13414515Y-11023785D01*
X13471084Y-11023785D01*
X13471084Y-12547784D02*
X13471084Y-12491215D01*
X13414515Y-12491215D01*
X13414515Y-12547784D01*
X13471084Y-12547784D01*
X13474984Y118215D02*
X13474984Y174784D01*
X13418415Y174784D01*
X13418415Y118215D01*
X13474984Y118215D01*
X13474984Y-1405784D02*
X13474984Y-1349216D01*
X13418415Y-1349216D01*
X13418415Y-1405784D01*
X13474984Y-1405784D01*
X13554684Y-8457185D02*
X13554684Y-8400616D01*
X13498115Y-8400616D01*
X13498115Y-8457185D01*
X13554684Y-8457185D01*
X13554684Y-8711185D02*
X13554684Y-8654616D01*
X13498115Y-8654616D01*
X13498115Y-8711185D01*
X13554684Y-8711185D01*
X13554684Y-8965185D02*
X13554684Y-8908616D01*
X13498115Y-8908616D01*
X13498115Y-8965185D01*
X13554684Y-8965185D01*
X13554684Y-9219185D02*
X13554684Y-9162616D01*
X13498115Y-9162616D01*
X13498115Y-9219185D01*
X13554684Y-9219185D01*
X13554684Y-9473185D02*
X13554684Y-9416616D01*
X13498115Y-9416616D01*
X13498115Y-9473185D01*
X13554684Y-9473185D01*
X13554684Y-9727185D02*
X13554684Y-9670616D01*
X13498115Y-9670616D01*
X13498115Y-9727185D01*
X13554684Y-9727185D01*
X13554684Y-9981185D02*
X13554684Y-9924616D01*
X13498115Y-9924616D01*
X13498115Y-9981185D01*
X13554684Y-9981185D01*
X13558584Y2684816D02*
X13558584Y2741385D01*
X13502015Y2741385D01*
X13502015Y2684816D01*
X13558584Y2684816D01*
X13558584Y2430816D02*
X13558584Y2487385D01*
X13502015Y2487385D01*
X13502015Y2430816D01*
X13558584Y2430816D01*
X13558584Y2176816D02*
X13558584Y2233385D01*
X13502015Y2233385D01*
X13502015Y2176816D01*
X13558584Y2176816D01*
X13558584Y1922815D02*
X13558584Y1979384D01*
X13502015Y1979384D01*
X13502015Y1922815D01*
X13558584Y1922815D01*
X13558584Y1668815D02*
X13558584Y1725384D01*
X13502015Y1725384D01*
X13502015Y1668815D01*
X13558584Y1668815D01*
X13558584Y1414815D02*
X13558584Y1471384D01*
X13502015Y1471384D01*
X13502015Y1414815D01*
X13558584Y1414815D01*
X13558584Y1160816D02*
X13558584Y1217385D01*
X13502015Y1217385D01*
X13502015Y1160816D01*
X13558584Y1160816D01*
X13725084Y-11023785D02*
X13725084Y-10967216D01*
X13668515Y-10967216D01*
X13668515Y-11023785D01*
X13725084Y-11023785D01*
X13725084Y-12547784D02*
X13725084Y-12491215D01*
X13668515Y-12491215D01*
X13668515Y-12547784D01*
X13725084Y-12547784D01*
X13728984Y118215D02*
X13728984Y174784D01*
X13672415Y174784D01*
X13672415Y118215D01*
X13728984Y118215D01*
X13728984Y-1405784D02*
X13728984Y-1349216D01*
X13672415Y-1349216D01*
X13672415Y-1405784D01*
X13728984Y-1405784D01*
X13979084Y-11023785D02*
X13979084Y-10967216D01*
X13922515Y-10967216D01*
X13922515Y-11023785D01*
X13979084Y-11023785D01*
X13979084Y-12547784D02*
X13979084Y-12491215D01*
X13922515Y-12491215D01*
X13922515Y-12547784D01*
X13979084Y-12547784D01*
X13982984Y118215D02*
X13982984Y174784D01*
X13926415Y174784D01*
X13926415Y118215D01*
X13982984Y118215D01*
X13982984Y-1405784D02*
X13982984Y-1349216D01*
X13926415Y-1349216D01*
X13926415Y-1405784D01*
X13982984Y-1405784D01*
X14233084Y-11023785D02*
X14233084Y-10967216D01*
X14176515Y-10967216D01*
X14176515Y-11023785D01*
X14233084Y-11023785D01*
X14233084Y-12547784D02*
X14233084Y-12491215D01*
X14176515Y-12491215D01*
X14176515Y-12547784D01*
X14233084Y-12547784D01*
X14236984Y118215D02*
X14236984Y174784D01*
X14180415Y174784D01*
X14180415Y118215D01*
X14236984Y118215D01*
X14236984Y-1405784D02*
X14236984Y-1349216D01*
X14180415Y-1349216D01*
X14180415Y-1405784D01*
X14236984Y-1405784D01*
X14316684Y-8457185D02*
X14316684Y-8400616D01*
X14260115Y-8400616D01*
X14260115Y-8457185D01*
X14316684Y-8457185D01*
X14316684Y-8711185D02*
X14316684Y-8654616D01*
X14260115Y-8654616D01*
X14260115Y-8711185D01*
X14316684Y-8711185D01*
X14316684Y-8965185D02*
X14316684Y-8908616D01*
X14260115Y-8908616D01*
X14260115Y-8965185D01*
X14316684Y-8965185D01*
X14316684Y-9219185D02*
X14316684Y-9162616D01*
X14260115Y-9162616D01*
X14260115Y-9219185D01*
X14316684Y-9219185D01*
X14316684Y-9473185D02*
X14316684Y-9416616D01*
X14260115Y-9416616D01*
X14260115Y-9473185D01*
X14316684Y-9473185D01*
X14316684Y-9727185D02*
X14316684Y-9670616D01*
X14260115Y-9670616D01*
X14260115Y-9727185D01*
X14316684Y-9727185D01*
X14316684Y-9981185D02*
X14316684Y-9924616D01*
X14260115Y-9924616D01*
X14260115Y-9981185D01*
X14316684Y-9981185D01*
X14320584Y2684816D02*
X14320584Y2741385D01*
X14264015Y2741385D01*
X14264015Y2684816D01*
X14320584Y2684816D01*
X14320584Y2430816D02*
X14320584Y2487385D01*
X14264015Y2487385D01*
X14264015Y2430816D01*
X14320584Y2430816D01*
X14320584Y2176816D02*
X14320584Y2233385D01*
X14264015Y2233385D01*
X14264015Y2176816D01*
X14320584Y2176816D01*
X14320584Y1922815D02*
X14320584Y1979384D01*
X14264015Y1979384D01*
X14264015Y1922815D01*
X14320584Y1922815D01*
X14320584Y1668815D02*
X14320584Y1725384D01*
X14264015Y1725384D01*
X14264015Y1668815D01*
X14320584Y1668815D01*
X14320584Y1414815D02*
X14320584Y1471384D01*
X14264015Y1471384D01*
X14264015Y1414815D01*
X14320584Y1414815D01*
X14320584Y1160816D02*
X14320584Y1217385D01*
X14264015Y1217385D01*
X14264015Y1160816D01*
X14320584Y1160816D01*
D17*
X4782511Y-17710756D02*
X4832511Y-17660756D01*
X4782511Y-17610756D01*
X4732511Y-17660756D01*
X4782511Y-17710756D01*
X4786411Y-6568756D02*
X4836411Y-6518756D01*
X4786411Y-6468756D01*
X4736411Y-6518756D01*
X4786411Y-6568756D01*
X4921011Y-17994756D02*
X4971011Y-17944756D01*
X4921011Y-17894756D01*
X4871011Y-17944756D01*
X4921011Y-17994756D01*
X4924911Y-6852756D02*
X4974911Y-6802756D01*
X4924911Y-6752756D01*
X4874911Y-6802756D01*
X4924911Y-6852756D01*
X5059511Y-17710756D02*
X5109511Y-17660756D01*
X5059511Y-17610756D01*
X5009511Y-17660756D01*
X5059511Y-17710756D01*
X5063411Y-6568756D02*
X5113411Y-6518756D01*
X5063411Y-6468756D01*
X5013411Y-6518756D01*
X5063411Y-6568756D01*
X5178800Y-12269500D02*
X5228800Y-12219500D01*
X5178800Y-12169500D01*
X5128800Y-12219500D01*
X5178800Y-12269500D01*
X5182700Y-1127500D02*
X5232700Y-1077500D01*
X5182700Y-1027500D01*
X5132700Y-1077500D01*
X5182700Y-1127500D01*
X5198011Y-17994756D02*
X5248011Y-17944756D01*
X5198011Y-17894756D01*
X5148011Y-17944756D01*
X5198011Y-17994756D01*
X5201911Y-6852756D02*
X5251911Y-6802756D01*
X5201911Y-6752756D01*
X5151911Y-6802756D01*
X5201911Y-6852756D01*
X5336511Y-17710756D02*
X5386511Y-17660756D01*
X5336511Y-17610756D01*
X5286511Y-17660756D01*
X5336511Y-17710756D01*
X5340411Y-6568756D02*
X5390411Y-6518756D01*
X5340411Y-6468756D01*
X5290411Y-6518756D01*
X5340411Y-6568756D01*
X5432800Y-12269500D02*
X5482800Y-12219500D01*
X5432800Y-12169500D01*
X5382800Y-12219500D01*
X5432800Y-12269500D01*
X5436700Y-1127500D02*
X5486700Y-1077500D01*
X5436700Y-1027500D01*
X5386700Y-1077500D01*
X5436700Y-1127500D01*
X5475011Y-17994756D02*
X5525011Y-17944756D01*
X5475011Y-17894756D01*
X5425011Y-17944756D01*
X5475011Y-17994756D01*
X5478911Y-6852756D02*
X5528911Y-6802756D01*
X5478911Y-6752756D01*
X5428911Y-6802756D01*
X5478911Y-6852756D01*
X5608800Y-11414500D02*
X5658800Y-11364500D01*
X5608800Y-11314500D01*
X5558800Y-11364500D01*
X5608800Y-11414500D01*
X5608800Y-11668500D02*
X5658800Y-11618500D01*
X5608800Y-11568500D01*
X5558800Y-11618500D01*
X5608800Y-11668500D01*
X5612700Y-272500D02*
X5662700Y-222500D01*
X5612700Y-172500D01*
X5562700Y-222500D01*
X5612700Y-272500D01*
X5612700Y-526500D02*
X5662700Y-476500D01*
X5612700Y-426500D01*
X5562700Y-476500D01*
X5612700Y-526500D01*
X5613511Y-17710756D02*
X5663511Y-17660756D01*
X5613511Y-17610756D01*
X5563511Y-17660756D01*
X5613511Y-17710756D01*
X5617411Y-6568756D02*
X5667411Y-6518756D01*
X5617411Y-6468756D01*
X5567411Y-6518756D01*
X5617411Y-6568756D01*
X5686800Y-12269500D02*
X5736800Y-12219500D01*
X5686800Y-12169500D01*
X5636800Y-12219500D01*
X5686800Y-12269500D01*
X5690700Y-1127500D02*
X5740700Y-1077500D01*
X5690700Y-1027500D01*
X5640700Y-1077500D01*
X5690700Y-1127500D01*
X5752011Y-17994756D02*
X5802011Y-17944756D01*
X5752011Y-17894756D01*
X5702011Y-17944756D01*
X5752011Y-17994756D01*
X5755911Y-6852756D02*
X5805911Y-6802756D01*
X5755911Y-6752756D01*
X5705911Y-6802756D01*
X5755911Y-6852756D01*
X5862800Y-11414500D02*
X5912800Y-11364500D01*
X5862800Y-11314500D01*
X5812800Y-11364500D01*
X5862800Y-11414500D01*
X5862800Y-11668500D02*
X5912800Y-11618500D01*
X5862800Y-11568500D01*
X5812800Y-11618500D01*
X5862800Y-11668500D01*
X5866700Y-272500D02*
X5916700Y-222500D01*
X5866700Y-172500D01*
X5816700Y-222500D01*
X5866700Y-272500D01*
X5866700Y-526500D02*
X5916700Y-476500D01*
X5866700Y-426500D01*
X5816700Y-476500D01*
X5866700Y-526500D01*
X5890511Y-17710756D02*
X5940511Y-17660756D01*
X5890511Y-17610756D01*
X5840511Y-17660756D01*
X5890511Y-17710756D01*
X5894411Y-6568756D02*
X5944411Y-6518756D01*
X5894411Y-6468756D01*
X5844411Y-6518756D01*
X5894411Y-6568756D01*
X6116800Y-11414500D02*
X6166800Y-11364500D01*
X6116800Y-11314500D01*
X6066800Y-11364500D01*
X6116800Y-11414500D01*
X6116800Y-11668500D02*
X6166800Y-11618500D01*
X6116800Y-11568500D01*
X6066800Y-11618500D01*
X6116800Y-11668500D01*
X6120700Y-272500D02*
X6170700Y-222500D01*
X6120700Y-172500D01*
X6070700Y-222500D01*
X6120700Y-272500D01*
X6120700Y-526500D02*
X6170700Y-476500D01*
X6120700Y-426500D01*
X6070700Y-476500D01*
X6120700Y-526500D01*
X7751800Y-15189500D02*
X7801800Y-15139500D01*
X7751800Y-15089500D01*
X7701800Y-15139500D01*
X7751800Y-15189500D01*
X7751800Y-15443500D02*
X7801800Y-15393500D01*
X7751800Y-15343500D01*
X7701800Y-15393500D01*
X7751800Y-15443500D01*
X7751800Y-15697500D02*
X7801800Y-15647500D01*
X7751800Y-15597500D01*
X7701800Y-15647500D01*
X7751800Y-15697500D01*
X7751800Y-15951500D02*
X7801800Y-15901500D01*
X7751800Y-15851500D01*
X7701800Y-15901500D01*
X7751800Y-15951500D01*
X7755700Y-4047500D02*
X7805700Y-3997500D01*
X7755700Y-3947500D01*
X7705700Y-3997500D01*
X7755700Y-4047500D01*
X7755700Y-4301500D02*
X7805700Y-4251500D01*
X7755700Y-4201500D01*
X7705700Y-4251500D01*
X7755700Y-4301500D01*
X7755700Y-4555500D02*
X7805700Y-4505500D01*
X7755700Y-4455500D01*
X7705700Y-4505500D01*
X7755700Y-4555500D01*
X7755700Y-4809500D02*
X7805700Y-4759500D01*
X7755700Y-4709500D01*
X7705700Y-4759500D01*
X7755700Y-4809500D01*
X8271800Y-15446000D02*
X8321800Y-15396000D01*
X8271800Y-15346000D01*
X8221800Y-15396000D01*
X8271800Y-15446000D01*
X8271800Y-15700000D02*
X8321800Y-15650000D01*
X8271800Y-15600000D01*
X8221800Y-15650000D01*
X8271800Y-15700000D01*
X8275700Y-4304000D02*
X8325700Y-4254000D01*
X8275700Y-4204000D01*
X8225700Y-4254000D01*
X8275700Y-4304000D01*
X8275700Y-4558000D02*
X8325700Y-4508000D01*
X8275700Y-4458000D01*
X8225700Y-4508000D01*
X8275700Y-4558000D01*
X8407511Y-17760756D02*
X8457511Y-17710756D01*
X8407511Y-17660756D01*
X8357511Y-17710756D01*
X8407511Y-17760756D01*
X8411411Y-6618756D02*
X8461411Y-6568756D01*
X8411411Y-6518756D01*
X8361411Y-6568756D01*
X8411411Y-6618756D01*
X8546011Y-18044756D02*
X8596011Y-17994756D01*
X8546011Y-17944756D01*
X8496011Y-17994756D01*
X8546011Y-18044756D01*
X8549911Y-6902756D02*
X8599911Y-6852756D01*
X8549911Y-6802756D01*
X8499911Y-6852756D01*
X8549911Y-6902756D01*
X8684511Y-17760756D02*
X8734511Y-17710756D01*
X8684511Y-17660756D01*
X8634511Y-17710756D01*
X8684511Y-17760756D01*
X8688411Y-6618756D02*
X8738411Y-6568756D01*
X8688411Y-6518756D01*
X8638411Y-6568756D01*
X8688411Y-6618756D01*
X8731800Y-14992000D02*
X8781800Y-14942000D01*
X8731800Y-14892000D01*
X8681800Y-14942000D01*
X8731800Y-14992000D01*
X8731800Y-15246000D02*
X8781800Y-15196000D01*
X8731800Y-15146000D01*
X8681800Y-15196000D01*
X8731800Y-15246000D01*
X8731800Y-15500000D02*
X8781800Y-15450000D01*
X8731800Y-15400000D01*
X8681800Y-15450000D01*
X8731800Y-15500000D01*
X8731800Y-15754000D02*
X8781800Y-15704000D01*
X8731800Y-15654000D01*
X8681800Y-15704000D01*
X8731800Y-15754000D01*
X8731800Y-16008000D02*
X8781800Y-15958000D01*
X8731800Y-15908000D01*
X8681800Y-15958000D01*
X8731800Y-16008000D01*
X8735700Y-3850000D02*
X8785700Y-3800000D01*
X8735700Y-3750000D01*
X8685700Y-3800000D01*
X8735700Y-3850000D01*
X8735700Y-4104000D02*
X8785700Y-4054000D01*
X8735700Y-4004000D01*
X8685700Y-4054000D01*
X8735700Y-4104000D01*
X8735700Y-4358000D02*
X8785700Y-4308000D01*
X8735700Y-4258000D01*
X8685700Y-4308000D01*
X8735700Y-4358000D01*
X8735700Y-4612000D02*
X8785700Y-4562000D01*
X8735700Y-4512000D01*
X8685700Y-4562000D01*
X8735700Y-4612000D01*
X8735700Y-4866000D02*
X8785700Y-4816000D01*
X8735700Y-4766000D01*
X8685700Y-4816000D01*
X8735700Y-4866000D01*
X8823011Y-18044756D02*
X8873011Y-17994756D01*
X8823011Y-17944756D01*
X8773011Y-17994756D01*
X8823011Y-18044756D01*
X8826911Y-6902756D02*
X8876911Y-6852756D01*
X8826911Y-6802756D01*
X8776911Y-6852756D01*
X8826911Y-6902756D01*
X8961511Y-17760756D02*
X9011511Y-17710756D01*
X8961511Y-17660756D01*
X8911511Y-17710756D01*
X8961511Y-17760756D01*
X8965411Y-6618756D02*
X9015411Y-6568756D01*
X8965411Y-6518756D01*
X8915411Y-6568756D01*
X8965411Y-6618756D01*
X9100011Y-18044756D02*
X9150011Y-17994756D01*
X9100011Y-17944756D01*
X9050011Y-17994756D01*
X9100011Y-18044756D01*
X9103911Y-6902756D02*
X9153911Y-6852756D01*
X9103911Y-6802756D01*
X9053911Y-6852756D01*
X9103911Y-6902756D01*
X9238511Y-17760756D02*
X9288511Y-17710756D01*
X9238511Y-17660756D01*
X9188511Y-17710756D01*
X9238511Y-17760756D01*
X9242411Y-6618756D02*
X9292411Y-6568756D01*
X9242411Y-6518756D01*
X9192411Y-6568756D01*
X9242411Y-6618756D01*
X9377011Y-18044756D02*
X9427011Y-17994756D01*
X9377011Y-17944756D01*
X9327011Y-17994756D01*
X9377011Y-18044756D01*
X9380911Y-6902756D02*
X9430911Y-6852756D01*
X9380911Y-6802756D01*
X9330911Y-6852756D01*
X9380911Y-6902756D01*
X9515511Y-17760756D02*
X9565511Y-17710756D01*
X9515511Y-17660756D01*
X9465511Y-17710756D01*
X9515511Y-17760756D01*
X9519411Y-6618756D02*
X9569411Y-6568756D01*
X9519411Y-6518756D01*
X9469411Y-6568756D01*
X9519411Y-6618756D01*
X9581800Y-15909500D02*
X9631800Y-15859500D01*
X9581800Y-15809500D01*
X9531800Y-15859500D01*
X9581800Y-15909500D01*
X9585700Y-4767500D02*
X9635700Y-4717500D01*
X9585700Y-4667500D01*
X9535700Y-4717500D01*
X9585700Y-4767500D01*
X9835800Y-15909500D02*
X9885800Y-15859500D01*
X9835800Y-15809500D01*
X9785800Y-15859500D01*
X9835800Y-15909500D01*
X9839700Y-4767500D02*
X9889700Y-4717500D01*
X9839700Y-4667500D01*
X9789700Y-4717500D01*
X9839700Y-4767500D01*
X10066100Y-8785400D02*
X10116100Y-8735400D01*
X10066100Y-8685400D01*
X10016100Y-8735400D01*
X10066100Y-8785400D01*
X10066100Y-9039400D02*
X10116100Y-8989400D01*
X10066100Y-8939400D01*
X10016100Y-8989400D01*
X10066100Y-9039400D01*
X10066100Y-9293400D02*
X10116100Y-9243400D01*
X10066100Y-9193400D01*
X10016100Y-9243400D01*
X10066100Y-9293400D01*
X10070000Y2356600D02*
X10120000Y2406600D01*
X10070000Y2456600D01*
X10020000Y2406600D01*
X10070000Y2356600D01*
X10070000Y2102600D02*
X10120000Y2152600D01*
X10070000Y2202600D01*
X10020000Y2152600D01*
X10070000Y2102600D01*
X10070000Y1848600D02*
X10120000Y1898600D01*
X10070000Y1948600D01*
X10020000Y1898600D01*
X10070000Y1848600D01*
X10089800Y-15909500D02*
X10139800Y-15859500D01*
X10089800Y-15809500D01*
X10039800Y-15859500D01*
X10089800Y-15909500D01*
X10093700Y-4767500D02*
X10143700Y-4717500D01*
X10093700Y-4667500D01*
X10043700Y-4717500D01*
X10093700Y-4767500D01*
X10343800Y-15909500D02*
X10393800Y-15859500D01*
X10343800Y-15809500D01*
X10293800Y-15859500D01*
X10343800Y-15909500D01*
X10347700Y-4767500D02*
X10397700Y-4717500D01*
X10347700Y-4667500D01*
X10297700Y-4717500D01*
X10347700Y-4767500D01*
X10904300Y-9367000D02*
X10954300Y-9317000D01*
X10904300Y-9267000D01*
X10854300Y-9317000D01*
X10904300Y-9367000D01*
X10904300Y-9621000D02*
X10954300Y-9571000D01*
X10904300Y-9521000D01*
X10854300Y-9571000D01*
X10904300Y-9621000D01*
X10904300Y-9875000D02*
X10954300Y-9825000D01*
X10904300Y-9775000D01*
X10854300Y-9825000D01*
X10904300Y-9875000D01*
X10908200Y1775000D02*
X10958200Y1825000D01*
X10908200Y1875000D01*
X10858200Y1825000D01*
X10908200Y1775000D01*
X10908200Y1521000D02*
X10958200Y1571000D01*
X10908200Y1621000D01*
X10858200Y1571000D01*
X10908200Y1521000D01*
X10908200Y1267000D02*
X10958200Y1317000D01*
X10908200Y1367000D01*
X10858200Y1317000D01*
X10908200Y1267000D01*
X10992351Y-12045051D02*
X11042351Y-11995051D01*
X10992351Y-11945051D01*
X10942351Y-11995051D01*
X10992351Y-12045051D01*
X10996251Y-903051D02*
X11046251Y-853051D01*
X10996251Y-803051D01*
X10946251Y-853051D01*
X10996251Y-903051D01*
X11171956Y-12224656D02*
X11221956Y-12174656D01*
X11171956Y-12124656D01*
X11121956Y-12174656D01*
X11171956Y-12224656D01*
X11175856Y-1082656D02*
X11225856Y-1032656D01*
X11175856Y-982656D01*
X11125856Y-1032656D01*
X11175856Y-1082656D01*
X12117511Y-17765756D02*
X12167511Y-17715756D01*
X12117511Y-17665756D01*
X12067511Y-17715756D01*
X12117511Y-17765756D01*
X12121411Y-6623756D02*
X12171411Y-6573756D01*
X12121411Y-6523756D01*
X12071411Y-6573756D01*
X12121411Y-6623756D01*
X12256011Y-18049756D02*
X12306011Y-17999756D01*
X12256011Y-17949756D01*
X12206011Y-17999756D01*
X12256011Y-18049756D01*
X12259911Y-6907756D02*
X12309911Y-6857756D01*
X12259911Y-6807756D01*
X12209911Y-6857756D01*
X12259911Y-6907756D01*
X12394511Y-17765756D02*
X12444511Y-17715756D01*
X12394511Y-17665756D01*
X12344511Y-17715756D01*
X12394511Y-17765756D01*
X12398411Y-6623756D02*
X12448411Y-6573756D01*
X12398411Y-6523756D01*
X12348411Y-6573756D01*
X12398411Y-6623756D01*
X12533011Y-18049756D02*
X12583011Y-17999756D01*
X12533011Y-17949756D01*
X12483011Y-17999756D01*
X12533011Y-18049756D01*
X12536911Y-6907756D02*
X12586911Y-6857756D01*
X12536911Y-6807756D01*
X12486911Y-6857756D01*
X12536911Y-6907756D01*
X12671511Y-17765756D02*
X12721511Y-17715756D01*
X12671511Y-17665756D01*
X12621511Y-17715756D01*
X12671511Y-17765756D01*
X12675411Y-6623756D02*
X12725411Y-6573756D01*
X12675411Y-6523756D01*
X12625411Y-6573756D01*
X12675411Y-6623756D01*
X12810011Y-18049756D02*
X12860011Y-17999756D01*
X12810011Y-17949756D01*
X12760011Y-17999756D01*
X12810011Y-18049756D01*
X12813911Y-6907756D02*
X12863911Y-6857756D01*
X12813911Y-6807756D01*
X12763911Y-6857756D01*
X12813911Y-6907756D01*
X12829300Y-13659500D02*
X12879300Y-13609500D01*
X12829300Y-13559500D01*
X12779300Y-13609500D01*
X12829300Y-13659500D01*
X12833200Y-2517500D02*
X12883200Y-2467500D01*
X12833200Y-2417500D01*
X12783200Y-2467500D01*
X12833200Y-2517500D01*
X12948511Y-17765756D02*
X12998511Y-17715756D01*
X12948511Y-17665756D01*
X12898511Y-17715756D01*
X12948511Y-17765756D01*
X12952411Y-6623756D02*
X13002411Y-6573756D01*
X12952411Y-6523756D01*
X12902411Y-6573756D01*
X12952411Y-6623756D01*
X13083300Y-13659500D02*
X13133300Y-13609500D01*
X13083300Y-13559500D01*
X13033300Y-13609500D01*
X13083300Y-13659500D01*
X13087011Y-18049756D02*
X13137011Y-17999756D01*
X13087011Y-17949756D01*
X13037011Y-17999756D01*
X13087011Y-18049756D01*
X13087200Y-2517500D02*
X13137200Y-2467500D01*
X13087200Y-2417500D01*
X13037200Y-2467500D01*
X13087200Y-2517500D01*
X13090911Y-6907756D02*
X13140911Y-6857756D01*
X13090911Y-6807756D01*
X13040911Y-6857756D01*
X13090911Y-6907756D01*
X13225511Y-17765756D02*
X13275511Y-17715756D01*
X13225511Y-17665756D01*
X13175511Y-17715756D01*
X13225511Y-17765756D01*
X13229411Y-6623756D02*
X13279411Y-6573756D01*
X13229411Y-6523756D01*
X13179411Y-6573756D01*
X13229411Y-6623756D01*
X13337300Y-13659500D02*
X13387300Y-13609500D01*
X13337300Y-13559500D01*
X13287300Y-13609500D01*
X13337300Y-13659500D01*
X13341200Y-2517500D02*
X13391200Y-2467500D01*
X13341200Y-2417500D01*
X13291200Y-2467500D01*
X13341200Y-2517500D01*
X13440000Y-15392500D02*
X13490000Y-15342500D01*
X13440000Y-15292500D01*
X13390000Y-15342500D01*
X13440000Y-15392500D01*
X13443900Y-4250500D02*
X13493900Y-4200500D01*
X13443900Y-4150500D01*
X13393900Y-4200500D01*
X13443900Y-4250500D01*
X13457000Y-16696000D02*
X13507000Y-16646000D01*
X13457000Y-16596000D01*
X13407000Y-16646000D01*
X13457000Y-16696000D01*
X13460900Y-5554000D02*
X13510900Y-5504000D01*
X13460900Y-5454000D01*
X13410900Y-5504000D01*
X13460900Y-5554000D01*
X13591300Y-13659500D02*
X13641300Y-13609500D01*
X13591300Y-13559500D01*
X13541300Y-13609500D01*
X13591300Y-13659500D01*
X13595200Y-2517500D02*
X13645200Y-2467500D01*
X13595200Y-2417500D01*
X13545200Y-2467500D01*
X13595200Y-2517500D01*
X13845300Y-13659500D02*
X13895300Y-13609500D01*
X13845300Y-13559500D01*
X13795300Y-13609500D01*
X13845300Y-13659500D01*
X13849200Y-2517500D02*
X13899200Y-2467500D01*
X13849200Y-2417500D01*
X13799200Y-2467500D01*
X13849200Y-2517500D01*
X13939600Y-16696000D02*
X13989600Y-16646000D01*
X13939600Y-16596000D01*
X13889600Y-16646000D01*
X13939600Y-16696000D01*
X13943500Y-5554000D02*
X13993500Y-5504000D01*
X13943500Y-5454000D01*
X13893500Y-5504000D01*
X13943500Y-5554000D01*
X13955000Y-15385000D02*
X14005000Y-15335000D01*
X13955000Y-15285000D01*
X13905000Y-15335000D01*
X13955000Y-15385000D01*
X13958900Y-4243000D02*
X14008900Y-4193000D01*
X13958900Y-4143000D01*
X13908900Y-4193000D01*
X13958900Y-4243000D01*
X15492567Y-16771189D02*
X15542567Y-16721189D01*
X15492567Y-16671189D01*
X15442567Y-16721189D01*
X15492567Y-16771189D01*
X15492567Y-17048189D02*
X15542567Y-16998189D01*
X15492567Y-16948189D01*
X15442567Y-16998189D01*
X15492567Y-17048189D01*
X15492567Y-17325189D02*
X15542567Y-17275189D01*
X15492567Y-17225189D01*
X15442567Y-17275189D01*
X15492567Y-17325189D01*
X15492567Y-17602189D02*
X15542567Y-17552189D01*
X15492567Y-17502189D01*
X15442567Y-17552189D01*
X15492567Y-17602189D01*
X15492567Y-17879189D02*
X15542567Y-17829189D01*
X15492567Y-17779189D01*
X15442567Y-17829189D01*
X15492567Y-17879189D01*
X15496467Y-5629189D02*
X15546467Y-5579189D01*
X15496467Y-5529189D01*
X15446467Y-5579189D01*
X15496467Y-5629189D01*
X15496467Y-5906189D02*
X15546467Y-5856189D01*
X15496467Y-5806189D01*
X15446467Y-5856189D01*
X15496467Y-5906189D01*
X15496467Y-6183189D02*
X15546467Y-6133189D01*
X15496467Y-6083189D01*
X15446467Y-6133189D01*
X15496467Y-6183189D01*
X15496467Y-6460189D02*
X15546467Y-6410189D01*
X15496467Y-6360189D01*
X15446467Y-6410189D01*
X15496467Y-6460189D01*
X15496467Y-6737189D02*
X15546467Y-6687189D01*
X15496467Y-6637189D01*
X15446467Y-6687189D01*
X15496467Y-6737189D01*
X15507911Y-13001189D02*
X15557911Y-12951189D01*
X15507911Y-12901189D01*
X15457911Y-12951189D01*
X15507911Y-13001189D01*
X15507911Y-13278189D02*
X15557911Y-13228189D01*
X15507911Y-13178189D01*
X15457911Y-13228189D01*
X15507911Y-13278189D01*
X15507911Y-13555189D02*
X15557911Y-13505189D01*
X15507911Y-13455189D01*
X15457911Y-13505189D01*
X15507911Y-13555189D01*
X15507911Y-13832189D02*
X15557911Y-13782189D01*
X15507911Y-13732189D01*
X15457911Y-13782189D01*
X15507911Y-13832189D01*
X15507911Y-14109189D02*
X15557911Y-14059189D01*
X15507911Y-14009189D01*
X15457911Y-14059189D01*
X15507911Y-14109189D01*
X15511811Y-1859189D02*
X15561811Y-1809189D01*
X15511811Y-1759189D01*
X15461811Y-1809189D01*
X15511811Y-1859189D01*
X15511811Y-2136189D02*
X15561811Y-2086189D01*
X15511811Y-2036189D01*
X15461811Y-2086189D01*
X15511811Y-2136189D01*
X15511811Y-2413189D02*
X15561811Y-2363189D01*
X15511811Y-2313189D01*
X15461811Y-2363189D01*
X15511811Y-2413189D01*
X15511811Y-2690189D02*
X15561811Y-2640189D01*
X15511811Y-2590189D01*
X15461811Y-2640189D01*
X15511811Y-2690189D01*
X15511811Y-2967189D02*
X15561811Y-2917189D01*
X15511811Y-2867189D01*
X15461811Y-2917189D01*
X15511811Y-2967189D01*
X15559878Y-9251189D02*
X15609878Y-9201189D01*
X15559878Y-9151189D01*
X15509878Y-9201189D01*
X15559878Y-9251189D01*
X15559878Y-9528189D02*
X15609878Y-9478189D01*
X15559878Y-9428189D01*
X15509878Y-9478189D01*
X15559878Y-9528189D01*
X15559878Y-9805189D02*
X15609878Y-9755189D01*
X15559878Y-9705189D01*
X15509878Y-9755189D01*
X15559878Y-9805189D01*
X15559878Y-10082189D02*
X15609878Y-10032189D01*
X15559878Y-9982189D01*
X15509878Y-10032189D01*
X15559878Y-10082189D01*
X15559878Y-10359189D02*
X15609878Y-10309189D01*
X15559878Y-10259189D01*
X15509878Y-10309189D01*
X15559878Y-10359189D01*
X15563778Y1890811D02*
X15613778Y1940811D01*
X15563778Y1990811D01*
X15513778Y1940811D01*
X15563778Y1890811D01*
X15563778Y1613811D02*
X15613778Y1663811D01*
X15563778Y1713811D01*
X15513778Y1663811D01*
X15563778Y1613811D01*
X15563778Y1336811D02*
X15613778Y1386811D01*
X15563778Y1436811D01*
X15513778Y1386811D01*
X15563778Y1336811D01*
X15563778Y1059811D02*
X15613778Y1109811D01*
X15563778Y1159811D01*
X15513778Y1109811D01*
X15563778Y1059811D01*
X15563778Y782811D02*
X15613778Y832811D01*
X15563778Y882811D01*
X15513778Y832811D01*
X15563778Y782811D01*
X15776567Y-16909689D02*
X15826567Y-16859689D01*
X15776567Y-16809689D01*
X15726567Y-16859689D01*
X15776567Y-16909689D01*
X15776567Y-17186689D02*
X15826567Y-17136689D01*
X15776567Y-17086689D01*
X15726567Y-17136689D01*
X15776567Y-17186689D01*
X15776567Y-17463689D02*
X15826567Y-17413689D01*
X15776567Y-17363689D01*
X15726567Y-17413689D01*
X15776567Y-17463689D01*
X15776567Y-17740689D02*
X15826567Y-17690689D01*
X15776567Y-17640689D01*
X15726567Y-17690689D01*
X15776567Y-17740689D01*
X15780467Y-5767689D02*
X15830467Y-5717689D01*
X15780467Y-5667689D01*
X15730467Y-5717689D01*
X15780467Y-5767689D01*
X15780467Y-6044689D02*
X15830467Y-5994689D01*
X15780467Y-5944689D01*
X15730467Y-5994689D01*
X15780467Y-6044689D01*
X15780467Y-6321689D02*
X15830467Y-6271689D01*
X15780467Y-6221689D01*
X15730467Y-6271689D01*
X15780467Y-6321689D01*
X15780467Y-6598689D02*
X15830467Y-6548689D01*
X15780467Y-6498689D01*
X15730467Y-6548689D01*
X15780467Y-6598689D01*
X15791911Y-13139689D02*
X15841911Y-13089689D01*
X15791911Y-13039689D01*
X15741911Y-13089689D01*
X15791911Y-13139689D01*
X15791911Y-13416689D02*
X15841911Y-13366689D01*
X15791911Y-13316689D01*
X15741911Y-13366689D01*
X15791911Y-13416689D01*
X15791911Y-13693689D02*
X15841911Y-13643689D01*
X15791911Y-13593689D01*
X15741911Y-13643689D01*
X15791911Y-13693689D01*
X15791911Y-13970689D02*
X15841911Y-13920689D01*
X15791911Y-13870689D01*
X15741911Y-13920689D01*
X15791911Y-13970689D01*
X15795811Y-1997689D02*
X15845811Y-1947689D01*
X15795811Y-1897689D01*
X15745811Y-1947689D01*
X15795811Y-1997689D01*
X15795811Y-2274689D02*
X15845811Y-2224689D01*
X15795811Y-2174689D01*
X15745811Y-2224689D01*
X15795811Y-2274689D01*
X15795811Y-2551689D02*
X15845811Y-2501689D01*
X15795811Y-2451689D01*
X15745811Y-2501689D01*
X15795811Y-2551689D01*
X15795811Y-2828689D02*
X15845811Y-2778689D01*
X15795811Y-2728689D01*
X15745811Y-2778689D01*
X15795811Y-2828689D01*
X15843878Y-9389689D02*
X15893878Y-9339689D01*
X15843878Y-9289689D01*
X15793878Y-9339689D01*
X15843878Y-9389689D01*
X15843878Y-9666689D02*
X15893878Y-9616689D01*
X15843878Y-9566689D01*
X15793878Y-9616689D01*
X15843878Y-9666689D01*
X15843878Y-9943689D02*
X15893878Y-9893689D01*
X15843878Y-9843689D01*
X15793878Y-9893689D01*
X15843878Y-9943689D01*
X15843878Y-10220689D02*
X15893878Y-10170689D01*
X15843878Y-10120689D01*
X15793878Y-10170689D01*
X15843878Y-10220689D01*
X15847778Y1752311D02*
X15897778Y1802311D01*
X15847778Y1852311D01*
X15797778Y1802311D01*
X15847778Y1752311D01*
X15847778Y1475311D02*
X15897778Y1525311D01*
X15847778Y1575311D01*
X15797778Y1525311D01*
X15847778Y1475311D01*
X15847778Y1198311D02*
X15897778Y1248311D01*
X15847778Y1298311D01*
X15797778Y1248311D01*
X15847778Y1198311D01*
X15847778Y921311D02*
X15897778Y971311D01*
X15847778Y1021311D01*
X15797778Y971311D01*
X15847778Y921311D01*
D18*
X7132511Y-11758789D02*
X7242511Y-11868789D01*
X7242511Y-11758789D02*
X7132511Y-11868789D01*
X7242511Y-11813789D02*
G75*
G03*
X7242511Y-11813789I-55000J0D01*
G01*
X7132511Y-12208789D02*
X7242511Y-12318789D01*
X7242511Y-12208789D02*
X7132511Y-12318789D01*
X7242511Y-12263789D02*
G75*
G03*
X7242511Y-12263789I-55000J0D01*
G01*
X7136411Y-616789D02*
X7246411Y-726789D01*
X7246411Y-616789D02*
X7136411Y-726789D01*
X7246411Y-671789D02*
G75*
G03*
X7246411Y-671789I-55000J0D01*
G01*
X7136411Y-1066789D02*
X7246411Y-1176789D01*
X7246411Y-1066789D02*
X7136411Y-1176789D01*
X7246411Y-1121789D02*
G75*
G03*
X7246411Y-1121789I-55000J0D01*
G01*
X7782511Y-11758789D02*
X7892511Y-11868789D01*
X7892511Y-11758789D02*
X7782511Y-11868789D01*
X7892511Y-11813789D02*
G75*
G03*
X7892511Y-11813789I-55000J0D01*
G01*
X7782511Y-12208789D02*
X7892511Y-12318789D01*
X7892511Y-12208789D02*
X7782511Y-12318789D01*
X7892511Y-12263789D02*
G75*
G03*
X7892511Y-12263789I-55000J0D01*
G01*
X7786411Y-616789D02*
X7896411Y-726789D01*
X7896411Y-616789D02*
X7786411Y-726789D01*
X7896411Y-671789D02*
G75*
G03*
X7896411Y-671789I-55000J0D01*
G01*
X7786411Y-1066789D02*
X7896411Y-1176789D01*
X7896411Y-1066789D02*
X7786411Y-1176789D01*
X7896411Y-1121789D02*
G75*
G03*
X7896411Y-1121789I-55000J0D01*
G01*
D19*
X8634511Y-8926650D02*
X8774511Y-9066650D01*
X8774511Y-8926650D02*
X8634511Y-9066650D01*
X8704511Y-8926650D02*
X8704511Y-9066650D01*
X8634511Y-8996650D02*
X8774511Y-8996650D01*
X8638411Y2215350D02*
X8778411Y2075350D01*
X8778411Y2215350D02*
X8638411Y2075350D01*
X8708411Y2215350D02*
X8708411Y2075350D01*
X8638411Y2145350D02*
X8778411Y2145350D01*
X9134511Y-8926650D02*
X9274511Y-9066650D01*
X9274511Y-8926650D02*
X9134511Y-9066650D01*
X9204511Y-8926650D02*
X9204511Y-9066650D01*
X9134511Y-8996650D02*
X9274511Y-8996650D01*
X9138411Y2215350D02*
X9278411Y2075350D01*
X9278411Y2215350D02*
X9138411Y2075350D01*
X9208411Y2215350D02*
X9208411Y2075350D01*
X9138411Y2145350D02*
X9278411Y2145350D01*
D20*
X8335100Y-9644500D02*
X8495100Y-9804500D01*
X8495100Y-9644500D02*
X8335100Y-9804500D01*
X8471669Y-9781069D02*
X8471669Y-9667931D01*
X8358531Y-9667931D01*
X8358531Y-9781069D01*
X8471669Y-9781069D01*
X8339000Y1497500D02*
X8499000Y1337500D01*
X8499000Y1497500D02*
X8339000Y1337500D01*
X8475569Y1360931D02*
X8475569Y1474069D01*
X8362431Y1474069D01*
X8362431Y1360931D01*
X8475569Y1360931D01*
X8817700Y-9644500D02*
X8977700Y-9804500D01*
X8977700Y-9644500D02*
X8817700Y-9804500D01*
X8954269Y-9781069D02*
X8954269Y-9667931D01*
X8841131Y-9667931D01*
X8841131Y-9781069D01*
X8954269Y-9781069D01*
X8821600Y1497500D02*
X8981600Y1337500D01*
X8981600Y1497500D02*
X8821600Y1337500D01*
X8958169Y1360931D02*
X8958169Y1474069D01*
X8845031Y1474069D01*
X8845031Y1360931D01*
X8958169Y1360931D01*
X9274900Y-9644500D02*
X9434900Y-9804500D01*
X9434900Y-9644500D02*
X9274900Y-9804500D01*
X9411469Y-9781069D02*
X9411469Y-9667931D01*
X9298331Y-9667931D01*
X9298331Y-9781069D01*
X9411469Y-9781069D01*
X9278800Y1497500D02*
X9438800Y1337500D01*
X9438800Y1497500D02*
X9278800Y1337500D01*
X9415369Y1360931D02*
X9415369Y1474069D01*
X9302231Y1474069D01*
X9302231Y1360931D01*
X9415369Y1360931D01*
X9744800Y-9644500D02*
X9904800Y-9804500D01*
X9904800Y-9644500D02*
X9744800Y-9804500D01*
X9881369Y-9781069D02*
X9881369Y-9667931D01*
X9768231Y-9667931D01*
X9768231Y-9781069D01*
X9881369Y-9781069D01*
X9748700Y1497500D02*
X9908700Y1337500D01*
X9908700Y1497500D02*
X9748700Y1337500D01*
X9885269Y1360931D02*
X9885269Y1474069D01*
X9772131Y1474069D01*
X9772131Y1360931D01*
X9885269Y1360931D01*
X10214700Y-9631800D02*
X10374700Y-9791800D01*
X10374700Y-9631800D02*
X10214700Y-9791800D01*
X10351269Y-9768369D02*
X10351269Y-9655231D01*
X10238131Y-9655231D01*
X10238131Y-9768369D01*
X10351269Y-9768369D01*
X10218600Y1510200D02*
X10378600Y1350200D01*
X10378600Y1510200D02*
X10218600Y1350200D01*
X10355169Y1373631D02*
X10355169Y1486769D01*
X10242031Y1486769D01*
X10242031Y1373631D01*
X10355169Y1373631D01*
D21*
X3776800Y-12929500D02*
X4096800Y-13249500D01*
X4096800Y-12929500D02*
X3776800Y-13249500D01*
X3936800Y-13249500D02*
X4096800Y-13089500D01*
X3936800Y-12929500D01*
X3776800Y-13089500D01*
X3936800Y-13249500D01*
X3780700Y-1787500D02*
X4100700Y-2107500D01*
X4100700Y-1787500D02*
X3780700Y-2107500D01*
X3940700Y-2107500D02*
X4100700Y-1947500D01*
X3940700Y-1787500D01*
X3780700Y-1947500D01*
X3940700Y-2107500D01*
X3822511Y-16308789D02*
X4142511Y-16628789D01*
X4142511Y-16308789D02*
X3822511Y-16628789D01*
X3982511Y-16628789D02*
X4142511Y-16468789D01*
X3982511Y-16308789D01*
X3822511Y-16468789D01*
X3982511Y-16628789D01*
X3826411Y-5166789D02*
X4146411Y-5486789D01*
X4146411Y-5166789D02*
X3826411Y-5486789D01*
X3986411Y-5486789D02*
X4146411Y-5326789D01*
X3986411Y-5166789D01*
X3826411Y-5326789D01*
X3986411Y-5486789D01*
X3926511Y-17642756D02*
X4246511Y-17962756D01*
X4246511Y-17642756D02*
X3926511Y-17962756D01*
X4086511Y-17962756D02*
X4246511Y-17802756D01*
X4086511Y-17642756D01*
X3926511Y-17802756D01*
X4086511Y-17962756D01*
X3930411Y-6500756D02*
X4250411Y-6820756D01*
X4250411Y-6500756D02*
X3930411Y-6820756D01*
X4090411Y-6820756D02*
X4250411Y-6660756D01*
X4090411Y-6500756D01*
X3930411Y-6660756D01*
X4090411Y-6820756D01*
X6426511Y-17642756D02*
X6746511Y-17962756D01*
X6746511Y-17642756D02*
X6426511Y-17962756D01*
X6586511Y-17962756D02*
X6746511Y-17802756D01*
X6586511Y-17642756D01*
X6426511Y-17802756D01*
X6586511Y-17962756D01*
X6430411Y-6500756D02*
X6750411Y-6820756D01*
X6750411Y-6500756D02*
X6430411Y-6820756D01*
X6590411Y-6820756D02*
X6750411Y-6660756D01*
X6590411Y-6500756D01*
X6430411Y-6660756D01*
X6590411Y-6820756D01*
X7551511Y-17692756D02*
X7871511Y-18012756D01*
X7871511Y-17692756D02*
X7551511Y-18012756D01*
X7711511Y-18012756D02*
X7871511Y-17852756D01*
X7711511Y-17692756D01*
X7551511Y-17852756D01*
X7711511Y-18012756D01*
X7555411Y-6550756D02*
X7875411Y-6870756D01*
X7875411Y-6550756D02*
X7555411Y-6870756D01*
X7715411Y-6870756D02*
X7875411Y-6710756D01*
X7715411Y-6550756D01*
X7555411Y-6710756D01*
X7715411Y-6870756D01*
X10051511Y-17692756D02*
X10371511Y-18012756D01*
X10371511Y-17692756D02*
X10051511Y-18012756D01*
X10211511Y-18012756D02*
X10371511Y-17852756D01*
X10211511Y-17692756D01*
X10051511Y-17852756D01*
X10211511Y-18012756D01*
X10055411Y-6550756D02*
X10375411Y-6870756D01*
X10375411Y-6550756D02*
X10055411Y-6870756D01*
X10215411Y-6870756D02*
X10375411Y-6710756D01*
X10215411Y-6550756D01*
X10055411Y-6710756D01*
X10215411Y-6870756D01*
X11261511Y-17697756D02*
X11581511Y-18017756D01*
X11581511Y-17697756D02*
X11261511Y-18017756D01*
X11421511Y-18017756D02*
X11581511Y-17857756D01*
X11421511Y-17697756D01*
X11261511Y-17857756D01*
X11421511Y-18017756D01*
X11265411Y-6555756D02*
X11585411Y-6875756D01*
X11585411Y-6555756D02*
X11265411Y-6875756D01*
X11425411Y-6875756D02*
X11585411Y-6715756D01*
X11425411Y-6555756D01*
X11265411Y-6715756D01*
X11425411Y-6875756D01*
X13761511Y-17697756D02*
X14081511Y-18017756D01*
X14081511Y-17697756D02*
X13761511Y-18017756D01*
X13921511Y-18017756D02*
X14081511Y-17857756D01*
X13921511Y-17697756D01*
X13761511Y-17857756D01*
X13921511Y-18017756D01*
X13765411Y-6555756D02*
X14085411Y-6875756D01*
X14085411Y-6555756D02*
X13765411Y-6875756D01*
X13925411Y-6875756D02*
X14085411Y-6715756D01*
X13925411Y-6555756D01*
X13765411Y-6715756D01*
X13925411Y-6875756D01*
X14571800Y-17839500D02*
X14891800Y-18159500D01*
X14891800Y-17839500D02*
X14571800Y-18159500D01*
X14731800Y-18159500D02*
X14891800Y-17999500D01*
X14731800Y-17839500D01*
X14571800Y-17999500D01*
X14731800Y-18159500D01*
X14575700Y-6697500D02*
X14895700Y-7017500D01*
X14895700Y-6697500D02*
X14575700Y-7017500D01*
X14735700Y-7017500D02*
X14895700Y-6857500D01*
X14735700Y-6697500D01*
X14575700Y-6857500D01*
X14735700Y-7017500D01*
X14744800Y-8573900D02*
X15064800Y-8893900D01*
X15064800Y-8573900D02*
X14744800Y-8893900D01*
X14904800Y-8893900D02*
X15064800Y-8733900D01*
X14904800Y-8573900D01*
X14744800Y-8733900D01*
X14904800Y-8893900D01*
X14748700Y2568100D02*
X15068700Y2248100D01*
X15068700Y2568100D02*
X14748700Y2248100D01*
X14908700Y2248100D02*
X15068700Y2408100D01*
X14908700Y2568100D01*
X14748700Y2408100D01*
X14908700Y2248100D01*
X15474567Y-15865189D02*
X15794567Y-16185189D01*
X15794567Y-15865189D02*
X15474567Y-16185189D01*
X15634567Y-16185189D02*
X15794567Y-16025189D01*
X15634567Y-15865189D01*
X15474567Y-16025189D01*
X15634567Y-16185189D01*
X15474567Y-18365189D02*
X15794567Y-18685189D01*
X15794567Y-18365189D02*
X15474567Y-18685189D01*
X15634567Y-18685189D02*
X15794567Y-18525189D01*
X15634567Y-18365189D01*
X15474567Y-18525189D01*
X15634567Y-18685189D01*
X15478467Y-4723189D02*
X15798467Y-5043189D01*
X15798467Y-4723189D02*
X15478467Y-5043189D01*
X15638467Y-5043189D02*
X15798467Y-4883189D01*
X15638467Y-4723189D01*
X15478467Y-4883189D01*
X15638467Y-5043189D01*
X15478467Y-7223189D02*
X15798467Y-7543189D01*
X15798467Y-7223189D02*
X15478467Y-7543189D01*
X15638467Y-7543189D02*
X15798467Y-7383189D01*
X15638467Y-7223189D01*
X15478467Y-7383189D01*
X15638467Y-7543189D01*
X15489911Y-12095189D02*
X15809911Y-12415189D01*
X15809911Y-12095189D02*
X15489911Y-12415189D01*
X15649911Y-12415189D02*
X15809911Y-12255189D01*
X15649911Y-12095189D01*
X15489911Y-12255189D01*
X15649911Y-12415189D01*
X15489911Y-14595189D02*
X15809911Y-14915189D01*
X15809911Y-14595189D02*
X15489911Y-14915189D01*
X15649911Y-14915189D02*
X15809911Y-14755189D01*
X15649911Y-14595189D01*
X15489911Y-14755189D01*
X15649911Y-14915189D01*
X15493811Y-953189D02*
X15813811Y-1273189D01*
X15813811Y-953189D02*
X15493811Y-1273189D01*
X15653811Y-1273189D02*
X15813811Y-1113189D01*
X15653811Y-953189D01*
X15493811Y-1113189D01*
X15653811Y-1273189D01*
X15493811Y-3453189D02*
X15813811Y-3773189D01*
X15813811Y-3453189D02*
X15493811Y-3773189D01*
X15653811Y-3773189D02*
X15813811Y-3613189D01*
X15653811Y-3453189D01*
X15493811Y-3613189D01*
X15653811Y-3773189D01*
X15541878Y-8345189D02*
X15861878Y-8665189D01*
X15861878Y-8345189D02*
X15541878Y-8665189D01*
X15701878Y-8665189D02*
X15861878Y-8505189D01*
X15701878Y-8345189D01*
X15541878Y-8505189D01*
X15701878Y-8665189D01*
X15541878Y-10845189D02*
X15861878Y-11165189D01*
X15861878Y-10845189D02*
X15541878Y-11165189D01*
X15701878Y-11165189D02*
X15861878Y-11005189D01*
X15701878Y-10845189D01*
X15541878Y-11005189D01*
X15701878Y-11165189D01*
X15545778Y2796811D02*
X15865778Y2476811D01*
X15865778Y2796811D02*
X15545778Y2476811D01*
X15705778Y2476811D02*
X15865778Y2636811D01*
X15705778Y2796811D01*
X15545778Y2636811D01*
X15705778Y2476811D01*
X15545778Y296811D02*
X15865778Y-23189D01*
X15865778Y296811D02*
X15545778Y-23189D01*
X15705778Y-23189D02*
X15865778Y136811D01*
X15705778Y296811D01*
X15545778Y136811D01*
X15705778Y-23189D01*
D12*
X3614991Y-19172476D02*
X3614991Y-18972476D01*
X3662610Y-18972476D01*
X3691181Y-18982000D01*
X3710229Y-19001048D01*
X3719753Y-19020095D01*
X3729276Y-19058190D01*
X3729276Y-19086762D01*
X3719753Y-19124857D01*
X3710229Y-19143905D01*
X3691181Y-19162952D01*
X3662610Y-19172476D01*
X3614991Y-19172476D01*
X3814991Y-19172476D02*
X3814991Y-19039143D01*
X3814991Y-19077238D02*
X3824514Y-19058190D01*
X3834038Y-19048667D01*
X3853086Y-19039143D01*
X3872134Y-19039143D01*
X3938800Y-19172476D02*
X3938800Y-19039143D01*
X3938800Y-18972476D02*
X3929276Y-18982000D01*
X3938800Y-18991524D01*
X3948324Y-18982000D01*
X3938800Y-18972476D01*
X3938800Y-18991524D01*
X4062610Y-19172476D02*
X4043562Y-19162952D01*
X4034038Y-19143905D01*
X4034038Y-18972476D01*
X4167372Y-19172476D02*
X4148324Y-19162952D01*
X4138800Y-19143905D01*
X4138800Y-18972476D01*
X4395943Y-19172476D02*
X4395943Y-18972476D01*
X4462610Y-19115333D01*
X4529276Y-18972476D01*
X4529276Y-19172476D01*
X4710229Y-19172476D02*
X4710229Y-19067714D01*
X4700705Y-19048667D01*
X4681657Y-19039143D01*
X4643562Y-19039143D01*
X4624515Y-19048667D01*
X4710229Y-19162952D02*
X4691181Y-19172476D01*
X4643562Y-19172476D01*
X4624515Y-19162952D01*
X4614991Y-19143905D01*
X4614991Y-19124857D01*
X4624515Y-19105810D01*
X4643562Y-19096286D01*
X4691181Y-19096286D01*
X4710229Y-19086762D01*
X4805467Y-19039143D02*
X4805467Y-19239143D01*
X4805467Y-19048667D02*
X4824515Y-19039143D01*
X4862610Y-19039143D01*
X4881657Y-19048667D01*
X4891181Y-19058190D01*
X4900705Y-19077238D01*
X4900705Y-19134381D01*
X4891181Y-19153429D01*
X4881657Y-19162952D01*
X4862610Y-19172476D01*
X4824515Y-19172476D01*
X4805467Y-19162952D01*
X4986419Y-19153429D02*
X4995943Y-19162952D01*
X4986419Y-19172476D01*
X4976896Y-19162952D01*
X4986419Y-19153429D01*
X4986419Y-19172476D01*
X4986419Y-19048667D02*
X4995943Y-19058190D01*
X4986419Y-19067714D01*
X4976896Y-19058190D01*
X4986419Y-19048667D01*
X4986419Y-19067714D01*
D13*
X3317372Y-19482000D02*
X3357372Y-19522000D01*
X3357372Y-19482000D02*
X3317372Y-19522000D01*
D12*
X3653086Y-19392476D02*
X3672134Y-19392476D01*
X3691181Y-19402000D01*
X3700705Y-19411524D01*
X3710229Y-19430571D01*
X3719753Y-19468667D01*
X3719753Y-19516286D01*
X3710229Y-19554381D01*
X3700705Y-19573429D01*
X3691181Y-19582952D01*
X3672134Y-19592476D01*
X3653086Y-19592476D01*
X3634038Y-19582952D01*
X3624514Y-19573429D01*
X3614991Y-19554381D01*
X3605467Y-19516286D01*
X3605467Y-19468667D01*
X3614991Y-19430571D01*
X3624514Y-19411524D01*
X3634038Y-19402000D01*
X3653086Y-19392476D01*
X3805467Y-19573429D02*
X3814991Y-19582952D01*
X3805467Y-19592476D01*
X3795943Y-19582952D01*
X3805467Y-19573429D01*
X3805467Y-19592476D01*
X3986419Y-19459143D02*
X3986419Y-19592476D01*
X3938800Y-19382952D02*
X3891181Y-19525810D01*
X4014991Y-19525810D01*
X4129276Y-19392476D02*
X4148324Y-19392476D01*
X4167372Y-19402000D01*
X4176895Y-19411524D01*
X4186419Y-19430571D01*
X4195943Y-19468667D01*
X4195943Y-19516286D01*
X4186419Y-19554381D01*
X4176895Y-19573429D01*
X4167372Y-19582952D01*
X4148324Y-19592476D01*
X4129276Y-19592476D01*
X4110229Y-19582952D01*
X4100705Y-19573429D01*
X4091181Y-19554381D01*
X4081657Y-19516286D01*
X4081657Y-19468667D01*
X4091181Y-19430571D01*
X4100705Y-19411524D01*
X4110229Y-19402000D01*
X4129276Y-19392476D01*
X4319753Y-19392476D02*
X4338800Y-19392476D01*
X4357848Y-19402000D01*
X4367372Y-19411524D01*
X4376896Y-19430571D01*
X4386419Y-19468667D01*
X4386419Y-19516286D01*
X4376896Y-19554381D01*
X4367372Y-19573429D01*
X4357848Y-19582952D01*
X4338800Y-19592476D01*
X4319753Y-19592476D01*
X4300705Y-19582952D01*
X4291181Y-19573429D01*
X4281657Y-19554381D01*
X4272134Y-19516286D01*
X4272134Y-19468667D01*
X4281657Y-19430571D01*
X4291181Y-19411524D01*
X4300705Y-19402000D01*
X4319753Y-19392476D01*
X4472134Y-19592476D02*
X4472134Y-19459143D01*
X4472134Y-19478190D02*
X4481657Y-19468667D01*
X4500705Y-19459143D01*
X4529276Y-19459143D01*
X4548324Y-19468667D01*
X4557848Y-19487714D01*
X4557848Y-19592476D01*
X4557848Y-19487714D02*
X4567372Y-19468667D01*
X4586419Y-19459143D01*
X4614991Y-19459143D01*
X4634038Y-19468667D01*
X4643562Y-19487714D01*
X4643562Y-19592476D01*
X4738800Y-19592476D02*
X4738800Y-19459143D01*
X4738800Y-19478190D02*
X4748324Y-19468667D01*
X4767372Y-19459143D01*
X4795943Y-19459143D01*
X4814991Y-19468667D01*
X4824515Y-19487714D01*
X4824515Y-19592476D01*
X4824515Y-19487714D02*
X4834038Y-19468667D01*
X4853086Y-19459143D01*
X4881657Y-19459143D01*
X4900705Y-19468667D01*
X4910229Y-19487714D01*
X4910229Y-19592476D01*
X5300705Y-19382952D02*
X5129276Y-19640095D01*
X5557848Y-19392476D02*
X5576896Y-19392476D01*
X5595943Y-19402000D01*
X5605467Y-19411524D01*
X5614991Y-19430571D01*
X5624514Y-19468667D01*
X5624514Y-19516286D01*
X5614991Y-19554381D01*
X5605467Y-19573429D01*
X5595943Y-19582952D01*
X5576896Y-19592476D01*
X5557848Y-19592476D01*
X5538800Y-19582952D01*
X5529276Y-19573429D01*
X5519753Y-19554381D01*
X5510229Y-19516286D01*
X5510229Y-19468667D01*
X5519753Y-19430571D01*
X5529276Y-19411524D01*
X5538800Y-19402000D01*
X5557848Y-19392476D01*
X5710229Y-19573429D02*
X5719753Y-19582952D01*
X5710229Y-19592476D01*
X5700705Y-19582952D01*
X5710229Y-19573429D01*
X5710229Y-19592476D01*
X5843562Y-19392476D02*
X5862610Y-19392476D01*
X5881657Y-19402000D01*
X5891181Y-19411524D01*
X5900705Y-19430571D01*
X5910229Y-19468667D01*
X5910229Y-19516286D01*
X5900705Y-19554381D01*
X5891181Y-19573429D01*
X5881657Y-19582952D01*
X5862610Y-19592476D01*
X5843562Y-19592476D01*
X5824514Y-19582952D01*
X5814991Y-19573429D01*
X5805467Y-19554381D01*
X5795943Y-19516286D01*
X5795943Y-19468667D01*
X5805467Y-19430571D01*
X5814991Y-19411524D01*
X5824514Y-19402000D01*
X5843562Y-19392476D01*
X6100705Y-19592476D02*
X5986419Y-19592476D01*
X6043562Y-19592476D02*
X6043562Y-19392476D01*
X6024514Y-19421048D01*
X6005467Y-19440095D01*
X5986419Y-19449619D01*
X6281657Y-19392476D02*
X6186419Y-19392476D01*
X6176895Y-19487714D01*
X6186419Y-19478190D01*
X6205467Y-19468667D01*
X6253086Y-19468667D01*
X6272134Y-19478190D01*
X6281657Y-19487714D01*
X6291181Y-19506762D01*
X6291181Y-19554381D01*
X6281657Y-19573429D01*
X6272134Y-19582952D01*
X6253086Y-19592476D01*
X6205467Y-19592476D01*
X6186419Y-19582952D01*
X6176895Y-19573429D01*
X6357848Y-19392476D02*
X6491181Y-19392476D01*
X6405467Y-19592476D01*
X6557848Y-19392476D02*
X6557848Y-19430571D01*
X6634038Y-19392476D02*
X6634038Y-19430571D01*
X6929276Y-19668667D02*
X6919753Y-19659143D01*
X6900705Y-19630571D01*
X6891181Y-19611524D01*
X6881657Y-19582952D01*
X6872134Y-19535333D01*
X6872134Y-19497238D01*
X6881657Y-19449619D01*
X6891181Y-19421048D01*
X6900705Y-19402000D01*
X6919753Y-19373429D01*
X6929276Y-19363905D01*
X6995943Y-19411524D02*
X7005467Y-19402000D01*
X7024514Y-19392476D01*
X7072134Y-19392476D01*
X7091181Y-19402000D01*
X7100705Y-19411524D01*
X7110229Y-19430571D01*
X7110229Y-19449619D01*
X7100705Y-19478190D01*
X6986419Y-19592476D01*
X7110229Y-19592476D01*
X7300705Y-19592476D02*
X7186419Y-19592476D01*
X7243562Y-19592476D02*
X7243562Y-19392476D01*
X7224514Y-19421048D01*
X7205467Y-19440095D01*
X7186419Y-19449619D01*
X7414991Y-19478190D02*
X7395943Y-19468667D01*
X7386419Y-19459143D01*
X7376895Y-19440095D01*
X7376895Y-19430571D01*
X7386419Y-19411524D01*
X7395943Y-19402000D01*
X7414991Y-19392476D01*
X7453086Y-19392476D01*
X7472134Y-19402000D01*
X7481657Y-19411524D01*
X7491181Y-19430571D01*
X7491181Y-19440095D01*
X7481657Y-19459143D01*
X7472134Y-19468667D01*
X7453086Y-19478190D01*
X7414991Y-19478190D01*
X7395943Y-19487714D01*
X7386419Y-19497238D01*
X7376895Y-19516286D01*
X7376895Y-19554381D01*
X7386419Y-19573429D01*
X7395943Y-19582952D01*
X7414991Y-19592476D01*
X7453086Y-19592476D01*
X7472134Y-19582952D01*
X7481657Y-19573429D01*
X7491181Y-19554381D01*
X7491181Y-19516286D01*
X7481657Y-19497238D01*
X7472134Y-19487714D01*
X7453086Y-19478190D01*
X7729276Y-19592476D02*
X7729276Y-19392476D01*
X7814991Y-19592476D02*
X7814991Y-19487714D01*
X7805467Y-19468667D01*
X7786419Y-19459143D01*
X7757848Y-19459143D01*
X7738800Y-19468667D01*
X7729276Y-19478190D01*
X7938800Y-19592476D02*
X7919753Y-19582952D01*
X7910229Y-19573429D01*
X7900705Y-19554381D01*
X7900705Y-19497238D01*
X7910229Y-19478190D01*
X7919753Y-19468667D01*
X7938800Y-19459143D01*
X7967372Y-19459143D01*
X7986419Y-19468667D01*
X7995943Y-19478190D01*
X8005467Y-19497238D01*
X8005467Y-19554381D01*
X7995943Y-19573429D01*
X7986419Y-19582952D01*
X7967372Y-19592476D01*
X7938800Y-19592476D01*
X8119753Y-19592476D02*
X8100705Y-19582952D01*
X8091181Y-19563905D01*
X8091181Y-19392476D01*
X8272134Y-19582952D02*
X8253086Y-19592476D01*
X8214991Y-19592476D01*
X8195943Y-19582952D01*
X8186419Y-19563905D01*
X8186419Y-19487714D01*
X8195943Y-19468667D01*
X8214991Y-19459143D01*
X8253086Y-19459143D01*
X8272134Y-19468667D01*
X8281657Y-19487714D01*
X8281657Y-19506762D01*
X8186419Y-19525810D01*
X8357848Y-19582952D02*
X8376895Y-19592476D01*
X8414991Y-19592476D01*
X8434038Y-19582952D01*
X8443562Y-19563905D01*
X8443562Y-19554381D01*
X8434038Y-19535333D01*
X8414991Y-19525810D01*
X8386419Y-19525810D01*
X8367372Y-19516286D01*
X8357848Y-19497238D01*
X8357848Y-19487714D01*
X8367372Y-19468667D01*
X8386419Y-19459143D01*
X8414991Y-19459143D01*
X8434038Y-19468667D01*
X8510229Y-19668667D02*
X8519753Y-19659143D01*
X8538800Y-19630571D01*
X8548324Y-19611524D01*
X8557848Y-19582952D01*
X8567372Y-19535333D01*
X8567372Y-19497238D01*
X8557848Y-19449619D01*
X8548324Y-19421048D01*
X8538800Y-19402000D01*
X8519753Y-19373429D01*
X8510229Y-19363905D01*
D14*
X3357372Y-19766000D02*
G75*
G03*
X3357372Y-19766000I-38100J0D01*
G01*
D12*
X3653086Y-19656476D02*
X3672134Y-19656476D01*
X3691181Y-19666000D01*
X3700705Y-19675524D01*
X3710229Y-19694571D01*
X3719753Y-19732667D01*
X3719753Y-19780286D01*
X3710229Y-19818381D01*
X3700705Y-19837429D01*
X3691181Y-19846952D01*
X3672134Y-19856476D01*
X3653086Y-19856476D01*
X3634038Y-19846952D01*
X3624514Y-19837429D01*
X3614991Y-19818381D01*
X3605467Y-19780286D01*
X3605467Y-19732667D01*
X3614991Y-19694571D01*
X3624514Y-19675524D01*
X3634038Y-19666000D01*
X3653086Y-19656476D01*
X3805467Y-19837429D02*
X3814991Y-19846952D01*
X3805467Y-19856476D01*
X3795943Y-19846952D01*
X3805467Y-19837429D01*
X3805467Y-19856476D01*
X3881657Y-19656476D02*
X4014991Y-19656476D01*
X3929276Y-19856476D01*
X4176895Y-19656476D02*
X4138800Y-19656476D01*
X4119753Y-19666000D01*
X4110229Y-19675524D01*
X4091181Y-19704095D01*
X4081657Y-19742190D01*
X4081657Y-19818381D01*
X4091181Y-19837429D01*
X4100705Y-19846952D01*
X4119753Y-19856476D01*
X4157848Y-19856476D01*
X4176895Y-19846952D01*
X4186419Y-19837429D01*
X4195943Y-19818381D01*
X4195943Y-19770762D01*
X4186419Y-19751714D01*
X4176895Y-19742190D01*
X4157848Y-19732667D01*
X4119753Y-19732667D01*
X4100705Y-19742190D01*
X4091181Y-19751714D01*
X4081657Y-19770762D01*
X4272134Y-19675524D02*
X4281657Y-19666000D01*
X4300705Y-19656476D01*
X4348324Y-19656476D01*
X4367372Y-19666000D01*
X4376896Y-19675524D01*
X4386419Y-19694571D01*
X4386419Y-19713619D01*
X4376896Y-19742190D01*
X4262610Y-19856476D01*
X4386419Y-19856476D01*
X4472134Y-19856476D02*
X4472134Y-19723143D01*
X4472134Y-19742190D02*
X4481657Y-19732667D01*
X4500705Y-19723143D01*
X4529276Y-19723143D01*
X4548324Y-19732667D01*
X4557848Y-19751714D01*
X4557848Y-19856476D01*
X4557848Y-19751714D02*
X4567372Y-19732667D01*
X4586419Y-19723143D01*
X4614991Y-19723143D01*
X4634038Y-19732667D01*
X4643562Y-19751714D01*
X4643562Y-19856476D01*
X4738800Y-19856476D02*
X4738800Y-19723143D01*
X4738800Y-19742190D02*
X4748324Y-19732667D01*
X4767372Y-19723143D01*
X4795943Y-19723143D01*
X4814991Y-19732667D01*
X4824515Y-19751714D01*
X4824515Y-19856476D01*
X4824515Y-19751714D02*
X4834038Y-19732667D01*
X4853086Y-19723143D01*
X4881657Y-19723143D01*
X4900705Y-19732667D01*
X4910229Y-19751714D01*
X4910229Y-19856476D01*
X5300705Y-19646952D02*
X5129276Y-19904095D01*
X5557848Y-19656476D02*
X5576896Y-19656476D01*
X5595943Y-19666000D01*
X5605467Y-19675524D01*
X5614991Y-19694571D01*
X5624514Y-19732667D01*
X5624514Y-19780286D01*
X5614991Y-19818381D01*
X5605467Y-19837429D01*
X5595943Y-19846952D01*
X5576896Y-19856476D01*
X5557848Y-19856476D01*
X5538800Y-19846952D01*
X5529276Y-19837429D01*
X5519753Y-19818381D01*
X5510229Y-19780286D01*
X5510229Y-19732667D01*
X5519753Y-19694571D01*
X5529276Y-19675524D01*
X5538800Y-19666000D01*
X5557848Y-19656476D01*
X5710229Y-19837429D02*
X5719753Y-19846952D01*
X5710229Y-19856476D01*
X5700705Y-19846952D01*
X5710229Y-19837429D01*
X5710229Y-19856476D01*
X5843562Y-19656476D02*
X5862610Y-19656476D01*
X5881657Y-19666000D01*
X5891181Y-19675524D01*
X5900705Y-19694571D01*
X5910229Y-19732667D01*
X5910229Y-19780286D01*
X5900705Y-19818381D01*
X5891181Y-19837429D01*
X5881657Y-19846952D01*
X5862610Y-19856476D01*
X5843562Y-19856476D01*
X5824514Y-19846952D01*
X5814991Y-19837429D01*
X5805467Y-19818381D01*
X5795943Y-19780286D01*
X5795943Y-19732667D01*
X5805467Y-19694571D01*
X5814991Y-19675524D01*
X5824514Y-19666000D01*
X5843562Y-19656476D01*
X5976895Y-19656476D02*
X6100705Y-19656476D01*
X6034038Y-19732667D01*
X6062610Y-19732667D01*
X6081657Y-19742190D01*
X6091181Y-19751714D01*
X6100705Y-19770762D01*
X6100705Y-19818381D01*
X6091181Y-19837429D01*
X6081657Y-19846952D01*
X6062610Y-19856476D01*
X6005467Y-19856476D01*
X5986419Y-19846952D01*
X5976895Y-19837429D01*
X6224514Y-19656476D02*
X6243562Y-19656476D01*
X6262610Y-19666000D01*
X6272134Y-19675524D01*
X6281657Y-19694571D01*
X6291181Y-19732667D01*
X6291181Y-19780286D01*
X6281657Y-19818381D01*
X6272134Y-19837429D01*
X6262610Y-19846952D01*
X6243562Y-19856476D01*
X6224514Y-19856476D01*
X6205467Y-19846952D01*
X6195943Y-19837429D01*
X6186419Y-19818381D01*
X6176895Y-19780286D01*
X6176895Y-19732667D01*
X6186419Y-19694571D01*
X6195943Y-19675524D01*
X6205467Y-19666000D01*
X6224514Y-19656476D01*
X6414991Y-19656476D02*
X6434038Y-19656476D01*
X6453086Y-19666000D01*
X6462610Y-19675524D01*
X6472134Y-19694571D01*
X6481657Y-19732667D01*
X6481657Y-19780286D01*
X6472134Y-19818381D01*
X6462610Y-19837429D01*
X6453086Y-19846952D01*
X6434038Y-19856476D01*
X6414991Y-19856476D01*
X6395943Y-19846952D01*
X6386419Y-19837429D01*
X6376895Y-19818381D01*
X6367372Y-19780286D01*
X6367372Y-19732667D01*
X6376895Y-19694571D01*
X6386419Y-19675524D01*
X6395943Y-19666000D01*
X6414991Y-19656476D01*
X6557848Y-19656476D02*
X6557848Y-19694571D01*
X6634038Y-19656476D02*
X6634038Y-19694571D01*
X6929276Y-19932667D02*
X6919753Y-19923143D01*
X6900705Y-19894571D01*
X6891181Y-19875524D01*
X6881657Y-19846952D01*
X6872134Y-19799333D01*
X6872134Y-19761238D01*
X6881657Y-19713619D01*
X6891181Y-19685048D01*
X6900705Y-19666000D01*
X6919753Y-19637429D01*
X6929276Y-19627905D01*
X7034038Y-19742190D02*
X7014991Y-19732667D01*
X7005467Y-19723143D01*
X6995943Y-19704095D01*
X6995943Y-19694571D01*
X7005467Y-19675524D01*
X7014991Y-19666000D01*
X7034038Y-19656476D01*
X7072134Y-19656476D01*
X7091181Y-19666000D01*
X7100705Y-19675524D01*
X7110229Y-19694571D01*
X7110229Y-19704095D01*
X7100705Y-19723143D01*
X7091181Y-19732667D01*
X7072134Y-19742190D01*
X7034038Y-19742190D01*
X7014991Y-19751714D01*
X7005467Y-19761238D01*
X6995943Y-19780286D01*
X6995943Y-19818381D01*
X7005467Y-19837429D01*
X7014991Y-19846952D01*
X7034038Y-19856476D01*
X7072134Y-19856476D01*
X7091181Y-19846952D01*
X7100705Y-19837429D01*
X7110229Y-19818381D01*
X7110229Y-19780286D01*
X7100705Y-19761238D01*
X7091181Y-19751714D01*
X7072134Y-19742190D01*
X7348324Y-19856476D02*
X7348324Y-19656476D01*
X7434038Y-19856476D02*
X7434038Y-19751714D01*
X7424514Y-19732667D01*
X7405467Y-19723143D01*
X7376895Y-19723143D01*
X7357848Y-19732667D01*
X7348324Y-19742190D01*
X7557848Y-19856476D02*
X7538800Y-19846952D01*
X7529276Y-19837429D01*
X7519753Y-19818381D01*
X7519753Y-19761238D01*
X7529276Y-19742190D01*
X7538800Y-19732667D01*
X7557848Y-19723143D01*
X7586419Y-19723143D01*
X7605467Y-19732667D01*
X7614991Y-19742190D01*
X7624514Y-19761238D01*
X7624514Y-19818381D01*
X7614991Y-19837429D01*
X7605467Y-19846952D01*
X7586419Y-19856476D01*
X7557848Y-19856476D01*
X7738800Y-19856476D02*
X7719753Y-19846952D01*
X7710229Y-19827905D01*
X7710229Y-19656476D01*
X7891181Y-19846952D02*
X7872134Y-19856476D01*
X7834038Y-19856476D01*
X7814991Y-19846952D01*
X7805467Y-19827905D01*
X7805467Y-19751714D01*
X7814991Y-19732667D01*
X7834038Y-19723143D01*
X7872134Y-19723143D01*
X7891181Y-19732667D01*
X7900705Y-19751714D01*
X7900705Y-19770762D01*
X7805467Y-19789810D01*
X7976895Y-19846952D02*
X7995943Y-19856476D01*
X8034038Y-19856476D01*
X8053086Y-19846952D01*
X8062610Y-19827905D01*
X8062610Y-19818381D01*
X8053086Y-19799333D01*
X8034038Y-19789810D01*
X8005467Y-19789810D01*
X7986419Y-19780286D01*
X7976895Y-19761238D01*
X7976895Y-19751714D01*
X7986419Y-19732667D01*
X8005467Y-19723143D01*
X8034038Y-19723143D01*
X8053086Y-19732667D01*
X8129276Y-19932667D02*
X8138800Y-19923143D01*
X8157848Y-19894571D01*
X8167372Y-19875524D01*
X8176895Y-19846952D01*
X8186419Y-19799333D01*
X8186419Y-19761238D01*
X8176895Y-19713619D01*
X8167372Y-19685048D01*
X8157848Y-19666000D01*
X8138800Y-19637429D01*
X8129276Y-19627905D01*
D15*
X3317494Y-19990122D02*
X3317494Y-20069878D01*
X3277616Y-20030000D02*
X3357372Y-20030000D01*
D12*
X3653086Y-19920476D02*
X3672134Y-19920476D01*
X3691181Y-19930000D01*
X3700705Y-19939524D01*
X3710229Y-19958571D01*
X3719753Y-19996667D01*
X3719753Y-20044286D01*
X3710229Y-20082381D01*
X3700705Y-20101429D01*
X3691181Y-20110952D01*
X3672134Y-20120476D01*
X3653086Y-20120476D01*
X3634038Y-20110952D01*
X3624514Y-20101429D01*
X3614991Y-20082381D01*
X3605467Y-20044286D01*
X3605467Y-19996667D01*
X3614991Y-19958571D01*
X3624514Y-19939524D01*
X3634038Y-19930000D01*
X3653086Y-19920476D01*
X3805467Y-20101429D02*
X3814991Y-20110952D01*
X3805467Y-20120476D01*
X3795943Y-20110952D01*
X3805467Y-20101429D01*
X3805467Y-20120476D01*
X3881657Y-19920476D02*
X4014991Y-19920476D01*
X3929276Y-20120476D01*
X4100705Y-20120476D02*
X4138800Y-20120476D01*
X4157848Y-20110952D01*
X4167372Y-20101429D01*
X4186419Y-20072857D01*
X4195943Y-20034762D01*
X4195943Y-19958571D01*
X4186419Y-19939524D01*
X4176895Y-19930000D01*
X4157848Y-19920476D01*
X4119753Y-19920476D01*
X4100705Y-19930000D01*
X4091181Y-19939524D01*
X4081657Y-19958571D01*
X4081657Y-20006190D01*
X4091181Y-20025238D01*
X4100705Y-20034762D01*
X4119753Y-20044286D01*
X4157848Y-20044286D01*
X4176895Y-20034762D01*
X4186419Y-20025238D01*
X4195943Y-20006190D01*
X4310229Y-20006190D02*
X4291181Y-19996667D01*
X4281657Y-19987143D01*
X4272134Y-19968095D01*
X4272134Y-19958571D01*
X4281657Y-19939524D01*
X4291181Y-19930000D01*
X4310229Y-19920476D01*
X4348324Y-19920476D01*
X4367372Y-19930000D01*
X4376896Y-19939524D01*
X4386419Y-19958571D01*
X4386419Y-19968095D01*
X4376896Y-19987143D01*
X4367372Y-19996667D01*
X4348324Y-20006190D01*
X4310229Y-20006190D01*
X4291181Y-20015714D01*
X4281657Y-20025238D01*
X4272134Y-20044286D01*
X4272134Y-20082381D01*
X4281657Y-20101429D01*
X4291181Y-20110952D01*
X4310229Y-20120476D01*
X4348324Y-20120476D01*
X4367372Y-20110952D01*
X4376896Y-20101429D01*
X4386419Y-20082381D01*
X4386419Y-20044286D01*
X4376896Y-20025238D01*
X4367372Y-20015714D01*
X4348324Y-20006190D01*
X4472134Y-20120476D02*
X4472134Y-19987143D01*
X4472134Y-20006190D02*
X4481657Y-19996667D01*
X4500705Y-19987143D01*
X4529276Y-19987143D01*
X4548324Y-19996667D01*
X4557848Y-20015714D01*
X4557848Y-20120476D01*
X4557848Y-20015714D02*
X4567372Y-19996667D01*
X4586419Y-19987143D01*
X4614991Y-19987143D01*
X4634038Y-19996667D01*
X4643562Y-20015714D01*
X4643562Y-20120476D01*
X4738800Y-20120476D02*
X4738800Y-19987143D01*
X4738800Y-20006190D02*
X4748324Y-19996667D01*
X4767372Y-19987143D01*
X4795943Y-19987143D01*
X4814991Y-19996667D01*
X4824515Y-20015714D01*
X4824515Y-20120476D01*
X4824515Y-20015714D02*
X4834038Y-19996667D01*
X4853086Y-19987143D01*
X4881657Y-19987143D01*
X4900705Y-19996667D01*
X4910229Y-20015714D01*
X4910229Y-20120476D01*
X5300705Y-19910952D02*
X5129276Y-20168095D01*
X5557848Y-19920476D02*
X5576896Y-19920476D01*
X5595943Y-19930000D01*
X5605467Y-19939524D01*
X5614991Y-19958571D01*
X5624514Y-19996667D01*
X5624514Y-20044286D01*
X5614991Y-20082381D01*
X5605467Y-20101429D01*
X5595943Y-20110952D01*
X5576896Y-20120476D01*
X5557848Y-20120476D01*
X5538800Y-20110952D01*
X5529276Y-20101429D01*
X5519753Y-20082381D01*
X5510229Y-20044286D01*
X5510229Y-19996667D01*
X5519753Y-19958571D01*
X5529276Y-19939524D01*
X5538800Y-19930000D01*
X5557848Y-19920476D01*
X5710229Y-20101429D02*
X5719753Y-20110952D01*
X5710229Y-20120476D01*
X5700705Y-20110952D01*
X5710229Y-20101429D01*
X5710229Y-20120476D01*
X5843562Y-19920476D02*
X5862610Y-19920476D01*
X5881657Y-19930000D01*
X5891181Y-19939524D01*
X5900705Y-19958571D01*
X5910229Y-19996667D01*
X5910229Y-20044286D01*
X5900705Y-20082381D01*
X5891181Y-20101429D01*
X5881657Y-20110952D01*
X5862610Y-20120476D01*
X5843562Y-20120476D01*
X5824514Y-20110952D01*
X5814991Y-20101429D01*
X5805467Y-20082381D01*
X5795943Y-20044286D01*
X5795943Y-19996667D01*
X5805467Y-19958571D01*
X5814991Y-19939524D01*
X5824514Y-19930000D01*
X5843562Y-19920476D01*
X5976895Y-19920476D02*
X6100705Y-19920476D01*
X6034038Y-19996667D01*
X6062610Y-19996667D01*
X6081657Y-20006190D01*
X6091181Y-20015714D01*
X6100705Y-20034762D01*
X6100705Y-20082381D01*
X6091181Y-20101429D01*
X6081657Y-20110952D01*
X6062610Y-20120476D01*
X6005467Y-20120476D01*
X5986419Y-20110952D01*
X5976895Y-20101429D01*
X6291181Y-20120476D02*
X6176895Y-20120476D01*
X6234038Y-20120476D02*
X6234038Y-19920476D01*
X6214991Y-19949048D01*
X6195943Y-19968095D01*
X6176895Y-19977619D01*
X6462610Y-19987143D02*
X6462610Y-20120476D01*
X6414991Y-19910952D02*
X6367372Y-20053810D01*
X6491181Y-20053810D01*
X6557848Y-19920476D02*
X6557848Y-19958571D01*
X6634038Y-19920476D02*
X6634038Y-19958571D01*
X6929276Y-20196667D02*
X6919753Y-20187143D01*
X6900705Y-20158571D01*
X6891181Y-20139524D01*
X6881657Y-20110952D01*
X6872134Y-20063333D01*
X6872134Y-20025238D01*
X6881657Y-19977619D01*
X6891181Y-19949048D01*
X6900705Y-19930000D01*
X6919753Y-19901429D01*
X6929276Y-19891905D01*
X7091181Y-19987143D02*
X7091181Y-20120476D01*
X7043562Y-19910952D02*
X6995943Y-20053810D01*
X7119753Y-20053810D01*
X7234038Y-19920476D02*
X7253086Y-19920476D01*
X7272134Y-19930000D01*
X7281657Y-19939524D01*
X7291181Y-19958571D01*
X7300705Y-19996667D01*
X7300705Y-20044286D01*
X7291181Y-20082381D01*
X7281657Y-20101429D01*
X7272134Y-20110952D01*
X7253086Y-20120476D01*
X7234038Y-20120476D01*
X7214991Y-20110952D01*
X7205467Y-20101429D01*
X7195943Y-20082381D01*
X7186419Y-20044286D01*
X7186419Y-19996667D01*
X7195943Y-19958571D01*
X7205467Y-19939524D01*
X7214991Y-19930000D01*
X7234038Y-19920476D01*
X7538800Y-20120476D02*
X7538800Y-19920476D01*
X7624514Y-20120476D02*
X7624514Y-20015714D01*
X7614991Y-19996667D01*
X7595943Y-19987143D01*
X7567372Y-19987143D01*
X7548324Y-19996667D01*
X7538800Y-20006190D01*
X7748324Y-20120476D02*
X7729276Y-20110952D01*
X7719753Y-20101429D01*
X7710229Y-20082381D01*
X7710229Y-20025238D01*
X7719753Y-20006190D01*
X7729276Y-19996667D01*
X7748324Y-19987143D01*
X7776895Y-19987143D01*
X7795943Y-19996667D01*
X7805467Y-20006190D01*
X7814991Y-20025238D01*
X7814991Y-20082381D01*
X7805467Y-20101429D01*
X7795943Y-20110952D01*
X7776895Y-20120476D01*
X7748324Y-20120476D01*
X7929276Y-20120476D02*
X7910229Y-20110952D01*
X7900705Y-20091905D01*
X7900705Y-19920476D01*
X8081657Y-20110952D02*
X8062610Y-20120476D01*
X8024514Y-20120476D01*
X8005467Y-20110952D01*
X7995943Y-20091905D01*
X7995943Y-20015714D01*
X8005467Y-19996667D01*
X8024514Y-19987143D01*
X8062610Y-19987143D01*
X8081657Y-19996667D01*
X8091181Y-20015714D01*
X8091181Y-20034762D01*
X7995943Y-20053810D01*
X8167372Y-20110952D02*
X8186419Y-20120476D01*
X8224514Y-20120476D01*
X8243562Y-20110952D01*
X8253086Y-20091905D01*
X8253086Y-20082381D01*
X8243562Y-20063333D01*
X8224514Y-20053810D01*
X8195943Y-20053810D01*
X8176895Y-20044286D01*
X8167372Y-20025238D01*
X8167372Y-20015714D01*
X8176895Y-19996667D01*
X8195943Y-19987143D01*
X8224514Y-19987143D01*
X8243562Y-19996667D01*
X8319753Y-20196667D02*
X8329276Y-20187143D01*
X8348324Y-20158571D01*
X8357848Y-20139524D01*
X8367372Y-20110952D01*
X8376895Y-20063333D01*
X8376895Y-20025238D01*
X8367372Y-19977619D01*
X8357848Y-19949048D01*
X8348324Y-19930000D01*
X8329276Y-19901429D01*
X8319753Y-19891905D01*
D16*
X3345656Y-20322285D02*
X3345656Y-20265716D01*
X3289087Y-20265716D01*
X3289087Y-20322285D01*
X3345656Y-20322285D01*
D12*
X3653086Y-20184476D02*
X3672134Y-20184476D01*
X3691181Y-20194000D01*
X3700705Y-20203524D01*
X3710229Y-20222571D01*
X3719753Y-20260667D01*
X3719753Y-20308286D01*
X3710229Y-20346381D01*
X3700705Y-20365429D01*
X3691181Y-20374952D01*
X3672134Y-20384476D01*
X3653086Y-20384476D01*
X3634038Y-20374952D01*
X3624514Y-20365429D01*
X3614991Y-20346381D01*
X3605467Y-20308286D01*
X3605467Y-20260667D01*
X3614991Y-20222571D01*
X3624514Y-20203524D01*
X3634038Y-20194000D01*
X3653086Y-20184476D01*
X3805467Y-20365429D02*
X3814991Y-20374952D01*
X3805467Y-20384476D01*
X3795943Y-20374952D01*
X3805467Y-20365429D01*
X3805467Y-20384476D01*
X3929276Y-20270190D02*
X3910229Y-20260667D01*
X3900705Y-20251143D01*
X3891181Y-20232095D01*
X3891181Y-20222571D01*
X3900705Y-20203524D01*
X3910229Y-20194000D01*
X3929276Y-20184476D01*
X3967372Y-20184476D01*
X3986419Y-20194000D01*
X3995943Y-20203524D01*
X4005467Y-20222571D01*
X4005467Y-20232095D01*
X3995943Y-20251143D01*
X3986419Y-20260667D01*
X3967372Y-20270190D01*
X3929276Y-20270190D01*
X3910229Y-20279714D01*
X3900705Y-20289238D01*
X3891181Y-20308286D01*
X3891181Y-20346381D01*
X3900705Y-20365429D01*
X3910229Y-20374952D01*
X3929276Y-20384476D01*
X3967372Y-20384476D01*
X3986419Y-20374952D01*
X3995943Y-20365429D01*
X4005467Y-20346381D01*
X4005467Y-20308286D01*
X3995943Y-20289238D01*
X3986419Y-20279714D01*
X3967372Y-20270190D01*
X4129276Y-20184476D02*
X4148324Y-20184476D01*
X4167372Y-20194000D01*
X4176895Y-20203524D01*
X4186419Y-20222571D01*
X4195943Y-20260667D01*
X4195943Y-20308286D01*
X4186419Y-20346381D01*
X4176895Y-20365429D01*
X4167372Y-20374952D01*
X4148324Y-20384476D01*
X4129276Y-20384476D01*
X4110229Y-20374952D01*
X4100705Y-20365429D01*
X4091181Y-20346381D01*
X4081657Y-20308286D01*
X4081657Y-20260667D01*
X4091181Y-20222571D01*
X4100705Y-20203524D01*
X4110229Y-20194000D01*
X4129276Y-20184476D01*
X4319753Y-20184476D02*
X4338800Y-20184476D01*
X4357848Y-20194000D01*
X4367372Y-20203524D01*
X4376896Y-20222571D01*
X4386419Y-20260667D01*
X4386419Y-20308286D01*
X4376896Y-20346381D01*
X4367372Y-20365429D01*
X4357848Y-20374952D01*
X4338800Y-20384476D01*
X4319753Y-20384476D01*
X4300705Y-20374952D01*
X4291181Y-20365429D01*
X4281657Y-20346381D01*
X4272134Y-20308286D01*
X4272134Y-20260667D01*
X4281657Y-20222571D01*
X4291181Y-20203524D01*
X4300705Y-20194000D01*
X4319753Y-20184476D01*
X4472134Y-20384476D02*
X4472134Y-20251143D01*
X4472134Y-20270190D02*
X4481657Y-20260667D01*
X4500705Y-20251143D01*
X4529276Y-20251143D01*
X4548324Y-20260667D01*
X4557848Y-20279714D01*
X4557848Y-20384476D01*
X4557848Y-20279714D02*
X4567372Y-20260667D01*
X4586419Y-20251143D01*
X4614991Y-20251143D01*
X4634038Y-20260667D01*
X4643562Y-20279714D01*
X4643562Y-20384476D01*
X4738800Y-20384476D02*
X4738800Y-20251143D01*
X4738800Y-20270190D02*
X4748324Y-20260667D01*
X4767372Y-20251143D01*
X4795943Y-20251143D01*
X4814991Y-20260667D01*
X4824515Y-20279714D01*
X4824515Y-20384476D01*
X4824515Y-20279714D02*
X4834038Y-20260667D01*
X4853086Y-20251143D01*
X4881657Y-20251143D01*
X4900705Y-20260667D01*
X4910229Y-20279714D01*
X4910229Y-20384476D01*
X5300705Y-20174952D02*
X5129276Y-20432095D01*
X5557848Y-20184476D02*
X5576896Y-20184476D01*
X5595943Y-20194000D01*
X5605467Y-20203524D01*
X5614991Y-20222571D01*
X5624514Y-20260667D01*
X5624514Y-20308286D01*
X5614991Y-20346381D01*
X5605467Y-20365429D01*
X5595943Y-20374952D01*
X5576896Y-20384476D01*
X5557848Y-20384476D01*
X5538800Y-20374952D01*
X5529276Y-20365429D01*
X5519753Y-20346381D01*
X5510229Y-20308286D01*
X5510229Y-20260667D01*
X5519753Y-20222571D01*
X5529276Y-20203524D01*
X5538800Y-20194000D01*
X5557848Y-20184476D01*
X5710229Y-20365429D02*
X5719753Y-20374952D01*
X5710229Y-20384476D01*
X5700705Y-20374952D01*
X5710229Y-20365429D01*
X5710229Y-20384476D01*
X5843562Y-20184476D02*
X5862610Y-20184476D01*
X5881657Y-20194000D01*
X5891181Y-20203524D01*
X5900705Y-20222571D01*
X5910229Y-20260667D01*
X5910229Y-20308286D01*
X5900705Y-20346381D01*
X5891181Y-20365429D01*
X5881657Y-20374952D01*
X5862610Y-20384476D01*
X5843562Y-20384476D01*
X5824514Y-20374952D01*
X5814991Y-20365429D01*
X5805467Y-20346381D01*
X5795943Y-20308286D01*
X5795943Y-20260667D01*
X5805467Y-20222571D01*
X5814991Y-20203524D01*
X5824514Y-20194000D01*
X5843562Y-20184476D01*
X5976895Y-20184476D02*
X6100705Y-20184476D01*
X6034038Y-20260667D01*
X6062610Y-20260667D01*
X6081657Y-20270190D01*
X6091181Y-20279714D01*
X6100705Y-20298762D01*
X6100705Y-20346381D01*
X6091181Y-20365429D01*
X6081657Y-20374952D01*
X6062610Y-20384476D01*
X6005467Y-20384476D01*
X5986419Y-20374952D01*
X5976895Y-20365429D01*
X6291181Y-20384476D02*
X6176895Y-20384476D01*
X6234038Y-20384476D02*
X6234038Y-20184476D01*
X6214991Y-20213048D01*
X6195943Y-20232095D01*
X6176895Y-20241619D01*
X6472134Y-20184476D02*
X6376895Y-20184476D01*
X6367372Y-20279714D01*
X6376895Y-20270190D01*
X6395943Y-20260667D01*
X6443562Y-20260667D01*
X6462610Y-20270190D01*
X6472134Y-20279714D01*
X6481657Y-20298762D01*
X6481657Y-20346381D01*
X6472134Y-20365429D01*
X6462610Y-20374952D01*
X6443562Y-20384476D01*
X6395943Y-20384476D01*
X6376895Y-20374952D01*
X6367372Y-20365429D01*
X6557848Y-20184476D02*
X6557848Y-20222571D01*
X6634038Y-20184476D02*
X6634038Y-20222571D01*
X6929276Y-20460667D02*
X6919753Y-20451143D01*
X6900705Y-20422571D01*
X6891181Y-20403524D01*
X6881657Y-20374952D01*
X6872134Y-20327333D01*
X6872134Y-20289238D01*
X6881657Y-20241619D01*
X6891181Y-20213048D01*
X6900705Y-20194000D01*
X6919753Y-20165429D01*
X6929276Y-20155905D01*
X7034038Y-20270190D02*
X7014991Y-20260667D01*
X7005467Y-20251143D01*
X6995943Y-20232095D01*
X6995943Y-20222571D01*
X7005467Y-20203524D01*
X7014991Y-20194000D01*
X7034038Y-20184476D01*
X7072134Y-20184476D01*
X7091181Y-20194000D01*
X7100705Y-20203524D01*
X7110229Y-20222571D01*
X7110229Y-20232095D01*
X7100705Y-20251143D01*
X7091181Y-20260667D01*
X7072134Y-20270190D01*
X7034038Y-20270190D01*
X7014991Y-20279714D01*
X7005467Y-20289238D01*
X6995943Y-20308286D01*
X6995943Y-20346381D01*
X7005467Y-20365429D01*
X7014991Y-20374952D01*
X7034038Y-20384476D01*
X7072134Y-20384476D01*
X7091181Y-20374952D01*
X7100705Y-20365429D01*
X7110229Y-20346381D01*
X7110229Y-20308286D01*
X7100705Y-20289238D01*
X7091181Y-20279714D01*
X7072134Y-20270190D01*
X7224514Y-20270190D02*
X7205467Y-20260667D01*
X7195943Y-20251143D01*
X7186419Y-20232095D01*
X7186419Y-20222571D01*
X7195943Y-20203524D01*
X7205467Y-20194000D01*
X7224514Y-20184476D01*
X7262610Y-20184476D01*
X7281657Y-20194000D01*
X7291181Y-20203524D01*
X7300705Y-20222571D01*
X7300705Y-20232095D01*
X7291181Y-20251143D01*
X7281657Y-20260667D01*
X7262610Y-20270190D01*
X7224514Y-20270190D01*
X7205467Y-20279714D01*
X7195943Y-20289238D01*
X7186419Y-20308286D01*
X7186419Y-20346381D01*
X7195943Y-20365429D01*
X7205467Y-20374952D01*
X7224514Y-20384476D01*
X7262610Y-20384476D01*
X7281657Y-20374952D01*
X7291181Y-20365429D01*
X7300705Y-20346381D01*
X7300705Y-20308286D01*
X7291181Y-20289238D01*
X7281657Y-20279714D01*
X7262610Y-20270190D01*
X7538800Y-20384476D02*
X7538800Y-20184476D01*
X7624514Y-20384476D02*
X7624514Y-20279714D01*
X7614991Y-20260667D01*
X7595943Y-20251143D01*
X7567372Y-20251143D01*
X7548324Y-20260667D01*
X7538800Y-20270190D01*
X7748324Y-20384476D02*
X7729276Y-20374952D01*
X7719753Y-20365429D01*
X7710229Y-20346381D01*
X7710229Y-20289238D01*
X7719753Y-20270190D01*
X7729276Y-20260667D01*
X7748324Y-20251143D01*
X7776895Y-20251143D01*
X7795943Y-20260667D01*
X7805467Y-20270190D01*
X7814991Y-20289238D01*
X7814991Y-20346381D01*
X7805467Y-20365429D01*
X7795943Y-20374952D01*
X7776895Y-20384476D01*
X7748324Y-20384476D01*
X7929276Y-20384476D02*
X7910229Y-20374952D01*
X7900705Y-20355905D01*
X7900705Y-20184476D01*
X8081657Y-20374952D02*
X8062610Y-20384476D01*
X8024514Y-20384476D01*
X8005467Y-20374952D01*
X7995943Y-20355905D01*
X7995943Y-20279714D01*
X8005467Y-20260667D01*
X8024514Y-20251143D01*
X8062610Y-20251143D01*
X8081657Y-20260667D01*
X8091181Y-20279714D01*
X8091181Y-20298762D01*
X7995943Y-20317810D01*
X8167372Y-20374952D02*
X8186419Y-20384476D01*
X8224514Y-20384476D01*
X8243562Y-20374952D01*
X8253086Y-20355905D01*
X8253086Y-20346381D01*
X8243562Y-20327333D01*
X8224514Y-20317810D01*
X8195943Y-20317810D01*
X8176895Y-20308286D01*
X8167372Y-20289238D01*
X8167372Y-20279714D01*
X8176895Y-20260667D01*
X8195943Y-20251143D01*
X8224514Y-20251143D01*
X8243562Y-20260667D01*
X8319753Y-20460667D02*
X8329276Y-20451143D01*
X8348324Y-20422571D01*
X8357848Y-20403524D01*
X8367372Y-20374952D01*
X8376895Y-20327333D01*
X8376895Y-20289238D01*
X8367372Y-20241619D01*
X8357848Y-20213048D01*
X8348324Y-20194000D01*
X8329276Y-20165429D01*
X8319753Y-20155905D01*
D17*
X3307372Y-20608000D02*
X3357372Y-20558000D01*
X3307372Y-20508000D01*
X3257372Y-20558000D01*
X3307372Y-20608000D01*
D12*
X3719753Y-20648476D02*
X3605467Y-20648476D01*
X3662610Y-20648476D02*
X3662610Y-20448476D01*
X3643562Y-20477048D01*
X3624514Y-20496095D01*
X3605467Y-20505619D01*
X3805467Y-20629429D02*
X3814991Y-20638952D01*
X3805467Y-20648476D01*
X3795943Y-20638952D01*
X3805467Y-20629429D01*
X3805467Y-20648476D01*
X3938800Y-20448476D02*
X3957848Y-20448476D01*
X3976895Y-20458000D01*
X3986419Y-20467524D01*
X3995943Y-20486571D01*
X4005467Y-20524667D01*
X4005467Y-20572286D01*
X3995943Y-20610381D01*
X3986419Y-20629429D01*
X3976895Y-20638952D01*
X3957848Y-20648476D01*
X3938800Y-20648476D01*
X3919753Y-20638952D01*
X3910229Y-20629429D01*
X3900705Y-20610381D01*
X3891181Y-20572286D01*
X3891181Y-20524667D01*
X3900705Y-20486571D01*
X3910229Y-20467524D01*
X3919753Y-20458000D01*
X3938800Y-20448476D01*
X4129276Y-20448476D02*
X4148324Y-20448476D01*
X4167372Y-20458000D01*
X4176895Y-20467524D01*
X4186419Y-20486571D01*
X4195943Y-20524667D01*
X4195943Y-20572286D01*
X4186419Y-20610381D01*
X4176895Y-20629429D01*
X4167372Y-20638952D01*
X4148324Y-20648476D01*
X4129276Y-20648476D01*
X4110229Y-20638952D01*
X4100705Y-20629429D01*
X4091181Y-20610381D01*
X4081657Y-20572286D01*
X4081657Y-20524667D01*
X4091181Y-20486571D01*
X4100705Y-20467524D01*
X4110229Y-20458000D01*
X4129276Y-20448476D01*
X4319753Y-20448476D02*
X4338800Y-20448476D01*
X4357848Y-20458000D01*
X4367372Y-20467524D01*
X4376896Y-20486571D01*
X4386419Y-20524667D01*
X4386419Y-20572286D01*
X4376896Y-20610381D01*
X4367372Y-20629429D01*
X4357848Y-20638952D01*
X4338800Y-20648476D01*
X4319753Y-20648476D01*
X4300705Y-20638952D01*
X4291181Y-20629429D01*
X4281657Y-20610381D01*
X4272134Y-20572286D01*
X4272134Y-20524667D01*
X4281657Y-20486571D01*
X4291181Y-20467524D01*
X4300705Y-20458000D01*
X4319753Y-20448476D01*
X4472134Y-20648476D02*
X4472134Y-20515143D01*
X4472134Y-20534190D02*
X4481657Y-20524667D01*
X4500705Y-20515143D01*
X4529276Y-20515143D01*
X4548324Y-20524667D01*
X4557848Y-20543714D01*
X4557848Y-20648476D01*
X4557848Y-20543714D02*
X4567372Y-20524667D01*
X4586419Y-20515143D01*
X4614991Y-20515143D01*
X4634038Y-20524667D01*
X4643562Y-20543714D01*
X4643562Y-20648476D01*
X4738800Y-20648476D02*
X4738800Y-20515143D01*
X4738800Y-20534190D02*
X4748324Y-20524667D01*
X4767372Y-20515143D01*
X4795943Y-20515143D01*
X4814991Y-20524667D01*
X4824515Y-20543714D01*
X4824515Y-20648476D01*
X4824515Y-20543714D02*
X4834038Y-20524667D01*
X4853086Y-20515143D01*
X4881657Y-20515143D01*
X4900705Y-20524667D01*
X4910229Y-20543714D01*
X4910229Y-20648476D01*
X5300705Y-20438952D02*
X5129276Y-20696095D01*
X5557848Y-20448476D02*
X5576896Y-20448476D01*
X5595943Y-20458000D01*
X5605467Y-20467524D01*
X5614991Y-20486571D01*
X5624514Y-20524667D01*
X5624514Y-20572286D01*
X5614991Y-20610381D01*
X5605467Y-20629429D01*
X5595943Y-20638952D01*
X5576896Y-20648476D01*
X5557848Y-20648476D01*
X5538800Y-20638952D01*
X5529276Y-20629429D01*
X5519753Y-20610381D01*
X5510229Y-20572286D01*
X5510229Y-20524667D01*
X5519753Y-20486571D01*
X5529276Y-20467524D01*
X5538800Y-20458000D01*
X5557848Y-20448476D01*
X5710229Y-20629429D02*
X5719753Y-20638952D01*
X5710229Y-20648476D01*
X5700705Y-20638952D01*
X5710229Y-20629429D01*
X5710229Y-20648476D01*
X5843562Y-20448476D02*
X5862610Y-20448476D01*
X5881657Y-20458000D01*
X5891181Y-20467524D01*
X5900705Y-20486571D01*
X5910229Y-20524667D01*
X5910229Y-20572286D01*
X5900705Y-20610381D01*
X5891181Y-20629429D01*
X5881657Y-20638952D01*
X5862610Y-20648476D01*
X5843562Y-20648476D01*
X5824514Y-20638952D01*
X5814991Y-20629429D01*
X5805467Y-20610381D01*
X5795943Y-20572286D01*
X5795943Y-20524667D01*
X5805467Y-20486571D01*
X5814991Y-20467524D01*
X5824514Y-20458000D01*
X5843562Y-20448476D01*
X5976895Y-20448476D02*
X6100705Y-20448476D01*
X6034038Y-20524667D01*
X6062610Y-20524667D01*
X6081657Y-20534190D01*
X6091181Y-20543714D01*
X6100705Y-20562762D01*
X6100705Y-20610381D01*
X6091181Y-20629429D01*
X6081657Y-20638952D01*
X6062610Y-20648476D01*
X6005467Y-20648476D01*
X5986419Y-20638952D01*
X5976895Y-20629429D01*
X6195943Y-20648476D02*
X6234038Y-20648476D01*
X6253086Y-20638952D01*
X6262610Y-20629429D01*
X6281657Y-20600857D01*
X6291181Y-20562762D01*
X6291181Y-20486571D01*
X6281657Y-20467524D01*
X6272134Y-20458000D01*
X6253086Y-20448476D01*
X6214991Y-20448476D01*
X6195943Y-20458000D01*
X6186419Y-20467524D01*
X6176895Y-20486571D01*
X6176895Y-20534190D01*
X6186419Y-20553238D01*
X6195943Y-20562762D01*
X6214991Y-20572286D01*
X6253086Y-20572286D01*
X6272134Y-20562762D01*
X6281657Y-20553238D01*
X6291181Y-20534190D01*
X6462610Y-20515143D02*
X6462610Y-20648476D01*
X6414991Y-20438952D02*
X6367372Y-20581810D01*
X6491181Y-20581810D01*
X6557848Y-20448476D02*
X6557848Y-20486571D01*
X6634038Y-20448476D02*
X6634038Y-20486571D01*
X6929276Y-20724667D02*
X6919753Y-20715143D01*
X6900705Y-20686571D01*
X6891181Y-20667524D01*
X6881657Y-20638952D01*
X6872134Y-20591333D01*
X6872134Y-20553238D01*
X6881657Y-20505619D01*
X6891181Y-20477048D01*
X6900705Y-20458000D01*
X6919753Y-20429429D01*
X6929276Y-20419905D01*
X7110229Y-20648476D02*
X6995943Y-20648476D01*
X7053086Y-20648476D02*
X7053086Y-20448476D01*
X7034038Y-20477048D01*
X7014991Y-20496095D01*
X6995943Y-20505619D01*
X7205467Y-20648476D02*
X7243562Y-20648476D01*
X7262610Y-20638952D01*
X7272134Y-20629429D01*
X7291181Y-20600857D01*
X7300705Y-20562762D01*
X7300705Y-20486571D01*
X7291181Y-20467524D01*
X7281657Y-20458000D01*
X7262610Y-20448476D01*
X7224514Y-20448476D01*
X7205467Y-20458000D01*
X7195943Y-20467524D01*
X7186419Y-20486571D01*
X7186419Y-20534190D01*
X7195943Y-20553238D01*
X7205467Y-20562762D01*
X7224514Y-20572286D01*
X7262610Y-20572286D01*
X7281657Y-20562762D01*
X7291181Y-20553238D01*
X7300705Y-20534190D01*
X7424514Y-20448476D02*
X7443562Y-20448476D01*
X7462610Y-20458000D01*
X7472134Y-20467524D01*
X7481657Y-20486571D01*
X7491181Y-20524667D01*
X7491181Y-20572286D01*
X7481657Y-20610381D01*
X7472134Y-20629429D01*
X7462610Y-20638952D01*
X7443562Y-20648476D01*
X7424514Y-20648476D01*
X7405467Y-20638952D01*
X7395943Y-20629429D01*
X7386419Y-20610381D01*
X7376895Y-20572286D01*
X7376895Y-20524667D01*
X7386419Y-20486571D01*
X7395943Y-20467524D01*
X7405467Y-20458000D01*
X7424514Y-20448476D01*
X7729276Y-20648476D02*
X7729276Y-20448476D01*
X7814991Y-20648476D02*
X7814991Y-20543714D01*
X7805467Y-20524667D01*
X7786419Y-20515143D01*
X7757848Y-20515143D01*
X7738800Y-20524667D01*
X7729276Y-20534190D01*
X7938800Y-20648476D02*
X7919753Y-20638952D01*
X7910229Y-20629429D01*
X7900705Y-20610381D01*
X7900705Y-20553238D01*
X7910229Y-20534190D01*
X7919753Y-20524667D01*
X7938800Y-20515143D01*
X7967372Y-20515143D01*
X7986419Y-20524667D01*
X7995943Y-20534190D01*
X8005467Y-20553238D01*
X8005467Y-20610381D01*
X7995943Y-20629429D01*
X7986419Y-20638952D01*
X7967372Y-20648476D01*
X7938800Y-20648476D01*
X8119753Y-20648476D02*
X8100705Y-20638952D01*
X8091181Y-20619905D01*
X8091181Y-20448476D01*
X8272134Y-20638952D02*
X8253086Y-20648476D01*
X8214991Y-20648476D01*
X8195943Y-20638952D01*
X8186419Y-20619905D01*
X8186419Y-20543714D01*
X8195943Y-20524667D01*
X8214991Y-20515143D01*
X8253086Y-20515143D01*
X8272134Y-20524667D01*
X8281657Y-20543714D01*
X8281657Y-20562762D01*
X8186419Y-20581810D01*
X8357848Y-20638952D02*
X8376895Y-20648476D01*
X8414991Y-20648476D01*
X8434038Y-20638952D01*
X8443562Y-20619905D01*
X8443562Y-20610381D01*
X8434038Y-20591333D01*
X8414991Y-20581810D01*
X8386419Y-20581810D01*
X8367372Y-20572286D01*
X8357848Y-20553238D01*
X8357848Y-20543714D01*
X8367372Y-20524667D01*
X8386419Y-20515143D01*
X8414991Y-20515143D01*
X8434038Y-20524667D01*
X8510229Y-20724667D02*
X8519753Y-20715143D01*
X8538800Y-20686571D01*
X8548324Y-20667524D01*
X8557848Y-20638952D01*
X8567372Y-20591333D01*
X8567372Y-20553238D01*
X8557848Y-20505619D01*
X8548324Y-20477048D01*
X8538800Y-20458000D01*
X8519753Y-20429429D01*
X8510229Y-20419905D01*
D18*
X3247372Y-20767000D02*
X3357372Y-20877000D01*
X3357372Y-20767000D02*
X3247372Y-20877000D01*
X3357372Y-20822000D02*
G75*
G03*
X3357372Y-20822000I-55000J0D01*
G01*
D12*
X3719753Y-20912476D02*
X3605467Y-20912476D01*
X3662610Y-20912476D02*
X3662610Y-20712476D01*
X3643562Y-20741048D01*
X3624514Y-20760095D01*
X3605467Y-20769619D01*
X3805467Y-20893429D02*
X3814991Y-20902952D01*
X3805467Y-20912476D01*
X3795943Y-20902952D01*
X3805467Y-20893429D01*
X3805467Y-20912476D01*
X4005467Y-20912476D02*
X3891181Y-20912476D01*
X3948324Y-20912476D02*
X3948324Y-20712476D01*
X3929276Y-20741048D01*
X3910229Y-20760095D01*
X3891181Y-20769619D01*
X4129276Y-20712476D02*
X4148324Y-20712476D01*
X4167372Y-20722000D01*
X4176895Y-20731524D01*
X4186419Y-20750571D01*
X4195943Y-20788667D01*
X4195943Y-20836286D01*
X4186419Y-20874381D01*
X4176895Y-20893429D01*
X4167372Y-20902952D01*
X4148324Y-20912476D01*
X4129276Y-20912476D01*
X4110229Y-20902952D01*
X4100705Y-20893429D01*
X4091181Y-20874381D01*
X4081657Y-20836286D01*
X4081657Y-20788667D01*
X4091181Y-20750571D01*
X4100705Y-20731524D01*
X4110229Y-20722000D01*
X4129276Y-20712476D01*
X4319753Y-20712476D02*
X4338800Y-20712476D01*
X4357848Y-20722000D01*
X4367372Y-20731524D01*
X4376896Y-20750571D01*
X4386419Y-20788667D01*
X4386419Y-20836286D01*
X4376896Y-20874381D01*
X4367372Y-20893429D01*
X4357848Y-20902952D01*
X4338800Y-20912476D01*
X4319753Y-20912476D01*
X4300705Y-20902952D01*
X4291181Y-20893429D01*
X4281657Y-20874381D01*
X4272134Y-20836286D01*
X4272134Y-20788667D01*
X4281657Y-20750571D01*
X4291181Y-20731524D01*
X4300705Y-20722000D01*
X4319753Y-20712476D01*
X4472134Y-20912476D02*
X4472134Y-20779143D01*
X4472134Y-20798190D02*
X4481657Y-20788667D01*
X4500705Y-20779143D01*
X4529276Y-20779143D01*
X4548324Y-20788667D01*
X4557848Y-20807714D01*
X4557848Y-20912476D01*
X4557848Y-20807714D02*
X4567372Y-20788667D01*
X4586419Y-20779143D01*
X4614991Y-20779143D01*
X4634038Y-20788667D01*
X4643562Y-20807714D01*
X4643562Y-20912476D01*
X4738800Y-20912476D02*
X4738800Y-20779143D01*
X4738800Y-20798190D02*
X4748324Y-20788667D01*
X4767372Y-20779143D01*
X4795943Y-20779143D01*
X4814991Y-20788667D01*
X4824515Y-20807714D01*
X4824515Y-20912476D01*
X4824515Y-20807714D02*
X4834038Y-20788667D01*
X4853086Y-20779143D01*
X4881657Y-20779143D01*
X4900705Y-20788667D01*
X4910229Y-20807714D01*
X4910229Y-20912476D01*
X5300705Y-20702952D02*
X5129276Y-20960095D01*
X5557848Y-20712476D02*
X5576896Y-20712476D01*
X5595943Y-20722000D01*
X5605467Y-20731524D01*
X5614991Y-20750571D01*
X5624514Y-20788667D01*
X5624514Y-20836286D01*
X5614991Y-20874381D01*
X5605467Y-20893429D01*
X5595943Y-20902952D01*
X5576896Y-20912476D01*
X5557848Y-20912476D01*
X5538800Y-20902952D01*
X5529276Y-20893429D01*
X5519753Y-20874381D01*
X5510229Y-20836286D01*
X5510229Y-20788667D01*
X5519753Y-20750571D01*
X5529276Y-20731524D01*
X5538800Y-20722000D01*
X5557848Y-20712476D01*
X5710229Y-20893429D02*
X5719753Y-20902952D01*
X5710229Y-20912476D01*
X5700705Y-20902952D01*
X5710229Y-20893429D01*
X5710229Y-20912476D01*
X5843562Y-20712476D02*
X5862610Y-20712476D01*
X5881657Y-20722000D01*
X5891181Y-20731524D01*
X5900705Y-20750571D01*
X5910229Y-20788667D01*
X5910229Y-20836286D01*
X5900705Y-20874381D01*
X5891181Y-20893429D01*
X5881657Y-20902952D01*
X5862610Y-20912476D01*
X5843562Y-20912476D01*
X5824514Y-20902952D01*
X5814991Y-20893429D01*
X5805467Y-20874381D01*
X5795943Y-20836286D01*
X5795943Y-20788667D01*
X5805467Y-20750571D01*
X5814991Y-20731524D01*
X5824514Y-20722000D01*
X5843562Y-20712476D01*
X6081657Y-20779143D02*
X6081657Y-20912476D01*
X6034038Y-20702952D02*
X5986419Y-20845810D01*
X6110229Y-20845810D01*
X6167372Y-20712476D02*
X6291181Y-20712476D01*
X6224514Y-20788667D01*
X6253086Y-20788667D01*
X6272134Y-20798190D01*
X6281657Y-20807714D01*
X6291181Y-20826762D01*
X6291181Y-20874381D01*
X6281657Y-20893429D01*
X6272134Y-20902952D01*
X6253086Y-20912476D01*
X6195943Y-20912476D01*
X6176895Y-20902952D01*
X6167372Y-20893429D01*
X6357848Y-20712476D02*
X6481657Y-20712476D01*
X6414991Y-20788667D01*
X6443562Y-20788667D01*
X6462610Y-20798190D01*
X6472134Y-20807714D01*
X6481657Y-20826762D01*
X6481657Y-20874381D01*
X6472134Y-20893429D01*
X6462610Y-20902952D01*
X6443562Y-20912476D01*
X6386419Y-20912476D01*
X6367372Y-20902952D01*
X6357848Y-20893429D01*
X6557848Y-20712476D02*
X6557848Y-20750571D01*
X6634038Y-20712476D02*
X6634038Y-20750571D01*
X6929276Y-20988667D02*
X6919753Y-20979143D01*
X6900705Y-20950571D01*
X6891181Y-20931524D01*
X6881657Y-20902952D01*
X6872134Y-20855333D01*
X6872134Y-20817238D01*
X6881657Y-20769619D01*
X6891181Y-20741048D01*
X6900705Y-20722000D01*
X6919753Y-20693429D01*
X6929276Y-20683905D01*
X7034038Y-20798190D02*
X7014991Y-20788667D01*
X7005467Y-20779143D01*
X6995943Y-20760095D01*
X6995943Y-20750571D01*
X7005467Y-20731524D01*
X7014991Y-20722000D01*
X7034038Y-20712476D01*
X7072134Y-20712476D01*
X7091181Y-20722000D01*
X7100705Y-20731524D01*
X7110229Y-20750571D01*
X7110229Y-20760095D01*
X7100705Y-20779143D01*
X7091181Y-20788667D01*
X7072134Y-20798190D01*
X7034038Y-20798190D01*
X7014991Y-20807714D01*
X7005467Y-20817238D01*
X6995943Y-20836286D01*
X6995943Y-20874381D01*
X7005467Y-20893429D01*
X7014991Y-20902952D01*
X7034038Y-20912476D01*
X7072134Y-20912476D01*
X7091181Y-20902952D01*
X7100705Y-20893429D01*
X7110229Y-20874381D01*
X7110229Y-20836286D01*
X7100705Y-20817238D01*
X7091181Y-20807714D01*
X7072134Y-20798190D01*
X7348324Y-20912476D02*
X7348324Y-20712476D01*
X7434038Y-20912476D02*
X7434038Y-20807714D01*
X7424514Y-20788667D01*
X7405467Y-20779143D01*
X7376895Y-20779143D01*
X7357848Y-20788667D01*
X7348324Y-20798190D01*
X7557848Y-20912476D02*
X7538800Y-20902952D01*
X7529276Y-20893429D01*
X7519753Y-20874381D01*
X7519753Y-20817238D01*
X7529276Y-20798190D01*
X7538800Y-20788667D01*
X7557848Y-20779143D01*
X7586419Y-20779143D01*
X7605467Y-20788667D01*
X7614991Y-20798190D01*
X7624514Y-20817238D01*
X7624514Y-20874381D01*
X7614991Y-20893429D01*
X7605467Y-20902952D01*
X7586419Y-20912476D01*
X7557848Y-20912476D01*
X7738800Y-20912476D02*
X7719753Y-20902952D01*
X7710229Y-20883905D01*
X7710229Y-20712476D01*
X7891181Y-20902952D02*
X7872134Y-20912476D01*
X7834038Y-20912476D01*
X7814991Y-20902952D01*
X7805467Y-20883905D01*
X7805467Y-20807714D01*
X7814991Y-20788667D01*
X7834038Y-20779143D01*
X7872134Y-20779143D01*
X7891181Y-20788667D01*
X7900705Y-20807714D01*
X7900705Y-20826762D01*
X7805467Y-20845810D01*
X7976895Y-20902952D02*
X7995943Y-20912476D01*
X8034038Y-20912476D01*
X8053086Y-20902952D01*
X8062610Y-20883905D01*
X8062610Y-20874381D01*
X8053086Y-20855333D01*
X8034038Y-20845810D01*
X8005467Y-20845810D01*
X7986419Y-20836286D01*
X7976895Y-20817238D01*
X7976895Y-20807714D01*
X7986419Y-20788667D01*
X8005467Y-20779143D01*
X8034038Y-20779143D01*
X8053086Y-20788667D01*
X8129276Y-20988667D02*
X8138800Y-20979143D01*
X8157848Y-20950571D01*
X8167372Y-20931524D01*
X8176895Y-20902952D01*
X8186419Y-20855333D01*
X8186419Y-20817238D01*
X8176895Y-20769619D01*
X8167372Y-20741048D01*
X8157848Y-20722000D01*
X8138800Y-20693429D01*
X8129276Y-20683905D01*
D19*
X3217372Y-21016000D02*
X3357372Y-21156000D01*
X3357372Y-21016000D02*
X3217372Y-21156000D01*
X3287372Y-21016000D02*
X3287372Y-21156000D01*
X3217372Y-21086000D02*
X3357372Y-21086000D01*
D12*
X3719753Y-21176476D02*
X3605467Y-21176476D01*
X3662610Y-21176476D02*
X3662610Y-20976476D01*
X3643562Y-21005048D01*
X3624514Y-21024095D01*
X3605467Y-21033619D01*
X3805467Y-21157429D02*
X3814991Y-21166952D01*
X3805467Y-21176476D01*
X3795943Y-21166952D01*
X3805467Y-21157429D01*
X3805467Y-21176476D01*
X3986419Y-21043143D02*
X3986419Y-21176476D01*
X3938800Y-20966952D02*
X3891181Y-21109810D01*
X4014991Y-21109810D01*
X4129276Y-20976476D02*
X4148324Y-20976476D01*
X4167372Y-20986000D01*
X4176895Y-20995524D01*
X4186419Y-21014571D01*
X4195943Y-21052667D01*
X4195943Y-21100286D01*
X4186419Y-21138381D01*
X4176895Y-21157429D01*
X4167372Y-21166952D01*
X4148324Y-21176476D01*
X4129276Y-21176476D01*
X4110229Y-21166952D01*
X4100705Y-21157429D01*
X4091181Y-21138381D01*
X4081657Y-21100286D01*
X4081657Y-21052667D01*
X4091181Y-21014571D01*
X4100705Y-20995524D01*
X4110229Y-20986000D01*
X4129276Y-20976476D01*
X4319753Y-20976476D02*
X4338800Y-20976476D01*
X4357848Y-20986000D01*
X4367372Y-20995524D01*
X4376896Y-21014571D01*
X4386419Y-21052667D01*
X4386419Y-21100286D01*
X4376896Y-21138381D01*
X4367372Y-21157429D01*
X4357848Y-21166952D01*
X4338800Y-21176476D01*
X4319753Y-21176476D01*
X4300705Y-21166952D01*
X4291181Y-21157429D01*
X4281657Y-21138381D01*
X4272134Y-21100286D01*
X4272134Y-21052667D01*
X4281657Y-21014571D01*
X4291181Y-20995524D01*
X4300705Y-20986000D01*
X4319753Y-20976476D01*
X4472134Y-21176476D02*
X4472134Y-21043143D01*
X4472134Y-21062190D02*
X4481657Y-21052667D01*
X4500705Y-21043143D01*
X4529276Y-21043143D01*
X4548324Y-21052667D01*
X4557848Y-21071714D01*
X4557848Y-21176476D01*
X4557848Y-21071714D02*
X4567372Y-21052667D01*
X4586419Y-21043143D01*
X4614991Y-21043143D01*
X4634038Y-21052667D01*
X4643562Y-21071714D01*
X4643562Y-21176476D01*
X4738800Y-21176476D02*
X4738800Y-21043143D01*
X4738800Y-21062190D02*
X4748324Y-21052667D01*
X4767372Y-21043143D01*
X4795943Y-21043143D01*
X4814991Y-21052667D01*
X4824515Y-21071714D01*
X4824515Y-21176476D01*
X4824515Y-21071714D02*
X4834038Y-21052667D01*
X4853086Y-21043143D01*
X4881657Y-21043143D01*
X4900705Y-21052667D01*
X4910229Y-21071714D01*
X4910229Y-21176476D01*
X5300705Y-20966952D02*
X5129276Y-21224095D01*
X5557848Y-20976476D02*
X5576896Y-20976476D01*
X5595943Y-20986000D01*
X5605467Y-20995524D01*
X5614991Y-21014571D01*
X5624514Y-21052667D01*
X5624514Y-21100286D01*
X5614991Y-21138381D01*
X5605467Y-21157429D01*
X5595943Y-21166952D01*
X5576896Y-21176476D01*
X5557848Y-21176476D01*
X5538800Y-21166952D01*
X5529276Y-21157429D01*
X5519753Y-21138381D01*
X5510229Y-21100286D01*
X5510229Y-21052667D01*
X5519753Y-21014571D01*
X5529276Y-20995524D01*
X5538800Y-20986000D01*
X5557848Y-20976476D01*
X5710229Y-21157429D02*
X5719753Y-21166952D01*
X5710229Y-21176476D01*
X5700705Y-21166952D01*
X5710229Y-21157429D01*
X5710229Y-21176476D01*
X5843562Y-20976476D02*
X5862610Y-20976476D01*
X5881657Y-20986000D01*
X5891181Y-20995524D01*
X5900705Y-21014571D01*
X5910229Y-21052667D01*
X5910229Y-21100286D01*
X5900705Y-21138381D01*
X5891181Y-21157429D01*
X5881657Y-21166952D01*
X5862610Y-21176476D01*
X5843562Y-21176476D01*
X5824514Y-21166952D01*
X5814991Y-21157429D01*
X5805467Y-21138381D01*
X5795943Y-21100286D01*
X5795943Y-21052667D01*
X5805467Y-21014571D01*
X5814991Y-20995524D01*
X5824514Y-20986000D01*
X5843562Y-20976476D01*
X6091181Y-20976476D02*
X5995943Y-20976476D01*
X5986419Y-21071714D01*
X5995943Y-21062190D01*
X6014991Y-21052667D01*
X6062610Y-21052667D01*
X6081657Y-21062190D01*
X6091181Y-21071714D01*
X6100705Y-21090762D01*
X6100705Y-21138381D01*
X6091181Y-21157429D01*
X6081657Y-21166952D01*
X6062610Y-21176476D01*
X6014991Y-21176476D01*
X5995943Y-21166952D01*
X5986419Y-21157429D01*
X6281657Y-20976476D02*
X6186419Y-20976476D01*
X6176895Y-21071714D01*
X6186419Y-21062190D01*
X6205467Y-21052667D01*
X6253086Y-21052667D01*
X6272134Y-21062190D01*
X6281657Y-21071714D01*
X6291181Y-21090762D01*
X6291181Y-21138381D01*
X6281657Y-21157429D01*
X6272134Y-21166952D01*
X6253086Y-21176476D01*
X6205467Y-21176476D01*
X6186419Y-21166952D01*
X6176895Y-21157429D01*
X6481657Y-21176476D02*
X6367372Y-21176476D01*
X6424514Y-21176476D02*
X6424514Y-20976476D01*
X6405467Y-21005048D01*
X6386419Y-21024095D01*
X6367372Y-21033619D01*
X6557848Y-20976476D02*
X6557848Y-21014571D01*
X6634038Y-20976476D02*
X6634038Y-21014571D01*
X6929276Y-21252667D02*
X6919753Y-21243143D01*
X6900705Y-21214571D01*
X6891181Y-21195524D01*
X6881657Y-21166952D01*
X6872134Y-21119333D01*
X6872134Y-21081238D01*
X6881657Y-21033619D01*
X6891181Y-21005048D01*
X6900705Y-20986000D01*
X6919753Y-20957429D01*
X6929276Y-20947905D01*
X7091181Y-21043143D02*
X7091181Y-21176476D01*
X7043562Y-20966952D02*
X6995943Y-21109810D01*
X7119753Y-21109810D01*
X7348324Y-21176476D02*
X7348324Y-20976476D01*
X7434038Y-21176476D02*
X7434038Y-21071714D01*
X7424514Y-21052667D01*
X7405467Y-21043143D01*
X7376895Y-21043143D01*
X7357848Y-21052667D01*
X7348324Y-21062190D01*
X7557848Y-21176476D02*
X7538800Y-21166952D01*
X7529276Y-21157429D01*
X7519753Y-21138381D01*
X7519753Y-21081238D01*
X7529276Y-21062190D01*
X7538800Y-21052667D01*
X7557848Y-21043143D01*
X7586419Y-21043143D01*
X7605467Y-21052667D01*
X7614991Y-21062190D01*
X7624514Y-21081238D01*
X7624514Y-21138381D01*
X7614991Y-21157429D01*
X7605467Y-21166952D01*
X7586419Y-21176476D01*
X7557848Y-21176476D01*
X7738800Y-21176476D02*
X7719753Y-21166952D01*
X7710229Y-21147905D01*
X7710229Y-20976476D01*
X7891181Y-21166952D02*
X7872134Y-21176476D01*
X7834038Y-21176476D01*
X7814991Y-21166952D01*
X7805467Y-21147905D01*
X7805467Y-21071714D01*
X7814991Y-21052667D01*
X7834038Y-21043143D01*
X7872134Y-21043143D01*
X7891181Y-21052667D01*
X7900705Y-21071714D01*
X7900705Y-21090762D01*
X7805467Y-21109810D01*
X7976895Y-21166952D02*
X7995943Y-21176476D01*
X8034038Y-21176476D01*
X8053086Y-21166952D01*
X8062610Y-21147905D01*
X8062610Y-21138381D01*
X8053086Y-21119333D01*
X8034038Y-21109810D01*
X8005467Y-21109810D01*
X7986419Y-21100286D01*
X7976895Y-21081238D01*
X7976895Y-21071714D01*
X7986419Y-21052667D01*
X8005467Y-21043143D01*
X8034038Y-21043143D01*
X8053086Y-21052667D01*
X8129276Y-21252667D02*
X8138800Y-21243143D01*
X8157848Y-21214571D01*
X8167372Y-21195524D01*
X8176895Y-21166952D01*
X8186419Y-21119333D01*
X8186419Y-21081238D01*
X8176895Y-21033619D01*
X8167372Y-21005048D01*
X8157848Y-20986000D01*
X8138800Y-20957429D01*
X8129276Y-20947905D01*
D20*
X3197372Y-21270000D02*
X3357372Y-21430000D01*
X3357372Y-21270000D02*
X3197372Y-21430000D01*
X3333941Y-21406569D02*
X3333941Y-21293431D01*
X3220803Y-21293431D01*
X3220803Y-21406569D01*
X3333941Y-21406569D01*
D12*
X3719753Y-21440476D02*
X3605467Y-21440476D01*
X3662610Y-21440476D02*
X3662610Y-21240476D01*
X3643562Y-21269048D01*
X3624514Y-21288095D01*
X3605467Y-21297619D01*
X3805467Y-21421429D02*
X3814991Y-21430952D01*
X3805467Y-21440476D01*
X3795943Y-21430952D01*
X3805467Y-21421429D01*
X3805467Y-21440476D01*
X3986419Y-21240476D02*
X3948324Y-21240476D01*
X3929276Y-21250000D01*
X3919753Y-21259524D01*
X3900705Y-21288095D01*
X3891181Y-21326190D01*
X3891181Y-21402381D01*
X3900705Y-21421429D01*
X3910229Y-21430952D01*
X3929276Y-21440476D01*
X3967372Y-21440476D01*
X3986419Y-21430952D01*
X3995943Y-21421429D01*
X4005467Y-21402381D01*
X4005467Y-21354762D01*
X3995943Y-21335714D01*
X3986419Y-21326190D01*
X3967372Y-21316667D01*
X3929276Y-21316667D01*
X3910229Y-21326190D01*
X3900705Y-21335714D01*
X3891181Y-21354762D01*
X4129276Y-21240476D02*
X4148324Y-21240476D01*
X4167372Y-21250000D01*
X4176895Y-21259524D01*
X4186419Y-21278571D01*
X4195943Y-21316667D01*
X4195943Y-21364286D01*
X4186419Y-21402381D01*
X4176895Y-21421429D01*
X4167372Y-21430952D01*
X4148324Y-21440476D01*
X4129276Y-21440476D01*
X4110229Y-21430952D01*
X4100705Y-21421429D01*
X4091181Y-21402381D01*
X4081657Y-21364286D01*
X4081657Y-21316667D01*
X4091181Y-21278571D01*
X4100705Y-21259524D01*
X4110229Y-21250000D01*
X4129276Y-21240476D01*
X4319753Y-21240476D02*
X4338800Y-21240476D01*
X4357848Y-21250000D01*
X4367372Y-21259524D01*
X4376896Y-21278571D01*
X4386419Y-21316667D01*
X4386419Y-21364286D01*
X4376896Y-21402381D01*
X4367372Y-21421429D01*
X4357848Y-21430952D01*
X4338800Y-21440476D01*
X4319753Y-21440476D01*
X4300705Y-21430952D01*
X4291181Y-21421429D01*
X4281657Y-21402381D01*
X4272134Y-21364286D01*
X4272134Y-21316667D01*
X4281657Y-21278571D01*
X4291181Y-21259524D01*
X4300705Y-21250000D01*
X4319753Y-21240476D01*
X4472134Y-21440476D02*
X4472134Y-21307143D01*
X4472134Y-21326190D02*
X4481657Y-21316667D01*
X4500705Y-21307143D01*
X4529276Y-21307143D01*
X4548324Y-21316667D01*
X4557848Y-21335714D01*
X4557848Y-21440476D01*
X4557848Y-21335714D02*
X4567372Y-21316667D01*
X4586419Y-21307143D01*
X4614991Y-21307143D01*
X4634038Y-21316667D01*
X4643562Y-21335714D01*
X4643562Y-21440476D01*
X4738800Y-21440476D02*
X4738800Y-21307143D01*
X4738800Y-21326190D02*
X4748324Y-21316667D01*
X4767372Y-21307143D01*
X4795943Y-21307143D01*
X4814991Y-21316667D01*
X4824515Y-21335714D01*
X4824515Y-21440476D01*
X4824515Y-21335714D02*
X4834038Y-21316667D01*
X4853086Y-21307143D01*
X4881657Y-21307143D01*
X4900705Y-21316667D01*
X4910229Y-21335714D01*
X4910229Y-21440476D01*
X5300705Y-21230952D02*
X5129276Y-21488095D01*
X5557848Y-21240476D02*
X5576896Y-21240476D01*
X5595943Y-21250000D01*
X5605467Y-21259524D01*
X5614991Y-21278571D01*
X5624514Y-21316667D01*
X5624514Y-21364286D01*
X5614991Y-21402381D01*
X5605467Y-21421429D01*
X5595943Y-21430952D01*
X5576896Y-21440476D01*
X5557848Y-21440476D01*
X5538800Y-21430952D01*
X5529276Y-21421429D01*
X5519753Y-21402381D01*
X5510229Y-21364286D01*
X5510229Y-21316667D01*
X5519753Y-21278571D01*
X5529276Y-21259524D01*
X5538800Y-21250000D01*
X5557848Y-21240476D01*
X5710229Y-21421429D02*
X5719753Y-21430952D01*
X5710229Y-21440476D01*
X5700705Y-21430952D01*
X5710229Y-21421429D01*
X5710229Y-21440476D01*
X5843562Y-21240476D02*
X5862610Y-21240476D01*
X5881657Y-21250000D01*
X5891181Y-21259524D01*
X5900705Y-21278571D01*
X5910229Y-21316667D01*
X5910229Y-21364286D01*
X5900705Y-21402381D01*
X5891181Y-21421429D01*
X5881657Y-21430952D01*
X5862610Y-21440476D01*
X5843562Y-21440476D01*
X5824514Y-21430952D01*
X5814991Y-21421429D01*
X5805467Y-21402381D01*
X5795943Y-21364286D01*
X5795943Y-21316667D01*
X5805467Y-21278571D01*
X5814991Y-21259524D01*
X5824514Y-21250000D01*
X5843562Y-21240476D01*
X6081657Y-21240476D02*
X6043562Y-21240476D01*
X6024514Y-21250000D01*
X6014991Y-21259524D01*
X5995943Y-21288095D01*
X5986419Y-21326190D01*
X5986419Y-21402381D01*
X5995943Y-21421429D01*
X6005467Y-21430952D01*
X6024514Y-21440476D01*
X6062610Y-21440476D01*
X6081657Y-21430952D01*
X6091181Y-21421429D01*
X6100705Y-21402381D01*
X6100705Y-21354762D01*
X6091181Y-21335714D01*
X6081657Y-21326190D01*
X6062610Y-21316667D01*
X6024514Y-21316667D01*
X6005467Y-21326190D01*
X5995943Y-21335714D01*
X5986419Y-21354762D01*
X6167372Y-21240476D02*
X6291181Y-21240476D01*
X6224514Y-21316667D01*
X6253086Y-21316667D01*
X6272134Y-21326190D01*
X6281657Y-21335714D01*
X6291181Y-21354762D01*
X6291181Y-21402381D01*
X6281657Y-21421429D01*
X6272134Y-21430952D01*
X6253086Y-21440476D01*
X6195943Y-21440476D01*
X6176895Y-21430952D01*
X6167372Y-21421429D01*
X6414991Y-21240476D02*
X6434038Y-21240476D01*
X6453086Y-21250000D01*
X6462610Y-21259524D01*
X6472134Y-21278571D01*
X6481657Y-21316667D01*
X6481657Y-21364286D01*
X6472134Y-21402381D01*
X6462610Y-21421429D01*
X6453086Y-21430952D01*
X6434038Y-21440476D01*
X6414991Y-21440476D01*
X6395943Y-21430952D01*
X6386419Y-21421429D01*
X6376895Y-21402381D01*
X6367372Y-21364286D01*
X6367372Y-21316667D01*
X6376895Y-21278571D01*
X6386419Y-21259524D01*
X6395943Y-21250000D01*
X6414991Y-21240476D01*
X6557848Y-21240476D02*
X6557848Y-21278571D01*
X6634038Y-21240476D02*
X6634038Y-21278571D01*
X6929276Y-21516667D02*
X6919753Y-21507143D01*
X6900705Y-21478571D01*
X6891181Y-21459524D01*
X6881657Y-21430952D01*
X6872134Y-21383333D01*
X6872134Y-21345238D01*
X6881657Y-21297619D01*
X6891181Y-21269048D01*
X6900705Y-21250000D01*
X6919753Y-21221429D01*
X6929276Y-21211905D01*
X7110229Y-21440476D02*
X6995943Y-21440476D01*
X7053086Y-21440476D02*
X7053086Y-21240476D01*
X7034038Y-21269048D01*
X7014991Y-21288095D01*
X6995943Y-21297619D01*
X7234038Y-21240476D02*
X7253086Y-21240476D01*
X7272134Y-21250000D01*
X7281657Y-21259524D01*
X7291181Y-21278571D01*
X7300705Y-21316667D01*
X7300705Y-21364286D01*
X7291181Y-21402381D01*
X7281657Y-21421429D01*
X7272134Y-21430952D01*
X7253086Y-21440476D01*
X7234038Y-21440476D01*
X7214991Y-21430952D01*
X7205467Y-21421429D01*
X7195943Y-21402381D01*
X7186419Y-21364286D01*
X7186419Y-21316667D01*
X7195943Y-21278571D01*
X7205467Y-21259524D01*
X7214991Y-21250000D01*
X7234038Y-21240476D01*
X7538800Y-21440476D02*
X7538800Y-21240476D01*
X7624514Y-21440476D02*
X7624514Y-21335714D01*
X7614991Y-21316667D01*
X7595943Y-21307143D01*
X7567372Y-21307143D01*
X7548324Y-21316667D01*
X7538800Y-21326190D01*
X7748324Y-21440476D02*
X7729276Y-21430952D01*
X7719753Y-21421429D01*
X7710229Y-21402381D01*
X7710229Y-21345238D01*
X7719753Y-21326190D01*
X7729276Y-21316667D01*
X7748324Y-21307143D01*
X7776895Y-21307143D01*
X7795943Y-21316667D01*
X7805467Y-21326190D01*
X7814991Y-21345238D01*
X7814991Y-21402381D01*
X7805467Y-21421429D01*
X7795943Y-21430952D01*
X7776895Y-21440476D01*
X7748324Y-21440476D01*
X7929276Y-21440476D02*
X7910229Y-21430952D01*
X7900705Y-21411905D01*
X7900705Y-21240476D01*
X8081657Y-21430952D02*
X8062610Y-21440476D01*
X8024514Y-21440476D01*
X8005467Y-21430952D01*
X7995943Y-21411905D01*
X7995943Y-21335714D01*
X8005467Y-21316667D01*
X8024514Y-21307143D01*
X8062610Y-21307143D01*
X8081657Y-21316667D01*
X8091181Y-21335714D01*
X8091181Y-21354762D01*
X7995943Y-21373810D01*
X8167372Y-21430952D02*
X8186419Y-21440476D01*
X8224514Y-21440476D01*
X8243562Y-21430952D01*
X8253086Y-21411905D01*
X8253086Y-21402381D01*
X8243562Y-21383333D01*
X8224514Y-21373810D01*
X8195943Y-21373810D01*
X8176895Y-21364286D01*
X8167372Y-21345238D01*
X8167372Y-21335714D01*
X8176895Y-21316667D01*
X8195943Y-21307143D01*
X8224514Y-21307143D01*
X8243562Y-21316667D01*
X8319753Y-21516667D02*
X8329276Y-21507143D01*
X8348324Y-21478571D01*
X8357848Y-21459524D01*
X8367372Y-21430952D01*
X8376895Y-21383333D01*
X8376895Y-21345238D01*
X8367372Y-21297619D01*
X8357848Y-21269048D01*
X8348324Y-21250000D01*
X8329276Y-21221429D01*
X8319753Y-21211905D01*
X3157372Y-21530000D02*
X3357372Y-21730000D01*
X3357372Y-21530000D02*
X3157372Y-21730000D01*
X3257372Y-21730000D02*
X3357372Y-21630000D01*
X3257372Y-21530000D01*
X3157372Y-21630000D01*
X3257372Y-21730000D01*
X3595943Y-21520476D02*
X3719753Y-21520476D01*
X3653086Y-21596667D01*
X3681657Y-21596667D01*
X3700705Y-21606190D01*
X3710229Y-21615714D01*
X3719753Y-21634762D01*
X3719753Y-21682381D01*
X3710229Y-21701429D01*
X3700705Y-21710952D01*
X3681657Y-21720476D01*
X3624514Y-21720476D01*
X3605467Y-21710952D01*
X3595943Y-21701429D01*
X3805467Y-21701429D02*
X3814991Y-21710952D01*
X3805467Y-21720476D01*
X3795943Y-21710952D01*
X3805467Y-21701429D01*
X3805467Y-21720476D01*
X3891181Y-21539524D02*
X3900705Y-21530000D01*
X3919753Y-21520476D01*
X3967372Y-21520476D01*
X3986419Y-21530000D01*
X3995943Y-21539524D01*
X4005467Y-21558571D01*
X4005467Y-21577619D01*
X3995943Y-21606190D01*
X3881657Y-21720476D01*
X4005467Y-21720476D01*
X4129276Y-21520476D02*
X4148324Y-21520476D01*
X4167372Y-21530000D01*
X4176895Y-21539524D01*
X4186419Y-21558571D01*
X4195943Y-21596667D01*
X4195943Y-21644286D01*
X4186419Y-21682381D01*
X4176895Y-21701429D01*
X4167372Y-21710952D01*
X4148324Y-21720476D01*
X4129276Y-21720476D01*
X4110229Y-21710952D01*
X4100705Y-21701429D01*
X4091181Y-21682381D01*
X4081657Y-21644286D01*
X4081657Y-21596667D01*
X4091181Y-21558571D01*
X4100705Y-21539524D01*
X4110229Y-21530000D01*
X4129276Y-21520476D01*
X4319753Y-21520476D02*
X4338800Y-21520476D01*
X4357848Y-21530000D01*
X4367372Y-21539524D01*
X4376896Y-21558571D01*
X4386419Y-21596667D01*
X4386419Y-21644286D01*
X4376896Y-21682381D01*
X4367372Y-21701429D01*
X4357848Y-21710952D01*
X4338800Y-21720476D01*
X4319753Y-21720476D01*
X4300705Y-21710952D01*
X4291181Y-21701429D01*
X4281657Y-21682381D01*
X4272134Y-21644286D01*
X4272134Y-21596667D01*
X4281657Y-21558571D01*
X4291181Y-21539524D01*
X4300705Y-21530000D01*
X4319753Y-21520476D01*
X4472134Y-21720476D02*
X4472134Y-21587143D01*
X4472134Y-21606190D02*
X4481657Y-21596667D01*
X4500705Y-21587143D01*
X4529276Y-21587143D01*
X4548324Y-21596667D01*
X4557848Y-21615714D01*
X4557848Y-21720476D01*
X4557848Y-21615714D02*
X4567372Y-21596667D01*
X4586419Y-21587143D01*
X4614991Y-21587143D01*
X4634038Y-21596667D01*
X4643562Y-21615714D01*
X4643562Y-21720476D01*
X4738800Y-21720476D02*
X4738800Y-21587143D01*
X4738800Y-21606190D02*
X4748324Y-21596667D01*
X4767372Y-21587143D01*
X4795943Y-21587143D01*
X4814991Y-21596667D01*
X4824515Y-21615714D01*
X4824515Y-21720476D01*
X4824515Y-21615714D02*
X4834038Y-21596667D01*
X4853086Y-21587143D01*
X4881657Y-21587143D01*
X4900705Y-21596667D01*
X4910229Y-21615714D01*
X4910229Y-21720476D01*
X5300705Y-21510952D02*
X5129276Y-21768095D01*
X5557848Y-21520476D02*
X5576896Y-21520476D01*
X5595943Y-21530000D01*
X5605467Y-21539524D01*
X5614991Y-21558571D01*
X5624514Y-21596667D01*
X5624514Y-21644286D01*
X5614991Y-21682381D01*
X5605467Y-21701429D01*
X5595943Y-21710952D01*
X5576896Y-21720476D01*
X5557848Y-21720476D01*
X5538800Y-21710952D01*
X5529276Y-21701429D01*
X5519753Y-21682381D01*
X5510229Y-21644286D01*
X5510229Y-21596667D01*
X5519753Y-21558571D01*
X5529276Y-21539524D01*
X5538800Y-21530000D01*
X5557848Y-21520476D01*
X5710229Y-21701429D02*
X5719753Y-21710952D01*
X5710229Y-21720476D01*
X5700705Y-21710952D01*
X5710229Y-21701429D01*
X5710229Y-21720476D01*
X5910229Y-21720476D02*
X5795943Y-21720476D01*
X5853086Y-21720476D02*
X5853086Y-21520476D01*
X5834038Y-21549048D01*
X5814991Y-21568095D01*
X5795943Y-21577619D01*
X5986419Y-21539524D02*
X5995943Y-21530000D01*
X6014991Y-21520476D01*
X6062610Y-21520476D01*
X6081657Y-21530000D01*
X6091181Y-21539524D01*
X6100705Y-21558571D01*
X6100705Y-21577619D01*
X6091181Y-21606190D01*
X5976895Y-21720476D01*
X6100705Y-21720476D01*
X6272134Y-21520476D02*
X6234038Y-21520476D01*
X6214991Y-21530000D01*
X6205467Y-21539524D01*
X6186419Y-21568095D01*
X6176895Y-21606190D01*
X6176895Y-21682381D01*
X6186419Y-21701429D01*
X6195943Y-21710952D01*
X6214991Y-21720476D01*
X6253086Y-21720476D01*
X6272134Y-21710952D01*
X6281657Y-21701429D01*
X6291181Y-21682381D01*
X6291181Y-21634762D01*
X6281657Y-21615714D01*
X6272134Y-21606190D01*
X6253086Y-21596667D01*
X6214991Y-21596667D01*
X6195943Y-21606190D01*
X6186419Y-21615714D01*
X6176895Y-21634762D01*
X6414991Y-21520476D02*
X6434038Y-21520476D01*
X6453086Y-21530000D01*
X6462610Y-21539524D01*
X6472134Y-21558571D01*
X6481657Y-21596667D01*
X6481657Y-21644286D01*
X6472134Y-21682381D01*
X6462610Y-21701429D01*
X6453086Y-21710952D01*
X6434038Y-21720476D01*
X6414991Y-21720476D01*
X6395943Y-21710952D01*
X6386419Y-21701429D01*
X6376895Y-21682381D01*
X6367372Y-21644286D01*
X6367372Y-21596667D01*
X6376895Y-21558571D01*
X6386419Y-21539524D01*
X6395943Y-21530000D01*
X6414991Y-21520476D01*
X6557848Y-21520476D02*
X6557848Y-21558571D01*
X6634038Y-21520476D02*
X6634038Y-21558571D01*
X6929276Y-21796667D02*
X6919753Y-21787143D01*
X6900705Y-21758571D01*
X6891181Y-21739524D01*
X6881657Y-21710952D01*
X6872134Y-21663333D01*
X6872134Y-21625238D01*
X6881657Y-21577619D01*
X6891181Y-21549048D01*
X6900705Y-21530000D01*
X6919753Y-21501429D01*
X6929276Y-21491905D01*
X6986419Y-21520476D02*
X7110229Y-21520476D01*
X7043562Y-21596667D01*
X7072134Y-21596667D01*
X7091181Y-21606190D01*
X7100705Y-21615714D01*
X7110229Y-21634762D01*
X7110229Y-21682381D01*
X7100705Y-21701429D01*
X7091181Y-21710952D01*
X7072134Y-21720476D01*
X7014991Y-21720476D01*
X6995943Y-21710952D01*
X6986419Y-21701429D01*
X7186419Y-21539524D02*
X7195943Y-21530000D01*
X7214991Y-21520476D01*
X7262610Y-21520476D01*
X7281657Y-21530000D01*
X7291181Y-21539524D01*
X7300705Y-21558571D01*
X7300705Y-21577619D01*
X7291181Y-21606190D01*
X7176895Y-21720476D01*
X7300705Y-21720476D01*
X7538800Y-21720476D02*
X7538800Y-21520476D01*
X7624514Y-21720476D02*
X7624514Y-21615714D01*
X7614991Y-21596667D01*
X7595943Y-21587143D01*
X7567372Y-21587143D01*
X7548324Y-21596667D01*
X7538800Y-21606190D01*
X7748324Y-21720476D02*
X7729276Y-21710952D01*
X7719753Y-21701429D01*
X7710229Y-21682381D01*
X7710229Y-21625238D01*
X7719753Y-21606190D01*
X7729276Y-21596667D01*
X7748324Y-21587143D01*
X7776895Y-21587143D01*
X7795943Y-21596667D01*
X7805467Y-21606190D01*
X7814991Y-21625238D01*
X7814991Y-21682381D01*
X7805467Y-21701429D01*
X7795943Y-21710952D01*
X7776895Y-21720476D01*
X7748324Y-21720476D01*
X7929276Y-21720476D02*
X7910229Y-21710952D01*
X7900705Y-21691905D01*
X7900705Y-21520476D01*
X8081657Y-21710952D02*
X8062610Y-21720476D01*
X8024514Y-21720476D01*
X8005467Y-21710952D01*
X7995943Y-21691905D01*
X7995943Y-21615714D01*
X8005467Y-21596667D01*
X8024514Y-21587143D01*
X8062610Y-21587143D01*
X8081657Y-21596667D01*
X8091181Y-21615714D01*
X8091181Y-21634762D01*
X7995943Y-21653810D01*
X8167372Y-21710952D02*
X8186419Y-21720476D01*
X8224514Y-21720476D01*
X8243562Y-21710952D01*
X8253086Y-21691905D01*
X8253086Y-21682381D01*
X8243562Y-21663333D01*
X8224514Y-21653810D01*
X8195943Y-21653810D01*
X8176895Y-21644286D01*
X8167372Y-21625238D01*
X8167372Y-21615714D01*
X8176895Y-21596667D01*
X8195943Y-21587143D01*
X8224514Y-21587143D01*
X8243562Y-21596667D01*
X8319753Y-21796667D02*
X8329276Y-21787143D01*
X8348324Y-21758571D01*
X8357848Y-21739524D01*
X8367372Y-21710952D01*
X8376895Y-21663333D01*
X8376895Y-21625238D01*
X8367372Y-21577619D01*
X8357848Y-21549048D01*
X8348324Y-21530000D01*
X8329276Y-21501429D01*
X8319753Y-21491905D01*
M02*
