M48
; DRILL file {KiCad 6.0.11-2627ca5db0~126~ubuntu20.04.1} date Wed May 10 15:40:15 2023
; FORMAT={-:-/ absolute / inch / decimal}
; #@! TF.CreationDate,2023-05-10T15:40:15+05:30
; #@! TF.GenerationSoftware,Kicad,Pcbnew,6.0.11-2627ca5db0~126~ubuntu20.04.1
; #@! TF.FileFunction,NonPlated,1,4,NPTH
FMAT,2
INCH
; #@! TA.AperFunction,NonPlated,NPTH,ComponentDrill
T1C0.0197
%
G90
G05
T1
X2.0421Y-3.0392
X2.0421Y-3.1573
X2.0726Y-3.0392
X2.0726Y-3.1573
X2.1021Y-3.0392
X2.1021Y-3.1573
X2.1316Y-3.1573
X2.1321Y-3.0392
X2.1616Y-3.0392
X2.1616Y-3.1573
X3.8433Y-3.0392
X3.8433Y-3.1573
X3.8737Y-3.0392
X3.8737Y-3.1573
X3.9033Y-3.0392
X3.9033Y-3.1573
X3.9328Y-3.1573
X3.9333Y-3.0392
X3.9628Y-3.0392
X3.9628Y-3.1573
X5.6366Y-3.0392
X5.6366Y-3.1573
X5.667Y-3.0392
X5.667Y-3.1573
X5.6966Y-3.0392
X5.6966Y-3.1573
X5.7261Y-3.1573
X5.7266Y-3.0392
X5.7561Y-3.0392
X5.7561Y-3.1573
T0
M30
