%TF.GenerationSoftware,KiCad,Pcbnew,6.0.11-2627ca5db0~126~ubuntu20.04.1*%
%TF.CreationDate,2023-05-10T15:40:20+05:30*%
%TF.ProjectId,MVCU_F407,4d564355-5f46-4343-9037-2e6b69636164,rev?*%
%TF.SameCoordinates,Original*%
%TF.FileFunction,Copper,L4,Bot*%
%TF.FilePolarity,Positive*%
%FSLAX46Y46*%
G04 Gerber Fmt 4.6, Leading zero omitted, Abs format (unit mm)*
G04 Created by KiCad (PCBNEW 6.0.11-2627ca5db0~126~ubuntu20.04.1) date 2023-05-10 15:40:20*
%MOMM*%
%LPD*%
G01*
G04 APERTURE LIST*
G04 Aperture macros list*
%AMRoundRect*
0 Rectangle with rounded corners*
0 $1 Rounding radius*
0 $2 $3 $4 $5 $6 $7 $8 $9 X,Y pos of 4 corners*
0 Add a 4 corners polygon primitive as box body*
4,1,4,$2,$3,$4,$5,$6,$7,$8,$9,$2,$3,0*
0 Add four circle primitives for the rounded corners*
1,1,$1+$1,$2,$3*
1,1,$1+$1,$4,$5*
1,1,$1+$1,$6,$7*
1,1,$1+$1,$8,$9*
0 Add four rect primitives between the rounded corners*
20,1,$1+$1,$2,$3,$4,$5,0*
20,1,$1+$1,$4,$5,$6,$7,0*
20,1,$1+$1,$6,$7,$8,$9,0*
20,1,$1+$1,$8,$9,$2,$3,0*%
%AMHorizOval*
0 Thick line with rounded ends*
0 $1 width*
0 $2 $3 position (X,Y) of the first rounded end (center of the circle)*
0 $4 $5 position (X,Y) of the second rounded end (center of the circle)*
0 Add line between two ends*
20,1,$1,$2,$3,$4,$5,0*
0 Add two circle primitives to create the rounded ends*
1,1,$1,$2,$3*
1,1,$1,$4,$5*%
%AMRotRect*
0 Rectangle, with rotation*
0 The origin of the aperture is its center*
0 $1 length*
0 $2 width*
0 $3 Rotation angle, in degrees counterclockwise*
0 Add horizontal line*
21,1,$1,$2,0,0,$3*%
G04 Aperture macros list end*
%TA.AperFunction,ComponentPad*%
%ADD10R,1.600000X1.600000*%
%TD*%
%TA.AperFunction,ComponentPad*%
%ADD11O,1.600000X1.600000*%
%TD*%
%TA.AperFunction,ComponentPad*%
%ADD12C,4.000000*%
%TD*%
%TA.AperFunction,ComponentPad*%
%ADD13C,1.600000*%
%TD*%
%TA.AperFunction,ComponentPad*%
%ADD14C,2.800000*%
%TD*%
%TA.AperFunction,ComponentPad*%
%ADD15C,5.600000*%
%TD*%
%TA.AperFunction,ComponentPad*%
%ADD16R,1.700000X1.700000*%
%TD*%
%TA.AperFunction,ComponentPad*%
%ADD17O,1.700000X1.700000*%
%TD*%
%TA.AperFunction,ComponentPad*%
%ADD18C,1.524000*%
%TD*%
%TA.AperFunction,ComponentPad*%
%ADD19RotRect,1.700000X1.700000X225.000000*%
%TD*%
%TA.AperFunction,ComponentPad*%
%ADD20HorizOval,1.700000X0.000000X0.000000X0.000000X0.000000X0*%
%TD*%
%TA.AperFunction,ComponentPad*%
%ADD21RoundRect,0.250000X-0.750000X-1.550000X0.750000X-1.550000X0.750000X1.550000X-0.750000X1.550000X0*%
%TD*%
%TA.AperFunction,ComponentPad*%
%ADD22O,2.000000X3.600000*%
%TD*%
%TA.AperFunction,ComponentPad*%
%ADD23C,2.000000*%
%TD*%
%TA.AperFunction,ViaPad*%
%ADD24C,0.800000*%
%TD*%
%TA.AperFunction,Conductor*%
%ADD25C,0.250000*%
%TD*%
%TA.AperFunction,Conductor*%
%ADD26C,0.400000*%
%TD*%
%TA.AperFunction,Conductor*%
%ADD27C,0.500000*%
%TD*%
%TA.AperFunction,Conductor*%
%ADD28C,0.300000*%
%TD*%
%TA.AperFunction,Conductor*%
%ADD29C,0.700000*%
%TD*%
%TA.AperFunction,Conductor*%
%ADD30C,0.200000*%
%TD*%
G04 APERTURE END LIST*
D10*
%TO.P,U1,1*%
%TO.N,GND*%
X135264000Y-84289000D03*
D11*
%TO.P,U1,2*%
%TO.N,Net-(R2-Pad1)*%
X135264000Y-86829000D03*
%TO.P,U1,3*%
%TO.N,/DI_LLS*%
X135264000Y-89369000D03*
%TO.P,U1,4*%
%TO.N,GND*%
X135264000Y-91909000D03*
%TO.P,U1,5*%
%TO.N,Net-(R4-Pad1)*%
X135264000Y-94449000D03*
%TO.P,U1,6*%
%TO.N,/SCK_LLS*%
X135264000Y-96989000D03*
%TO.P,U1,7,GND*%
%TO.N,GND*%
X135264000Y-99529000D03*
%TO.P,U1,8*%
%TO.N,/CS_LLS*%
X142884000Y-99529000D03*
%TO.P,U1,9*%
%TO.N,Net-(R5-Pad1)*%
X142884000Y-96989000D03*
%TO.P,U1,10*%
%TO.N,GND*%
X142884000Y-94449000D03*
%TO.P,U1,11*%
%TO.N,/SD_MISO*%
X142884000Y-91909000D03*
%TO.P,U1,12*%
%TO.N,Net-(R6-Pad1)*%
X142884000Y-89369000D03*
%TO.P,U1,13*%
%TO.N,GND*%
X142884000Y-86829000D03*
%TO.P,U1,14,VCC*%
%TO.N,+3.3V*%
X142884000Y-84289000D03*
%TD*%
D12*
%TO.P,J33,0,PAD*%
%TO.N,GND*%
X156384669Y-73831893D03*
X156384669Y-48831893D03*
D10*
%TO.P,J33,1,1*%
%TO.N,/MVCU_HBT*%
X154964669Y-66871893D03*
D13*
%TO.P,J33,2,2*%
%TO.N,/CAN_N*%
X154964669Y-64101893D03*
%TO.P,J33,3,3*%
%TO.N,GND*%
X154964669Y-61331893D03*
%TO.P,J33,4,4*%
%TO.N,/I2C3_SCL*%
X154964669Y-58561893D03*
%TO.P,J33,5,5*%
%TO.N,GND*%
X154964669Y-55791893D03*
%TO.P,J33,6,6*%
%TO.N,/VCU3_HBT*%
X157804669Y-65486893D03*
%TO.P,J33,7,7*%
%TO.N,/CAN_P*%
X157804669Y-62716893D03*
%TO.P,J33,8,8*%
%TO.N,/I2C_SDA*%
X157804669Y-59946893D03*
%TO.P,J33,9,9*%
%TO.N,+5V*%
X157804669Y-57176893D03*
%TD*%
D14*
%TO.P,+Vin,1,1*%
%TO.N,/mornsun_Vin*%
X102947000Y-97118000D03*
%TD*%
D15*
%TO.P,H6,1,1*%
%TO.N,GND*%
X39864107Y-53267893D03*
%TD*%
D14*
%TO.P,-Vin,1,1*%
%TO.N,/mornsun_minus*%
X98248000Y-97245000D03*
%TD*%
D10*
%TO.P,U19,1,B*%
%TO.N,/display_b*%
X119037000Y3197500D03*
D11*
%TO.P,U19,2,C*%
%TO.N,/display_c*%
X119037000Y657500D03*
%TO.P,U19,3,LT*%
%TO.N,Net-(J9-Pad2)*%
X119037000Y-1882500D03*
%TO.P,U19,4,BI*%
%TO.N,Net-(J9-Pad4)*%
X119037000Y-4422500D03*
%TO.P,U19,5,RBI*%
%TO.N,Net-(J9-Pad6)*%
X119037000Y-6962500D03*
%TO.P,U19,6,D*%
%TO.N,/display_d*%
X119037000Y-9502500D03*
%TO.P,U19,7,A*%
%TO.N,/display_a*%
X119037000Y-12042500D03*
%TO.P,U19,8,GND*%
%TO.N,GND*%
X119037000Y-14582500D03*
%TO.P,U19,9,e*%
%TO.N,Net-(U10-Pad1)*%
X126657000Y-14582500D03*
%TO.P,U19,10,d*%
%TO.N,Net-(U10-Pad2)*%
X126657000Y-12042500D03*
%TO.P,U19,11,c*%
%TO.N,Net-(U10-Pad4)*%
X126657000Y-9502500D03*
%TO.P,U19,12,b*%
%TO.N,Net-(U10-Pad6)*%
X126657000Y-6962500D03*
%TO.P,U19,13,a*%
%TO.N,Net-(U10-Pad7)*%
X126657000Y-4422500D03*
%TO.P,U19,14,g*%
%TO.N,Net-(U10-Pad10)*%
X126657000Y-1882500D03*
%TO.P,U19,15,f*%
%TO.N,Net-(U10-Pad9)*%
X126657000Y657500D03*
%TO.P,U19,16,VCC*%
%TO.N,+5V*%
X126657000Y3197500D03*
%TD*%
D12*
%TO.P,J6,0,PAD*%
%TO.N,GND*%
X156499107Y-122551893D03*
X156499107Y-147551893D03*
D10*
%TO.P,J6,1,1*%
%TO.N,/MVCU_HBT*%
X155079107Y-140591893D03*
D13*
%TO.P,J6,2,2*%
%TO.N,/CAN_N*%
X155079107Y-137821893D03*
%TO.P,J6,3,3*%
%TO.N,GND*%
X155079107Y-135051893D03*
%TO.P,J6,4,4*%
%TO.N,/I2C3_SCL*%
X155079107Y-132281893D03*
%TO.P,J6,5,5*%
%TO.N,GND*%
X155079107Y-129511893D03*
%TO.P,J6,6,6*%
%TO.N,/VCU2_HBT*%
X157919107Y-139206893D03*
%TO.P,J6,7,7*%
%TO.N,/CAN_P*%
X157919107Y-136436893D03*
%TO.P,J6,8,8*%
%TO.N,/I2C_SDA*%
X157919107Y-133666893D03*
%TO.P,J6,9,9*%
%TO.N,+5V*%
X157919107Y-130896893D03*
%TD*%
D16*
%TO.P,J38,1,Pin_1*%
%TO.N,GND*%
X61207000Y-2225000D03*
D17*
%TO.P,J38,2,Pin_2*%
%TO.N,+3.3V*%
X61207000Y-4765000D03*
%TO.P,J38,3,Pin_3*%
%TO.N,GND*%
X58667000Y-2225000D03*
%TO.P,J38,4,Pin_4*%
%TO.N,+5V*%
X58667000Y-4765000D03*
%TO.P,J38,5,Pin_5*%
%TO.N,GND*%
X56127000Y-2225000D03*
%TO.P,J38,6,Pin_6*%
%TO.N,/mornsun_Vin*%
X56127000Y-4765000D03*
%TD*%
D10*
%TO.P,C54,1*%
%TO.N,/mornsun_Vin*%
X70404349Y21325000D03*
D13*
%TO.P,C54,2*%
%TO.N,GND*%
X72904349Y21325000D03*
%TD*%
D16*
%TO.P,J35,1,Pin_1*%
%TO.N,/SPI2_SCK*%
X95857000Y-47175000D03*
D17*
%TO.P,J35,2,Pin_2*%
%TO.N,/SPI2_MISO*%
X98397000Y-47175000D03*
%TO.P,J35,3,Pin_3*%
%TO.N,/SPI2_MOSI*%
X100937000Y-47175000D03*
%TO.P,J35,4,Pin_4*%
%TO.N,GND*%
X103477000Y-47175000D03*
%TD*%
D16*
%TO.P,J31,1,Pin_1*%
%TO.N,/USART2_Tx*%
X77557000Y-39975000D03*
D17*
%TO.P,J31,2,Pin_2*%
%TO.N,/USART2_Rx*%
X77557000Y-42515000D03*
%TO.P,J31,3,Pin_3*%
%TO.N,/gpio*%
X77557000Y-45055000D03*
%TO.P,J31,4,Pin_4*%
%TO.N,GND*%
X77557000Y-47595000D03*
%TD*%
D18*
%TO.P,U9,1,1*%
%TO.N,+3.3V*%
X47993660Y-152543200D03*
%TO.P,U9,2,2*%
%TO.N,/Xbee_Tx*%
X49995180Y-152543200D03*
%TO.P,U9,3,3*%
%TO.N,/Xbee_Rx*%
X51994160Y-152543200D03*
%TO.P,U9,4,4*%
%TO.N,unconnected-(U9-Pad4)*%
X53995680Y-152543200D03*
%TO.P,U9,5,5*%
%TO.N,/RST*%
X55994660Y-152543200D03*
%TO.P,U9,6,6*%
%TO.N,/RSSI*%
X57993640Y-152543200D03*
%TO.P,U9,7,7*%
%TO.N,unconnected-(U9-Pad7)*%
X59995160Y-152543200D03*
%TO.P,U9,8,8*%
%TO.N,unconnected-(U9-Pad8)*%
X61994140Y-152543200D03*
%TO.P,U9,9,9*%
%TO.N,unconnected-(U9-Pad9)*%
X63995660Y-152543200D03*
%TO.P,U9,10,10*%
%TO.N,GND*%
X65994640Y-152543200D03*
%TO.P,U9,11,11*%
%TO.N,unconnected-(U9-Pad11)*%
X65994640Y-130546800D03*
%TO.P,U9,12,12*%
%TO.N,unconnected-(U9-Pad12)*%
X63995660Y-130546800D03*
%TO.P,U9,13,13*%
%TO.N,unconnected-(U9-Pad13)*%
X61994140Y-130546800D03*
%TO.P,U9,14,14*%
%TO.N,unconnected-(U9-Pad14)*%
X59995160Y-130546800D03*
%TO.P,U9,15,15*%
%TO.N,Net-(R23-Pad2)*%
X57993640Y-130546800D03*
%TO.P,U9,16,16*%
%TO.N,unconnected-(U9-Pad16)*%
X55994660Y-130546800D03*
%TO.P,U9,17,17*%
%TO.N,unconnected-(U9-Pad17)*%
X53995680Y-130546800D03*
%TO.P,U9,18,18*%
%TO.N,unconnected-(U9-Pad18)*%
X51994160Y-130546800D03*
%TO.P,U9,19,19*%
%TO.N,unconnected-(U9-Pad19)*%
X49995180Y-130546800D03*
%TO.P,U9,20,20*%
%TO.N,unconnected-(U9-Pad20)*%
X47993660Y-130546800D03*
%TD*%
D16*
%TO.P,J39,1,Pin_1*%
%TO.N,+5V*%
X56907000Y-10775000D03*
D17*
%TO.P,J39,2,Pin_2*%
%TO.N,Net-(C26-Pad1)*%
X54367000Y-10775000D03*
%TO.P,J39,3,Pin_3*%
%TO.N,unconnected-(J18-Pad3)*%
X51827000Y-10775000D03*
%TD*%
D16*
%TO.P,J41,1,Pin_1*%
%TO.N,/CAN_Rx*%
X134609000Y-55040000D03*
%TD*%
D10*
%TO.P,U10,1,E*%
%TO.N,Net-(U10-Pad1)*%
X131888000Y-125195000D03*
D13*
%TO.P,U10,2,D*%
%TO.N,Net-(U10-Pad2)*%
X134428000Y-125195000D03*
%TO.P,U10,3,CC*%
%TO.N,GND*%
X136968000Y-125195000D03*
%TO.P,U10,4,C*%
%TO.N,Net-(U10-Pad4)*%
X139508000Y-125195000D03*
%TO.P,U10,5,DP*%
%TO.N,unconnected-(U10-Pad5)*%
X142048000Y-125195000D03*
%TO.P,U10,6,B*%
%TO.N,Net-(U10-Pad6)*%
X142048000Y-109955000D03*
%TO.P,U10,7,A*%
%TO.N,Net-(U10-Pad7)*%
X139508000Y-109955000D03*
%TO.P,U10,8,CC*%
%TO.N,GND*%
X136968000Y-109955000D03*
%TO.P,U10,9,F*%
%TO.N,Net-(U10-Pad9)*%
X134428000Y-109955000D03*
%TO.P,U10,10,G*%
%TO.N,Net-(U10-Pad10)*%
X131888000Y-109955000D03*
%TD*%
D15*
%TO.P,H5,1,1*%
%TO.N,GND*%
X147357000Y-68575000D03*
%TD*%
D19*
%TO.P,J36,1,Pin_1*%
%TO.N,/I2C1_SCL*%
X111758562Y-10326562D03*
D20*
%TO.P,J36,2,Pin_2*%
%TO.N,/I2C1_SDA*%
X109962511Y-8530511D03*
%TD*%
D12*
%TO.P,J26,0,PAD*%
%TO.N,GND*%
X65904107Y-66607562D03*
X40904107Y-66607562D03*
D10*
%TO.P,J26,1,1*%
%TO.N,unconnected-(J4-Pad1)*%
X47864107Y-65187562D03*
D13*
%TO.P,J26,2,2*%
%TO.N,/Rx*%
X50634107Y-65187562D03*
%TO.P,J26,3,3*%
%TO.N,/Tx*%
X53404107Y-65187562D03*
%TO.P,J26,4,4*%
%TO.N,unconnected-(J4-Pad4)*%
X56174107Y-65187562D03*
%TO.P,J26,5,5*%
%TO.N,GND*%
X58944107Y-65187562D03*
%TO.P,J26,6,6*%
%TO.N,unconnected-(J4-Pad6)*%
X49249107Y-68027562D03*
%TO.P,J26,7,7*%
%TO.N,unconnected-(J4-Pad7)*%
X52019107Y-68027562D03*
%TO.P,J26,8,8*%
%TO.N,unconnected-(J4-Pad8)*%
X54789107Y-68027562D03*
%TO.P,J26,9,9*%
%TO.N,unconnected-(J4-Pad9)*%
X57559107Y-68027562D03*
%TD*%
D16*
%TO.P,J34,1,Pin_1*%
%TO.N,/SWDIO*%
X128332000Y-24675000D03*
D17*
%TO.P,J34,2,Pin_2*%
%TO.N,/SWCLK*%
X130872000Y-24675000D03*
%TO.P,J34,3,Pin_3*%
%TO.N,/SWo*%
X133412000Y-24675000D03*
%TO.P,J34,4,Pin_4*%
%TO.N,+3.3V*%
X135952000Y-24675000D03*
%TO.P,J34,5,Pin_5*%
%TO.N,GND*%
X138492000Y-24675000D03*
%TD*%
D15*
%TO.P,H4,1,1*%
%TO.N,GND*%
X149048000Y-87339000D03*
%TD*%
%TO.P,H2,1,1*%
%TO.N,GND*%
X39825107Y-164687893D03*
%TD*%
D12*
%TO.P,J29,0,PAD*%
%TO.N,GND*%
X77154107Y-67107562D03*
X102154107Y-67107562D03*
D10*
%TO.P,J29,1,1*%
%TO.N,/MVCU_HBT*%
X84114107Y-65687562D03*
D13*
%TO.P,J29,2,2*%
%TO.N,/CAN_N*%
X86884107Y-65687562D03*
%TO.P,J29,3,3*%
%TO.N,GND*%
X89654107Y-65687562D03*
%TO.P,J29,4,4*%
%TO.N,/I2C3_SCL*%
X92424107Y-65687562D03*
%TO.P,J29,5,5*%
%TO.N,GND*%
X95194107Y-65687562D03*
%TO.P,J29,6,6*%
%TO.N,/VCU5_HBT*%
X85499107Y-68527562D03*
%TO.P,J29,7,7*%
%TO.N,/CAN_P*%
X88269107Y-68527562D03*
%TO.P,J29,8,8*%
%TO.N,/I2C_SDA*%
X91039107Y-68527562D03*
%TO.P,J29,9,9*%
%TO.N,+5V*%
X93809107Y-68527562D03*
%TD*%
D16*
%TO.P,J2,1,Pin_1*%
%TO.N,/ADC_in6*%
X87318000Y-149420000D03*
D17*
%TO.P,J2,2,Pin_2*%
%TO.N,/ADC_in7*%
X87318000Y-151960000D03*
%TO.P,J2,3,Pin_3*%
%TO.N,/ADC_in14*%
X87318000Y-154500000D03*
%TO.P,J2,4,Pin_4*%
%TO.N,/ADC_in15*%
X87318000Y-157040000D03*
%TO.P,J2,5,Pin_5*%
%TO.N,/ADC_in8*%
X87318000Y-159580000D03*
%TD*%
D12*
%TO.P,J7,0,PAD*%
%TO.N,GND*%
X77115107Y-178527562D03*
X102115107Y-178527562D03*
D10*
%TO.P,J7,1,1*%
%TO.N,/MVCU_HBT*%
X84075107Y-177107562D03*
D13*
%TO.P,J7,2,2*%
%TO.N,/CAN_N*%
X86845107Y-177107562D03*
%TO.P,J7,3,3*%
%TO.N,GND*%
X89615107Y-177107562D03*
%TO.P,J7,4,4*%
%TO.N,/I2C3_SCL*%
X92385107Y-177107562D03*
%TO.P,J7,5,5*%
%TO.N,GND*%
X95155107Y-177107562D03*
%TO.P,J7,6,6*%
%TO.N,/VCU5_HBT*%
X85460107Y-179947562D03*
%TO.P,J7,7,7*%
%TO.N,/CAN_P*%
X88230107Y-179947562D03*
%TO.P,J7,8,8*%
%TO.N,/I2C_SDA*%
X91000107Y-179947562D03*
%TO.P,J7,9,9*%
%TO.N,+5V*%
X93770107Y-179947562D03*
%TD*%
D14*
%TO.P,3V1,1,1*%
%TO.N,+3.3V*%
X89016000Y14175000D03*
%TD*%
D12*
%TO.P,J11,0,PAD*%
%TO.N,GND*%
X157018776Y-85051893D03*
X157018776Y-110051893D03*
D10*
%TO.P,J11,1,1*%
%TO.N,/MVCU_HBT*%
X155598776Y-103091893D03*
D13*
%TO.P,J11,2,2*%
%TO.N,/CAN_N*%
X155598776Y-100321893D03*
%TO.P,J11,3,3*%
%TO.N,GND*%
X155598776Y-97551893D03*
%TO.P,J11,4,4*%
%TO.N,/I2C3_SCL*%
X155598776Y-94781893D03*
%TO.P,J11,5,5*%
%TO.N,GND*%
X155598776Y-92011893D03*
%TO.P,J11,6,6*%
%TO.N,/VCU1_HBT*%
X158438776Y-101706893D03*
%TO.P,J11,7,7*%
%TO.N,/CAN_P*%
X158438776Y-98936893D03*
%TO.P,J11,8,8*%
%TO.N,/I2C_SDA*%
X158438776Y-96166893D03*
%TO.P,J11,9,9*%
%TO.N,+5V*%
X158438776Y-93396893D03*
%TD*%
D16*
%TO.P,J20,1,Pin_1*%
%TO.N,/CAN_Rx*%
X134570000Y-166460000D03*
%TD*%
%TO.P,J13,1,Pin_1*%
%TO.N,/SWDIO*%
X128293000Y-136095000D03*
D17*
%TO.P,J13,2,Pin_2*%
%TO.N,/SWCLK*%
X130833000Y-136095000D03*
%TO.P,J13,3,Pin_3*%
%TO.N,/SWo*%
X133373000Y-136095000D03*
%TO.P,J13,4,Pin_4*%
%TO.N,+3.3V*%
X135913000Y-136095000D03*
%TO.P,J13,5,Pin_5*%
%TO.N,GND*%
X138453000Y-136095000D03*
%TD*%
D16*
%TO.P,J16,1,Pin_1*%
%TO.N,GND*%
X100661000Y-87354000D03*
D17*
%TO.P,J16,2,Pin_2*%
%TO.N,/mornsun_minus*%
X100661000Y-89894000D03*
%TO.P,J16,3,Pin_3*%
%TO.N,unconnected-(J16-Pad3)*%
X100661000Y-92434000D03*
%TD*%
D16*
%TO.P,J10,1,Pin_1*%
%TO.N,/USART2_Tx*%
X77518000Y-151395000D03*
D17*
%TO.P,J10,2,Pin_2*%
%TO.N,/USART2_Rx*%
X77518000Y-153935000D03*
%TO.P,J10,3,Pin_3*%
%TO.N,/gpio*%
X77518000Y-156475000D03*
%TO.P,J10,4,Pin_4*%
%TO.N,GND*%
X77518000Y-159015000D03*
%TD*%
D12*
%TO.P,J12,0,PAD*%
%TO.N,GND*%
X156345669Y-185251893D03*
X156345669Y-160251893D03*
D10*
%TO.P,J12,1,1*%
%TO.N,/MVCU_HBT*%
X154925669Y-178291893D03*
D13*
%TO.P,J12,2,2*%
%TO.N,/CAN_N*%
X154925669Y-175521893D03*
%TO.P,J12,3,3*%
%TO.N,GND*%
X154925669Y-172751893D03*
%TO.P,J12,4,4*%
%TO.N,/I2C3_SCL*%
X154925669Y-169981893D03*
%TO.P,J12,5,5*%
%TO.N,GND*%
X154925669Y-167211893D03*
%TO.P,J12,6,6*%
%TO.N,/VCU3_HBT*%
X157765669Y-176906893D03*
%TO.P,J12,7,7*%
%TO.N,/CAN_P*%
X157765669Y-174136893D03*
%TO.P,J12,8,8*%
%TO.N,/I2C_SDA*%
X157765669Y-171366893D03*
%TO.P,J12,9,9*%
%TO.N,+5V*%
X157765669Y-168596893D03*
%TD*%
D16*
%TO.P,J21,1,Pin_1*%
%TO.N,/CAN_P*%
X139550000Y-153350000D03*
%TD*%
D10*
%TO.P,U8,1,B*%
%TO.N,/display_b*%
X118998000Y-108222500D03*
D11*
%TO.P,U8,2,C*%
%TO.N,/display_c*%
X118998000Y-110762500D03*
%TO.P,U8,3,LT*%
%TO.N,Net-(J9-Pad2)*%
X118998000Y-113302500D03*
%TO.P,U8,4,BI*%
%TO.N,Net-(J9-Pad4)*%
X118998000Y-115842500D03*
%TO.P,U8,5,RBI*%
%TO.N,Net-(J9-Pad6)*%
X118998000Y-118382500D03*
%TO.P,U8,6,D*%
%TO.N,/display_d*%
X118998000Y-120922500D03*
%TO.P,U8,7,A*%
%TO.N,/display_a*%
X118998000Y-123462500D03*
%TO.P,U8,8,GND*%
%TO.N,GND*%
X118998000Y-126002500D03*
%TO.P,U8,9,e*%
%TO.N,Net-(U10-Pad1)*%
X126618000Y-126002500D03*
%TO.P,U8,10,d*%
%TO.N,Net-(U10-Pad2)*%
X126618000Y-123462500D03*
%TO.P,U8,11,c*%
%TO.N,Net-(U10-Pad4)*%
X126618000Y-120922500D03*
%TO.P,U8,12,b*%
%TO.N,Net-(U10-Pad6)*%
X126618000Y-118382500D03*
%TO.P,U8,13,a*%
%TO.N,Net-(U10-Pad7)*%
X126618000Y-115842500D03*
%TO.P,U8,14,g*%
%TO.N,Net-(U10-Pad10)*%
X126618000Y-113302500D03*
%TO.P,U8,15,f*%
%TO.N,Net-(U10-Pad9)*%
X126618000Y-110762500D03*
%TO.P,U8,16,VCC*%
%TO.N,+5V*%
X126618000Y-108222500D03*
%TD*%
D15*
%TO.P,H3,1,1*%
%TO.N,GND*%
X39368000Y-130895000D03*
%TD*%
D14*
%TO.P,+5V,1,1*%
%TO.N,+5V*%
X84151000Y-97245000D03*
%TD*%
D16*
%TO.P,J42,1,Pin_1*%
%TO.N,/CAN_P*%
X139589000Y-41930000D03*
%TD*%
D21*
%TO.P,J5,1,Pin_1*%
%TO.N,/mornsun_minus*%
X87045107Y-89966500D03*
D22*
%TO.P,J5,2,Pin_2*%
%TO.N,/mornsun_Vin*%
X92045107Y-89966500D03*
%TD*%
D12*
%TO.P,J32,0,PAD*%
%TO.N,GND*%
X157057776Y1368107D03*
X157057776Y26368107D03*
D10*
%TO.P,J32,1,1*%
%TO.N,/MVCU_HBT*%
X155637776Y8328107D03*
D13*
%TO.P,J32,2,2*%
%TO.N,/CAN_N*%
X155637776Y11098107D03*
%TO.P,J32,3,3*%
%TO.N,GND*%
X155637776Y13868107D03*
%TO.P,J32,4,4*%
%TO.N,/I2C3_SCL*%
X155637776Y16638107D03*
%TO.P,J32,5,5*%
%TO.N,GND*%
X155637776Y19408107D03*
%TO.P,J32,6,6*%
%TO.N,/VCU1_HBT*%
X158477776Y9713107D03*
%TO.P,J32,7,7*%
%TO.N,/CAN_P*%
X158477776Y12483107D03*
%TO.P,J32,8,8*%
%TO.N,/I2C_SDA*%
X158477776Y15253107D03*
%TO.P,J32,9,9*%
%TO.N,+5V*%
X158477776Y18023107D03*
%TD*%
D21*
%TO.P,J27,1,Pin_1*%
%TO.N,/mornsun_minus*%
X87084107Y21453500D03*
D22*
%TO.P,J27,2,Pin_2*%
%TO.N,/mornsun_Vin*%
X92084107Y21453500D03*
%TD*%
D16*
%TO.P,J17,1,Pin_1*%
%TO.N,GND*%
X61168000Y-113645000D03*
D17*
%TO.P,J17,2,Pin_2*%
%TO.N,+3.3V*%
X61168000Y-116185000D03*
%TO.P,J17,3,Pin_3*%
%TO.N,GND*%
X58628000Y-113645000D03*
%TO.P,J17,4,Pin_4*%
%TO.N,+5V*%
X58628000Y-116185000D03*
%TO.P,J17,5,Pin_5*%
%TO.N,GND*%
X56088000Y-113645000D03*
%TO.P,J17,6,Pin_6*%
%TO.N,/mornsun_Vin*%
X56088000Y-116185000D03*
%TD*%
D16*
%TO.P,J22,1,Pin_1*%
%TO.N,/CAN_N*%
X139396000Y-166460000D03*
%TD*%
D10*
%TO.P,U21,1,E*%
%TO.N,Net-(U10-Pad1)*%
X131927000Y-13775000D03*
D13*
%TO.P,U21,2,D*%
%TO.N,Net-(U10-Pad2)*%
X134467000Y-13775000D03*
%TO.P,U21,3,CC*%
%TO.N,GND*%
X137007000Y-13775000D03*
%TO.P,U21,4,C*%
%TO.N,Net-(U10-Pad4)*%
X139547000Y-13775000D03*
%TO.P,U21,5,DP*%
%TO.N,unconnected-(U10-Pad5)*%
X142087000Y-13775000D03*
%TO.P,U21,6,B*%
%TO.N,Net-(U10-Pad6)*%
X142087000Y1465000D03*
%TO.P,U21,7,A*%
%TO.N,Net-(U10-Pad7)*%
X139547000Y1465000D03*
%TO.P,U21,8,CC*%
%TO.N,GND*%
X137007000Y1465000D03*
%TO.P,U21,9,F*%
%TO.N,Net-(U10-Pad9)*%
X134467000Y1465000D03*
%TO.P,U21,10,G*%
%TO.N,Net-(U10-Pad10)*%
X131927000Y1465000D03*
%TD*%
D12*
%TO.P,J4,0,PAD*%
%TO.N,GND*%
X40865107Y-178027562D03*
X65865107Y-178027562D03*
D10*
%TO.P,J4,1,1*%
%TO.N,unconnected-(J4-Pad1)*%
X47825107Y-176607562D03*
D13*
%TO.P,J4,2,2*%
%TO.N,/Rx*%
X50595107Y-176607562D03*
%TO.P,J4,3,3*%
%TO.N,/Tx*%
X53365107Y-176607562D03*
%TO.P,J4,4,4*%
%TO.N,unconnected-(J4-Pad4)*%
X56135107Y-176607562D03*
%TO.P,J4,5,5*%
%TO.N,GND*%
X58905107Y-176607562D03*
%TO.P,J4,6,6*%
%TO.N,unconnected-(J4-Pad6)*%
X49210107Y-179447562D03*
%TO.P,J4,7,7*%
%TO.N,unconnected-(J4-Pad7)*%
X51980107Y-179447562D03*
%TO.P,J4,8,8*%
%TO.N,unconnected-(J4-Pad8)*%
X54750107Y-179447562D03*
%TO.P,J4,9,9*%
%TO.N,unconnected-(J4-Pad9)*%
X57520107Y-179447562D03*
%TD*%
D16*
%TO.P,J14,1,Pin_1*%
%TO.N,/SPI2_SCK*%
X95818000Y-158595000D03*
D17*
%TO.P,J14,2,Pin_2*%
%TO.N,/SPI2_MISO*%
X98358000Y-158595000D03*
%TO.P,J14,3,Pin_3*%
%TO.N,/SPI2_MOSI*%
X100898000Y-158595000D03*
%TO.P,J14,4,Pin_4*%
%TO.N,GND*%
X103438000Y-158595000D03*
%TD*%
D15*
%TO.P,H1,1,1*%
%TO.N,GND*%
X147318000Y-179995000D03*
%TD*%
D16*
%TO.P,J18,1,Pin_1*%
%TO.N,+5V*%
X56868000Y-122195000D03*
D17*
%TO.P,J18,2,Pin_2*%
%TO.N,Net-(C26-Pad1)*%
X54328000Y-122195000D03*
%TO.P,J18,3,Pin_3*%
%TO.N,unconnected-(J18-Pad3)*%
X51788000Y-122195000D03*
%TD*%
D14*
%TO.P,GND1,1,1*%
%TO.N,GND*%
X93588000Y14175000D03*
%TD*%
%TO.P,3V3,1,1*%
%TO.N,+3.3V*%
X88977000Y-97245000D03*
%TD*%
D18*
%TO.P,U20,1,1*%
%TO.N,+3.3V*%
X48032660Y-41123200D03*
%TO.P,U20,2,2*%
%TO.N,/Xbee_Tx*%
X50034180Y-41123200D03*
%TO.P,U20,3,3*%
%TO.N,/Xbee_Rx*%
X52033160Y-41123200D03*
%TO.P,U20,4,4*%
%TO.N,unconnected-(U9-Pad4)*%
X54034680Y-41123200D03*
%TO.P,U20,5,5*%
%TO.N,/RST*%
X56033660Y-41123200D03*
%TO.P,U20,6,6*%
%TO.N,/RSSI*%
X58032640Y-41123200D03*
%TO.P,U20,7,7*%
%TO.N,unconnected-(U9-Pad7)*%
X60034160Y-41123200D03*
%TO.P,U20,8,8*%
%TO.N,unconnected-(U9-Pad8)*%
X62033140Y-41123200D03*
%TO.P,U20,9,9*%
%TO.N,unconnected-(U9-Pad9)*%
X64034660Y-41123200D03*
%TO.P,U20,10,10*%
%TO.N,GND*%
X66033640Y-41123200D03*
%TO.P,U20,11,11*%
%TO.N,unconnected-(U9-Pad11)*%
X66033640Y-19126800D03*
%TO.P,U20,12,12*%
%TO.N,unconnected-(U9-Pad12)*%
X64034660Y-19126800D03*
%TO.P,U20,13,13*%
%TO.N,unconnected-(U9-Pad13)*%
X62033140Y-19126800D03*
%TO.P,U20,14,14*%
%TO.N,unconnected-(U9-Pad14)*%
X60034160Y-19126800D03*
%TO.P,U20,15,15*%
%TO.N,Net-(R23-Pad2)*%
X58032640Y-19126800D03*
%TO.P,U20,16,16*%
%TO.N,unconnected-(U9-Pad16)*%
X56033660Y-19126800D03*
%TO.P,U20,17,17*%
%TO.N,unconnected-(U9-Pad17)*%
X54034680Y-19126800D03*
%TO.P,U20,18,18*%
%TO.N,unconnected-(U9-Pad18)*%
X52033160Y-19126800D03*
%TO.P,U20,19,19*%
%TO.N,unconnected-(U9-Pad19)*%
X50034180Y-19126800D03*
%TO.P,U20,20,20*%
%TO.N,unconnected-(U9-Pad20)*%
X48032660Y-19126800D03*
%TD*%
D15*
%TO.P,H7,1,1*%
%TO.N,GND*%
X39407000Y-19475000D03*
%TD*%
D10*
%TO.P,U12,1*%
%TO.N,GND*%
X135303000Y27131000D03*
D11*
%TO.P,U12,2*%
%TO.N,Net-(R2-Pad1)*%
X135303000Y24591000D03*
%TO.P,U12,3*%
%TO.N,/DI_LLS*%
X135303000Y22051000D03*
%TO.P,U12,4*%
%TO.N,GND*%
X135303000Y19511000D03*
%TO.P,U12,5*%
%TO.N,Net-(R4-Pad1)*%
X135303000Y16971000D03*
%TO.P,U12,6*%
%TO.N,/SCK_LLS*%
X135303000Y14431000D03*
%TO.P,U12,7,GND*%
%TO.N,GND*%
X135303000Y11891000D03*
%TO.P,U12,8*%
%TO.N,/CS_LLS*%
X142923000Y11891000D03*
%TO.P,U12,9*%
%TO.N,Net-(R5-Pad1)*%
X142923000Y14431000D03*
%TO.P,U12,10*%
%TO.N,GND*%
X142923000Y16971000D03*
%TO.P,U12,11*%
%TO.N,/SD_MISO*%
X142923000Y19511000D03*
%TO.P,U12,12*%
%TO.N,Net-(R6-Pad1)*%
X142923000Y22051000D03*
%TO.P,U12,13*%
%TO.N,GND*%
X142923000Y24591000D03*
%TO.P,U12,14,VCC*%
%TO.N,+3.3V*%
X142923000Y27131000D03*
%TD*%
D18*
%TO.P,U18,1,GND*%
%TO.N,/mornsun_minus*%
X52804107Y22611107D03*
%TO.P,U18,2,Vin*%
%TO.N,/mornsun_Vin*%
X47724107Y22611107D03*
%TO.P,U18,3,+Vo*%
%TO.N,Net-(C26-Pad1)*%
X40104107Y4831107D03*
%TO.P,U18,4,0V*%
%TO.N,GND*%
X60424107Y4831107D03*
%TD*%
D12*
%TO.P,J8,0,PAD*%
%TO.N,GND*%
X139215107Y-178577562D03*
X114215107Y-178577562D03*
D10*
%TO.P,J8,1,1*%
%TO.N,/MVCU_HBT*%
X121175107Y-177157562D03*
D13*
%TO.P,J8,2,2*%
%TO.N,/CAN_N*%
X123945107Y-177157562D03*
%TO.P,J8,3,3*%
%TO.N,GND*%
X126715107Y-177157562D03*
%TO.P,J8,4,4*%
%TO.N,/I2C3_SCL*%
X129485107Y-177157562D03*
%TO.P,J8,5,5*%
%TO.N,GND*%
X132255107Y-177157562D03*
%TO.P,J8,6,6*%
%TO.N,/VCU4_HBT*%
X122560107Y-179997562D03*
%TO.P,J8,7,7*%
%TO.N,/CAN_P*%
X125330107Y-179997562D03*
%TO.P,J8,8,8*%
%TO.N,/I2C_SDA*%
X128100107Y-179997562D03*
%TO.P,J8,9,9*%
%TO.N,+5V*%
X130870107Y-179997562D03*
%TD*%
D14*
%TO.P,+5V1,1,1*%
%TO.N,+5V*%
X84190000Y14175000D03*
%TD*%
%TO.P,-Vin1,1,1*%
%TO.N,/mornsun_minus*%
X98287000Y14175000D03*
%TD*%
D16*
%TO.P,J40,1,Pin_1*%
%TO.N,/CAN_Tx*%
X134439000Y-42005000D03*
%TD*%
%TO.P,J9,1,Pin_1*%
%TO.N,+3.3V*%
X109082000Y18250000D03*
D17*
%TO.P,J9,2,Pin_2*%
%TO.N,Net-(J1-Pad2)*%
X109082000Y15710000D03*
%TO.P,J9,3,Pin_3*%
%TO.N,GND*%
X109082000Y13170000D03*
%TD*%
D23*
%TO.P,SW1,1,1*%
%TO.N,GND*%
X78375107Y-118137893D03*
X71875107Y-118137893D03*
%TO.P,SW1,2,2*%
%TO.N,Net-(C3-Pad1)*%
X78375107Y-122637893D03*
X71875107Y-122637893D03*
%TD*%
D16*
%TO.P,J19,1,Pin_1*%
%TO.N,/CAN_Tx*%
X134400000Y-153425000D03*
%TD*%
D10*
%TO.P,C27,1*%
%TO.N,GND*%
X40065349Y-117795000D03*
D13*
%TO.P,C27,2*%
%TO.N,Net-(C26-Pad1)*%
X42565349Y-117795000D03*
%TD*%
D19*
%TO.P,J15,1,Pin_1*%
%TO.N,/I2C1_SCL*%
X111719562Y-121746562D03*
D20*
%TO.P,J15,2,Pin_2*%
%TO.N,/I2C1_SDA*%
X109923511Y-119950511D03*
%TD*%
D10*
%TO.P,C57,1*%
%TO.N,GND*%
X40104349Y-6375000D03*
D13*
%TO.P,C57,2*%
%TO.N,Net-(C26-Pad1)*%
X42604349Y-6375000D03*
%TD*%
D18*
%TO.P,U7,1,GND*%
%TO.N,/mornsun_minus*%
X52765107Y-88808893D03*
%TO.P,U7,2,Vin*%
%TO.N,/mornsun_Vin*%
X47685107Y-88808893D03*
%TO.P,U7,3,+Vo*%
%TO.N,Net-(C26-Pad1)*%
X40065107Y-106588893D03*
%TO.P,U7,4,0V*%
%TO.N,GND*%
X60385107Y-106588893D03*
%TD*%
D16*
%TO.P,J44,1,Pin_1*%
%TO.N,/DAC_1*%
X82757000Y-42540000D03*
D17*
%TO.P,J44,2,Pin_2*%
%TO.N,/DAC_2*%
X82757000Y-45080000D03*
%TD*%
D14*
%TO.P,GND,1,1*%
%TO.N,GND*%
X93549000Y-97245000D03*
%TD*%
D16*
%TO.P,J1,1,Pin_1*%
%TO.N,+3.3V*%
X109043000Y-93170000D03*
D17*
%TO.P,J1,2,Pin_2*%
%TO.N,Net-(J1-Pad2)*%
X109043000Y-95710000D03*
%TO.P,J1,3,Pin_3*%
%TO.N,GND*%
X109043000Y-98250000D03*
%TD*%
D12*
%TO.P,J30,0,PAD*%
%TO.N,GND*%
X139254107Y-67157562D03*
X114254107Y-67157562D03*
D10*
%TO.P,J30,1,1*%
%TO.N,/MVCU_HBT*%
X121214107Y-65737562D03*
D13*
%TO.P,J30,2,2*%
%TO.N,/CAN_N*%
X123984107Y-65737562D03*
%TO.P,J30,3,3*%
%TO.N,GND*%
X126754107Y-65737562D03*
%TO.P,J30,4,4*%
%TO.N,/I2C3_SCL*%
X129524107Y-65737562D03*
%TO.P,J30,5,5*%
%TO.N,GND*%
X132294107Y-65737562D03*
%TO.P,J30,6,6*%
%TO.N,/VCU4_HBT*%
X122599107Y-68577562D03*
%TO.P,J30,7,7*%
%TO.N,/CAN_P*%
X125369107Y-68577562D03*
%TO.P,J30,8,8*%
%TO.N,/I2C_SDA*%
X128139107Y-68577562D03*
%TO.P,J30,9,9*%
%TO.N,+5V*%
X130909107Y-68577562D03*
%TD*%
D12*
%TO.P,J28,0,PAD*%
%TO.N,GND*%
X156538107Y-11131893D03*
X156538107Y-36131893D03*
D10*
%TO.P,J28,1,1*%
%TO.N,/MVCU_HBT*%
X155118107Y-29171893D03*
D13*
%TO.P,J28,2,2*%
%TO.N,/CAN_N*%
X155118107Y-26401893D03*
%TO.P,J28,3,3*%
%TO.N,GND*%
X155118107Y-23631893D03*
%TO.P,J28,4,4*%
%TO.N,/I2C3_SCL*%
X155118107Y-20861893D03*
%TO.P,J28,5,5*%
%TO.N,GND*%
X155118107Y-18091893D03*
%TO.P,J28,6,6*%
%TO.N,/VCU2_HBT*%
X157958107Y-27786893D03*
%TO.P,J28,7,7*%
%TO.N,/CAN_P*%
X157958107Y-25016893D03*
%TO.P,J28,8,8*%
%TO.N,/I2C_SDA*%
X157958107Y-22246893D03*
%TO.P,J28,9,9*%
%TO.N,+5V*%
X157958107Y-19476893D03*
%TD*%
D10*
%TO.P,C24,1*%
%TO.N,/mornsun_Vin*%
X70365349Y-90095000D03*
D13*
%TO.P,C24,2*%
%TO.N,GND*%
X72865349Y-90095000D03*
%TD*%
D16*
%TO.P,J37,1,Pin_1*%
%TO.N,GND*%
X100700000Y24066000D03*
D17*
%TO.P,J37,2,Pin_2*%
%TO.N,/mornsun_minus*%
X100700000Y21526000D03*
%TO.P,J37,3,Pin_3*%
%TO.N,unconnected-(J16-Pad3)*%
X100700000Y18986000D03*
%TD*%
D15*
%TO.P,H8,1,1*%
%TO.N,GND*%
X149087000Y24081000D03*
%TD*%
D23*
%TO.P,SW2,1,1*%
%TO.N,GND*%
X71914107Y-6717893D03*
X78414107Y-6717893D03*
%TO.P,SW2,2,2*%
%TO.N,Net-(C3-Pad1)*%
X71914107Y-11217893D03*
X78414107Y-11217893D03*
%TD*%
D16*
%TO.P,J24,1,Pin_1*%
%TO.N,/ADC_in6*%
X87357000Y-38000000D03*
D17*
%TO.P,J24,2,Pin_2*%
%TO.N,/ADC_in7*%
X87357000Y-40540000D03*
%TO.P,J24,3,Pin_3*%
%TO.N,/ADC_in14*%
X87357000Y-43080000D03*
%TO.P,J24,4,Pin_4*%
%TO.N,/ADC_in15*%
X87357000Y-45620000D03*
%TO.P,J24,5,Pin_5*%
%TO.N,/ADC_in8*%
X87357000Y-48160000D03*
%TD*%
D16*
%TO.P,J43,1,Pin_1*%
%TO.N,/CAN_N*%
X139435000Y-55040000D03*
%TD*%
%TO.P,J23,1,Pin_1*%
%TO.N,/DAC_1*%
X82718000Y-153960000D03*
D17*
%TO.P,J23,2,Pin_2*%
%TO.N,/DAC_2*%
X82718000Y-156500000D03*
%TD*%
D14*
%TO.P,+Vin1,1,1*%
%TO.N,/mornsun_Vin*%
X102986000Y14302000D03*
%TD*%
D24*
%TO.N,GND*%
X131776000Y-160237000D03*
X103182000Y5450000D03*
X65609000Y-114009000D03*
X75554000Y14429000D03*
X68823000Y9857000D03*
X115647000Y-105119000D03*
X103143000Y-105970000D03*
X85193000Y-105895000D03*
X109118000Y-105895000D03*
X103875000Y-19734000D03*
X119877000Y-29005000D03*
X75887000Y-139928500D03*
X109157000Y5525000D03*
X96382000Y-18083000D03*
X91368000Y-125595000D03*
X50281000Y-46785000D03*
X109424000Y-139409000D03*
X85278353Y-122195000D03*
X119838000Y-140425000D03*
X103836000Y-131154000D03*
X131815000Y-48817000D03*
X92557000Y-51175000D03*
X85317353Y-10775000D03*
X126007000Y-98755000D03*
X85018000Y-145195000D03*
X65648000Y-2589000D03*
X85232000Y5525000D03*
X109463000Y-27989000D03*
X85057000Y-33775000D03*
X105018000Y-10336000D03*
X75515000Y-96991000D03*
X85714000Y-21258000D03*
X94311000Y-133694000D03*
X95620000Y-8431000D03*
X104918000Y-164095000D03*
X75887000Y-133832500D03*
X123086000Y-98882000D03*
X102224000Y-23290000D03*
X96757000Y-42475000D03*
X102185000Y-134710000D03*
X75926000Y-28508500D03*
X50242000Y-158205000D03*
X104957000Y-52675000D03*
X95581000Y-119851000D03*
X126046000Y12665000D03*
X126118000Y-96104000D03*
X91182000Y5675000D03*
X60910000Y-121629000D03*
X141680000Y-156294500D03*
X97182000Y5475000D03*
X91318000Y-139995000D03*
X91407000Y-14175000D03*
X85675000Y-132678000D03*
X113654000Y3634000D03*
X73356000Y-106135000D03*
X104979000Y-121756000D03*
X92518000Y-162595000D03*
X68784000Y-101563000D03*
X97143000Y-105945000D03*
X96343000Y-129503000D03*
X115686000Y6301000D03*
X141719000Y-44874500D03*
X123125000Y12538000D03*
X94350000Y-22274000D03*
X96718000Y-153895000D03*
X111982000Y22750000D03*
X75926000Y-22412500D03*
X113615000Y-107786000D03*
X73395000Y5285000D03*
X91143000Y-105745000D03*
X126157000Y15316000D03*
X111943000Y-88670000D03*
X91357000Y-28575000D03*
X60949000Y-10209000D03*
%TO.N,+3.3V*%
X126098000Y-27989000D03*
X120989000Y-98755000D03*
X121028000Y12665000D03*
X63108000Y-4748000D03*
X63069000Y-116168000D03*
X69204000Y-4748000D03*
X126059000Y-139409000D03*
X69165000Y-116168000D03*
X69966000Y-19607000D03*
X69927000Y-131027000D03*
%TO.N,Net-(C3-Pad1)*%
X85841000Y-17829000D03*
X82754000Y-128360000D03*
X82793000Y-16940000D03*
X85802000Y-129249000D03*
%TO.N,+5V*%
X95505000Y-71423000D03*
X161152000Y-19480000D03*
X136856000Y-171794000D03*
X73483000Y-182843000D03*
X97017000Y-72820000D03*
X72633000Y-3605000D03*
X95466000Y-182843000D03*
X165089000Y-54405000D03*
X72594000Y-115025000D03*
X165050000Y-165825000D03*
X65902000Y-6526000D03*
X73522000Y-71423000D03*
X136895000Y-60374000D03*
X65863000Y-117946000D03*
X161113000Y-130900000D03*
X96978000Y-184240000D03*
%TO.N,Net-(C21-Pad2)*%
X74880000Y-167349000D03*
X74919000Y-55929000D03*
X65355000Y-158459000D03*
X65394000Y-47039000D03*
%TO.N,/CS_LLS*%
X118807000Y6950000D03*
X118768000Y-104470000D03*
%TO.N,/DI_LLS*%
X120038000Y-97612000D03*
X120077000Y13808000D03*
%TO.N,/SCK_LLS*%
X122236000Y13554000D03*
X122197000Y-97866000D03*
%TO.N,/Rx*%
X61076000Y-60755000D03*
X61037000Y-172175000D03*
%TO.N,/MVCU_HBT*%
X113273000Y-50468000D03*
X113107000Y-156427000D03*
X113234000Y-161888000D03*
X113146000Y-45007000D03*
%TO.N,/I2C3_SCL*%
X92818000Y-183995000D03*
X130318000Y-185089500D03*
X130357000Y-73669500D03*
X116028000Y-150077000D03*
X162976500Y-169803500D03*
X116702000Y-58596000D03*
X92857000Y-72575000D03*
X161279000Y-21004000D03*
X116663000Y-170016000D03*
X163015500Y-58383500D03*
X161240000Y-132424000D03*
X122251000Y-143981000D03*
X116067000Y-38657000D03*
X122290000Y-32561000D03*
%TO.N,/VCU1_HBT*%
X112132000Y-47150000D03*
X147309000Y-37260000D03*
X148325000Y-40689000D03*
X148286000Y-152109000D03*
X112093000Y-158570000D03*
X147270000Y-148680000D03*
%TO.N,/I2C_SDA*%
X114377000Y-170016000D03*
X113742000Y-148934000D03*
X114416000Y-58596000D03*
X153151000Y-13130000D03*
X119750000Y-32815000D03*
X153112000Y-124550000D03*
X161240000Y-134202000D03*
X119711000Y-144235000D03*
X161787000Y-60882000D03*
X113781000Y-37514000D03*
X161279000Y-22782000D03*
X161748000Y-172302000D03*
%TO.N,/VCU4_HBT*%
X108497500Y-165345000D03*
X108536500Y-53925000D03*
%TO.N,/VCU2_HBT*%
X111132000Y-49050000D03*
X111093000Y-160470000D03*
%TO.N,/VCU3_HBT*%
X118568000Y-166841000D03*
X109982000Y-51700000D03*
X118607000Y-55421000D03*
X109943000Y-163120000D03*
X144857000Y-173064000D03*
X144896000Y-61644000D03*
%TO.N,/SD_CS*%
X122417000Y-21004000D03*
X147597000Y-98628000D03*
X147636000Y12792000D03*
X122378000Y-132424000D03*
%TO.N,/E1*%
X107558000Y-5383000D03*
X106442336Y-128045337D03*
X107519000Y-116803000D03*
X106481336Y-16625337D03*
%TO.N,/C13*%
X91175000Y-4113000D03*
X102859000Y-22020000D03*
X102820000Y-133440000D03*
X91136000Y-115533000D03*
%TO.N,/C14*%
X88254000Y-4240000D03*
X88215000Y-115660000D03*
X98277873Y-18346127D03*
X98238873Y-129766127D03*
%TO.N,/RSSI*%
X64847000Y-143600000D03*
X96607000Y-36700000D03*
X64886000Y-32180000D03*
X96568000Y-148120000D03*
%TO.N,/SD_MISO*%
X114543000Y-21385000D03*
X114504000Y-132805000D03*
%TO.N,/RST*%
X96763000Y-34466000D03*
X64085000Y-146013000D03*
X64124000Y-34593000D03*
X96724000Y-145886000D03*
%TO.N,/Xbee_Rx*%
X82920000Y-31291000D03*
X82881000Y-142711000D03*
%TO.N,/DAC_1*%
X92718000Y-142219500D03*
X92757000Y-30799500D03*
X87457000Y-33675000D03*
X87418000Y-145095000D03*
%TO.N,/ADC_in9*%
X94157000Y-51075000D03*
X93957000Y-37175000D03*
X93918000Y-148595000D03*
X94118000Y-162495000D03*
%TO.N,/display_d*%
X112168000Y-129170000D03*
X112207000Y-17750000D03*
%TO.N,/display_c*%
X117425000Y-126074000D03*
X114593000Y-128270000D03*
X117464000Y-14654000D03*
X114632000Y-16850000D03*
%TO.N,/display_b*%
X112066500Y-20305500D03*
X112027500Y-131725500D03*
%TO.N,/display_a*%
X114416000Y-19226000D03*
X114377000Y-130646000D03*
%TO.N,/SWo*%
X109693000Y-130695000D03*
X109732000Y-19275000D03*
%TO.N,/mornsun_Vin*%
X65140000Y18366000D03*
X69331000Y5920000D03*
X65101000Y-93054000D03*
X69292000Y-105500000D03*
%TO.N,/CAN_N*%
X148588768Y-48318768D03*
X145819268Y-162469268D03*
X148549768Y-159738768D03*
X145858268Y-51049268D03*
%TD*%
D25*
%TO.N,GND*%
X61168000Y-113645000D02*
X65245000Y-113645000D01*
D26*
X123086000Y-98882000D02*
X125880000Y-98882000D01*
X123125000Y12538000D02*
X125919000Y12538000D01*
X125880000Y-98882000D02*
X126007000Y-98755000D01*
D25*
X65245000Y-113645000D02*
X65609000Y-114009000D01*
X61207000Y-2225000D02*
X65284000Y-2225000D01*
X65284000Y-2225000D02*
X65648000Y-2589000D01*
D26*
X125919000Y12538000D02*
X126046000Y12665000D01*
D27*
%TO.N,+3.3V*%
X63069000Y-116168000D02*
X69165000Y-116168000D01*
D26*
X111930000Y-82420000D02*
X141081000Y-82420000D01*
X117428000Y-98755000D02*
X111843000Y-93170000D01*
X111843000Y-93170000D02*
X109043000Y-93170000D01*
X108955000Y25986000D02*
X111969000Y29000000D01*
X117467000Y12665000D02*
X111882000Y18250000D01*
D27*
X47993660Y-146356340D02*
X47993660Y-152543200D01*
D26*
X108955000Y18250000D02*
X108955000Y25986000D01*
D28*
X126059000Y-139409000D02*
X134697000Y-139409000D01*
D26*
X108916000Y-93170000D02*
X108916000Y-85434000D01*
X141936000Y-83341000D02*
X142884000Y-84289000D01*
D27*
X66752000Y-134202000D02*
X60148000Y-134202000D01*
D26*
X108916000Y-85434000D02*
X111930000Y-82420000D01*
X141120000Y29000000D02*
X141975000Y28145000D01*
D27*
X48032660Y-34936340D02*
X48032660Y-41123200D01*
D28*
X126098000Y-27989000D02*
X134736000Y-27989000D01*
X135952000Y-26773000D02*
X135952000Y-24675000D01*
X134736000Y-27989000D02*
X135952000Y-26773000D01*
D27*
X69927000Y-131027000D02*
X66752000Y-134202000D01*
X66791000Y-22782000D02*
X60187000Y-22782000D01*
D26*
X111969000Y29000000D02*
X141120000Y29000000D01*
D27*
X69966000Y-19607000D02*
X66791000Y-22782000D01*
D26*
X120927000Y-98755000D02*
X117428000Y-98755000D01*
X141975000Y28079000D02*
X142923000Y27131000D01*
X111882000Y18250000D02*
X109082000Y18250000D01*
D28*
X134697000Y-139409000D02*
X135913000Y-138193000D01*
D27*
X63108000Y-4748000D02*
X69204000Y-4748000D01*
D26*
X120966000Y12665000D02*
X117467000Y12665000D01*
D27*
X60148000Y-134202000D02*
X47993660Y-146356340D01*
D28*
X135913000Y-138193000D02*
X135913000Y-136095000D01*
D26*
X141081000Y-82420000D02*
X141936000Y-83275000D01*
D27*
X60187000Y-22782000D02*
X48032660Y-34936340D01*
D28*
%TO.N,Net-(C3-Pad1)*%
X83682000Y-17829000D02*
X82793000Y-16940000D01*
X83643000Y-129249000D02*
X82754000Y-128360000D01*
X85802000Y-129249000D02*
X83643000Y-129249000D01*
X85841000Y-17829000D02*
X83682000Y-17829000D01*
D27*
%TO.N,+5V*%
X95505000Y-71423000D02*
X93809107Y-69727107D01*
D29*
X55195000Y-127471000D02*
X46686000Y-127471000D01*
X44273000Y-181065000D02*
X46051000Y-182843000D01*
D27*
X136856000Y-171794000D02*
X136856000Y-176493000D01*
D29*
X65736000Y-117819000D02*
X65863000Y-117946000D01*
D27*
X96863000Y-184240000D02*
X96978000Y-184240000D01*
X96902000Y-72820000D02*
X97017000Y-72820000D01*
D29*
X44273000Y-129884000D02*
X44273000Y-181065000D01*
X46090000Y-71423000D02*
X73522000Y-71423000D01*
D25*
X157958107Y-19476893D02*
X161148893Y-19476893D01*
D29*
X44312000Y-18464000D02*
X44312000Y-69645000D01*
D27*
X161936107Y-57176893D02*
X157804669Y-57176893D01*
D29*
X46686000Y-127471000D02*
X44273000Y-129884000D01*
X56907000Y-10775000D02*
X56907000Y-14378000D01*
X44312000Y-69645000D02*
X46090000Y-71423000D01*
D25*
X165050000Y-165825000D02*
X164669000Y-165825000D01*
D27*
X93770107Y-181147107D02*
X93770107Y-179947562D01*
D29*
X56868000Y-125798000D02*
X55195000Y-127471000D01*
D27*
X72594000Y-115025000D02*
X81611000Y-115025000D01*
D29*
X56907000Y-14378000D02*
X55234000Y-16051000D01*
D27*
X136895000Y-60374000D02*
X136895000Y-65073000D01*
D29*
X56868000Y-122195000D02*
X56868000Y-125798000D01*
D27*
X136895000Y-65073000D02*
X133390438Y-68577562D01*
D25*
X165089000Y-54405000D02*
X164708000Y-54405000D01*
D27*
X93809107Y-69727107D02*
X93809107Y-68527562D01*
X81650000Y-3605000D02*
X83428000Y-1827000D01*
D29*
X60262000Y-117819000D02*
X65736000Y-117819000D01*
D27*
X81611000Y-115025000D02*
X83389000Y-113247000D01*
D29*
X60301000Y-6399000D02*
X65775000Y-6399000D01*
D27*
X83389000Y-113501000D02*
X83389000Y-98007000D01*
X164708000Y-54405000D02*
X161936107Y-57176893D01*
D29*
X58667000Y-4765000D02*
X60301000Y-6399000D01*
D25*
X157919107Y-130896893D02*
X161109893Y-130896893D01*
D27*
X72633000Y-3605000D02*
X81650000Y-3605000D01*
X95466000Y-182843000D02*
X96863000Y-184240000D01*
X95466000Y-182843000D02*
X93770107Y-181147107D01*
X161897107Y-168596893D02*
X157765669Y-168596893D01*
X83428000Y13413000D02*
X84190000Y14175000D01*
D29*
X46725000Y-16051000D02*
X44312000Y-18464000D01*
D27*
X83389000Y-98007000D02*
X84151000Y-97245000D01*
X95505000Y-71423000D02*
X96902000Y-72820000D01*
X136856000Y-176493000D02*
X133351438Y-179997562D01*
D25*
X161148893Y-19476893D02*
X161152000Y-19480000D01*
D29*
X58628000Y-116185000D02*
X60262000Y-117819000D01*
X65775000Y-6399000D02*
X65902000Y-6526000D01*
X55234000Y-16051000D02*
X46725000Y-16051000D01*
D25*
X161109893Y-130896893D02*
X161113000Y-130900000D01*
D29*
X46051000Y-182843000D02*
X73483000Y-182843000D01*
D27*
X133351438Y-179997562D02*
X130870107Y-179997562D01*
X83428000Y-2081000D02*
X83428000Y13413000D01*
X164669000Y-165825000D02*
X161897107Y-168596893D01*
X133390438Y-68577562D02*
X130909107Y-68577562D01*
D28*
%TO.N,Net-(C21-Pad2)*%
X74919000Y-55929000D02*
X74919000Y-48436000D01*
X74880000Y-159856000D02*
X73483000Y-158459000D01*
X73522000Y-47039000D02*
X65394000Y-47039000D01*
X74880000Y-167349000D02*
X74880000Y-159856000D01*
X73483000Y-158459000D02*
X65355000Y-158459000D01*
X74919000Y-48436000D02*
X73522000Y-47039000D01*
%TO.N,/CS_LLS*%
X142190000Y-104738000D02*
X142588000Y-104340000D01*
X142229000Y6682000D02*
X142627000Y7080000D01*
X118807000Y6950000D02*
X119075000Y6682000D01*
X142884000Y-99529000D02*
X142884000Y-104044000D01*
X142923000Y11891000D02*
X142923000Y7376000D01*
X142923000Y7376000D02*
X142627000Y7080000D01*
X118768000Y-104470000D02*
X119036000Y-104738000D01*
X119036000Y-104738000D02*
X142190000Y-104738000D01*
X119075000Y6682000D02*
X142229000Y6682000D01*
X142884000Y-104044000D02*
X142588000Y-104340000D01*
D25*
%TO.N,/DI_LLS*%
X120546000Y-88595000D02*
X134490000Y-88595000D01*
X120585000Y22825000D02*
X134529000Y22825000D01*
X134529000Y22825000D02*
X135303000Y22051000D01*
X120038000Y-89103000D02*
X120546000Y-88595000D01*
X134490000Y-88595000D02*
X135264000Y-89369000D01*
X120077000Y22317000D02*
X120585000Y22825000D01*
X120038000Y-97612000D02*
X120038000Y-89103000D01*
X120077000Y13808000D02*
X120077000Y22317000D01*
%TO.N,/SCK_LLS*%
X122197000Y-97866000D02*
X123074000Y-96989000D01*
X122236000Y13554000D02*
X123113000Y14431000D01*
X123113000Y14431000D02*
X135303000Y14431000D01*
X123074000Y-96989000D02*
X135264000Y-96989000D01*
D28*
%TO.N,/Rx*%
X60822000Y-60755000D02*
X61076000Y-60755000D01*
X50595107Y-176607562D02*
X55027669Y-172175000D01*
X55027669Y-172175000D02*
X60783000Y-172175000D01*
X50634107Y-65187562D02*
X55066669Y-60755000D01*
X55066669Y-60755000D02*
X60822000Y-60755000D01*
X60783000Y-172175000D02*
X61037000Y-172175000D01*
D25*
%TO.N,/MVCU_HBT*%
X147270000Y-146648000D02*
X131522000Y-146648000D01*
X124957000Y-45007000D02*
X113146000Y-45007000D01*
X121214107Y-54218107D02*
X121214107Y-58401893D01*
X147309000Y-35228000D02*
X153365107Y-29171893D01*
X147309000Y-35228000D02*
X131561000Y-35228000D01*
X127712000Y-153633000D02*
X124918000Y-156427000D01*
X115178000Y-52373000D02*
X119369000Y-52373000D01*
X131522000Y-146648000D02*
X127712000Y-150458000D01*
X121175107Y-165638107D02*
X121175107Y-169821893D01*
X119330000Y-163793000D02*
X121175107Y-165638107D01*
X153365107Y-29171893D02*
X155118107Y-29171893D01*
X121214107Y-58401893D02*
X121214107Y-65737562D01*
X153326107Y-140591893D02*
X155079107Y-140591893D01*
X113273000Y-50468000D02*
X115178000Y-52373000D01*
X127751000Y-39038000D02*
X127751000Y-42213000D01*
X121175107Y-169821893D02*
X121175107Y-177157562D01*
X124918000Y-156427000D02*
X113107000Y-156427000D01*
X127712000Y-150458000D02*
X127712000Y-153633000D01*
X147270000Y-146648000D02*
X153326107Y-140591893D01*
X127751000Y-42213000D02*
X124957000Y-45007000D01*
X113234000Y-161888000D02*
X115139000Y-163793000D01*
X131561000Y-35228000D02*
X127751000Y-39038000D01*
X115139000Y-163793000D02*
X119330000Y-163793000D01*
X119369000Y-52373000D02*
X121214107Y-54218107D01*
%TO.N,/I2C3_SCL*%
X162976500Y-169803500D02*
X162798107Y-169981893D01*
X154129562Y-170778000D02*
X154925669Y-169981893D01*
X92424107Y-64585893D02*
X92424107Y-65687562D01*
X132450000Y-59358000D02*
X154168562Y-59358000D01*
X129485107Y-173703893D02*
X132411000Y-170778000D01*
X129485107Y-184256607D02*
X129485107Y-177157562D01*
X161279000Y-21004000D02*
X161136893Y-20861893D01*
X153416107Y-94781893D02*
X155598776Y-94781893D01*
D28*
X116028000Y-149823000D02*
X121870000Y-143981000D01*
D25*
X116663000Y-170016000D02*
X116028000Y-170651000D01*
X155079107Y-132281893D02*
X151331107Y-132281893D01*
X129524107Y-65737562D02*
X129524107Y-62283893D01*
D28*
X121870000Y-143981000D02*
X122251000Y-143981000D01*
D25*
X161097893Y-132281893D02*
X155079107Y-132281893D01*
X150738000Y13921000D02*
X153455107Y16638107D01*
D28*
X116028000Y-150077000D02*
X116028000Y-149823000D01*
D25*
X150699000Y-131676000D02*
X150699000Y-97499000D01*
X115432000Y-64184000D02*
X92826000Y-64184000D01*
X116702000Y-58596000D02*
X116067000Y-59231000D01*
X161240000Y-132424000D02*
X161097893Y-132281893D01*
X151357000Y-20875000D02*
X150738000Y-20256000D01*
D28*
X121909000Y-32561000D02*
X122290000Y-32561000D01*
D25*
X116028000Y-174969000D02*
X115393000Y-175604000D01*
X129485107Y-177157562D02*
X129485107Y-173703893D01*
X92385107Y-183562107D02*
X92385107Y-177107562D01*
X129524107Y-62283893D02*
X132450000Y-59358000D01*
X155118107Y-20861893D02*
X151370107Y-20861893D01*
X92818000Y-183995000D02*
X92385107Y-183562107D01*
X154168562Y-59358000D02*
X154964669Y-58561893D01*
X153455107Y16638107D02*
X155637776Y16638107D01*
X92424107Y-72142107D02*
X92424107Y-65687562D01*
X116067000Y-63549000D02*
X115432000Y-64184000D01*
D28*
X116067000Y-38403000D02*
X121909000Y-32561000D01*
D25*
X130357000Y-73669500D02*
X129524107Y-72836607D01*
X116067000Y-59231000D02*
X116067000Y-63549000D01*
X162837107Y-58561893D02*
X154964669Y-58561893D01*
X92857000Y-72575000D02*
X92424107Y-72142107D01*
D28*
X116067000Y-38657000D02*
X116067000Y-38403000D01*
D25*
X115393000Y-175604000D02*
X92787000Y-175604000D01*
X92787000Y-175604000D02*
X92385107Y-176005893D01*
X163015500Y-58383500D02*
X162837107Y-58561893D01*
X92385107Y-176005893D02*
X92385107Y-177107562D01*
X162798107Y-169981893D02*
X154925669Y-169981893D01*
X151318000Y-132295000D02*
X150699000Y-131676000D01*
X130318000Y-185089500D02*
X129485107Y-184256607D01*
X92826000Y-64184000D02*
X92424107Y-64585893D01*
X129524107Y-72836607D02*
X129524107Y-65737562D01*
X132411000Y-170778000D02*
X154129562Y-170778000D01*
X116028000Y-170651000D02*
X116028000Y-174969000D01*
X161136893Y-20861893D02*
X155118107Y-20861893D01*
X150699000Y-97499000D02*
X153416107Y-94781893D01*
X150738000Y-20256000D02*
X150738000Y13921000D01*
%TO.N,/VCU1_HBT*%
X131014000Y-148680000D02*
X147270000Y-148680000D01*
X160240893Y-101706893D02*
X158438776Y-101706893D01*
X126442000Y-157951000D02*
X129109000Y-155284000D01*
X162295000Y-41324000D02*
X162295000Y7698000D01*
X112751000Y-46531000D02*
X126481000Y-46531000D01*
X162256000Y-103722000D02*
X160240893Y-101706893D01*
X162256000Y-152744000D02*
X162256000Y-103722000D01*
X112712000Y-157951000D02*
X126442000Y-157951000D01*
X148325000Y-41451000D02*
X148325000Y-40689000D01*
X161113000Y-153887000D02*
X149302000Y-153887000D01*
X126481000Y-46531000D02*
X129148000Y-43864000D01*
X129109000Y-150585000D02*
X131014000Y-148680000D01*
X162295000Y-41324000D02*
X161152000Y-42467000D01*
X160279893Y9713107D02*
X158477776Y9713107D01*
X129148000Y-39165000D02*
X131053000Y-37260000D01*
X129109000Y-155284000D02*
X129109000Y-150585000D01*
X112093000Y-158570000D02*
X112712000Y-157951000D01*
X131053000Y-37260000D02*
X147309000Y-37260000D01*
X148286000Y-152871000D02*
X148286000Y-152109000D01*
X162295000Y7698000D02*
X160279893Y9713107D01*
X161152000Y-42467000D02*
X149341000Y-42467000D01*
X162256000Y-152744000D02*
X161113000Y-153887000D01*
X112132000Y-47150000D02*
X112751000Y-46531000D01*
X149341000Y-42467000D02*
X148325000Y-41451000D01*
X129148000Y-43864000D02*
X129148000Y-39165000D01*
X149302000Y-153887000D02*
X148286000Y-152871000D01*
%TO.N,/I2C_SDA*%
X152516000Y-70407000D02*
X153532000Y-69391000D01*
X127149000Y-73783000D02*
X125849000Y-73783000D01*
X114377000Y-173572000D02*
X113361000Y-174588000D01*
X114416000Y-58596000D02*
X114416000Y-62152000D01*
X91039107Y-72857107D02*
X91039107Y-68527562D01*
X160898000Y-69391000D02*
X161787000Y-68502000D01*
X91926000Y-185203000D02*
X91000107Y-184277107D01*
X125810000Y-185203000D02*
X126226000Y-185203000D01*
X127110000Y-185203000D02*
X125810000Y-185203000D01*
X91390000Y-174588000D02*
X91000107Y-174977893D01*
X91039107Y-63557893D02*
X91039107Y-68527562D01*
X153112000Y-97372000D02*
X154317107Y-96166893D01*
X125849000Y-73783000D02*
X126265000Y-73783000D01*
X128100107Y-184212893D02*
X127110000Y-185203000D01*
X151611000Y-185995000D02*
X152477000Y-185129000D01*
X161787000Y-68502000D02*
X161787000Y-60882000D01*
D28*
X119711000Y-144235000D02*
X118441000Y-144235000D01*
D25*
X161748000Y-179922000D02*
X161748000Y-172302000D01*
X114377000Y-170016000D02*
X114377000Y-173572000D01*
X128100107Y-179997562D02*
X128100107Y-184212893D01*
X161240000Y-134202000D02*
X160704893Y-133666893D01*
X153493000Y-180811000D02*
X160859000Y-180811000D01*
X161748000Y-172302000D02*
X160812893Y-171366893D01*
D28*
X118480000Y-32815000D02*
X113781000Y-37514000D01*
D25*
X125810000Y-185203000D02*
X91926000Y-185203000D01*
X91000107Y-184277107D02*
X91000107Y-179947562D01*
X114416000Y-62152000D02*
X113400000Y-63168000D01*
D28*
X119750000Y-32815000D02*
X118480000Y-32815000D01*
D25*
X160743893Y-22246893D02*
X157958107Y-22246893D01*
X160704893Y-133666893D02*
X157919107Y-133666893D01*
X160859000Y-180811000D02*
X161748000Y-179922000D01*
X113361000Y-174588000D02*
X91390000Y-174588000D01*
X153151000Y-13130000D02*
X153151000Y14048000D01*
D28*
X118441000Y-144235000D02*
X113742000Y-148934000D01*
D25*
X153112000Y-124550000D02*
X153112000Y-97372000D01*
X153532000Y-69391000D02*
X160898000Y-69391000D01*
X128139107Y-68577562D02*
X128139107Y-72792893D01*
X152516000Y-73709000D02*
X152516000Y-70407000D01*
X128139107Y-72792893D02*
X127149000Y-73783000D01*
X91965000Y-73783000D02*
X91039107Y-72857107D01*
X154356107Y15253107D02*
X158477776Y15253107D01*
X125849000Y-73783000D02*
X91965000Y-73783000D01*
X160812893Y-171366893D02*
X157765669Y-171366893D01*
X153151000Y14048000D02*
X154356107Y15253107D01*
X126265000Y-73783000D02*
X127057000Y-74575000D01*
X161279000Y-22782000D02*
X160743893Y-22246893D01*
X160851893Y-59946893D02*
X157804669Y-59946893D01*
X113400000Y-63168000D02*
X91429000Y-63168000D01*
X91429000Y-63168000D02*
X91039107Y-63557893D01*
X152477000Y-181827000D02*
X153493000Y-180811000D01*
X151650000Y-74575000D02*
X152516000Y-73709000D01*
X127018000Y-185995000D02*
X151611000Y-185995000D01*
X126226000Y-185203000D02*
X127018000Y-185995000D01*
X91000107Y-174977893D02*
X91000107Y-179947562D01*
X127057000Y-74575000D02*
X151650000Y-74575000D01*
X152477000Y-185129000D02*
X152477000Y-181827000D01*
X161787000Y-60882000D02*
X160851893Y-59946893D01*
X154317107Y-96166893D02*
X158438776Y-96166893D01*
%TO.N,/VCU4_HBT*%
X108497500Y-165345000D02*
X110849000Y-165345000D01*
X113488000Y-167984000D02*
X118060000Y-167984000D01*
X118099000Y-56564000D02*
X119496000Y-57961000D01*
X119457000Y-169381000D02*
X119457000Y-178906000D01*
X119496000Y-57961000D02*
X119496000Y-67486000D01*
X110849000Y-165345000D02*
X113488000Y-167984000D01*
X118060000Y-167984000D02*
X119457000Y-169381000D01*
X120587562Y-68577562D02*
X122599107Y-68577562D01*
X113527000Y-56564000D02*
X118099000Y-56564000D01*
X108536500Y-53925000D02*
X110888000Y-53925000D01*
X110888000Y-53925000D02*
X113527000Y-56564000D01*
X119457000Y-178906000D02*
X120548562Y-179997562D01*
X119496000Y-67486000D02*
X120587562Y-68577562D01*
X120548562Y-179997562D02*
X122560107Y-179997562D01*
%TO.N,/VCU2_HBT*%
X160644000Y-40943000D02*
X161279000Y-40308000D01*
X161279000Y-40308000D02*
X161279000Y-29513000D01*
X128132000Y-48563000D02*
X130291000Y-46404000D01*
X130252000Y-157824000D02*
X130252000Y-151093000D01*
X130252000Y-151093000D02*
X131649000Y-149696000D01*
X153112000Y-152363000D02*
X160605000Y-152363000D01*
X161279000Y-29513000D02*
X159552893Y-27786893D01*
X161240000Y-151728000D02*
X161240000Y-140933000D01*
X111093000Y-160470000D02*
X111580000Y-159983000D01*
X111619000Y-48563000D02*
X128132000Y-48563000D01*
X159513893Y-139206893D02*
X157919107Y-139206893D01*
X153151000Y-40943000D02*
X160644000Y-40943000D01*
X160605000Y-152363000D02*
X161240000Y-151728000D01*
X161240000Y-140933000D02*
X159513893Y-139206893D01*
X131649000Y-149696000D02*
X150445000Y-149696000D01*
X111580000Y-159983000D02*
X128093000Y-159983000D01*
X130291000Y-39673000D02*
X131688000Y-38276000D01*
X150445000Y-149696000D02*
X153112000Y-152363000D01*
X111132000Y-49050000D02*
X111619000Y-48563000D01*
X159552893Y-27786893D02*
X157958107Y-27786893D01*
X131688000Y-38276000D02*
X150484000Y-38276000D01*
X128093000Y-159983000D02*
X130252000Y-157824000D01*
X150484000Y-38276000D02*
X153151000Y-40943000D01*
X130291000Y-46404000D02*
X130291000Y-39673000D01*
%TO.N,/VCU3_HBT*%
X147126000Y-61644000D02*
X153857000Y-68375000D01*
X147087000Y-173064000D02*
X153818000Y-179795000D01*
X157303000Y-179795000D02*
X157765669Y-179332331D01*
X144857000Y-173064000D02*
X147087000Y-173064000D01*
X157342000Y-68375000D02*
X157804669Y-67912331D01*
X153818000Y-179795000D02*
X157303000Y-179795000D01*
X115139000Y-166841000D02*
X118568000Y-166841000D01*
X157804669Y-67912331D02*
X157804669Y-65486893D01*
X111457000Y-51700000D02*
X115178000Y-55421000D01*
X157765669Y-179332331D02*
X157765669Y-176906893D01*
X144896000Y-61644000D02*
X147126000Y-61644000D01*
X109982000Y-51700000D02*
X111457000Y-51700000D01*
X111418000Y-163120000D02*
X115139000Y-166841000D01*
X153857000Y-68375000D02*
X157342000Y-68375000D01*
X109943000Y-163120000D02*
X111418000Y-163120000D01*
X115178000Y-55421000D02*
X118607000Y-55421000D01*
%TO.N,/SD_CS*%
X146381000Y-99844000D02*
X146911500Y-99313500D01*
X140197000Y-21004000D02*
X146420000Y-14781000D01*
X146420000Y-14781000D02*
X146420000Y11576000D01*
X147597000Y-98628000D02*
X146911500Y-99313500D01*
X122378000Y-132424000D02*
X140158000Y-132424000D01*
X146420000Y11576000D02*
X146950500Y12106500D01*
X122417000Y-21004000D02*
X140197000Y-21004000D01*
X146381000Y-126201000D02*
X146381000Y-99844000D01*
X147636000Y12792000D02*
X146950500Y12106500D01*
X140158000Y-132424000D02*
X146381000Y-126201000D01*
%TO.N,/E1*%
X105995000Y-127598001D02*
X105995000Y-118327000D01*
X106442336Y-128045337D02*
X105995000Y-127598001D01*
X106034000Y-16178001D02*
X106034000Y-6907000D01*
X105995000Y-118327000D02*
X107519000Y-116803000D01*
X106034000Y-6907000D02*
X107558000Y-5383000D01*
X106481336Y-16625337D02*
X106034000Y-16178001D01*
D30*
%TO.N,/C13*%
X102947000Y-132805000D02*
X102947000Y-133313000D01*
X102986000Y-21385000D02*
X102986000Y-21893000D01*
X102351000Y-20750000D02*
X102986000Y-21385000D01*
X102312000Y-128995000D02*
X102312000Y-132170000D01*
X102947000Y-133313000D02*
X102820000Y-133440000D01*
X102986000Y-21893000D02*
X102859000Y-22020000D01*
X91136000Y-117819000D02*
X102312000Y-128995000D01*
X102312000Y-132170000D02*
X102947000Y-132805000D01*
X91175000Y-6399000D02*
X102351000Y-17575000D01*
X91175000Y-4113000D02*
X91175000Y-6399000D01*
X102351000Y-17575000D02*
X102351000Y-20750000D01*
X91136000Y-115533000D02*
X91136000Y-117819000D01*
%TO.N,/C14*%
X98277873Y-18346127D02*
X98277873Y-17946873D01*
X88254000Y-7923000D02*
X88254000Y-4240000D01*
X98238873Y-129766127D02*
X98238873Y-129366873D01*
X98277873Y-17946873D02*
X88254000Y-7923000D01*
X98238873Y-129366873D02*
X88215000Y-119343000D01*
X88215000Y-119343000D02*
X88215000Y-115660000D01*
D28*
%TO.N,/RSSI*%
X60187000Y-36879000D02*
X64886000Y-32180000D01*
X60148000Y-148299000D02*
X64847000Y-143600000D01*
X57993640Y-152543200D02*
X57993640Y-150453360D01*
X95604000Y-147156000D02*
X61291000Y-147156000D01*
X96607000Y-36700000D02*
X95643000Y-35736000D01*
X96568000Y-148120000D02*
X95604000Y-147156000D01*
X57993640Y-150453360D02*
X60148000Y-148299000D01*
X95643000Y-35736000D02*
X61330000Y-35736000D01*
X61330000Y-35736000D02*
X60187000Y-36879000D01*
X61291000Y-147156000D02*
X60148000Y-148299000D01*
X58032640Y-39033360D02*
X60187000Y-36879000D01*
X58032640Y-41123200D02*
X58032640Y-39033360D01*
D25*
%TO.N,/SD_MISO*%
X147778000Y-126709000D02*
X147778000Y-107659000D01*
X122768305Y-133059000D02*
X141428000Y-133059000D01*
X147817000Y3761000D02*
X149722000Y5666000D01*
X147817000Y-15289000D02*
X147817000Y3761000D01*
X147778000Y-107659000D02*
X149683000Y-105754000D01*
X114887000Y-21729000D02*
X122717305Y-21729000D01*
X149683000Y-105754000D02*
X149683000Y-93035000D01*
X149683000Y-93035000D02*
X148557000Y-91909000D01*
X114504000Y-132805000D02*
X114848000Y-133149000D01*
X114848000Y-133149000D02*
X122678305Y-133149000D01*
X148557000Y-91909000D02*
X142884000Y-91909000D01*
X141428000Y-133059000D02*
X147778000Y-126709000D01*
X149722000Y18385000D02*
X148596000Y19511000D01*
X114543000Y-21385000D02*
X114887000Y-21729000D01*
X149722000Y5666000D02*
X149722000Y18385000D01*
X141467000Y-21639000D02*
X147817000Y-15289000D01*
X122717305Y-21729000D02*
X122807305Y-21639000D01*
X122807305Y-21639000D02*
X141467000Y-21639000D01*
X122678305Y-133149000D02*
X122768305Y-133059000D01*
X148596000Y19511000D02*
X142923000Y19511000D01*
D28*
%TO.N,/RST*%
X64251000Y-34720000D02*
X96509000Y-34720000D01*
X64212000Y-146140000D02*
X96470000Y-146140000D01*
X96509000Y-34720000D02*
X96763000Y-34466000D01*
X64124000Y-34593000D02*
X64251000Y-34720000D01*
X96470000Y-146140000D02*
X96724000Y-145886000D01*
X64085000Y-146013000D02*
X64212000Y-146140000D01*
%TO.N,/Xbee_Rx*%
X82920000Y-31291000D02*
X61865360Y-31291000D01*
X82881000Y-142711000D02*
X61826360Y-142711000D01*
X61826360Y-142711000D02*
X51994160Y-152543200D01*
X61865360Y-31291000D02*
X52033160Y-41123200D01*
D25*
%TO.N,/DAC_1*%
X90293500Y-142219500D02*
X87418000Y-145095000D01*
X90332500Y-30799500D02*
X87457000Y-33675000D01*
X92757000Y-30799500D02*
X90332500Y-30799500D01*
X92718000Y-142219500D02*
X90293500Y-142219500D01*
D28*
%TO.N,/ADC_in9*%
X93918000Y-162295000D02*
X94118000Y-162495000D01*
X93957000Y-50875000D02*
X94157000Y-51075000D01*
X93918000Y-148595000D02*
X93918000Y-162295000D01*
X93957000Y-37175000D02*
X93957000Y-50875000D01*
D25*
%TO.N,/display_d*%
X116861500Y-120922500D02*
X118998000Y-120922500D01*
X115051000Y-14906000D02*
X115051000Y-11352000D01*
X115051000Y-11352000D02*
X116900500Y-9502500D01*
X116900500Y-9502500D02*
X119037000Y-9502500D01*
X115012000Y-126326000D02*
X115012000Y-122772000D01*
X112168000Y-129170000D02*
X115012000Y-126326000D01*
X112207000Y-17750000D02*
X115051000Y-14906000D01*
X115012000Y-122772000D02*
X116861500Y-120922500D01*
%TO.N,/display_c*%
X114593000Y-128270000D02*
X115229000Y-128270000D01*
X114632000Y-16850000D02*
X115268000Y-16850000D01*
X115268000Y-16850000D02*
X117464000Y-14654000D01*
X115229000Y-128270000D02*
X117425000Y-126074000D01*
%TO.N,/display_b*%
X120981000Y-131662000D02*
X122886000Y-129757000D01*
X121020000Y-20242000D02*
X122925000Y-18337000D01*
X122886000Y-108929000D02*
X122179500Y-108222500D01*
X112130000Y-20242000D02*
X121020000Y-20242000D01*
X122179500Y-108222500D02*
X118998000Y-108222500D01*
X112027500Y-131725500D02*
X112091000Y-131662000D01*
X112091000Y-131662000D02*
X120981000Y-131662000D01*
X122218500Y3197500D02*
X119037000Y3197500D01*
X122925000Y-18337000D02*
X122925000Y2491000D01*
X122925000Y2491000D02*
X122218500Y3197500D01*
X112066500Y-20305500D02*
X112130000Y-20242000D01*
X122886000Y-129757000D02*
X122886000Y-108929000D01*
D26*
%TO.N,Net-(U10-Pad9)*%
X131382943Y2618000D02*
X131429943Y2665000D01*
X128617500Y2618000D02*
X131382943Y2618000D01*
X131429943Y2665000D02*
X133267000Y2665000D01*
X133267000Y2665000D02*
X134467000Y1465000D01*
X128578500Y-108802000D02*
X131343943Y-108802000D01*
X133228000Y-108755000D02*
X134428000Y-109955000D01*
X126657000Y657500D02*
X128617500Y2618000D01*
X131390943Y-108755000D02*
X133228000Y-108755000D01*
X126618000Y-110762500D02*
X128578500Y-108802000D01*
X131343943Y-108802000D02*
X131390943Y-108755000D01*
D25*
%TO.N,/display_a*%
X116790000Y-128233000D02*
X119965000Y-128233000D01*
X120655500Y-123462500D02*
X118998000Y-123462500D01*
X114416000Y-19226000D02*
X116829000Y-16813000D01*
X120004000Y-16813000D02*
X121147000Y-15670000D01*
X116829000Y-16813000D02*
X120004000Y-16813000D01*
X121147000Y-15670000D02*
X121147000Y-12495000D01*
X119965000Y-128233000D02*
X121108000Y-127090000D01*
X121147000Y-12495000D02*
X120694500Y-12042500D01*
X120694500Y-12042500D02*
X119037000Y-12042500D01*
X114377000Y-130646000D02*
X116790000Y-128233000D01*
X121108000Y-127090000D02*
X121108000Y-123915000D01*
X121108000Y-123915000D02*
X120655500Y-123462500D01*
%TO.N,/SWo*%
X133412000Y-26011000D02*
X133412000Y-24675000D01*
X109693000Y-131296000D02*
X116536000Y-138139000D01*
X132704000Y-26719000D02*
X133412000Y-26011000D01*
X109732000Y-19876000D02*
X116575000Y-26719000D01*
X132665000Y-138139000D02*
X133373000Y-137431000D01*
X133373000Y-137431000D02*
X133373000Y-136095000D01*
X116575000Y-26719000D02*
X132704000Y-26719000D01*
X109693000Y-130695000D02*
X109693000Y-131296000D01*
X116536000Y-138139000D02*
X132665000Y-138139000D01*
X109732000Y-19275000D02*
X109732000Y-19876000D01*
D29*
%TO.N,/mornsun_Vin*%
X53964000Y-3732000D02*
X53964000Y-557000D01*
X55107000Y586000D02*
X64759000Y586000D01*
X54958000Y-116185000D02*
X53925000Y-115152000D01*
X65648000Y1475000D02*
X65648000Y5285000D01*
X69292000Y-105500000D02*
X69165000Y-105627000D01*
X53964000Y-557000D02*
X55107000Y586000D01*
X65101000Y-93054000D02*
X65101000Y-105500000D01*
X56127000Y-4765000D02*
X54997000Y-4765000D01*
X54997000Y-4765000D02*
X53964000Y-3732000D01*
X69331000Y5920000D02*
X69204000Y5793000D01*
X69204000Y5793000D02*
X65521000Y5793000D01*
X55068000Y-110834000D02*
X64720000Y-110834000D01*
X65648000Y5285000D02*
X65140000Y5793000D01*
X65521000Y5793000D02*
X65394000Y5666000D01*
X56088000Y-116185000D02*
X54958000Y-116185000D01*
X65609000Y-109945000D02*
X65609000Y-106135000D01*
X65609000Y-106135000D02*
X65101000Y-105627000D01*
X64759000Y586000D02*
X65648000Y1475000D01*
X69165000Y-105627000D02*
X65482000Y-105627000D01*
X53925000Y-115152000D02*
X53925000Y-111977000D01*
X65482000Y-105627000D02*
X65355000Y-105754000D01*
X53925000Y-111977000D02*
X55068000Y-110834000D01*
X65140000Y18366000D02*
X65140000Y5920000D01*
X64720000Y-110834000D02*
X65609000Y-109945000D01*
D30*
%TO.N,/CAN_N*%
X146243533Y-162469268D02*
X145819268Y-162469268D01*
X148588768Y-48743033D02*
X146282533Y-51049268D01*
X148549768Y-159738768D02*
X148549768Y-160163033D01*
X148588768Y-48318768D02*
X148588768Y-48743033D01*
X148549768Y-160163033D02*
X146243533Y-162469268D01*
X146282533Y-51049268D02*
X145858268Y-51049268D01*
%TD*%
M02*
