%TF.GenerationSoftware,KiCad,Pcbnew,6.0.11-2627ca5db0~126~ubuntu20.04.1*%
%TF.CreationDate,2023-05-10T15:40:14+05:30*%
%TF.ProjectId,MVCU_F407,4d564355-5f46-4343-9037-2e6b69636164,rev?*%
%TF.SameCoordinates,Original*%
%TF.FileFunction,Drillmap*%
%TF.FilePolarity,Positive*%
%FSLAX45Y45*%
G04 Gerber Fmt 4.5, Leading zero omitted, Abs format (unit mm)*
G04 Created by KiCad (PCBNEW 6.0.11-2627ca5db0~126~ubuntu20.04.1) date 2023-05-10 15:40:14*
%MOMM*%
%LPD*%
G01*
G04 APERTURE LIST*
%ADD10C,0.050000*%
%ADD11C,0.120000*%
%ADD12C,0.200000*%
%ADD13C,0.040000*%
G04 APERTURE END LIST*
D10*
X16039000Y3119300D02*
X3974000Y3119300D01*
X16644700Y-8632300D02*
X16601800Y-18209500D01*
X14169300Y-7719500D02*
X10214300Y-7719500D01*
X14769300Y-7719500D02*
X15995700Y-7717500D01*
X5639300Y-8019500D02*
X9614300Y-8019500D01*
X9614300Y-7719500D02*
X5639300Y-7719500D01*
D11*
X14169300Y-8019500D02*
G75*
G03*
X14169300Y-7719500I0J150000D01*
G01*
D10*
X10214300Y-8019500D02*
X14169300Y-8019500D01*
D11*
X10214300Y-7719500D02*
G75*
G03*
X10214300Y-8019500I0J-150000D01*
G01*
D10*
X3970100Y-8022700D02*
G75*
G03*
X3360500Y-8632300I0J-609600D01*
G01*
X3365702Y-7067500D02*
G75*
G03*
X3965700Y-7707500I590368J-47780D01*
G01*
X15995700Y-7717499D02*
G75*
G03*
X16605700Y-7067500I-41310J649999D01*
G01*
X16648600Y2509700D02*
X16605700Y-7067500D01*
X3970100Y-8022700D02*
X5039300Y-8015500D01*
X3361802Y-18209500D02*
G75*
G03*
X3961800Y-18849500I590368J-47780D01*
G01*
X3361800Y-18209500D02*
X3360500Y-8632300D01*
D11*
X5639300Y-7719500D02*
G75*
G03*
X5639300Y-8019500I0J-150000D01*
G01*
D10*
X16644700Y-8632300D02*
G75*
G03*
X16035100Y-8022700I-609600J0D01*
G01*
X14769300Y-8019500D02*
X16035100Y-8022700D01*
X16648600Y2509700D02*
G75*
G03*
X16039000Y3119300I-609600J0D01*
G01*
X5039300Y-7719500D02*
X3965700Y-7707500D01*
X3974000Y3119300D02*
G75*
G03*
X3364400Y2509700I0J-609600D01*
G01*
X15991800Y-18859500D02*
X3961800Y-18849500D01*
D11*
X14769300Y-7719500D02*
G75*
G03*
X14769300Y-8019500I0J-150000D01*
G01*
D10*
X15991800Y-18859499D02*
G75*
G03*
X16601800Y-18209500I-41310J649999D01*
G01*
X3365700Y-7067500D02*
X3364400Y2509700D01*
D11*
X5039300Y-8015500D02*
G75*
G03*
X5039300Y-7719500I0J148000D01*
G01*
X9614300Y-8019500D02*
G75*
G03*
X9614300Y-7719500I0J150000D01*
G01*
D12*
D13*
X3731800Y-14124500D02*
X3771800Y-14164500D01*
X3771800Y-14124500D02*
X3731800Y-14164500D01*
X3731800Y-14257000D02*
X3771800Y-14297000D01*
X3771800Y-14257000D02*
X3731800Y-14297000D01*
X3734200Y-13997100D02*
X3774200Y-14037100D01*
X3774200Y-13997100D02*
X3734200Y-14037100D01*
X3735700Y-2982500D02*
X3775700Y-3022500D01*
X3775700Y-2982500D02*
X3735700Y-3022500D01*
X3735700Y-3115000D02*
X3775700Y-3155000D01*
X3775700Y-3115000D02*
X3735700Y-3155000D01*
X3738100Y-2855100D02*
X3778100Y-2895100D01*
X3778100Y-2855100D02*
X3738100Y-2895100D01*
X3859300Y-14129500D02*
X3899300Y-14169500D01*
X3899300Y-14129500D02*
X3859300Y-14169500D01*
X3861800Y-14264500D02*
X3901800Y-14304500D01*
X3901800Y-14264500D02*
X3861800Y-14304500D01*
X3863200Y-2987500D02*
X3903200Y-3027500D01*
X3903200Y-2987500D02*
X3863200Y-3027500D01*
X3865700Y-3122500D02*
X3905700Y-3162500D01*
X3905700Y-3122500D02*
X3865700Y-3162500D01*
X3866800Y-13997000D02*
X3906800Y-14037000D01*
X3906800Y-13997000D02*
X3866800Y-14037000D01*
X3870700Y-2855000D02*
X3910700Y-2895000D01*
X3910700Y-2855000D02*
X3870700Y-2895000D01*
X3994300Y-15457000D02*
X4034300Y-15497000D01*
X4034300Y-15457000D02*
X3994300Y-15497000D01*
X3994300Y-15589500D02*
X4034300Y-15629500D01*
X4034300Y-15589500D02*
X3994300Y-15629500D01*
X3996700Y-15329600D02*
X4036700Y-15369600D01*
X4036700Y-15329600D02*
X3996700Y-15369600D01*
X3998200Y-4315000D02*
X4038200Y-4355000D01*
X4038200Y-4315000D02*
X3998200Y-4355000D01*
X3998200Y-4447500D02*
X4038200Y-4487500D01*
X4038200Y-4447500D02*
X3998200Y-4487500D01*
X4000600Y-4187600D02*
X4040600Y-4227600D01*
X4040600Y-4187600D02*
X4000600Y-4227600D01*
X4121800Y-15462000D02*
X4161800Y-15502000D01*
X4161800Y-15462000D02*
X4121800Y-15502000D01*
X4124300Y-15597000D02*
X4164300Y-15637000D01*
X4164300Y-15597000D02*
X4124300Y-15637000D01*
X4125700Y-4320000D02*
X4165700Y-4360000D01*
X4165700Y-4320000D02*
X4125700Y-4360000D01*
X4128200Y-4455000D02*
X4168200Y-4495000D01*
X4168200Y-4455000D02*
X4128200Y-4495000D01*
X4129300Y-15329500D02*
X4169300Y-15369500D01*
X4169300Y-15329500D02*
X4129300Y-15369500D01*
X4133200Y-4187500D02*
X4173200Y-4227500D01*
X4173200Y-4187500D02*
X4133200Y-4227500D01*
X4209300Y-12309500D02*
X4249300Y-12349500D01*
X4249300Y-12309500D02*
X4209300Y-12349500D01*
X4209400Y-12442100D02*
X4249400Y-12482100D01*
X4249400Y-12442100D02*
X4209400Y-12482100D01*
X4213200Y-1167500D02*
X4253200Y-1207500D01*
X4253200Y-1167500D02*
X4213200Y-1207500D01*
X4213300Y-1300100D02*
X4253300Y-1340100D01*
X4253300Y-1300100D02*
X4213300Y-1340100D01*
X4226800Y-9222000D02*
X4266800Y-9262000D01*
X4266800Y-9222000D02*
X4226800Y-9262000D01*
X4226900Y-9354600D02*
X4266900Y-9394600D01*
X4266900Y-9354600D02*
X4226900Y-9394600D01*
X4230700Y1920000D02*
X4270700Y1880000D01*
X4270700Y1920000D02*
X4230700Y1880000D01*
X4230800Y1787400D02*
X4270800Y1747400D01*
X4270800Y1787400D02*
X4230800Y1747400D01*
X4336800Y-12444500D02*
X4376800Y-12484500D01*
X4376800Y-12444500D02*
X4336800Y-12484500D01*
X4340700Y-1302500D02*
X4380700Y-1342500D01*
X4380700Y-1302500D02*
X4340700Y-1342500D01*
X4341800Y-12317000D02*
X4381800Y-12357000D01*
X4381800Y-12317000D02*
X4341800Y-12357000D01*
X4345700Y-1175000D02*
X4385700Y-1215000D01*
X4385700Y-1175000D02*
X4345700Y-1215000D01*
X4354300Y-9357000D02*
X4394300Y-9397000D01*
X4394300Y-9357000D02*
X4354300Y-9397000D01*
X4358200Y1785000D02*
X4398200Y1745000D01*
X4398200Y1785000D02*
X4358200Y1745000D01*
X4359300Y-9229500D02*
X4399300Y-9269500D01*
X4399300Y-9229500D02*
X4359300Y-9269500D01*
X4363200Y1912500D02*
X4403200Y1872500D01*
X4403200Y1912500D02*
X4363200Y1872500D01*
X4469300Y-12444500D02*
X4509300Y-12484500D01*
X4509300Y-12444500D02*
X4469300Y-12484500D01*
X4473200Y-1302500D02*
X4513200Y-1342500D01*
X4513200Y-1302500D02*
X4473200Y-1342500D01*
X4476800Y-12314500D02*
X4516800Y-12354500D01*
X4516800Y-12314500D02*
X4476800Y-12354500D01*
X4480700Y-1172500D02*
X4520700Y-1212500D01*
X4520700Y-1172500D02*
X4480700Y-1212500D01*
X4486800Y-9357000D02*
X4526800Y-9397000D01*
X4526800Y-9357000D02*
X4486800Y-9397000D01*
X4490700Y1785000D02*
X4530700Y1745000D01*
X4530700Y1785000D02*
X4490700Y1745000D01*
X4494300Y-9227000D02*
X4534300Y-9267000D01*
X4534300Y-9227000D02*
X4494300Y-9267000D01*
X4498200Y1915000D02*
X4538200Y1875000D01*
X4538200Y1915000D02*
X4498200Y1875000D01*
X4534300Y-18407000D02*
X4574300Y-18447000D01*
X4574300Y-18407000D02*
X4534300Y-18447000D01*
X4534400Y-18539600D02*
X4574400Y-18579600D01*
X4574400Y-18539600D02*
X4534400Y-18579600D01*
X4538200Y-7265000D02*
X4578200Y-7305000D01*
X4578200Y-7265000D02*
X4538200Y-7305000D01*
X4538300Y-7397600D02*
X4578300Y-7437600D01*
X4578300Y-7397600D02*
X4538300Y-7437600D01*
X4661800Y-18542000D02*
X4701800Y-18582000D01*
X4701800Y-18542000D02*
X4661800Y-18582000D01*
X4665700Y-7400000D02*
X4705700Y-7440000D01*
X4705700Y-7400000D02*
X4665700Y-7440000D01*
X4666800Y-18414500D02*
X4706800Y-18454500D01*
X4706800Y-18414500D02*
X4666800Y-18454500D01*
X4670700Y-7272500D02*
X4710700Y-7312500D01*
X4710700Y-7272500D02*
X4670700Y-7312500D01*
X4741800Y-13822000D02*
X4781800Y-13862000D01*
X4781800Y-13822000D02*
X4741800Y-13862000D01*
X4741900Y-13954600D02*
X4781900Y-13994600D01*
X4781900Y-13954600D02*
X4741900Y-13994600D01*
X4745700Y-2680000D02*
X4785700Y-2720000D01*
X4785700Y-2680000D02*
X4745700Y-2720000D01*
X4745800Y-2812600D02*
X4785800Y-2852600D01*
X4785800Y-2812600D02*
X4745800Y-2852600D01*
X4794300Y-18542000D02*
X4834300Y-18582000D01*
X4834300Y-18542000D02*
X4794300Y-18582000D01*
X4798200Y-7400000D02*
X4838200Y-7440000D01*
X4838200Y-7400000D02*
X4798200Y-7440000D01*
X4801800Y-18412000D02*
X4841800Y-18452000D01*
X4841800Y-18412000D02*
X4801800Y-18452000D01*
X4805700Y-7270000D02*
X4845700Y-7310000D01*
X4845700Y-7270000D02*
X4805700Y-7310000D01*
X4854300Y-11037000D02*
X4894300Y-11077000D01*
X4894300Y-11037000D02*
X4854300Y-11077000D01*
X4854400Y-11169600D02*
X4894400Y-11209600D01*
X4894400Y-11169600D02*
X4854400Y-11209600D01*
X4858200Y105000D02*
X4898200Y65000D01*
X4898200Y105000D02*
X4858200Y65000D01*
X4858300Y-27600D02*
X4898300Y-67600D01*
X4898300Y-27600D02*
X4858300Y-67600D01*
X4869300Y-13957000D02*
X4909300Y-13997000D01*
X4909300Y-13957000D02*
X4869300Y-13997000D01*
X4873200Y-2815000D02*
X4913200Y-2855000D01*
X4913200Y-2815000D02*
X4873200Y-2855000D01*
X4874300Y-13829500D02*
X4914300Y-13869500D01*
X4914300Y-13829500D02*
X4874300Y-13869500D01*
X4878200Y-2687500D02*
X4918200Y-2727500D01*
X4918200Y-2687500D02*
X4878200Y-2727500D01*
X4891800Y-10222000D02*
X4931800Y-10262000D01*
X4931800Y-10222000D02*
X4891800Y-10262000D01*
X4891900Y-10354600D02*
X4931900Y-10394600D01*
X4931900Y-10354600D02*
X4891900Y-10394600D01*
X4895700Y920000D02*
X4935700Y880000D01*
X4935700Y920000D02*
X4895700Y880000D01*
X4895800Y787400D02*
X4935800Y747400D01*
X4935800Y787400D02*
X4895800Y747400D01*
X4981800Y-11172000D02*
X5021800Y-11212000D01*
X5021800Y-11172000D02*
X4981800Y-11212000D01*
X4985700Y-30000D02*
X5025700Y-70000D01*
X5025700Y-30000D02*
X4985700Y-70000D01*
X4986800Y-11044500D02*
X5026800Y-11084500D01*
X5026800Y-11044500D02*
X4986800Y-11084500D01*
X4990700Y97500D02*
X5030700Y57500D01*
X5030700Y97500D02*
X4990700Y57500D01*
X5001800Y-13957000D02*
X5041800Y-13997000D01*
X5041800Y-13957000D02*
X5001800Y-13997000D01*
X5005700Y-2815000D02*
X5045700Y-2855000D01*
X5045700Y-2815000D02*
X5005700Y-2855000D01*
X5009300Y-13827000D02*
X5049300Y-13867000D01*
X5049300Y-13827000D02*
X5009300Y-13867000D01*
X5013200Y-2685000D02*
X5053200Y-2725000D01*
X5053200Y-2685000D02*
X5013200Y-2725000D01*
X5019300Y-10357000D02*
X5059300Y-10397000D01*
X5059300Y-10357000D02*
X5019300Y-10397000D01*
X5023200Y785000D02*
X5063200Y745000D01*
X5063200Y785000D02*
X5023200Y745000D01*
X5024300Y-10229500D02*
X5064300Y-10269500D01*
X5064300Y-10229500D02*
X5024300Y-10269500D01*
X5028200Y912500D02*
X5068200Y872500D01*
X5068200Y912500D02*
X5028200Y872500D01*
X5114300Y-11172000D02*
X5154300Y-11212000D01*
X5154300Y-11172000D02*
X5114300Y-11212000D01*
X5118200Y-30000D02*
X5158200Y-70000D01*
X5158200Y-30000D02*
X5118200Y-70000D01*
X5121800Y-11042000D02*
X5161800Y-11082000D01*
X5161800Y-11042000D02*
X5121800Y-11082000D01*
X5125700Y100000D02*
X5165700Y60000D01*
X5165700Y100000D02*
X5125700Y60000D01*
X5151800Y-10357000D02*
X5191800Y-10397000D01*
X5191800Y-10357000D02*
X5151800Y-10397000D01*
X5155700Y785000D02*
X5195700Y745000D01*
X5195700Y785000D02*
X5155700Y745000D01*
X5159300Y-10227000D02*
X5199300Y-10267000D01*
X5199300Y-10227000D02*
X5159300Y-10267000D01*
X5163200Y915000D02*
X5203200Y875000D01*
X5203200Y915000D02*
X5163200Y875000D01*
X5641800Y-18409500D02*
X5681800Y-18449500D01*
X5681800Y-18409500D02*
X5641800Y-18449500D01*
X5641900Y-18542100D02*
X5681900Y-18582100D01*
X5681900Y-18542100D02*
X5641900Y-18582100D01*
X5645700Y-7267500D02*
X5685700Y-7307500D01*
X5685700Y-7267500D02*
X5645700Y-7307500D01*
X5645800Y-7400100D02*
X5685800Y-7440100D01*
X5685800Y-7400100D02*
X5645800Y-7440100D01*
X5769300Y-18544500D02*
X5809300Y-18584500D01*
X5809300Y-18544500D02*
X5769300Y-18584500D01*
X5773200Y-7402500D02*
X5813200Y-7442500D01*
X5813200Y-7402500D02*
X5773200Y-7442500D01*
X5774300Y-18417000D02*
X5814300Y-18457000D01*
X5814300Y-18417000D02*
X5774300Y-18457000D01*
X5778200Y-7275000D02*
X5818200Y-7315000D01*
X5818200Y-7275000D02*
X5778200Y-7315000D01*
X5901800Y-18544500D02*
X5941800Y-18584500D01*
X5941800Y-18544500D02*
X5901800Y-18584500D01*
X5905700Y-7402500D02*
X5945700Y-7442500D01*
X5945700Y-7402500D02*
X5905700Y-7442500D01*
X5909300Y-18414500D02*
X5949300Y-18454500D01*
X5949300Y-18414500D02*
X5909300Y-18454500D01*
X5913200Y-7272500D02*
X5953200Y-7312500D01*
X5953200Y-7272500D02*
X5913200Y-7312500D01*
X6069300Y-13814500D02*
X6109300Y-13854500D01*
X6109300Y-13814500D02*
X6069300Y-13854500D01*
X6069400Y-13947100D02*
X6109400Y-13987100D01*
X6109400Y-13947100D02*
X6069400Y-13987100D01*
X6073200Y-2672500D02*
X6113200Y-2712500D01*
X6113200Y-2672500D02*
X6073200Y-2712500D01*
X6073300Y-2805100D02*
X6113300Y-2845100D01*
X6113300Y-2805100D02*
X6073300Y-2845100D01*
X6196800Y-13949500D02*
X6236800Y-13989500D01*
X6236800Y-13949500D02*
X6196800Y-13989500D01*
X6200700Y-2807500D02*
X6240700Y-2847500D01*
X6240700Y-2807500D02*
X6200700Y-2847500D01*
X6201800Y-13822000D02*
X6241800Y-13862000D01*
X6241800Y-13822000D02*
X6201800Y-13862000D01*
X6205700Y-2680000D02*
X6245700Y-2720000D01*
X6245700Y-2680000D02*
X6205700Y-2720000D01*
X6329300Y-13949500D02*
X6369300Y-13989500D01*
X6369300Y-13949500D02*
X6329300Y-13989500D01*
X6333200Y-2807500D02*
X6373200Y-2847500D01*
X6373200Y-2807500D02*
X6333200Y-2847500D01*
X6336800Y-13819500D02*
X6376800Y-13859500D01*
X6376800Y-13819500D02*
X6336800Y-13859500D01*
X6340700Y-2677500D02*
X6380700Y-2717500D01*
X6380700Y-2677500D02*
X6340700Y-2717500D01*
X7939300Y-16764500D02*
X7979300Y-16804500D01*
X7979300Y-16764500D02*
X7939300Y-16804500D01*
X7939400Y-16897100D02*
X7979400Y-16937100D01*
X7979400Y-16897100D02*
X7939400Y-16937100D01*
X7943200Y-5622500D02*
X7983200Y-5662500D01*
X7983200Y-5622500D02*
X7943200Y-5662500D01*
X7943300Y-5755100D02*
X7983300Y-5795100D01*
X7983300Y-5755100D02*
X7943300Y-5795100D01*
X8066800Y-16899500D02*
X8106800Y-16939500D01*
X8106800Y-16899500D02*
X8066800Y-16939500D01*
X8070700Y-5757500D02*
X8110700Y-5797500D01*
X8110700Y-5757500D02*
X8070700Y-5797500D01*
X8071800Y-16772000D02*
X8111800Y-16812000D01*
X8111800Y-16772000D02*
X8071800Y-16812000D01*
X8075700Y-5630000D02*
X8115700Y-5670000D01*
X8115700Y-5630000D02*
X8075700Y-5670000D01*
X8199300Y-16899500D02*
X8239300Y-16939500D01*
X8239300Y-16899500D02*
X8199300Y-16939500D01*
X8203200Y-5757500D02*
X8243200Y-5797500D01*
X8243200Y-5757500D02*
X8203200Y-5797500D01*
X8206800Y-16769500D02*
X8246800Y-16809500D01*
X8246800Y-16769500D02*
X8206800Y-16809500D01*
X8210700Y-5627500D02*
X8250700Y-5667500D01*
X8250700Y-5627500D02*
X8210700Y-5667500D01*
X8581800Y-18432000D02*
X8621800Y-18472000D01*
X8621800Y-18432000D02*
X8581800Y-18472000D01*
X8581900Y-18564600D02*
X8621900Y-18604600D01*
X8621900Y-18564600D02*
X8581900Y-18604600D01*
X8585700Y-7290000D02*
X8625700Y-7330000D01*
X8625700Y-7290000D02*
X8585700Y-7330000D01*
X8585800Y-7422600D02*
X8625800Y-7462600D01*
X8625800Y-7422600D02*
X8585800Y-7462600D01*
X8709300Y-18567000D02*
X8749300Y-18607000D01*
X8749300Y-18567000D02*
X8709300Y-18607000D01*
X8713200Y-7425000D02*
X8753200Y-7465000D01*
X8753200Y-7425000D02*
X8713200Y-7465000D01*
X8714300Y-18439500D02*
X8754300Y-18479500D01*
X8754300Y-18439500D02*
X8714300Y-18479500D01*
X8718200Y-7297500D02*
X8758200Y-7337500D01*
X8758200Y-7297500D02*
X8718200Y-7337500D01*
X8841800Y-18567000D02*
X8881800Y-18607000D01*
X8881800Y-18567000D02*
X8841800Y-18607000D01*
X8845700Y-7425000D02*
X8885700Y-7465000D01*
X8885700Y-7425000D02*
X8845700Y-7465000D01*
X8849300Y-18437000D02*
X8889300Y-18477000D01*
X8889300Y-18437000D02*
X8849300Y-18477000D01*
X8853200Y-7295000D02*
X8893200Y-7335000D01*
X8893200Y-7295000D02*
X8853200Y-7335000D01*
X9794300Y-13959500D02*
X9834300Y-13999500D01*
X9834300Y-13959500D02*
X9794300Y-13999500D01*
X9798200Y-2817500D02*
X9838200Y-2857500D01*
X9838200Y-2817500D02*
X9798200Y-2857500D01*
X9909300Y-14087000D02*
X9949300Y-14127000D01*
X9949300Y-14087000D02*
X9909300Y-14127000D01*
X9913200Y-2945000D02*
X9953200Y-2985000D01*
X9953200Y-2945000D02*
X9913200Y-2985000D01*
X9914300Y-13849500D02*
X9954300Y-13889500D01*
X9954300Y-13849500D02*
X9914300Y-13889500D01*
X9918200Y-2707500D02*
X9958200Y-2747500D01*
X9958200Y-2707500D02*
X9918200Y-2747500D01*
X10014300Y-14192000D02*
X10054300Y-14232000D01*
X10054300Y-14192000D02*
X10014300Y-14232000D01*
X10018200Y-3050000D02*
X10058200Y-3090000D01*
X10058200Y-3050000D02*
X10018200Y-3090000D01*
X10029300Y-13732000D02*
X10069300Y-13772000D01*
X10069300Y-13732000D02*
X10029300Y-13772000D01*
X10029300Y-13969500D02*
X10069300Y-14009500D01*
X10069300Y-13969500D02*
X10029300Y-14009500D01*
X10033200Y-2590000D02*
X10073200Y-2630000D01*
X10073200Y-2590000D02*
X10033200Y-2630000D01*
X10033200Y-2827500D02*
X10073200Y-2867500D01*
X10073200Y-2827500D02*
X10033200Y-2867500D01*
X10119300Y-14302000D02*
X10159300Y-14342000D01*
X10159300Y-14302000D02*
X10119300Y-14342000D01*
X10123200Y-3160000D02*
X10163200Y-3200000D01*
X10163200Y-3160000D02*
X10123200Y-3200000D01*
X10131800Y-14069500D02*
X10171800Y-14109500D01*
X10171800Y-14069500D02*
X10131800Y-14109500D01*
X10135700Y-2927500D02*
X10175700Y-2967500D01*
X10175700Y-2927500D02*
X10135700Y-2967500D01*
X10166800Y-13852000D02*
X10206800Y-13892000D01*
X10206800Y-13852000D02*
X10166800Y-13892000D01*
X10170700Y-2710000D02*
X10210700Y-2750000D01*
X10210700Y-2710000D02*
X10170700Y-2750000D01*
X10244300Y-14192000D02*
X10284300Y-14232000D01*
X10284300Y-14192000D02*
X10244300Y-14232000D01*
X10248200Y-3050000D02*
X10288200Y-3090000D01*
X10288200Y-3050000D02*
X10248200Y-3090000D01*
X10256800Y-13962000D02*
X10296800Y-14002000D01*
X10296800Y-13962000D02*
X10256800Y-14002000D01*
X10260700Y-2820000D02*
X10300700Y-2860000D01*
X10300700Y-2820000D02*
X10260700Y-2860000D01*
X10316800Y-13727000D02*
X10356800Y-13767000D01*
X10356800Y-13727000D02*
X10316800Y-13767000D01*
X10320700Y-2585000D02*
X10360700Y-2625000D01*
X10360700Y-2585000D02*
X10320700Y-2625000D01*
X10351800Y-14057000D02*
X10391800Y-14097000D01*
X10391800Y-14057000D02*
X10351800Y-14097000D01*
X10355700Y-2915000D02*
X10395700Y-2955000D01*
X10395700Y-2915000D02*
X10355700Y-2955000D01*
X10416800Y-13827000D02*
X10456800Y-13867000D01*
X10456800Y-13827000D02*
X10416800Y-13867000D01*
X10420700Y-2685000D02*
X10460700Y-2725000D01*
X10460700Y-2685000D02*
X10420700Y-2725000D01*
X10459300Y-13597000D02*
X10499300Y-13637000D01*
X10499300Y-13597000D02*
X10459300Y-13637000D01*
X10463200Y-2455000D02*
X10503200Y-2495000D01*
X10503200Y-2455000D02*
X10463200Y-2495000D01*
X10506800Y-13927000D02*
X10546800Y-13967000D01*
X10546800Y-13927000D02*
X10506800Y-13967000D01*
X10510700Y-2785000D02*
X10550700Y-2825000D01*
X10550700Y-2785000D02*
X10510700Y-2825000D01*
X10531800Y-13702000D02*
X10571800Y-13742000D01*
X10571800Y-13702000D02*
X10531800Y-13742000D01*
X10535700Y-2560000D02*
X10575700Y-2600000D01*
X10575700Y-2560000D02*
X10535700Y-2600000D01*
X10631800Y-13812000D02*
X10671800Y-13852000D01*
X10671800Y-13812000D02*
X10631800Y-13852000D01*
X10635700Y-2670000D02*
X10675700Y-2710000D01*
X10675700Y-2670000D02*
X10635700Y-2710000D01*
X11936800Y-18162000D02*
X11976800Y-18202000D01*
X11976800Y-18162000D02*
X11936800Y-18202000D01*
X11936900Y-18294600D02*
X11976900Y-18334600D01*
X11976900Y-18294600D02*
X11936900Y-18334600D01*
X11940700Y-7020000D02*
X11980700Y-7060000D01*
X11980700Y-7020000D02*
X11940700Y-7060000D01*
X11940800Y-7152600D02*
X11980800Y-7192600D01*
X11980800Y-7152600D02*
X11940800Y-7192600D01*
X12064300Y-18297000D02*
X12104300Y-18337000D01*
X12104300Y-18297000D02*
X12064300Y-18337000D01*
X12068200Y-7155000D02*
X12108200Y-7195000D01*
X12108200Y-7155000D02*
X12068200Y-7195000D01*
X12069300Y-18169500D02*
X12109300Y-18209500D01*
X12109300Y-18169500D02*
X12069300Y-18209500D01*
X12073200Y-7027500D02*
X12113200Y-7067500D01*
X12113200Y-7027500D02*
X12073200Y-7067500D01*
X12210000Y-14710000D02*
X12250000Y-14750000D01*
X12250000Y-14710000D02*
X12210000Y-14750000D01*
X12210100Y-14842600D02*
X12250100Y-14882600D01*
X12250100Y-14842600D02*
X12210100Y-14882600D01*
X12213900Y-3568000D02*
X12253900Y-3608000D01*
X12253900Y-3568000D02*
X12213900Y-3608000D01*
X12214000Y-3700600D02*
X12254000Y-3740600D01*
X12254000Y-3700600D02*
X12214000Y-3740600D01*
X12337500Y-14845000D02*
X12377500Y-14885000D01*
X12377500Y-14845000D02*
X12337500Y-14885000D01*
X12341400Y-3703000D02*
X12381400Y-3743000D01*
X12381400Y-3703000D02*
X12341400Y-3743000D01*
X12342500Y-14717500D02*
X12382500Y-14757500D01*
X12382500Y-14717500D02*
X12342500Y-14757500D01*
X12346400Y-3575500D02*
X12386400Y-3615500D01*
X12386400Y-3575500D02*
X12346400Y-3615500D01*
X12470000Y-14845000D02*
X12510000Y-14885000D01*
X12510000Y-14845000D02*
X12470000Y-14885000D01*
X12473900Y-3703000D02*
X12513900Y-3743000D01*
X12513900Y-3703000D02*
X12473900Y-3743000D01*
X12477500Y-14715000D02*
X12517500Y-14755000D01*
X12517500Y-14715000D02*
X12477500Y-14755000D01*
X12481400Y-3573000D02*
X12521400Y-3613000D01*
X12521400Y-3573000D02*
X12481400Y-3613000D01*
X12604300Y-16569500D02*
X12644300Y-16609500D01*
X12644300Y-16569500D02*
X12604300Y-16609500D01*
X12604400Y-16702100D02*
X12644400Y-16742100D01*
X12644400Y-16702100D02*
X12604400Y-16742100D01*
X12608200Y-5427500D02*
X12648200Y-5467500D01*
X12648200Y-5427500D02*
X12608200Y-5467500D01*
X12608300Y-5560100D02*
X12648300Y-5600100D01*
X12648300Y-5560100D02*
X12608300Y-5600100D01*
X12731800Y-16704500D02*
X12771800Y-16744500D01*
X12771800Y-16704500D02*
X12731800Y-16744500D01*
X12735700Y-5562500D02*
X12775700Y-5602500D01*
X12775700Y-5562500D02*
X12735700Y-5602500D01*
X12736800Y-16577000D02*
X12776800Y-16617000D01*
X12776800Y-16577000D02*
X12736800Y-16617000D01*
X12740700Y-5435000D02*
X12780700Y-5475000D01*
X12780700Y-5435000D02*
X12740700Y-5475000D01*
X12864300Y-16704500D02*
X12904300Y-16744500D01*
X12904300Y-16704500D02*
X12864300Y-16744500D01*
X12868200Y-5562500D02*
X12908200Y-5602500D01*
X12908200Y-5562500D02*
X12868200Y-5602500D01*
X12871800Y-16574500D02*
X12911800Y-16614500D01*
X12911800Y-16574500D02*
X12871800Y-16614500D01*
X12875700Y-5432500D02*
X12915700Y-5472500D01*
X12915700Y-5432500D02*
X12875700Y-5472500D01*
X13381800Y-18124500D02*
X13421800Y-18164500D01*
X13421800Y-18124500D02*
X13381800Y-18164500D01*
X13381900Y-18257100D02*
X13421900Y-18297100D01*
X13421900Y-18257100D02*
X13381900Y-18297100D01*
X13385700Y-6982500D02*
X13425700Y-7022500D01*
X13425700Y-6982500D02*
X13385700Y-7022500D01*
X13385800Y-7115100D02*
X13425800Y-7155100D01*
X13425800Y-7115100D02*
X13385800Y-7155100D01*
X13509300Y-18259500D02*
X13549300Y-18299500D01*
X13549300Y-18259500D02*
X13509300Y-18299500D01*
X13513200Y-7117500D02*
X13553200Y-7157500D01*
X13553200Y-7117500D02*
X13513200Y-7157500D01*
X13514300Y-18132000D02*
X13554300Y-18172000D01*
X13554300Y-18132000D02*
X13514300Y-18172000D01*
X13518200Y-6990000D02*
X13558200Y-7030000D01*
X13558200Y-6990000D02*
X13518200Y-7030000D01*
X13804300Y-14169500D02*
X13844300Y-14209500D01*
X13844300Y-14169500D02*
X13804300Y-14209500D01*
X13804400Y-14302100D02*
X13844400Y-14342100D01*
X13844400Y-14302100D02*
X13804400Y-14342100D01*
X13808200Y-3027500D02*
X13848200Y-3067500D01*
X13848200Y-3027500D02*
X13808200Y-3067500D01*
X13808300Y-3160100D02*
X13848300Y-3200100D01*
X13848300Y-3160100D02*
X13808300Y-3200100D01*
X13931800Y-14304500D02*
X13971800Y-14344500D01*
X13971800Y-14304500D02*
X13931800Y-14344500D01*
X13935700Y-3162500D02*
X13975700Y-3202500D01*
X13975700Y-3162500D02*
X13935700Y-3202500D01*
X13936800Y-14177000D02*
X13976800Y-14217000D01*
X13976800Y-14177000D02*
X13936800Y-14217000D01*
X13940700Y-3035000D02*
X13980700Y-3075000D01*
X13980700Y-3035000D02*
X13940700Y-3075000D01*
X14064300Y-14304500D02*
X14104300Y-14344500D01*
X14104300Y-14304500D02*
X14064300Y-14344500D01*
X14068200Y-3162500D02*
X14108200Y-3202500D01*
X14108200Y-3162500D02*
X14068200Y-3202500D01*
X14071800Y-14174500D02*
X14111800Y-14214500D01*
X14111800Y-14174500D02*
X14071800Y-14214500D01*
X14075700Y-3032500D02*
X14115700Y-3072500D01*
X14115700Y-3032500D02*
X14075700Y-3072500D01*
X14554300Y-13557000D02*
X14594300Y-13597000D01*
X14594300Y-13557000D02*
X14554300Y-13597000D01*
X14554300Y-13689500D02*
X14594300Y-13729500D01*
X14594300Y-13689500D02*
X14554300Y-13729500D01*
X14556700Y-13429600D02*
X14596700Y-13469600D01*
X14596700Y-13429600D02*
X14556700Y-13469600D01*
X14558200Y-2415000D02*
X14598200Y-2455000D01*
X14598200Y-2415000D02*
X14558200Y-2455000D01*
X14558200Y-2547500D02*
X14598200Y-2587500D01*
X14598200Y-2547500D02*
X14558200Y-2587500D01*
X14560600Y-2287600D02*
X14600600Y-2327600D01*
X14600600Y-2287600D02*
X14560600Y-2327600D01*
X14681800Y-13562000D02*
X14721800Y-13602000D01*
X14721800Y-13562000D02*
X14681800Y-13602000D01*
X14684300Y-13697000D02*
X14724300Y-13737000D01*
X14724300Y-13697000D02*
X14684300Y-13737000D01*
X14685700Y-2420000D02*
X14725700Y-2460000D01*
X14725700Y-2420000D02*
X14685700Y-2460000D01*
X14688200Y-2555000D02*
X14728200Y-2595000D01*
X14728200Y-2555000D02*
X14688200Y-2595000D01*
X14689300Y-13429500D02*
X14729300Y-13469500D01*
X14729300Y-13429500D02*
X14689300Y-13469500D01*
X14693200Y-2287500D02*
X14733200Y-2327500D01*
X14733200Y-2287500D02*
X14693200Y-2327500D01*
X15626800Y-12582000D02*
X15666800Y-12622000D01*
X15666800Y-12582000D02*
X15626800Y-12622000D01*
X15626900Y-12714600D02*
X15666900Y-12754600D01*
X15666900Y-12714600D02*
X15626900Y-12754600D01*
X15629300Y-16369500D02*
X15669300Y-16409500D01*
X15669300Y-16369500D02*
X15629300Y-16409500D01*
X15629400Y-16502100D02*
X15669400Y-16542100D01*
X15669400Y-16502100D02*
X15629400Y-16542100D01*
X15630700Y-1440000D02*
X15670700Y-1480000D01*
X15670700Y-1440000D02*
X15630700Y-1480000D01*
X15630800Y-1572600D02*
X15670800Y-1612600D01*
X15670800Y-1572600D02*
X15630800Y-1612600D01*
X15633200Y-5227500D02*
X15673200Y-5267500D01*
X15673200Y-5227500D02*
X15633200Y-5267500D01*
X15633300Y-5360100D02*
X15673300Y-5400100D01*
X15673300Y-5360100D02*
X15633300Y-5400100D01*
X15754300Y-12717000D02*
X15794300Y-12757000D01*
X15794300Y-12717000D02*
X15754300Y-12757000D01*
X15756800Y-16504500D02*
X15796800Y-16544500D01*
X15796800Y-16504500D02*
X15756800Y-16544500D01*
X15758200Y-1575000D02*
X15798200Y-1615000D01*
X15798200Y-1575000D02*
X15758200Y-1615000D01*
X15759300Y-12589500D02*
X15799300Y-12629500D01*
X15799300Y-12589500D02*
X15759300Y-12629500D01*
X15760700Y-5362500D02*
X15800700Y-5402500D01*
X15800700Y-5362500D02*
X15760700Y-5402500D01*
X15761800Y-16377000D02*
X15801800Y-16417000D01*
X15801800Y-16377000D02*
X15761800Y-16417000D01*
X15763200Y-1447500D02*
X15803200Y-1487500D01*
X15803200Y-1447500D02*
X15763200Y-1487500D01*
X15765700Y-5235000D02*
X15805700Y-5275000D01*
X15805700Y-5235000D02*
X15765700Y-5275000D01*
X15786800Y-8849500D02*
X15826800Y-8889500D01*
X15826800Y-8849500D02*
X15786800Y-8889500D01*
X15786900Y-8982100D02*
X15826900Y-9022100D01*
X15826900Y-8982100D02*
X15786900Y-9022100D01*
X15790700Y2292500D02*
X15830700Y2252500D01*
X15830700Y2292500D02*
X15790700Y2252500D01*
X15790800Y2159900D02*
X15830800Y2119900D01*
X15830800Y2159900D02*
X15790800Y2119900D01*
X15886800Y-12717000D02*
X15926800Y-12757000D01*
X15926800Y-12717000D02*
X15886800Y-12757000D01*
X15889300Y-16504500D02*
X15929300Y-16544500D01*
X15929300Y-16504500D02*
X15889300Y-16544500D01*
X15890700Y-1575000D02*
X15930700Y-1615000D01*
X15930700Y-1575000D02*
X15890700Y-1615000D01*
X15893200Y-5362500D02*
X15933200Y-5402500D01*
X15933200Y-5362500D02*
X15893200Y-5402500D01*
X15894300Y-12587000D02*
X15934300Y-12627000D01*
X15934300Y-12587000D02*
X15894300Y-12627000D01*
X15896800Y-16374500D02*
X15936800Y-16414500D01*
X15936800Y-16374500D02*
X15896800Y-16414500D01*
X15898200Y-1445000D02*
X15938200Y-1485000D01*
X15938200Y-1445000D02*
X15898200Y-1485000D01*
X15900700Y-5232500D02*
X15940700Y-5272500D01*
X15940700Y-5232500D02*
X15900700Y-5272500D01*
X15914300Y-8984500D02*
X15954300Y-9024500D01*
X15954300Y-8984500D02*
X15914300Y-9024500D01*
X15918200Y2157500D02*
X15958200Y2117500D01*
X15958200Y2157500D02*
X15918200Y2117500D01*
X15919300Y-8857000D02*
X15959300Y-8897000D01*
X15959300Y-8857000D02*
X15919300Y-8897000D01*
X15923200Y2285000D02*
X15963200Y2245000D01*
X15963200Y2285000D02*
X15923200Y2245000D01*
X16046800Y-8984500D02*
X16086800Y-9024500D01*
X16086800Y-8984500D02*
X16046800Y-9024500D01*
X16050700Y2157500D02*
X16090700Y2117500D01*
X16090700Y2157500D02*
X16050700Y2117500D01*
X16054300Y-8854500D02*
X16094300Y-8894500D01*
X16094300Y-8854500D02*
X16054300Y-8894500D01*
X16058200Y2287500D02*
X16098200Y2247500D01*
X16098200Y2287500D02*
X16058200Y2247500D01*
D12*
X3614991Y-19172476D02*
X3614991Y-18972476D01*
X3662610Y-18972476D01*
X3691181Y-18982000D01*
X3710229Y-19001048D01*
X3719753Y-19020095D01*
X3729276Y-19058190D01*
X3729276Y-19086762D01*
X3719753Y-19124857D01*
X3710229Y-19143905D01*
X3691181Y-19162952D01*
X3662610Y-19172476D01*
X3614991Y-19172476D01*
X3814991Y-19172476D02*
X3814991Y-19039143D01*
X3814991Y-19077238D02*
X3824514Y-19058190D01*
X3834038Y-19048667D01*
X3853086Y-19039143D01*
X3872134Y-19039143D01*
X3938800Y-19172476D02*
X3938800Y-19039143D01*
X3938800Y-18972476D02*
X3929276Y-18982000D01*
X3938800Y-18991524D01*
X3948324Y-18982000D01*
X3938800Y-18972476D01*
X3938800Y-18991524D01*
X4062610Y-19172476D02*
X4043562Y-19162952D01*
X4034038Y-19143905D01*
X4034038Y-18972476D01*
X4167372Y-19172476D02*
X4148324Y-19162952D01*
X4138800Y-19143905D01*
X4138800Y-18972476D01*
X4395943Y-19172476D02*
X4395943Y-18972476D01*
X4462610Y-19115333D01*
X4529276Y-18972476D01*
X4529276Y-19172476D01*
X4710229Y-19172476D02*
X4710229Y-19067714D01*
X4700705Y-19048667D01*
X4681657Y-19039143D01*
X4643562Y-19039143D01*
X4624515Y-19048667D01*
X4710229Y-19162952D02*
X4691181Y-19172476D01*
X4643562Y-19172476D01*
X4624515Y-19162952D01*
X4614991Y-19143905D01*
X4614991Y-19124857D01*
X4624515Y-19105810D01*
X4643562Y-19096286D01*
X4691181Y-19096286D01*
X4710229Y-19086762D01*
X4805467Y-19039143D02*
X4805467Y-19239143D01*
X4805467Y-19048667D02*
X4824515Y-19039143D01*
X4862610Y-19039143D01*
X4881657Y-19048667D01*
X4891181Y-19058190D01*
X4900705Y-19077238D01*
X4900705Y-19134381D01*
X4891181Y-19153429D01*
X4881657Y-19162952D01*
X4862610Y-19172476D01*
X4824515Y-19172476D01*
X4805467Y-19162952D01*
X4986419Y-19153429D02*
X4995943Y-19162952D01*
X4986419Y-19172476D01*
X4976896Y-19162952D01*
X4986419Y-19153429D01*
X4986419Y-19172476D01*
X4986419Y-19048667D02*
X4995943Y-19058190D01*
X4986419Y-19067714D01*
X4976896Y-19058190D01*
X4986419Y-19048667D01*
X4986419Y-19067714D01*
D13*
X3317372Y-19482000D02*
X3357372Y-19522000D01*
X3357372Y-19482000D02*
X3317372Y-19522000D01*
D12*
X3653086Y-19392476D02*
X3672134Y-19392476D01*
X3691181Y-19402000D01*
X3700705Y-19411524D01*
X3710229Y-19430571D01*
X3719753Y-19468667D01*
X3719753Y-19516286D01*
X3710229Y-19554381D01*
X3700705Y-19573429D01*
X3691181Y-19582952D01*
X3672134Y-19592476D01*
X3653086Y-19592476D01*
X3634038Y-19582952D01*
X3624514Y-19573429D01*
X3614991Y-19554381D01*
X3605467Y-19516286D01*
X3605467Y-19468667D01*
X3614991Y-19430571D01*
X3624514Y-19411524D01*
X3634038Y-19402000D01*
X3653086Y-19392476D01*
X3805467Y-19573429D02*
X3814991Y-19582952D01*
X3805467Y-19592476D01*
X3795943Y-19582952D01*
X3805467Y-19573429D01*
X3805467Y-19592476D01*
X3986419Y-19459143D02*
X3986419Y-19592476D01*
X3938800Y-19382952D02*
X3891181Y-19525810D01*
X4014991Y-19525810D01*
X4129276Y-19392476D02*
X4148324Y-19392476D01*
X4167372Y-19402000D01*
X4176895Y-19411524D01*
X4186419Y-19430571D01*
X4195943Y-19468667D01*
X4195943Y-19516286D01*
X4186419Y-19554381D01*
X4176895Y-19573429D01*
X4167372Y-19582952D01*
X4148324Y-19592476D01*
X4129276Y-19592476D01*
X4110229Y-19582952D01*
X4100705Y-19573429D01*
X4091181Y-19554381D01*
X4081657Y-19516286D01*
X4081657Y-19468667D01*
X4091181Y-19430571D01*
X4100705Y-19411524D01*
X4110229Y-19402000D01*
X4129276Y-19392476D01*
X4319753Y-19392476D02*
X4338800Y-19392476D01*
X4357848Y-19402000D01*
X4367372Y-19411524D01*
X4376896Y-19430571D01*
X4386419Y-19468667D01*
X4386419Y-19516286D01*
X4376896Y-19554381D01*
X4367372Y-19573429D01*
X4357848Y-19582952D01*
X4338800Y-19592476D01*
X4319753Y-19592476D01*
X4300705Y-19582952D01*
X4291181Y-19573429D01*
X4281657Y-19554381D01*
X4272134Y-19516286D01*
X4272134Y-19468667D01*
X4281657Y-19430571D01*
X4291181Y-19411524D01*
X4300705Y-19402000D01*
X4319753Y-19392476D01*
X4472134Y-19592476D02*
X4472134Y-19459143D01*
X4472134Y-19478190D02*
X4481657Y-19468667D01*
X4500705Y-19459143D01*
X4529276Y-19459143D01*
X4548324Y-19468667D01*
X4557848Y-19487714D01*
X4557848Y-19592476D01*
X4557848Y-19487714D02*
X4567372Y-19468667D01*
X4586419Y-19459143D01*
X4614991Y-19459143D01*
X4634038Y-19468667D01*
X4643562Y-19487714D01*
X4643562Y-19592476D01*
X4738800Y-19592476D02*
X4738800Y-19459143D01*
X4738800Y-19478190D02*
X4748324Y-19468667D01*
X4767372Y-19459143D01*
X4795943Y-19459143D01*
X4814991Y-19468667D01*
X4824515Y-19487714D01*
X4824515Y-19592476D01*
X4824515Y-19487714D02*
X4834038Y-19468667D01*
X4853086Y-19459143D01*
X4881657Y-19459143D01*
X4900705Y-19468667D01*
X4910229Y-19487714D01*
X4910229Y-19592476D01*
X5300705Y-19382952D02*
X5129276Y-19640095D01*
X5557848Y-19392476D02*
X5576896Y-19392476D01*
X5595943Y-19402000D01*
X5605467Y-19411524D01*
X5614991Y-19430571D01*
X5624514Y-19468667D01*
X5624514Y-19516286D01*
X5614991Y-19554381D01*
X5605467Y-19573429D01*
X5595943Y-19582952D01*
X5576896Y-19592476D01*
X5557848Y-19592476D01*
X5538800Y-19582952D01*
X5529276Y-19573429D01*
X5519753Y-19554381D01*
X5510229Y-19516286D01*
X5510229Y-19468667D01*
X5519753Y-19430571D01*
X5529276Y-19411524D01*
X5538800Y-19402000D01*
X5557848Y-19392476D01*
X5710229Y-19573429D02*
X5719753Y-19582952D01*
X5710229Y-19592476D01*
X5700705Y-19582952D01*
X5710229Y-19573429D01*
X5710229Y-19592476D01*
X5843562Y-19392476D02*
X5862610Y-19392476D01*
X5881657Y-19402000D01*
X5891181Y-19411524D01*
X5900705Y-19430571D01*
X5910229Y-19468667D01*
X5910229Y-19516286D01*
X5900705Y-19554381D01*
X5891181Y-19573429D01*
X5881657Y-19582952D01*
X5862610Y-19592476D01*
X5843562Y-19592476D01*
X5824514Y-19582952D01*
X5814991Y-19573429D01*
X5805467Y-19554381D01*
X5795943Y-19516286D01*
X5795943Y-19468667D01*
X5805467Y-19430571D01*
X5814991Y-19411524D01*
X5824514Y-19402000D01*
X5843562Y-19392476D01*
X6100705Y-19592476D02*
X5986419Y-19592476D01*
X6043562Y-19592476D02*
X6043562Y-19392476D01*
X6024514Y-19421048D01*
X6005467Y-19440095D01*
X5986419Y-19449619D01*
X6281657Y-19392476D02*
X6186419Y-19392476D01*
X6176895Y-19487714D01*
X6186419Y-19478190D01*
X6205467Y-19468667D01*
X6253086Y-19468667D01*
X6272134Y-19478190D01*
X6281657Y-19487714D01*
X6291181Y-19506762D01*
X6291181Y-19554381D01*
X6281657Y-19573429D01*
X6272134Y-19582952D01*
X6253086Y-19592476D01*
X6205467Y-19592476D01*
X6186419Y-19582952D01*
X6176895Y-19573429D01*
X6357848Y-19392476D02*
X6491181Y-19392476D01*
X6405467Y-19592476D01*
X6557848Y-19392476D02*
X6557848Y-19430571D01*
X6634038Y-19392476D02*
X6634038Y-19430571D01*
X6929276Y-19668667D02*
X6919753Y-19659143D01*
X6900705Y-19630571D01*
X6891181Y-19611524D01*
X6881657Y-19582952D01*
X6872134Y-19535333D01*
X6872134Y-19497238D01*
X6881657Y-19449619D01*
X6891181Y-19421048D01*
X6900705Y-19402000D01*
X6919753Y-19373429D01*
X6929276Y-19363905D01*
X6995943Y-19411524D02*
X7005467Y-19402000D01*
X7024514Y-19392476D01*
X7072134Y-19392476D01*
X7091181Y-19402000D01*
X7100705Y-19411524D01*
X7110229Y-19430571D01*
X7110229Y-19449619D01*
X7100705Y-19478190D01*
X6986419Y-19592476D01*
X7110229Y-19592476D01*
X7224514Y-19478190D02*
X7205467Y-19468667D01*
X7195943Y-19459143D01*
X7186419Y-19440095D01*
X7186419Y-19430571D01*
X7195943Y-19411524D01*
X7205467Y-19402000D01*
X7224514Y-19392476D01*
X7262610Y-19392476D01*
X7281657Y-19402000D01*
X7291181Y-19411524D01*
X7300705Y-19430571D01*
X7300705Y-19440095D01*
X7291181Y-19459143D01*
X7281657Y-19468667D01*
X7262610Y-19478190D01*
X7224514Y-19478190D01*
X7205467Y-19487714D01*
X7195943Y-19497238D01*
X7186419Y-19516286D01*
X7186419Y-19554381D01*
X7195943Y-19573429D01*
X7205467Y-19582952D01*
X7224514Y-19592476D01*
X7262610Y-19592476D01*
X7281657Y-19582952D01*
X7291181Y-19573429D01*
X7300705Y-19554381D01*
X7300705Y-19516286D01*
X7291181Y-19497238D01*
X7281657Y-19487714D01*
X7262610Y-19478190D01*
X7424514Y-19392476D02*
X7443562Y-19392476D01*
X7462610Y-19402000D01*
X7472134Y-19411524D01*
X7481657Y-19430571D01*
X7491181Y-19468667D01*
X7491181Y-19516286D01*
X7481657Y-19554381D01*
X7472134Y-19573429D01*
X7462610Y-19582952D01*
X7443562Y-19592476D01*
X7424514Y-19592476D01*
X7405467Y-19582952D01*
X7395943Y-19573429D01*
X7386419Y-19554381D01*
X7376895Y-19516286D01*
X7376895Y-19468667D01*
X7386419Y-19430571D01*
X7395943Y-19411524D01*
X7405467Y-19402000D01*
X7424514Y-19392476D01*
X7729276Y-19592476D02*
X7729276Y-19392476D01*
X7814991Y-19592476D02*
X7814991Y-19487714D01*
X7805467Y-19468667D01*
X7786419Y-19459143D01*
X7757848Y-19459143D01*
X7738800Y-19468667D01*
X7729276Y-19478190D01*
X7938800Y-19592476D02*
X7919753Y-19582952D01*
X7910229Y-19573429D01*
X7900705Y-19554381D01*
X7900705Y-19497238D01*
X7910229Y-19478190D01*
X7919753Y-19468667D01*
X7938800Y-19459143D01*
X7967372Y-19459143D01*
X7986419Y-19468667D01*
X7995943Y-19478190D01*
X8005467Y-19497238D01*
X8005467Y-19554381D01*
X7995943Y-19573429D01*
X7986419Y-19582952D01*
X7967372Y-19592476D01*
X7938800Y-19592476D01*
X8119753Y-19592476D02*
X8100705Y-19582952D01*
X8091181Y-19563905D01*
X8091181Y-19392476D01*
X8272134Y-19582952D02*
X8253086Y-19592476D01*
X8214991Y-19592476D01*
X8195943Y-19582952D01*
X8186419Y-19563905D01*
X8186419Y-19487714D01*
X8195943Y-19468667D01*
X8214991Y-19459143D01*
X8253086Y-19459143D01*
X8272134Y-19468667D01*
X8281657Y-19487714D01*
X8281657Y-19506762D01*
X8186419Y-19525810D01*
X8357848Y-19582952D02*
X8376895Y-19592476D01*
X8414991Y-19592476D01*
X8434038Y-19582952D01*
X8443562Y-19563905D01*
X8443562Y-19554381D01*
X8434038Y-19535333D01*
X8414991Y-19525810D01*
X8386419Y-19525810D01*
X8367372Y-19516286D01*
X8357848Y-19497238D01*
X8357848Y-19487714D01*
X8367372Y-19468667D01*
X8386419Y-19459143D01*
X8414991Y-19459143D01*
X8434038Y-19468667D01*
X8510229Y-19668667D02*
X8519753Y-19659143D01*
X8538800Y-19630571D01*
X8548324Y-19611524D01*
X8557848Y-19582952D01*
X8567372Y-19535333D01*
X8567372Y-19497238D01*
X8557848Y-19449619D01*
X8548324Y-19421048D01*
X8538800Y-19402000D01*
X8519753Y-19373429D01*
X8510229Y-19363905D01*
M02*
